<svg version="1.1" xmlns="http://www.w3.org/2000/svg" xmlns:xlink="http://www.w3.org/1999/xlink" width="87.7499" height="99.12005" viewBox="0,0,87.7499,99.12005"><g transform="translate(-200.63154,-150.04662)"><g data-paper-data="{&quot;isPaintingLayer&quot;:true}" fill-rule="nonzero" stroke-linecap="butt" stroke-linejoin="miter" stroke-miterlimit="10" stroke-dasharray="" stroke-dashoffset="0" style="mix-blend-mode: normal"><path d="M270.5,185c0,13.25483 -11.41674,24 -25.5,24c-14.08326,0 -25.5,-10.74517 -25.5,-24c0,-13.25483 11.41674,-24 25.5,-24c14.08326,0 25.5,10.74517 25.5,24z" fill="#fff700" stroke="#caff00" stroke-width="3.5"/><path d="M238.93443,228.23223c1.76777,1.76777 0,3.53553 0,3.53553c-0.0318,0.0318 -0.06419,0.06419 -0.09714,0.09714c0.373,0.56984 0.80451,1.21884 1.25055,1.91816c0.00183,-1.72626 0.0687,-3.434 0.26423,-5.08853c0.67531,-5.71448 2.66026,-10.18325 1.99656,-16.08513c0,0 -0.27608,-2.48471 2.20863,-2.76079c2.48471,-0.27608 2.76079,2.20863 2.76079,2.20863c0.34063,3.09985 0.51886,5.94036 -0.02139,9.03609c-0.47625,2.72897 -1.66151,5.47224 -1.98205,8.21211c-0.21633,1.84908 -0.25188,3.76753 -0.21961,5.70112c2.05733,-2.98391 4.57538,-5.69274 7.26672,-8.2031c-0.01742,-0.48791 -0.02647,-0.9783 -0.02838,-1.47015c0,0 0,-2.5 2.5,-2.5c0.67732,0 1.17113,0.1835 1.53116,0.45108c0.6309,-0.52789 1.26354,-1.04754 1.8946,-1.55984c2.86153,-2.32302 6.93181,-5.56664 10.59924,-6.47415c4.49867,-1.1132 8.87476,1.42816 12.55836,3.58453c1.45988,0.85461 3.12939,1.43366 4.36447,2.58961c1.13099,1.05853 1.70137,2.58918 2.55205,3.88378c-1.1738,1.74692 -2.0658,3.72063 -3.5214,5.24075c-2.67923,2.79799 -7.74503,4.72543 -11.057,6.61319c-2.85762,1.62879 -5.60048,3.72092 -8.47528,5.50782c-0.01069,0.01662 -0.02161,0.03328 -0.03275,0.04999c-0.61487,0.92231 -1.36606,1.16305 -2.0118,1.14529c-1.02904,0.55872 -2.08116,1.0584 -3.16683,1.46643c-3.09918,1.16476 -6.75335,1.38192 -9.98577,2.09954l-2.58833,0.64708c-0.21047,0.05753 -0.43201,0.08824 -0.66073,0.08824c-0.41494,0 -0.80628,-0.10109 -1.15072,-0.27999c-0.42783,0.76376 -1.24494,1.27999 -2.18262,1.27999c-0.52879,0 -1.01923,-0.16417 -1.42314,-0.44433c-1.17079,-0.32659 -1.56689,-1.16282 -1.68744,-1.84321l-0.21551,-0.25143c-0.5344,0.20563 -1.00724,0.20563 -1.00724,0.20563l-2.45137,-0.26393c-6.83127,-3.46283 -14.37336,-4.86063 -21.56906,-7.28714c-1.73267,-0.98825 -4.09612,-2.1032 -5.31744,-3.78832c-2.98217,-4.11467 -1.64758,-11.7535 2.64918,-14.59466c2.43535,-1.61034 4.79286,-1.0168 7.3321,-0.71331c4.15798,0.49696 9.32434,0.99842 12.81836,3.45259c1.60282,1.12581 2.68403,2.51942 3.64058,4.02134c0.67967,-0.29811 1.67254,-0.42053 2.66541,0.57234zM226.78453,226.68201c-0.47194,1.0592 -0.9626,2.03798 -1.48022,2.96383c1.79816,1.10708 3.60688,2.19572 5.44468,3.23631c0.60182,-0.60182 1.20364,-1.20364 1.80546,-1.80546c-0.73479,-1.25403 -1.54719,-2.42711 -2.84956,-3.38191c-0.80906,-0.59314 -1.80528,-1.02224 -2.88996,-1.34413zM219.18991,225.14736c-0.32697,-0.0431 -0.90547,-0.16229 -1.53689,-0.24554c1.14001,0.69433 2.27374,1.39808 3.40584,2.1038c0.26946,-0.49433 0.5316,-1.00928 0.78864,-1.55146c-0.94236,-0.10859 -1.84711,-0.19998 -2.65759,-0.30681zM268.59299,233.50394c-0.50354,-0.30912 -0.96508,-0.63099 -1.38851,-0.96591c-2.2952,1.29808 -4.562,2.65021 -6.8166,4.02494c0.69028,0.70846 1.53262,1.29734 2.55933,1.72404c2.23809,-1.38886 4.39089,-2.99686 6.57548,-4.39905zM255.16907,239.77991c-1.12938,0.69957 -2.01938,1.47064 -2.92144,2.20604c1.89046,-0.28668 3.81231,-0.57228 5.54773,-1.15174c-0.60691,-0.51687 -1.15035,-1.07441 -1.6363,-1.66753c-0.33003,0.20438 -0.66001,0.40882 -0.99,0.61323zM277.23925,222.14143c-2.27608,-1.50079 -4.6297,-2.80045 -7.09758,-2.05852c-0.95497,0.2871 -1.88932,0.70295 -2.80164,1.20644c0.1679,1.79132 0.35952,3.55892 1.02762,5.03748c2.29861,-1.28979 4.64851,-2.51426 7.117,-3.61137l-0.41909,0.18343c0,0 0.9606,-0.9606 2.17368,-0.75747zM258.77106,227.91727c-0.42797,0.35665 -0.8583,0.72014 -1.28889,1.09063c0.11361,1.15031 0.30543,2.29568 0.61871,3.37913c2.03107,-1.1901 4.02299,-2.4022 6.02229,-3.5934c-0.65274,-1.29136 -1.07096,-2.71339 -1.36411,-4.27513c-1.40132,1.15415 -2.73292,2.35283 -3.988,3.39876zM249.20673,237.75435c1.34254,-1.13566 3.02094,-2.09224 4.53453,-2.91576c-0.21541,-0.59132 -0.40111,-1.19899 -0.56034,-1.82024c-1.44222,1.48289 -2.79809,3.05939 -3.97418,4.73599zM278.92176,223.26895c1.20864,1.63618 -0.32066,3.16548 -0.32066,3.16548l-1.08575,0.8501c-1.70545,0.75798 -3.38488,1.56597 -5.04402,2.41286c0.21775,0.09845 1.20251,0.59333 1.49004,1.60665c3.22891,-1.81313 6.43922,-3.63765 9.37209,-5.94571c-1.44729,-0.2153 -2.9142,-1.0951 -4.4117,-2.08938zM222.45376,233.96075c-0.48783,0.63905 -1.00003,1.27386 -1.54045,1.91717c1.84863,0.55057 3.70389,1.07682 5.55255,1.62233c0.12539,-0.30618 0.29013,-0.55413 0.41521,-0.71751c-1.48593,-0.91926 -2.9599,-1.86769 -4.42731,-2.82198zM213.5243,228.25431c-0.77667,2.6987 0.20394,4.22116 2.43752,5.71179c0.83988,-0.95223 1.59904,-1.84506 2.29713,-2.73768c-1.57758,-1.02037 -3.15352,-2.02155 -4.73465,-2.97412z" fill="#00ff52" stroke="none" stroke-width="0.5"/><path d="M223.67787,166.13671c0.67539,0.3498 1.65872,1.15801 1.24748,2.80296c-0.60634,2.42536 -3.0317,1.81902 -3.0317,1.81902c-2.32517,-0.60292 -4.49031,-1.74592 -6.59668,-2.90051c-0.1835,-0.10058 -4.3475,-2.4997 -5.5949,-2.36636c-3.13845,0.33547 -5.25176,3.15276 -3.6599,6.00393c2.2603,4.04842 6.90644,5.37964 11.06417,6.41222l2.61593,0.65398c1.1133,0.25265 1.9444,1.24829 1.9444,2.43804c0,0.92661 -0.50412,1.73548 -1.25305,2.16731l-3.29404,1.97643c-2.00837,1.6697 -11.4095,5.36739 -7.9248,9.72783c1.45584,1.82171 6.72307,4.37374 9.03902,4.66072c1.0198,0.12637 7.17144,-0.36079 8.06132,0.43961c1.35521,1.21895 1.82697,3.26386 2.0378,5.07438c0.18461,1.58541 -1.95535,3.05683 -1.43883,4.56707c0.76594,2.23951 6.05204,4.02445 8.18162,4.55498c1.23278,-0.35721 2.55741,-0.98538 3.2488,-2.06674c0.86036,-1.34563 0.85546,-3.7483 2.40239,-4.14571c4.99442,-1.28306 4.19054,2.71986 6.36173,4.4471c3.19253,2.53973 8.10082,1.11689 11.74472,1.76369c0.47044,0.0835 0.84394,1.01065 1.23223,0.73223c0.35654,-0.25565 -0.51,-0.72036 -0.69212,-1.1195c-0.24395,-0.53466 -0.28359,-1.15711 -0.57856,-1.66541c-0.7151,-1.23228 -3.11293,-2.26727 -2.42885,-3.51703c1.19799,-2.18865 4.13218,-2.8676 6.44113,-3.81317c2.58878,-1.06017 7.79494,-1.16752 10.52741,-1.24742c4.03494,-0.11799 9.00895,1.1763 10.29457,-4.02338c-1.4767,-0.74781 -2.7281,-1.90516 -4.22972,-2.6016c-1.87992,-0.87189 -3.97063,-1.30461 -5.74574,-2.37386c-1.23404,-0.74334 -3.1415,-0.95542 -3.65915,-2.29983c-2.3298,-6.05078 0.85354,-6.96063 3.33485,-11.1447c1.55043,-2.61439 1.54831,-3.66099 1.67318,-6.53961c0.00725,-0.16716 0.44689,-5.65337 -0.89629,-5.95607c-2.40892,-0.54288 -5.2437,0.97131 -7.31676,1.87779c-1.50269,0.65707 -3.1425,2.6621 -4.56255,1.84157c-1.78099,-1.02908 -1.78285,-3.74821 -2.21686,-5.75882c-0.7262,-3.3642 -0.33143,-8.52821 0.16523,-12.02008c-4.16675,1.04071 -8.79546,0.57202 -12.49118,3.44899c-1.33829,1.04181 -3.9201,4.69434 -5.21582,4.8283c-4.66286,0.48208 -5.51616,-6.21719 -10.05961,-6.31673c-3.40124,-0.07452 -7.9674,0.5578 -11.19741,1.77295c-2.85381,1.07362 -2.44838,4.46164 -0.44418,5.80816l0.81054,-0.2121c0,0 2.04879,0.34146 2.10021,2.26936zM214.33725,161.53507c0.33696,-6.79885 5.23624,-8.45198 11.08777,-9.33483c3.52778,-0.53226 8.08158,-1.27402 11.48686,0.21105c1.37735,0.60067 3.74013,3.15167 4.6094,4.41125c0.20542,0.29765 0.03946,1.22456 0.34372,1.02906c0.45406,-0.29176 0.15046,-1.11334 0.46736,-1.55022c0.63731,-0.87862 1.45383,-1.62983 2.31682,-2.28814c5.48464,-4.18382 12.44337,-4.68702 18.84215,-3.21767c1.51707,4.30938 1.51429,6.69376 1.50867,11.20444c-0.00148,1.18966 0.1525,2.39185 0.05357,3.57391c0.71067,-0.41224 1.52402,-0.67953 2.30176,-0.93859c4.35848,-1.4518 9.12312,-1.9939 11.70709,2.56612c2.51954,4.44631 0.95694,12.28227 -1.39181,16.37225c-0.47038,0.81909 -4.16634,4.10674 -3.33181,6.18863c0.21256,0.53028 1.14771,0.145 1.67419,0.36683c0.7596,0.32006 1.37685,0.92715 2.13943,1.24006c4.0874,1.67722 6.2494,3.01946 9.88511,5.78448c0.06285,1.52359 0.60356,3.10345 0.18854,4.57077c-2.57282,9.09631 -12.7673,6.25638 -19.52943,7.02586c-1.94703,0.22156 -3.66799,0.89583 -5.50695,0.90546c1.36181,2.17058 1.87018,7.10094 0.41142,8.77865c-1.05501,1.21337 -3.1667,0.58432 -4.76777,0.73223c-2.94979,0.27252 -7.50342,0.10999 -10.31697,-0.75273c-1.61966,-0.49663 -3.23033,-1.16016 -4.60498,-2.15024c-0.4414,-0.31792 -0.80908,-0.73166 -1.12151,-1.18914c-0.91617,2.41291 -6.27995,3.70903 -7.53224,4.09045c-4.37339,-0.9127 -11.52854,-3.19973 -13.15171,-8.11168c-0.41793,-1.26473 0.03714,-2.67891 0.3,-3.98471c0.20985,-1.04248 1.95676,-2.65519 0.96564,-3.04051c-0.40202,-0.15629 -0.77473,0.44005 -1.20489,0.47189c-1.57366,0.11649 -3.17233,0.19533 -4.73379,-0.03228c-3.39643,-0.4951 -10.30279,-3.84167 -12.29432,-6.67261c-4.39394,-6.24597 1.07308,-11.69668 5.99068,-14.88581c0.50821,-0.32958 0.99709,-0.71151 1.49995,-1.0632c-4.4497,-1.40485 -8.95695,-3.64011 -11.0047,-8.00853c-2.87784,-6.13922 0.74808,-12.60601 7.67343,-13.3294c1.7778,-0.1857 3.43562,0.28703 5.03932,1.02689z" fill="#ffc400" stroke="none" stroke-width="0.5"/></g></g></svg>