<svg version="1.1" xmlns="http://www.w3.org/2000/svg" xmlns:xlink="http://www.w3.org/1999/xlink" width="101.1321" height="107" viewBox="0,0,101.1321,107"><g transform="translate(-197.15691,-131.62891)"><g data-paper-data="{&quot;isPaintingLayer&quot;:true}" fill="#8ebb24" fill-rule="nonzero" stroke="none" stroke-width="0.5" stroke-linecap="butt" stroke-linejoin="miter" stroke-miterlimit="10" stroke-dasharray="" stroke-dashoffset="0" style="mix-blend-mode: normal"><path d="M236.89147,184.89284c2.23607,1.11803 1.11803,3.3541 1.11803,3.3541l-0.73607,0.88197c0,4.37567 -1.02794,10.52046 0.08732,14.8327c0.40751,1.57566 1.3779,2.96323 1.82927,4.52689c0.21,0.7275 1.01447,7.85608 1.09822,8.10685c0.47952,1.43569 1.55617,2.5995 2.24237,3.94867c0.5664,1.11361 0.60543,2.56909 1.51064,3.43022c0.42657,0.4058 1.15479,-0.23022 1.73218,-0.34532c0,0 0.39363,0 0.8685,0.15619c1.6475,-1.97093 3.30393,-4.02618 3.70922,-6.27472c1.08662,-6.02849 -1.69587,-13.18141 0.02955,-19.10593c0.35098,-1.20515 5.21335,-7.66715 5.70158,-8.11673c4.93658,-4.5458 11.73103,-6.47475 17.90058,-8.53051c2.04373,-0.68099 3.96488,-1.15658 5.79566,-1.76226c-0.45159,-0.74214 -0.95895,-1.39574 -1.55712,-1.90613c-0.88722,-0.75701 -2.32769,-0.41439 -3.37196,-0.93375c-1.37998,-0.68633 -2.34897,-2.11523 -3.80047,-2.63342c-1.02883,-0.3673 -2.1832,0.09311 -3.27554,0.10727c-4.0375,0.05234 -9.34184,0.84794 -13.30546,-0.01873c-1.95023,-0.42643 -4.28574,-0.49958 -5.66506,-1.94274c-1.05237,-1.10108 -0.35299,-3.02569 -0.52949,-4.53853c0,0 0,-2.36624 2.30207,-2.49458c-1.64797,-0.1803 -3.28778,-0.27319 -4.75364,0.59396c-3.73793,2.21123 -5.26552,5.80504 -8.32653,8.71309c-2.55985,2.43194 -5.49043,4.31624 -8.21732,6.51749c-0.03451,0.1349 -0.07174,0.26649 -0.11186,0.3945c-0.35939,1.14686 -1.65202,1.84963 -2,3c-0.62043,2.05108 -0.03957,4.29227 0.14835,6.42687c0.28023,3.18311 1.47181,6.2191 2.18702,9.33344c0.34787,1.51479 0.10455,3.15228 0.60725,4.62297c0.38501,1.12636 1.54766,1.86082 1.98715,2.96706c0.62771,1.58001 0.80149,3.28427 0.97863,4.99117c0.26399,0.55494 0.25592,1.17626 0.20994,1.81026c0.08358,0.59735 0.18774,1.18966 0.33254,1.77161c0.95227,3.82699 1.66949,4.80078 3.39245,8.23412c0,0 1.11803,2.23607 -1.11803,3.3541c-0.239,0.1195 -0.46522,0.20068 -0.67867,0.25037c0.1693,0.74338 0.18054,1.99869 -1.32133,2.74963c-2.23607,1.11803 -3.3541,-1.11803 -3.3541,-1.11803l-1.26393,-3.11803c0,-1.89819 0.00554,-3.7964 0.01873,-5.69454c-0.33272,-1.32846 -0.81271,-2.6285 -0.99816,-3.98538c-0.05437,-0.3978 0.06775,-0.82183 0.15913,-1.23556c-0.05343,-0.4513 -0.09315,-0.90589 -0.13072,-1.36071c-0.71932,-1.17895 -2.13454,-1.82995 -2.97731,-2.93742c-3.59728,-4.72714 -7.50752,-11.43418 -9.88723,-16.84395c-1.13769,-2.5863 -1.26214,-5.5126 -2.07717,-8.21797c-2.35674,-7.82283 -5.56515,-15.46746 -8.27994,-23.17491c-0.5034,-1.42918 -0.75197,-2.97116 -1.4896,-4.29473c-1.56317,-2.80487 -4.84593,-4.46777 -6.18244,-7.38745c-0.53699,-1.1731 -0.10352,-2.57824 -0.15529,-3.86737c0,0 0,-2.5 2.5,-2.5c2.5,0 2.5,2.5 2.5,2.5c-0.30609,4.20362 3.71404,5.27527 5.66228,8.74518c0.89015,1.58541 1.25541,3.41285 1.87376,5.12269c2.80338,7.75182 5.97871,15.51625 8.35669,23.40767c0.77094,2.55839 0.83405,5.34189 1.92283,7.78203c1.21982,2.7338 2.8227,5.74143 4.56105,8.64078c-0.00617,-0.02757 -0.01247,-0.05511 -0.01893,-0.08262c-0.78704,-3.35487 -1.98699,-6.64681 -2.30168,-10.07837c-0.09423,-1.02749 -0.06473,-7.83564 0.05126,-8.26182c0.02212,-0.08126 0.04896,-0.16031 0.0799,-0.23744c-0.76702,-1.49378 0.54507,-2.80587 0.54507,-2.80587c0.45077,-0.44949 0.9142,-0.88032 1.38703,-1.2971c-0.0533,-0.31293 -0.11401,-0.62751 -0.11927,-0.93513c-0.05127,-2.99956 0,-6 0,-9c0,-6.7488 -0.00348,-13.49756 0.01217,-20.24634c0.48955,-2.05229 0.29806,-4.4015 1.46864,-6.15686c0.86481,-1.29684 2.74434,-1.47897 4.11651,-2.21846l0.53098,-2.16891c0,0 0.79057,-2.37171 3.16228,-1.58114c2.37171,0.79057 1.58114,3.16228 1.58114,3.16228l-1.46902,3.83109c-1.30744,0.65858 -3.01845,0.82416 -3.92233,1.97573c-0.7578,0.96546 -0.32835,2.43263 -0.49252,3.64895c0.01685,6.58455 0.01217,13.16909 0.01217,19.75366c0,1.59758 0.203,3.7111 0.31731,5.85646c1.53741,-1.15647 3.05594,-2.33429 4.46079,-3.66893c3.5539,-3.37632 4.94899,-7.00422 9.48216,-9.53386c2.63517,-1.4705 5.38306,-1.18972 8.23974,-1.15367c0.7593,0.00958 1.57161,0.39205 2.27554,0.10727c0.7476,-0.30245 7.04306,-5.15716 7.35625,-5.3949c4.56402,-3.46457 9.18091,-6.6331 12.41069,-11.50217c1.33572,-2.01366 2.31052,-4.2457 3.53524,-6.32873l-0.07772,-3.38147c0,0 0,-2.5 2.5,-2.5c2.5,0 2.5,2.5 2.5,2.5l-0.07772,4.61853c-0.83479,1.60726 -3.47219,6.74629 -4.21781,7.86258c-3.5769,5.3551 -8.51547,8.89427 -13.54999,12.71414c-1.76574,1.33973 -6.98501,5.46629 -8.93002,6.19748c-1.20027,0.45122 -2.50573,0.37771 -3.8297,0.23569c1.60524,0.51089 1.60524,2.37158 1.60524,2.37158c-1.035,2.85678 2.43805,1.50502 4.5,1.5c3.33332,-0.00811 6.66687,-0.03677 10,0c1.57513,0.01738 3.22715,-0.38201 4.72446,0.10727c1.7039,0.55679 2.9181,2.10916 4.52003,2.91358c1.36062,0.68325 3.15587,0.52337 4.30754,1.51925c1.20547,1.0424 1.83526,2.58136 2.60293,4.00276c0.66538,-0.39523 1.32088,-0.85 1.9684,-1.38412c0.80496,0.10438 1.85666,0.90244 2.41487,0.31315c0.8435,-0.89048 0.33896,-2.44129 0.70879,-3.61077c0.97016,-3.06787 1.92629,-4.11343 3.67286,-6.74788l0.84406,-1.73128c0,0 1.11803,-2.23607 3.3541,-1.11803c2.23607,1.11803 1.11803,3.3541 1.11803,3.3541l-1.15594,2.26872c-1.22133,1.82056 -2.31129,3.746 -3.16486,5.76529c-0.82643,1.95508 -0.9712,4.35681 -2.45349,5.87607c-0.83773,0.85862 -2.39009,0.20877 -3.58513,0.31315c-0.32522,0.30248 -0.67186,0.5773 -1.03557,0.82889c0.11368,0.1921 0.22303,0.38674 0.32677,0.58468c0.51414,0.98097 0.35122,2.34771 1.14648,3.11854c0.41324,0.40055 1.12378,-0.24892 1.68567,-0.37337h1c0,0 2.5,0 2.5,2.5c0,2.5 -2.5,2.5 -2.5,2.5h-1c-1.43811,-0.12446 -3.15017,0.48008 -4.31433,-0.37337c-1.66988,-1.22421 -2.66575,-3.48998 -3.6203,-5.80994c-0.53606,0.1716 -1.07239,0.33404 -1.60063,0.49585c-6.85398,2.09959 -15.32623,4.0407 -20.7736,9.02866c-1.79125,1.64019 -3.64936,3.54285 -4.29842,5.88327c-0.29194,1.0527 0.09311,2.1832 0.10727,3.27554c0.06187,4.77314 0.85729,10.95424 -0.07772,15.61853c-0.88362,4.40794 -5.16029,7.7854 -7.18199,11.49103c-0.98234,1.80056 -0.75369,3.96251 -0.74029,5.89044c0,0 0,2.5 -2.5,2.5c-2.5,0 -2.5,-2.5 -2.5,-2.5c0.01577,-2.78251 -0.19977,-4.77731 0.92279,-7.38827c-0.62081,-0.00012 -1.20539,-0.09655 -1.69061,-0.45706c-0.55319,-0.411 -5.6162,-9.07537 -5.95985,-10.10426c-0.89691,-2.68538 -0.39054,-5.69369 -1.18892,-8.41c-0.48104,-1.63662 -1.48254,-3.1001 -1.88464,-4.75788c-1.15132,-4.74665 -0.19878,-11.06437 -0.19878,-15.88254l1.26393,-3.11803c0,0 1.11803,-2.23607 3.3541,-1.11803z"/></g></g></svg>