<svg version="1.1" xmlns="http://www.w3.org/2000/svg" xmlns:xlink="http://www.w3.org/1999/xlink" width="332.48328" height="268.33194" viewBox="0,0,332.48328,268.33194"><g transform="translate(-74.41381,-46.67893)"><g data-paper-data="{&quot;isPaintingLayer&quot;:true}" fill="#00ff46" fill-rule="nonzero" stroke="none" stroke-width="0" stroke-linecap="butt" stroke-linejoin="miter" stroke-miterlimit="10" stroke-dasharray="" stroke-dashoffset="0" style="mix-blend-mode: normal"><path d="M74.41381,306.40944v-22.43953h39.31856v22.43953z"/><path d="M102.69559,82.22466v-22.43953h39.31856v22.43953z"/><path d="M138.56515,207.94675v-19.16916h20.00418v19.16916z"/><path d="M129.76916,220.53454v-19.16916h20.00418v19.16916z"/><path d="M222.03087,315.01087v-15.86538h22.07358v15.86538z"/><path d="M174.60612,62.39188v-12.78234h34.48996v12.78234z"/><path d="M388.96231,117.72826v-46.21655h17.93478v46.21656z"/><path d="M318.60277,60.47492v-13.79599h62.77174v13.79599z"/><path d="M388.96231,272.93311v-55.87374h15.17559v55.87374z"/><path d="M293.0802,183.2592v-24.14298h38.62876v24.14298z"/><path d="M341.36615,265.34532v-19.31438h30.35117v19.31438z"/><path d="M226.16966,244.65134v-8.96739h20.00418v8.96739z"/><path d="M155.12033,127.38545v-10.34699h9.65719v10.34699z"/><path d="M252.38204,109.45067v-15.86538h35.17977v15.86538z"/></g></g></svg>