<svg version="1.1" xmlns="http://www.w3.org/2000/svg" xmlns:xlink="http://www.w3.org/1999/xlink" width="295" height="282.60983" viewBox="0,0,295,282.60983"><g transform="translate(-92.5,-20.95511)"><g data-paper-data="{&quot;isPaintingLayer&quot;:true}" fill-rule="nonzero" stroke-linecap="butt" stroke-linejoin="miter" stroke-miterlimit="10" stroke-dasharray="" stroke-dashoffset="0" style="mix-blend-mode: normal"><path d="M96,283.50001v-207h288v207z" fill="#00ffff" stroke="#ff0000" stroke-width="7"/><path d="M372.91421,116.41422c-1.41421,1.41421 -2.82843,0 -2.82843,0l-1,-1c-2.62442,-2.82922 -3.12528,-6.28183 -5.58437,-9.22166c-2.63439,4.65945 -5.14462,9.41726 -8.28576,13.83532l-0.9268,1.86655c0,0 -0.89443,1.78885 -2.68328,0.89443c-1.78885,-0.89443 -0.89443,-2.68328 -0.89443,-2.68328l1.0732,-2.13345c3.22706,-4.57867 5.81435,-9.50518 8.55441,-14.3162c-1.69218,-0.96465 -3.83682,-2.00757 -4.71795,-2.57208c-2.57385,-1.64898 -3.2185,-3.18464 -6.1208,-3.08384c0,0 -2,0 -2,-2c0,-2 2,-2 2,-2c3.8893,0.0846 5.03801,1.63802 8.2792,3.71616c1.61186,1.03347 3.0812,1.83866 4.45273,2.6962c1.32443,-2.20055 2.7206,-4.35351 4.26807,-6.41236c2.19002,-2.91374 2.94083,-5.06236 6.10557,-6.78885c0,0 1.78885,-0.89443 2.68328,0.89443c0.89443,1.78885 -0.89443,2.68328 -0.89443,2.68328c-2.20133,0.93002 -3.2347,3.66084 -4.69443,5.61115c-1.53928,2.0566 -2.92433,4.20875 -4.23845,6.4081c0.77545,0.7105 1.52713,1.53226 2.26598,2.53385c0.91513,1.24055 1.92904,2.44597 2.55553,3.8545c0.26977,0.60651 -0.24346,1.39277 0.0444,1.99091c0.30573,0.63527 1.05784,0.93229 1.58675,1.39843l1,1c0,0 1.41421,1.41421 0,2.82843z" fill="#ff0000" stroke="none" stroke-width="0.5"/><text transform="translate(249.75,144.67815) scale(0.5,0.5)" font-size="40" xml:space="preserve" fill="#000000" fill-rule="nonzero" stroke="none" stroke-width="1" stroke-linecap="butt" stroke-linejoin="miter" stroke-miterlimit="10" stroke-dasharray="" stroke-dashoffset="0" font-family="&quot;black&quot;, &quot;Microsoft YaHei&quot;, &quot;微软雅黑&quot;, STXihei, &quot;华文细黑&quot;" font-weight="normal" text-anchor="start" style="mix-blend-mode: normal"><tspan x="0" dy="0">巨人僵尸</tspan></text><text transform="translate(231.75,188.17815) scale(0.5,0.5)" font-size="40" xml:space="preserve" fill="#000000" fill-rule="nonzero" stroke="none" stroke-width="1" stroke-linecap="butt" stroke-linejoin="miter" stroke-miterlimit="10" stroke-dasharray="" stroke-dashoffset="0" font-family="&quot;black&quot;, &quot;Microsoft YaHei&quot;, &quot;微软雅黑&quot;, STXihei, &quot;华文细黑&quot;" font-weight="normal" text-anchor="start" style="mix-blend-mode: normal"><tspan x="0" dy="0">血量非常多！</tspan></text><path d="M248.58385,79.71289c0,31.07031 -25.49843,56.25778 -56.95232,56.25778c-31.45389,0 -56.95232,-25.18747 -56.95232,-56.25778c0,-31.07031 25.49843,-56.25778 56.95232,-56.25778c31.45389,0 56.95232,25.18747 56.95232,56.25778z" fill="none" stroke="#000000" stroke-width="5"/><path d="M107.59212,151.94512c0,-3.34656 3.17298,-3.46812 3.40348,-3.47254c3.52071,-1.52202 7.97683,-3.43841 11.66717,-4.10475c0.46359,-0.08371 9.08644,-0.06266 9.52953,-0.06266c7.51672,0 15.03344,0 22.55016,0c6.27096,0 12.66299,0.35938 18.92117,0.00671c3.56494,-0.2009 7.0239,-0.61864 10.50752,-0.94502c-20.6513,-6.46609 -43.12408,-14.56204 -64.62561,-10.19123l-4.4367,0.01691c0,0 -3.41669,0 -3.41669,-3.4727c0,-3.4727 3.41669,-3.4727 3.41669,-3.4727l3.76337,0.01691c22.44611,-4.56281 45.76415,3.81815 67.29117,10.4821c0.09862,-0.45997 0.31447,-0.95294 0.696,-1.46997c2.05002,-2.77816 4.78337,-0.69454 4.78337,-0.69454c1.20778,1.03082 2.87669,1.6805 3.62332,3.09247c1.84898,3.49665 1.68511,9.23092 2.48261,13.02025c0.45202,2.14774 1.61189,4.10015 2.05002,6.25086c1.03053,5.05873 0.04412,11.36573 0.04412,16.5307c0,5.48868 0.82424,11.81629 -0.04412,17.22524c-0.44856,2.79404 -1.17872,5.45763 -2.15931,8.00352c3.0787,1.1421 2.0281,4.34556 2.0281,4.34556c-1.74339,5.11579 -1.19135,10.16596 -1.19135,15.57081c0,8.1129 0.98119,14.75371 2.63329,22.76302c0.43948,2.13057 1.60999,8.57995 2.97272,10.77846c2.43317,3.9255 6.86906,7.98197 9.92328,11.37124c5.07255,5.629 7.96862,11.2687 14.19195,15.80649c0.67337,0.92631 1.45808,1.78366 2.32249,2.54713c0.23145,-0.04094 0.48303,-0.06318 0.75649,-0.06318c3.41669,0 3.41669,3.4727 3.41669,3.4727l-5.17456,4.3669c-2.28407,-1.43662 -4.47072,-3.1825 -6.09655,-5.35564c-6.33868,-4.58126 -9.37252,-10.4526 -14.50826,-16.14237c-2.45702,-2.72208 -4.71568,-5.62425 -6.98056,-8.51336c-1.06727,-1.36142 -2.71075,-2.23977 -3.5963,-3.72978c-2.11322,-3.55567 -3.09015,-9.14529 -3.91375,-13.10566c-2.11004,-10.1464 -4.19633,-22.12032 -3.04473,-33.05906c-0.12903,0.1695 -0.25923,0.33842 -0.39062,0.50676c-8.73988,3.84053 -18.17264,6.10458 -26.20374,11.28149c-16.73351,10.78655 -21.58428,32.98442 -21.70238,51.80525l-1.36668,4.16724v3.4727l-1.36668,4.16724l0.04412,2.91643h-6.83338l0.04412,-4.02897l1.36668,-4.16724v-3.4727l1.36668,-4.16724c-0.14494,-20.84154 6.57271,-44.74169 24.76463,-56.54307c7.81151,-5.06745 17.00596,-7.86181 25.72996,-10.94381c6.53257,-9.90006 6.17837,-19.74855 6.17837,-31.27615c0,-4.7498 1.05552,-10.79587 0.04412,-15.41816c-0.46911,-2.14395 -1.59647,-4.10346 -2.05002,-6.25086c-0.12523,-0.59292 -0.20999,-1.24281 -0.27826,-1.92459c-5.63931,0.14773 -10.98876,1.04207 -16.63702,1.36161c-6.39916,0.36201 -12.93346,0.00671 -19.34577,0.00671c-7.51672,0 -15.03344,0 -22.55016,0c-2.74582,0 -5.53834,-0.57625 -8.23728,-0.06266c-3.49372,0.66483 -7.68441,2.52627 -10.91697,3.94912l-2.02924,0.28079c0,0 -3.41669,0 -3.41669,-3.4727z" fill="#000000" stroke="#000000" stroke-width="22.5"/><path d="M163.15536,90.13101c-3.4727,0 -3.4727,-3.4727 -3.4727,-3.4727l0.24838,-1.98427c2.60619,-6.15007 1.12109,-14.65067 1.85648,-21.31906c0,0 0.3835,-3.45146 3.83496,-3.06797c3.45146,0.3835 3.06797,3.83496 3.06797,3.83496c-0.85995,7.67856 0.45805,15.91285 -2.31076,23.13153l0.24838,-0.59519c0,0 0,3.4727 -3.4727,3.4727z" fill="#000000" stroke="none" stroke-width="0.5"/><path d="M186.37213,90.33065c-2.97781,-1.78669 -1.19112,-4.76451 -1.19112,-4.76451l1.97544,-3.27858c2.06954,-4.74889 4.18907,-9.47214 6.11254,-14.28252c0,0 1.28973,-3.22432 4.51406,-1.9346c3.22432,1.28973 1.9346,4.51406 1.9346,4.51406c-2.00717,5.01624 -4.21729,9.94158 -6.38919,14.88818l-2.1918,3.66683c0,0 -1.78669,2.97781 -4.76451,1.19112z" fill="#000000" stroke="none" stroke-width="0.5"/><path d="M197.18785,104.02182c0,3.4727 -3.4727,3.4727 -3.4727,3.4727h-3.4727c-3.46222,0 -6.87847,-0.27165 -10.27555,0.59214c-2.88864,0.7345 -5.85374,1.77383 -8.81923,1.47458c-4.70197,-0.47447 -7.94208,-2.98745 -11.86261,-5.33977c0,0 -2.97781,-1.78669 -1.19112,-4.76451c1.78669,-2.97781 4.76451,-1.19112 4.76451,-1.19112c2.14577,1.28747 4.10229,2.94063 6.41096,3.906c3.32806,1.39161 5.83528,-0.04153 9.0233,-0.82578c4.01065,-0.98661 7.87552,-0.79694 11.94975,-0.79694h3.4727c0,0 3.4727,0 3.4727,3.4727z" fill="#000000" stroke="none" stroke-width="0.5"/><path d="M191.78884,127.05296c-2.88947,-1.92631 -0.96316,-4.81578 -0.96316,-4.81578l0.98405,0.94085c-0.39021,-1.2179 -0.61988,-2.49948 -1.17063,-3.6537c-0.66538,-1.39443 -2.33082,-2.39411 -2.4503,-3.93453c-0.22217,-2.86448 2.53381,-6.83411 3.9376,-9.18744c0,0 1.78669,-2.97781 4.76451,-1.19112c2.97781,1.78669 1.19112,4.76451 1.19112,4.76451c-0.65015,1.07639 -1.27295,2.16976 -1.95044,3.22916c-0.32581,0.50947 -1.18337,0.88276 -1.05737,1.47423c0.16404,0.77 1.34965,0.92546 1.71695,1.62179c0.76968,1.45916 1.07169,3.12052 1.60753,4.68079l-1.79411,5.1081c0,0 -1.92631,2.88947 -4.81578,0.96316z" fill="#ff0000" stroke="none" stroke-width="0.5"/><path d="M183.99158,84.57468c0,-1.91792 1.55478,-3.4727 3.4727,-3.4727c1.91792,0 3.4727,1.55478 3.4727,3.4727c0,1.91792 -1.55478,3.4727 -3.4727,3.4727c-1.91792,0 -3.4727,-1.55478 -3.4727,-3.4727z" fill="#ff0000" stroke="none" stroke-width="0.5"/><path d="M156.20996,86.65831c0,-1.91792 1.55478,-3.4727 3.4727,-3.4727c1.91792,0 3.4727,1.55478 3.4727,3.4727c0,1.91792 -1.55478,3.4727 -3.4727,3.4727c-1.91792,0 -3.4727,-1.55478 -3.4727,-3.4727z" fill="#ff0000" stroke="none" stroke-width="0.5"/></g></g></svg>