<svg version="1.1" xmlns="http://www.w3.org/2000/svg" xmlns:xlink="http://www.w3.org/1999/xlink" width="920" height="696" viewBox="0,0,920,696"><defs><radialGradient cx="275.5" cy="212" r="460" gradientUnits="userSpaceOnUse" id="color-1"><stop offset="0" stop-color="#9966ff" stop-opacity="0.33725"/><stop offset="1" stop-color="#6683ff"/></radialGradient></defs><g transform="translate(184.5,136)"><g data-paper-data="{&quot;isPaintingLayer&quot;:true}" fill-rule="nonzero" stroke="none" stroke-linecap="butt" stroke-linejoin="miter" stroke-miterlimit="10" stroke-dasharray="" stroke-dashoffset="0" style="mix-blend-mode: normal"><path d="M-184.5,560v-696h920v696z" fill="url(#color-1)" stroke-width="0"/><path d="M83,137c0,2.5 -2.5,2.5 -2.5,2.5l-3.72446,-0.10727c-4.57396,-2.90916 -9.61844,-4.64536 -14.88188,-5.96737c-2.73066,-0.68586 -7.81252,-1.58098 -9.52029,-4.11103c-0.99351,-1.47188 -0.30913,-3.53968 -0.37337,-5.31433c-0.12059,-3.33115 0,-6.66667 0,-10c0,-8.34326 -0.5122,-16.87375 0.00792,-25.19884c0.27221,-4.35702 1.39962,-8.83102 2.01721,-13.15471c0,0 0.35355,-2.47487 2.82843,-2.12132c2.47487,0.35355 2.12132,2.82843 2.12132,2.82843c-0.6024,4.21624 -1.72495,8.59722 -1.98279,12.84529c-0.49741,8.19484 0.00792,16.58877 0.00792,24.80116c0,3.33333 0.16174,6.67059 0,10c-0.04386,0.90277 -0.8647,1.92705 -0.37337,2.68567c0.52679,0.81338 1.8104,0.6984 2.74074,0.96962c1.23216,0.3592 2.4935,0.60948 3.73897,0.91936c5.23447,1.30234 10.69678,2.91017 15.11812,6.03263l2.27554,-0.10727c0,0 2.5,0 2.5,2.5z" fill-opacity="0.33725" fill="#9966ff" stroke-width="0.5"/><path d="M304.00735,303.80848c0.19152,-2.49265 2.68418,-2.30113 2.68418,-2.30113l4.73226,0.3636c4.94771,0.38016 10.35325,0.26897 15.22617,1.1848c0.06985,0.01313 9.65531,2.90508 9.86525,2.98099c1.17985,0.4266 2.20779,1.29741 3.44196,1.5229c0.3117,0.05695 0.44466,-0.4909 0.51292,-0.80031c0.28737,-1.30265 0.45788,-2.63399 0.53844,-3.96553c0.28076,-4.64093 -0.59248,-9.51303 0.01344,-14.12439c0.39647,-3.01731 1.6632,-5.85663 2.37322,-8.81589c1.56361,-6.5169 2.91997,-13.01071 4.68605,-19.48562c0.36662,-1.46676 2.03942,-8.23023 2.24327,-8.59964c2.4861,-4.50531 7.96621,-5.11797 11.00226,-8.87642c0.94416,-1.16881 1.2728,-2.72303 1.96198,-4.05816c2.11019,-4.08802 4.31824,-7.82756 6.03312,-12.11976c3.86155,-9.66515 8.65754,-20.53028 9.69031,-30.96025c0.32037,-3.2354 -0.01217,-6.50243 -0.01217,-9.75366c0,0 0,-2.5 2.5,-2.5c2.5,0 2.5,2.5 2.5,2.5c0,0.3147 0.00387,10.08444 -0.01217,10.24634c-1.07995,10.90641 -5.97499,22.21426 -10.02359,32.32452c-1.78234,4.45091 -4.0145,8.37715 -6.25298,12.59547c-0.8583,1.61743 -1.34734,3.47168 -2.51016,4.88611c-2.61728,3.18361 -8.61237,4.46499 -10.52561,8.17931c-1.16098,2.2539 -1.14171,4.94074 -1.75673,7.40036c-1.75711,6.44344 -3.10556,12.90268 -4.66158,19.38797c-0.67017,2.79319 -1.90597,5.4624 -2.27914,8.31052c-0.59443,4.53677 0.47084,9.31641 0.01344,13.87561c-0.29864,2.97673 -0.54413,8.47852 -4.94865,9.23415c-2.05768,0.35301 -4.03734,-1.06624 -6.04487,-1.63937c-3.10726,-0.8871 -6.09576,-2.23439 -9.27156,-2.83126c-4.69467,-0.88233 -9.92004,-0.7473 -14.68567,-1.11346l-4.73226,-0.3636c0,0 -2.49265,-0.19152 -2.30113,-2.68418z" fill-opacity="0.33725" fill="#9966ff" stroke-width="0.5"/><path d="M24.5,248.5c2.5,0 2.5,2.5 2.5,2.5l-0.12829,1.20943c0.2188,0.77626 0.12597,1.72125 0.6564,2.32879c0.98995,1.13388 2.5435,1.6322 3.67173,2.62859c3.33932,2.9491 6.15693,7.01437 9.08579,10.3626c11.05308,14.44598 21.30539,29.42526 32.21438,43.97058c6.37018,8.49358 14.29698,19.66338 25.47277,22.04511c2.32342,0.49516 4.75128,-0.03413 7.12678,-0.01283c9.68729,-3.3373 20.13152,-4.45313 29.82545,-7.87727c17.05833,-6.02542 32.42619,-15.85477 48.45697,-23.89108c0,0 2.23607,-1.11803 3.3541,1.11803c1.11803,2.23607 -1.11803,3.3541 -1.11803,3.3541c-16.2372,8.0959 -31.76588,18.03617 -49.02775,24.13348c-9.9779,3.52444 -20.65247,4.84618 -30.68983,8.09817c-0.50337,0.00369 -8.41039,0.08725 -8.87322,-0.01283c-12.56695,-2.71732 -21.30775,-14.32892 -28.52723,-23.95489c-10.8665,-14.48866 -21.08172,-29.40835 -32.08362,-43.80373c-2.79663,-3.19354 -5.4596,-7.02118 -8.61621,-9.86308c-1.35913,-1.22363 -3.18118,-1.9471 -4.32827,-3.37141c-0.81737,-1.0149 -0.89574,-2.44747 -1.3436,-3.67121l-0.12829,-2.79057c0,0 0,-2.5 2.5,-2.5z" fill-opacity="0.33725" fill="#9966ff" stroke-width="0.5"/><path d="M131.69713,77.80526c2.19474,1.19713 0.99761,3.39187 0.99761,3.39187l-1.21148,2.22104c-1.51251,2.77294 -3.50798,5.32319 -4.58627,8.29206c-1.18972,3.27566 -0.75036,8.91441 -0.89883,12.38571c-0.09599,2.24415 0.28139,9.15319 -0.56769,10.49255c-0.85131,1.34287 -3.01585,1.00993 -4.53824,1.46859c-1.67278,0.50397 -3.31502,1.17849 -5.04547,1.41875c-2.65524,0.36867 -5.4266,-0.96795 -8.03461,-0.34786c-0.37775,0.08982 -0.48078,0.72649 -0.37945,1.10131c0.35248,1.30382 1.1885,2.42951 1.67464,3.6896c0.00839,0.02176 3.16259,9.48519 3.18323,9.54712c2.43295,7.31463 4.85235,15.58933 5.6945,23.26119c0.01965,0.17897 0.01493,9.92588 0.01493,10.27279c0,0.87329 0.02891,10.19898 -0.09882,10.69595c-0.12352,0.48058 -4.83204,7.78469 -4.98806,8.06092c-2.40474,4.25755 -4.17089,7.55462 -7.71728,11.08001c-4.13824,4.11372 -9.68668,5.11632 -14.30908,8.24324c0,0 -2.08013,1.38675 -3.46688,-0.69338c-1.38675,-2.08013 0.69338,-3.46688 0.69338,-3.46688c4.43195,-2.9188 9.83041,-3.86565 13.69092,-7.75676c3.17908,-3.20428 4.58051,-6.01073 6.75485,-9.86426c1.36596,-2.42085 3.87981,-4.29467 4.5398,-6.9948c0.73642,-3.01283 -0.09882,-6.20252 -0.09882,-9.30405c0,-3.24241 0.36873,-6.50416 0.01493,-9.72721c-0.80383,-7.32271 -3.13497,-15.2431 -5.46777,-22.22564c-1.04736,-3.14209 -2.06871,-6.29298 -3.14132,-9.42654c-1.3226,-3.86387 -4.16158,-7.3777 0.78203,-10.74859c1.08958,-0.74295 8.57904,-0.15181 9.96539,-0.34786c1.57069,-0.22212 3.00678,-1.05742 4.56977,-1.32846c0.61058,-0.10588 1.61657,0.79126 1.84652,0.2158c0.4278,-1.0706 -0.4826,-2.26188 -0.56953,-3.41151c-0.21894,-2.89542 0.17326,-6.34159 0.39085,-9.17701c0.2184,-2.84593 -0.2241,-5.83685 0.71216,-8.53322c0.1444,-0.41586 4.64292,-8.62812 4.99077,-9.26586l1.21148,-2.22104c0,0 1.19713,-2.19474 3.39187,-0.99761z" fill-opacity="0.33725" fill="#9966ff" stroke-width="0.5"/><path d="M327.92536,67.60634c-0.60634,2.42536 -3.0317,1.81902 -3.0317,1.81902l-3.69886,-0.94406c-6.08655,0.03141 -12.4938,-0.57441 -18.54338,0.02574c-3.00644,0.29825 -5.84325,1.64061 -8.84597,1.97423c-3.98461,0.44272 -8.85831,-0.90703 -12.77254,-0.03873c-4.00494,0.88843 -6.49081,4.4618 -10.38557,5.80451c-0.28405,0.09407 -9.56782,3.17219 -9.7183,3.20682c-4.87508,1.12181 -10.07427,1.17833 -15.00862,2.01052c-8.04289,1.35646 -16.05463,4.18667 -24.16413,5.02243c-4.3112,0.44431 -8.9125,0.01317 -13.25629,0.01317c-8,0 -16,0 -24,0c0,0 -2.5,0 -2.5,-2.5c0,-2.5 2.5,-2.5 2.5,-2.5c8,0 16,0 24,0c4.17456,0 8.60039,0.44018 12.74371,0.01317c7.99223,-0.82368 15.90621,-3.63962 23.83587,-4.97757c4.83566,-0.8159 9.95169,-0.85526 14.72822,-1.95439c3.17252,-0.73003 6.17731,-2.05724 9.26769,-3.08066c4.20033,-1.31315 6.37984,-4.86488 10.89161,-5.9431c4.10651,-0.98137 9.04362,0.42616 13.22746,-0.03873c3.04046,-0.33784 5.91601,-1.68093 8.95984,-1.98693c6.4011,-0.6435 13.21382,-0.03918 19.65081,-0.0131l4.30114,1.05594c0,0 2.42536,0.60634 1.81902,3.0317z" fill-opacity="0.33725" fill="#9966ff" stroke-width="0.5"/><path d="M409.52191,194.51956c-5.95452,-4.18732 -12.35465,-7.65273 -18.6438,-11.3214c-2.69152,-1.57005 -5.02256,-3.97159 -8.03056,-4.7848c-3.00172,-0.81151 -9.2848,0.13134 -12.34755,0.08664c-1.26411,-0.01845 -2.62068,0.35097 -3.79057,-0.12829c-3.10739,-1.27298 -5.48144,-3.88217 -8.27568,-5.74458c-6.3483,-4.23125 -14.62709,-8.39377 -17.30546,-15.83656c0,0 -0.79057,-2.37171 1.58114,-3.16228c2.37171,-0.79057 3.16228,1.58114 3.16228,1.58114c1.74041,5.93149 10.43403,9.98905 15.33555,13.25745c2.43062,1.62077 4.4265,3.94643 7.08332,5.16142c0.67089,0.30681 1.47183,-0.11517 2.20943,-0.12829c3.42609,-0.06097 10.42022,-0.78719 13.65245,0.08664c0.41496,0.11218 8.57297,4.9006 9.24502,5.29262c6.63385,3.86975 13.3706,7.53057 19.6243,11.99259c4.07503,2.91073 7.75379,5.59751 12.27388,7.77013l2.24193,1.08283c0.86283,0.39412 1.46242,1.26463 1.46242,2.27519c0,1.38071 -1.11929,2.5 -2.5,2.5c-0.22872,0 -0.45026,-0.03071 -0.66073,-0.08824l-3.94561,-0.9864l0.01703,-0.06812c-0.15664,-0.02521 -0.31282,-0.05571 -0.46849,-0.09206c-0.1499,-0.035 -8.14911,-5.86987 -8.49999,-6.12506l-2.91264,-2.11828c0,0 -0.24835,-0.18062 -0.50766,-0.50228z" fill-opacity="0.33725" fill="#9966ff" stroke-width="0.5"/><path d="M249,322c0,-1.06296 0.45195,-1.67396 0.97153,-2.02518c-0.02779,-1.32611 -0.05491,-2.65221 0.02847,-3.97482c0.05729,-0.90875 0.72844,-1.87525 0.35982,-2.70785c-0.25338,-0.57231 -1.24154,-0.25448 -1.7981,-0.54078c-1.54099,-0.7927 -3.0182,-1.71044 -4.4567,-2.67675c-4.97879,-3.34452 -9.39059,-7.39057 -14.10076,-11.07143c-1.15685,-0.90405 -2.68524,-1.41154 -3.56463,-2.58724c-0.71647,-0.95788 -0.63828,-2.30566 -0.95742,-3.4585c-4.85833,-13.71273 -6.90668,-29.36025 -7.48063,-43.86834c-0.35613,-9.0022 0.51664,-18.08474 -0.01315,-27.07788c-0.28671,-4.86694 -1.15337,-9.79838 -1.95442,-14.60024c0,0 -0.411,-2.46598 2.05499,-2.87698c2.46598,-0.411 2.87698,2.05499 2.87698,2.05499c0.82878,4.97716 1.71665,10.08413 2.0138,15.12819c0.53214,9.03311 -0.34048,18.15241 0.01863,27.19369c0.56041,14.10974 2.55206,29.32888 7.28747,42.6592c0.09149,0.67132 -0.14578,1.48253 0.27448,2.01397c0.58213,0.73613 1.67952,0.85647 2.43537,1.41276c4.74711,3.49369 8.98704,7.62223 13.89924,10.92857c1.32768,0.89364 2.7565,1.62737 4.11823,2.46821c1.22025,0.75348 2.9612,1.04403 3.62697,2.31426c1.1761,2.24388 0.35982,8.53314 0.35982,11.29215l-3.5,2.5c0,0 -2.5,0 -2.5,-2.5z" fill-opacity="0.33725" fill="#9966ff" stroke-width="0.5"/><path d="M-7.5,130.5c2.5,0 2.5,2.5 2.5,2.5l-0.03228,2.59954c0.69622,2.01679 0.88392,4.20061 1.70778,6.16871c0.80701,1.92783 5.24376,2.26513 6.78121,2.92205c5.5703,2.38006 11.29622,4.998 16.07043,8.82274c2.32657,1.86387 3.79994,4.71699 6.28719,6.36033c0.81211,0.53657 1.91531,0.44184 2.78405,0.88084c0.9562,0.48319 1.59874,1.54915 2.62608,1.85306c1.04756,0.30988 2.18369,-0.07151 3.27554,-0.10727c0,0 2.5,0 2.5,2.5c0,2.5 -2.5,2.5 -2.5,2.5c-1.57482,-0.03576 -3.20693,0.31514 -4.72446,-0.10727c-1.28421,-0.35746 -2.17954,-1.55498 -3.37392,-2.14694c-1.01698,-0.50404 -2.27361,-0.48645 -3.21595,-1.11916c-1.14895,-0.77144 -5.68935,-5.83466 -6.78388,-6.71074c-4.40682,-3.52727 -9.72566,-5.89942 -14.8585,-8.10619c-3.4021,-1.46267 -7.16933,-1.35235 -9.21879,-5.07795c-1.31098,-2.38316 -1.45478,-5.24346 -2.29222,-7.83129l-0.03228,-3.40046c0,0 0,-2.5 2.5,-2.5z" fill-opacity="0.33725" fill="#9966ff" stroke-width="0.5"/><path d="M10.5,-2.5c2.5,0 2.5,2.5 2.5,2.5v2c-0.03128,7.53876 2.75688,14.36594 4.33716,21.70178c2.35878,10.94974 3.6588,22.09982 3.66284,33.29822c0,0 0,2.5 -2.5,2.5c-2.5,0 -2.5,-2.5 -2.5,-2.5c0.00407,-10.84305 -1.26693,-21.64367 -3.55072,-32.24528c-1.66637,-7.73552 -4.42013,-14.7977 -4.44928,-22.75472v-2c0,0 0,-2.5 2.5,-2.5z" fill-opacity="0.33725" fill="#9966ff" stroke-width="0.5"/><path d="M443.29057,23.62829c2.37171,0.79057 1.58114,3.16228 1.58114,3.16228l-1.06201,3.16614c-2.1131,4.22322 -4.62091,7.46758 -7.20454,11.39174c-1.98538,3.0155 -1.58883,3.64254 -4.10459,7.1508c-2.26258,3.15519 -7.26286,5.68916 -8.65539,9.36687c-0.4727,1.24841 0.24507,2.70069 -0.04142,4.00449c-0.36594,1.66537 -1.40723,3.11869 -1.88353,4.75591c-1.19605,4.1113 -0.9327,8.7529 -1.98819,12.96087c-0.536,2.1369 -0.23388,4.84553 -1.84706,6.34597c-1.37016,1.2744 -3.72331,0.37776 -5.58497,0.56664c0,0 -2.5,0 -2.5,-2.5c0,-2.5 2.5,-2.5 2.5,-2.5c0.80501,0.18888 1.87082,1.18919 2.41503,0.56664c0.75944,-0.86876 -0.03506,-2.31561 0.1141,-3.45984c0.21161,-1.62323 0.70104,-3.19963 0.96467,-4.81523c0.45564,-2.79235 0.31084,-5.69706 1.08598,-8.41809c0.44609,-1.56595 1.47358,-2.94017 1.83037,-4.52885c0.34454,-1.53415 -0.34938,-3.25492 0.24467,-4.71075c1.80713,-4.42871 6.67727,-6.88717 9.34461,-10.63313c0.72544,-1.0188 2.96693,-5.43663 3.89541,-6.8492c2.41391,-3.67249 4.83056,-6.67517 6.79546,-10.60826l0.93799,-2.83386c0,0 0.79057,-2.37171 3.16228,-1.58114z" fill-opacity="0.33725" fill="#9966ff" stroke-width="0.5"/><path d="M502.26777,161.76777c-1.76777,1.76777 -3.53553,0 -3.53553,0l-1.60394,-1.9772c-0.20502,-0.7577 -0.10906,-1.673 -0.61506,-2.27309c-0.6991,-0.82908 -1.96303,-0.98839 -2.75753,-1.72655c-0.71123,-0.6608 -0.92714,-1.76083 -1.66944,-2.38653c-0.72027,-0.60713 -6.49649,-3.72967 -7.48796,-4.05683c-2.55091,-0.84173 -6.70216,-0.87126 -9.17274,-2.09022c-1.60478,-0.79178 -2.83857,-2.1836 -4.32234,-3.18393c-6.52589,-4.39963 -15.816,-8.00009 -18.03635,-16.49903c-0.38546,-1.47544 -0.04459,-3.04959 -0.06688,-4.57438c0,0 0,-2.5 2.5,-2.5c2.5,0 2.5,2.5 2.5,2.5c-0.02229,1.14187 -0.3268,2.3135 -0.06688,3.42562c1.21986,5.21937 7.94922,8.67098 12.04417,11.13628c2.62599,1.58093 4.86457,3.79214 7.59713,5.18076c2.62499,1.33396 5.84212,0.93251 8.63307,1.87094c1.85337,0.62318 7.92802,4.01014 9.28116,5.12696c0.77874,0.64273 1.02313,1.77355 1.75563,2.46851c0.95761,0.90854 2.43635,1.22815 3.24247,2.27345c0.80934,1.04948 0.92329,2.48461 1.38494,3.72691l0.39606,0.0228c0,0 1.76777,1.76777 0,3.53553z" fill-opacity="0.33725" fill="#9966ff" stroke-width="0.5"/><path d="M497.87171,355.79057c-0.79057,2.37171 -3.16228,1.58114 -3.16228,1.58114l-3.52376,-1.24508c-2.4578,-2.4578 -5.13629,-3.10569 -7.93401,-5.30728c-5.12877,-4.03595 -9.8804,-9.03755 -15.18443,-12.77064c-3.87571,-2.72781 -8.69694,-4.54006 -12.81892,-6.88461c-6.36924,-3.62278 -12.06937,-8.04605 -18.13506,-12.08396c0,0 -2.08013,-1.38675 -0.69338,-3.46688c1.38675,-2.08013 3.46688,-0.69338 3.46688,-0.69338c5.97466,3.98857 11.58541,8.3466 17.86494,11.91604c4.25424,2.41821 9.18044,4.30168 13.18108,7.11539c4.04833,2.84725 7.61633,6.7513 11.51175,9.84319c2.09009,1.65896 3.9026,3.73101 6.24609,5.00722c1.7488,0.95236 3.71566,1.66359 5.12372,3.07166l2.47624,0.75492c0,0 2.37171,0.79057 1.58114,3.16228z" fill-opacity="0.33725" fill="#9966ff" stroke-width="0.5"/><path d="M269,0c0,-2.5 2.5,-2.5 2.5,-2.5l5.46178,0.47189c2.67339,5.91937 7.21216,10.76985 12.29127,14.82898c5.89788,4.71348 11.45191,8.99418 18.9453,10.95789c4.05937,1.06379 8.15746,0.74123 12.30165,0.74123c0,0 2.5,0 2.5,2.5c0,2.5 -2.5,2.5 -2.5,2.5c-4.62779,0 -9.02107,0.27456 -13.56229,-0.90276c-8.77245,-2.27427 -16.53958,-7.66839 -23.10501,-13.73442c-3.48124,-3.21643 -9.16875,-7.96276 -9.79447,-12.83471l-2.53822,0.47189c0,0 -2.5,0 -2.5,-2.5z" fill-opacity="0.33725" fill="#9966ff" stroke-width="0.5"/><path d="M171.73223,-0.76777c1.76777,-1.76777 3.53553,0 3.53553,0l1,1c3.21208,3.26586 5.1242,3.7631 9.23768,6.05129c1.35572,0.75414 2.53692,1.84915 3.98659,2.40156c1.50734,0.57439 3.19489,0.49711 4.7495,0.92742c4.68774,1.29753 9.01501,4.96437 13.76113,5.93855c1.46859,0.30144 2.99822,-0.03404 4.49734,-0.05106c0,0 2.5,0 2.5,2.5c0,2.5 -2.5,2.5 -2.5,2.5c-1.83422,-0.01702 -3.70582,0.31776 -5.50266,-0.05106c-4.95211,-1.01646 -9.37329,-4.73032 -14.23887,-6.06145c-1.65932,-0.45396 -3.45113,-0.41499 -5.05631,-1.03375c-1.66279,-0.64096 -3.05588,-1.8359 -4.61713,-2.69511c-4.35254,-2.39536 -6.80399,-3.39054 -10.3528,-6.89087l-1,-1c0,0 -1.76777,-1.76777 0,-3.53553z" fill-opacity="0.33725" fill="#9966ff" stroke-width="0.5"/></g></g></svg>