<svg version="1.1" xmlns="http://www.w3.org/2000/svg" xmlns:xlink="http://www.w3.org/1999/xlink" width="83.52803" height="79.62525" viewBox="0,0,83.52803,79.62525"><g transform="translate(-197.5,-132.22439)"><g data-paper-data="{&quot;isPaintingLayer&quot;:true}" fill-rule="nonzero" stroke-linejoin="miter" stroke-miterlimit="10" stroke-dasharray="" stroke-dashoffset="0" style="mix-blend-mode: normal"><path d="M241.75,153l-1,57l-41.5,-17v-51.5z" fill="none" stroke-opacity="0.61961" stroke="#00dcd1" stroke-width="2.5" stroke-linecap="round"/><path d="M241.75,153l38,-11l-1,60l-38.5,7" fill="none" stroke-opacity="0.61961" stroke="#00dcd1" stroke-width="2.5" stroke-linecap="round"/><path d="M200.75,142l40,-8.5l38.5,7.5" fill="none" stroke-opacity="0.61961" stroke="#00dcd1" stroke-width="2.5" stroke-linecap="round"/><path d="M207.25,149.5l-5,2" fill="none" stroke-opacity="0.61961" stroke="#00dcd1" stroke-width="2.5" stroke-linecap="round"/><path d="M213.25,151.5l-10.5,7" fill="none" stroke-opacity="0.61961" stroke="#00dcd1" stroke-width="2.5" stroke-linecap="round"/><path d="M244.25,159.5l5.5,-1.5" fill="none" stroke-opacity="0.61961" stroke="#00dcd1" stroke-width="2.5" stroke-linecap="round"/><path d="M248.75,166.5l4.5,-8.5" fill="none" stroke-opacity="0.61961" stroke="#00dcd1" stroke-width="2.5" stroke-linecap="round"/><path d="M240.25,135.5l-0.5,44.5l-41,11.5" fill="none" stroke-opacity="0.61961" stroke="#00dcd1" stroke-width="2.5" stroke-linecap="round"/><path d="M240.25,178.5l37.5,22.5" fill="none" stroke-opacity="0.61961" stroke="#00dcd1" stroke-width="2.5" stroke-linecap="round"/><path d="M199.625,192.5l0.75,-49.25l41,10l-1.5,55.75z" fill-opacity="0.52157" fill="#00e0bf" stroke="none" stroke-width="0" stroke-linecap="butt"/><path d="M241.375,208.75l0.5,-55.75l38,-11l-0.25,60z" fill-opacity="0.52157" fill="#00e0bf" stroke="none" stroke-width="0" stroke-linecap="butt"/><path d="M199.875,191l0.5,-49.5l40,-7.5v46z" fill-opacity="0.52157" fill="#00e0bf" stroke="none" stroke-width="0" stroke-linecap="butt"/><path d="M240.125,179.25v-44.75l39.5,7.25l-0.75,59.5z" fill-opacity="0.52157" fill="#00e0bf" stroke="none" stroke-width="0" stroke-linecap="butt"/><path d="M200.625,141l40,-7.5l39,7.5l-38.25,11.75z" fill-opacity="0.52157" fill="#00e0bf" stroke="none" stroke-width="0" stroke-linecap="butt"/><path d="M239.875,208.75l-40,-16.25l40.75,-12.5l38,21.75z" fill-opacity="0.52157" fill="#00e0bf" stroke="none" stroke-width="0" stroke-linecap="butt"/></g></g></svg>