<svg version="1.1" xmlns="http://www.w3.org/2000/svg" xmlns:xlink="http://www.w3.org/1999/xlink" width="87.7499" height="99.12002" viewBox="0,0,87.7499,99.12002"><g transform="translate(-200.63155,-150.04663)"><g data-paper-data="{&quot;isPaintingLayer&quot;:true}" fill-rule="nonzero" stroke-linecap="butt" stroke-linejoin="miter" stroke-miterlimit="10" stroke-dasharray="" stroke-dashoffset="0" style="mix-blend-mode: normal"><path d="M270.5,185.00001c0,13.25483 -11.41674,24 -25.5,24c-14.08326,0 -25.5,-10.74517 -25.5,-24c0,-13.25483 11.41674,-24 25.5,-24c14.08326,0 25.5,10.74517 25.5,24z" fill="#fff700" stroke="#caff00" stroke-width="3.5"/><path d="M238.93443,228.23224c1.76777,1.76777 0,3.53553 0,3.53553c-0.0318,0.0318 -0.06419,0.06419 -0.09714,0.09714c0.373,0.56984 0.80451,1.21884 1.25055,1.91816c0.00183,-1.72626 0.0687,-3.434 0.26423,-5.08853c0.67531,-5.71448 2.66026,-10.18325 1.99656,-16.08513c0,0 -0.27608,-2.48471 2.20863,-2.76079c2.48471,-0.27608 2.76079,2.20863 2.76079,2.20863c0.34063,3.09985 0.51886,5.94036 -0.02139,9.03609c-0.47625,2.72897 -1.66151,5.47224 -1.98205,8.21211c-0.21633,1.84908 -0.25188,3.76753 -0.21961,5.70112c2.05733,-2.98391 4.57538,-5.69274 7.26672,-8.2031c-0.01742,-0.48791 -0.02647,-0.9783 -0.02838,-1.47015c0,0 0,-2.5 2.5,-2.5c0.67732,0 1.17113,0.1835 1.53116,0.45108c0.6309,-0.52789 1.26354,-1.04754 1.8946,-1.55984c2.86153,-2.32302 6.93181,-5.56664 10.59924,-6.47415c4.49867,-1.1132 8.87476,1.42816 12.55836,3.58453c1.45988,0.85461 3.12939,1.43366 4.36447,2.58961c1.13099,1.05853 1.70137,2.58918 2.55205,3.88378c-1.1738,1.74692 -2.0658,3.72063 -3.5214,5.24075c-2.67923,2.79799 -7.74503,4.72543 -11.057,6.61319c-2.85762,1.62879 -5.60048,3.72092 -8.47528,5.50782c-0.01069,0.01662 -0.02161,0.03328 -0.03275,0.04999c-0.61487,0.92231 -1.36606,1.16305 -2.0118,1.14529c-1.02904,0.55872 -2.08116,1.0584 -3.16683,1.46643c-3.09918,1.16476 -6.75335,1.38192 -9.98577,2.09954l-2.58833,0.64708c-0.21047,0.05753 -0.43201,0.08824 -0.66073,0.08824c-0.41494,0 -0.80628,-0.10109 -1.15072,-0.27999c-0.42783,0.76376 -1.24494,1.27999 -2.18262,1.27999c-0.52879,0 -1.01923,-0.16417 -1.42314,-0.44433c-1.17079,-0.32659 -1.56689,-1.16282 -1.68744,-1.84321l-0.21551,-0.25143c-0.5344,0.20563 -1.00724,0.20563 -1.00724,0.20563l-2.45137,-0.26393c-6.83127,-3.46283 -14.37336,-4.86063 -21.56906,-7.28714c-1.73267,-0.98825 -4.09612,-2.1032 -5.31744,-3.78832c-2.98217,-4.11467 -1.64758,-11.7535 2.64918,-14.59466c2.43535,-1.61034 4.79286,-1.0168 7.3321,-0.71331c4.15798,0.49696 9.32434,0.99842 12.81836,3.45259c1.60282,1.12581 2.68403,2.51942 3.64058,4.02134c0.67967,-0.29811 1.67254,-0.42053 2.66541,0.57234zM226.78453,226.68202c-0.47194,1.0592 -0.9626,2.03798 -1.48022,2.96383c1.79816,1.10708 3.60688,2.19572 5.44468,3.23631c0.60182,-0.60182 1.20364,-1.20364 1.80546,-1.80546c-0.73479,-1.25403 -1.54719,-2.42711 -2.84956,-3.38191c-0.80906,-0.59314 -1.80528,-1.02224 -2.88996,-1.34413zM219.18991,225.14737c-0.32697,-0.0431 -0.90547,-0.16229 -1.53689,-0.24554c1.14001,0.69433 2.27374,1.39808 3.40584,2.1038c0.26946,-0.49433 0.5316,-1.00928 0.78864,-1.55146c-0.94236,-0.10859 -1.84711,-0.19998 -2.65759,-0.30681zM268.59299,233.50395c-0.50354,-0.30912 -0.96508,-0.63099 -1.38851,-0.96591c-2.2952,1.29808 -4.562,2.65021 -6.8166,4.02494c0.69028,0.70846 1.53262,1.29734 2.55933,1.72404c2.23809,-1.38886 4.39089,-2.99686 6.57548,-4.39905zM255.16907,239.77992c-1.12938,0.69957 -2.01938,1.47064 -2.92144,2.20604c1.89046,-0.28668 3.81231,-0.57228 5.54773,-1.15174c-0.60691,-0.51687 -1.15035,-1.07441 -1.6363,-1.66753c-0.33003,0.20438 -0.66001,0.40882 -0.99,0.61323zM277.23925,222.14144c-2.27608,-1.50079 -4.6297,-2.80045 -7.09758,-2.05852c-0.95497,0.2871 -1.88932,0.70295 -2.80164,1.20644c0.1679,1.79132 0.35952,3.55892 1.02762,5.03748c2.29861,-1.28979 4.64851,-2.51426 7.117,-3.61137l-0.41909,0.18343c0,0 0.9606,-0.9606 2.17368,-0.75747zM258.77106,227.91728c-0.42797,0.35665 -0.8583,0.72014 -1.28889,1.09063c0.11361,1.15031 0.30543,2.29568 0.61871,3.37913c2.03107,-1.1901 4.02299,-2.4022 6.02229,-3.5934c-0.65274,-1.29136 -1.07096,-2.71339 -1.36411,-4.27513c-1.40132,1.15415 -2.73292,2.35283 -3.988,3.39876zM249.20673,237.75436c1.34254,-1.13566 3.02094,-2.09224 4.53453,-2.91576c-0.21541,-0.59132 -0.40111,-1.19899 -0.56034,-1.82024c-1.44222,1.48289 -2.79809,3.05939 -3.97418,4.73599zM278.92176,223.26896c1.20864,1.63618 -0.32066,3.16548 -0.32066,3.16548l-1.08575,0.8501c-1.70545,0.75798 -3.38488,1.56597 -5.04402,2.41286c0.21775,0.09845 1.20251,0.59333 1.49004,1.60665c3.22891,-1.81313 6.43922,-3.63765 9.37209,-5.94571c-1.44729,-0.2153 -2.9142,-1.0951 -4.4117,-2.08938zM222.45376,233.96076c-0.48783,0.63905 -1.00003,1.27386 -1.54045,1.91717c1.84863,0.55057 3.70389,1.07682 5.55255,1.62233c0.12539,-0.30618 0.29013,-0.55413 0.41521,-0.71751c-1.48593,-0.91926 -2.9599,-1.86769 -4.42731,-2.82198zM213.5243,228.25432c-0.77667,2.6987 0.20394,4.22116 2.43752,5.71179c0.83988,-0.95223 1.59904,-1.84506 2.29713,-2.73768c-1.57758,-1.02037 -3.15352,-2.02155 -4.73465,-2.97412z" fill="#00ff52" stroke="none" stroke-width="0.5"/><path d="M223.67787,166.13672c0.67539,0.3498 1.65872,1.15801 1.24748,2.80296c-0.60634,2.42536 -3.0317,1.81902 -3.0317,1.81902c-2.32517,-0.60292 -4.49031,-1.74592 -6.59668,-2.90051c-0.1835,-0.10058 -4.3475,-2.4997 -5.5949,-2.36636c-3.13845,0.33547 -5.25176,3.15276 -3.6599,6.00393c2.2603,4.04842 6.90644,5.37964 11.06417,6.41222l2.61593,0.65398c1.1133,0.25265 1.9444,1.24829 1.9444,2.43804c0,0.92661 -0.50412,1.73548 -1.25305,2.16731l-3.29404,1.97643c-2.00837,1.6697 -11.4095,5.36739 -7.9248,9.72783c1.45584,1.82171 6.72307,4.37374 9.03902,4.66072c1.0198,0.12637 7.17144,-0.36079 8.06132,0.43961c1.35521,1.21895 1.82697,3.26386 2.0378,5.07438c0.18461,1.58541 -1.95535,3.05683 -1.43883,4.56707c0.76594,2.23951 6.05204,4.02445 8.18162,4.55498c1.23278,-0.35721 2.55741,-0.98538 3.2488,-2.06674c0.86036,-1.34563 0.85546,-3.7483 2.40239,-4.14571c4.99442,-1.28306 4.19054,2.71986 6.36173,4.4471c3.19253,2.53973 8.10082,1.11689 11.74472,1.76369c0.47044,0.0835 0.84394,1.01065 1.23223,0.73223c0.35654,-0.25565 -0.51,-0.72036 -0.69212,-1.1195c-0.24395,-0.53466 -0.28359,-1.15711 -0.57856,-1.66541c-0.7151,-1.23228 -3.11293,-2.26727 -2.42885,-3.51703c1.19799,-2.18865 4.13218,-2.8676 6.44113,-3.81317c2.58878,-1.06017 7.79494,-1.16752 10.52741,-1.24742c4.03494,-0.11799 9.00895,1.1763 10.29457,-4.02338c-1.4767,-0.74781 -2.7281,-1.90516 -4.22972,-2.6016c-1.87992,-0.87189 -3.97063,-1.30461 -5.74574,-2.37386c-1.23404,-0.74334 -3.1415,-0.95542 -3.65915,-2.29983c-2.3298,-6.05078 0.85354,-6.96063 3.33485,-11.1447c1.55043,-2.61439 1.54831,-3.66099 1.67318,-6.53961c0.00725,-0.16716 0.44689,-5.65337 -0.89629,-5.95607c-2.40892,-0.54288 -5.2437,0.97131 -7.31676,1.87779c-1.50269,0.65707 -3.1425,2.6621 -4.56255,1.84157c-1.78099,-1.02908 -1.78285,-3.74821 -2.21686,-5.75882c-0.7262,-3.3642 -0.33143,-8.52821 0.16523,-12.02008c-4.16675,1.04071 -8.79546,0.57202 -12.49118,3.44899c-1.33829,1.04181 -3.9201,4.69434 -5.21582,4.8283c-4.66286,0.48208 -5.51616,-6.21719 -10.05961,-6.31673c-3.40124,-0.07452 -7.9674,0.5578 -11.19741,1.77295c-2.85381,1.07362 -2.44838,4.46164 -0.44418,5.80816l0.81054,-0.2121c0,0 2.04879,0.34146 2.10021,2.26936zM214.33725,161.53508c0.33696,-6.79885 5.23624,-8.45198 11.08777,-9.33483c3.52778,-0.53226 8.08158,-1.27402 11.48686,0.21105c1.37735,0.60067 3.74013,3.15167 4.6094,4.41125c0.20542,0.29765 0.03946,1.22456 0.34372,1.02906c0.45406,-0.29176 0.15046,-1.11334 0.46736,-1.55022c0.63731,-0.87862 1.45383,-1.62983 2.31682,-2.28814c5.48464,-4.18382 12.44337,-4.68702 18.84215,-3.21767c1.51707,4.30938 1.51429,6.69376 1.50867,11.20444c-0.00148,1.18966 0.1525,2.39185 0.05357,3.57391c0.71067,-0.41224 1.52402,-0.67953 2.30176,-0.93859c4.35848,-1.4518 9.12312,-1.9939 11.70709,2.56612c2.51954,4.44631 0.95694,12.28227 -1.39181,16.37225c-0.47038,0.81909 -4.16634,4.10674 -3.33181,6.18863c0.21256,0.53028 1.14771,0.145 1.67419,0.36683c0.7596,0.32006 1.37685,0.92715 2.13943,1.24006c4.0874,1.67722 6.2494,3.01946 9.88511,5.78448c0.06285,1.52359 0.60356,3.10345 0.18854,4.57077c-2.57282,9.09631 -12.7673,6.25638 -19.52943,7.02586c-1.94703,0.22156 -3.66799,0.89583 -5.50695,0.90546c1.36181,2.17058 1.87018,7.10094 0.41142,8.77865c-1.05501,1.21337 -3.1667,0.58432 -4.76777,0.73223c-2.94979,0.27252 -7.50342,0.10999 -10.31697,-0.75273c-1.61966,-0.49663 -3.23033,-1.16016 -4.60498,-2.15024c-0.4414,-0.31792 -0.80908,-0.73166 -1.12151,-1.18914c-0.91617,2.41291 -6.27995,3.70903 -7.53224,4.09045c-4.37339,-0.9127 -11.52854,-3.19973 -13.15171,-8.11168c-0.41793,-1.26473 0.03714,-2.67891 0.3,-3.98471c0.20985,-1.04248 1.95676,-2.65519 0.96564,-3.04051c-0.40202,-0.15629 -0.77473,0.44005 -1.20489,0.47189c-1.57366,0.11649 -3.17233,0.19533 -4.73379,-0.03228c-3.39643,-0.4951 -10.30279,-3.84167 -12.29432,-6.67261c-4.39394,-6.24597 1.07308,-11.69668 5.99068,-14.88581c0.50821,-0.32958 0.99709,-0.71151 1.49995,-1.0632c-4.4497,-1.40485 -8.95695,-3.64011 -11.0047,-8.00853c-2.87784,-6.13922 0.74808,-12.60601 7.67343,-13.3294c1.7778,-0.1857 3.43562,0.28703 5.03932,1.02689z" fill="#ffc400" stroke="none" stroke-width="0.5"/><path d="M223.64057,166.10344c-0.05142,-1.9279 -2.02586,-2.20248 -2.02586,-2.20248l-0.88531,0.1457c-2.0042,-1.34652 -2.40495,-4.73925 0.44886,-5.81287c3.23001,-1.21515 7.80948,-1.8559 11.21072,-1.78138c4.54345,0.09954 5.41176,6.79496 10.07462,6.31288c1.29572,-0.13396 3.88808,-3.78638 5.22637,-4.82819c3.69572,-2.87697 8.3416,-2.40304 12.50835,-3.44375c-0.49666,3.49187 -0.88202,8.66219 -0.15582,12.02639c0.43401,2.01061 0.4444,4.73908 2.22539,5.76816c1.42005,0.82053 3.06104,-1.18274 4.56373,-1.83981c2.07306,-0.90648 4.90964,-2.41764 7.31856,-1.87476c1.34318,0.3027 0.90708,5.79702 0.89983,5.96418c-0.12487,2.87862 -0.12056,3.9348 -1.67099,6.54919c-2.48131,4.18407 -5.66629,5.11435 -3.33649,11.16513c0.51765,1.34441 2.42454,1.55831 3.65858,2.30165c1.77511,1.06925 3.86564,1.5025 5.74556,2.37439c1.50162,0.69644 2.75259,1.85498 4.22929,2.60279c-1.28562,5.19968 -6.26454,3.91505 -10.29948,4.03304c-2.73247,0.0799 -7.94683,0.19688 -10.53561,1.25705c-2.30895,0.94557 -5.25463,1.63236 -6.45262,3.82101c-0.68408,1.24976 1.66851,2.19557 2.38361,3.42785c0.29497,0.5083 0.33496,1.13057 0.57891,1.66523c0.18212,0.39914 1.09424,0.95286 0.7377,1.20851c-0.38829,0.27842 -0.76283,-0.64821 -1.23327,-0.73171c-3.6439,-0.6468 -8.56946,0.78084 -11.76199,-1.75889c-2.17119,-1.72724 -1.38001,-5.73062 -6.37443,-4.44756c-1.54693,0.39741 -1.54499,2.7995 -2.40535,4.14513c-0.69139,1.08136 -2.02025,1.70837 -3.25303,2.06558c-2.12958,-0.53053 -7.42929,-2.3223 -8.19523,-4.56181c-0.51652,-1.51024 1.62118,-2.98337 1.43657,-4.56878c-0.21083,-1.81052 -0.68977,-3.86247 -2.04498,-5.08142c-0.88988,-0.8004 -7.04671,-0.32077 -8.06651,-0.44714c-2.31595,-0.28698 -7.58765,-2.84973 -9.04349,-4.67144c-3.4847,-4.36044 5.9145,-8.07117 7.92287,-9.74087l3.29414,-1.98042c0.74893,-0.43183 1.2536,-1.24551 1.2536,-2.17212c0,-1.18975 -0.83028,-2.1894 -1.94358,-2.44205l-2.61593,-0.65398c-4.15773,-1.03258 -8.80263,-2.36798 -11.06293,-6.4164c-1.59186,-2.85117 0.52496,-5.67637 3.66341,-6.01184c1.2474,-0.13334 5.41186,2.26496 5.59536,2.36554c2.10637,1.15459 4.27226,2.29633 6.59743,2.89925c0,0 2.42896,0.60124 3.0353,-1.82412c0.41124,-1.64495 -0.57047,-2.45507 -1.24586,-2.80487z" data-paper-data="{&quot;noHover&quot;:false,&quot;origItem&quot;:[&quot;Path&quot;,{&quot;applyMatrix&quot;:true,&quot;segments&quot;:[[[223.67787,166.13672],[0,0],[0.67539,0.3498]],[[224.92535,168.93968],[0.41124,-1.64495],[-0.60634,2.42536]],[[221.89365,170.7587],[0,0],[-2.32517,-0.60292]],[[215.29697,167.85819],[2.10637,1.15459],[-0.1835,-0.10058]],[[209.70207,165.49183],[1.2474,-0.13334],[-3.13845,0.33547]],[[206.04217,171.49576],[-1.59186,-2.85117],[2.2603,4.04842]],[[217.10634,177.90798],[-4.15773,-1.03258],[0,0]],[[219.72227,178.56196],[0,0],[1.1133,0.25265]],[[221.66667,181],[0,-1.18975],[0,0.92661]],[[220.41362,183.16731],[0.74893,-0.43183],[0,0]],[[217.11958,185.14374],[0,0],[-2.00837,1.6697]],[[209.19478,194.87157],[-3.4847,-4.36044],[1.45584,1.82171]],[[218.2338,199.53229],[-2.31595,-0.28698],[1.0198,0.12637]],[[226.29512,199.9719],[-0.88988,-0.8004],[1.35521,1.21895]],[[228.33292,205.04628],[-0.21083,-1.81052],[0.18461,1.58541]],[[226.89409,209.61335],[-0.51652,-1.51024],[0.76594,2.23951]],[[235.07571,214.16833],[-2.12958,-0.53053],[1.23278,-0.35721]],[[238.32451,212.10159],[-0.69139,1.08136],[0.86036,-1.34563]],[[240.7269,207.95588],[-1.54693,0.39741],[4.99442,-1.28306]],[[247.08863,212.40298],[-2.17119,-1.72724],[3.19253,2.53973]],[[258.83335,214.16667],[-3.6439,-0.6468],[0.47044,0.0835]],[[260.06558,214.8989],[-0.38829,0.27842],[0.35654,-0.25565]],[[259.37346,213.7794],[0.18212,0.39914],[-0.24395,-0.53466]],[[258.7949,212.11399],[0.29497,0.5083],[-0.7151,-1.23228]],[[256.36605,208.59696],[-0.68408,1.24976],[1.19799,-2.18865]],[[262.80718,204.78379],[-2.30895,0.94557],[2.58878,-1.06017]],[[273.33459,203.53637],[-2.73247,0.0799],[4.03494,-0.11799]],[[283.62916,199.51299],[-1.28562,5.19968],[-1.4767,-0.74781]],[[279.39944,196.91139],[1.50162,0.69644],[-1.87992,-0.87189]],[[273.6537,194.53753],[1.77511,1.06925],[-1.23404,-0.74334]],[[269.99455,192.2377],[0.51765,1.34441],[-2.3298,-6.05078]],[[273.3294,181.093],[-2.48131,4.18407],[1.55043,-2.61439]],[[275.00258,174.55339],[-0.12487,2.87862],[0.00725,-0.16716]],[[274.10629,168.59732],[1.34318,0.3027],[-2.40892,-0.54288]],[[266.78953,170.47511],[2.07306,-0.90648],[-1.50269,0.65707]],[[262.22698,172.31668],[1.42005,0.82053],[-1.78099,-1.02908]],[[260.01012,166.55785],[0.43401,2.01061],[-0.7262,-3.3642]],[[260.17535,154.53778],[-0.49666,3.49187],[-4.16675,1.04071]],[[247.68417,157.98677],[3.69572,-2.87697],[-1.33829,1.04181]],[[242.46835,162.81507],[1.29572,-0.13396],[-4.66286,0.48208]],[[232.40874,156.49834],[4.54345,0.09954],[-3.40124,-0.07452]],[[221.21133,158.27129],[3.23001,-1.21515],[-2.85381,1.07362]],[[220.76715,164.07945],[-2.0042,-1.34652],[0,0]],[221.57769,163.86735],[[223.6779,166.13671],[-0.05142,-1.9279],[0,0]]],&quot;closed&quot;:true,&quot;fillColor&quot;:[0,0,0,1]}]}" fill="#9966ff" stroke="none" stroke-width="0.5"/><path d="M229.70943,180.37172c-2.37171,-0.79057 -1.58114,-3.16228 -1.58114,-3.16228c0.33333,-1 1,-3 1.33333,-4c0,0 0.79057,-2.37171 3.16228,-1.58114c2.37171,0.79057 1.58114,3.16228 1.58114,3.16228c-0.33333,1 -0.66667,2 -1,3l-0.33333,1c0,0 -0.79057,2.37171 -3.16228,1.58114z" fill="#ffc400" stroke="none" stroke-width="0.5"/><path d="M254.33333,198.00001c0,-1.41104 0.79641,-2.02566 1.49022,-2.29339c0.36308,-0.43569 0.72615,-0.87138 1.08923,-1.30708c0,0 1.60046,-1.92055 3.52101,-0.32009c1.92055,1.60046 0.32009,3.52101 0.32009,3.52101c-0.55556,0.66667 -1.11111,1.33333 -1.66667,2l-2.25389,0.89954c0,0 -2.5,0 -2.5,-2.5z" fill="#ffc400" stroke="none" stroke-width="0.5"/><path d="M265.52022,189.35356c-0.35355,0.35355 -0.70711,0 -0.70711,0l-0.22011,-0.24843c-1.66678,-1.04589 -1.16027,-4.09252 -1.88245,-5.90029c-0.34721,-0.70474 -1.12734,-1.31886 -1.35576,-2.05994c-0.59247,-1.92218 -0.02729,-4.65635 -0.33847,-6.68485c-0.18013,-1.17425 -2.06364,-0.18405 -2.60831,-1.19718c-0.6478,-1.20492 0.64407,-3.16922 1.40511,-3.94975c0,0 0.35355,-0.35355 0.70711,0c0.35355,0.35355 0,0.70711 0,0.70711c-0.45623,0.44172 -1.56122,1.96958 -1.26156,2.71691c0.252,0.62848 2.29969,-0.06388 2.72502,1.46949c0.57172,2.06114 -0.259,4.6589 0.3282,6.64848c0.18459,0.62544 1.00416,1.33365 1.31091,1.94006c0.46041,1.14962 0.48759,5.03694 1.45088,5.43304l0.44655,0.41823c0,0 0.35355,0.35355 0,0.70711z" fill="#000000" stroke="none" stroke-width="0.5"/><path d="M213.1654,168.29287c0.37381,0.33206 0.04175,0.70587 0.04175,0.70587l-0.42325,0.47466c-1.60418,2.33505 -1.29998,8.1814 0.14143,10.59708c0.65988,1.1059 1.82341,1.3131 2.408,2.59381c-1.63021,3.82547 -2.7754,8.85099 -0.73156,12.75604c0.53542,1.023 1.78721,1.59444 2.34545,2.68941c0,0 0.22361,0.44721 -0.22361,0.67082c-0.44721,0.22361 -0.67082,-0.22361 -0.67082,-0.22361c-0.53416,-1.09476 -1.76257,-1.60776 -2.32122,-2.64392c-1.97196,-3.65752 -1.48539,-9.73669 0.60177,-13.24396c-0.55244,-0.88682 -1.69333,-1.15747 -2.25866,-2.07286c-1.72308,-2.79002 -1.85969,-9.00721 -0.08251,-11.73369l0.46735,-0.52791c0,0 0.33206,-0.37381 0.70587,-0.04175z" fill="#000000" stroke="none" stroke-width="0.5"/><path d="M275.57592,192.0264c2.28576,1.16675 -1.08731,7.0246 -1.88528,8.549c-2.46595,3.28787 -5.18689,6.15745 -8.3679,8.76168c-1.61391,1.32128 -3.33186,2.8037 -5.4894,2.82959c0,0 -0.5,0 -0.5,-0.5c0,-0.5 0.5,-0.5 0.5,-0.5c1.8625,0.02815 3.47167,-1.47014 4.85594,-2.60336c3.09824,-2.53636 5.7434,-5.32788 8.15564,-8.52153c0.93223,-1.79566 1.77699,-3.36719 2.23596,-5.34126c0.12447,-0.53534 0.74025,-2.04985 -0.24754,-1.86718l0.16667,-0.5l-0.16667,-0.5c0.11322,0.0091 0.21914,0.02447 0.31808,0.04576l0.01525,-0.04576c0,0 0.26512,0 0.40925,0.19306z" fill="#000000" stroke="none" stroke-width="0.5"/><path d="M267.66667,232.66668c0,-0.5 0.5,-0.5 0.5,-0.5l0.10973,0.05279c1.29861,-0.6493 1.35814,-2.10964 0.48808,-3.58907c-0.25068,-0.42625 -1.02381,-0.27073 -1.32849,-0.66022c-0.8622,-1.1022 -0.43598,-3.67367 -0.43598,-4.97016c0,0 0,-0.5 0.5,-0.5c0.5,0 0.5,0.5 0.5,0.5c0,0.98476 -0.42188,3.54897 0.23069,4.36317c0.31227,0.38961 1.06509,0.2551 1.33817,0.67311c1.20403,1.84298 0.96924,4.17035 -0.84525,5.0776l-0.55694,0.05279c0,0 -0.5,0 -0.5,-0.5z" fill="#000000" stroke="none" stroke-width="0.5"/><path d="M226.71945,237.22362c-0.22361,-0.44721 0.22361,-0.67082 0.22361,-0.67082l0.76961,-0.37134c2.81838,-0.09151 -1.72577,-1.11913 -2.46116,-2.71533c-1.17829,-2.55753 -0.29032,-3.82402 0.80128,-6.02306c0,0 0.22361,-0.44721 0.67082,-0.22361c0.44721,0.22361 0.22361,0.67082 0.22361,0.67082c-0.86516,1.71931 -2.33833,3.87695 -0.4213,5.76196c0.58745,0.57764 4.08209,1.53412 3.43603,2.87244c-0.33627,0.69658 -1.39622,0.61846 -2.00794,0.62721l-0.56372,0.29533c0,0 -0.44721,0.22361 -0.67082,-0.22361z" fill="#000000" stroke="none" stroke-width="0.5"/><path d="M256.5051,203.96529c0.36805,0.33844 0.02961,0.70649 0.02961,0.70649l-0.01965,0.02137c-0.9523,0.99812 -1.56129,1.3703 -2.8729,0.76887c-3.57767,-1.18196 -3.96253,-4.33367 -6.3002,-6.90537c-1.40941,-1.55051 -3.706,-2.79725 -5.75464,-3.5478c-0.62949,0.84788 -1.36783,1.62438 -2.0158,2.2828c-1.80124,1.8279 -2.93914,3.40223 -5.72708,3.54158l-0.67778,0.00012c0,0 -0.5,0 -0.5,-0.5c0,-0.5 0.5,-0.5 0.5,-0.5l0.65556,0.00012c2.49308,-0.09394 3.43422,-1.61718 5.03702,-3.24371c0.5809,-0.58869 1.25718,-1.28878 1.83864,-2.05258c-0.04214,-0.09201 -0.05589,-0.21095 -0.00556,-0.36194c0.10397,-0.3119 0.34466,-0.35035 0.49732,-0.34011c0.39097,-0.61438 0.6919,-1.25808 0.81589,-1.90932c0.31442,-1.65141 -1.81469,-3.37232 -2.32687,-4.83262c-0.6944,-1.9798 -0.67866,-4.03158 -0.67866,-6.09317c0,0 0,-0.5 0.5,-0.5c0.5,0 0.5,0.5 0.5,0.5c0,1.95363 -0.02759,3.88523 0.62292,5.76395c0.61212,1.76785 2.72359,3.26133 2.37154,5.31026c-0.12271,0.71415 -0.42932,1.41637 -0.83455,2.08667c2.13817,0.82396 4.43718,2.10365 5.9205,3.72145c2.22951,2.43164 2.61558,5.54252 5.94409,6.65567c0.87439,0.49213 1.12382,0.19884 1.75447,-0.52173l0.01965,-0.02137c0,0 0.33844,-0.36805 0.70649,-0.02961z" fill="#000000" stroke="none" stroke-width="0.5"/><path d="M229.33333,171.33334c0,-0.5 0.5,-0.5 0.5,-0.5c1.88889,0 4.11111,0 6,0c2.83908,0.00727 9.30441,-1.55831 10.79527,1.97532c0.30107,0.71358 0.05598,2.41385 0.03794,3.20245c-0.02327,1.01676 -0.37343,1.85735 -0.6922,2.81367c0,0 -0.15811,0.47434 -0.63246,0.31623c-0.47434,-0.15811 -0.31623,-0.63246 -0.31623,-0.63246c0.47011,-1.41032 1.21971,-3.83192 0.67907,-5.31721c-0.51759,-1.42194 -2.55865,-1.19592 -3.61815,-1.36446c-2.18752,-0.34799 -4.05439,0.00136 -6.25324,0.00646c-1.88889,0 -3.77778,0 -5.66667,0h-0.33333c0,0 -0.5,0 -0.5,-0.5z" fill="#000000" stroke="none" stroke-width="0.5"/><path d="M230.9546,183.81841c-0.48507,0.12127 -0.60634,-0.3638 -0.60634,-0.3638l-0.0908,-0.36319c-0.59496,-2.41606 -0.65219,-5.68151 1.27212,-7.47237c1.05236,-0.97938 3.13089,-1.42212 4.41348,-2.06626c0,0 0.44721,-0.22361 0.67082,0.22361c0.22361,0.44721 -0.22361,0.67082 -0.22361,0.67082c-1.15265,0.57401 -3.2696,1.00484 -4.16981,1.8948c-1.60723,1.58892 -1.52931,4.39685 -0.99285,6.50686l0.0908,0.36319c0,0 0.12127,0.48507 -0.3638,0.60634z" fill="#000000" stroke="none" stroke-width="0.5"/><path d="M256.33333,243.33334c0,0.5 -0.5,0.5 -0.5,0.5h-1c-2.98603,0 -3.95207,-2.04418 -4.49029,-4.73528c0,0 -0.01436,-0.07178 -0.00462,-0.16589c-1.31084,0.5871 -2.63501,1.10707 -4.02534,1.21439c0.17889,0.01708 0.35259,0.02418 0.52025,0.02011c0,0 0.5,0 0.5,0.5c0,0.5 -0.5,0.5 -0.5,0.5c-2.49069,-0.04263 -5.70026,-2.0108 -8.02364,-2.97097c-0.57429,-0.23734 -2.3682,-1.41473 -3.04683,-1.1037c-0.43766,0.20059 -0.19486,0.94813 -0.37368,1.39512c-0.41764,1.04401 -1.02452,1.77237 -1.99333,2.2906l-0.20897,0.24251c0,0 -0.35355,0.35355 -0.70711,0c-0.35355,-0.35355 0,-0.70711 0,-0.70711l0.4577,-0.42416c1.51283,-0.74181 1.11034,-3.03304 2.29966,-3.64761c0.97666,-0.50469 2.18855,0.27665 3.03996,0.63993c0.43135,0.18405 0.91417,0.41619 1.43029,0.67163c-0.02535,-0.05962 -0.04072,-0.13191 -0.04072,-0.21957c0,-0.5 0.5,-0.5 0.5,-0.5c1.96973,0.04775 4.27906,-7.34671 0.88512,-7.34671l-0.7754,-0.37274c0,0 -0.44721,-0.22361 -0.22361,-0.67082c0.22361,-0.44721 0.67082,-0.22361 0.67082,-0.22361l0.55794,0.29392c4.42971,0 2.17028,9.0838 -1.01988,9.31569c1.64958,0.82514 3.55286,1.78789 5.18309,2.17004c-0.06478,-0.07367 -0.11142,-0.17974 -0.11142,-0.33244c0,-0.5 0.5,-0.5 0.5,-0.5c3.06586,0.02152 5.9281,-2.36242 8.88949,-2.98764c1.33929,-0.28275 2.99437,0.01889 4.22023,-0.62624l0.66667,-0.33333c0,0 0.44721,-0.22361 0.67082,0.22361c0.22361,0.44721 -0.22361,0.67082 -0.22361,0.67082l-0.66667,0.33333c-1.37149,0.65974 -2.98309,0.40882 -4.44643,0.70709c-1.30404,0.2658 -2.56323,0.84348 -3.82505,1.42259c0.16345,0.1181 0.20484,0.32505 0.20484,0.32505c0.44839,2.24194 1.05493,3.93139 3.50971,3.93139h1c0,0 0.5,0 0.5,0.5z" fill="#000000" stroke="none" stroke-width="0.5"/></g></g></svg>