<svg version="1.1" xmlns="http://www.w3.org/2000/svg" xmlns:xlink="http://www.w3.org/1999/xlink" width="81.68103" height="112.62304" viewBox="0,0,81.68103,112.62304"><defs><linearGradient x1="235.98639" y1="120.33333" x2="235.98639" y2="193.66667" gradientUnits="userSpaceOnUse" id="color-1"><stop offset="0" stop-color="#1ffff4"/><stop offset="1" stop-color="#9966ff"/></linearGradient></defs><g transform="translate(-195.22279,-119.97072)"><g data-paper-data="{&quot;isPaintingLayer&quot;:true}" fill-rule="nonzero" stroke-width="0.5" stroke-linejoin="miter" stroke-miterlimit="10" stroke-dasharray="" stroke-dashoffset="0" style="mix-blend-mode: normal"><path d="M208.83333,120.33333c0,0 -7.24353,35.53007 -10.73925,43.33559c-4.40381,9.83317 -1.92741,29.99774 -1.92741,29.99774l80.33333,-19.66667c0,0 -18.13571,-27.52846 -28.19781,-33.75738c-8.23673,-5.09893 -39.46885,-19.90929 -39.46885,-19.90929z" fill="url(#color-1)" stroke="#000000" stroke-linecap="round"/><path d="M226.5,186c0,0 -8.13643,27.87906 -9.94118,35.09804c-0.67537,2.70148 -3.39216,11.23529 -3.39216,11.23529l44.66667,-1.33333c0,0 3.96377,-9.59768 3.75901,-17.68588c-0.10127,-4.00025 -0.72461,-7.03312 -1.78192,-13.7488c-1.40029,-8.89416 -3.31042,-21.23198 -3.31042,-21.23198z" fill="#1ffff4" stroke="#000000" stroke-linecap="round"/><path d="M235.72361,188.88612c0.44721,0.22361 0.22361,0.67082 0.22361,0.67082l-0.33333,0.66667c-0.3136,0.61682 -0.7069,1.17496 -1.1421,1.69949c0.31528,1.79398 1.1173,3.07793 2.48751,4.55635c1.14418,1.25689 5.60914,1.96475 6.05409,-0.59432c0.09468,-0.54451 0.31995,-2.88441 -0.37138,-3.08985c-0.53066,-0.1577 -1.6462,0.06513 -2.1937,0.13083c-0.59628,0.07156 -1.18966,0.24829 -1.72469,0.52111c0,0 -0.44721,0.22361 -0.67082,-0.22361c-0.22361,-0.44721 0.22361,-0.67082 0.22361,-0.67082c0.64028,-0.31483 1.34121,-0.52908 2.04901,-0.6191c0.64276,-0.08175 2.1275,-0.32428 2.69927,-0.06229c1.4379,0.65884 1.36836,3.9722 0.54761,5.08763c-1.67483,2.27617 -5.55692,2.10287 -7.34649,0.20012c-0.76739,-0.82825 -1.92117,-2.52214 -2.60341,-4.29261c-0.69045,0.71937 -1.42032,1.40017 -2.07184,2.12051c-0.38912,0.43021 -0.9644,1.96014 -0.50215,2.46651c0.69514,0.76149 2.34632,1.42757 3.24407,2.00919c0.79416,0.51451 1.40782,0.66761 2.32502,0.85085c5.19056,1.05558 14.32225,-4.56966 7.51883,-9.43816c-2.51147,-1.25067 -6.10203,-3.76197 -9.13608,-2.39258c-0.71482,0.32263 -0.71366,1.22962 -0.68015,1.91574c0.16879,-0.22245 0.30562,-0.43077 0.39938,-0.6222l0.33333,-0.66667c0,0 0.22361,-0.44721 0.67082,-0.22361zM233.23686,191.64212c-0.40204,-1.68899 -0.19081,-3.28178 1.38685,-4.08568c3.20175,-1.63147 7.35,1.11812 10.02884,2.46255c2.28204,1.63397 3.93924,5.41459 1.90721,7.95667c-2.26308,2.83113 -6.6939,3.99705 -10.1384,3.31852c-1.03903,-0.20802 -1.76658,-0.41366 -2.66972,-0.99029c-0.9309,-0.59436 -2.85281,-1.41445 -3.51368,-2.2645c-1.46234,-1.88092 1.14243,-4.41019 2.9989,-6.39727z" fill="#ff0000" stroke="none" stroke-linecap="butt"/><path d="M256.52221,190.83284c-0.49951,0.02221 -0.52172,-0.47729 -0.52172,-0.47729l0.00806,-0.24875c-0.1834,-0.95796 -2.59008,-1.43245 -3.63699,-0.98404c-1.32847,0.56901 -1.03937,3.51016 -0.99262,4.55243c0.15204,3.61226 1.25044,5.04668 4.66706,4.17293c0.60851,-0.15562 0.89111,0.16463 1.45973,-0.22584c1.25646,-0.86279 -1.73034,-2.12897 -2.33907,-2.12227c0,0 -0.5,0 -0.5,-0.5c0,-0.5 0.5,-0.5 0.5,-0.5c1.45929,0.01262 5.18975,2.10251 2.99427,3.87773c-0.4989,0.4034 -1.25117,0.28522 -1.8736,0.44083c-0.87855,0.21964 -1.52436,0.85726 -2.5282,0.67591c-2.7427,-0.49549 -3.2695,-3.44703 -3.37918,-5.7746c-0.07562,-1.69512 -0.15662,-3.45578 0.94556,-4.85735c1.34561,-1.71113 4.9446,-0.72172 5.63173,0.92806l0.04227,0.52055c0,0 0.02221,0.49951 -0.47729,0.52172z" fill="#ff0000" stroke="none" stroke-linecap="butt"/><path d="M253,184.33333c0,0.5 -0.5,0.5 -0.5,0.5l0.11388,-0.27639c-0.81479,1.62957 -2.0675,2.95946 -2.74509,4.68189c-0.92681,2.35596 -0.53546,5.29146 -0.53546,7.76117c-0.08618,5.70308 6.98671,6.53096 10.94306,4.55279c0,0 0.44721,-0.22361 0.67082,0.22361c0.22361,0.44721 -0.22361,0.67082 -0.22361,0.67082c-4.72281,2.36141 -12.31329,0.96982 -12.39027,-5.44721c0,-2.61593 -0.3673,-5.62947 0.60416,-8.12545c0.68285,-1.75445 1.95612,-3.11315 2.78195,-4.76483l0.78055,-0.27639c0,0 0.5,0 0.5,0.5z" fill="#ff0000" stroke="none" stroke-linecap="butt"/><path d="M249.66667,216.66667c0,-0.27614 0.22386,-0.5 0.5,-0.5c0.27614,0 0.5,0.22386 0.5,0.5c0,0.27614 -0.22386,0.5 -0.5,0.5c-0.27614,0 -0.5,-0.22386 -0.5,-0.5z" fill="#ff0000" stroke="none" stroke-linecap="butt"/></g></g></svg>