<svg version="1.1" xmlns="http://www.w3.org/2000/svg" xmlns:xlink="http://www.w3.org/1999/xlink" width="295" height="214" viewBox="0,0,295,214"><g transform="translate(-92.5,-73)"><g data-paper-data="{&quot;isPaintingLayer&quot;:true}" fill-rule="nonzero" stroke-linecap="butt" stroke-linejoin="miter" stroke-miterlimit="10" stroke-dasharray="" stroke-dashoffset="0" style="mix-blend-mode: normal"><path d="M96,283.5v-207h288v207z" fill="#00ffff" stroke="#ff0000" stroke-width="7"/><path d="M372.91421,116.41421c-1.41421,1.41421 -2.82843,0 -2.82843,0l-1,-1c-2.62442,-2.82922 -3.12528,-6.28183 -5.58437,-9.22166c-2.63439,4.65945 -5.14462,9.41726 -8.28576,13.83532l-0.9268,1.86655c0,0 -0.89443,1.78885 -2.68328,0.89443c-1.78885,-0.89443 -0.89443,-2.68328 -0.89443,-2.68328l1.0732,-2.13345c3.22706,-4.57867 5.81435,-9.50518 8.55441,-14.3162c-1.69218,-0.96465 -3.83682,-2.00757 -4.71795,-2.57208c-2.57385,-1.64898 -3.2185,-3.18464 -6.1208,-3.08384c0,0 -2,0 -2,-2c0,-2 2,-2 2,-2c3.8893,0.0846 5.03801,1.63802 8.2792,3.71616c1.61186,1.03347 3.0812,1.83866 4.45273,2.6962c1.32443,-2.20055 2.7206,-4.35351 4.26807,-6.41236c2.19002,-2.91374 2.94083,-5.06236 6.10557,-6.78885c0,0 1.78885,-0.89443 2.68328,0.89443c0.89443,1.78885 -0.89443,2.68328 -0.89443,2.68328c-2.20133,0.93002 -3.2347,3.66084 -4.69443,5.61115c-1.53928,2.0566 -2.92433,4.20875 -4.23845,6.4081c0.77545,0.7105 1.52713,1.53226 2.26598,2.53385c0.91513,1.24055 1.92904,2.44597 2.55553,3.8545c0.26977,0.60651 -0.24346,1.39277 0.0444,1.99091c0.30573,0.63527 1.05784,0.93229 1.58675,1.39843l1,1c0,0 1.41421,1.41421 0,2.82843z" fill="#ff0000" stroke="none" stroke-width="0.5"/><text transform="translate(249.75,144.67814) scale(0.5,0.5)" font-size="40" xml:space="preserve" fill="#000000" fill-rule="nonzero" stroke="none" stroke-width="1" stroke-linecap="butt" stroke-linejoin="miter" stroke-miterlimit="10" stroke-dasharray="" stroke-dashoffset="0" font-family="&quot;black&quot;, &quot;Microsoft YaHei&quot;, &quot;微软雅黑&quot;, STXihei, &quot;华文细黑&quot;" font-weight="normal" text-anchor="start" style="mix-blend-mode: normal"><tspan x="0" dy="0">冰糖葫芦</tspan></text><text transform="translate(231.75,188.17814) scale(0.5,0.5)" font-size="40" xml:space="preserve" fill="#000000" fill-rule="nonzero" stroke="none" stroke-width="1" stroke-linecap="butt" stroke-linejoin="miter" stroke-miterlimit="10" stroke-dasharray="" stroke-dashoffset="0" font-family="&quot;black&quot;, &quot;Microsoft YaHei&quot;, &quot;微软雅黑&quot;, STXihei, &quot;华文细黑&quot;" font-weight="normal" text-anchor="start" style="mix-blend-mode: normal"><tspan x="0" dy="0">糖在僵尸眼力等</tspan><tspan x="0" dy="48px">于屎...</tspan></text><path d="M212.41515,231.2434c-0.82849,0 -1.65698,-0.31661 -2.29021,-0.94721l-80.84584,-80.84848c-1.26384,-1.26384 -1.26384,-3.31657 0,-4.58041c1.26384,-1.26384 3.31657,-1.26384 4.58041,0l80.84584,80.84584c1.26384,1.26384 1.26384,3.31657 0,4.58041c-0.63324,0.6306 -1.46173,0.94985 -2.29021,0.94985z" fill="#d99e82" stroke="none" stroke-width="1"/><path d="M163.28391,161.05704c0,9.83892 -7.97614,17.81506 -17.81506,17.81506c-9.83892,0 -17.81506,-7.97614 -17.81506,-17.81506c0,-9.83892 7.97614,-17.81506 17.81506,-17.81506c9.83892,0 17.81506,7.97614 17.81506,17.81506z" fill="#fcb1e3" stroke="none" stroke-width="1"/><path d="M160.81449,197.83557c-9.57565,-2.26111 -15.50524,-11.85671 -13.24412,-21.43235c2.26111,-9.57565 11.85671,-15.50524 21.43235,-13.24412c9.57565,2.26111 15.50524,11.85671 13.24412,21.43235c-2.26111,9.57565 -11.85671,15.50524 -21.43235,13.24412z" fill="#ffd983" stroke="none" stroke-width="1"/><path d="M202.15672,199.92722c0,9.83892 -7.97878,17.81769 -17.81769,17.81769c-9.83892,0 -17.81506,-7.97878 -17.81506,-17.81769c0,-9.83892 7.97614,-17.81506 17.81506,-17.81506c9.83892,0 17.81769,7.97878 17.81769,17.81506z" fill="#a6d388" stroke="none" stroke-width="1"/><path d="M212.41515,231.2434c-0.82849,0 -1.65698,-0.31661 -2.29021,-0.94721l-19.84141,-19.84141c-1.26648,-1.26384 -1.26648,-3.31657 0,-4.58041c1.26648,-1.26384 3.31393,-1.26384 4.58041,0l19.84141,19.84141c1.26384,1.26384 1.26384,3.31657 0,4.58041c-0.63324,0.62796 -1.46173,0.94721 -2.29021,0.94721z" fill="#d99e82" stroke="none" stroke-width="1"/></g></g></svg>