<svg version="1.1" xmlns="http://www.w3.org/2000/svg" xmlns:xlink="http://www.w3.org/1999/xlink" width="211.90391" height="24" viewBox="0,0,211.90391,24"><g transform="translate(-85.84611,-172.50976)"><g data-paper-data="{&quot;isPaintingLayer&quot;:true}" fill-rule="nonzero" stroke="none" stroke-linecap="butt" stroke-linejoin="miter" stroke-miterlimit="10" stroke-dasharray="" stroke-dashoffset="0" style="mix-blend-mode: normal"><path d="M210.29741,195.70261c0,0 -0.54739,-0.45743 -0.54739,-2.02712c0,-4.81937 0,-14.96348 0,-17.69904c0,-1.32993 0.36493,-2.36152 0.36493,-2.36152c0,0 1.16179,-0.36493 3.06521,-0.36493c8.42836,0 69.07993,0 82.10893,0c1.58114,0 2.09601,0.36493 2.09601,0.36493c0,0 0.36493,0.62515 0.36493,2.17906c0,4.95711 0,15.65207 0,18.24643c0,1.1109 -0.54739,1.84466 -0.54739,1.84466c0,0 -0.46778,0.36493 -2.27848,0.36493c-14.16008,0 -76.9714,0 -83.38617,0c-1.04192,0 -1.24057,-0.54739 -1.24057,-0.54739z" fill="#808080" stroke-width="0"/><text transform="translate(86.09612,189.75976) scale(0.5,0.5)" font-size="40" xml:space="preserve" fill="#000000" fill-rule="nonzero" stroke="none" stroke-width="1" stroke-linecap="butt" stroke-linejoin="miter" stroke-miterlimit="10" stroke-dasharray="" stroke-dashoffset="0" font-family="&quot;black&quot;, &quot;Microsoft YaHei&quot;, &quot;微软雅黑&quot;, STXihei, &quot;华文细黑&quot;" font-weight="normal" text-anchor="start" style="mix-blend-mode: normal"><tspan x="0" dy="0">使用按键开炮</tspan></text><path d="M295.8096,185.00559c0,5.90512 -4.78704,10.69216 -10.69216,10.69216c-5.90512,0 -10.69216,-4.78704 -10.69216,-10.69216c0,-5.90512 4.78704,-10.69216 10.69216,-10.69216c5.90512,0 10.69216,4.78704 10.69216,10.69216z" fill="#000000" stroke-width="0"/></g></g></svg>