<svg version="1.1" xmlns="http://www.w3.org/2000/svg" xmlns:xlink="http://www.w3.org/1999/xlink" width="295" height="215.08033" viewBox="0,0,295,215.08033"><g transform="translate(-92.5,-71.91967)"><g data-paper-data="{&quot;isPaintingLayer&quot;:true}" fill-rule="nonzero" stroke-linecap="butt" stroke-linejoin="miter" stroke-miterlimit="10" stroke-dasharray="" stroke-dashoffset="0" style="mix-blend-mode: normal"><path d="M96,283.5v-207h288v207z" fill="#00ffff" stroke="#ff0000" stroke-width="7"/><path d="M372.91421,116.41421c-1.41421,1.41421 -2.82843,0 -2.82843,0l-1,-1c-2.62442,-2.82922 -3.12528,-6.28183 -5.58437,-9.22166c-2.63439,4.65945 -5.14462,9.41726 -8.28576,13.83532l-0.9268,1.86655c0,0 -0.89443,1.78885 -2.68328,0.89443c-1.78885,-0.89443 -0.89443,-2.68328 -0.89443,-2.68328l1.0732,-2.13345c3.22706,-4.57867 5.81435,-9.50518 8.55441,-14.3162c-1.69218,-0.96465 -3.83682,-2.00757 -4.71795,-2.57208c-2.57385,-1.64898 -3.2185,-3.18464 -6.1208,-3.08384c0,0 -2,0 -2,-2c0,-2 2,-2 2,-2c3.8893,0.0846 5.03801,1.63802 8.2792,3.71616c1.61186,1.03347 3.0812,1.83866 4.45273,2.6962c1.32443,-2.20055 2.7206,-4.35351 4.26807,-6.41236c2.19002,-2.91374 2.94083,-5.06236 6.10557,-6.78885c0,0 1.78885,-0.89443 2.68328,0.89443c0.89443,1.78885 -0.89443,2.68328 -0.89443,2.68328c-2.20133,0.93002 -3.2347,3.66084 -4.69443,5.61115c-1.53928,2.0566 -2.92433,4.20875 -4.23845,6.4081c0.77545,0.7105 1.52713,1.53226 2.26598,2.53385c0.91513,1.24055 1.92904,2.44597 2.55553,3.8545c0.26977,0.60651 -0.24346,1.39277 0.0444,1.99091c0.30573,0.63527 1.05784,0.93229 1.58675,1.39843l1,1c0,0 1.41421,1.41421 0,2.82843z" fill="#ff0000" stroke="none" stroke-width="0.5"/><text transform="translate(249.75,144.67814) scale(0.5,0.5)" font-size="40" xml:space="preserve" fill="#000000" fill-rule="nonzero" stroke="none" stroke-width="1" stroke-linecap="butt" stroke-linejoin="miter" stroke-miterlimit="10" stroke-dasharray="" stroke-dashoffset="0" font-family="&quot;black&quot;, &quot;Microsoft YaHei&quot;, &quot;微软雅黑&quot;, STXihei, &quot;华文细黑&quot;" font-weight="normal" text-anchor="start" style="mix-blend-mode: normal"><tspan x="0" dy="0">冲刺僵尸</tspan></text><text transform="translate(231.75,188.17814) scale(0.5,0.5)" font-size="40" xml:space="preserve" fill="#000000" fill-rule="nonzero" stroke="none" stroke-width="1" stroke-linecap="butt" stroke-linejoin="miter" stroke-miterlimit="10" stroke-dasharray="" stroke-dashoffset="0" font-family="&quot;black&quot;, &quot;Microsoft YaHei&quot;, &quot;微软雅黑&quot;, STXihei, &quot;华文细黑&quot;" font-weight="normal" text-anchor="start" style="mix-blend-mode: normal"><tspan x="0" dy="0">血量少，</tspan><tspan x="0" dy="48px">但跑的飞快。</tspan></text><path d="M203.75001,129.17813c0,22.36753 -18.35633,40.5 -41,40.5c-22.64367,0 -41,-18.13247 -41,-40.5c0,-22.36753 18.35633,-40.5 41,-40.5c22.64367,0 41,18.13247 41,40.5z" fill="none" stroke="#000000" stroke-width="5"/><path d="M102.25,181.17814c0,-2.40919 2.32168,-2.4967 2.49034,-2.49988c2.57611,-1.0957 5.83666,-2.47531 8.53689,-2.95501c0.33921,-0.06026 6.64856,-0.04511 6.97277,-0.04511c5.5,0 11,0 16.5,0c4.58848,0 9.26553,0.25872 13.84466,0.00483c2.60847,-0.14463 5.1394,-0.44536 7.68838,-0.68032c-15.1106,-4.65494 -31.55398,-10.48322 -47.28669,-7.33667l-3.24634,0.01217c0,0 -2.5,0 -2.5,-2.5c0,-2.5 2.5,-2.5 2.5,-2.5l2.75366,0.01217c16.42386,-3.28477 33.48572,2.74869 49.23709,7.54607c0.07216,-0.33113 0.2301,-0.68602 0.50926,-1.05823c1.5,-2 3.5,-0.5 3.5,-0.5c0.88373,0.74209 2.10488,1.20979 2.65119,2.22627c1.3529,2.51724 1.233,6.64534 1.81653,9.37328c0.33074,1.54616 1.17942,2.9517 1.5,4.5c0.75404,3.64178 0.03228,8.18219 0.03228,11.90046c0,3.9513 0.6031,8.50655 -0.03228,12.40046c-0.32821,2.01143 -0.86247,3.92895 -1.57997,5.76174c2.25269,0.8222 1.48396,3.12837 1.48396,3.12837c-1.27564,3.68286 -0.87171,7.31848 -0.87171,11.20943c0,5.84048 0.71794,10.6212 1.92679,16.38711c0.32157,1.5338 1.17803,6.17671 2.17514,7.75942c1.78036,2.82597 5.02611,5.74622 7.26088,8.18616c3.71159,4.05232 5.83065,8.11234 10.38428,11.3791c0.49271,0.66685 1.06688,1.28406 1.69937,1.83368c0.16935,-0.02947 0.35343,-0.04548 0.55353,-0.04548c2.5,0 2.5,2.5 2.5,2.5l-3.78624,3.14373c-1.67126,-1.03422 -3.27123,-2.29108 -4.46086,-3.85553c-4.63803,-3.29805 -6.85789,-7.52483 -10.61572,-11.6209c-1.79781,-1.95963 -3.45047,-4.0489 -5.10769,-6.12877c-0.78093,-0.98009 -1.98346,-1.61241 -2.63142,-2.68507c-1.54625,-2.55973 -2.26107,-6.5837 -2.8637,-9.43477c-1.54392,-7.3044 -3.07046,-15.92443 -2.22783,-23.79923c-0.09441,0.12202 -0.18968,0.24363 -0.28582,0.36482c-6.39498,2.7648 -13.29696,4.39469 -19.17333,8.12155c-12.24394,7.76524 -15.79326,23.7455 -15.87967,37.29462l-1,3v2.5l-1,3l0.03228,2.09954h-5l0.03228,-2.90046l1,-3v-2.5l1,-3c-0.10605,-15.00383 4.80927,-32.20956 18.12033,-40.70538c5.7157,-3.64806 12.4433,-5.65972 18.82667,-7.87845c4.77989,-7.12706 4.52072,-14.21699 4.52072,-22.51571c0,-3.41938 0.77233,-7.77195 0.03228,-11.09954c-0.34325,-1.54343 -1.16814,-2.95408 -1.5,-4.5c-0.09163,-0.42684 -0.15365,-0.8947 -0.2036,-1.38551c-4.12629,0.10635 -8.0405,0.75019 -12.17334,0.98022c-4.68228,0.26061 -9.46344,0.00483 -14.15534,0.00483c-5.5,0 -11,0 -16.5,0c-2.00913,0 -4.05241,-0.41484 -6.02723,-0.04511c-2.55636,0.47861 -5.6227,1.81866 -7.98797,2.84297l-1.4848,0.20214c0,0 -2.5,0 -2.5,-2.5z" fill="#000000" stroke="none" stroke-width="0.5"/><path d="M142.25,136.67814c-2.5,0 -2.5,-2.5 -2.5,-2.5l0.17881,-1.42848c1.8762,-4.42744 0.80707,-10.54702 1.33648,-15.3476c0,0 0.27608,-2.48471 2.76079,-2.20863c2.48471,0.27608 2.20863,2.76079 2.20863,2.76079c-0.61908,5.5278 0.32975,11.45567 -1.66352,16.6524l0.17881,-0.42848c0,0 0,2.5 -2.5,2.5z" fill="#000000" stroke="none" stroke-width="0.5"/><path d="M158.96376,136.82185c-2.14373,-1.28624 -0.85749,-3.42997 -0.85749,-3.42997l1.42212,-2.36025c1.48986,-3.41873 3.01571,-6.819 4.40042,-10.28199c0,0 0.92848,-2.32119 3.24967,-1.39272c2.32119,0.92848 1.39272,3.24967 1.39272,3.24967c-1.44496,3.61119 -3.03603,7.15695 -4.59958,10.71801l-1.57788,2.63975c0,0 -1.28624,2.14373 -3.42997,0.85749z" fill="#000000" stroke="none" stroke-width="0.5"/><path d="M166.75,146.67814c0,2.5 -2.5,2.5 -2.5,2.5h-2.5c-2.49245,0 -4.95181,-0.19556 -7.39737,0.42628c-2.07953,0.52877 -4.21411,1.27698 -6.34897,1.06155c-3.38495,-0.34157 -5.71751,-2.15067 -8.5399,-3.8441c0,0 -2.14373,-1.28624 -0.85749,-3.42997c1.28624,-2.14373 3.42997,-0.85749 3.42997,-0.85749c1.54474,0.92685 2.95324,2.11696 4.61525,2.81193c2.39587,1.00182 4.20082,-0.0299 6.49588,-0.59448c2.88727,-0.71026 5.66959,-0.57372 8.60263,-0.57372h2.5c0,0 2.5,0 2.5,2.5z" fill="#000000" stroke="none" stroke-width="0.5"/><path d="M162.86326,163.25827c-2.08013,-1.38675 -0.69338,-3.46688 -0.69338,-3.46688l0.70842,0.67732c-0.28091,-0.87677 -0.44625,-1.79938 -0.84274,-2.6303c-0.47901,-1.00385 -1.67796,-1.72352 -1.76397,-2.83247c-0.15994,-2.06214 1.82409,-4.91988 2.83468,-6.61404c0,0 1.28624,-2.14373 3.42997,-0.85749c2.14373,1.28624 0.85749,3.42997 0.85749,3.42997c-0.46804,0.77489 -0.9164,1.56201 -1.40412,2.32467c-0.23455,0.36677 -0.85191,0.6355 -0.7612,1.0613c0.11809,0.55432 0.97161,0.66624 1.23603,1.16753c0.55409,1.05045 0.77151,2.24646 1.15726,3.3697l-1.29158,3.67732c0,0 -1.38675,2.08013 -3.46688,0.69338z" fill="#ff0000" stroke="none" stroke-width="0.5"/><path d="M157.25,132.67814c0,-1.38071 1.11929,-2.5 2.5,-2.5c1.38071,0 2.5,1.11929 2.5,2.5c0,1.38071 -1.11929,2.5 -2.5,2.5c-1.38071,0 -2.5,-1.11929 -2.5,-2.5z" fill="#ff0000" stroke="none" stroke-width="0.5"/><path d="M137.25,134.17814c0,-1.38071 1.11929,-2.5 2.5,-2.5c1.38071,0 2.5,1.11929 2.5,2.5c0,1.38071 -1.11929,2.5 -2.5,2.5c-1.38071,0 -2.5,-1.11929 -2.5,-2.5z" fill="#ff0000" stroke="none" stroke-width="0.5"/><path d="M103.04595,279.19817c0,0 9.194,-2.67818 9.194,-6.74226c0,-3.6566 0,-10.41986 0,-10.41986c0,0 7.81629,0 11.64573,0c3.7273,0 11.0328,0 11.0328,0c0,0 0,7.25835 0,11.0328c0,3.97861 -12.25866,5.5164 -12.25866,5.5164c0,0 -5.1947,2.45173 -9.194,2.45173c-3.49087,0 -10.41986,-1.8388 -10.41986,-1.8388z" fill="#66d3ff" stroke="#00f3ff" stroke-width="2"/><path d="M166.2746,281.13351c0,0 9.194,-2.67818 9.194,-6.74226c0,-3.6566 0,-10.41987 0,-10.41987c0,0 7.81629,0 11.64573,0c3.72731,0 11.0328,0 11.0328,0c0,0 0,7.25835 0,11.0328c0,3.97861 -12.25867,5.51639 -12.25867,5.51639c0,0 -5.1947,2.45173 -9.19399,2.45173c-3.49087,0 -10.41986,-1.8388 -10.41986,-1.8388z" fill="#66d3ff" stroke="#00f3ff" stroke-width="2"/><path d="M210.35751,95.31824c0,2.5 -2.5,2.5 -2.5,2.5h-0.61293c-5.8766,0 -11.8769,0.47196 -17.65242,-0.66148c0,0 -2.45145,-0.49029 -1.96116,-2.94174c0.25131,-1.25656 1.01789,-1.74022 1.70548,-1.91317h-1.70576c-2.58471,-0.00929 -5.21247,-0.05576 -7.73094,-0.63314c-0.81403,-0.09083 -1.31612,-0.4762 -1.62581,-0.91703c-0.32483,-0.37531 -0.56437,-0.89766 -0.51455,-1.61239c-1.20228,-2.33049 -2.24743,-3.64832 -4.5003,-5.30557c-3.13427,-2.36022 -5.43891,-4.36161 -9.1743,-5.78462c-3.78881,-1.44336 -8.05104,-1.07058 -12.00423,-1.07058c-5.13987,0 -10.51905,-0.31166 -15.61907,0.38262c-3.2566,0.44333 -6.42402,1.39523 -9.65,2.02374c-1.29132,0.25158 -2.58048,0.5029 -3.869,0.75008c2.15264,0.39219 4.23563,1.20261 6.37165,1.70624c3.69647,0.87155 8.46038,0.99592 12.27009,1.17283c6.12281,0.28433 12.3329,-0.00272 18.46446,-0.00272c0,0 2.5,0 2.5,2.5c0,2.5 -2.5,2.5 -2.5,2.5c-6.20898,0 -12.49763,0.28827 -18.69767,-0.00272c-4.07809,-0.1914 -9.10045,-0.37233 -13.08696,-1.2789c-2.35072,-0.53458 -4.60407,-1.60016 -7.00738,-1.78933c-4.99308,-0.39302 -10.23333,0.00629 -15.24264,0.00629h-4.194c-1.38071,0 -2.5,-1.11929 -2.5,-2.5c0,-0.92661 0.50412,-1.73548 1.25305,-2.16731l3.02538,-1.81523l0.03661,0.06102c0.12545,-0.09162 0.25395,-0.17954 0.38585,-0.26333c0.77572,-0.49279 8.63773,-1.21062 9.1128,-1.28717c3.27062,-0.52703 6.48983,-1.33645 9.74658,-1.9433c4.28373,-0.79821 8.60282,-2.0423 12.9089,-2.6248c5.3289,-0.72085 10.92142,-0.42802 16.29134,-0.42802c4.60441,0 9.32537,-0.25266 13.73896,1.38115c4.17867,1.54685 6.95992,3.87614 10.43956,6.47404c2.85426,2.17366 4.439,4.12595 6.04535,7.21939c1.75068,0.26879 3.55409,0.25596 5.32624,0.24874h2.45173c0,0 2.5,0 2.5,2.5c0,1.81061 -1.31132,2.30989 -2.03453,2.44758c0.01624,0.00272 0.02482,0.00444 0.02482,0.00444c5.41113,1.10603 11.15575,0.56438 16.67184,0.56438h0.61293c0,0 2.5,0 2.5,2.5z" fill="#66d3ff" stroke="none" stroke-width="0.5"/><path d="M209.28933,105.68984c0.44507,-0.36554 1.92285,-1.35848 3.40063,0.1193c1.76777,1.76777 0,3.53553 0,3.53553l-2.3807,1.34517c-3.26898,0 -6.53795,0 -9.80693,0c0,0 -2.5,0 -2.5,-2.5c0,-2.5 2.5,-2.5 2.5,-2.5c2.929,0 5.858,0 8.787,0z" fill="#66d3ff" stroke="none" stroke-width="0.5"/><path d="M220.1159,121.18408c0.49029,2.45145 -1.96116,2.94174 -1.96116,2.94174l-3.1545,0.6292c-3.38318,0.4208 -6.79813,0.64196 -10.20739,0.64521c0,0 -2.5,0 -2.5,-2.5c0,-2.5 2.5,-2.5 2.5,-2.5c3.14146,0.0032 6.28954,-0.1889 9.40647,-0.58065l2.97483,-0.59667c0,0 2.45145,-0.49029 2.94174,1.96116z" fill="#66d3ff" stroke="none" stroke-width="0.5"/><path d="M215.26099,140.67529c0,2.5 -2.5,2.5 -2.5,2.5h-3.6776c0,0 -2.5,0 -2.5,-2.5c0,-2.5 2.5,-2.5 2.5,-2.5h3.6776c0,0 2.5,0 2.5,2.5z" fill="#66d3ff" stroke="none" stroke-width="0.5"/><path d="M207.29285,153.54689c0,2.5 -2.5,2.5 -2.5,2.5h-3.06467c0,0 -2.5,0 -2.5,-2.5c0,-2.5 2.5,-2.5 2.5,-2.5h3.06467c0,0 2.5,0 2.5,2.5z" fill="#66d3ff" stroke="none" stroke-width="0.5"/><path d="M186.96952,163.35382c0,-1.38071 1.11929,-2.5 2.5,-2.5c1.38071,0 2.5,1.11929 2.5,2.5c0,1.38071 -1.11929,2.5 -2.5,2.5c-1.38071,0 -2.5,-1.11929 -2.5,-2.5z" fill="#66d3ff" stroke="none" stroke-width="0.5"/><path d="M173.485,178.67715c0,-1.38071 1.11929,-2.5 2.5,-2.5c1.38071,0 2.5,1.11929 2.5,2.5c0,1.38071 -1.11929,2.5 -2.5,2.5c-1.38071,0 -2.5,-1.11929 -2.5,-2.5z" fill="#66d3ff" stroke="none" stroke-width="0.5"/><path d="M180.3238,197.67807c0,2.5 -2.5,2.5 -2.5,2.5l-1.10322,-0.04855c-1.02156,-0.20431 -2.04311,-0.40862 -3.06467,-0.61293c0,0 -2.45145,-0.49029 -1.96116,-2.94174c0.49029,-2.45145 2.94174,-1.96116 2.94174,-1.96116c1.02156,0.20431 2.04311,0.40862 3.06467,0.61293l0.12264,-0.04855c0,0 2.5,0 2.5,2.5z" fill="#66d3ff" stroke="none" stroke-width="0.5"/><path d="M168.58154,208.09793c0,-1.38071 1.11929,-2.5 2.5,-2.5c1.38071,0 2.5,1.11929 2.5,2.5c0,1.38071 -1.11929,2.5 -2.5,2.5c-1.38071,0 -2.5,-1.11929 -2.5,-2.5z" fill="#66d3ff" stroke="none" stroke-width="0.5"/><path d="M178.485,223.42126c0,2.5 -2.5,2.5 -2.5,2.5l-4.87709,-1.89366c-0.20431,-0.81724 -0.40862,-1.63449 -0.61293,-2.45173c0,0 -0.60634,-2.42536 1.81902,-3.0317c2.42536,-0.60634 3.0317,1.81902 3.0317,1.81902c0.20431,0.81724 0.40862,1.63449 0.61293,2.45173l0.02638,-1.89366c0,0 2.5,0 2.5,2.5z" fill="#66d3ff" stroke="none" stroke-width="0.5"/><path d="M171.64619,238.74459c0,-1.38071 1.11929,-2.5 2.5,-2.5c1.38071,0 2.5,1.11929 2.5,2.5c0,1.38071 -1.11929,2.5 -2.5,2.5c-1.38071,0 -2.5,-1.11929 -2.5,-2.5z" fill="#66d3ff" stroke="none" stroke-width="0.5"/><path d="M182.08796,257.73892c-0.60634,2.42536 -3.0317,1.81902 -3.0317,1.81902l-2.45173,-0.61293c0,0 -2.42536,-0.60634 -1.81902,-3.0317c0.60634,-2.42536 3.0317,-1.81902 3.0317,-1.81902l2.45173,0.61293c0,0 2.42536,0.60634 1.81902,3.0317z" fill="#66d3ff" stroke="none" stroke-width="0.5"/></g></g></svg>