<svg version="1.1" xmlns="http://www.w3.org/2000/svg" xmlns:xlink="http://www.w3.org/1999/xlink" width="65.48708" height="50.93246" viewBox="0,0,65.48708,50.93246"><g transform="translate(-205.37532,-209.99632)"><g data-paper-data="{&quot;isPaintingLayer&quot;:true}" fill="#ffa166" fill-rule="nonzero" stroke="none" stroke-width="0.5" stroke-linecap="butt" stroke-linejoin="miter" stroke-miterlimit="10" stroke-dasharray="" stroke-dashoffset="0" style="mix-blend-mode: normal"><path d="M227.74674,232.13705c-1.76777,-1.76777 0,-3.53553 0,-3.53553c1.26817,-1.26817 2.70081,-2.70081 4.07041,-4.07041c-1.04999,-2.63093 -2.221,-5.2059 -3.23519,-7.63933l-1.14758,-1.63751c0,0 -1.38675,-2.08013 0.69338,-3.46688c2.08013,-1.38675 3.46688,0.69338 3.46688,0.69338l1.60271,2.48793c0.17101,0.41053 0.34556,0.82432 0.52257,1.24108c1.02169,-0.60733 2.53015,-0.82025 3.62631,-1.28513c6.01773,-2.5521 13.02089,-2.87715 19.33489,-4.41251l1.32259,-0.40999c0,0 2.39023,-0.73267 3.1229,1.65756c0.73267,2.39023 -1.65756,3.1229 -1.65756,3.1229l-1.6081,0.48834c-4.85934,1.17832 -9.82751,1.76587 -14.669,2.98284c-0.1804,0.04534 -0.71541,0.30295 -1.40434,0.57989c1.03512,0.88724 2.07023,1.77449 3.10535,2.66173l0.48458,0.47416c0,0 1.76777,1.76777 0,3.53553c-1.76777,1.76777 -3.53553,0 -3.53553,0l-0.203,-0.21341c-0.71431,-0.61226 -1.42861,-1.22453 -2.14292,-1.83679c-0.38465,0.04796 -0.66563,0.01284 -0.66563,0.01284c-0.37141,-0.07224 -0.78672,-0.13282 -1.22289,-0.19788c0.53138,0.90981 0.26802,1.76378 -0.03708,2.31092c0.90849,2.58214 1.63893,5.19401 1.98317,7.77962c0.61547,4.62285 -0.1366,9.25824 -0.76725,13.82482c2.90551,-0.03931 5.80623,-0.12354 8.69783,-0.27859c5.05409,-0.27101 9.88811,-1.4417 14.96036,-1.60314c1.08946,-0.03468 2.29289,-0.44447 3.26979,0.03904c0.13488,0.06676 0.26701,0.13777 0.39668,0.21258l0.03507,-0.09351l2.69565,1.01087c0.9763,0.34031 1.67684,1.269 1.67684,2.36132c0,0.22788 -0.03049,0.44863 -0.08761,0.65841c0.27227,0.40028 0.43139,0.88371 0.43139,1.40431c0,0.52532 -0.16203,1.0128 -0.43883,1.41519l-2.04376,3.06564l-0.03454,-0.02303c-0.0364,0.07416 -0.07379,0.14792 -0.11223,0.22125c-0.84393,1.61012 -2.61953,2.76559 -4.65097,3.56077c-0.39794,0.61003 -1.05506,1.03558 -1.81511,1.12037l-2.68692,0.33959l-0.00739,-0.05844l-0.14904,0.07323c-11.32756,0.01085 -22.98896,0.80307 -34.20303,-0.70381c-2.89084,-0.38845 -6.02511,0.69169 -8.74273,-0.36772c-0.13232,-0.05158 -0.2622,-0.10748 -0.38988,-0.1673c-0.01719,-0.00067 -0.03438,-0.00135 -0.05157,-0.00205l-0.01426,0.03564l-0.10155,-0.04062c-1.29769,-0.05871 -2.59268,-0.21695 -3.8814,-0.50756c-2.93166,-0.66111 -8.12616,-1.79687 -5.39426,-7.32243c0.26964,-0.54537 0.76956,-0.82058 1.37738,-0.95545c-0.06743,-0.22643 -0.10363,-0.46631 -0.10363,-0.71464c0,-1.28702 0.97254,-2.3469 2.22282,-2.48481l2.71739,-0.33967l0.0058,0.04642l0.14894,-0.06089c6.41593,-0.00863 12.87235,0.14558 19.32216,0.1806l-0.00826,-0.77951c0,0 0,-2.42492 2.38823,-2.4983c0.46388,-3.27638 0.82535,-6.58785 0.38623,-9.87505c-0.19404,-1.45258 -0.52614,-2.91949 -0.95007,-4.38649c-0.67528,0.67528 -1.35057,1.35057 -2.02585,2.02585l-0.34379,0.34379c0,0 -1.76777,1.76777 -3.53553,0zM257.134,253.33507c0.08782,0.02453 0.17496,0.04982 0.26141,0.07591l0.46162,-0.26928c-0.24174,0.05992 -0.4827,0.12465 -0.72303,0.19337zM258.98293,252.90145c-0.25576,0.04515 -0.51044,0.09693 -0.76418,0.1544l0.15173,0.26011c0.20114,-0.14283 0.40463,-0.28063 0.61245,-0.41452z"/></g></g></svg>