<svg version="1.1" xmlns="http://www.w3.org/2000/svg" xmlns:xlink="http://www.w3.org/1999/xlink" width="39.18598" height="27.06214" viewBox="0,0,39.18598,27.06214"><g transform="translate(-214.75,-166.46893)"><g data-paper-data="{&quot;isPaintingLayer&quot;:true}" fill-rule="nonzero" stroke-linecap="butt" stroke-linejoin="miter" stroke-miterlimit="10" stroke-dasharray="" stroke-dashoffset="0" style="mix-blend-mode: normal"><path d="M253.68598,180c0,7.33493 -6.12742,13.28107 -13.68598,13.28107c-7.55856,0 -13.68598,-5.94614 -13.68598,-13.28107c0,-7.33493 6.12742,-13.28107 13.68598,-13.28107c7.55856,0 13.68598,5.94614 13.68598,13.28107z" fill="#00ceff" stroke="#00dcdc" stroke-width="0.5"/><path d="M232.25,173c0,0.75 -0.75,0.75 -0.75,0.75l-0.71025,-0.00127c-5.046,-0.30255 -9.90768,-2.33775 -14.95641,-2.33207c0,0 -0.75,0 -0.75,-0.75c0,-0.75 0.75,-0.75 0.75,-0.75c5.09266,0.00535 9.95964,2.04854 15.04359,2.3346l0.62308,-0.00127c0,0 0.75,0 0.75,0.75z" fill="#00ceff" stroke="none" stroke-width="0.5"/><path d="M225.91667,175c0,0.75 -0.75,0.75 -0.75,0.75l-1.12014,-0.00968c-2.85896,-0.92773 -5.5609,-0.99032 -8.54653,-0.99032c0,0 -0.75,0 -0.75,-0.75c0,-0.75 0.75,-0.75 0.75,-0.75c3.03708,0 5.88486,0.01169 8.7868,1.00968l0.87986,-0.00968c0,0 0.75,0 0.75,0.75z" fill="#00ceff" stroke="none" stroke-width="0.5"/><path d="M227.52969,179.61188c-0.27854,0.69636 -0.9749,0.41781 -0.9749,0.41781l-0.27395,-0.10958c-2.17073,-0.87685 -4.47007,-0.81086 -6.68468,-1.54193c0,0 -0.71151,-0.23717 -0.47434,-0.94868c0.23717,-0.71151 0.94868,-0.47434 0.94868,-0.47434c2.23696,0.75372 4.55166,0.69372 6.76742,1.57224l0.27395,0.10958c0,0 0.69636,0.27854 0.41781,0.9749z" fill="#00ceff" stroke="none" stroke-width="0.5"/><path d="M225.91667,182.66667c0,0.75 -0.75,0.75 -0.75,0.75l-1.09164,-0.00562c-2.51957,-0.6198 -5.3585,-1.68222 -7.90836,-1.66105c0,0 -0.75,0 -0.75,-0.75c0,-0.75 0.75,-0.75 0.75,-0.75c2.64521,0.01846 5.49209,1.01072 8.09164,1.67229l0.90836,-0.00562c0,0 0.75,0 0.75,0.75z" fill="#00ceff" stroke="none" stroke-width="0.5"/><path d="M226.25,187.33333c0,0.75 -0.75,0.75 -0.75,0.75h-0.33333c-2.33643,0 -4.79122,0.17866 -7.20453,0.18652c-0.29042,-0.60233 -0.63496,-1.06712 -1.03333,-1.50494c2.73834,0.06167 5.56968,-0.18157 8.23786,-0.18157h0.33333c0,0 0.75,0 0.75,0.75z" fill="#00ceff" stroke="none" stroke-width="0.5"/><path d="M237.697,181.803c0.53033,0.53033 0,1.06066 0,1.06066l-0.86366,0.553c-3.59672,-0.01112 -7.02862,1.64343 -10.59276,1.99635c-1.86747,0.18492 -3.86122,0.00365 -5.74057,0.00365c0,0 -0.75,0 -0.75,-0.75c0,-0.75 0.75,-0.75 0.75,-0.75c1.82924,0 3.77531,0.18361 5.59276,0.00365c3.62391,-0.35884 7.0771,-1.99372 10.74057,-2.00365l-0.197,-0.11366c0,0 0.53033,-0.53033 1.06066,0z" fill="#00ceff" stroke="none" stroke-width="0.5"/><path d="M238.17082,188.33541c-0.33541,0.67082 -1.00623,0.33541 -1.00623,0.33541l-0.33126,-0.25415c-1.33333,0 -2.66667,0 -4,0c0,0 -0.75,0 -0.75,-0.75c0,-0.75 0.75,-0.75 0.75,-0.75c1.33333,0 2.66667,0 4,0l1.00208,0.41251c0,0 0.67082,0.33541 0.33541,1.00623z" fill="#00ceff" stroke="none" stroke-width="0.5"/><path d="M234.91667,189.66667c0,0.75 -0.75,0.75 -0.75,0.75c-2,0 -4.33333,0 -6.33333,0c0,0 -0.75,0 -0.75,-0.75c0,-0.75 0.75,-0.75 0.75,-0.75c2,0 4,0 6,0h0.33333c0,0 0.75,0 0.75,0.75z" fill="#00ceff" stroke="none" stroke-width="0.5"/><text transform="translate(234.84375,185.76875) scale(0.5,0.5)" font-size="40" xml:space="preserve" fill="#ff0000" fill-rule="nonzero" stroke="none" stroke-width="1" stroke-linecap="butt" stroke-linejoin="miter" stroke-miterlimit="10" stroke-dasharray="" stroke-dashoffset="0" font-family="&quot;black&quot;, &quot;Microsoft YaHei&quot;, &quot;微软雅黑&quot;, STXihei, &quot;华文细黑&quot;" font-weight="normal" text-anchor="start" style="mix-blend-mode: normal"><tspan x="0" dy="0">+</tspan></text></g></g></svg>