<svg version="1.1" xmlns="http://www.w3.org/2000/svg" xmlns:xlink="http://www.w3.org/1999/xlink" width="295" height="214" viewBox="0,0,295,214"><g transform="translate(-92.5,-73)"><g data-paper-data="{&quot;isPaintingLayer&quot;:true}" fill-rule="nonzero" stroke-linecap="butt" stroke-linejoin="miter" stroke-miterlimit="10" stroke-dasharray="" stroke-dashoffset="0" style="mix-blend-mode: normal"><path d="M96,283.5v-207h288v207z" fill="#00ffff" stroke="#ff0000" stroke-width="7"/><path d="M372.91421,116.41421c-1.41421,1.41421 -2.82843,0 -2.82843,0l-1,-1c-2.62442,-2.82922 -3.12528,-6.28183 -5.58437,-9.22166c-2.63439,4.65945 -5.14462,9.41726 -8.28576,13.83532l-0.9268,1.86655c0,0 -0.89443,1.78885 -2.68328,0.89443c-1.78885,-0.89443 -0.89443,-2.68328 -0.89443,-2.68328l1.0732,-2.13345c3.22706,-4.57867 5.81435,-9.50518 8.55441,-14.3162c-1.69218,-0.96465 -3.83682,-2.00757 -4.71795,-2.57208c-2.57385,-1.64898 -3.2185,-3.18464 -6.1208,-3.08384c0,0 -2,0 -2,-2c0,-2 2,-2 2,-2c3.8893,0.0846 5.03801,1.63802 8.2792,3.71616c1.61186,1.03347 3.0812,1.83866 4.45273,2.6962c1.32443,-2.20055 2.7206,-4.35351 4.26807,-6.41236c2.19002,-2.91374 2.94083,-5.06236 6.10557,-6.78885c0,0 1.78885,-0.89443 2.68328,0.89443c0.89443,1.78885 -0.89443,2.68328 -0.89443,2.68328c-2.20133,0.93002 -3.2347,3.66084 -4.69443,5.61115c-1.53928,2.0566 -2.92433,4.20875 -4.23845,6.4081c0.77545,0.7105 1.52713,1.53226 2.26598,2.53385c0.91513,1.24055 1.92904,2.44597 2.55553,3.8545c0.26977,0.60651 -0.24346,1.39277 0.0444,1.99091c0.30573,0.63527 1.05784,0.93229 1.58675,1.39843l1,1c0,0 1.41421,1.41421 0,2.82843z" fill="#ff0000" stroke="none" stroke-width="0.5"/><text transform="translate(249.75,144.67814) scale(0.5,0.5)" font-size="40" xml:space="preserve" fill="#000000" fill-rule="nonzero" stroke="none" stroke-width="1" stroke-linecap="butt" stroke-linejoin="miter" stroke-miterlimit="10" stroke-dasharray="" stroke-dashoffset="0" font-family="&quot;black&quot;, &quot;Microsoft YaHei&quot;, &quot;微软雅黑&quot;, STXihei, &quot;华文细黑&quot;" font-weight="normal" text-anchor="start" style="mix-blend-mode: normal"><tspan x="0" dy="0">墨镜</tspan></text><text transform="translate(231.75,188.17814) scale(0.5,0.5)" font-size="40" xml:space="preserve" fill="#000000" fill-rule="nonzero" stroke="none" stroke-width="1" stroke-linecap="butt" stroke-linejoin="miter" stroke-miterlimit="10" stroke-dasharray="" stroke-dashoffset="0" font-family="&quot;black&quot;, &quot;Microsoft YaHei&quot;, &quot;微软雅黑&quot;, STXihei, &quot;华文细黑&quot;" font-weight="normal" text-anchor="start" style="mix-blend-mode: normal"><tspan x="0" dy="0">给所有人的攻击</tspan><tspan x="0" dy="48px">力进行增加!并随</tspan><tspan x="0" dy="48px">时间减少</tspan></text><path d="M155.05313,184.87825c6.45545,-5.64404 28.05561,-6.54669 34.11676,0c0.41711,5.16501 0,10.26322 0,10.26322c-13.08197,-8.70068 -20.37164,-10.05303 -34.11676,0c1.05744,-4.19718 0,-10.26322 0,-10.26322z" fill="#272525" stroke="none" stroke-width="1"/><path d="M118.04429,168.16773c6.71125,0.55723 11.51781,0.55723 25.72891,0.55723c14.20948,0 25.72728,7.51289 25.72728,16.78058c0,9.26769 -11.85671,19.86003 -25.72728,16.77895c-22.65272,-5.03303 -25.72891,-24.84907 -25.72891,-34.11676z" fill="#272525" stroke="none" stroke-width="1"/><path d="M200.69584,202.28449c-13.87057,3.08108 -25.72728,-7.51126 -25.72728,-16.77895c0,-9.26769 11.51781,-16.78058 25.72728,-16.78058c14.20948,0 19.01603,0 25.72728,-0.55723c0,9.26769 -3.07619,29.08373 -25.72728,34.11676z" fill="#272525" stroke="none" stroke-width="1"/><path d="M164.66787,185.50554c0,5.71898 -8.53123,14.57608 -19.847,12.06038c-15.78831,-3.50797 -20.44822,-15.2881 -21.60831,-24.2234c4.76582,0.21181 10.19804,0.2167 20.56065,0.2167c13.57729,0 20.89466,7.00453 20.89466,11.94632z" fill="#ff5646" stroke="none" stroke-width="1"/><path d="M179.79955,185.50554c0,-4.94016 7.31737,-11.94632 20.89629,-11.94632c10.35935,0 15.79483,-0.00489 20.55902,-0.2167c-1.16009,8.9353 -5.81837,20.71543 -21.60831,24.2234c-11.31577,2.5157 -19.847,-6.34302 -19.847,-12.06038z" fill="#ff5646" stroke="none" stroke-width="1"/></g></g></svg>