<svg version="1.1" xmlns="http://www.w3.org/2000/svg" xmlns:xlink="http://www.w3.org/1999/xlink" width="151" height="141" viewBox="0,0,151,141"><g transform="translate(-151.33333,-129.5)"><g data-paper-data="{&quot;isPaintingLayer&quot;:true}" fill-rule="nonzero" stroke-linecap="butt" stroke-linejoin="miter" stroke-miterlimit="10" stroke-dasharray="" stroke-dashoffset="0" style="mix-blend-mode: normal"><path d="M299.83333,200c0,37.55536 -32.68321,68 -73,68c-40.31679,0 -73,-30.44464 -73,-68c0,-37.55536 32.68321,-68 73,-68c40.31679,0 73,30.44464 73,68z" fill="none" stroke="#000000" stroke-width="5"/><path d="M185.77608,190.48471c-2.48471,0.27608 -2.76079,-2.20863 -2.76079,-2.20863l-0.28008,-2.69467c-2.00301,-5.26467 -4.7722,-8.98032 -9.78266,-11.72935c0,0 -2.18539,-1.21411 -0.97129,-3.3995c1.21411,-2.18539 3.3995,-0.97129 3.3995,-0.97129c6.30287,3.53853 9.74919,8.28832 12.21734,14.93731l0.38659,3.30533c0,0 0.27608,2.48471 -2.20863,2.76079z" fill="#000000" stroke="none" stroke-width="0.5"/><path d="M217.57152,193.98786c-2.32119,-0.92848 -1.39272,-3.24967 -1.39272,-3.24967l0.86786,-2.06319c0.72771,-1.16412 3.3428,-5.43769 4.08079,-6.16924c0.38138,-0.37805 4.32665,-2.50156 5.02409,-2.94426c1.7325,-1.09971 3.12305,-2.68299 4.47992,-4.22242c0,0 1.66091,-1.86852 3.52943,-0.20761c1.86852,1.66091 0.20761,3.52943 0.20761,3.52943c-1.67278,1.86812 -3.4172,3.74491 -5.52008,5.11092c-1.37732,0.89469 -3.15545,1.22022 -4.30924,2.38908c-0.09391,0.09514 -3.22134,5.11416 -3.25254,5.1641l-0.46547,1.27015c0,0 -0.92848,2.32119 -3.24967,1.39272z" fill="#000000" stroke="none" stroke-width="0.5"/><path d="M188.64373,193.61957c-1.28624,2.14373 -3.42997,0.85749 -3.42997,0.85749l-2.38043,-1.64373c-0.66667,-0.88889 -1.33333,-1.77778 -2,-2.66667c0,0 -1.5,-2 0.5,-3.5c2,-1.5 3.5,0.5 3.5,0.5c0.66667,0.88889 1.33333,1.77778 2,2.66667l0.95291,0.35627c0,0 2.14373,1.28624 0.85749,3.42997z" fill="#ff0000" stroke="none" stroke-width="0.5"/><path d="M216.84854,196.29786c-2.29786,-0.9848 -1.31306,-3.28266 -1.31306,-3.28266l1,-2.33333c0,0 0.9848,-2.29786 3.28266,-1.31306c2.29786,0.9848 1.31306,3.28266 1.31306,3.28266l-1,2.33333c0,0 -0.9848,2.29786 -3.28266,1.31306z" fill="#ff0000" stroke="none" stroke-width="0.5"/><path d="M230.29788,221.83432c-0.81213,0.00074 -1.62427,0.00099 -2.43641,0.00097c0.64757,0.58572 0.87121,1.52896 0.93417,2.53583c0.38597,-0.66497 0.9277,-1.23946 1.37102,-1.87112l-0.03837,-0.29057c0,0 0.05207,-0.15622 0.16959,-0.37511zM209.6597,216.84157c0.50174,-0.00501 1.00408,-0.00824 1.50697,-0.00824c10.08221,0 20.18103,-0.1727 30.25532,0.23459c-0.37759,2.08432 -0.25298,4.32606 -1.13276,6.25296c-1.77158,3.88017 -3.52432,3.50651 -6.23285,5.63556c-9.63828,7.57621 -19.66142,15.10129 -32.64549,14.54196c-7.50426,-0.32327 -16.80546,-3.31672 -21.59241,-9.68509c-1.41637,-1.88428 -1.68916,-4.63632 -2.12928,-6.81178c-0.27913,-3.87053 -0.35623,-7.62349 -0.35208,-11.49566l-0.31782,-2.86036c-0.01274,-0.10227 -0.0193,-0.20646 -0.0193,-0.31218c0,-0.25402 0.03789,-0.4992 0.10832,-0.73018c-1.53576,-1.3745 -2.99703,-2.79149 -4.37608,-4.16872c0,0 -1.76777,-1.76777 0,-3.53553c1.76777,-1.76777 3.53553,0 3.53553,0c4.0043,4.00993 8.85315,8.5778 14.2033,10.7974c4.57893,1.89965 9.28111,2.19977 14.05679,2.20019c0.86644,-1.04993 1.68612,-1.75917 2.30613,-1.72982c1.04998,0.04969 1.99002,0.69153 2.82572,1.67491zM201.15386,222.00715c-1.22328,-0.08238 -2.43858,-0.20011 -3.64154,-0.36325c0.73723,1.49593 1.21992,3.15476 1.29981,4.62095c0.28049,-0.51819 0.57469,-1.03026 0.8504,-1.54828c0.25879,-0.48623 0.80146,-1.50792 1.49134,-2.70941zM183.29086,216.45715c1.25246,2.16066 2.34556,4.37695 3.34458,6.7932c0.57006,-1.30102 1.38876,-2.66844 2.30906,-3.77663c-0.13888,-0.05558 -0.2774,-0.11225 -0.41556,-0.17003c-1.80387,-0.75435 -3.55234,-1.72936 -5.23808,-2.84655zM218.10074,221.8803c0.88456,0.62331 1.70144,1.56882 2.55604,2.33474c0.16861,-0.93018 0.8106,-1.76251 2.44793,-2.38141c-0.53491,-0.00018 -1.06981,-0.0003 -1.60471,-0.0003c-1.1196,0 -2.25394,0.01854 -3.39926,0.04697zM225.97872,229.26338c-0.34783,-0.54799 -0.53041,-1.30648 -0.74903,-1.97954c-0.14616,0.99297 -0.47735,1.59632 -1.00602,2.1376l-1.2887,1.93305c-0.01558,0.02413 -0.03157,0.04798 -0.04796,0.07153c0.3836,-0.25508 0.76362,-0.51494 1.13984,-0.77921c0.64354,-0.45204 1.29604,-0.91372 1.95186,-1.38343zM217.46323,228.32116c-0.02207,0.0425 -0.04445,0.08479 -0.06713,0.12689l0.00663,0.00332l-1.97578,3.95156c-0.40086,0.84561 -1.26228,1.43041 -2.26029,1.43041c-1.05134,0 -1.9511,-0.64897 -2.32056,-1.56816l-0.9773,-2.28038l0.03011,-0.0129l-0.06905,-0.08344c-0.33753,-1.01127 -0.64602,-2.03271 -1.01258,-3.03382c-0.47287,-1.29145 -1.11365,-2.52318 -1.5049,-3.84166c-0.07078,-0.23851 -0.07362,-0.53307 -0.05534,-0.84156c-0.23925,0.00133 -0.47847,0.00196 -0.71762,0.00182c0.01031,0.26391 -0.00596,0.50678 -0.08053,0.69283c-0.60732,1.51538 -1.61147,2.83971 -2.41553,4.26052c-0.95191,1.68206 -1.35119,3.83073 -2.85236,5.04809c-1.37277,1.11323 -3.55492,2.2474 -5.11136,1.40997c-2.58844,-1.39269 -2.18028,-5.6112 -2.68438,-8.03162c-0.15918,-0.76433 -0.48901,-1.48389 -0.68856,-2.23869c-0.09935,-0.3758 0.17547,-1.21862 -0.20671,-1.14766c-0.41381,0.07683 -0.13265,0.83478 -0.26317,1.23491c-0.20285,0.62189 -0.51206,1.20465 -0.73336,1.82021c-0.35585,0.9898 -0.79923,1.94638 -1.3021,2.87456l0.30612,0.1148l-0.97951,2.61202c-0.34031,0.9763 -1.269,1.67684 -2.36132,1.67684c-0.96503,0 -1.80235,-0.54679 -2.21906,-1.34745l-1.97568,-3.62208l0.03924,-0.0214l-0.1179,-0.13569c-0.02091,-0.05581 -0.0425,-0.11187 -0.06472,-0.16819c0.80417,3.53247 1.83081,4.42179 5.11484,6.75359c10.55102,7.49165 23.04486,4.8057 33.32065,-1.49573c-0.13992,0.0243 -0.28384,0.03696 -0.43071,0.03696c-1.10109,0 -2.03592,-0.71184 -2.3694,-1.70042l-0.9472,-2.6048c-0.01421,0.04265 -0.03191,0.08479 -0.0535,0.12637zM217.2638,226.75328c-0.08951,-0.5393 -0.16893,-0.99665 -0.15089,-0.66291c0.01177,0.21762 0.07516,0.44023 0.15089,0.66291zM212.48131,222.05887c0.19735,0.50612 0.3829,1.01274 0.55687,1.50918c0.18485,-0.60524 0.50126,-1.14619 1.01036,-1.5615c-0.52121,0.01774 -1.04373,0.03544 -1.56723,0.05232zM234.88702,222.13064c0.04252,-0.04287 0.08511,-0.08564 0.12781,-0.12823c-0.05661,0.00198 -0.11329,0.00345 -0.17002,0.00445c0.01543,0.04124 0.02947,0.08253 0.04222,0.12379z" fill="#ff0000" stroke="none" stroke-width="0.5"/></g></g></svg>