<svg version="1.1" xmlns="http://www.w3.org/2000/svg" xmlns:xlink="http://www.w3.org/1999/xlink" width="52.98415" height="101.5985" viewBox="0,0,52.98415,101.5985"><g transform="translate(-211.32585,-124.50558)"><g data-paper-data="{&quot;isPaintingLayer&quot;:true}" fill-rule="nonzero" stroke="none" stroke-linecap="butt" stroke-linejoin="miter" stroke-miterlimit="10" stroke-dasharray="" stroke-dashoffset="0" style="mix-blend-mode: normal"><path d="M211.32585,226.10408v-78.11066c0,0 5.6501,-10.02877 12.61513,-16.87722c4.32323,-4.25087 9.71271,-6.60489 12.87552,-6.6106c15.94205,-0.02882 27.49349,23.48782 27.49349,23.48782v78.11066z" fill="#ff0000" stroke-width="0"/><path d="M227.78322,160.77692c0.53591,-0.26574 1.24924,-0.35261 2.13997,0.09276c2.23607,1.11803 1.11803,3.3541 1.11803,3.3541l-0.35415,0.60254c0.23819,0.19457 0.4551,0.41285 0.64297,0.66348c1.47287,1.96494 0.1229,7.81389 -1.75404,8.84894c-1.25948,0.69455 -2.7416,-0.87122 -4.11871,-1.28626c-2.03659,-0.61379 -6.16001,-1.35026 -6.71864,-3.85444c-0.40472,-1.81426 1.21342,-3.59864 2.38793,-5.03942c1.32885,-1.63009 3.7022,-1.99736 5.52785,-3.04141c0,0 0.48565,-0.27752 1.12879,-0.34029z" fill="#000000" stroke-width="0.5"/><path d="M253.10935,164.60985c6.05646,-0.53093 6.83267,9.01936 5.82936,12.97215c-0.34495,1.35902 -0.65755,2.95156 -1.75685,3.82188c-3.9986,3.16571 -10.33017,-0.58057 -13.3948,-3.30285c-1.17512,-1.04385 -3.22416,-1.82022 -3.27641,-3.39114c-0.05421,-1.62988 1.95207,-2.61796 3.03601,-3.83636c2.19956,-2.47241 3.33667,-3.60846 4.87156,-6.70091c0,0 1.11803,-2.23607 3.3541,-1.11803c0.83987,0.41993 1.20655,0.9976 1.33703,1.55526z" fill="#000000" stroke-width="0.5"/><path d="M230.4096,183.91615c1.23005,-0.28492 2.53701,-0.20184 3.67146,0.34208c1.39038,0.66663 1.56689,2.66432 2.18782,4.0757c1.20191,2.73197 3.3846,8.66403 0.44864,11.10138c-1.2362,1.02626 -3.223,-0.27949 -4.76352,-0.73573c-2.28108,-0.67556 -6.01841,-2.79015 -7.89333,-4.31721c-1.28136,-1.04364 -3.47144,-1.78432 -3.57632,-3.43359c-0.19815,-3.11576 6.0516,-5.47006 8.1536,-6.69674c0,0 0.83634,-0.48786 1.77167,-0.33589z" fill="#000000" stroke-width="0.5"/><path d="M235.3599,175.35391c1.0601,0 1.67067,0.44952 2.02234,0.96734c1.42637,1.38832 0.21522,3.13777 0.21522,3.13777l-1.61827,2.3375c-0.4489,0.66739 -1.21112,1.10647 -2.0759,1.10647c-1.38071,0 -2.5,-1.11929 -2.5,-2.5c0,-0.49468 0.14368,-0.9558 0.39157,-1.34391l1.17001,-1.90127c0.19705,-0.73974 0.76396,-1.80389 2.39502,-1.80389z" fill="#000000" stroke-width="0.5"/></g></g></svg>