<svg version="1.1" xmlns="http://www.w3.org/2000/svg" xmlns:xlink="http://www.w3.org/1999/xlink" width="497" height="324" viewBox="0,0,497,324"><g transform="translate(11.5,-8)"><g data-paper-data="{&quot;isPaintingLayer&quot;:true}" fill="#e4e4e4" fill-rule="nonzero" stroke="none" stroke-width="0" stroke-linecap="butt" stroke-linejoin="miter" stroke-miterlimit="10" stroke-dasharray="" stroke-dashoffset="0" style="mix-blend-mode: normal"><path d="M65.5,44.5c0,20.15839 -17.23703,36.5 -38.5,36.5c-21.26296,0 -38.5,-16.34161 -38.5,-36.5c0,-20.15839 17.23703,-36.5 38.5,-36.5c21.26297,0 38.5,16.34161 38.5,36.5z"/><path d="M110.5,48.5c0,21.81525 -17.23703,39.5 -38.5,39.5c-21.26296,0 -38.5,-17.68475 -38.5,-39.5c0,-21.81525 17.23703,-39.5 38.5,-39.5c21.26297,0 38.5,17.68475 38.5,39.5z"/><path d="M164.5,48.5c0,21.81525 -17.23703,39.5 -38.5,39.5c-21.26297,0 -38.5,-17.68475 -38.5,-39.5c0,-21.81525 17.23703,-39.5 38.5,-39.5c21.26297,0 38.5,17.68475 38.5,39.5z"/><path d="M386.5,288.5c0,20.15839 -17.23703,36.5 -38.5,36.5c-21.26297,0 -38.5,-16.34161 -38.5,-36.5c0,-20.15839 17.23703,-36.5 38.5,-36.5c21.26297,0 38.5,16.34161 38.5,36.5z"/><path d="M431.5,292.5c0,21.81525 -17.23703,39.5 -38.5,39.5c-21.26297,0 -38.5,-17.68475 -38.5,-39.5c0,-21.81525 17.23703,-39.5 38.5,-39.5c21.26297,0 38.5,17.68475 38.5,39.5z"/><path d="M485.5,292.5c0,21.81525 -17.23703,39.5 -38.5,39.5c-21.26297,0 -38.5,-17.68475 -38.5,-39.5c0,-21.81525 17.23703,-39.5 38.5,-39.5c21.26297,0 38.5,17.68475 38.5,39.5z"/><path d="M83.5,214.5c0,20.15839 -17.23703,36.5 -38.5,36.5c-21.26297,0 -38.5,-16.34161 -38.5,-36.5c0,-20.15839 17.23703,-36.5 38.5,-36.5c21.26297,0 38.5,16.34161 38.5,36.5z"/><path d="M128.5,218.5c0,21.81525 -17.23703,39.5 -38.5,39.5c-21.26297,0 -38.5,-17.68475 -38.5,-39.5c0,-21.81525 17.23703,-39.5 38.5,-39.5c21.26297,0 38.5,17.68475 38.5,39.5z"/><path d="M182.5,218.5c0,21.81525 -17.23703,39.5 -38.5,39.5c-21.26297,0 -38.5,-17.68475 -38.5,-39.5c0,-21.81525 17.23703,-39.5 38.5,-39.5c21.26297,0 38.5,17.68475 38.5,39.5z"/><path d="M346.5,132.5c0,20.15839 -17.23703,36.5 -38.5,36.5c-21.26297,0 -38.5,-16.34161 -38.5,-36.5c0,-20.15839 17.23703,-36.5 38.5,-36.5c21.26297,0 38.5,16.34161 38.5,36.5z"/><path d="M391.5,136.5c0,21.81525 -17.23703,39.5 -38.5,39.5c-21.26297,0 -38.5,-17.68475 -38.5,-39.5c0,-21.81525 17.23703,-39.5 38.5,-39.5c21.26297,0 38.5,17.68475 38.5,39.5z"/><path d="M445.5,136.5c0,21.81525 -17.23703,39.5 -38.5,39.5c-21.26297,0 -38.5,-17.68475 -38.5,-39.5c0,-21.81525 17.23703,-39.5 38.5,-39.5c21.26297,0 38.5,17.68475 38.5,39.5z"/></g></g></svg>