<svg version="1.1" xmlns="http://www.w3.org/2000/svg" xmlns:xlink="http://www.w3.org/1999/xlink" width="43" height="43" viewBox="0,0,43,43"><g transform="translate(-218.5,-158.5)"><g data-paper-data="{&quot;isPaintingLayer&quot;:true}" fill-rule="nonzero" stroke-linecap="butt" stroke-linejoin="miter" stroke-miterlimit="10" stroke-dasharray="" stroke-dashoffset="0" style="mix-blend-mode: normal"><path d="M222,180c0,-9.94113 8.05887,-18 18,-18c9.94113,0 18,8.05887 18,18c0,9.94113 -8.05887,18 -18,18c-9.94113,0 -18,-8.05887 -18,-18z" fill="#ffffff" stroke="#ff0000" stroke-width="7"/><path d="M241.42389,196.85695l-1.55634,-0.62625c-6.92368,-2.40549 -9.20877,-10.58186 -11.8725,-16.77619c0,0 -0.78784,-1.83829 1.05045,-2.62613c1.83829,-0.78784 2.62613,1.05045 2.62613,1.05045c1.31186,3.07241 2.64279,7.61322 4.90876,10.86799c-0.11319,-0.25055 -0.21402,-0.50126 -0.30097,-0.75147c-2.44238,-7.02877 3.36583,-16.74588 8.72478,-20.62281c0,0 1.62747,-1.16248 2.78994,0.46499c1.16248,1.62747 -0.46499,2.78994 -0.46499,2.78994c-3.64327,2.56225 -6.89135,7.63446 -7.16929,12.20416c-0.07773,1.27802 -0.5745,2.64813 -0.10593,3.83969c0.86462,2.19871 3.04809,4.44949 4.91832,6.0583c0.59133,0.13643 1.52776,0.56853 1.52776,1.93705c0,2 -2,2 -2,2l-0.87642,-0.25176c-0.85868,0.97846 -2.1997,0.44205 -2.1997,0.44205z" fill="#ff0000" stroke="none" stroke-width="0.5"/><path d="M245.5,178.33333c0,-1.10457 0.89543,-2 2,-2c1.10457,0 2,0.89543 2,2c0,1.10457 -0.89543,2 -2,2c-1.10457,0 -2,-0.89543 -2,-2z" fill="#ff0000" stroke="none" stroke-width="0.5"/><path d="M250.1641,192.77607c-1.1094,1.6641 -2.7735,0.5547 -2.7735,0.5547l-1.5547,-1.22137c-1.76588,-2.75141 -1.99599,-4.54113 -2.00257,-7.77607c0,0 0,-2 2,-2c0.05074,0 0.1002,0.00129 0.1484,0.0038c0.67487,-0.44973 1.51374,-0.30992 1.51374,-0.30992c1.45786,0.24718 2.89961,0.61162 4.30366,1.07542l1.11509,0.81649c0,0 1.41421,1.41421 0,2.82843c-1.36371,1.36371 -2.72741,0.09741 -2.82308,0.00522c-0.73803,-0.23315 -1.4883,-0.43173 -2.24597,-0.59148c0.05492,1.32616 0.30023,2.28184 1.31894,3.72932l0.4453,0.11197c0,0 1.6641,1.1094 0.5547,2.7735zM250.41915,186.85893l0.11506,0.03844c-0.03832,-0.01291 -0.07667,-0.02572 -0.11506,-0.03844z" fill="#ff0000" stroke="none" stroke-width="0.5"/></g></g></svg>