<svg version="1.1" xmlns="http://www.w3.org/2000/svg" xmlns:xlink="http://www.w3.org/1999/xlink" width="296" height="185" viewBox="0,0,296,185"><defs><linearGradient x1="240" y1="87.5" x2="240" y2="272.5" gradientUnits="userSpaceOnUse" id="color-1"><stop offset="0" stop-color="#00ceff"/><stop offset="1" stop-color="#008cff"/></linearGradient></defs><g transform="translate(-92,-87.5)"><g data-paper-data="{&quot;isPaintingLayer&quot;:true}" fill-rule="nonzero" stroke-linejoin="miter" stroke-miterlimit="10" stroke-dasharray="" stroke-dashoffset="0" style="mix-blend-mode: normal"><path d="M92,272.5v-185h296v185z" fill="url(#color-1)" stroke="none" stroke-width="0" stroke-linecap="butt"/><text transform="translate(207.45475,109) scale(0.5,0.5)" font-size="40" xml:space="preserve" fill="#000000" fill-rule="nonzero" stroke="none" stroke-width="1" stroke-linecap="butt" stroke-linejoin="miter" stroke-miterlimit="10" stroke-dasharray="" stroke-dashoffset="0" font-family="Handwriting" font-weight="normal" text-anchor="start" style="mix-blend-mode: normal"><tspan x="0" dy="0">ask about</tspan></text><path d="M164.5,168h-39l22,-40z" fill="#efff00" stroke="#000000" stroke-width="0.5" stroke-linecap="round"/><path d="M147.16667,159.16667c-2.5,0 -2.5,-2.5 -2.5,-2.5v-1.33333c0,-4.6491 0.31277,-9.28022 -0.61812,-13.84304c0,0 -0.49029,-2.45145 1.96116,-2.94174c2.45145,-0.49029 2.94174,1.96116 2.94174,1.96116c0.96691,4.91987 0.71521,9.82238 0.71521,14.82362v1.33333c0,0 0,2.5 -2.5,2.5z" fill="#ff0000" stroke="none" stroke-width="0.5" stroke-linecap="butt"/><path d="M144.33333,163c0,-1.38071 1.11929,-2.5 2.5,-2.5c1.38071,0 2.5,1.11929 2.5,2.5c0,1.38071 -1.11929,2.5 -2.5,2.5c-1.38071,0 -2.5,-1.11929 -2.5,-2.5z" fill="#ff0000" stroke="none" stroke-width="0.5" stroke-linecap="butt"/><text transform="translate(173.83333,148.46526) scale(0.32083,0.32083)" font-size="40" xml:space="preserve" fill="#000000" fill-rule="nonzero" stroke="none" stroke-width="1" stroke-linecap="butt" stroke-linejoin="miter" stroke-miterlimit="10" stroke-dasharray="" stroke-dashoffset="0" font-family="Handwriting" font-weight="normal" text-anchor="start" style="mix-blend-mode: normal"><tspan x="0" dy="0">Switch languages? It will automatically r-</tspan><tspan x="0" dy="46.150000000000006px">estart after switching!</tspan><tspan x="0" dy="46.150000000000006px"> </tspan></text><text transform="translate(310.16667,239.88161) scale(0.42917,0.42917)" font-size="40" xml:space="preserve" fill="#000000" fill-rule="nonzero" stroke="none" stroke-width="1" stroke-linecap="butt" stroke-linejoin="miter" stroke-miterlimit="10" stroke-dasharray="" stroke-dashoffset="0" font-family="Handwriting" font-weight="normal" text-anchor="start" style="mix-blend-mode: normal"><tspan x="0" dy="0">cancel</tspan><tspan x="0" dy="48px"> </tspan></text><path d="M310.5,244h32.66667" fill="none" stroke="#000000" stroke-width="0.5" stroke-linecap="round"/></g></g></svg>