<svg version="1.1" xmlns="http://www.w3.org/2000/svg" xmlns:xlink="http://www.w3.org/1999/xlink" width="178.03799" height="138.03383" viewBox="0,0,178.03799,138.03383"><g transform="translate(-159.73598,-94.48884)"><g data-paper-data="{&quot;isPaintingLayer&quot;:true}" fill="#bbbbbb" fill-rule="nonzero" stroke="none" stroke-width="0.5" stroke-linecap="butt" stroke-linejoin="miter" stroke-miterlimit="10" stroke-dasharray="" stroke-dashoffset="0" style="mix-blend-mode: normal"><path d="M213.12434,161.18411c1.31589,-2.12566 3.44155,-0.80978 3.44155,-0.80978l1.99735,1.23645c2.51611,1.55759 4.63979,3.84155 7.40374,4.89864c0.38098,0.14571 0.70016,-0.42186 1.02432,-0.66945c0.74195,-0.56669 1.45277,-1.17313 2.17026,-1.77049c2.13579,-1.77819 4.32898,-3.49322 6.36713,-5.38252c4.37687,-4.05723 8.32911,-8.82058 12.25483,-13.30747c0.70235,-0.80275 1.3544,-1.58831 1.98989,-2.34553c0.03236,-0.89275 0.07861,-1.82249 0.13751,-2.69129c-2.38573,4.17549 -5.98027,7.7805 -9.4012,1.76687c-0.98878,-1.73817 0.04821,-4.0057 0.26988,-5.9931c0.12504,-1.12104 0.51081,-2.1974 0.76622,-3.2961c0.27164,-0.27306 0.53306,-0.55902 0.78984,-0.85081c-1.70043,-0.20757 -3.40276,-0.2216 -4.82695,0.69047c-0.81497,0.52192 -1.47442,1.25612 -2.25073,1.83398c-2.20991,1.64498 -3.28867,1.57173 -4.17617,3.9075c-0.74708,1.96618 -0.3318,4.55894 -0.3318,6.59851v1.5c0,0 0,2.5 -2.5,2.5c-2.5,0 -2.5,-2.5 -2.5,-2.5v-1.5c0,-2.71909 -0.39682,-5.81042 0.6682,-8.40149c2.41267,-5.86981 9.8838,-9.92954 15.97006,-9.59468c1.06315,0.05849 3.05448,0.23526 5.07388,0.58047c4.80634,-2.00868 11.02484,-0.46368 14.20872,3.57016c4.25264,0.49461 8.8172,2.06524 12.0521,4.32554c1.20911,0.84483 2.06866,2.10318 3.10299,3.15477c0.94804,1.74604 2.25199,3.3416 2.84413,5.23813c0.00293,0.00938 0.00584,0.01878 0.00873,0.02821c2.50837,0.62 4.89883,1.52333 6.59534,2.31829c1.03069,0.48297 2.32876,0.57344 3.11694,1.39464c3.56722,3.71665 3.8355,9.7265 1.79253,14.66872c0.51108,0.34795 1.01634,0.70753 1.51349,1.0747c0.05348,-1.27328 1.26666,-2.00119 1.26666,-2.00119c4.10774,-2.46326 7.40724,-5.85777 11.37713,-8.42131c8.51805,-5.5005 18.297,-9.02476 27.61334,-12.896l1.66652,-0.45847c0,0 2.41951,-0.62925 3.04876,1.79026c0.62925,2.41951 -1.79026,3.04876 -1.79026,3.04876l-1.00641,0.23669c-8.99877,3.73928 -18.46955,7.12408 -26.71373,12.40885c-3.18001,2.03848 -5.95318,4.61736 -9.02522,6.84774c4.88543,0.86651 9.59729,2.31745 14.52043,3.12013l2.20202,0.54173c0,0 2.42536,0.60634 1.81902,3.0317c-0.60634,2.42536 -3.0317,1.81902 -3.0317,1.81902l-1.79798,-0.45827c-4.41827,-0.72759 -8.66864,-1.98757 -13.02781,-2.85125c0.50537,0.34121 0.95833,0.71768 1.16819,1.26613c0.60702,1.58633 0.423,3.40462 0.21882,5.0908c-0.42119,3.47826 -4.3135,10.23761 -7.66432,11.39894c-1.04175,0.36105 -2.18793,0.17975 -3.30259,0.13635c0.01392,1.83408 0.292,3.69314 -0.03904,5.49461c-0.59183,3.2207 -2.11645,4.70218 -3.99677,7.05907c-2.5213,3.16033 -5.69266,5.86297 -9.33981,7.25387c1.66157,2.05285 3.38004,4.05337 5.19922,5.96156l0.68841,2.22283c0,0 0,2.5 -2.5,2.5c-1.72833,0 -2.26181,-1.19485 -2.42648,-1.93248c-2.2958,-2.47369 -4.43856,-5.08324 -6.51735,-7.75006c-0.69811,-0.01094 -1.4078,-0.07268 -2.12818,-0.18957c2.58476,7.05543 3.69665,14.83789 4.15921,21.99792l-4.96145,0.34602c0,0 -2.47183,-0.37425 -2.09758,-2.84608c0.32139,-2.12267 2.18962,-2.14652 2.711,-2.1109c-1.816,-3.43975 -2.28935,-7.18759 -3.33549,-11.03323c-0.90833,-3.33904 -1.90961,-6.58808 -3.39886,-9.59748c-0.49992,0.55349 -0.7729,1.44977 -1.40736,1.8621c-2.05242,1.33387 -5.09304,2.01609 -7.9905,2.52554c3.30431,5.6763 4.71498,12.09258 7.21423,18.29974l0.60416,2.32214c0,0 0.60634,2.42536 -1.81902,3.0317c-2.42536,0.60634 -3.0317,-1.81902 -3.0317,-1.81902l-0.39584,-1.67786c-2.57802,-6.4827 -3.84493,-13.50847 -7.86824,-19.2275c-6.55754,1.28618 -13.11759,1.84605 -19.81056,1.79902c-1.35828,-0.00954 -2.75021,0.23572 -4.07438,-0.06688c-2.42838,-0.55493 -4.49463,-2.149 -6.74455,-3.21804c-1.21005,-3.19519 -2.72537,-6.29379 -3.60314,-9.59576c-0.32346,-1.21676 -0.39185,-2.48778 -0.54852,-3.73702c-0.08601,-0.68582 0.0828,-1.90336 -0.13895,-2.51898c-0.04677,-0.07866 -0.09205,-0.159 -0.1358,-0.24104c-0.09945,-0.11006 -0.23638,-0.16069 -0.42437,-0.12805c-0.42068,0.07304 -0.45111,0.75517 -0.80148,0.9992c-1.40827,0.98081 -2.89631,1.85079 -4.42116,2.63822c-0.05689,0.02938 -0.11372,0.05851 -0.17052,0.0874c-0.60629,11.76844 -4.93368,23.616 -6.45895,35.11064l-3.30238,-0.88208l-1.65395,0.22271c0.02845,-0.21335 0.058,-0.42695 0.08859,-0.64082l-0.11043,-0.0295c0,0 0,-0.61023 0.30149,-1.22771c1.59046,-9.90487 5.20226,-20.32346 6.06821,-30.54426c-2.30367,0.66489 -4.60229,1.00917 -6.99722,1.16932c-2.65807,3.08164 -5.35267,6.13316 -7.9694,9.22385c-0.98433,1.14771 -1.96865,2.29542 -2.95298,3.44312l-1.4501,1.93568c0,0 -1.5,2 -3.5,0.5c-2,-1.5 -0.5,-3.5 -0.5,-3.5l1.5499,-2.06432c1.01567,-1.18563 2.03135,-2.37125 3.04702,-3.55688c0.0584,-0.06898 3.12919,-3.69602 4.98015,-5.88226c-2.8167,0.01034 -6.0411,0.06769 -7.39681,-3.56446c-0.55087,-1.47587 -0.08239,-3.10841 0.44313,-4.68258c-6.20221,1.01696 -13.02148,0.30077 -19.0706,-0.78984c0,0 -2.45967,-0.44721 -2.01246,-2.90689c0.44721,-2.45967 2.90689,-2.01246 2.90689,-2.01246c5.83569,1.07067 12.62041,1.8196 18.51447,0.5612c0.72058,-0.15385 1.44629,-0.33556 2.17475,-0.53919c1.64168,-2.53899 3.86039,-4.94432 5.72681,-6.74129c1.22191,-1.17644 2.68447,-2.07667 3.96945,-3.18387c0.41404,-0.35675 0.7438,-0.8436 1.10097,-1.28134c-5.00833,-3.14555 -11.97176,-8.49341 -8.60917,-15.08759c1.80583,-3.54131 7.61102,-3.10591 10.67557,-3.71776c0.80479,-0.16068 1.57655,-0.46588 2.361,-0.7117c-0.12897,-0.68177 -0.22536,-1.37272 -0.34235,-2.03333c-0.79179,-4.47115 0.15935,-11.50599 4.79758,-13.80546c-4.98042,0 -9.95936,0 -14.81631,0c0,0 -2.5,0 -2.5,-2.5c0,-2.5 2.5,-2.5 2.5,-2.5c9.83333,0 19.66667,0 29.5,0h0.5c0,0 2.5,0 2.5,2.5c0,2.5 -2.5,2.5 -2.5,2.5c-2.28784,0 -4.60275,0 -6.93213,0c4.36164,1.49094 8.71195,4.61555 12.41693,6.20214c0,0 2.29786,0.9848 1.31306,3.28266c-0.9848,2.29786 -3.28266,1.31306 -3.28266,1.31306c-3.95564,-1.69658 -7.8137,-3.57473 -11.63324,-5.56179c-2.17025,-1.12905 -2.04155,-1.81326 -4.42526,-0.92637c-3.12922,1.16428 -2.56828,6.47328 -2.47544,8.88484c0.02943,0.76455 -0.12618,1.60577 0.15426,2.30546h3.36447c1.38071,0 2.5,1.11929 2.5,2.5c0,1.38071 -1.11929,2.5 -2.5,2.5l-3.5,0v-0.17249c-0.23725,-0.03624 -0.4798,-0.06431 -0.72192,-0.09304c-2.99779,0.76055 -6.01242,1.24638 -9.37763,1.73325c-1.09336,0.15818 -2.76122,-0.23867 -3.22496,0.76403c-1.06652,2.30604 2.40772,5.1936 3.85556,6.29193c1.32568,1.00566 2.72424,1.91656 4.15127,2.77241l2.88726,1.44363c0.84561,0.40086 1.43041,1.26228 1.43041,2.26029c0,1.1246 -0.74256,2.07576 -1.76412,2.38994l-2.28956,0.76319c-1.85555,1.42964 -3.67869,2.94084 -5.31739,4.48659c0.8397,-0.33453 1.66858,-0.66335 2.48262,-0.97651c2.20962,-0.85003 8.94518,-4.21743 10.91656,-1.12497c0.95473,1.49767 0.36116,3.47606 -0.63169,5.29522c0.45762,0.58385 0.56957,1.25556 0.56957,1.25556c0.20868,1.27268 0.35215,2.5477 0.4388,3.8245c1.94072,-1.17037 4.64892,-2.73947 5.56376,-2.8999c0.29529,-0.79867 0.65304,-1.59365 0.86038,-2.3975c1.58327,-2.67162 3.29309,-5.16002 5.2272,-7.42604c-0.29975,-0.19651 -0.60609,-0.39324 -0.91634,-0.59249c-3.06352,-1.96746 -6.35771,-3.27295 -9.74103,-4.46695c-0.46522,0.59089 -1.3098,1.20093 -2.68932,0.74109c-2.37171,-0.79057 -1.58114,-3.16228 -1.58114,-3.16228l3.68345,-3.07398c4.59337,1.5781 10.53553,3.57835 14.88342,6.8185c0.89772,-0.8024 1.84106,-1.56505 2.8364,-2.28537c-2.16629,-1.10581 -7.83447,-4.67775 -8.85009,-5.30647l-1.99735,-1.23645c0,0 -2.12566,-1.31589 -0.80978,-3.44155zM258.45943,136.12829c0,0 0.0723,-0.0241 0.19587,-0.05126c-0.05056,-0.16992 -0.10669,-0.33735 -0.16861,-0.50204c-0.8515,-0.08638 -1.65445,0.00861 -2.33175,0.49289c-0.53135,0.37993 -0.89665,1.02163 -1.14332,1.81421c1.00583,-0.68848 2.13088,-1.28109 3.44781,-1.7538zM277.76957,180.05587c1.17214,5.18282 -2.28768,10.92631 -5.73885,14.28939c-0.90843,0.88524 -1.84769,1.70958 -2.815,2.47327c1.42717,1.89995 2.84429,3.8088 4.28295,5.69769c3.52346,-0.68405 6.33929,-3.01331 8.79915,-6.07795c1.24301,-1.54861 2.65512,-2.84364 3.00323,-4.94093c0.23203,-1.39793 -0.02593,-2.83399 -0.03889,-4.25099c-0.05083,-0.25347 -0.10137,-0.507 -0.15175,-0.76056c-3.2333,-0.7502 -6.46578,-2.45355 -6.36011,-5.94674c0.17885,-5.91257 5.84247,-4.97335 8.72064,-2.85243c0.82004,0.60428 1.46089,2.62647 1.92293,4.62361c0.8622,0.03498 1.72687,-0.01809 2.56555,-0.18194c1.33239,-0.26031 2.98748,-4.66352 3.55095,-5.7392c0.32695,-0.62415 1.38006,-2.93137 1.00355,-3.77106c-0.21553,-0.48067 -0.99091,-0.39992 -1.40194,-0.7294c-2.22102,-1.78039 -4.43728,-3.47085 -6.77874,-5.063c-1.24252,1.35757 -2.73369,2.43673 -4.42939,3.08735c-0.81522,0.31279 -1.65909,0.29546 -2.49505,0.07095c-1.14731,3.37334 -2.44141,6.68976 -3.63924,10.07194zM243.51598,203.83199c-5.2409,-0.61023 -9.15918,-2.5402 -12.78781,-6.49538c-1.46536,-1.59722 -3.72454,-2.99583 -3.97115,-5.14933c-0.21847,-1.90781 1.87019,-3.35444 2.80528,-5.03165c3.28497,-1.8309 6.99383,-3.34355 10.87714,-4.52761c-0.00126,-0.00047 -0.00251,-0.00093 -0.00377,-0.0014c-1.50226,-0.55778 -0.99607,-3.06772 -1.18546,-4.65896c-0.28972,-2.43419 -0.11058,-5.13491 0.35919,-7.88297c-1.04242,-0.08829 -1.93039,-0.07074 -2.02802,-0.05677c-2.90646,0.41582 -5.60229,2.47654 -7.981,3.9312c-1.46659,0.89687 -2.82278,1.89821 -4.08339,2.99145c1.68837,2.28756 2.59353,5.03936 2.20884,8.39618c-0.1936,1.68931 -1.97598,7.11194 -3.43731,8.12376c-1.8923,1.31023 -4.29676,1.98042 -6.49771,1.82165c0.08775,0.70759 0.19994,1.41097 0.38125,2.08852c0.67062,2.506 1.73029,4.89716 2.39686,7.40424c1.49022,0.3797 2.75803,1.43176 4.25545,1.78196c2.53737,0.5934 5.21385,0.04845 7.81723,-0.06453c4.56125,-0.19794 9.12902,-0.71696 13.62932,-1.55403c0.10742,-0.12415 0.23288,-0.24743 0.37861,-0.36887c0.27631,-0.23026 0.546,-0.38764 0.80525,-0.48834c-1.30266,-0.0187 -2.61673,-0.10517 -3.93881,-0.25911zM259.58443,179.50549c1.84441,-0.04606 3.81128,-0.51345 5.53293,0.1498c1.82863,0.70446 3.18378,2.31974 4.54265,3.73169c0.40344,0.4192 0.77444,0.88868 1.07671,1.39506c0.32716,-1.46543 1.14034,-2.93344 1.61329,-4.35539c0.03087,-0.09281 0.06187,-0.18555 0.09299,-0.27822c-0.36608,-0.22076 -0.97361,-0.17612 -1.41747,-0.2557c-2.96759,-0.53203 -5.80458,-1.44576 -8.77554,-1.39273c0,0 -2.5,0 -2.5,-2.5c0,-2.5 2.5,-2.5 2.5,-2.5c3.01838,0.03921 7.38879,0.59791 10.22446,1.60727c0.50044,0.17813 1.03926,0.34739 1.56773,0.54234c1.02075,-2.76647 2.06933,-5.50948 2.98714,-8.30434c-0.79097,-0.66423 -1.47776,-1.2965 -2.00224,-1.70131c0.05092,-1.84851 -0.77537,-3.9461 0.15275,-5.54553c1.66683,-2.87243 6.55704,-2.17094 8.83164,-1.47964c0.89681,0.27256 1.80771,0.63582 2.72073,1.0687c1.26333,-2.96239 1.53072,-6.31859 -0.62328,-8.30153c-0.48508,-0.44655 -1.27844,-0.34242 -1.88306,-0.60536c-1.49582,-0.65051 -2.90465,-1.14138 -4.35408,-1.51393c-0.77226,5.3811 -4.0235,11.21568 -9.5399,7.7922c-4.43639,-2.75323 -4.89813,-11.51003 0.62755,-13.43058c0.80029,-0.27815 1.70248,-0.42431 2.6653,-0.46654c-0.23984,-0.50892 -0.51014,-1.0211 -0.80709,-1.53809c-2.67166,-2.75424 -5.40782,-4.03432 -8.98813,-4.8427c0.31721,3.04494 -0.29684,6.3478 -1.20876,9.01251c-0.94112,2.75003 -3.68177,9.54313 -7.07765,10.18929c-1.95293,0.3716 -3.8953,-1.61284 -4.98301,-3.27684c-0.41474,-0.63447 -0.60383,-1.35995 -0.69085,-2.12279c-1.14912,1.30431 -2.30491,2.60304 -3.47485,3.88797c0.25786,0.02856 0.53775,0.10133 0.84042,0.23104c2.29786,0.9848 1.31306,3.28266 1.31306,3.28266c-1.20113,2.78242 -2.18358,5.81268 -2.92218,8.89039c0.69538,0.4895 1.296,1.08776 1.75094,1.81048c1.62579,2.58276 1.5661,9.10186 -0.94978,12.40063c4.44017,-0.94382 8.94012,-1.47549 13.15759,-1.58081zM236.95969,165.06672c1.11945,-0.12694 2.43904,-0.12833 3.77487,0.05251c0.69976,-2.5261 1.55703,-4.97954 2.42991,-7.18584c-2.48498,2.59082 -5.05964,5.09072 -7.79028,7.42704c0.51633,-0.13217 1.04422,-0.23234 1.5855,-0.29372zM268.50981,190.79328c-1.78903,-2.02273 -3.51693,-5.87276 -5.12718,-6.44857c-0.80517,-0.28792 -4.71546,0.32102 -5.84609,0.47254c-8.32434,1.1156 -17.10731,2.06783 -24.59885,6.02712c-0.39824,0.32278 -1.4037,0.50025 -1.19472,0.96835c0.43421,0.9726 1.70096,1.28468 2.5099,1.97757c4.72065,4.04349 8.261,5.49191 14.55255,5.62523c3.12875,0.0663 6.34636,-0.6771 9.40034,-1.93767c-0.02176,-0.59165 0.18936,-1.26972 0.94378,-1.89841c0.97167,-0.80973 1.86141,-0.71818 2.5034,-0.43007c-1.0764,-1.36172 -2.17274,-2.70606 -3.30108,-4.02239c0,0 -1.62698,-1.89814 0.27116,-3.52512c1.89814,-1.62698 3.52512,0.27116 3.52512,0.27116c1.37787,1.60759 2.7072,3.25929 4.0106,4.93447c0.82995,-0.64864 1.61663,-1.3235 2.35107,-2.01421zM249.44563,204.30241c0.46231,-0.10222 0.92371,-0.20784 1.38412,-0.31685c-0.61112,0.04754 -1.22553,0.07957 -1.84284,0.09612c0.1679,0.06161 0.32163,0.13869 0.45872,0.22073zM222.01912,180.47943c-1.6131,1.87933 -3.04744,3.93412 -4.35168,6.123c-0.56748,1.63277 -1.95644,3.87364 0.30977,3.4125c1.06827,-0.21738 2.30528,0.08503 3.23426,-0.48544c1.45449,-0.89318 1.28845,-3.19158 1.56269,-4.87624c0.2829,-1.73778 -0.04315,-3.0653 -0.75504,-4.17382zM199.49963,193.11118c0.76102,-0.18517 1.52459,-0.41312 2.29763,-0.69471c-0.01582,-0.6866 -0.04807,-1.37172 -0.09822,-2.05514c-0.7223,0.92385 -1.45636,1.83991 -2.19941,2.74985zM198.76432,185.98109c0.3033,-0.39073 0.60339,-0.93035 0.91493,-1.47423c-3.22293,1.19285 -6.39699,2.36244 -9.68461,3.37966c-0.61765,0.19111 -1.73511,0.5784 -2.93779,0.99795c-0.83622,1.66366 -2.04356,4.1823 -1.98709,4.68344c0.1383,1.22741 2.44539,0.45983 3.68026,0.43209c1.18185,-0.02655 2.31199,-0.04217 3.40728,-0.07334c2.24957,-2.61057 4.49753,-5.22793 6.60705,-7.94557zM266.70238,201.75777c-0.16962,-0.22599 -0.33926,-0.45196 -0.50896,-0.67788c0.10693,0.19046 0.21234,0.38194 0.31626,0.5744c0.06357,0.03562 0.12782,0.0701 0.19271,0.10348zM245.49558,137.95638c0.62348,-1.53131 1.43923,-3.39654 1.94801,-4.44197c-0.51411,0.53185 -0.96553,1.14622 -1.4894,1.66523c-0.07793,0.56797 -0.11886,1.14225 -0.23378,1.7039c-0.07318,0.35767 -0.14658,0.71581 -0.22483,1.07284zM254.74686,146.87482c0.02164,1.14136 0.13525,2.27916 0.19306,3.41926c0.01221,0.24081 -0.10857,0.92901 0.01699,0.72316c1.5017,-2.46208 3.22325,-6.12497 3.83618,-9.66839c-1.67234,0.79509 -2.9571,2.06869 -4.15262,3.49443c0.04774,0.82089 0.09688,1.53006 0.10639,2.03154zM274.86327,148.36902c-1.20481,-0.27659 -2.83143,-0.81402 -2.83267,0.15512c-0.00136,1.06879 0.23919,2.13121 0.50574,3.16623c0.1403,0.54478 0.53105,1.95611 0.82141,1.47428c0.99426,-1.6499 1.45848,-3.23299 1.50552,-4.79563zM283.77662,164.12964c-0.16983,-0.07808 -0.34775,-0.15846 -0.53058,-0.23917c-0.07731,0.30354 -0.15683,0.6061 -0.23839,0.90775c0.25696,-0.19562 0.51436,-0.41981 0.76897,-0.66857z"/><path d="M222.98607,128.11803c-1.11803,2.23607 -3.3541,1.11803 -3.3541,1.11803l-1.4437,-0.7839c-9.3243,-7.46397 -19.14607,-13.68102 -29.98591,-18.68227c0,0 -2.2699,-1.04765 -1.22225,-3.31754c1.04765,-2.2699 3.31754,-1.22225 3.31754,-1.22225c11.20639,5.17395 21.37053,11.60736 31.01409,19.31773l0.5563,0.2161c0,0 2.23607,1.11803 1.11803,3.3541z"/><path d="M212.83013,129.88675c-1.38675,2.08013 -3.46688,0.69338 -3.46688,0.69338l-1.09805,-0.78226c-2.03122,-0.88284 -4.28627,-1.14914 -6.35398,-1.94277c-1.31385,-0.50428 -2.3896,-1.50711 -3.67875,-2.07153c-3.12108,-1.36648 -5.6407,-1.66901 -8.97276,-2.33211c0,0 -2.45145,-0.49029 -1.96116,-2.94174c0.49029,-2.45145 2.94174,-1.96116 2.94174,-1.96116c3.96642,0.797 6.26925,1.04582 10.02724,2.66789c1.17536,0.50733 2.12675,1.468 3.32125,1.92847c2.16384,0.83414 4.51051,1.15303 6.64602,2.05723l1.90195,1.21774c0,0 2.08013,1.38675 0.69338,3.46688z"/><path d="M271.29855,124.49029c-0.2754,-1.37699 0.37735,-2.13521 1.00246,-2.53534c-0.16865,0.02919 -0.3519,0.04505 -0.55101,0.04505c-2.5,0 -2.5,-2.5 -2.5,-2.5l0.12829,-1.79057c2.27543,-6.76592 3.28938,-14.05083 4.4023,-21.09934c0,0 0.38991,-2.46941 2.85931,-2.0795c2.46941,0.38991 2.0795,2.85931 2.0795,2.85931c-1.15805,7.33434 -2.26542,14.84842 -4.5977,21.90066l0.12829,0.20943l1.90321,-1.42361c4.87152,-4.47034 11.16366,-8.24791 15.09679,-13.57639c0,0 1.5,-2 3.5,-0.5c2,1.5 0.5,3.5 0.5,3.5c-3.60601,4.74789 -8.72055,8.34144 -13.35517,12.20685c2.84878,-0.49999 5.69803,-0.82009 8.74192,-0.9662c2.76355,-0.13265 6.4684,0.63451 8.61325,-1.24066c0,0 2,-1.5 3.5,0.5c1.5,2 -0.5,3.5 -0.5,3.5c-4.75852,3.28724 -10.59287,1.85513 -16.21875,2.46104c-3.61636,0.38948 -5.72217,1.06996 -9.22307,1.97585l-2.56789,0.51456c0,0 -2.45145,0.49029 -2.94174,-1.96116z"/><path d="M327.25,158c0,2.5 -2.5,2.5 -2.5,2.5c-3.83333,0 -8.16667,0 -12,0c0,0 -2.5,0 -2.5,-2.5c0,-2.5 2.5,-2.5 2.5,-2.5c3.83333,0 7.66667,0 11.5,0h0.5c0,0 2.5,0 2.5,2.5z"/><path d="M184.67536,167.89366c0.60634,2.42536 -1.81902,3.0317 -1.81902,3.0317l-4.30088,1.05591c-1.19868,-0.03652 -2.48512,0.34216 -3.59603,-0.10956c-5.09625,-2.07224 -4.71594,-9.10241 -2.36521,-13.13766c2.36359,-4.05732 7.00964,-6.41973 10.81359,-8.8432c0,0 2.10915,-1.34219 3.45134,0.76696c1.34219,2.10915 -0.76696,3.45134 -0.76696,3.45134c-3.08027,1.95782 -7.1879,3.91631 -9.18641,7.1568c-1.27755,2.07148 -2.03285,5.99248 1.03877,5.75278l3.69912,-0.94409c0,0 2.42536,-0.60634 3.0317,1.81902z"/><path d="M303.75,153c-2.5,0 -2.5,-2.5 -2.5,-2.5l0.17881,-0.07152c-0.81542,-2.34598 -0.72172,-2.61288 -3.17881,-2.42848c0,0 -2.5,0 -2.5,-2.5c0,-2.5 2.5,-2.5 2.5,-2.5c4.5706,0.1782 6.01975,1.40479 7.82119,5.57152l0.17881,1.92848c0,0 0,2.5 -2.5,2.5z"/></g></g></svg>