<svg version="1.1" xmlns="http://www.w3.org/2000/svg" xmlns:xlink="http://www.w3.org/1999/xlink" width="123.52795" height="194.14376" viewBox="0,0,123.52795,194.14376"><g transform="translate(-184.05312,-81.67813)"><g data-paper-data="{&quot;isPaintingLayer&quot;:true}" fill-rule="nonzero" stroke-linecap="butt" stroke-linejoin="miter" stroke-miterlimit="10" stroke-dasharray="" stroke-dashoffset="0" style="mix-blend-mode: normal"><path d="M290.75,124.67813c0,22.36753 -18.35633,40.5 -41,40.5c-22.64367,0 -41,-18.13247 -41,-40.5c0,-22.36753 18.35633,-40.5 41,-40.5c22.64367,0 41,18.13247 41,40.5z" fill="none" stroke="#000000" stroke-width="5"/><path d="M189.25,176.67814c0,-2.40919 2.32168,-2.4967 2.49034,-2.49988c2.57611,-1.0957 5.83666,-2.47531 8.53689,-2.95501c0.33921,-0.06026 6.64856,-0.04511 6.97277,-0.04511c5.5,0 11,0 16.5,0c4.58848,0 9.26553,0.25872 13.84466,0.00483c2.60847,-0.14463 5.1394,-0.44536 7.68838,-0.68032c-15.1106,-4.65494 -31.55398,-10.48322 -47.28669,-7.33667l-3.24634,0.01217c0,0 -2.5,0 -2.5,-2.5c0,-2.5 2.5,-2.5 2.5,-2.5l2.75366,0.01217c16.42386,-3.28477 33.48572,2.74869 49.23709,7.54607c0.07216,-0.33113 0.2301,-0.68602 0.50926,-1.05823c1.5,-2 3.5,-0.5 3.5,-0.5c0.88373,0.74209 2.10488,1.20979 2.65119,2.22627c1.3529,2.51724 1.233,6.64534 1.81653,9.37328c0.33074,1.54616 1.17942,2.9517 1.5,4.5c0.75404,3.64178 0.03228,8.18219 0.03228,11.90046c0,3.9513 0.6031,8.50655 -0.03228,12.40046c-0.32821,2.01143 -0.86247,3.92895 -1.57997,5.76174c2.25269,0.8222 1.48396,3.12837 1.48396,3.12837c-1.27564,3.68286 -0.87171,7.31848 -0.87171,11.20943c0,5.84048 0.71794,10.6212 1.92679,16.38711c0.32157,1.5338 1.17803,6.17671 2.17514,7.75942c1.78036,2.82597 5.02611,5.74622 7.26088,8.18616c3.71159,4.05232 5.83065,8.11234 10.38428,11.3791c0.49271,0.66685 1.06688,1.28406 1.69937,1.83368c0.16935,-0.02947 0.35343,-0.04548 0.55353,-0.04548c2.5,0 2.5,2.5 2.5,2.5l-3.78624,3.14373c-1.67126,-1.03422 -3.27123,-2.29108 -4.46086,-3.85553c-4.63803,-3.29805 -6.85789,-7.52483 -10.61572,-11.6209c-1.79781,-1.95963 -3.45047,-4.0489 -5.10769,-6.12877c-0.78093,-0.98009 -1.98346,-1.61241 -2.63142,-2.68507c-1.54625,-2.55973 -2.26107,-6.5837 -2.8637,-9.43477c-1.54392,-7.3044 -3.07046,-15.92443 -2.22783,-23.79923c-0.09441,0.12202 -0.18968,0.24363 -0.28582,0.36482c-6.39498,2.7648 -13.29696,4.39469 -19.17333,8.12155c-12.24394,7.76524 -15.79326,23.7455 -15.87967,37.29462l-1,3v2.5l-1,3l0.03228,2.09954h-5l0.03228,-2.90046l1,-3v-2.5l1,-3c-0.10605,-15.00383 4.80927,-32.20956 18.12033,-40.70538c5.7157,-3.64806 12.4433,-5.65972 18.82667,-7.87845c4.77989,-7.12706 4.52072,-14.21699 4.52072,-22.51571c0,-3.41938 0.77233,-7.77195 0.03228,-11.09954c-0.34325,-1.54343 -1.16814,-2.95408 -1.5,-4.5c-0.09163,-0.42684 -0.15365,-0.8947 -0.2036,-1.38551c-4.12629,0.10635 -8.0405,0.75019 -12.17334,0.98022c-4.68228,0.26061 -9.46344,0.00483 -14.15534,0.00483c-5.5,0 -11,0 -16.5,0c-2.00913,0 -4.05241,-0.41484 -6.02723,-0.04511c-2.55636,0.47861 -5.6227,1.81866 -7.98797,2.84297l-1.4848,0.20214c0,0 -2.5,0 -2.5,-2.5z" fill="#000000" stroke="none" stroke-width="0.5"/><path d="M229.25,132.17814c-2.5,0 -2.5,-2.5 -2.5,-2.5l0.17881,-1.42848c1.8762,-4.42744 0.80707,-10.54702 1.33648,-15.3476c0,0 0.27608,-2.48471 2.76079,-2.20863c2.48471,0.27608 2.20863,2.76079 2.20863,2.76079c-0.61908,5.5278 0.32975,11.45567 -1.66352,16.6524l0.17881,-0.42848c0,0 0,2.5 -2.5,2.5z" fill="#000000" stroke="none" stroke-width="0.5"/><path d="M245.96376,132.32186c-2.14373,-1.28624 -0.85749,-3.42997 -0.85749,-3.42997l1.42212,-2.36025c1.48986,-3.41873 3.01571,-6.819 4.40042,-10.28199c0,0 0.92848,-2.32119 3.24967,-1.39272c2.32119,0.92848 1.39272,3.24967 1.39272,3.24967c-1.44496,3.61119 -3.03603,7.15695 -4.59958,10.71801l-1.57788,2.63975c0,0 -1.28624,2.14373 -3.42997,0.85749z" fill="#000000" stroke="none" stroke-width="0.5"/><path d="M253.75,142.17814c0,2.5 -2.5,2.5 -2.5,2.5h-2.5c-2.49245,0 -4.95181,-0.19556 -7.39737,0.42628c-2.07953,0.52877 -4.21411,1.27698 -6.34897,1.06155c-3.38495,-0.34157 -5.71751,-2.15067 -8.5399,-3.8441c0,0 -2.14373,-1.28624 -0.85749,-3.42997c1.28624,-2.14373 3.42997,-0.85749 3.42997,-0.85749c1.54474,0.92685 2.95324,2.11696 4.61525,2.81193c2.39587,1.00182 4.20082,-0.0299 6.49588,-0.59448c2.88727,-0.71026 5.66959,-0.57372 8.60263,-0.57372h2.5c0,0 2.5,0 2.5,2.5z" fill="#000000" stroke="none" stroke-width="0.5"/><path d="M249.86325,158.75827c-2.08013,-1.38675 -0.69338,-3.46688 -0.69338,-3.46688l0.70842,0.67732c-0.28091,-0.87677 -0.44625,-1.79938 -0.84274,-2.6303c-0.47901,-1.00385 -1.67796,-1.72352 -1.76397,-2.83247c-0.15994,-2.06214 1.82409,-4.91988 2.83468,-6.61404c0,0 1.28624,-2.14373 3.42997,-0.85749c2.14373,1.28624 0.85749,3.42997 0.85749,3.42997c-0.46804,0.77489 -0.9164,1.56201 -1.40412,2.32467c-0.23455,0.36677 -0.85191,0.6355 -0.7612,1.0613c0.11809,0.55432 0.97161,0.66624 1.23603,1.16753c0.55409,1.05045 0.77151,2.24646 1.15726,3.3697l-1.29158,3.67732c0,0 -1.38675,2.08013 -3.46688,0.69338z" fill="#ff0000" stroke="none" stroke-width="0.5"/><path d="M244.25,128.17814c0,-1.38071 1.11929,-2.5 2.5,-2.5c1.38071,0 2.5,1.11929 2.5,2.5c0,1.38071 -1.11929,2.5 -2.5,2.5c-1.38071,0 -2.5,-1.11929 -2.5,-2.5z" fill="#ff0000" stroke="none" stroke-width="0.5"/><path d="M224.25,129.67814c0,-1.38071 1.11929,-2.5 2.5,-2.5c1.38071,0 2.5,1.11929 2.5,2.5c0,1.38071 -1.11929,2.5 -2.5,2.5c-1.38071,0 -2.5,-1.11929 -2.5,-2.5z" fill="#ff0000" stroke="none" stroke-width="0.5"/><path d="M214.86974,92.64753c0,2.5 -2.5,2.5 -2.5,2.5l0.20929,-1.07661c-2.37178,3.30416 -2.42841,7.37351 -3.92175,11.12387c-0.57312,1.43932 -1.49767,2.80365 -1.64844,4.34551c-0.25157,2.57268 -0.09654,7.75415 -1.23076,9.38488c-0.73979,1.06364 -2.69195,-0.12102 -3.8625,0.43433c-0.99627,0.47266 -1.13327,2.26984 -2.22086,2.4518c-1.62009,0.27106 -3.15407,-0.92775 -4.75753,-1.28425c-0.35415,-0.07874 -1.12972,-0.37588 -1.08828,-0.01546c0.32692,2.84391 2.43376,5.3454 2.5313,8.20637c0.00159,0.04651 0.00294,0.093 0.00407,0.1395l0.01365,-0.00136l0.45814,4.58139c0.01041,0.09264 0.01575,0.18681 0.01575,0.28222c0,1.38071 -1.11929,2.5 -2.5,2.5c-0.48518,0 -0.93808,-0.13821 -1.32147,-0.37741l-2.16004,-1.29602c-2.20461,-0.81475 0.13764,-0.15399 0.43839,1.77972c0.19973,1.2842 -0.50228,2.57658 -0.43557,3.87451c0.18488,3.5971 2.918,6.89624 2.6121,10.48508c-0.08323,0.9765 -2.08722,0.74418 -2.4234,1.66475c-0.4197,1.14927 0.9571,2.50855 0.48688,3.6381c-0.40577,0.97472 -1.79634,1.10999 -2.69451,1.66499c1.89286,3.36648 3.23716,7.53142 4.17745,11.27157c0.3855,1.53339 1.40057,3.22018 0.78733,4.67752c-0.72298,1.71814 -4.50678,1.01414 -4.84723,3.45114c-0.09677,0.6927 0.60856,1.2637 0.82983,1.9272c1.4239,4.26978 4.51273,9.98784 1.86874,14.47098c-0.39106,0.66308 -1.86116,-0.5668 -2.30867,0.05958c-0.37333,0.52254 1.41632,0.12201 1.82501,0.6174c1.39646,1.69272 2.97354,3.50257 3.35645,5.66331c0.1894,1.06876 -1.61849,1.60438 -1.8819,2.65734c-0.14015,0.56025 0.57349,1.00303 0.83775,1.51654c0.74152,1.44096 1.46836,2.88958 2.17911,4.34597c0.87626,1.79554 3.85416,8.12941 3.92544,9.22954c0.04692,0.7241 -1.1143,1.04107 -1.61146,1.58342l2.11282,3.16923c0.27681,0.40239 0.43883,0.88987 0.43883,1.41519c0,1.38071 -1.11929,2.5 -2.5,2.5c-0.29691,0 -0.58173,-0.05176 -0.84593,-0.14675l-0.77548,-0.25849c0.84849,2.34671 1.15001,6.20444 1.56221,8.22408c0.85376,4.18318 1.58356,8.31838 3.28004,12.23212c0,0 0.9848,2.29786 -1.31306,3.28266c-2.29786,0.9848 -3.28266,-1.31306 -3.28266,-1.31306c-2.41969,-5.70196 -3.49854,-12.07947 -4.47066,-18.19606c-0.28542,-1.79588 -1.17301,-3.62935 -0.76488,-5.40138c0.28555,-1.23978 1.24066,-2.17911 2.11941,-3.15271l-0.35802,-0.53702l0.44925,-0.2995c-0.4091,-0.32163 -0.73202,-0.69841 -0.86677,-1.19564c-0.27116,-1.00061 1.8695,-1.45533 1.86081,-2.49199c-0.01033,-1.23235 -1.32667,-2.08012 -1.90826,-3.16665c-1.68629,-3.15039 -5.38431,-8.48964 -4.994,-12.19934c0.09299,-0.88381 1.92163,-1.07587 1.80998,-1.95751c-0.14539,-1.14801 -1.74261,-1.56199 -2.37817,-2.52901c-1.03683,-1.57757 -2.76833,-3.15522 -2.59305,-5.03484c0.11422,-1.2248 2.42053,-0.85938 3.22916,-1.78636c1.13686,-1.30326 -0.81044,-3.36713 -1.3608,-5.00666c-0.03737,-0.11133 -2.57223,-8.39206 -2.40142,-9.05319c0.48686,-1.88442 1.85159,-3.51154 3.28735,-4.82557c0.4963,-0.45422 1.52494,0.42759 2.0181,-0.03003c0.33331,-0.30929 -0.86484,-0.44896 -1.05861,-0.86031c-0.71026,-1.50775 -1.05417,-3.16225 -1.58114,-4.74342c-1.07007,-3.21076 -1.91993,-6.50262 -2.54815,-9.82819c0.94777,-0.67563 2.39533,-0.95262 2.84331,-2.0269c0.4838,-1.16016 -0.86389,-2.56372 -0.43609,-3.74567c0.27838,-0.76914 2.12322,-0.28905 2.19145,-1.10416c0.10168,-1.21469 -1.44966,-2.00686 -1.83419,-3.16356c-0.97403,-2.92991 -0.59101,-6.15545 -0.60413,-9.243c-0.00752,-1.76783 -1.68197,-3.98456 -0.48084,-5.28171c1.31619,-1.42141 3.60301,-1.14669 5.63398,-1.31905l-0.06969,-0.69686l0.30261,-0.03026c-0.62336,-1.4371 -1.00994,-3.00122 -1.29463,-4.52826c-0.40123,-2.15216 -1.99533,-4.4935 -1.07382,-6.47935c3.56652,-7.68589 5.3838,-0.82163 8.92172,-1.29971c0.8641,-0.11677 0.66849,-1.82212 1.47103,-2.16305c0.80821,-0.34334 2.0797,1.14295 2.59829,0.43433c0.66042,-0.90241 -0.43248,-2.20232 -0.487,-3.31925c-0.04862,-0.99606 0.05759,-1.99657 0.17921,-2.98637c0.25027,-2.03675 1.2782,-3.90312 2.04345,-5.80716c1.65523,-4.11845 1.85693,-8.20428 4.38498,-11.9504l3.90117,-1.07661c0,0 2.5,0 2.5,2.5z" fill="#ff1515" stroke="none" stroke-width="0.5"/><path d="M284.89421,92.42324c0.29447,-0.6573 0.91759,-1.35274 2.23615,-1.35274c2.5,0 2.5,2.5 2.5,2.5l-1.25965,2.63209c-1.04356,0.59575 -3.0794,2.27457 -4.8818,3.20104c0.60884,-0.01963 1.21958,-0.01756 1.8275,-0.02619c1.15591,-0.0164 2.31131,0.05842 3.46695,0.08854c3.88928,0.10137 12.20768,-0.85147 14.46125,3.67057c0.63581,1.27581 -0.07054,2.85659 -0.27213,4.26773c-0.4497,3.14788 -1.74854,6.21419 -3.47674,8.88341c-0.66552,1.02791 -1.88173,1.85128 -2.0208,3.0679c-0.10999,0.96227 1.54421,1.60411 1.37769,2.55823c-0.20656,1.18355 -1.47753,1.90016 -2.30743,2.76891c-0.63558,0.66533 1.51924,-1.41093 2.43309,-1.30371c0.15242,0.01788 0.30381,0.04028 0.45428,0.06671l0.00649,-0.05195l3.65898,0.45737c1.25027,0.13791 2.22282,1.19778 2.22282,2.48481c0,0.68646 -0.27668,1.30831 -0.7246,1.7601l-3.03642,3.06492l-0.03344,-0.03313l-0.10745,0.16478c-4.59967,3.40067 -8.88968,6.99334 -12.5308,11.42878c3.63088,-0.87521 8.15578,0.4763 11.69687,1.47741c1.92451,0.54408 4.44647,0.36628 5.67638,1.94333c3.78721,4.85615 -1.81663,4.57672 -1.46891,8.23153c0.08242,0.86627 1.72626,0.98403 1.84594,1.84594c0.21845,1.57329 -1.46088,5.27531 -2.0787,6.91447c-1.19935,3.18204 -2.7157,7.19267 -3.47487,10.51179c-0.40666,1.77792 0.03654,3.73331 -0.61489,5.43684c-0.65043,1.70092 -4.67337,4.27077 -5.88722,5.12731c-0.6855,0.48372 -1.32176,1.05744 -2.02336,1.51458c0.50965,-0.01199 0.95516,0.08093 1.18168,0.48343c2.44043,4.33625 -1.01151,9.73558 -2.87035,13.41758c-0.44293,0.5842 -1.28534,1.02076 -1.32879,1.7526c-0.03132,0.52766 0.76082,-0.83793 1.28029,-0.93568c1.2094,-0.22759 2.46252,-0.05573 3.69188,0c4.42368,0.20053 5.84382,-0.59683 7.07602,4.82996c0.99494,4.38189 -1.77993,8.03287 -2.26882,12.00986c-0.09647,0.78477 0.68415,1.43867 0.86698,2.20793c0.20374,0.85729 0.12001,1.76231 0.28243,2.62838c0.89571,4.77622 2.17356,9.69992 2.07277,14.62012c-0.16806,8.20351 -3.04515,15.21547 -6.19299,22.56678c0,0 -0.9848,2.29786 -3.28266,1.31306c-2.29786,-0.9848 -1.31306,-3.28266 -1.31306,-3.28266c2.90098,-6.76334 5.63482,-13.13642 5.78976,-20.6996c0.1072,-5.23261 -1.16581,-11.01988 -2.2438,-16.09168c-0.24053,-1.13166 -1.0847,-2.1778 -0.97896,-3.32989c0.16612,-1.81003 1.32494,-3.39644 1.75828,-5.16167c0.4714,-1.9203 0.47836,-3.92846 0.58776,-5.90274c0.02042,-0.36845 0.11294,-0.96601 -0.23762,-1.08124c-0.61817,-0.20318 -1.2668,0.33015 -1.91607,0.37337c-1.40989,0.09387 -8.23696,0.08488 -8.87238,-0.93568c-1.15831,-1.86037 0.34477,-4.36942 0.51716,-6.55413c1.60016,-3.22896 2.02458,-3.79377 3.12643,-6.99338c0.19549,-0.56766 0.87806,-1.30557 0.46401,-1.74033c-0.88895,-0.93342 -3.23281,-0.26354 -3.55984,-1.51036c-1.22514,-4.67094 5.85858,-7.73833 8.55463,-9.74793c0.41683,-0.3107 1.06258,-0.49681 1.19791,-0.99878c0.39317,-1.4584 -0.02719,-3.0454 0.29047,-4.52209c0.73603,-3.42157 2.44268,-7.83793 3.65205,-11.07851c0.33249,-0.89091 0.64202,-1.79344 1.04844,-2.65314c0.22523,-0.47643 0.998,-0.83733 0.8392,-1.33982c-0.26221,-0.82974 -1.78988,-0.97756 -1.84594,-1.84594c-0.11768,-1.82284 0.79628,-3.57278 1.38446,-5.30213c0.16012,-0.47079 1.25845,-0.96753 0.83852,-1.23387c-0.74092,-0.46993 -1.75983,0.20691 -2.63035,0.09739c-5.25722,-0.66137 -10.19,-2.07841 -15.06928,-4.06042c0.65937,-2.38069 0.82308,-4.95842 1.97812,-7.14208c1.6717,-3.16043 5.81619,-6.17685 9.23243,-8.59431c-2.05459,-0.10146 -3.82607,-1.6016 -4.10006,-4.98971c-0.09684,-1.19753 2.08332,-1.58856 2.30743,-2.76891c0.15439,-0.81313 -1.53035,-1.24074 -1.39122,-2.05663c0.56403,-3.30761 3.56643,-5.7276 4.79958,-8.84814c0.51375,-1.30006 0.42026,-2.76957 0.77853,-4.12076c0.12192,-0.45983 0.72867,-0.80079 0.65084,-1.2701c-0.04786,-0.28857 -0.58393,-0.04043 -0.87419,-0.07665c-1.44217,-0.17996 -2.87317,-0.46252 -4.32242,-0.57179c-0.0161,-0.00121 -7.4227,-0.18145 -8.2562,-0.20731c-1.84672,-0.05729 -3.87828,0.61847 -5.53957,-0.1901c-5.83981,-2.84229 -3.15122,-5.40341 -0.16678,-8.39642c0.75041,-0.75257 3.65566,-2.41293 5.34813,-3.36727z" fill="#ff1515" stroke="none" stroke-width="0.5"/></g></g></svg>