<svg version="1.1" xmlns="http://www.w3.org/2000/svg" xmlns:xlink="http://www.w3.org/1999/xlink" width="157.75092" height="156.47508" viewBox="0,0,157.75092,156.47508"><g transform="translate(-163.79361,-89.25)"><g data-paper-data="{&quot;isPaintingLayer&quot;:true}" fill-rule="nonzero" stroke-linecap="butt" stroke-linejoin="miter" stroke-miterlimit="10" stroke-dasharray="" stroke-dashoffset="0" style="mix-blend-mode: normal"><path d="M287.9231,155.7749c0,22.91981 -22.16191,41.5 -49.5,41.5c-27.3381,0 -49.5,-18.58018 -49.5,-41.5c0,-22.91982 22.1619,-41.5 49.5,-41.5c27.33809,0 49.5,18.58019 49.5,41.5z" fill="#00fff3" stroke="none" stroke-width="0"/><path d="M315.9231,160.7749c0,12.97869 -12.08831,23.5 -27,23.5c-14.91169,0 -27,-10.52131 -27,-23.5c0,-12.97869 12.08831,-23.5 27,-23.5c14.91169,0 27,10.52131 27,23.5z" fill="#00fff3" stroke="none" stroke-width="0"/><path d="M267.74067,137.2749c0,4.60237 -3.93264,8.33334 -8.78378,8.33334c-4.85115,0 -8.78378,-3.73096 -8.78378,-8.33334c0,-4.60237 3.93264,-8.33334 8.78378,-8.33334c4.85115,0 8.78378,3.73096 8.78378,8.33334z" fill="#000000" stroke="#000000" stroke-width="0.5"/><path d="M231.75643,199.60823c0,-2.07107 1.67893,-3.75 3.75,-3.75c2.07107,0 3.75,1.67893 3.75,3.75c0,2.07107 -1.67893,3.75 -3.75,3.75c-2.07107,0 -3.75,-1.67893 -3.75,-3.75z" fill="#00e4d9" stroke="none" stroke-width="0.5"/><path d="M226.1731,222.19156c3.75,0 3.75,3.75 3.75,3.75l-0.59493,1.61683c0.58056,0.98456 1.16335,1.97067 1.7585,2.95582c0.00141,-0.85755 0.00309,-1.7151 0.00309,-2.57265c0,-4.92027 -0.2801,-9.94182 0.00466,-14.85347c0.15471,-2.66856 1.01192,-5.25298 1.35276,-7.9042c0.30783,-2.39442 -0.02409,-4.82821 -0.02409,-7.24233c0,0 0,-3.75 3.75,-3.75c3.75,0 3.75,3.75 3.75,3.75c0,0.31619 0.00785,7.82911 -0.02409,8.091c-0.30441,2.49632 -1.18184,4.91779 -1.3139,7.42913c-0.06204,1.17963 -0.10219,2.36247 -0.12621,3.5475c0.35313,-1.30596 0.72041,-2.60651 1.25355,-3.84539c3.87612,-9.00707 10.28401,-13.81578 19.2748,-16.77981c3.38872,-1.11717 7.31474,-2.202 10.93985,-1.44919c3.97422,0.82531 7.38456,4.12023 10.41363,6.54585c0.61615,0.61382 4.44329,4.38044 4.71848,4.87128c1.15048,2.052 1.89185,6.50833 2.16983,8.80379c0.4122,3.40372 0.99376,8.43871 0.28415,11.87316c-1.20167,5.81598 -7.76866,11.63486 -13.58609,12.58609c-3.89047,0.63615 -8.79307,0.07658 -12.754,0.07658c-7.61105,0 -15.22219,0.00922 -22.83326,0.0001c-0.354,1.88257 -1.17805,3.5384 -3.07108,3.83626c-0.60075,0.09453 -1.18362,0.03611 -1.75,-0.13159c-0.17073,0.1548 -0.33765,0.31249 -0.49804,0.47514c-6.94813,2.00737 -13.29874,1.82008 -20.51429,1.82008c-3.33359,0 -6.79367,0.20755 -10.08733,-0.40992c-1.8844,-0.35327 -3.61404,-1.37704 -5.51335,-1.63851c-6.8497,-0.94296 -13.28371,-1.86003 -19.46031,-5.03993c-7.75895,-3.99454 -13.15375,-8.89499 -13.35567,-18.32832c0.00848,-3.32999 -0.2071,-6.19113 0.8433,-9.47069c0.54521,-1.70226 1.44528,-3.28038 2.36901,-4.81063c1.66814,-2.76344 4.1377,-5.85661 6.93431,-7.59653c4.02247,-2.50259 9.1916,-1.59199 13.57673,-0.81714c2.94596,0.52055 6.32912,1.03229 9.21205,1.70973c5.56559,1.30783 11.70005,5.67608 16.33183,9.47559c0.52525,-0.34474 1.22288,-0.57368 2.14944,-0.57368c3.75,0 3.75,3.75 3.75,3.75l-0.23813,2.01121c1.82679,1.869 3.60667,3.81643 5.38816,5.61133c0.58509,0.86964 1.14916,1.74622 1.69983,2.62786c0.02214,-0.00027 0.0444,-0.0004 0.06681,-0.0004zM206.05964,238.08543c-1.4772,-3.44679 1.9696,-4.92399 1.9696,-4.92399c0.81421,-0.34576 1.63809,-0.70687 2.46459,-1.08526c-1.63268,-0.71287 -3.25699,-1.44467 -4.87098,-2.19829c-3.1985,1.82532 -6.60188,3.33251 -9.90443,4.8138c-0.61235,0.27466 -1.2304,0.54414 -1.85375,0.80473c1.3965,0.27158 2.80145,0.53096 4.24245,0.74356c1.99894,0.29492 3.83652,1.30933 5.81998,1.69483c0.71071,0.13813 1.44265,0.2219 2.18548,0.27021c-0.01791,-0.03919 -0.03556,-0.07905 -0.05294,-0.1196zM214.7392,222.65308c-0.65979,0.77084 -1.35887,1.49504 -2.09105,2.1785c2.05483,0.9077 4.12403,1.7833 6.20345,2.63318c0.40766,-0.27888 0.80909,-0.56461 1.2032,-0.8575c-0.46991,-0.76881 -0.95052,-1.53253 -1.4484,-2.28825c-0.99009,-0.97982 -1.97845,-1.96029 -2.97227,-2.93285c-0.31804,0.50995 -0.62159,0.94756 -0.89493,1.26692zM224.88732,237.90035c-0.01788,-0.01339 -0.03516,-0.02653 -0.05183,-0.03937c-1.76777,-0.66626 -3.53247,-1.34445 -5.29176,-2.03801c-1.47068,0.84734 -2.97623,1.6348 -4.49215,2.37182c3.33438,0.00348 6.57135,-0.01595 9.83574,-0.29443zM182.88549,230.86927c3.39256,-0.20938 6.65031,-1.59948 9.74229,-3.01118c1.52332,-0.6955 3.10884,-1.38486 4.69399,-2.11689c-0.3115,-0.16604 -0.62247,-0.33313 -0.93288,-0.5013c-3.64369,-1.974 -7.1358,-4.22824 -10.6206,-6.48931c-3.91297,2.18041 -7.94364,3.64251 -12.94349,4.55057c0,0 -0.36797,0.06494 -0.89209,0.03766c1.0845,3.97183 4.54033,6.79313 8.33473,8.77639c1.02647,-1.12352 2.61805,-1.24594 2.61805,-1.24594zM208.94033,217.89671c0.24803,-0.291 0.64391,-0.96508 1.07959,-1.77007c-3.87246,-3.40795 -8.00601,-6.48602 -12.77389,-8.7906c-1.57523,-0.7614 -3.33942,-1.00975 -5.09901,-1.25784c0.17965,0.07519 0.3641,0.16602 0.55327,0.27411c3.25591,1.86052 1.39539,5.11643 1.39539,5.11643l-1.64086,2.71776c2.45897,1.55672 4.94366,3.07092 7.50249,4.4567c1.72204,0.9326 3.46161,1.83067 5.21597,2.69842c1.38089,-1.00944 2.65664,-2.14212 3.76705,-3.44493zM186.71346,209.4392l0.87039,-1.69149c0,0 0.98115,-1.71701 2.76532,-1.94478c-0.34929,-0.06205 -0.6957,-0.13121 -1.03764,-0.21168c-2.6828,-0.63133 -8.66028,-2.55465 -11.20172,-0.77184c-0.12382,0.08686 -0.24589,0.17683 -0.36625,0.26966c2.78598,1.51714 5.48783,3.18726 8.16887,4.89802c0.26533,-0.17851 0.53221,-0.36112 0.80103,-0.54789zM173.0095,211.05583c-0.37036,0.64827 -0.70372,1.31595 -0.9297,2.02309c-0.273,0.85428 -0.40723,1.82479 -0.46954,2.82114c2.48366,-0.42859 4.67716,-1.03391 6.75013,-1.84474c-1.7547,-1.05638 -3.5325,-2.06725 -5.35089,-2.99949zM251.70371,232.09706c-1.04955,-0.93675 -1.98436,-1.93209 -2.80593,-2.97699c-0.61259,0.35845 -1.22656,0.71381 -1.84245,1.06491c-0.80631,0.45966 -1.74756,1.20041 -2.74867,2.00348c2.49423,-0.00042 4.98846,0.00015 7.48269,0.0009zM253.01767,209.59161c-1.14808,2.95249 -1.50702,6.00191 -1.00319,8.84571c1.23287,-0.71716 2.46776,-1.42357 3.69916,-2.11776c0.22296,-4.14998 1.64927,-8.4302 3.444,-12.06143c-2.12571,0.76254 -4.1836,1.62942 -6.00945,2.9056c0.31185,1.24821 -0.13053,2.42788 -0.13053,2.42788zM256.64249,226.45273l0.51559,0.50385c0,0 2.60594,2.60594 0.06768,5.23443c1.31578,0.00033 2.63156,0.00055 3.94733,0.00055c2.60751,0 5.59473,0.28723 8.39003,0.25536c-3.19785,-0.90111 -6.61858,-1.81924 -9.12617,-3.95962c-1.47953,-1.26287 -2.56373,-2.70956 -3.31983,-4.27733c-0.57854,0.3432 -1.15617,0.68837 -1.73335,1.03451c0.38712,0.41981 0.80653,0.82322 1.2587,1.20826zM276.37193,226.7473c0.62551,-0.77326 1.66531,-1.47556 3.32264,-1.19233c0.82982,-2.64205 0.52935,-5.78649 0.08926,-9.49424c-0.01009,-0.08502 -0.45489,-3.10954 -0.84566,-4.81252l-0.65794,1.20723c-4.32653,3.67179 -9.43986,5.43886 -14.39874,7.94747c0.27572,0.91522 0.72417,1.86173 1.36107,2.32625c2.6227,1.9128 6.15086,2.30041 9.10462,3.31761c0.65733,0.22637 1.33822,0.51119 2.02474,0.70053zM267.35309,204.92906c-1.63815,2.60715 -2.76291,4.80337 -3.3675,7.19122c3.02214,-1.34426 6.03094,-2.68044 8.6377,-4.72001c0.05338,-0.14806 0.38625,-1.01076 1.12537,-1.70075c-1.61199,-1.41751 -3.59715,-3.10198 -5.32957,-3.41788c-0.16272,-0.02967 -0.32688,-0.05272 -0.49222,-0.06969c0.22389,1.44081 -0.57379,2.7171 -0.57379,2.7171zM272.98814,207.10797c0.13829,-0.11348 0.27537,-0.22909 0.41116,-0.34695zM244.51935,222.96161c0.27651,-0.17372 0.55373,-0.34704 0.83158,-0.51993c-0.10681,-0.33739 -0.20499,-0.67728 -0.29455,-1.01946c-0.17184,0.51357 -0.34937,1.0271 -0.53704,1.53939z" fill="#00e4d9" stroke="none" stroke-width="0.5"/><path d="M307.12793,156.56229c0.11873,0.12557 0.23041,0.26028 0.33428,0.40481c4.46384,6.21146 -4.31764,14.07283 -9.51064,15.30944c-6.32624,1.50647 -11.67991,-3.14126 -13.3924,-9.00064c-1.6933,-5.79372 1.81988,-11.09933 6.42008,-13.92358c0,0 2.76238,-1.5785 4.65226,0.71682c0.77533,-0.05736 1.58912,-0.04493 2.30858,-0.20367c1.60787,0.1156 3.37642,-0.36332 4.8236,0.34679c2.02486,0.99358 3.84824,3.73873 4.36425,6.35002z" fill="#00e4d9" stroke="none" stroke-width="0.5"/><text transform="translate(214.25,106.5) scale(0.5,0.5)" font-size="40" xml:space="preserve" fill="#000000" fill-rule="nonzero" stroke="none" stroke-width="1" stroke-linecap="butt" stroke-linejoin="miter" stroke-miterlimit="10" stroke-dasharray="" stroke-dashoffset="0" font-family="&quot;black&quot;, &quot;Microsoft YaHei&quot;, &quot;微软雅黑&quot;, STXihei, &quot;华文细黑&quot;" font-weight="normal" text-anchor="start" style="mix-blend-mode: normal"><tspan x="0" dy="0">玩家1</tspan></text><path d="M163.79361,242.04423v-130.93326h157.75092v130.93326z" fill-opacity="0.47451" fill="#00c9ab" stroke="none" stroke-width="0"/><path d="M169.27437,134.24903c-2.23607,-1.11803 -1.11803,-3.3541 -1.11803,-3.3541l1.31336,-2.59561c1.1548,-1.45077 2.17436,-3.01321 3.09025,-4.62549c0,0 1.24035,-2.17061 3.41096,-0.93026c2.17061,1.24035 0.93026,3.41096 0.93026,3.41096c-0.96508,1.68014 -2.00547,3.32969 -3.21979,4.83956l-1.0529,2.13691c0,0 -1.11803,2.23607 -3.3541,1.11803z" fill-opacity="0.47451" fill="#007563" stroke="none" stroke-width="0.5"/><path d="M177.30094,148.37269c-1.76777,-1.76777 0,-3.53553 0,-3.53553l0.32045,-0.13902c2.88273,-5.76232 6.30558,-10.90545 10.05598,-16.10286c2.70503,-3.74872 5.13197,-7.431 8.75971,-10.3658c0,0 1.95217,-1.56174 3.51391,0.39043c1.56174,1.95217 -0.39043,3.51391 -0.39043,3.51391c-3.27388,2.5828 -5.39058,6.01016 -7.80414,9.35306c-3.60194,4.98889 -6.89715,9.9127 -9.66289,15.44732l-1.25706,1.43849c0,0 -1.76777,1.76777 -3.53553,0z" fill-opacity="0.47451" fill="#007563" stroke="none" stroke-width="0.5"/><path d="M294.55503,227.55537c-1.28624,-2.14373 0.85749,-3.42997 0.85749,-3.42997l1.35998,-0.66638c1.65924,-1.90078 3.60688,-3.60775 5.7847,-4.88178c0,0 2.17061,-1.24035 3.41096,0.93026c1.24035,2.17061 -0.93026,3.41096 -0.93026,3.41096c-1.70952,0.94688 -3.21435,2.29632 -4.46911,3.79452l-2.58379,1.69989c0,0 -2.14373,1.28624 -3.42997,-0.85749z" fill-opacity="0.47451" fill="#007563" stroke="none" stroke-width="0.5"/><path d="M295.4751,237.1815c-2.23607,-1.11803 -1.11803,-3.3541 -1.11803,-3.3541l0.86268,-1.43849c4.44466,-4.44466 8.4199,-7.90278 14.05856,-10.72211c0,0 2.23607,-1.11803 3.3541,1.11803c1.11803,2.23607 -1.11803,3.3541 -1.11803,3.3541c-5.15368,2.57684 -8.68134,5.70776 -12.7591,9.78551l0.07392,0.13902c0,0 -1.11803,2.23607 -3.3541,1.11803z" fill-opacity="0.47451" fill="#007563" stroke="none" stroke-width="0.5"/><path d="M266.23153,204.97095c0.79057,2.37171 -1.58114,3.16228 -1.58114,3.16228l-2.32725,0.49754c-7.06946,-1.04457 -14.54634,-4.94243 -17.78646,-11.60893c-1.2343,-2.53956 -2.17767,-5.2385 -2.81658,-7.98889c-0.27116,-1.16726 0.15124,-2.46364 -0.27211,-3.58472c-0.92498,-2.44949 -5.22535,-4.34327 -7.07577,-5.68065c-0.07913,-0.05719 -4.93721,-3.94451 -5.99058,-4.78721c0,0 -1.61131,-1.28904 -0.73503,-2.9888c-5.68675,2.47612 -10.94385,5.81367 -14.63334,10.81855c0,0 -0.34465,0.45953 -0.9238,0.77284c0.58525,2.78432 0.39058,6.15127 0.23883,8.86566c-0.2304,4.12113 0.03428,6.33727 -2.48832,9.71004c-0.99424,1.32932 -4.61983,3.86467 -6.0829,4.87159c-4.11246,2.83027 -7.13995,5.1404 -12.18484,5.8795l-4.10156,1.49148c-0.28168,0.10996 -0.58819,0.17031 -0.90879,0.17031c-1.38071,0 -2.5,-1.11929 -2.5,-2.5c0,-0.59805 0.20999,-1.14705 0.56027,-1.57729l1.56507,-1.95634c0,0 1.56174,-1.95217 3.51391,-0.39043c0.0353,0.02824 0.06945,0.05661 0.10248,0.08509l0.24206,-0.08802l0.06932,0.19063l0.17784,-0.26629c3.03493,-0.43209 4.57587,-0.99541 7.01912,-2.74792c3.00212,-2.1534 8.85154,-4.54024 9.7206,-8.63269c0.42658,-2.00877 0.73068,-5.34179 0.62557,-8.314c-0.74307,0.26586 -1.47329,0.11982 -1.47329,0.11982c-1.44337,-0.29965 -2.94294,-0.4001 -4.33012,-0.89894c-3.71956,-1.33761 -5.90327,-4.46662 -8.92277,-6.66453c-2.05796,-1.498 -4.84686,-2.69633 -7.2426,-3.58775c-1.23236,-0.45854 -7.65643,-2.37532 -8.04528,-3.15243c-0.79076,-1.58029 0.70381,-3.46339 1.05571,-5.19508l-0.15918,0.48343c0,0 0,-2.5 2.5,-2.5c2.5,0 2.5,2.5 2.5,2.5l-0.15918,1.27219c-0.43685,0.37165 -1.56532,0.60109 -1.31055,1.11496c0.25186,0.50799 1.07966,-0.53205 1.64058,-0.44929c1.18779,0.17525 6.49524,2.29683 7.4959,2.8011c5.8488,2.9474 9.14234,7.93343 15.64383,9.31022c-0.47178,-0.99482 -1.29753,-1.86422 -1.45164,-2.94851c-0.74244,-5.22372 1.7825,-9.54973 5.80449,-12.39202c0,0 2.08013,-1.38675 3.46688,0.69338c1.38675,2.08013 -0.69338,3.46688 -0.69338,3.46688c-1.98999,1.2024 -3.67494,3.49451 -3.76904,5.98305c4.8742,-5.68634 11.38885,-9.35595 18.32383,-12.06499c-3.00476,-1.52617 -5.6361,-3.89603 -6.46929,-6.60761c-0.79131,-2.57528 1.047,-3.73791 -0.96003,-5.34399c-1.85476,-1.48424 -4.87093,-2.29364 -6.25889,-4.35766c-0.76444,-1.13678 -0.51564,-2.7071 -1.0175,-3.98176c-1.19214,-3.0279 -3.78288,-4.18571 -6.55878,-5.35386l-2.36048,-2.1076c0,0 -1.76777,-1.76777 0,-3.53553c1.76777,-1.76777 3.53553,0 3.53553,0l0.79454,1.04741c4.08967,1.77884 7.36041,3.72086 9.21632,8.05496c0.41554,0.97042 0.01821,2.21103 0.56001,3.11703c1.12851,1.8871 4.01171,1.98107 5.57243,3.52989c0.96887,0.96149 1.83442,2.12855 2.22865,3.43537c0.36977,1.22573 -0.29758,2.58793 -0.03366,3.84072c0.10757,0.51062 0.71848,0.757 1.08126,1.1321c3.39378,3.50903 6.26137,4.44064 10.75544,2.84499c0,0 1.28471,-0.42824 2.27824,0.29118c0.52376,-0.13426 1.05066,-0.25453 1.58251,-0.3517c1.03285,-0.18871 2.23313,0.36021 3.14585,-0.15877c0.41118,-0.2338 -0.58388,-0.75783 -0.76655,-1.19413c-0.44398,-1.0604 -0.71837,-2.18429 -1.10173,-3.26808c-1.28644,-3.6368 -1.71521,-6.44166 -1.72084,-10.29939l-0.60995,-1.04341c0,0 -0.92848,-2.32119 1.39272,-3.24967c2.32119,-0.92848 3.24967,1.39272 3.24967,1.39272l0.96756,2.90036c-0.00285,1.77264 -0.12751,3.9538 0.32179,5.71199c0.67621,2.64612 1.96781,3.90491 2.37692,6.74945c0.24277,1.68795 1.10436,3.79794 0.0222,5.11591c-0.81844,0.99678 -9.13998,2.97201 -10.7701,3.45168c-2.6856,0.79024 -5.43877,1.65359 -8.1444,2.67158c0.40455,0.16909 0.66337,0.37614 0.66337,0.37614c1.92148,1.53718 3.76654,3.17474 5.76188,4.61476c3.02252,2.18132 7.16731,4.09545 8.77818,7.79127c0.5772,1.32426 0.18194,2.89756 0.51665,4.30283c0.5804,2.43679 1.43873,4.81674 2.49054,7.09018c2.36454,5.11083 8.67283,8.07963 13.97788,8.80595l0.03901,-0.29121c0,0 2.37171,-0.79057 3.16228,1.58114z" fill-opacity="0.47451" fill="#007563" stroke="none" stroke-width="0.5"/></g></g></svg>