<svg version="1.1" xmlns="http://www.w3.org/2000/svg" xmlns:xlink="http://www.w3.org/1999/xlink" width="187.29103" height="72.0443" viewBox="0,0,187.29103,72.0443"><g transform="translate(-190.95897,-138.85569)"><g data-paper-data="{&quot;isPaintingLayer&quot;:true}" fill-rule="nonzero" stroke="none" stroke-linecap="butt" stroke-linejoin="miter" stroke-miterlimit="10" stroke-dasharray="" stroke-dashoffset="0" style="mix-blend-mode: normal"><text transform="translate(257.5,182) scale(0.5,0.5)" font-size="40" xml:space="preserve" fill="#000000" fill-rule="nonzero" stroke="none" stroke-width="1" stroke-linecap="butt" stroke-linejoin="miter" stroke-miterlimit="10" stroke-dasharray="" stroke-dashoffset="0" font-family="&quot;black&quot;, &quot;Microsoft YaHei&quot;, &quot;微软雅黑&quot;, STXihei, &quot;华文细黑&quot;" font-weight="normal" text-anchor="start" style="mix-blend-mode: normal"><tspan x="0" dy="0">自定义模式</tspan><tspan x="0" dy="46.15px">迁移到这里啦</tspan></text><g stroke-width="0.5"><path d="M216.66792,163.42659c0.58318,1.12296 1.22652,2.24111 1.96129,3.35237c0,0 0.00018,0.00027 0.00052,0.00081c0.46379,0.39679 1.48996,1.4375 0.80491,2.39361c-0.86837,1.21197 -2.7496,-0.13592 -2.7496,-0.13592l-0.72829,-0.53598c-1.71318,-1.47127 -3.92959,-3.06747 -4.37664,-5.11925c-0.17462,-0.80142 -0.02656,-1.51253 0.3528,-2.11715c-2.24314,-5.10588 -3.83877,-10.28114 -7.66978,-15.23771c-0.83118,-1.07538 -1.38653,-2.26539 -2.38854,-3.25886c-0.83187,-0.82478 -2.92665,0.0949 -3.40843,0.30384c-2.05916,0.89302 -2.74202,2.59547 -1.92891,4.97446c1.03438,2.17847 2.53343,4.16241 3.41492,6.35964c1.63937,4.08633 2.80183,7.95625 5.77373,11.96907l0.04004,0.21111l0.07496,-0.00273l0.91928,1.87246c0.26076,0.52321 0.28707,1.05237 0.01658,1.42989c-0.45075,0.6291 -1.56527,0.61318 -2.56026,-0.00903l-2.34954,-1.44133l0.01845,-0.0381c-0.11106,-0.05722 -0.22167,-0.11643 -0.33179,-0.17786c-0.72584,-0.4049 -1.0941,-1.22261 -1.74696,-1.74607c-0.83724,-0.67129 -1.56381,-0.03695 -2.02473,0.07862c-1.50606,0.37761 -3.61714,0.97676 -2.08435,3.12481c3.34081,4.68182 7.92959,7.85365 12.78616,11.33645c2.01346,1.44392 4.40736,3.24524 6.66825,4.15673c1.68725,0.68022 3.40766,1.09755 5.07033,1.9223c2.51849,0.80844 5.94125,1.75154 8.27329,1.75372c0.77075,0.00072 1.39662,-0.30124 2.1968,-0.22643c1.34005,0.12528 4.24908,1.06296 5.70752,1.56081c1.18609,0.40488 2.43902,1.35338 3.55131,1.40659c1.43374,0.06859 3.29055,-1.35201 4.40791,-1.81546c4.46901,-1.85361 10.78969,-4.09687 11.16529,-9.25878c0.09952,-0.93708 0.38259,-1.90287 -0.10913,-3.0297c-1.23375,-2.82727 -5.94485,-5.50858 -8.31448,-7.7224c-1.78968,-1.67201 -3.31851,-3.66423 -5.16787,-5.3784c-0.24289,-0.22514 -0.45343,-0.59928 -0.74861,-0.65922c-0.26574,-0.05396 -0.26629,0.28535 -0.40261,0.42546c-0.86947,0.89356 -2.2847,1.49422 -2.17466,2.92517l1.02492,1.50993c0.43631,0.62398 0.54606,1.30694 0.21726,1.76583c-0.47959,0.66935 -1.71063,0.6085 -2.74961,-0.13592c-0.31597,-0.22639 -0.57778,-0.48993 -0.77567,-0.76591l-1.51747,-2.04898l0.01384,-0.00412c-0.01641,-0.01482 -0.03279,-0.02967 -0.04913,-0.04455c-0.95353,-0.86821 -1.52763,-2.11136 -2.65136,-2.74838c-1.44942,-0.82164 -2.4171,1.7155 -3.05652,2.51322l0.58378,1.47542c0.18329,0.46324 0.17676,0.91711 -0.06303,1.25178c-0.47959,0.66935 -1.71063,0.6085 -2.7496,-0.13592c-0.27796,-0.19916 -0.51401,-0.42706 -0.7015,-0.6669l-1.34712,-1.66691c-1.66052,-1.41276 -2.79205,-3.34237 -4.66437,-4.69502c-0.91953,-0.66431 -2.52455,0.19562 -3.45352,0.74893zM214.76897,159.35422c2.03359,-0.61892 4.62057,-0.50846 6.54614,0.5464c0.88222,0.4833 3.51634,2.96776 4.48388,3.94165c0.74926,-1.36583 1.73672,-2.84177 3.06749,-3.03416c1.40258,-0.20277 4.19582,0.71129 6.34202,2.11473c1.1716,-1.44098 3.4044,-3.06666 5.10114,-2.75715c3.95743,0.72187 6.64987,5.35164 9.24894,7.76298c3.19529,2.96449 7.97595,5.75269 9.66788,9.56386c0.89698,2.0205 0.57505,3.01322 0.43067,4.69369c-0.67431,6.0633 -7.04693,8.74447 -12.45365,10.9906c-1.62943,0.67692 -3.82643,2.1294 -5.93471,2.02359c-2.766,-0.13882 -6.37213,-2.75141 -9.26451,-2.96784c-0.70682,-0.05289 -1.24229,0.24999 -1.93247,0.23873c-2.99316,-0.04884 -6.98561,-1.14985 -10.17298,-2.16989c-1.66398,-0.83196 -3.39071,-1.22538 -5.07887,-1.92579c-5.59073,-2.31956 -13.19008,-8.03195 -17.53112,-12.25286c-2.28074,-2.21763 -5.93025,-5.87118 -6.29573,-8.50007c-0.42989,-3.0922 3.28145,-5.5401 6.79608,-5.05579c0.61836,0.08521 1.32675,0.2773 2.02653,0.55492c-1.57091,-2.94696 -2.58099,-5.89805 -3.75207,-8.9076c-0.82891,-2.13021 -2.39146,-4.21628 -3.41492,-6.35964c-0.27339,-0.91824 -0.76773,-1.88505 -0.82018,-2.75471c-0.26684,-4.42418 6.27767,-8.73162 12.07775,-4.53225c0.78051,0.56511 2.92554,3.6289 3.51542,4.39505c3.64276,4.73136 5.29151,9.5821 7.34727,14.39156z" fill="#fff100"/><path d="M220.11527,162.64259c1.87232,1.35265 3.03473,3.29913 4.69525,4.71189l1.35717,1.67899c0.18749,0.23984 0.42631,0.4727 0.70427,0.67186c1.03897,0.74442 2.19449,0.80658 2.67407,0.13723c0.23979,-0.33468 0.24916,-0.78322 0.06587,-1.24646l-0.57976,-1.46969c0.63942,-0.79772 1.66697,-3.36017 3.11638,-2.53853c1.12373,0.63702 1.70364,1.88776 2.65717,2.75597c0.01634,0.01488 0.0328,0.02986 0.04921,0.04468l-0.01384,0.00412l1.52045,2.05429c0.19789,0.27598 0.46057,0.54142 0.77654,0.76781c1.03897,0.74442 2.19307,0.80345 2.67266,0.1341c0.32879,-0.45889 0.22075,-1.13825 -0.21556,-1.76223l-1.02314,-1.50684c-0.11004,-1.43095 1.30782,-2.02773 2.17729,-2.92129c0.13632,-0.1401 0.20138,-0.49896 0.46712,-0.445c0.29518,0.05994 0.50657,0.43525 0.74946,0.66039c1.84936,1.71417 3.38324,3.71504 5.17292,5.38705c2.36963,2.21382 7.0837,4.90446 8.31745,7.73172c0.49172,1.12683 0.20908,2.09636 0.10957,3.03344c-0.3756,5.16191 -6.7029,7.4224 -11.17192,9.27601c-1.11737,0.46345 -2.98003,1.88777 -4.41377,1.81918c-1.11228,-0.05322 -2.3683,-1.00059 -3.55439,-1.40547c-1.45844,-0.49785 -4.37533,-1.43428 -5.71538,-1.55956c-0.80018,-0.07481 -1.43048,0.22709 -2.20123,0.22637c-2.33204,-0.00218 -5.77054,-0.94893 -8.28903,-1.75737c-1.66268,-0.82475 -3.39232,-1.24652 -5.07957,-1.92674c-2.26089,-0.91149 -4.66629,-2.72106 -6.67976,-4.16498c-4.85656,-3.4828 -9.4606,-6.67473 -12.80142,-11.35655c-1.53279,-2.14805 0.57634,-2.75256 2.0824,-3.13016c0.46092,-0.11556 1.268,-0.7379 2.10525,-0.06661c0.65287,0.52346 1.02016,1.3381 1.746,1.743c0.11012,0.06143 0.22062,0.12032 0.33168,0.17754l-0.01848,0.03803l2.34835,1.43843c0.99499,0.62221 2.03339,0.63816 2.48414,0.00906c0.27049,-0.37752 0.24264,-0.91054 -0.01812,-1.43376l-0.92056,-1.87728l-0.07495,0.00278l-0.04014,-0.21165c-2.97189,-4.01281 -4.13092,-7.90067 -5.77029,-11.987c-0.88149,-2.19723 -2.37755,-4.18442 -3.41192,-6.36289c-0.81311,-2.37899 -0.12465,-4.08494 1.93451,-4.97796c0.48178,-0.20894 2.58021,-1.1299 3.41209,-0.30512c1.00201,0.99347 1.60787,2.25375 2.43905,3.32913c3.83101,4.95657 5.43531,10.12757 7.67845,15.23345c-0.37935,0.60463 -0.52275,1.31039 -0.34813,2.1118c0.44705,2.05178 2.66607,3.63287 4.37925,5.10414l0.7277,0.53279c0,0 1.79923,1.32578 2.6676,0.11381c0.68505,-0.95612 -0.32947,-2.01537 -0.79326,-2.41216c-0.00035,-0.00054 -0.00053,-0.00081 -0.00053,-0.00081c-0.73477,-1.11126 -1.37394,-2.23099 -1.95712,-3.35395c0.92897,-0.55332 2.55345,-1.41328 3.47298,-0.74897z" data-paper-data="{&quot;noHover&quot;:false,&quot;origItem&quot;:[&quot;Path&quot;,{&quot;applyMatrix&quot;:true,&quot;segments&quot;:[[[419.45113,334.63593],[0.86575,-1.98168],[2.25619,1.14635]],[[426.54474,337.80148],[-2.48901,-0.95075],[0,0]],[[426.54653,337.80218],[-0.00119,-0.00047],[1.21622,0.10484]],[[430.64333,340.75604],[0,-2.35241],[0,2.98191]],[426.01479,343.73795],[[424.20641,343.71492],[0,0],[-4.49904,-0.39634]],[[411.12784,340.49037],[3.11682,2.81496],[-1.21742,-1.09951]],[[409.23523,336.63742],[0.08756,1.42487],[-9.59442,-5.68804]],[[379.01625,320.79864],[12.00201,3.59565],[-2.60396,-0.78011]],[[371.33694,318.28279],[2.78629,0.44795],[-2.31318,-0.37189]],[[366.14955,322.74708],[0.53988,-0.90089],[-2.30748,3.85046]],[[368.80811,333.08128],[-4.0931,-2.92053],[4.21925,2.33678]],[[381.76802,339.44269],[-3.99255,-2.54538],[7.42521,4.7338]],[[405.09696,352.17605],[-9.50594,-3.06208],[0,0]],[405.40796,352.47262],[405.52665,352.38086],[[409.20233,354.35422],[0,0],[1.0334,0.54688]],[[410.8949,356.65956],[0,-0.92883],[0,1.54782]],[[406.722,359.62721],[2.34241,-0.14745],[0,0]],[401.22326,360.02082],[[401.20887,359.93738],[0,0],[-0.2472,0.03634]],[[400.46228,360.03471],[0.25059,-0.02841],[-1.65169,0.18723]],[[395.58822,359.23097],[1.67116,0.09053],[-2.14312,-0.1161]],[[392.38805,361.7173],[0.61474,-0.72479],[-2.00865,2.36824]],[[392.63932,369.22547],[-4.99411,-1.70675],[10.88502,3.71999]],[[426.63193,372.76188],[-11.95259,-0.00503],[4.95537,0.00208]],[[442.31492,371.75221],[-4.73743,1.15174],[3.53544,-0.85952]],[[452.79729,368.97122],[-3.66383,0.59593],[5.03619,-1.61935]],[[468.29055,362.18518],[-3.79389,2.71295],[1.2539,-0.89664]],[[471.59827,359.25811],[-1.38805,0.81047],[2.32455,-1.35729]],[[482.69547,355.1472],[-2.951,0.88948],[2.39994,-0.72338]],[[490.10754,353.29724],[-1.8703,1.20913],[2.41083,-1.55858]],[[495.15903,345.21115],[-1.27673,2.05503],[5.10639,-8.21928]],[[502.52606,317.1526],[5.40223,8.82958],[-0.92977,-1.63939]],[[498.81948,312.35414],[2.11201,1.25918],[-5.29914,-3.15934]],[[476.30662,309.48448],[6.43123,0.83888],[-4.85724,-0.63358]],[[461.63981,306.76027],[5.00339,0.63261],[-0.65714,-0.08309]],[[459.65485,306.56055],[0.54972,-0.2464],[-0.49488,0.22182]],[[459.49589,307.72123],[0.05843,-0.38657],[-0.37268,2.46553]],[[459.36779,315.01003],[-1.84574,-2.19821],[0,0]],[[462.79292,316.27095],[0,0],[1.43618,0.50622]],[[465.20307,318.88869],[0,-1.12904],[0,1.64686]],[[460.57453,321.87061],[2.55627,0],[-0.7774,0]],[[458.4213,321.52897],[0.6432,0.21816],[0,0]],[453.56748,319.96544],[[453.58519,319.94262],[0,0],[-0.04394,-0.00498]],[[453.45341,319.92742],[0.04391,0.00516],[-2.56156,-0.30079]],[[445.94146,318.54765],[2.56896,-0.27334],[-3.31351,0.35256]],[[443.8998,326.19396],[0.11033,-2.04174],[0,0]],[[446.56753,327.91263],[0,0],[0.8376,0.53962]],[[447.9232,330.02116],[0,-0.82343],[0,1.64686]],[[443.29466,333.00307],[2.55627,0],[-0.68389,0]],[[441.37734,332.736],[0.58419,0.17152],[0,0]],[[437.24553,331.59519],[0,0],[-4.34527,-0.36256]],[[424.19335,329.39549],[4.61959,0.01811],[-2.26876,-0.00889]]],&quot;closed&quot;:true}]}" fill="#ded300"/></g></g></g></svg>