<svg version="1.1" xmlns="http://www.w3.org/2000/svg" xmlns:xlink="http://www.w3.org/1999/xlink" width="295" height="214" viewBox="0,0,295,214"><g transform="translate(-92.5,-73)"><g data-paper-data="{&quot;isPaintingLayer&quot;:true}" fill-rule="nonzero" stroke-linecap="butt" stroke-linejoin="miter" stroke-miterlimit="10" stroke-dasharray="" stroke-dashoffset="0" style="mix-blend-mode: normal"><path d="M96,283.5v-207h288v207z" fill="#00ffff" stroke="#ff0000" stroke-width="7"/><path d="M372.91421,116.41421c-1.41421,1.41421 -2.82843,0 -2.82843,0l-1,-1c-2.62442,-2.82922 -3.12528,-6.28183 -5.58437,-9.22166c-2.63439,4.65945 -5.14462,9.41726 -8.28576,13.83532l-0.9268,1.86655c0,0 -0.89443,1.78885 -2.68328,0.89443c-1.78885,-0.89443 -0.89443,-2.68328 -0.89443,-2.68328l1.0732,-2.13345c3.22706,-4.57867 5.81435,-9.50518 8.55441,-14.3162c-1.69218,-0.96465 -3.83682,-2.00757 -4.71795,-2.57208c-2.57385,-1.64898 -3.2185,-3.18464 -6.1208,-3.08384c0,0 -2,0 -2,-2c0,-2 2,-2 2,-2c3.8893,0.0846 5.03801,1.63802 8.2792,3.71616c1.61186,1.03347 3.0812,1.83866 4.45273,2.6962c1.32443,-2.20055 2.7206,-4.35351 4.26807,-6.41236c2.19002,-2.91374 2.94083,-5.06236 6.10557,-6.78885c0,0 1.78885,-0.89443 2.68328,0.89443c0.89443,1.78885 -0.89443,2.68328 -0.89443,2.68328c-2.20133,0.93002 -3.2347,3.66084 -4.69443,5.61115c-1.53928,2.0566 -2.92433,4.20875 -4.23845,6.4081c0.77545,0.7105 1.52713,1.53226 2.26598,2.53385c0.91513,1.24055 1.92904,2.44597 2.55553,3.8545c0.26977,0.60651 -0.24346,1.39277 0.0444,1.99091c0.30573,0.63527 1.05784,0.93229 1.58675,1.39843l1,1c0,0 1.41421,1.41421 0,2.82843z" fill="#ff0000" stroke="none" stroke-width="0.5"/><text transform="translate(249.75,144.67814) scale(0.5,0.5)" font-size="40" xml:space="preserve" fill="#000000" fill-rule="nonzero" stroke="none" stroke-width="1" stroke-linecap="butt" stroke-linejoin="miter" stroke-miterlimit="10" stroke-dasharray="" stroke-dashoffset="0" font-family="&quot;black&quot;, &quot;Microsoft YaHei&quot;, &quot;微软雅黑&quot;, STXihei, &quot;华文细黑&quot;" font-weight="normal" text-anchor="start" style="mix-blend-mode: normal"><tspan x="0" dy="0">地雷</tspan></text><text transform="translate(231.75,188.17814) scale(0.5,0.5)" font-size="40" xml:space="preserve" fill="#000000" fill-rule="nonzero" stroke="none" stroke-width="1" stroke-linecap="butt" stroke-linejoin="miter" stroke-miterlimit="10" stroke-dasharray="" stroke-dashoffset="0" font-family="&quot;black&quot;, &quot;Microsoft YaHei&quot;, &quot;微软雅黑&quot;, STXihei, &quot;华文细黑&quot;" font-weight="normal" text-anchor="start" style="mix-blend-mode: normal"><tspan x="0" dy="0">轰隆隆!!</tspan></text><path d="M189.12936,188.67635c-0.49029,2.45145 -2.94174,1.96116 -2.94174,1.96116l-1.64056,-0.33491c-4.04225,-0.51242 -8.21762,-0.65397 -12.40004,-0.61866c-0.29418,1.50614 -0.52004,3.01699 -0.63901,4.53476c-0.14482,1.84768 0.30563,6.06535 -0.39129,7.73312c-0.47917,1.14669 -1.67822,1.83345 -2.51734,2.75018l-3.16844,0.50161c0,0 -2.45145,-0.49029 -1.96116,-2.94174c0.35108,-1.75541 1.70776,-2.00243 2.44986,-2.00118c1.30154,-1.81077 0.3872,-3.70846 0.6054,-6.45438c0.10659,-1.34142 0.29188,-2.67566 0.53153,-4.00482c-2.54987,0.08993 -5.08322,0.21658 -7.57117,0.33552c0,0 -2.49717,0.11891 -2.61608,-2.37826c-0.11891,-2.49717 2.37826,-2.61608 2.37826,-2.61608c2.93534,-0.13924 5.92566,-0.28305 8.93106,-0.36873c1.05523,-4.11658 2.33968,-8.20962 3.11468,-12.34299c0,0 0.46072,-2.45718 2.9179,-1.99646c2.45718,0.46072 1.99646,2.9179 1.99646,2.9179c-0.71072,3.7905 -1.87933,7.55972 -2.8847,11.34331c3.99259,0.00121 7.97172,0.1676 11.84425,0.64552l2.00096,0.3934c0,0 2.45145,0.49029 1.96116,2.94174z" fill="#000000" stroke="none" stroke-width="0.5"/><path d="M168.37926,224.78336c-22.57524,0 -40.87609,-4.85034 -40.87609,-10.83353c0,-5.98319 18.30085,-10.83353 40.87609,-10.83353c22.57524,0 40.87609,4.85034 40.87609,10.83353c0,5.98319 -18.30085,10.83353 -40.87609,10.83353z" fill="#ffc500" stroke="none" stroke-width="0"/><path d="M146.8523,210.39935c0,-1.38071 1.11929,-2.5 2.5,-2.5c1.38071,0 2.5,1.11929 2.5,2.5c0,1.38071 -1.11929,2.5 -2.5,2.5c-1.38071,0 -2.5,-1.11929 -2.5,-2.5z" fill="#ff0000" stroke="none" stroke-width="0.5"/><path d="M178.8977,211.67388c0,-1.38071 1.11929,-2.5 2.5,-2.5c1.38071,0 2.5,1.11929 2.5,2.5c0,1.38071 -1.11929,2.5 -2.5,2.5c-1.38071,0 -2.5,-1.11929 -2.5,-2.5z" fill="#ff0000" stroke="none" stroke-width="0.5"/></g></g></svg>