<svg version="1.1" xmlns="http://www.w3.org/2000/svg" xmlns:xlink="http://www.w3.org/1999/xlink" width="157.15729" height="287.17071" viewBox="0,0,157.15729,287.17071"><g transform="translate(-155.36043,8.88015)"><g data-paper-data="{&quot;isPaintingLayer&quot;:true}" fill-rule="nonzero" stroke-linecap="butt" stroke-linejoin="miter" stroke-miterlimit="10" stroke-dasharray="" stroke-dashoffset="0" style="mix-blend-mode: normal"><path d="M310.01772,50.84148c0,31.60263 -25.93529,57.22163 -57.92807,57.22163c-31.99278,0 -57.92807,-25.619 -57.92807,-57.22163c0,-31.60263 25.93529,-57.22163 57.92807,-57.22163c31.99278,0 57.92807,25.619 57.92807,57.22163z" fill="none" stroke="#000000" stroke-width="5"/><path d="M166.61043,124.31124c0,-3.4039 3.22734,-3.52754 3.4618,-3.53203c3.58103,-1.54809 8.11349,-3.49732 11.86706,-4.17507c0.47153,-0.08514 9.24211,-0.06374 9.69279,-0.06374c7.6455,0 15.291,0 22.93651,0c6.3784,0 12.87994,0.36554 19.24534,0.00682c3.62601,-0.20434 7.14424,-0.62924 10.68755,-0.96121c-21.00511,-6.57687 -43.86291,-14.81153 -65.73282,-10.36583l-4.51271,0.01719c0,0 -3.47523,0 -3.47523,-3.5322c0,-3.5322 3.47523,-3.5322 3.47523,-3.5322l3.82784,0.01719c22.83067,-4.64098 46.54821,3.88357 68.44405,10.66169c0.10031,-0.46785 0.31986,-0.96926 0.70792,-1.49515c2.08514,-2.82576 4.86532,-0.70644 4.86532,-0.70644c1.22847,1.04848 2.92598,1.70929 3.6854,3.14545c1.88066,3.55656 1.71398,9.38907 2.52514,13.24332c0.45977,2.18454 1.63951,4.1704 2.08514,6.35796c1.04819,5.1454 0.04487,11.56045 0.04487,16.81392c0,5.58271 0.83836,12.01873 -0.04487,17.52036c-0.45625,2.84191 -1.19891,5.55113 -2.19631,8.14065c3.13145,1.16167 2.06285,4.42001 2.06285,4.42001c-1.77326,5.20344 -1.21176,10.34013 -1.21176,15.83758c0,8.2519 0.998,15.00648 2.67841,23.15302c0.44701,2.16707 1.63757,8.72695 3.02365,10.96313c2.47486,3.99276 6.98675,8.11872 10.09329,11.56606c5.15946,5.72544 8.10514,11.46176 14.4351,16.0773c0.68491,0.94218 1.48306,1.81422 2.36228,2.59077c0.23541,-0.04164 0.4913,-0.06426 0.76945,-0.06426c3.47523,0 3.47523,3.5322 3.47523,3.5322l-5.26322,4.44171c-2.3232,-1.46123 -4.54731,-3.23702 -6.201,-5.4474c-6.44728,-4.65975 -9.5331,-10.63168 -14.75682,-16.41893c-2.49912,-2.76872 -4.79647,-5.72061 -7.10016,-8.65921c-1.08556,-1.38475 -2.75719,-2.27814 -3.65792,-3.79368c-2.14943,-3.61659 -3.14309,-9.30198 -3.9808,-13.3302c-2.14619,-10.32024 -4.26822,-22.4993 -3.09689,-33.62545c-0.13124,0.1724 -0.26367,0.34422 -0.39732,0.51545c-8.88961,3.90633 -18.48399,6.20917 -26.65268,11.47477c-17.0202,10.97135 -21.95407,33.54954 -22.0742,52.69281l-1.39009,4.23864v3.5322l-1.39009,4.23864l0.04487,2.9664h-6.95045l0.04487,-4.098l1.39009,-4.23864v-3.5322l1.39009,-4.23864c-0.14742,-21.19861 6.68532,-45.50823 25.18892,-57.51181c7.94534,-5.15427 17.29732,-7.9965 26.17079,-11.1313c6.64449,-10.06968 6.28422,-20.0869 6.28422,-31.81199c0,-4.83117 1.0736,-10.98083 0.04487,-15.68232c-0.47714,-2.18068 -1.62382,-4.17376 -2.08514,-6.35796c-0.12737,-0.60307 -0.21359,-1.2641 -0.28303,-1.95756c-5.73592,0.15026 -11.17702,1.05993 -16.92206,1.38493c-6.5088,0.36821 -13.15504,0.00682 -19.67722,0.00682c-7.6455,0 -15.291,0 -22.93651,0c-2.79287,0 -5.63322,-0.58612 -8.37841,-0.06374c-3.55358,0.67622 -7.81606,2.56955 -11.10401,4.01677l-2.06401,0.2856c0,0 -3.47523,0 -3.47523,-3.5322z" fill="#000000" stroke="#000000" stroke-width="22.5"/><path d="M223.12562,61.43809c-3.5322,0 -3.5322,-3.5322 -3.5322,-3.5322l0.25264,-2.01827c2.65084,-6.25544 1.14029,-14.90167 1.88829,-21.68431c0,0 0.39007,-3.5106 3.90066,-3.12053c3.5106,0.39007 3.12053,3.90066 3.12053,3.90066c-0.87469,7.81012 0.4659,16.18548 -2.35035,23.52784l0.25264,-0.60539c0,0 0,3.5322 -3.5322,3.5322z" fill="#000000" stroke="none" stroke-width="0.5"/><path d="M246.74015,61.64115c-3.02883,-1.8173 -1.21153,-4.84614 -1.21153,-4.84614l2.00928,-3.33475c2.10499,-4.83025 4.26084,-9.63443 6.21726,-14.52722c0,0 1.31183,-3.27956 4.59139,-1.96775c3.27956,1.31183 1.96775,4.59139 1.96775,4.59139c-2.04155,5.10218 -4.28955,10.11191 -6.49865,15.14326l-2.22935,3.72965c0,0 -1.8173,3.02883 -4.84614,1.21153z" fill="#000000" stroke="none" stroke-width="0.5"/><path d="M257.74117,75.56688c0,3.5322 -3.5322,3.5322 -3.5322,3.5322h-3.5322c-3.52153,0 -6.99631,-0.2763 -10.45159,0.60228c-2.93813,0.74709 -5.95403,1.80422 -8.97033,1.49984c-4.78253,-0.4826 -8.07815,-3.03864 -12.06585,-5.43125c0,0 -3.02883,-1.8173 -1.21153,-4.84614c1.8173,-3.02883 4.84614,-1.21153 4.84614,-1.21153c2.18253,1.30953 4.17257,2.99101 6.52079,3.97292c3.38508,1.41545 5.93525,-0.04225 9.1779,-0.83993c4.07937,-1.00351 8.01045,-0.8106 12.15448,-0.8106h3.5322c0,0 3.5322,0 3.5322,3.5322z" fill="#000000" stroke="none" stroke-width="0.5"/><path d="M252.24966,98.99261c-2.93897,-1.95931 -0.97966,-4.89828 -0.97966,-4.89828l1.00091,0.95697c-0.39689,-1.23877 -0.6305,-2.54231 -1.19069,-3.7163c-0.67678,-1.41832 -2.37076,-2.43513 -2.49228,-4.00194c-0.22598,-2.91356 2.57722,-6.9512 4.00506,-9.34484c0,0 1.8173,-3.02883 4.84614,-1.21153c3.02883,1.8173 1.21153,4.84614 1.21153,4.84614c-0.66128,1.09483 -1.29476,2.20693 -1.98385,3.28448c-0.33139,0.5182 -1.20365,0.89789 -1.07548,1.49949c0.16685,0.78319 1.37277,0.94132 1.74636,1.64958c0.78286,1.48416 1.09005,3.17398 1.63507,4.76098l-1.82485,5.19561c0,0 -1.95931,2.93897 -4.89828,0.97966z" fill="#ff0000" stroke="none" stroke-width="0.5"/><path d="M244.31881,55.78657c0,-1.95078 1.58142,-3.5322 3.5322,-3.5322c1.95078,0 3.5322,1.58142 3.5322,3.5322c0,1.95078 -1.58142,3.5322 -3.5322,3.5322c-1.95078,0 -3.5322,-1.58142 -3.5322,-3.5322z" fill="#ff0000" stroke="none" stroke-width="0.5"/><path d="M216.06122,57.90589c0,-1.95078 1.58142,-3.5322 3.5322,-3.5322c1.95078,0 3.5322,1.58142 3.5322,3.5322c0,1.95078 -1.58142,3.5322 -3.5322,3.5322c-1.95078,0 -3.5322,-1.58142 -3.5322,-3.5322z" fill="#ff0000" stroke="none" stroke-width="0.5"/><path d="M222.09666,243.84667c-3.5322,0 -3.5322,-3.5322 -3.5322,-3.5322v-3.26012c0,-4.79274 -0.2328,-9.42635 0.65768,-14.14478c-0.23936,-0.93567 -0.1734,-2.00945 -0.71808,-2.80701c-1.48966,-2.18122 -5.14218,-2.26712 -6.49936,-4.53314c-1.07941,-1.80224 -1.29612,-4.076 -1.25369,-6.17633c0.09868,-4.88423 3.86181,-10.5917 6.57231,-14.24275c0.53701,-0.72335 0.99272,-1.54446 1.5668,-2.23884c-2.02343,-0.39674 -2.64891,-3.53949 -2.93115,-6.57941c-0.25505,-2.7472 1.98032,-6.31166 1.95348,-9.26389c-0.03323,-3.65282 -1.49268,-7.44766 -0.45291,-10.94954c0.5259,-1.7712 2.05314,-3.09168 3.30925,-4.44664c0.69184,-0.7463 2.28946,-0.78945 2.47278,-1.79043c0.26216,-1.43147 -1.49767,-2.68871 -1.38668,-4.13974c0.09487,-1.24037 1.76354,-1.95352 1.94688,-3.18394c0.34065,-2.28617 -1.75008,-4.28334 -2.46289,-6.48208c-8.77907,-4.88577 -8.64023,-17.24567 -4.31564,-25.43841c0.73504,-1.39249 2.31328,-2.25414 2.93636,-3.70018c0.75465,-1.75142 -1.84273,-3.35813 -2.48161,-5.155c-0.43193,-1.21482 -1.60988,-9.5453 -1.28832,-10.30701c0.75127,-1.77964 3.89884,-4.08483 6.62498,-5.4048c-1.28473,-0.71181 -2.36156,-1.63667 -2.65757,-2.01732c-5.3231,-6.84529 -3.19424,-10.43121 0.08438,-17.02007c0,0 1.57964,-3.1593 4.73895,-1.57964c3.1593,1.57964 1.57964,4.73894 1.57964,4.73894c-1.67758,3.33718 -4.29041,5.70405 -1.21967,9.06087c2.70771,2.95997 8.49873,-0.78296 9.39367,5.90813c0.56377,4.21506 -7.41142,6.78911 -10.16985,7.99806c-0.60005,0.26298 -1.57536,0.21702 -1.77665,0.84047c-0.2286,0.70805 0.65876,1.34683 0.83722,2.06913c0.91002,3.68319 4.18556,8.54125 3.21713,12.46192c-0.51993,2.10491 -2.55515,3.51955 -3.58387,5.42814c-1.81448,3.36638 -2.64945,9.22213 -1.69283,12.96416c0.5967,2.33409 3.54729,3.57781 5.20145,4.63098c0.64597,1.58189 4.18098,9.50383 4.05735,11.77456c-0.07018,1.28879 -1.85041,2.05072 -1.96527,3.3363c-0.15236,1.70518 1.69943,3.3447 1.22141,4.98858c-0.84151,2.89382 -5.18143,3.89052 -5.95438,6.8034c-0.69776,2.62954 0.86919,6.03753 0.85115,8.61116c-0.02738,3.90391 -1.20266,5.2739 -1.95868,8.99277c-0.09058,0.44558 -0.31081,1.11244 0.06906,1.36233c1.43954,0.94693 4.33319,0.20494 4.82431,1.85652c0.67707,2.27687 -1.21943,4.62344 -2.2628,6.75744c-1.96079,4.01036 -5.20156,6.41709 -6.72137,10.83693c-0.52484,1.52633 -2.15918,3.51626 -1.08327,4.7194c1.77623,1.98625 5.14479,2.32571 6.54111,4.59518c1.15247,1.87313 1.26002,4.21422 1.89001,6.32132c-0.73369,4.90676 -0.64638,9.58582 -0.64638,14.54424v3.26012c0,0 0,3.5322 -3.5322,3.5322z" fill="#006bff" stroke="none" stroke-width="0.5"/><path d="M232.42118,244.39082c-3.5322,0 -3.5322,-3.5322 -3.5322,-3.5322v-3.26011c0,-4.79274 -0.2328,-9.42635 0.65768,-14.14479c-0.23936,-0.93567 -0.1734,-2.00945 -0.71808,-2.80701c-1.48966,-2.18122 -5.14218,-2.26712 -6.49936,-4.53314c-1.07941,-1.80224 -1.29612,-4.076 -1.25369,-6.17633c0.09868,-4.88423 3.86181,-10.5917 6.57231,-14.24275c0.53701,-0.72335 0.99272,-1.54445 1.5668,-2.23884c-2.02343,-0.39674 -2.64891,-3.53949 -2.93115,-6.57941c-0.25505,-2.7472 1.98032,-6.31166 1.95348,-9.26389c-0.03323,-3.65282 -1.49268,-7.44766 -0.45291,-10.94954c0.5259,-1.7712 2.05314,-3.09166 3.30925,-4.44663c0.69184,-0.7463 2.28946,-0.78945 2.47278,-1.79044c0.26216,-1.43147 -1.49767,-2.68871 -1.38668,-4.13974c0.09487,-1.24037 1.76354,-1.95352 1.94688,-3.18394c0.34065,-2.28617 -1.75008,-4.28334 -2.46289,-6.48208c-8.77907,-4.88577 -8.64024,-17.24567 -4.31566,-25.43841c0.73504,-1.39249 2.31328,-2.25414 2.93636,-3.70018c0.75465,-1.75142 -1.84273,-3.35813 -2.48162,-5.155c-0.43193,-1.21482 -1.60988,-9.5453 -1.28832,-10.307c0.75127,-1.77964 3.89886,-4.08483 6.62498,-5.40482c-1.28473,-0.71181 -2.36156,-1.63667 -2.65757,-2.01732c-5.3231,-6.84528 -3.19424,-10.43121 0.08438,-17.02007c0,0 1.57964,-3.1593 4.73895,-1.57964c3.1593,1.57964 1.57964,4.73895 1.57964,4.73895c-1.67758,3.33718 -4.29041,5.70405 -1.21967,9.06087c2.70771,2.95997 8.49874,-0.78296 9.39367,5.90813c0.56377,4.21506 -7.41142,6.78911 -10.16985,7.99806c-0.60005,0.26298 -1.57536,0.21702 -1.77665,0.84047c-0.2286,0.70805 0.65876,1.34683 0.83723,2.06913c0.91002,3.68319 4.18554,8.54127 3.21713,12.46192c-0.51993,2.10491 -2.55515,3.51955 -3.58387,5.42814c-1.81448,3.36638 -2.64945,9.22213 -1.69283,12.96417c0.5967,2.33409 3.54729,3.57779 5.20145,4.63097c0.64597,1.58189 4.18098,9.50383 4.05735,11.77456c-0.07018,1.28879 -1.85041,2.05072 -1.96527,3.3363c-0.15236,1.70518 1.69944,3.3447 1.22141,4.98858c-0.84151,2.89382 -5.18144,3.89052 -5.9544,6.8034c-0.69776,2.62954 0.86919,6.03753 0.85115,8.61116c-0.02738,3.90391 -1.20266,5.2739 -1.95868,8.99278c-0.09058,0.44558 -0.31081,1.11244 0.06908,1.36233c1.43954,0.94693 4.33317,0.20492 4.82431,1.85652c0.67707,2.27687 -1.21943,4.62345 -2.2628,6.75745c-1.96079,4.01036 -5.20156,6.41709 -6.72137,10.83693c-0.52484,1.52633 -2.15918,3.51626 -1.08325,4.7194c1.77623,1.98625 5.14479,2.32571 6.54111,4.59518c1.15247,1.87313 1.26002,4.21421 1.89001,6.32132c-0.73369,4.90676 -0.64638,9.58584 -0.64638,14.54424v3.26011c0,0 0,3.5322 -3.5322,3.5322z" fill="#00ff46" stroke="none" stroke-width="0.5"/><path d="M242.7457,241.67487c-3.5322,0 -3.5322,-3.5322 -3.5322,-3.5322v-3.26011c0,-4.79274 -0.2328,-9.42635 0.65768,-14.14478c-0.23936,-0.93567 -0.1734,-2.00945 -0.71808,-2.80701c-1.48966,-2.18122 -5.14218,-2.26712 -6.49936,-4.53314c-1.07941,-1.80224 -1.29612,-4.076 -1.25369,-6.17633c0.09868,-4.88423 3.86181,-10.5917 6.57231,-14.24275c0.53701,-0.72335 0.99272,-1.54445 1.5668,-2.23884c-2.02343,-0.39674 -2.64891,-3.53949 -2.93115,-6.57941c-0.25505,-2.7472 1.98032,-6.31166 1.95346,-9.26389c-0.03323,-3.65282 -1.49268,-7.44766 -0.45291,-10.94954c0.5259,-1.7712 2.05314,-3.09166 3.30925,-4.44663c0.69184,-0.7463 2.28946,-0.78945 2.47279,-1.79044c0.26216,-1.43147 -1.49767,-2.68871 -1.38668,-4.13974c0.09487,-1.24037 1.76354,-1.95352 1.94686,-3.18394c0.34065,-2.28617 -1.75008,-4.28334 -2.46289,-6.48208c-8.77907,-4.88577 -8.64024,-17.24567 -4.31566,-25.43841c0.73504,-1.39249 2.31328,-2.25414 2.93636,-3.70018c0.75465,-1.75142 -1.84273,-3.35813 -2.48162,-5.155c-0.43193,-1.21482 -1.60988,-9.5453 -1.28832,-10.307c0.75127,-1.77964 3.89884,-4.08483 6.62498,-5.40482c-1.28473,-0.71181 -2.36156,-1.63667 -2.65757,-2.01732c-5.3231,-6.84528 -3.19424,-10.43121 0.08438,-17.02007c0,0 1.57964,-3.1593 4.73895,-1.57964c3.1593,1.57964 1.57964,4.73895 1.57964,4.73895c-1.67758,3.33718 -4.29041,5.70405 -1.21967,9.06087c2.70771,2.95997 8.49873,-0.78296 9.39367,5.90813c0.56377,4.21506 -7.41142,6.78911 -10.16985,7.99806c-0.60005,0.26298 -1.57536,0.21702 -1.77665,0.84047c-0.2286,0.70805 0.65876,1.34683 0.83723,2.06913c0.91002,3.68319 4.18556,8.54127 3.21713,12.46192c-0.51993,2.10491 -2.55515,3.51955 -3.58387,5.42814c-1.81448,3.36638 -2.64945,9.22213 -1.69283,12.96417c0.5967,2.33409 3.54729,3.57779 5.20145,4.63097c0.64597,1.58189 4.18097,9.50383 4.05734,11.77456c-0.07018,1.28879 -1.85039,2.05072 -1.96527,3.3363c-0.15236,1.70518 1.69943,3.3447 1.22141,4.98858c-0.84151,2.89382 -5.18143,3.89052 -5.95438,6.8034c-0.69776,2.62954 0.86919,6.03753 0.85113,8.61116c-0.02738,3.90391 -1.20266,5.2739 -1.95868,8.99278c-0.09058,0.44558 -0.31081,1.11244 0.06906,1.36233c1.43954,0.94693 4.33319,0.20492 4.82431,1.85652c0.67707,2.27687 -1.21943,4.62345 -2.2628,6.75745c-1.96079,4.01036 -5.20156,6.41709 -6.72137,10.83693c-0.52484,1.52633 -2.15918,3.51626 -1.08327,4.7194c1.77623,1.98625 5.14479,2.32571 6.54111,4.59518c1.15247,1.87313 1.26002,4.21421 1.89001,6.32132c-0.73369,4.90676 -0.64636,9.58582 -0.64636,14.54424v3.26011c0,0 0,3.5322 -3.5322,3.5322z" fill="#ff0000" stroke="none" stroke-width="0.5"/><path d="M255.6783,244.82714c-3.5322,0 -3.5322,-3.5322 -3.5322,-3.5322v-3.26011c0,-4.79274 -0.2328,-9.42635 0.65768,-14.14479c-0.23936,-0.93567 -0.1734,-2.00945 -0.71808,-2.807c-1.48966,-2.18122 -5.14218,-2.26714 -6.49936,-4.53315c-1.07941,-1.80224 -1.29612,-4.076 -1.25369,-6.17633c0.09868,-4.88423 3.86181,-10.5917 6.57231,-14.24275c0.53701,-0.72335 0.99272,-1.54445 1.5668,-2.23884c-2.02343,-0.39674 -2.64891,-3.53949 -2.93113,-6.57941c-0.25505,-2.7472 1.98032,-6.31166 1.95346,-9.26389c-0.03323,-3.65282 -1.49268,-7.44766 -0.45291,-10.94954c0.5259,-1.7712 2.05314,-3.09166 3.30925,-4.44663c0.69184,-0.7463 2.28946,-0.78945 2.47279,-1.79043c0.26216,-1.43147 -1.49767,-2.68871 -1.38668,-4.13975c0.09487,-1.24037 1.76354,-1.95352 1.94686,-3.18394c0.34065,-2.28617 -1.75008,-4.28334 -2.46289,-6.48209c-8.77907,-4.88577 -8.64024,-17.24567 -4.31566,-25.43839c0.73504,-1.39249 2.31328,-2.25414 2.93636,-3.70019c0.75465,-1.75142 -1.84273,-3.35813 -2.48162,-5.155c-0.43193,-1.21482 -1.60988,-9.5453 -1.28832,-10.307c0.75127,-1.77964 3.89884,-4.08483 6.62498,-5.40482c-1.28473,-0.71181 -2.36156,-1.63667 -2.65757,-2.01732c-5.3231,-6.84528 -3.19424,-10.43121 0.08438,-17.02007c0,0 1.57964,-3.1593 4.73894,-1.57964c3.1593,1.57964 1.57964,4.73895 1.57964,4.73895c-1.67758,3.33718 -4.29041,5.70405 -1.21967,9.06087c2.70771,2.95997 8.49873,-0.78296 9.39367,5.90813c0.56377,4.21506 -7.41142,6.78911 -10.16985,7.99806c-0.60005,0.26298 -1.57536,0.21703 -1.77665,0.84048c-0.2286,0.70805 0.65876,1.34681 0.83723,2.06913c0.91002,3.68319 4.18554,8.54127 3.21713,12.46192c-0.51993,2.10491 -2.55515,3.51955 -3.58387,5.42814c-1.81448,3.36638 -2.64945,9.22213 -1.69281,12.96416c0.5967,2.33409 3.54729,3.57779 5.20145,4.63097c0.64597,1.58189 4.18097,9.50383 4.05734,11.77456c-0.07018,1.28879 -1.85039,2.05072 -1.96527,3.3363c-0.15236,1.70518 1.69943,3.3447 1.22141,4.98858c-0.84151,2.89382 -5.18143,3.89052 -5.95438,6.8034c-0.69776,2.62954 0.86919,6.03753 0.85115,8.61116c-0.02738,3.90391 -1.20266,5.2739 -1.95868,8.99278c-0.09058,0.44558 -0.31081,1.11244 0.06908,1.36233c1.43954,0.94693 4.33319,0.20492 4.82431,1.85652c0.67707,2.27687 -1.21943,4.62345 -2.26281,6.75745c-1.96079,4.01036 -5.20156,6.41709 -6.72137,10.83693c-0.52484,1.52633 -2.15918,3.51626 -1.08327,4.7194c1.77623,1.98625 5.14479,2.32571 6.54111,4.59518c1.15247,1.87313 1.26002,4.21421 1.89001,6.32132c-0.73369,4.90676 -0.64636,9.58584 -0.64636,14.54424v3.26011c0,0 0,3.5322 -3.5322,3.5322z" fill="#41ff00" stroke="none" stroke-width="0.5"/></g></g></svg>