<svg version="1.1" xmlns="http://www.w3.org/2000/svg" xmlns:xlink="http://www.w3.org/1999/xlink" width="358.60223" height="233" viewBox="0,0,358.60223,233"><defs><linearGradient x1="240" y1="63.5" x2="240" y2="296.5" gradientUnits="userSpaceOnUse" id="color-1"><stop offset="0" stop-color="#00ceff"/><stop offset="1" stop-color="#008cff"/></linearGradient><radialGradient cx="84.19271" cy="187.80729" r="5.19271" gradientUnits="userSpaceOnUse" id="color-2"><stop offset="0" stop-color="#ecff29"/><stop offset="1" stop-color="#ff9629"/></radialGradient></defs><g transform="translate(-61,-63.5)"><g data-paper-data="{&quot;isPaintingLayer&quot;:true}" fill-rule="nonzero" stroke-linecap="butt" stroke-linejoin="miter" stroke-miterlimit="10" stroke-dasharray="" stroke-dashoffset="0" style="mix-blend-mode: normal"><path d="M61,296.5v-233h358v233z" fill="url(#color-1)" stroke="none" stroke-width="0"/><text transform="translate(195.5,87) scale(0.5,0.5)" font-size="40" xml:space="preserve" fill="#000000" fill-rule="nonzero" stroke="none" stroke-width="1" stroke-linecap="butt" stroke-linejoin="miter" stroke-miterlimit="10" stroke-dasharray="" stroke-dashoffset="0" font-family="&quot;black&quot;, &quot;Microsoft YaHei&quot;, &quot;微软雅黑&quot;, STXihei, &quot;华文细黑&quot;" font-weight="normal" text-anchor="start" style="mix-blend-mode: normal"><tspan x="0" dy="0">新手教程</tspan></text><text transform="translate(84.5,116) scale(0.35554,0.35554)" font-size="40" xml:space="preserve" fill="#610000" fill-rule="nonzero" stroke="none" stroke-width="1" stroke-linecap="butt" stroke-linejoin="miter" stroke-miterlimit="10" stroke-dasharray="" stroke-dashoffset="0" font-family="&quot;black&quot;, &quot;Microsoft YaHei&quot;, &quot;微软雅黑&quot;, STXihei, &quot;华文细黑&quot;" font-weight="normal" text-anchor="start" style="mix-blend-mode: normal"><tspan x="0" dy="0">玩家1:wasd移动q攻击e技能</tspan><tspan x="0" dy="46.150000000000006px">玩家2:↕↔移动0攻击1技能</tspan><tspan x="0" dy="46.150000000000006px">玩家3:ijkl移动u攻击o技能</tspan></text><text transform="translate(92.5,171.99586) scale(0.26875,0.26875)" font-size="40" xml:space="preserve" fill="#000000" fill-rule="nonzero" stroke="none" stroke-width="1" stroke-linecap="butt" stroke-linejoin="miter" stroke-miterlimit="10" stroke-dasharray="" stroke-dashoffset="0" font-family="&quot;black&quot;, &quot;Microsoft YaHei&quot;, &quot;微软雅黑&quot;, STXihei, &quot;华文细黑&quot;" font-weight="normal" text-anchor="start" style="mix-blend-mode: normal"><tspan x="0" dy="0">游戏开始分为逃生和追捕两个阵营!</tspan><tspan x="0" dy="48px">逃生到逃离点胜利并祝福!逃生使用</tspan><tspan x="0" dy="48px">攻击或技能需要道具卡次数,追捕使</tspan><tspan x="0" dy="48px">用技能需要道具卡次数。追捕每10</tspan><tspan x="0" dy="48px">秒即可获得1次道具卡次数。双方初</tspan><tspan x="0" dy="48px">始自带1次道具卡次数!逃生者可以</tspan><tspan x="0" dy="48px">通过开宝箱(按攻击键攻击即可)或开</tspan><tspan x="0" dy="48px">保险柜两种方式!开保险柜在保险柜</tspan><tspan x="0" dy="48px">变绿(时长为)的时候迅速按下攻击</tspan><tspan x="0" dy="48px">键即可获得1次道具卡次数。</tspan></text><g stroke="none"><path d="M79,187.80729c0,-2.86786 2.32486,-5.19271 5.19271,-5.19271c2.86786,0 5.19271,2.32486 5.19271,5.19271c0,2.86786 -2.32486,5.19271 -5.19271,5.19271c-2.86786,0 -5.19271,-2.32486 -5.19271,-5.19271z" fill="url(#color-2)" stroke-width="0"/><text transform="translate(81.15078,185.04014) scale(0.30419,0.30419)" font-size="40" xml:space="preserve" fill="#ecff29" fill-rule="nonzero" stroke="none" stroke-width="1" stroke-linecap="butt" stroke-linejoin="miter" stroke-miterlimit="10" stroke-dasharray="" stroke-dashoffset="0" font-family="Curly" font-weight="normal" text-anchor="start" style="mix-blend-mode: normal"><tspan x="0" dy="0">↓</tspan></text></g><path d="M262.5,226v-34.5h20.92258v34.5z" fill="#ddcb00" stroke="#a7a7a7" stroke-width="0.5"/><path d="M267.73065,208.75c0,-2.88881 2.34184,-5.23065 5.23065,-5.23065c2.88881,0 5.23065,2.34184 5.23065,5.23065c0,2.88881 -2.34184,5.23065 -5.23065,5.23065c-2.88881,0 -5.23065,-2.34184 -5.23065,-5.23065z" fill="#4e4e4e" stroke="#a7a7a7" stroke-width="2.5"/><path d="M273.45698,206.32209c-0.53984,-0.13496 -0.40488,-0.6748 -0.40488,-0.6748l0.1309,-0.43789c0.90873,-1.57841 1.51725,-3.43816 1.63437,-5.25126c0,0 0.03702,-0.55522 0.59223,-0.51821c0.55522,0.03702 0.51821,0.59223 0.51821,0.59223c-0.13632,1.98825 -0.79222,3.99213 -1.77854,5.72939l-0.01749,0.15566c0,0 -0.13496,0.53984 -0.6748,0.40488z" fill="#646464" stroke="none" stroke-width="0.5"/><path d="M282.60645,209.9371c0,0.55645 -0.55645,0.55645 -0.55645,0.55645h-0.29677c-1.79447,0 -3.54425,-0.14839 -5.34194,-0.14839c0,0 -0.55645,0 -0.55645,-0.55645c0,-0.55645 0.55645,-0.55645 0.55645,-0.55645c1.79783,0 3.54835,0.14839 5.34194,0.14839h0.29677c0,0 0.55645,0 0.55645,0.55645z" fill="#646464" stroke="none" stroke-width="0.5"/><path d="M272.47903,220.13871c-0.55645,0 -0.55645,-0.55645 -0.55645,-0.55645l0.00276,-0.42634c0.07543,-0.74708 -0.00313,-1.50795 0.0921,-2.24889c0.15642,-1.21707 0.24339,-2.26933 0.13001,-3.50665c0,0 -0.05038,-0.55417 0.50379,-0.60454c0.55417,-0.05038 0.60454,0.50379 0.60454,0.50379c0.11776,1.30511 0.03844,2.44091 -0.13179,3.7262c-0.09738,0.73523 -0.01763,1.49781 -0.09126,2.24084l0.00276,0.3156c0,0 0,0.55645 -0.55645,0.55645z" fill="#646464" stroke="none" stroke-width="0.5"/><path d="M264.72581,208.37903c0,-0.55645 0.55645,-0.55645 0.55645,-0.55645h0.14839c1.54627,0 3.04256,0.29741 4.6,0.29677c0,0 0.55645,0 0.55645,0.55645c0,0.55645 -0.55645,0.55645 -0.55645,0.55645c-1.55696,-0.00061 -3.05696,-0.29677 -4.6,-0.29677h-0.14839c0,0 -0.55645,0 -0.55645,-0.55645z" fill="#646464" stroke="none" stroke-width="0.5"/><path d="M262,295v-37h22.43871v37z" fill="#00de06" stroke="#a7a7a7" stroke-width="0.5"/><path d="M267.60968,276.5c0,-3.09814 2.51154,-5.60967 5.60968,-5.60967c3.09814,0 5.60967,2.51153 5.60967,5.60967c0,3.09814 -2.51153,5.60967 -5.60967,5.60967c-3.09814,0 -5.60968,-2.51153 -5.60968,-5.60967z" fill="#4e4e4e" stroke="#a7a7a7" stroke-width="2.5"/><path d="M273.75096,273.89616c-0.57896,-0.14474 -0.43422,-0.7237 -0.43422,-0.7237l0.14038,-0.46963c0.97458,-1.69279 1.6272,-3.6873 1.7528,-5.63178c0,0 0.0397,-0.59546 0.63515,-0.55576c0.59545,0.03969 0.55575,0.63515 0.55575,0.63515c-0.1462,2.13232 -0.84962,4.28142 -1.90741,6.14456l-0.01876,0.16694c0,0 -0.14474,0.57896 -0.72369,0.43422z" fill="#646464" stroke="none" stroke-width="0.5"/><path d="M283.56344,277.77312c0,0.59677 -0.59678,0.59677 -0.59678,0.59677h-0.31828c-1.92451,0 -3.80108,-0.15914 -5.72903,-0.15914c0,0 -0.59677,0 -0.59677,-0.59678c0,-0.59677 0.59677,-0.59677 0.59677,-0.59677c1.92811,0 3.80548,0.15914 5.72903,0.15914h0.31828c0,0 0.59678,0 0.59678,0.59677z" fill="#646464" stroke="none" stroke-width="0.5"/><path d="M272.70215,288.71398c-0.59677,0 -0.59678,-0.59677 -0.59678,-0.59677l0.00297,-0.45723c0.0809,-0.80122 -0.00335,-1.61722 0.09877,-2.41186c0.16775,-1.30526 0.26103,-2.43377 0.13943,-3.76075c0,0 -0.05403,-0.59433 0.54029,-0.64836c0.59433,-0.05403 0.64835,0.5403 0.64835,0.5403c0.12629,1.39968 0.04122,2.61779 -0.14135,3.99621c-0.10444,0.78851 -0.01891,1.60634 -0.09788,2.40322l0.00297,0.33847c0,0 0,0.59677 -0.59677,0.59677z" fill="#646464" stroke="none" stroke-width="0.5"/><path d="M264.3871,276.10215c0,-0.59677 0.59678,-0.59677 0.59678,-0.59677h0.15914c1.65832,0 3.26304,0.31896 4.93333,0.31828c0,0 0.59677,0 0.59677,0.59678c0,0.59677 -0.59677,0.59677 -0.59677,0.59677c-1.66979,-0.00065 -3.27848,-0.31828 -4.93333,-0.31828h-0.15914c0,0 -0.59678,0 -0.59678,-0.59677z" fill="#646464" stroke="none" stroke-width="0.5"/><text transform="translate(267.75,250.5) scale(0.5,0.5)" font-size="40" xml:space="preserve" fill="#9966ff" fill-rule="nonzero" stroke="none" stroke-width="1" stroke-linecap="butt" stroke-linejoin="miter" stroke-miterlimit="10" stroke-dasharray="" stroke-dashoffset="0" font-family="&quot;black&quot;, &quot;Microsoft YaHei&quot;, &quot;微软雅黑&quot;, STXihei, &quot;华文细黑&quot;" font-weight="normal" text-anchor="start" style="mix-blend-mode: normal"><tspan x="0" dy="0">↓</tspan></text><text transform="translate(261.75,112.45837) scale(0.23878,0.23878)" font-size="40" xml:space="preserve" fill="#000000" fill-rule="nonzero" stroke="none" stroke-width="1" stroke-linecap="butt" stroke-linejoin="miter" stroke-miterlimit="10" stroke-dasharray="" stroke-dashoffset="0" font-family="&quot;black&quot;, &quot;Microsoft YaHei&quot;, &quot;微软雅黑&quot;, STXihei, &quot;华文细黑&quot;" font-weight="normal" text-anchor="start" style="mix-blend-mode: normal"><tspan x="0" dy="0">技能:</tspan><tspan x="0" dy="46.150000000000006px">    在0.3秒内单击(注意不是长按)</tspan><tspan x="0" dy="46.150000000000006px">    1次--治疗弹(+100血)1次可以长按</tspan><tspan x="0" dy="46.150000000000006px">    2次--传送门(最多移动40像素)</tspan></text><text transform="translate(270.75,159.625) scale(0.22914,0.22914)" font-size="40" xml:space="preserve" fill="#000000" fill-rule="nonzero" stroke="none" stroke-width="1" stroke-linecap="butt" stroke-linejoin="miter" stroke-miterlimit="10" stroke-dasharray="" stroke-dashoffset="0" font-family="&quot;black&quot;, &quot;Microsoft YaHei&quot;, &quot;微软雅黑&quot;, STXihei, &quot;华文细黑&quot;" font-weight="normal" text-anchor="start" style="mix-blend-mode: normal"><tspan x="0" dy="0">获胜条件:</tspan><tspan x="0" dy="46.15px">    逃生全部逃走--逃生胜利</tspan><tspan x="0" dy="46.15px">    逃生单个逃走--逃生胜利</tspan><tspan x="0" dy="46.15px">    逃生全部嗝屁--追捕胜利</tspan></text></g></g></svg>