<svg version="1.1" xmlns="http://www.w3.org/2000/svg" xmlns:xlink="http://www.w3.org/1999/xlink" width="104" height="194.14375" viewBox="0,0,104,194.14375"><g transform="translate(-189.25,-81.67813)"><g data-paper-data="{&quot;isPaintingLayer&quot;:true}" fill-rule="nonzero" stroke-linecap="butt" stroke-linejoin="miter" stroke-miterlimit="10" stroke-dasharray="" stroke-dashoffset="0" style="mix-blend-mode: normal"><path d="M290.75,124.67813c0,22.36753 -18.35633,40.5 -41,40.5c-22.64367,0 -41,-18.13247 -41,-40.5c0,-22.36753 18.35633,-40.5 41,-40.5c22.64367,0 41,18.13247 41,40.5z" fill="none" stroke="#000000" stroke-width="5"/><path d="M189.25,176.67814c0,-2.40919 2.32168,-2.4967 2.49034,-2.49988c2.57611,-1.0957 5.83666,-2.47531 8.53689,-2.95501c0.33921,-0.06026 6.64856,-0.04511 6.97277,-0.04511c5.5,0 11,0 16.5,0c4.58848,0 9.26553,0.25872 13.84466,0.00483c2.60847,-0.14463 5.1394,-0.44536 7.68838,-0.68032c-15.1106,-4.65494 -31.55398,-10.48322 -47.28669,-7.33667l-3.24634,0.01217c0,0 -2.5,0 -2.5,-2.5c0,-2.5 2.5,-2.5 2.5,-2.5l2.75366,0.01217c16.42386,-3.28477 33.48572,2.74869 49.23709,7.54607c0.07216,-0.33113 0.2301,-0.68602 0.50926,-1.05823c1.5,-2 3.5,-0.5 3.5,-0.5c0.88373,0.74209 2.10488,1.20979 2.65119,2.22627c1.3529,2.51724 1.233,6.64534 1.81653,9.37328c0.33074,1.54616 1.17942,2.9517 1.5,4.5c0.75404,3.64178 0.03228,8.18219 0.03228,11.90046c0,3.9513 0.6031,8.50655 -0.03228,12.40046c-0.32821,2.01143 -0.86247,3.92895 -1.57997,5.76174c2.25269,0.8222 1.48396,3.12837 1.48396,3.12837c-1.27564,3.68286 -0.87171,7.31848 -0.87171,11.20943c0,5.84048 0.71794,10.6212 1.92679,16.38711c0.32157,1.5338 1.17803,6.17671 2.17514,7.75942c1.78036,2.82597 5.02611,5.74622 7.26088,8.18616c3.71159,4.05232 5.83065,8.11234 10.38428,11.3791c0.49271,0.66685 1.06688,1.28406 1.69937,1.83368c0.16935,-0.02947 0.35343,-0.04548 0.55353,-0.04548c2.5,0 2.5,2.5 2.5,2.5l-3.78624,3.14373c-1.67126,-1.03422 -3.27123,-2.29108 -4.46086,-3.85553c-4.63803,-3.29805 -6.85789,-7.52483 -10.61572,-11.6209c-1.79781,-1.95963 -3.45047,-4.0489 -5.10769,-6.12877c-0.78093,-0.98009 -1.98346,-1.61241 -2.63142,-2.68507c-1.54625,-2.55973 -2.26107,-6.5837 -2.8637,-9.43477c-1.54392,-7.3044 -3.07046,-15.92443 -2.22783,-23.79923c-0.09441,0.12202 -0.18968,0.24363 -0.28582,0.36482c-6.39498,2.7648 -13.29696,4.39469 -19.17333,8.12155c-12.24394,7.76524 -15.79326,23.7455 -15.87967,37.29462l-1,3v2.5l-1,3l0.03228,2.09954h-5l0.03228,-2.90046l1,-3v-2.5l1,-3c-0.10605,-15.00383 4.80927,-32.20956 18.12033,-40.70538c5.7157,-3.64806 12.4433,-5.65972 18.82667,-7.87845c4.77989,-7.12706 4.52072,-14.21699 4.52072,-22.51571c0,-3.41938 0.77233,-7.77195 0.03228,-11.09954c-0.34325,-1.54343 -1.16814,-2.95408 -1.5,-4.5c-0.09163,-0.42684 -0.15365,-0.8947 -0.2036,-1.38551c-4.12629,0.10635 -8.0405,0.75019 -12.17334,0.98022c-4.68228,0.26061 -9.46344,0.00483 -14.15534,0.00483c-5.5,0 -11,0 -16.5,0c-2.00913,0 -4.05241,-0.41484 -6.02723,-0.04511c-2.55636,0.47861 -5.6227,1.81866 -7.98797,2.84297l-1.4848,0.20214c0,0 -2.5,0 -2.5,-2.5z" fill="#000000" stroke="none" stroke-width="0.5"/><path d="M229.25,132.17814c-2.5,0 -2.5,-2.5 -2.5,-2.5l0.17881,-1.42848c1.8762,-4.42744 0.80707,-10.54702 1.33648,-15.3476c0,0 0.27608,-2.48471 2.76079,-2.20863c2.48471,0.27608 2.20863,2.76079 2.20863,2.76079c-0.61908,5.5278 0.32975,11.45567 -1.66352,16.6524l0.17881,-0.42848c0,0 0,2.5 -2.5,2.5z" fill="#000000" stroke="none" stroke-width="0.5"/><path d="M245.96376,132.32186c-2.14373,-1.28624 -0.85749,-3.42997 -0.85749,-3.42997l1.42212,-2.36025c1.48986,-3.41873 3.01571,-6.819 4.40042,-10.28199c0,0 0.92848,-2.32119 3.24967,-1.39272c2.32119,0.92848 1.39272,3.24967 1.39272,3.24967c-1.44496,3.61119 -3.03603,7.15695 -4.59958,10.71801l-1.57788,2.63975c0,0 -1.28624,2.14373 -3.42997,0.85749z" fill="#000000" stroke="none" stroke-width="0.5"/><path d="M253.75,142.17814c0,2.5 -2.5,2.5 -2.5,2.5h-2.5c-2.49245,0 -4.95181,-0.19556 -7.39737,0.42628c-2.07953,0.52877 -4.21411,1.27698 -6.34897,1.06155c-3.38495,-0.34157 -5.71751,-2.15067 -8.5399,-3.8441c0,0 -2.14373,-1.28624 -0.85749,-3.42997c1.28624,-2.14373 3.42997,-0.85749 3.42997,-0.85749c1.54474,0.92685 2.95324,2.11696 4.61525,2.81193c2.39587,1.00182 4.20082,-0.0299 6.49588,-0.59448c2.88727,-0.71026 5.66959,-0.57372 8.60263,-0.57372h2.5c0,0 2.5,0 2.5,2.5z" fill="#000000" stroke="none" stroke-width="0.5"/><path d="M249.86325,158.75827c-2.08013,-1.38675 -0.69338,-3.46688 -0.69338,-3.46688l0.70842,0.67732c-0.28091,-0.87677 -0.44625,-1.79938 -0.84274,-2.6303c-0.47901,-1.00385 -1.67796,-1.72352 -1.76397,-2.83247c-0.15994,-2.06214 1.82409,-4.91988 2.83468,-6.61404c0,0 1.28624,-2.14373 3.42997,-0.85749c2.14373,1.28624 0.85749,3.42997 0.85749,3.42997c-0.46804,0.77489 -0.9164,1.56201 -1.40412,2.32467c-0.23455,0.36677 -0.85191,0.6355 -0.7612,1.0613c0.11809,0.55432 0.97161,0.66624 1.23603,1.16753c0.55409,1.05045 0.77151,2.24646 1.15726,3.3697l-1.29158,3.67732c0,0 -1.38675,2.08013 -3.46688,0.69338z" fill="#ff0000" stroke="none" stroke-width="0.5"/><path d="M244.25,128.17814c0,-1.38071 1.11929,-2.5 2.5,-2.5c1.38071,0 2.5,1.11929 2.5,2.5c0,1.38071 -1.11929,2.5 -2.5,2.5c-1.38071,0 -2.5,-1.11929 -2.5,-2.5z" fill="#ff0000" stroke="none" stroke-width="0.5"/><path d="M224.25,129.67814c0,-1.38071 1.11929,-2.5 2.5,-2.5c1.38071,0 2.5,1.11929 2.5,2.5c0,1.38071 -1.11929,2.5 -2.5,2.5c-1.38071,0 -2.5,-1.11929 -2.5,-2.5z" fill="#ff0000" stroke="none" stroke-width="0.5"/><path d="M228.52173,261.28226c-2.5,0 -2.5,-2.5 -2.5,-2.5v-2.30743c0,-3.39218 -0.16478,-6.67172 0.46549,-10.01131c-0.16941,-0.66224 -0.12273,-1.42224 -0.50824,-1.98673c-1.05434,-1.54381 -3.6395,-1.60462 -4.60008,-3.20844c-0.76398,-1.27558 -0.91736,-2.88489 -0.88733,-4.37145c0.06984,-3.45693 2.73329,-7.49654 4.65172,-10.08065c0.38008,-0.51197 0.70262,-1.09313 1.10894,-1.58459c-1.43213,-0.28079 -1.87483,-2.50516 -2.07459,-4.65674c-0.18052,-1.9444 1.40162,-4.46723 1.38261,-6.55674c-0.02351,-2.58537 -1.05648,-5.27127 -0.32056,-7.7498c0.37222,-1.25361 1.45315,-2.1882 2.34219,-3.14721c0.48967,-0.52821 1.62042,-0.55875 1.75018,-1.26723c0.18556,-1.01315 -1.06001,-1.903 -0.98146,-2.93001c0.06715,-0.8779 1.24819,-1.38265 1.37794,-2.25351c0.24109,-1.61809 -1.23866,-3.03164 -1.74317,-4.58786c-6.2136,-3.45802 -6.11533,-12.20604 -3.0545,-18.00465c0.52024,-0.98556 1.63728,-1.59542 2.07828,-2.61889c0.53412,-1.2396 -1.30424,-2.3768 -1.75642,-3.64858c-0.30571,-0.85982 -1.13943,-6.75592 -0.91184,-7.29504c0.53173,-1.25958 2.7595,-2.89114 4.68899,-3.82538c-0.9093,-0.50381 -1.67146,-1.15839 -1.88096,-1.42781c-3.76755,-4.84491 -2.2608,-7.38294 0.05972,-12.04636c0,0 1.11803,-2.23607 3.3541,-1.11803c2.23607,1.11803 1.11803,3.3541 1.11803,3.3541c-1.18735,2.36197 -3.03664,4.03718 -0.86325,6.41305c1.91645,2.09499 6.01518,-0.55416 6.6486,4.18162c0.39902,2.98331 -5.24561,4.80516 -7.19796,5.66082c-0.42469,0.18613 -1.115,0.1536 -1.25747,0.59487c-0.1618,0.50113 0.46625,0.95325 0.59257,1.46448c0.6441,2.60687 2.96242,6.04528 2.277,8.82023c-0.36799,1.4898 -1.80847,2.49105 -2.53657,3.8419c-1.28425,2.38264 -1.87522,6.52719 -1.19813,9.1757c0.42233,1.65201 2.51068,2.53227 3.68145,3.27768c0.4572,1.11962 2.95918,6.72657 2.87168,8.33373c-0.04966,0.91217 -1.30967,1.45145 -1.39097,2.36135c-0.10784,1.20688 1.20282,2.36729 0.86448,3.53079c-0.59559,2.04817 -3.66729,2.75361 -4.21437,4.81527c-0.49387,1.86112 0.61519,4.27321 0.60241,6.09476c-0.01938,2.76309 -0.85121,3.73273 -1.3863,6.36485c-0.06411,0.31537 -0.21998,0.78737 0.04889,0.96423c1.01887,0.67021 3.06691,0.14505 3.41452,1.314c0.47921,1.61152 -0.86308,3.27235 -1.60156,4.78275c-1.38779,2.83843 -3.68153,4.54185 -4.75721,7.6701c-0.37147,1.08029 -1.52821,2.48872 -0.7667,3.34027c1.25717,1.40582 3.64135,1.64608 4.62963,3.25235c0.81569,1.32575 0.8918,2.98271 1.3377,4.47407c-0.5193,3.47288 -0.45749,6.78461 -0.45749,10.29404v2.30743c0,0 0,2.5 -2.5,2.5z" fill="#006bff" stroke="none" stroke-width="0.5"/><path d="M235.82916,261.6674c-2.5,0 -2.5,-2.5 -2.5,-2.5v-2.30742c0,-3.39218 -0.16477,-6.67173 0.46549,-10.01132c-0.16941,-0.66224 -0.12273,-1.42224 -0.50824,-1.98673c-1.05434,-1.54381 -3.6395,-1.60461 -4.60008,-3.20844c-0.76398,-1.27558 -0.91736,-2.88489 -0.88733,-4.37145c0.06984,-3.45693 2.73329,-7.49653 4.65171,-10.08065c0.38008,-0.51197 0.70262,-1.09313 1.10894,-1.58459c-1.43213,-0.2808 -1.87483,-2.50516 -2.07459,-4.65674c-0.18052,-1.9444 1.40162,-4.46723 1.38262,-6.55674c-0.02352,-2.58537 -1.05648,-5.27126 -0.32056,-7.7498c0.37222,-1.25361 1.45316,-2.18821 2.3422,-3.14722c0.48967,-0.52821 1.62042,-0.55875 1.75017,-1.26722c0.18555,-1.01316 -1.06001,-1.903 -0.98146,-2.93c0.06715,-0.8779 1.24819,-1.38265 1.37795,-2.25351c0.2411,-1.61809 -1.23866,-3.03164 -1.74317,-4.58785c-6.2136,-3.45802 -6.11533,-12.20604 -3.0545,-18.00465c0.52024,-0.98557 1.63728,-1.59542 2.07828,-2.61889c0.53412,-1.23961 -1.30424,-2.3768 -1.75642,-3.64858c-0.30571,-0.85982 -1.13943,-6.75592 -0.91184,-7.29504c0.53173,-1.25958 2.7595,-2.89114 4.68899,-3.82538c-0.9093,-0.5038 -1.67145,-1.15839 -1.88096,-1.42781c-3.76755,-4.84492 -2.2608,-7.38294 0.05972,-12.04637c0,0 1.11803,-2.23607 3.35411,-1.11803c2.23607,1.11803 1.11803,3.3541 1.11803,3.3541c-1.18735,2.36197 -3.03664,4.03718 -0.86325,6.41305c1.91645,2.09499 6.01518,-0.55416 6.6486,4.18162c0.39902,2.98331 -5.24561,4.80516 -7.19796,5.66082c-0.4247,0.18613 -1.115,0.1536 -1.25747,0.59486c-0.1618,0.50114 0.46625,0.95325 0.59256,1.46448c0.64409,2.60687 2.96243,6.04528 2.277,8.82023c-0.36799,1.4898 -1.80847,2.49105 -2.53657,3.8419c-1.28424,2.38264 -1.87521,6.52719 -1.19814,9.1757c0.42233,1.65201 2.51068,2.53228 3.68145,3.27769c0.4572,1.11962 2.95919,6.72657 2.87169,8.33373c-0.04967,0.91217 -1.30967,1.45145 -1.39097,2.36135c-0.10784,1.20688 1.20281,2.36729 0.86448,3.53079c-0.5956,2.04817 -3.66728,2.75361 -4.21436,4.81527c-0.49386,1.86112 0.61519,4.27321 0.60242,6.09476c-0.01938,2.76309 -0.85121,3.73273 -1.3863,6.36485c-0.06411,0.31537 -0.21998,0.78736 0.04888,0.96422c1.01887,0.67021 3.06692,0.14505 3.41452,1.314c0.47921,1.61151 -0.86308,3.27235 -1.60155,4.78274c-1.3878,2.83843 -3.68153,4.54185 -4.75721,7.6701c-0.37147,1.0803 -1.52821,2.48872 -0.76671,3.34027c1.25717,1.40582 3.64135,1.64608 4.62963,3.25235c0.81569,1.32575 0.89181,2.98272 1.3377,4.47407c-0.51929,3.47288 -0.45749,6.7846 -0.45749,10.29404v2.30742c0,0 0,2.5 -2.5,2.5z" fill="#00ff46" stroke="none" stroke-width="0.5"/><path d="M243.13658,259.74512c-2.5,0 -2.5,-2.5 -2.5,-2.5v-2.30742c0,-3.39218 -0.16477,-6.67173 0.46549,-10.01131c-0.16941,-0.66224 -0.12273,-1.42224 -0.50824,-1.98673c-1.05434,-1.54381 -3.6395,-1.60461 -4.60008,-3.20844c-0.76398,-1.27558 -0.91736,-2.88489 -0.88733,-4.37145c0.06984,-3.45693 2.73329,-7.49653 4.65171,-10.08065c0.38008,-0.51197 0.70262,-1.09313 1.10894,-1.58459c-1.43213,-0.2808 -1.87483,-2.50516 -2.07459,-4.65674c-0.18052,-1.9444 1.40162,-4.46723 1.38262,-6.55674c-0.02352,-2.58537 -1.05648,-5.27126 -0.32056,-7.7498c0.37222,-1.25361 1.45316,-2.18821 2.3422,-3.14722c0.48967,-0.52821 1.62042,-0.55875 1.75017,-1.26722c0.18555,-1.01316 -1.06001,-1.903 -0.98146,-2.93c0.06715,-0.8779 1.24819,-1.38265 1.37795,-2.25351c0.2411,-1.61809 -1.23866,-3.03164 -1.74317,-4.58785c-6.2136,-3.45802 -6.11533,-12.20604 -3.0545,-18.00465c0.52024,-0.98557 1.63728,-1.59542 2.07828,-2.61889c0.53412,-1.23961 -1.30424,-2.3768 -1.75642,-3.64858c-0.30571,-0.85982 -1.13943,-6.75592 -0.91184,-7.29504c0.53173,-1.25958 2.7595,-2.89114 4.68899,-3.82538c-0.9093,-0.5038 -1.67145,-1.15839 -1.88096,-1.42781c-3.76755,-4.84492 -2.2608,-7.38294 0.05972,-12.04637c0,0 1.11803,-2.23607 3.35411,-1.11803c2.23607,1.11803 1.11803,3.3541 1.11803,3.3541c-1.18735,2.36197 -3.03664,4.03718 -0.86325,6.41305c1.91645,2.09499 6.01518,-0.55416 6.6486,4.18162c0.39902,2.98331 -5.24561,4.80516 -7.19796,5.66082c-0.4247,0.18613 -1.115,0.1536 -1.25747,0.59486c-0.1618,0.50114 0.46625,0.95325 0.59256,1.46448c0.64409,2.60687 2.96243,6.04528 2.277,8.82023c-0.36799,1.4898 -1.80847,2.49105 -2.53657,3.8419c-1.28424,2.38264 -1.87521,6.52719 -1.19814,9.1757c0.42233,1.65201 2.51068,2.53228 3.68145,3.27769c0.4572,1.11962 2.95919,6.72657 2.87169,8.33373c-0.04967,0.91217 -1.30967,1.45145 -1.39097,2.36135c-0.10784,1.20688 1.20281,2.36729 0.86448,3.53079c-0.5956,2.04817 -3.66728,2.75361 -4.21436,4.81527c-0.49386,1.86112 0.61519,4.27321 0.60242,6.09476c-0.01938,2.76309 -0.85121,3.73273 -1.3863,6.36485c-0.06411,0.31537 -0.21998,0.78736 0.04888,0.96422c1.01887,0.67021 3.06692,0.14505 3.41452,1.314c0.47921,1.61151 -0.86308,3.27235 -1.60155,4.78274c-1.3878,2.83843 -3.68153,4.54185 -4.75721,7.6701c-0.37147,1.0803 -1.52821,2.48872 -0.76671,3.34027c1.25717,1.40582 3.64135,1.64608 4.62963,3.25235c0.81569,1.32575 0.89181,2.98272 1.3377,4.47407c-0.51929,3.47288 -0.45749,6.7846 -0.45749,10.29404v2.30742c0,0 0,2.5 -2.5,2.5z" fill="#ff0000" stroke="none" stroke-width="0.5"/><path d="M252.28995,261.97621c-2.5,0 -2.5,-2.5 -2.5,-2.5v-2.30742c0,-3.39218 -0.16478,-6.67173 0.46549,-10.01131c-0.16941,-0.66224 -0.12273,-1.42224 -0.50824,-1.98673c-1.05434,-1.54381 -3.6395,-1.60461 -4.60008,-3.20844c-0.76398,-1.27558 -0.91736,-2.88489 -0.88733,-4.37145c0.06984,-3.45693 2.73329,-7.49653 4.65171,-10.08065c0.38008,-0.51197 0.70262,-1.09313 1.10893,-1.58459c-1.43213,-0.2808 -1.87483,-2.50516 -2.07458,-4.65674c-0.18052,-1.9444 1.40162,-4.46723 1.38261,-6.55674c-0.02351,-2.58537 -1.05648,-5.27126 -0.32056,-7.7498c0.37222,-1.25361 1.45316,-2.18821 2.3422,-3.14722c0.48967,-0.52821 1.62042,-0.55875 1.75017,-1.26722c0.18555,-1.01316 -1.06001,-1.903 -0.98146,-2.93c0.06715,-0.8779 1.24819,-1.38265 1.37795,-2.25351c0.24109,-1.61809 -1.23866,-3.03164 -1.74317,-4.58785c-6.2136,-3.45802 -6.11533,-12.20604 -3.0545,-18.00465c0.52023,-0.98557 1.63728,-1.59542 2.07828,-2.61889c0.53413,-1.23961 -1.30424,-2.3768 -1.75642,-3.64858c-0.30571,-0.85982 -1.13943,-6.75592 -0.91184,-7.29504c0.53174,-1.25958 2.7595,-2.89114 4.68899,-3.82538c-0.9093,-0.5038 -1.67145,-1.15839 -1.88096,-1.42781c-3.76755,-4.84492 -2.2608,-7.38294 0.05972,-12.04637c0,0 1.11804,-2.23607 3.35411,-1.11803c2.23607,1.11803 1.11803,3.3541 1.11803,3.3541c-1.18736,2.36197 -3.03664,4.03718 -0.86325,6.41305c1.91644,2.09499 6.01519,-0.55416 6.6486,4.18162c0.39902,2.98331 -5.24561,4.80516 -7.19796,5.66082c-0.42469,0.18613 -1.115,0.1536 -1.25747,0.59486c-0.1618,0.50114 0.46625,0.95325 0.59257,1.46448c0.64409,2.60687 2.96243,6.04528 2.277,8.82023c-0.36799,1.4898 -1.80847,2.49105 -2.53658,3.8419c-1.28424,2.38264 -1.87521,6.52719 -1.19814,9.1757c0.42233,1.65201 2.51068,2.53228 3.68146,3.27769c0.4572,1.11962 2.95919,6.72657 2.87169,8.33373c-0.04967,0.91217 -1.30967,1.45145 -1.39097,2.36135c-0.10784,1.20688 1.20281,2.36729 0.86448,3.53079c-0.5956,2.04817 -3.66729,2.75361 -4.21436,4.81527c-0.49387,1.86112 0.61519,4.27321 0.60241,6.09476c-0.01938,2.76309 -0.85122,3.73273 -1.3863,6.36485c-0.06411,0.31537 -0.21998,0.78736 0.04888,0.96422c1.01887,0.67021 3.06692,0.14505 3.41452,1.314c0.47921,1.61151 -0.86308,3.27235 -1.60155,4.78274c-1.3878,2.83843 -3.68153,4.54185 -4.75721,7.6701c-0.37147,1.0803 -1.52821,2.48872 -0.76671,3.34027c1.25717,1.40582 3.64135,1.64608 4.62963,3.25235c0.81569,1.32575 0.89181,2.98271 1.33771,4.47407c-0.5193,3.47288 -0.45748,6.7846 -0.45748,10.29404v2.30742c0,0 0,2.5 -2.5,2.5z" fill="#41ff00" stroke="none" stroke-width="0.5"/></g></g></svg>