<svg version="1.1" xmlns="http://www.w3.org/2000/svg" xmlns:xlink="http://www.w3.org/1999/xlink" width="138.23537" height="402.05582" viewBox="0,0,138.23537,402.05582"><g transform="translate(-173.82151,73.52267)"><g data-paper-data="{&quot;isPaintingLayer&quot;:true}" fill="#000000" fill-rule="nonzero" stroke="none" stroke-width="0.5" stroke-linecap="butt" stroke-linejoin="miter" stroke-miterlimit="10" stroke-dasharray="" stroke-dashoffset="0" style="mix-blend-mode: normal"><path d="M311.57793,326.62655c-1.39003,3.46578 -3.46797,1.14735 -3.46797,1.14735l-2.91458,-3.30403c-1.20188,-2.40614 -2.56212,-4.61483 -3.60563,-7.21842c-1.82685,-4.55804 -2.59411,-10.19038 -4.56141,-14.58278c-1.01887,-2.27484 -2.57399,-3.77719 -3.5985,-6.04497c-2.29911,-5.08912 -3.44282,-13.07366 -5.1659,-18.81976c-0.3034,-1.01177 -4.11479,-13.65277 -4.19705,-14.24991c-0.3638,-2.64091 0.42474,-5.49908 0.03329,-8.12897c-0.28254,-1.89821 -1.44144,-3.11612 -1.96726,-4.8643c-1.93564,-6.43547 -1.74005,-12.51339 -4.75954,-17.46258c-1.47585,-7.06466 -4.16943,-12.05318 -6.13314,-18.75548c-2.65845,-9.0735 -3.67009,-19.34338 -6.02652,-28.45086c-0.4762,-1.8405 -1.53,-3.15876 -2,-5.00369c-1.75438,-6.88653 -2.27545,-15.26971 -3.16133,-22.52044c-0.16591,-1.35794 -1.92469,-12.50675 -2.02658,-13.59479c-0.38744,-4.13711 0.484,-7.12339 -1.24087,-10.90683c-0.80902,-1.77455 -6.26545,-0.53194 -7.28492,-0.53194c0,0 -0.56743,0 -1.16162,-0.45088c-3.7729,6.94317 -8.98798,12.62189 -13.1849,18.13603c-8.34843,10.96864 -16.75415,21.90252 -24.82279,33.43934c-3.08218,4.40238 -6.31373,8.96824 -8.94206,14.1536c-1.83638,3.62294 -3.1348,7.94162 -4.95528,11.58681c-2.57395,5.15388 -4.87271,9.8665 -6.7208,15.9766c-2.73891,9.05528 -4.30144,19.21049 -6.97028,28.25691c-1.17032,3.96696 -2.74839,7.70967 -3.38634,12.00091c-0.68885,4.63368 -0.35594,9.79271 -0.35594,14.50939c0,4.78108 -0.42421,9.60696 -0.03228,14.34314c0.34697,4.19292 1.76742,7.93642 2.71043,11.86601l0.31727,5.22833c0,0 0.15141,4.16208 -2.344,4.41461c-2.49541,0.25253 -2.64682,-3.90955 -2.64682,-3.90955l0.03117,-2.63619c-0.35428,-1.47817 -2.78055,-11.09161 -3.00348,-13.62738c-0.45462,-5.17106 -0.03228,-10.45262 -0.03228,-15.67897c0,-5.37767 -0.31418,-11.09244 0.48178,-16.36863c0.74105,-4.91222 2.42459,-9.29326 3.77594,-13.8295c2.70333,-9.07457 4.27189,-19.34065 7.02972,-28.45152c1.99586,-6.5936 4.49356,-11.80828 7.2792,-17.3813c1.85091,-3.70298 3.17884,-8.08169 5.04472,-11.76372c2.78654,-5.4988 6.19976,-10.34874 9.46537,-15.02136c8.12216,-11.60997 16.57995,-22.61853 24.98273,-33.65859c4.79543,-6.3005 10.62656,-12.5449 14.3139,-20.83179c1.17389,-2.6382 0.36573,-5.59772 0.65891,-8.48313c1.0165,-10.00411 3.10849,-19.74586 3.98645,-29.86367c0.54018,-6.22512 -0.01873,-13.20239 -0.01873,-19.50527c0,-28.91018 0,-57.82036 0,-86.73054c0,-16.11919 -1.23252,-33.7064 1.07464,-49.38027c0,0 0.60634,-4.04524 3.0317,-3.03393c2.42536,1.01131 1.81902,5.05655 1.81902,5.05655c-2.27224,14.84941 -0.92536,32.04764 -0.92536,47.35765c0,28.91018 0,57.82036 0,86.73054c0,6.65315 0.53905,13.93936 -0.01873,20.52421c-0.86505,10.21227 -3.02408,20.09099 -4.01355,30.18056c-0.26748,2.72749 -0.17957,5.72355 -0.56063,8.39806c3.01108,-0.24156 6.91457,-0.55996 8.80799,2.91129c3.69913,6.78167 2.12982,8.98564 2.75913,15.77949c0.64334,6.94537 1.87244,14.38048 2.78561,21.24239c0.56887,4.27472 0.98405,8.67521 2.02648,12.69397c0.47722,1.83976 1.52911,3.15939 2,5.00369c2.32354,9.10035 3.33973,19.22415 5.97348,28.25758c1.85403,6.3591 4.57893,11.13547 5.86686,17.93821c3.10216,5.25921 3.00065,11.49961 4.95437,18.03818c0.66172,2.2146 1.94077,3.94332 2.31884,6.336c0.43547,2.75595 -0.32421,5.763 0.03329,8.54998c0.58372,4.55053 2.55549,8.27393 3.80295,12.43641c1.58109,5.27575 2.68981,13.32794 4.8341,17.87393c1.00841,2.13788 2.50392,3.56039 3.47257,5.74883c2.94422,6.65183 4.29669,14.10575 7.50134,20.57983l2.34596,2.56536c0,0 2.07793,2.31843 0.6879,5.7842z"/></g></g></svg>