<svg version="1.1" xmlns="http://www.w3.org/2000/svg" xmlns:xlink="http://www.w3.org/1999/xlink" width="112.74395" height="92.01078" viewBox="0,0,112.74395,92.01078"><g transform="translate(-180.25135,-137.34352)"><g data-paper-data="{&quot;isPaintingLayer&quot;:true}" fill="#d2a200" fill-rule="nonzero" stroke="none" stroke-width="0.5" stroke-linecap="butt" stroke-linejoin="miter" stroke-miterlimit="10" stroke-dasharray="" stroke-dashoffset="0" style="mix-blend-mode: normal"><path d="M206.9896,203.87844c-0.60634,-2.42536 1.81902,-3.0317 1.81902,-3.0317l1.02378,-0.25552c2.05461,-0.47325 4.02834,-1.52036 6.13671,-1.53273c3.81697,-0.02241 7.33922,1.43881 11.34378,1.23392c3.17674,-0.16254 5.09791,-3.27327 8.324,-3.19371c0.89107,0.02197 1.7126,0.4109 2.53208,0.81064c0.24679,-1.56996 -0.50467,-3.49021 -0.82195,-4.84758c-0.48471,-2.07364 -1.35119,-6.01242 -1.28593,-8.0401c0.06778,-2.10605 1.07248,-4.09939 1.22973,-6.20065c0.08104,-1.08297 0.07518,-2.15682 0.00723,-3.22411c-0.52457,-0.13624 -0.88664,-0.38397 -0.88664,-0.38397c-3.33943,-2.28897 -4.82854,-3.06936 -7.6418,-5.86901c-0.40209,-0.40014 -0.41103,-1.35612 -0.97707,-1.39336c-1.34571,-0.08854 -2.56428,0.89472 -3.90114,1.07242c-4.64799,0.61785 -10.65209,0.6572 -15.32145,0.24648c-4.59192,-0.4039 -7.91582,-2.47839 -11.61987,-4.60706c-0.71688,0.81133 -1.01679,1.91486 -1.52779,2.87046c0,0 -1.24035,2.17061 -3.41096,0.93026c-2.17061,-1.24035 -0.93026,-3.41096 -0.93026,-3.41096c0.51862,-0.86701 0.93614,-1.80836 1.45144,-2.67781c-2.20013,-0.95756 -4.47647,-1.782 -6.38608,-3.21017c-1.4989,-1.12101 -3.6267,-2.13535 -3.96477,-3.97629c-0.21592,-1.17581 2.37905,-1.09588 2.83002,-2.20303c0.24975,-0.61315 -0.94464,-0.93628 -1.33286,-1.47258c-1.33944,-1.85038 -2.30162,-3.94659 -3.4275,-5.93416l3.63247,-3.22526c0,0 2.14373,-1.28624 3.42997,0.85749c1.28624,2.14373 -0.85749,3.42997 -0.85749,3.42997l-0.70374,-0.15931c2.43779,0.91032 4.27885,6.24378 3.98402,8.13956c-0.03363,0.21625 -0.15306,0.36175 -0.32704,0.46043c1.03062,0.42787 1.97089,1.10034 2.97573,1.59774c1.39797,0.69199 2.7655,1.46208 4.12351,2.2522c0.5785,-0.38103 1.11198,-0.80546 1.51295,-1.3616c1.79659,-2.4918 0.78253,-6.29699 2.36058,-8.91674c0.77019,-1.2786 1.96666,-2.26434 3.11899,-3.2131c0.50624,-0.41681 1.44155,-0.26709 1.7858,-0.82521c0.74111,-1.20153 0.58989,-2.79311 1.22397,-4.0544c0.46365,-0.92228 1.33469,-1.57508 2.00203,-2.36262l2.37124,-0.85374c0,0 2.5,0 2.5,2.5c0,1.52528 -0.93059,2.11997 -1.65625,2.35183c-1.11829,1.69096 -1.4409,3.91519 -2.59345,5.61211c-1.03124,1.51832 -3.49119,1.71477 -4.40133,3.30863c-1.55258,2.7189 -0.57792,6.44689 -2.53738,9.20571c-0.33217,0.46767 -0.73513,0.86786 -1.17625,1.23218c0.93241,0.52218 1.87122,1.02357 2.82314,1.48558c5.35728,2.60013 13.7978,1.54647 19.49396,1.01426c1.98176,-0.18516 3.94748,-1.25077 5.90467,-0.88874c1.2706,0.23503 1.96458,1.67903 2.9413,2.525c1.32587,1.1484 2.69844,2.24455 4.10542,3.29448c-0.54201,-2.6004 -1.14759,-5.19304 -1.44094,-7.81643c-0.38027,-3.40068 -0.16825,-5.38345 -1.53589,-8.60796c0,0 -0.96154,-2.30769 1.34615,-3.26923c2.30769,-0.96154 3.26923,1.34615 3.26923,1.34615c1.47887,3.60244 1.47813,6.2473 1.89268,10.00428c0.68904,6.24467 2.92394,12.19876 2.45437,18.59203c-0.05133,0.69886 -0.20044,1.38503 -0.37775,2.06731c4.77621,3.80851 7.84247,8.33782 9.2586,14.26216c1.88352,-0.01124 3.50382,0.59053 5.97673,0.80958c3.34346,0.29616 6.91632,-0.3451 10.26712,-0.25195c3.89415,0.10825 6.12487,0.38623 9.8093,-0.85672c2.1182,-0.71458 5.91111,-1.00299 7.70363,-2.44292c0.33245,-0.26706 0.1319,-0.84334 0.16761,-1.26828c0.13461,-1.60169 0.13701,-3.21573 0.34322,-4.80979c0.13717,-1.06042 0.94521,-2.09696 0.68437,-3.13391c-0.24799,-0.98586 -1.64472,-1.32926 -2.0424,-2.26483c-1.05788,-2.48872 -2.11253,-7.49783 -0.11689,-10.09198c0.79205,-1.02959 2.40428,-0.98439 3.60642,-1.47658l2.38013,-0.5357c0,0 2.44047,-0.54233 2.98279,1.89814c0.54233,2.44047 -1.89814,2.98279 -1.89814,2.98279l-2.02804,0.44389c-2.23705,-0.01246 -1.34504,2.66884 -0.42883,4.59471c0.56104,1.1793 2.07932,1.84878 2.36576,3.12293c0.3688,1.64053 -0.38284,3.34138 -0.5361,5.01586c-0.14616,1.59691 -0.07161,7.14819 -1.69727,8.79257c-1.88132,1.90298 -4.85322,2.58242 -7.56065,3.26413c0.07398,0.25679 0.16065,0.50915 0.26849,0.75412c0.60063,1.36448 2.65808,2.45488 2.22309,3.88083c-0.7733,2.53491 -5.73182,3.66173 -7.84102,4.5205c-0.45431,0.18498 -0.8641,0.48784 -1.29825,0.71878c0.71323,0.47314 1.16154,1.45604 1.93815,1.99677c0.5842,0.40675 1.33415,0.497 2.00123,0.7455l1.33148,0.43928c0,0 2.37171,0.79057 1.58114,3.16228c-0.79057,2.37171 -3.16228,1.58114 -3.16228,1.58114l-1.6073,-0.54031c-2.00041,-0.83814 -3.91284,-2.05569 -5.39189,-3.64205c-1.13554,-1.21792 -3.23384,-2.1024 -3.28107,-3.7669c-0.07168,-2.5263 4.08298,-4.50997 5.92633,-5.29327c1.10354,-0.46893 2.20691,-0.99986 3.38571,-1.21675c-0.07384,-0.04329 -0.13752,-0.10071 -0.18731,-0.17784c-0.35748,-0.55375 -0.55492,-1.18155 -0.70748,-1.83011c-3.01876,0.65008 -5.60078,0.53316 -9.08506,0.43079c-5.67506,-0.16674 -12.18067,1.25148 -17.6178,-1.15023c-0.02353,-0.01039 -0.04703,-0.02083 -0.07051,-0.03132l-0.00327,0.01145l-4.75448,-1.35842c-0.81419,-0.21269 -1.46662,-0.82557 -1.73455,-1.61589c-0.00457,1.24276 -0.10762,2.48441 -0.49405,3.64961c-0.18209,0.54906 -1.19352,0.56157 -1.59568,0.91752c-0.02643,0.07972 -0.05685,0.16117 -0.09151,0.24437c-0.02323,0.05576 -0.04725,0.10961 -0.072,0.16161c0.05336,0.83485 1.50071,1.15254 1.67209,1.99873c0.79649,3.9328 -0.44871,4.53056 -2.47411,7.18362c-0.32658,0.42866 -1.20627,0.797 -0.97975,1.28597c0.40849,0.88178 2.05188,0.78468 2.36516,1.7046c0.65495,1.92323 -0.977,4.09661 -0.50937,6.07375c0.28596,1.20903 2.61756,1.09285 4.41583,0.83318c0.53005,-0.17363 1.04674,-0.28297 1.54127,-0.28771c0.03642,-0.00035 0.07283,-0.00047 0.10922,-0.00038c0.01244,-0.00242 0.02468,-0.00479 0.03669,-0.00712l-0.00927,-0.03399l2.63863,-0.71963c0.22596,-0.06712 0.46529,-0.10316 0.71304,-0.10316c1.38071,0 2.5,1.11929 2.5,2.5c0,1.1506 -0.7773,2.11966 -1.83543,2.4107l-2.39518,0.71855l-0.01829,-0.06098l-0.08335,0.02273l-0.1007,0.08984c-0.00438,0.00053 -0.00877,0.00107 -0.01315,0.00161c-0.43294,0.64656 -1.52464,0.55523 -2.26828,0.85302c-1.85541,0.74298 -4.26368,1.78468 -6.18939,2.1102c-4.60506,0.77843 -11.18167,1.15286 -15.86087,0.49886c-1.30616,-0.18256 -2.52351,-0.83766 -3.83563,-0.9708c-3.11096,-0.31568 -6.6552,0.49808 -9.8181,0.49974l-2.22109,-4.38039c0,0 0.411,-2.46598 2.87698,-2.05499c1.06703,0.17784 1.59541,0.74043 1.8515,1.32152c2.59729,-0.20523 5.27918,-0.59544 7.75614,-0.366c1.36794,0.12671 2.64176,0.78971 4.00111,0.98838c3.66679,0.53592 8.70395,0.29615 12.68928,-0.21656c-0.41826,-0.47633 -0.78872,-1.04854 -1.10035,-1.73322c-0.56481,-1.24091 -0.28661,-2.72665 -0.18302,-4.08611c0.05534,-0.72622 0.94502,-1.41771 0.65324,-2.08504c-0.4492,-1.02739 -2.37104,-1.1042 -2.5328,-2.21377c-0.25437,-1.74473 0.97949,-3.38758 1.46923,-5.08137c0.79988,-0.94375 2.41795,-2.02255 1.93405,-3.59189c-0.3142,-1.01897 -1.22,-1.88805 -1.59423,-2.86211c-0.12675,-0.04416 -0.25739,-0.075 -0.3934,-0.08751c-1.71601,-0.15781 -2.89048,1.93212 -4.50335,2.53896c-1.05941,0.3986 -2.20701,0.55206 -3.33591,0.63468c-3.2053,0.23459 -6.14532,0.08147 -9.26965,-0.52498c-0.81936,-0.15904 -1.57236,-0.68262 -2.40698,-0.69008c-1.77254,-0.01583 -3.40153,1.00678 -5.1286,1.40604l-0.9354,0.23428c0,0 -2.42536,0.60634 -3.0317,-1.81902zM278.08401,202.85658c0.46905,0.16745 0.87582,0.36845 0.63116,0.18765c-0.17123,-0.12654 -0.39714,-0.16593 -0.63116,-0.18765zM244.8228,193.7406l0.85082,-0.22688c-1.21578,-0.99252 -1.86737,-3.00011 -2.75715,-4.18187c-0.52415,-0.69615 -1.09909,-1.35608 -1.71241,-1.98082c0.44537,2.65328 1.70013,5.20682 1.80211,7.85188c0.00335,0.08692 0.00665,0.17401 0.00983,0.26125c0.24991,-0.85068 0.94,-1.51303 1.8068,-1.72357z"/></g></g></svg>