<svg version="1.1" xmlns="http://www.w3.org/2000/svg" xmlns:xlink="http://www.w3.org/1999/xlink" width="151.84621" height="159.47508" viewBox="0,0,151.84621,159.47508"><g transform="translate(-164.0769,-86.25)"><g data-paper-data="{&quot;isPaintingLayer&quot;:true}" fill-rule="nonzero" stroke-linecap="butt" stroke-linejoin="miter" stroke-miterlimit="10" stroke-dasharray="" stroke-dashoffset="0" style="mix-blend-mode: normal"><path d="M287.9231,155.7749c0,22.91981 -22.16191,41.5 -49.5,41.5c-27.3381,0 -49.5,-18.58018 -49.5,-41.5c0,-22.91982 22.1619,-41.5 49.5,-41.5c27.33809,0 49.5,18.58019 49.5,41.5z" fill="#00fff3" stroke="none" stroke-width="0"/><path d="M315.9231,160.7749c0,12.97869 -12.08831,23.5 -27,23.5c-14.91169,0 -27,-10.52131 -27,-23.5c0,-12.97869 12.08831,-23.5 27,-23.5c14.91169,0 27,10.52131 27,23.5z" fill="#00fff3" stroke="none" stroke-width="0"/><path d="M267.74067,137.2749c0,4.60237 -3.93264,8.33334 -8.78378,8.33334c-4.85115,0 -8.78378,-3.73096 -8.78378,-8.33334c0,-4.60237 3.93264,-8.33334 8.78378,-8.33334c4.85115,0 8.78378,3.73096 8.78378,8.33334z" fill="#000000" stroke="#000000" stroke-width="0.5"/><path d="M231.75643,199.60823c0,-2.07107 1.67893,-3.75 3.75,-3.75c2.07107,0 3.75,1.67893 3.75,3.75c0,2.07107 -1.67893,3.75 -3.75,3.75c-2.07107,0 -3.75,-1.67893 -3.75,-3.75z" fill="#00e4d9" stroke="none" stroke-width="0.5"/><path d="M226.1731,222.19156c3.75,0 3.75,3.75 3.75,3.75l-0.59493,1.61683c0.58056,0.98456 1.16335,1.97067 1.7585,2.95582c0.00141,-0.85755 0.00309,-1.7151 0.00309,-2.57265c0,-4.92027 -0.2801,-9.94182 0.00466,-14.85347c0.15471,-2.66856 1.01192,-5.25298 1.35276,-7.9042c0.30783,-2.39442 -0.02409,-4.82821 -0.02409,-7.24233c0,0 0,-3.75 3.75,-3.75c3.75,0 3.75,3.75 3.75,3.75c0,0.31619 0.00785,7.82911 -0.02409,8.091c-0.30441,2.49632 -1.18184,4.91779 -1.3139,7.42913c-0.06204,1.17963 -0.10219,2.36247 -0.12621,3.5475c0.35313,-1.30596 0.72041,-2.60651 1.25355,-3.84539c3.87612,-9.00707 10.28401,-13.81578 19.2748,-16.77981c3.38872,-1.11717 7.31474,-2.202 10.93985,-1.44919c3.97422,0.82531 7.38456,4.12023 10.41363,6.54585c0.61615,0.61382 4.44329,4.38044 4.71848,4.87128c1.15048,2.052 1.89185,6.50833 2.16983,8.80379c0.4122,3.40372 0.99376,8.43871 0.28415,11.87316c-1.20167,5.81598 -7.76866,11.63486 -13.58609,12.58609c-3.89047,0.63615 -8.79307,0.07658 -12.754,0.07658c-7.61105,0 -15.22219,0.00922 -22.83326,0.0001c-0.354,1.88257 -1.17805,3.5384 -3.07108,3.83626c-0.60075,0.09453 -1.18362,0.03611 -1.75,-0.13159c-0.17073,0.1548 -0.33765,0.31249 -0.49804,0.47514c-6.94813,2.00737 -13.29874,1.82008 -20.51429,1.82008c-3.33359,0 -6.79367,0.20755 -10.08733,-0.40992c-1.8844,-0.35327 -3.61404,-1.37704 -5.51335,-1.63851c-6.8497,-0.94296 -13.28371,-1.86003 -19.46031,-5.03993c-7.75895,-3.99454 -13.15375,-8.89499 -13.35567,-18.32832c0.00848,-3.32999 -0.2071,-6.19113 0.8433,-9.47069c0.54521,-1.70226 1.44528,-3.28038 2.36901,-4.81063c1.66814,-2.76344 4.1377,-5.85661 6.93431,-7.59653c4.02247,-2.50259 9.1916,-1.59199 13.57673,-0.81714c2.94596,0.52055 6.32912,1.03229 9.21205,1.70973c5.56559,1.30783 11.70005,5.67608 16.33183,9.47559c0.52525,-0.34474 1.22288,-0.57368 2.14944,-0.57368c3.75,0 3.75,3.75 3.75,3.75l-0.23813,2.01121c1.82679,1.869 3.60667,3.81643 5.38816,5.61133c0.58509,0.86964 1.14916,1.74622 1.69983,2.62786c0.02214,-0.00027 0.0444,-0.0004 0.06681,-0.0004zM206.05964,238.08543c-1.4772,-3.44679 1.9696,-4.92399 1.9696,-4.92399c0.81421,-0.34576 1.63809,-0.70687 2.46459,-1.08526c-1.63268,-0.71287 -3.25699,-1.44467 -4.87098,-2.19829c-3.1985,1.82532 -6.60188,3.33251 -9.90443,4.8138c-0.61235,0.27466 -1.2304,0.54414 -1.85375,0.80473c1.3965,0.27158 2.80145,0.53096 4.24245,0.74356c1.99894,0.29492 3.83652,1.30933 5.81998,1.69483c0.71071,0.13813 1.44265,0.2219 2.18548,0.27021c-0.01791,-0.03919 -0.03556,-0.07905 -0.05294,-0.1196zM214.7392,222.65308c-0.65979,0.77084 -1.35887,1.49504 -2.09105,2.1785c2.05483,0.9077 4.12403,1.7833 6.20345,2.63318c0.40766,-0.27888 0.80909,-0.56461 1.2032,-0.8575c-0.46991,-0.76881 -0.95052,-1.53253 -1.4484,-2.28825c-0.99009,-0.97982 -1.97845,-1.96029 -2.97227,-2.93285c-0.31804,0.50995 -0.62159,0.94756 -0.89493,1.26692zM224.88732,237.90035c-0.01788,-0.01339 -0.03516,-0.02653 -0.05183,-0.03937c-1.76777,-0.66626 -3.53247,-1.34445 -5.29176,-2.03801c-1.47068,0.84734 -2.97623,1.6348 -4.49215,2.37182c3.33438,0.00348 6.57135,-0.01595 9.83574,-0.29443zM182.88549,230.86927c3.39256,-0.20938 6.65031,-1.59948 9.74229,-3.01118c1.52332,-0.6955 3.10884,-1.38486 4.69399,-2.11689c-0.3115,-0.16604 -0.62247,-0.33313 -0.93288,-0.5013c-3.64369,-1.974 -7.1358,-4.22824 -10.6206,-6.48931c-3.91297,2.18041 -7.94364,3.64251 -12.94349,4.55057c0,0 -0.36797,0.06494 -0.89209,0.03766c1.0845,3.97183 4.54033,6.79313 8.33473,8.77639c1.02647,-1.12352 2.61805,-1.24594 2.61805,-1.24594zM208.94033,217.89671c0.24803,-0.291 0.64391,-0.96508 1.07959,-1.77007c-3.87246,-3.40795 -8.00601,-6.48602 -12.77389,-8.7906c-1.57523,-0.7614 -3.33942,-1.00975 -5.09901,-1.25784c0.17965,0.07519 0.3641,0.16602 0.55327,0.27411c3.25591,1.86052 1.39539,5.11643 1.39539,5.11643l-1.64086,2.71776c2.45897,1.55672 4.94366,3.07092 7.50249,4.4567c1.72204,0.9326 3.46161,1.83067 5.21597,2.69842c1.38089,-1.00944 2.65664,-2.14212 3.76705,-3.44493zM186.71346,209.4392l0.87039,-1.69149c0,0 0.98115,-1.71701 2.76532,-1.94478c-0.34929,-0.06205 -0.6957,-0.13121 -1.03764,-0.21168c-2.6828,-0.63133 -8.66028,-2.55465 -11.20172,-0.77184c-0.12382,0.08686 -0.24589,0.17683 -0.36625,0.26966c2.78598,1.51714 5.48783,3.18726 8.16887,4.89802c0.26533,-0.17851 0.53221,-0.36112 0.80103,-0.54789zM173.0095,211.05583c-0.37036,0.64827 -0.70372,1.31595 -0.9297,2.02309c-0.273,0.85428 -0.40723,1.82479 -0.46954,2.82114c2.48366,-0.42859 4.67716,-1.03391 6.75013,-1.84474c-1.7547,-1.05638 -3.5325,-2.06725 -5.35089,-2.99949zM251.70371,232.09706c-1.04955,-0.93675 -1.98436,-1.93209 -2.80593,-2.97699c-0.61259,0.35845 -1.22656,0.71381 -1.84245,1.06491c-0.80631,0.45966 -1.74756,1.20041 -2.74867,2.00348c2.49423,-0.00042 4.98846,0.00015 7.48269,0.0009zM253.01767,209.59161c-1.14808,2.95249 -1.50702,6.00191 -1.00319,8.84571c1.23287,-0.71716 2.46776,-1.42357 3.69916,-2.11776c0.22296,-4.14998 1.64927,-8.4302 3.444,-12.06143c-2.12571,0.76254 -4.1836,1.62942 -6.00945,2.9056c0.31185,1.24821 -0.13053,2.42788 -0.13053,2.42788zM256.64249,226.45273l0.51559,0.50385c0,0 2.60594,2.60594 0.06768,5.23443c1.31578,0.00033 2.63156,0.00055 3.94733,0.00055c2.60751,0 5.59473,0.28723 8.39003,0.25536c-3.19785,-0.90111 -6.61858,-1.81924 -9.12617,-3.95962c-1.47953,-1.26287 -2.56373,-2.70956 -3.31983,-4.27733c-0.57854,0.3432 -1.15617,0.68837 -1.73335,1.03451c0.38712,0.41981 0.80653,0.82322 1.2587,1.20826zM276.37193,226.7473c0.62551,-0.77326 1.66531,-1.47556 3.32264,-1.19233c0.82982,-2.64205 0.52935,-5.78649 0.08926,-9.49424c-0.01009,-0.08502 -0.45489,-3.10954 -0.84566,-4.81252l-0.65794,1.20723c-4.32653,3.67179 -9.43986,5.43886 -14.39874,7.94747c0.27572,0.91522 0.72417,1.86173 1.36107,2.32625c2.6227,1.9128 6.15086,2.30041 9.10462,3.31761c0.65733,0.22637 1.33822,0.51119 2.02474,0.70053zM267.35309,204.92906c-1.63815,2.60715 -2.76291,4.80337 -3.3675,7.19122c3.02214,-1.34426 6.03094,-2.68044 8.6377,-4.72001c0.05338,-0.14806 0.38625,-1.01076 1.12537,-1.70075c-1.61199,-1.41751 -3.59715,-3.10198 -5.32957,-3.41788c-0.16272,-0.02967 -0.32688,-0.05272 -0.49222,-0.06969c0.22389,1.44081 -0.57379,2.7171 -0.57379,2.7171zM272.98814,207.10797c0.13829,-0.11348 0.27537,-0.22909 0.41116,-0.34695zM244.51935,222.96161c0.27651,-0.17372 0.55373,-0.34704 0.83158,-0.51993c-0.10681,-0.33739 -0.20499,-0.67728 -0.29455,-1.01946c-0.17184,0.51357 -0.34937,1.0271 -0.53704,1.53939z" fill="#00e4d9" stroke="none" stroke-width="0.5"/><path d="M307.12793,156.56229c0.11873,0.12557 0.23041,0.26028 0.33428,0.40481c4.46384,6.21146 -4.31764,14.07283 -9.51064,15.30944c-6.32624,1.50647 -11.67991,-3.14126 -13.3924,-9.00064c-1.6933,-5.79372 1.81988,-11.09933 6.42008,-13.92358c0,0 2.76238,-1.5785 4.65226,0.71682c0.77533,-0.05736 1.58912,-0.04493 2.30858,-0.20367c1.60787,0.1156 3.37642,-0.36332 4.8236,0.34679c2.02486,0.99358 3.84824,3.73873 4.36425,6.35002z" fill="#00e4d9" stroke="none" stroke-width="0.5"/><text transform="translate(214.25,106.5) scale(0.5,0.5)" font-size="40" xml:space="preserve" fill="#000000" fill-rule="nonzero" stroke="none" stroke-width="1" stroke-linecap="butt" stroke-linejoin="miter" stroke-miterlimit="10" stroke-dasharray="" stroke-dashoffset="0" font-family="Marker" font-weight="normal" text-anchor="start" style="mix-blend-mode: normal"><tspan x="0" dy="0">player1</tspan></text></g></g></svg>