<svg version="1.1" xmlns="http://www.w3.org/2000/svg" xmlns:xlink="http://www.w3.org/1999/xlink" width="134.4848" height="137" viewBox="0,0,134.4848,137"><g transform="translate(-168.2652,-111.5)"><g data-paper-data="{&quot;isPaintingLayer&quot;:true}" fill="#0096dc" fill-rule="nonzero" stroke="none" stroke-width="0.5" stroke-linecap="butt" stroke-linejoin="miter" stroke-miterlimit="10" stroke-dasharray="" stroke-dashoffset="0" style="mix-blend-mode: normal"><path d="M266.95943,116.62829c2.37171,-0.79057 3.16228,1.58114 3.16228,1.58114l0.57974,2.78086c-0.76957,3.69991 -1.93762,6.33107 -4.81345,8.89834c-1.22146,1.09041 -3.10255,1.49521 -3.98175,2.8765c-1.94059,3.0488 1.35404,8.53608 2.92387,10.84812c0,0 0.49473,0.74209 0.44995,1.63529c0.33224,0.16261 0.66355,0.32036 0.99406,0.47086c3.8969,1.77451 7.9784,2.41126 11.90434,3.95941l1.95827,1.24107c0,0 2.08013,1.38675 0.69338,3.46688c-1.38675,2.08013 -3.46688,0.69338 -3.46688,0.69338l-1.04173,-0.75893c-2.15162,-0.87559 -4.37594,-1.46381 -6.59505,-2.10846c0.02353,0.17583 0.02353,0.28727 0.02353,0.28727c0,5.24909 -0.31339,10.67913 -0.23605,16.06728c1.25773,-0.60556 2.65525,-1.05669 3.94548,-1.43899c1.38449,-0.41023 2.7915,-1.45157 4.19103,-1.09601c3.96681,1.0078 6.50341,5.92347 10.4153,7.10455c0.62171,0.18771 1.1709,0.28976 1.68306,0.34081c-1.68339,-4.34248 -2.61901,-10.45003 -1.43193,-15.05202c0.27925,-1.0826 1.16093,-1.93462 1.5,-3c1.26073,-3.96128 -3.04687,-7.62541 -5.85312,-9.28189l-0.83179,-0.40766c0,0 -2.23607,-1.11803 -1.11803,-3.3541c1.11803,-2.23607 3.3541,-1.11803 3.3541,-1.11803l1.16821,0.59234c4.42363,2.68929 7.38312,5.94063 8.1896,11.29698c0.32774,2.17675 -0.92774,4.3075 -1.54271,6.42114c-1.04132,3.57899 -0.09543,9.17405 1.36474,12.44082c0,0 0.31222,0.72851 0.17486,1.54093c0.79994,0.18287 1.57906,0.70977 2.36907,0.53207c0.68423,-0.15391 1.02792,-0.93956 1.51552,-1.45823l-0.85732,0.87003c0,0 0,-2.5 2.5,-2.5c2.5,0 2.5,2.5 2.5,2.5l-0.93826,2.95217c-1.13451,0.81988 -2.05008,2.10258 -3.40353,2.45963c-1.40382,0.37033 -2.88593,-0.33551 -4.33543,-0.41809c-4.08568,-0.23275 -7.12159,-0.07252 -10.69354,-2.40301c-2.31697,-1.51169 -3.91664,-4.21442 -6.5297,-5.12298c-0.6367,-0.22138 -1.18203,0.65633 -1.80897,0.90399c-1.34783,0.53242 -6.57214,1.02368 -3.29057,2.62829c0,0 2,1.5 0.5,3.5c-0.60102,0.80137 -1.28232,1.04082 -1.88307,1.04c0.26274,1.54375 0.59949,3.07118 1.02829,4.57658c0.90613,3.18122 2.54093,6.4033 4.57766,8.97845c1.47255,1.86182 3.77713,3.06315 4.9318,5.13715c0.66636,1.19691 0.73315,2.64276 1.20088,3.93034c1.34284,3.69663 3.3123,7.81774 3.54602,11.76731l1.09843,-0.42983c0,0 2.5,0 2.5,2.5c0,2.5 -2.5,2.5 -2.5,2.5l-3.90157,-0.42983c-2.44273,-4.63407 -3.73635,-9.32631 -5.45398,-14.23269c-0.34936,-0.99794 -0.30421,-2.13532 -0.79912,-3.06966c-0.99996,-1.88782 -3.20593,-2.85893 -4.5212,-4.54234c-0.93987,-1.20293 -1.80863,-2.50137 -2.58352,-3.8627c-0.73559,0.63722 -1.74061,0.63722 -1.74061,0.63722c-0.66157,-0.00024 -1.3249,0.00251 -1.98941,0.00939c0.36583,0.784 0.66807,1.73585 0.94968,3.0467c0.6622,3.08233 -0.76999,6.12576 -0.96879,9.15012c-0.44498,6.76951 -0.42534,14.32135 1.69338,20.81978c0.51749,1.58723 1.24002,4.41166 3.09711,5.32773c1.3122,0.64728 2.81702,0.79231 4.22553,1.18846l0.62293,-0.03877c0,0 2.4966,0.13043 2.36616,2.62703c-0.13043,2.4966 -2.62703,2.36616 -2.62703,2.36616l-1.79881,-0.16529c-1.78424,-0.56167 -3.7291,-0.75613 -5.35273,-1.68501c-3.21292,-1.83813 -4.16335,-4.75719 -5.27172,-8.02463c-2.40225,-7.08173 -2.43702,-15.43224 -1.9378,-22.82786c0.22163,-3.28323 2.23593,-7.14676 0.13707,-10.25002c-0.3201,-0.47328 -0.68539,-0.91139 -1.07033,-1.33421c-2.71031,0.16846 -5.41147,0.46113 -8.06421,0.95471c-0.5197,0.0967 -6.778,0.7655 -7.18167,2.74346c-0.71732,3.51484 -1.22822,10.30031 0.05312,13.83484c1.0411,2.87185 4.35277,6.37247 4.60302,9.48875c0.31959,3.97974 -2.22326,6.36012 -4.12903,9.44302c-2.50101,1.93762 -4.48787,3.44635 -7.42801,4.64684l-0.90049,0.11272c0.57594,0.64298 1.04825,1.37972 1.34372,2.27552c0.81476,2.4702 0.12829,6.63897 0.12829,9.29057v0.5c0,0 0,2.5 -2.5,2.5c-2.5,0 -2.5,-2.5 -2.5,-2.5v-0.5c0,-2.2807 0.646,-5.5299 0.12829,-7.70943c-0.16534,-0.69607 -2.52964,-2.20532 -2.69261,-2.34046c-3.24312,-2.68949 -4.54429,-3.22359 -5.82197,-7.20469c-3.12442,-9.73534 4.73069,-22.38013 -5.61372,-29.74542c0,0 -2,-1.5 -0.5,-3.5c1.5,-2 3.5,-0.5 3.5,-0.5c4.72724,3.66937 7.82502,10.37018 7.99884,16.42378c0.14987,5.21978 -2.11375,10.60791 -0.61255,15.8308c0.63709,2.21653 2.35877,3.4741 4.11388,4.70997c0.02352,-2.46456 2.49983,-2.46456 2.49983,-2.46456l-0.42848,0.17881c2.20649,-0.85932 3.66212,-1.98849 5.57199,-3.35316c0.87415,-1.51431 3.09284,-3.64008 2.87097,-5.55698c-0.15513,-1.34032 -1.62102,-2.46931 -2.17041,-3.50298c-0.85743,-1.61326 -1.61822,-3.28555 -2.22657,-5.00826c-0.93218,-2.63974 -0.62023,-5.52302 -0.6175,-8.25846c0.00605,-6.06123 -0.23171,-11.39278 6.398,-13.53186c2.97458,-0.95975 7.24794,-1.60414 10.34705,-1.95408c0.49423,-0.05581 0.98955,-0.10569 1.48571,-0.15027c0.1408,-0.24862 0.34277,-0.49903 0.62298,-0.74421c1.88144,-1.64626 3.5277,0.23518 3.5277,0.23518c0.07027,0.08153 0.13953,0.16135 0.2078,0.23955c1.863,-0.06989 3.72832,-0.09039 5.58381,-0.09301c-0.30861,-0.80558 -0.58133,-1.62014 -0.81431,-2.43815c-2.98391,-10.47691 -1.85874,-21.7953 -1.85874,-32.56213c0,0 0,-0.99525 0.62795,-1.72984c-0.38595,-0.15368 -0.77012,-0.31623 -1.15209,-0.48956c-2.7492,-1.24751 -5.6253,-3.18989 -8.60026,-3.85983c-0.9208,-0.20736 -1.86238,-0.35634 -2.79864,-0.5221c1.23535,3.1866 2.0618,6.60584 0.6591,9.71936c-0.38667,0.85829 -1.69137,0.99271 -2.17669,1.79934c-1.38248,2.29779 -1.53031,5.54116 -3.66828,7.15985c-1.4297,1.08245 -5.07083,0.97617 -7.10188,0.93348c-0.41738,1.05296 -0.96667,2.06939 -1.51828,3.05038c3.49724,2.96325 4.80342,10.83803 2.49683,14.20668c-0.87919,1.28402 -3.06109,0.80055 -4.61452,0.70807c-2.24642,-0.13374 -5.58882,-1.47668 -7.07263,-3.37397c-0.84849,-1.08493 -1.42943,-2.16758 -1.78197,-3.24992c-0.20845,-0.13805 -0.39872,-0.28956 -0.56219,-0.46089c-2.46723,3.86694 -1.85119,9.30859 -4.02655,13.27783c-0.2181,0.39796 -0.44828,0.7601 -0.68878,1.09282c-0.04162,0.26445 -0.13185,0.54989 -0.28507,0.85634c-0.51968,1.03937 -1.28093,1.35406 -1.94688,1.3932c-1.60179,1.22699 -3.37358,2.09165 -5.00099,3.73587c-3.76272,3.80159 0.22234,5.9417 1.13679,10.1451c0.8293,3.81202 0.54383,6.05281 0.44672,9.89837c-0.81811,1.0896 -1.33919,2.48587 -2.45434,3.26881c-1.99347,1.39962 -4.6245,1.57991 -6.79934,2.67669l-3.23607,-0.5c0,0 -2.23607,-1.11803 -1.11803,-3.3541c1.11803,-2.23607 3.3541,-1.11803 3.3541,-1.11803l-0.04106,0.01661c1.90715,-0.68199 4.74175,-1.4863 5.55132,-2.57111c-0.08428,-2.07961 -0.14121,-5.14007 -0.55328,-7.10163c-0.75658,-3.60148 -4.14991,-6.01273 -3.00384,-10.20006c1.03717,-3.78947 3.97046,-5.1239 6.58386,-6.87258c-4.70641,-2.10108 -10.38935,-4.87294 -11.10991,-9.56239c-0.15859,-1.03212 0.02157,-2.07884 0.16272,-3.12387c-2.73534,0.0802 -6.73125,-2.08054 -7.54319,-3.95664c-0.02329,-0.05381 -0.0436,-0.11367 -0.06113,-0.17914c-1.14749,0.43536 -2.39751,0.64831 -3.55888,1.05816c-0.48451,0.17099 -1.25314,0.08609 -1.4332,0.56731c-0.88741,2.37158 1.10511,5.22565 0.20823,7.59367c-0.1671,0.44121 -0.46322,0.7975 -0.81979,1.11238c-0.02869,0.50884 -0.17869,0.88384 -0.17869,0.88384c-1.45131,3.61492 -3.88181,8.41184 -4.32602,12.22687c-0.24658,2.11774 1.33713,4.05393 2.16638,6.01811c1.58781,3.7609 4.8691,8.48037 5.32763,12.59425c0.02673,0.23983 -0.87378,5.13641 -1.03773,5.72259c-0.12583,0.44988 -0.70258,0.8408 -0.55872,1.28525c0.39227,1.21191 2.08616,1.46294 3.10727,2.22446l0.61803,0.26393c0,0 2.23607,1.11803 1.11803,3.3541c-1.11803,2.23607 -3.3541,1.11803 -3.3541,1.11803l-1.38197,-0.73607c-1.50222,-1.13219 -4.29833,-3.00812 -4.89273,-4.77554c-0.87429,-2.59964 1.70021,-5.49544 1.40355,-7.99216c-0.78081,-6.57125 -8.04398,-12.36305 -7.50599,-19.38765c0.21058,-2.74947 1.41881,-5.99332 2.68021,-9.02565c-2.07607,0.52285 -4.2762,0.68594 -6.48515,1.01415c-0.22226,0.20619 -0.48207,0.37247 -0.76804,0.48741l-3.44704,1.4773l-0.15548,-0.36279c-0.33954,0.2312 -0.68412,0.45372 -1.03424,0.66591c-0.59738,1.39901 -2.29508,1.39901 -2.29508,1.39901l-1.9848,-4.79786c1.11895,-0.47955 2.14353,-1.42726 3.34528,-1.49609c0.31445,-0.51882 0.8123,-0.91412 1.40363,-1.09598l2.94531,-0.98177l0.02711,0.08134l0.16083,-0.13591c3.67163,-0.6206 6.99978,-0.67806 10.10263,-2.57372c0.03702,-0.02262 0.07812,-0.04079 0.12216,-0.05564c-2.13963,-3.14978 -4.73893,-6.38603 -6.33661,-9.78409c-0.58679,-1.24802 -1.13758,-2.56358 -1.27545,-3.93575c-0.10516,-1.0466 0.69421,-2.05977 0.56811,-3.10406c-0.06214,-0.51459 -0.71881,-0.74697 -1.07822,-1.12045l-0.92536,-2.89366c0,0 -0.60634,-2.42536 1.81902,-3.0317c2.42536,-0.60634 3.0317,1.81902 3.0317,1.81902l0.07464,1.10634c0.64059,0.95985 1.67395,1.75249 1.92178,2.87955c0.42719,1.94271 -0.66117,4.21468 0.29266,5.96019c0.82784,1.51493 1.76231,2.99026 2.73521,4.44763c0.11274,-0.38702 0.25614,-0.76361 0.4389,-1.12595c1.88948,-3.74602 7.77001,-1.93965 9.81423,-5.16831c0.02795,-0.17132 0.05489,-0.33919 0.08038,-0.50258c-0.07409,-0.31877 -0.29613,-0.66636 -0.28318,-0.99052c0.05973,-1.49436 -0.42182,-3.26263 0.47189,-4.46178c1.98605,-2.66481 8.57735,-3.01692 11.52811,-3.03822c0,0 0.16165,0 0.40274,0.04111c-1.32788,-4.74948 -0.90742,-9.83044 -2.69313,-14.53905c-0.79413,-2.09398 -4.48183,-2.63525 -4.62838,-4.86996c-0.24869,-3.79203 2.91415,-6.78988 6.01728,-7.96391c0.46414,-0.1756 1.00223,0.41768 1.46814,0.24683c0.23877,-0.08756 -0.28071,-0.42489 -0.43835,-0.62446c-0.4364,-0.55245 -1.03375,-0.99771 -1.34274,-1.6303c-0.56175,-1.15007 -0.98221,-2.38171 -1.23026,-3.63738c-0.72015,-3.64556 -0.55111,-6.82358 -0.55471,-10.49712l-0.00058,-1.52481c0,0 -0.00095,-2.5 2.49905,-2.50095c2.5,-0.00095 2.50095,2.49905 2.50095,2.49905l0.00058,1.52481c-0.00088,3.49486 -0.15931,6.00676 0.44413,9.45325c0.64233,3.66862 4.34948,5.06472 2.48155,9.17645c4.32422,-1.67845 8.22253,-4.33339 12.95442,-5.57564c1.28426,-0.33715 2.61587,-0.50758 3.9421,-0.57164c0.85638,-0.04136 1.83795,0.72122 2.55919,0.25764c1.67851,-1.07886 2.18199,-3.34653 3.40359,-4.9242l0.84274,-2.6303c0,0 0.79057,-2.37171 3.16228,-1.58114c2.37171,0.79057 1.58114,3.16228 1.58114,3.16228l-1.15726,3.3697c-0.85378,1.16516 -2.91101,4.01799 -4.32602,5.73756c3.75636,2.10172 6.89161,4.90432 10.5441,7.15012c0.17318,-0.03104 0.36187,-0.04795 0.56747,-0.04795c1.5111,0 2.10883,0.91337 2.34527,1.63596c0.05944,0.02801 0.11907,0.05583 0.17887,0.08344c1.8914,0.87342 4.07254,0.88169 6.10026,1.35983c0.45182,0.10654 0.9003,0.23629 1.34574,0.38443c-1.70125,-3.77098 -2.67749,-8.2095 -0.6264,-11.7288c1.45517,-2.49681 4.95633,-3.33194 6.62815,-5.69664c1.25758,-1.77877 1.19843,-2.53415 1.57665,-4.52851l-0.42026,-0.21914c0,0 -0.79057,-2.37171 1.58114,-3.16228zM202.75,165.5c-0.00987,2.63407 0.19045,3.51426 -0.54855,5.99029c-0.12165,0.40758 -0.63996,0.69278 -0.6161,1.11745c0.04958,0.88227 1.74415,0.28534 2.61535,0.43322c1.07456,0.1824 2.24749,0.06524 3.22294,0.55151c0.08066,0.04021 0.16048,0.08178 0.23953,0.1246l0.01531,-0.03826l2.44593,0.97837c0.94948,0.35452 1.62559,1.26971 1.62559,2.34282c0,0.92661 -0.50412,1.73548 -1.25305,2.16731l-1.45397,0.87238c1.48259,3.59617 6.20349,5.50221 10.05151,7.1814c0.59198,-1.266 0.8744,-4.14783 1.25915,-5.43345c1.61389,-5.39276 3.32824,-10.74343 8.75729,-13.14856c0.1551,-0.30806 0.32051,-0.61648 0.49533,-0.92531c0,0 1.28624,-2.14373 3.42997,-0.85749c0.31737,0.19042 0.55957,0.39964 0.74189,0.61792c0.04843,0.00425 0.09677,0.00948 0.14499,0.01573c0.19915,-0.3912 0.42326,-0.81039 0.67822,-1.26791c1.07557,-1.93009 2.40309,-3.62998 1.71554,-6.14763c-0.31203,-1.14258 -1.34382,-2.03443 -1.53908,-3.20264c-0.15913,-0.952 0.67265,-1.89281 0.52788,-2.8471c-0.10232,-0.67448 -0.6654,-1.23982 -1.21018,-1.65044c-1.54732,-1.1663 -3.46961,-1.73457 -5.13173,-2.73046l-0.83179,-0.40766c0,0 -2.23607,-1.11803 -1.11803,-3.3541c1.11803,-2.23607 3.3541,-1.11803 3.3541,-1.11803l1.16821,0.59234c1.91935,1.15332 4.27544,1.6957 5.86827,3.26954c1.22525,1.21063 2.28142,2.70384 2.78982,4.34956c0.31366,1.01534 -0.64633,2.10459 -0.47212,3.1529c0.17245,1.03772 1.22418,1.77239 1.46092,2.79736c0.13336,0.57741 0.17753,1.16999 0.17594,1.76638c1.28245,0.22915 2.58389,0.49303 3.49984,-0.26922c1.27734,-1.06298 1.81196,-4.97156 2.33172,-5.84015c0.37366,-0.62445 1.44717,-0.5777 1.82331,-1.20066c0.24241,-0.40147 -0.23142,-0.91411 -0.26393,-1.38197c-0.11114,-1.59942 0.24956,-3.07059 -0.34604,-4.63622c-0.49542,-1.30232 -1.26495,-2.4832 -1.90822,-3.72077c-4.80921,-2.74046 -8.56927,-6.66403 -13.73054,-8.84514c0,0 -1.11,-0.47571 -1.45642,-1.53736c-1.00575,-0.06048 -2.0096,-0.09104 -2.93947,0.16157c-6.52394,1.77228 -11.37171,5.81127 -17.99082,6.93597c0.45656,0.6743 0.84265,1.39961 1.16189,2.1399c2.17021,5.03255 1.34372,10.6949 3.08132,15.71149c0,0 0.79057,2.37171 -1.58114,3.16228c-0.49727,0.16576 -0.92503,0.1925 -1.29057,0.13123c-0.00196,2.49706 -2.5,2.49706 -2.5,2.49706c-1.94299,-0.0177 -3.8575,0.49882 -5.76114,0.88832c-0.22231,0.04549 -0.48327,-0.00511 -0.73886,-0.05414z"/></g></g></svg>