<svg version="1.1" xmlns="http://www.w3.org/2000/svg" xmlns:xlink="http://www.w3.org/1999/xlink" width="31.69275" height="38.71582" viewBox="0,0,31.69275,38.71582"><g transform="translate(-224.2576,-59.75349)"><g data-paper-data="{&quot;isPaintingLayer&quot;:true}" fill="#6f0000" fill-rule="nonzero" stroke="none" stroke-width="0.5" stroke-linecap="butt" stroke-linejoin="miter" stroke-miterlimit="10" stroke-dasharray="" stroke-dashoffset="0" style="mix-blend-mode: normal"><path d="M250.21238,77.69767c-0.87737,0.16449 -1.71049,0.2721 -2.37363,0.38025c-3.04065,0.4959 -6.07127,0.3533 -9.13852,0.3533c-1.89024,0 -3.78414,0.11271 -5.67073,-0.00483c-0.91619,-0.05708 -1.84869,-0.09136 -2.73322,-0.33684c-0.4552,-0.12633 -0.73046,-0.80997 -1.19961,-0.75462c-0.31122,0.03672 0.37033,0.53691 0.40519,0.84835c0.21581,1.92803 -0.30411,3.9029 -0.00777,5.8202c0.17246,1.11582 0.79001,2.13026 0.9733,3.24434c0.29274,1.77932 0.50542,3.60245 0.3461,5.39864c-0.03673,0.41411 -1.0229,0.883 -0.64911,1.06497c0.5693,0.27715 1.20632,-0.42073 1.83601,-0.48715c0.93038,-0.09814 1.87108,-0.00217 2.80662,-0.00257c4.84483,-0.00206 10.90262,0.98665 15.56083,-0.60275c1.29531,-0.44197 0.43193,-4.95901 0.43193,-5.98142c0.0193,-3.02795 -0.42191,-5.93276 -0.5874,-8.93988zM255.08808,75.46805l0.06283,0.13874c0,3.78348 0.62901,7.26759 0.64887,11.03077c0,3.66046 1.13213,7.96924 -2.81241,10.2403c-2.70884,1.55961 -5.55511,1.33666 -8.44732,1.34386c-4.11298,0.01024 -8.69491,0.5536 -12.76623,-0.00257c-1.79067,-0.24462 -3.94766,0.06119 -5.30155,-1.13602c-0.07781,-0.06881 -0.91906,-5.82468 -0.97355,-6.72145c-0.252,-4.14765 -1.88588,-8.5422 -0.9594,-12.78931c0.30387,-1.39299 0.41195,-3.13207 1.40932,-4.09958c-0.13031,-0.43707 -0.13031,-0.78591 -0.13031,-0.78591c0.03554,-2.98189 -0.33259,-4.05335 1.32097,-6.78719c2.3249,-3.84376 5.69953,-4.5329 9.74685,-5.39194c5.0291,-1.06742 9.07207,-1.51469 13.24782,2.2359c2.53806,2.27965 7.23372,8.31364 5.40187,12.03456c-0.12317,0.25018 -0.27391,0.47945 -0.44776,0.68984zM230.77195,73.11969c0.03699,0.00181 0.07382,0.00327 0.11051,0.00434c2.61261,0.07593 5.18054,0.30719 7.81777,0.30719c2.00297,0 4.00887,0.11308 6.00891,0.00483c1.46777,-0.07944 4.13261,-0.62865 5.46353,-0.82699c0.09901,-0.01475 0.21541,0.00206 0.33194,0.02107c0.03575,-0.02581 0.07264,-0.0514 0.11068,-0.07677c0.14477,-0.09651 0.28618,-0.17623 0.424,-0.24103c-0.10311,-0.15241 -0.33815,-0.30012 -0.43566,-0.45705c-1.14787,-1.84738 -2.27255,-3.93481 -3.87109,-5.44689c-2.7943,-2.64317 -5.48026,-1.70383 -8.81371,-1.00844c-4.81117,1.00365 -7.18564,2.03686 -7.1005,7.28693c0,0 0,0.17519 -0.04638,0.43281z"/><path d="M240.3224,89.78643c-2.5,0 -2.5,-2.5 -2.5,-2.5c0,-1.08145 0,-4.1095 0,-5.19095c0,0 0,-2.5 2.5,-2.5c2.5,0 2.5,2.5 2.5,2.5c0,1.08145 0,2.1629 0,3.24434v1.94661c0,0 0,2.5 -2.5,2.5z"/></g></g></svg>