<svg version="1.1" xmlns="http://www.w3.org/2000/svg" xmlns:xlink="http://www.w3.org/1999/xlink" width="46.625" height="51.625" viewBox="0,0,46.625,51.625"><g transform="translate(-216.1875,-155.25)"><g data-paper-data="{&quot;isPaintingLayer&quot;:true}" fill-rule="nonzero" stroke-width="0.5" stroke-linecap="butt" stroke-linejoin="miter" stroke-miterlimit="10" stroke-dasharray="" stroke-dashoffset="0" style="mix-blend-mode: normal"><path d="M251.98495,186.41768c-1.11583,-1.70667 -3.0437,-2.83434 -5.23495,-2.83434c-3.45178,0 -6.25,2.79822 -6.25,6.25c0,1.24121 0.36181,2.39791 0.98572,3.37039c-0.48801,0.05112 -0.98371,0.07735 -1.48572,0.07735c-3.77466,0 -7.19241,-1.4829 -9.66836,-3.88112c1.32789,-1.14611 2.16836,-2.84155 2.16836,-4.73328c0,-3.39828 -2.71215,-6.1631 -6.08997,-6.24799c0.32875,-2.68897 1.48536,-5.1316 3.21558,-7.08119c1.07775,0.88279 2.45588,1.41251 3.95772,1.41251c3.37816,0 6.13034,-2.68013 6.2462,-6.03006c0.05674,-0.00067 0.11356,-0.00101 0.17047,-0.00101c0.98429,0 1.9443,0.10083 2.86968,0.29243c0.2973,2.7559 2.38604,4.97495 5.07811,5.46906c-1.2967,1.14519 -2.11447,2.82022 -2.11447,4.68624c0,3.45178 2.79822,6.25 6.25,6.25c0.4017,0 0.79455,-0.0379 1.17517,-0.11031c-0.29001,1.09839 -0.72115,2.14192 -1.27354,3.11131zM238.9,185.25001c3.45178,0 6.25,-2.79822 6.25,-6.25c0,-3.45178 -2.79822,-6.25 -6.25,-6.25c-3.45178,0 -6.25,2.79822 -6.25,6.25c0,3.45178 2.79822,6.25 6.25,6.25z" fill="#00ceff" stroke="#00dcdc"/><path d="M230.1875,157.75c0.2583,-3.08697 3.76357,-2.95234 4.88994,-0.73588c2.49333,4.90633 -2.5792,8.0738 -4.74319,1.58181c-0.09499,-0.2642 -0.14675,-0.54902 -0.14675,-0.84593c0,-1.38071 1.11929,-2.5 2.5,-2.5c1.38071,0 2.5,1.11929 2.5,2.5c0,1.38071 -1.11929,2.5 -2.5,2.5c-1.0838,0 -2.00653,-0.68966 -2.35325,-1.65407z" fill="#00ceff" stroke="none"/><path d="M237.0625,158.875c0.5065,-3.44655 3.84322,-2.64026 4.96482,-0.42033c0.02314,0.13666 0.03518,0.27709 0.03518,0.42033c0,1.38071 -1.11929,2.5 -2.5,2.5c-1.38071,0 -2.5,-1.11929 -2.5,-2.5c0,-1.38071 1.11929,-2.5 2.5,-2.5c1.23747,0 2.26494,0.89909 2.46482,2.07967c0.32077,0.63488 0.46036,1.38538 0.30076,2.18508c-0.85317,4.27506 -4.66011,1.51014 -5.2069,-1.22384z" fill="#00ceff" stroke="none"/><path d="M253.3184,166.22053c-3.6939,-1.84695 -1.45237,-4.82499 1.29705,-5.21776c0.38352,-0.23942 0.83663,-0.37777 1.32205,-0.37777c1.38071,0 2.5,1.11929 2.5,2.5c0,0.51437 -0.15534,0.99246 -0.42167,1.38991c-0.83522,1.48645 -3.35999,2.37435 -4.69744,1.70562z" fill="#00ceff" stroke="none"/><path d="M255.6875,174.5c0,-1.53957 3.79886,-4.07074 4.89383,-2.15454c0.73685,0.43488 1.23117,1.23698 1.23117,2.15454c0,1.38071 -1.11929,2.5 -2.5,2.5c-0.16631,0 -0.32884,-0.01624 -0.48606,-0.04722c-1.57158,0.66526 -3.13894,0.42703 -3.13894,-2.45278z" fill="#00ceff" stroke="none"/><path d="M259.83797,188.59937c-2.0447,-0.40608 -4.90397,-3.63139 -2.91823,-5.61713c0.707,-0.707 6.20834,-0.01402 5.7584,2.3321c0.0871,0.25422 0.13437,0.52692 0.13437,0.81066c0,1.38071 -1.11929,2.5 -2.5,2.5c-0.00276,0 -0.00552,0 -0.00827,-0.00001c-0.14306,0.01514 -0.29754,0.00789 -0.46626,-0.02562z" fill="#00ceff" stroke="none"/><path d="M255.0625,191.375c-0.31974,-1.5987 3.87206,-3.81764 4.89383,-2.02954c0.73685,0.43488 1.23117,1.23698 1.23117,2.15454c0,1.38071 -1.11929,2.5 -2.5,2.5c-0.26279,0 -0.51612,-0.04055 -0.75405,-0.11573c-1.26629,0.18236 -2.46176,-0.46333 -2.87095,-2.50927z" fill="#00ceff" stroke="none"/><path d="M245.5625,203.375c0,-1.00064 1.49772,-2.31906 2.90079,-2.72845c-0.36105,-0.42317 -0.53746,-0.89543 -0.40079,-1.39655c0.78907,-2.89327 5.93555,-2.88933 6.4371,-0.8473c0.42629,0.44837 0.6879,1.05478 0.6879,1.7223c0,1.06481 -0.6657,1.97414 -1.60363,2.3345c-0.09104,0.04898 -0.18907,0.08708 -0.29542,0.11224c-0.07442,0.0176 -0.16295,0.02771 -0.26335,0.03066c-0.11041,0.0149 -0.22311,0.0226 -0.33761,0.0226c-0.38715,0 -0.75375,-0.088 -1.08089,-0.2451c0.13245,0.30494 0.20589,0.64144 0.20589,0.9951c0,1.38071 -1.11929,2.5 -2.5,2.5c-0.1739,0 -0.34366,-0.01776 -0.50756,-0.05156c-1.61715,0.67764 -3.24244,0.44228 -3.24244,-2.44844z" fill="#00ceff" stroke="none"/><path d="M237.6875,204.375c0,-1.38071 1.11929,-2.5 2.5,-2.5c1.38071,0 2.5,1.11929 2.5,2.5c0,1.38071 -1.11929,2.5 -2.5,2.5c-1.38071,0 -2.5,-1.11929 -2.5,-2.5z" fill="#00ceff" stroke="none"/><path d="M228.5625,201c0,-1.38071 1.11929,-2.5 2.5,-2.5c1.38071,0 2.5,1.11929 2.5,2.5c0,1.38071 -1.11929,2.5 -2.5,2.5c-1.38071,0 -2.5,-1.11929 -2.5,-2.5z" fill="#00ceff" stroke="none"/><path d="M221.9375,191.75c0,-1.38071 1.11929,-2.5 2.5,-2.5c1.38071,0 2.5,1.11929 2.5,2.5c0,1.38071 -1.11929,2.5 -2.5,2.5c-1.38071,0 -2.5,-1.11929 -2.5,-2.5z" fill="#00ceff" stroke="none"/><path d="M223.1875,176.5c-0.03149,0.37633 -0.10129,0.70384 -0.20216,0.98649c-0.36538,1.0238 -1.13838,1.45891 -1.97456,1.4928c-0.10583,0.01366 -0.21373,0.02071 -0.32328,0.02071c-0.64886,0 -1.23999,-0.2472 -1.68434,-0.65255c-0.89579,-0.63628 -1.43459,-1.66975 -0.91119,-2.71656c1.2352,-2.4704 4.06804,-2.61907 4.94878,0.02318z" fill="#00ceff" stroke="none"/><path d="M216.1875,165.25c0,-1.38071 1.11929,-2.5 2.5,-2.5c1.38071,0 2.5,1.11929 2.5,2.5c0,1.38071 -1.11929,2.5 -2.5,2.5c-1.38071,0 -2.5,-1.11929 -2.5,-2.5z" fill="#00ceff" stroke="none"/><path d="M222.5625,162.375c0,-1.38071 1.11929,-2.5 2.5,-2.5c1.38071,0 2.5,1.11929 2.5,2.5c0,1.38071 -1.11929,2.5 -2.5,2.5c-1.38071,0 -2.5,-1.11929 -2.5,-2.5z" fill="#00ceff" stroke="none"/></g></g></svg>