<svg version="1.1" xmlns="http://www.w3.org/2000/svg" xmlns:xlink="http://www.w3.org/1999/xlink" width="108.32627" height="203.13859" viewBox="0,0,108.32627,203.13859"><g transform="translate(-188.14417,-76.33371)"><g data-paper-data="{&quot;isPaintingLayer&quot;:true}" fill-rule="nonzero" stroke-linecap="butt" stroke-linejoin="miter" stroke-miterlimit="10" stroke-dasharray="" stroke-dashoffset="0" style="mix-blend-mode: normal"><path d="M290.75001,124.67813c0,22.36753 -18.35633,40.5 -41,40.5c-22.64367,0 -41,-18.13247 -41,-40.5c0,-22.36753 18.35633,-40.5 41,-40.5c22.64367,0 41,18.13247 41,40.5z" fill="none" stroke="#000000" stroke-width="5"/><path d="M189.25001,176.67815c0,-2.40919 2.32168,-2.4967 2.49034,-2.49988c2.57611,-1.0957 5.83666,-2.47531 8.53689,-2.95501c0.33921,-0.06026 6.64856,-0.04511 6.97277,-0.04511c5.5,0 11,0 16.5,0c4.58848,0 9.26553,0.25872 13.84466,0.00483c2.60847,-0.14463 5.1394,-0.44536 7.68838,-0.68032c-15.1106,-4.65494 -31.55398,-10.48322 -47.28669,-7.33667l-3.24634,0.01217c0,0 -2.5,0 -2.5,-2.5c0,-2.5 2.5,-2.5 2.5,-2.5l2.75366,0.01217c16.42386,-3.28477 33.48572,2.74869 49.23709,7.54607c0.07216,-0.33113 0.2301,-0.68602 0.50926,-1.05823c1.5,-2 3.5,-0.5 3.5,-0.5c0.88373,0.74209 2.10488,1.20979 2.65119,2.22627c1.3529,2.51724 1.233,6.64534 1.81653,9.37328c0.33074,1.54616 1.17942,2.9517 1.5,4.5c0.75404,3.64178 0.03228,8.18219 0.03228,11.90046c0,3.9513 0.6031,8.50655 -0.03228,12.40046c-0.32821,2.01143 -0.86247,3.92895 -1.57997,5.76174c2.25269,0.8222 1.48396,3.12837 1.48396,3.12837c-1.27564,3.68286 -0.87171,7.31848 -0.87171,11.20943c0,5.84048 0.71794,10.6212 1.92679,16.38711c0.32157,1.5338 1.17803,6.17671 2.17514,7.75942c1.78036,2.82597 5.02611,5.74622 7.26088,8.18616c3.71159,4.05232 5.83065,8.11234 10.38428,11.3791c0.49271,0.66685 1.06688,1.28406 1.69937,1.83368c0.16935,-0.02947 0.35343,-0.04548 0.55353,-0.04548c2.5,0 2.5,2.5 2.5,2.5l-3.78624,3.14373c-1.67126,-1.03422 -3.27123,-2.29108 -4.46086,-3.85553c-4.63803,-3.29805 -6.85789,-7.52483 -10.61572,-11.6209c-1.79781,-1.95963 -3.45047,-4.0489 -5.10769,-6.12877c-0.78093,-0.98009 -1.98346,-1.61241 -2.63142,-2.68507c-1.54625,-2.55973 -2.26107,-6.5837 -2.8637,-9.43477c-1.54392,-7.3044 -3.07046,-15.92443 -2.22783,-23.79923c-0.09441,0.12202 -0.18968,0.24363 -0.28582,0.36482c-6.39498,2.7648 -13.29696,4.39469 -19.17333,8.12155c-12.24394,7.76524 -15.79326,23.7455 -15.87967,37.29462l-1,3v2.5l-1,3l0.03228,2.09954h-5l0.03228,-2.90046l1,-3v-2.5l1,-3c-0.10605,-15.00383 4.80927,-32.20956 18.12033,-40.70538c5.7157,-3.64806 12.4433,-5.65972 18.82667,-7.87845c4.77989,-7.12706 4.52072,-14.21699 4.52072,-22.51571c0,-3.41938 0.77233,-7.77195 0.03228,-11.09954c-0.34325,-1.54343 -1.16814,-2.95408 -1.5,-4.5c-0.09163,-0.42684 -0.15365,-0.8947 -0.2036,-1.38551c-4.12629,0.10635 -8.0405,0.75019 -12.17334,0.98022c-4.68228,0.26061 -9.46344,0.00483 -14.15534,0.00483c-5.5,0 -11,0 -16.5,0c-2.00913,0 -4.05241,-0.41484 -6.02723,-0.04511c-2.55636,0.47861 -5.6227,1.81866 -7.98797,2.84297l-1.4848,0.20214c0,0 -2.5,0 -2.5,-2.5z" fill="#000000" stroke="none" stroke-width="0.5"/><path d="M229.25001,132.17815c-2.5,0 -2.5,-2.5 -2.5,-2.5l0.17881,-1.42848c1.8762,-4.42744 0.80707,-10.54702 1.33648,-15.3476c0,0 0.27608,-2.48471 2.76079,-2.20863c2.48471,0.27608 2.20863,2.76079 2.20863,2.76079c-0.61908,5.5278 0.32975,11.45567 -1.66352,16.6524l0.17881,-0.42848c0,0 0,2.5 -2.5,2.5z" fill="#000000" stroke="none" stroke-width="0.5"/><path d="M245.96377,132.32186c-2.14373,-1.28624 -0.85749,-3.42997 -0.85749,-3.42997l1.42212,-2.36025c1.48986,-3.41873 3.01571,-6.819 4.40042,-10.28199c0,0 0.92848,-2.32119 3.24967,-1.39272c2.32119,0.92848 1.39272,3.24967 1.39272,3.24967c-1.44496,3.61119 -3.03603,7.15695 -4.59958,10.71801l-1.57788,2.63975c0,0 -1.28624,2.14373 -3.42997,0.85749z" fill="#000000" stroke="none" stroke-width="0.5"/><path d="M253.75001,142.17815c0,2.5 -2.5,2.5 -2.5,2.5h-2.5c-2.49245,0 -4.95181,-0.19556 -7.39737,0.42628c-2.07953,0.52877 -4.21411,1.27698 -6.34897,1.06155c-3.38495,-0.34157 -5.71751,-2.15067 -8.5399,-3.8441c0,0 -2.14373,-1.28624 -0.85749,-3.42997c1.28624,-2.14373 3.42997,-0.85749 3.42997,-0.85749c1.54474,0.92685 2.95324,2.11696 4.61525,2.81193c2.39587,1.00182 4.20082,-0.0299 6.49588,-0.59448c2.88727,-0.71026 5.66959,-0.57372 8.60263,-0.57372h2.5c0,0 2.5,0 2.5,2.5z" fill="#000000" stroke="none" stroke-width="0.5"/><path d="M249.86326,158.75828c-2.08013,-1.38675 -0.69338,-3.46688 -0.69338,-3.46688l0.70842,0.67732c-0.28091,-0.87677 -0.44625,-1.79938 -0.84274,-2.6303c-0.47901,-1.00385 -1.67796,-1.72352 -1.76397,-2.83247c-0.15994,-2.06214 1.82409,-4.91988 2.83468,-6.61404c0,0 1.28624,-2.14373 3.42997,-0.85749c2.14373,1.28624 0.85749,3.42997 0.85749,3.42997c-0.46804,0.77489 -0.9164,1.56201 -1.40412,2.32467c-0.23455,0.36677 -0.85191,0.6355 -0.7612,1.0613c0.11809,0.55432 0.97161,0.66624 1.23603,1.16753c0.55409,1.05045 0.77151,2.24646 1.15726,3.3697l-1.29158,3.67732c0,0 -1.38675,2.08013 -3.46688,0.69338z" fill="#ff0000" stroke="none" stroke-width="0.5"/><path d="M244.25001,128.17815c0,-1.38071 1.11929,-2.5 2.5,-2.5c1.38071,0 2.5,1.11929 2.5,2.5c0,1.38071 -1.11929,2.5 -2.5,2.5c-1.38071,0 -2.5,-1.11929 -2.5,-2.5z" fill="#ff0000" stroke="none" stroke-width="0.5"/><path d="M224.25001,129.67815c0,-1.38071 1.11929,-2.5 2.5,-2.5c1.38071,0 2.5,1.11929 2.5,2.5c0,1.38071 -1.11929,2.5 -2.5,2.5c-1.38071,0 -2.5,-1.11929 -2.5,-2.5z" fill="#ff0000" stroke="none" stroke-width="0.5"/><path d="M190.04596,274.69818c0,0 9.194,-2.67818 9.194,-6.74226c0,-3.6566 0,-10.41986 0,-10.41986c0,0 7.81629,0 11.64573,0c3.7273,0 11.0328,0 11.0328,0c0,0 0,7.25835 0,11.0328c0,3.97861 -12.25866,5.5164 -12.25866,5.5164c0,0 -5.1947,2.45173 -9.194,2.45173c-3.49087,0 -10.41986,-1.8388 -10.41986,-1.8388z" fill="#66d3ff" stroke="#00f3ff" stroke-width="2"/><path d="M253.2746,276.63352c0,0 9.194,-2.67818 9.194,-6.74226c0,-3.6566 0,-10.41987 0,-10.41987c0,0 7.81629,0 11.64573,0c3.72731,0 11.0328,0 11.0328,0c0,0 0,7.25835 0,11.0328c0,3.97861 -12.25867,5.51639 -12.25867,5.51639c0,0 -5.1947,2.45173 -9.19399,2.45173c-3.49087,0 -10.41986,-1.8388 -10.41986,-1.8388z" fill="#66d3ff" stroke="#00f3ff" stroke-width="2"/><path d="M204.14341,235.47046c0,0 -14.09746,-48.50556 -14.09746,-90.10117c0,-33.02688 19.61386,-51.48638 19.61386,-51.48638c0,0 17.82819,-16.54919 40.45358,-16.54919c22.93185,0 44.74412,25.74319 44.74412,25.74319c0,0 0.61293,21.74915 0.61293,57.61571c0,14.93857 -33.48233,3.06405 -29.34019,24.61962c7.01685,36.51543 28.72725,90.61181 28.72725,90.61181c0,0 -29.39779,-4.90346 -52.71225,-4.90346c-17.56448,0 -33.53809,-8.16826 -44.03627,-2.88421c-2.7655,1.39196 6.03442,-32.66591 6.03442,-32.66591z" fill="none" stroke="#00f3ff" stroke-width="2"/></g></g></svg>