<svg version="1.1" xmlns="http://www.w3.org/2000/svg" xmlns:xlink="http://www.w3.org/1999/xlink" width="181.192" height="289.5015" viewBox="0,0,181.192,289.5015"><g transform="translate(-157.17701,10.80691)"><g data-paper-data="{&quot;isPaintingLayer&quot;:true}" fill-rule="nonzero" stroke-linecap="butt" stroke-linejoin="miter" stroke-miterlimit="10" stroke-dasharray="" stroke-dashoffset="0" style="mix-blend-mode: normal"><path d="M313.06876,49.40729c0,31.87467 -26.15854,57.71419 -58.42672,57.71419c-32.26818,0 -58.42672,-25.83953 -58.42672,-57.71419c0,-31.87467 26.15854,-57.71419 58.42672,-57.71419c32.26818,0 58.42672,25.83953 58.42672,57.71419z" fill="none" stroke="#000000" stroke-width="5"/><path d="M168.42701,123.50948c0,-3.4332 3.25512,-3.5579 3.49159,-3.56243c3.61185,-1.56142 8.18333,-3.52742 11.96921,-4.21101c0.47559,-0.08587 9.32167,-0.06428 9.77623,-0.06428c7.71131,0 15.42263,0 23.13394,0c6.43331,0 12.99081,0.36869 19.41101,0.00688c3.65723,-0.2061 7.20574,-0.63466 10.77954,-0.96948c-21.18593,-6.63348 -44.24048,-14.93903 -66.29865,-10.45506l-4.55156,0.01734c0,0 -3.50515,0 -3.50515,-3.5626c0,-3.5626 3.50515,-3.5626 3.50515,-3.5626l3.86079,0.01734c23.02719,-4.68093 46.9489,3.917 69.03322,10.75347c0.10118,-0.47187 0.32262,-0.97761 0.71402,-1.50802c2.10309,-2.85008 4.9072,-0.71252 4.9072,-0.71252c1.23905,1.05751 2.95116,1.724 3.71712,3.17253c1.89684,3.58717 1.72873,9.46989 2.54688,13.35732c0.46372,2.20334 1.65362,4.2063 2.10309,6.41269c1.05721,5.18969 0.04526,11.65996 0.04526,16.95865c0,5.63077 0.84558,12.12219 -0.04526,17.67117c-0.46017,2.86637 -1.20923,5.59892 -2.21521,8.21072c3.15841,1.17167 2.0806,4.45806 2.0806,4.45806c-1.78853,5.24823 -1.22219,10.42914 -1.22219,15.97391c0,8.32293 1.00659,15.13565 2.70147,23.35232c0.45085,2.18573 1.65167,8.80207 3.04968,11.0575c2.49616,4.02713 7.04689,8.1886 10.18017,11.66562c5.20387,5.77473 8.17491,11.56042 14.55935,16.21569c0.6908,0.95029 1.49582,1.82984 2.38261,2.61307c0.23744,-0.042 0.49553,-0.06481 0.77608,-0.06481c3.50515,0 3.50515,3.5626 3.50515,3.5626l-5.30852,4.47995c-2.3432,-1.47381 -4.58645,-3.26488 -6.25438,-5.49429c-6.50278,-4.69986 -9.61516,-10.7232 -14.88385,-16.56027c-2.52063,-2.79255 -4.83776,-5.76985 -7.16128,-8.73375c-1.0949,-1.39667 -2.78093,-2.29775 -3.6894,-3.82634c-2.16793,-3.64772 -3.17015,-9.38205 -4.01507,-13.44494c-2.16467,-10.40908 -4.30497,-22.69298 -3.12355,-33.9149c-0.13237,0.17388 -0.26594,0.34718 -0.40074,0.51988c-8.96614,3.93996 -18.6431,6.26262 -26.8821,11.57355c-17.16671,11.06579 -22.14306,33.83833 -22.26421,53.14639l-1.40206,4.27513v3.5626l-1.40206,4.27513l0.04526,2.99193h-7.01028l0.04526,-4.13328l1.40206,-4.27513v-3.5626l1.40206,-4.27513c-0.14869,-21.38109 6.74287,-45.89997 25.40575,-58.00687c8.01374,-5.19864 17.44622,-8.06534 26.39606,-11.22712c6.70169,-10.15636 6.33832,-20.25981 6.33832,-32.08583c0,-4.87276 1.08285,-11.07535 0.04526,-15.81731c-0.48125,-2.19945 -1.6378,-4.20969 -2.10309,-6.41269c-0.12847,-0.60826 -0.21542,-1.27498 -0.28546,-1.97441c-5.7853,0.15155 -11.27324,1.06905 -17.06773,1.39685c-6.56483,0.37138 -13.26828,0.00688 -19.8466,0.00688c-7.71131,0 -15.42263,0 -23.13394,0c-2.81691,0 -5.68171,-0.59116 -8.45053,-0.06428c-3.58417,0.68204 -7.88335,2.59167 -11.19959,4.05135l-2.08177,0.28806c0,0 -3.50515,0 -3.50515,-3.5626z" fill="#000000" stroke="#000000" stroke-width="22.5"/><path d="M225.42868,60.09512c-3.5626,0 -3.5626,-3.5626 -3.5626,-3.5626l0.25481,-2.03564c2.67366,-6.30929 1.15011,-15.02994 1.90454,-21.87097c0,0 0.39343,-3.54082 3.93424,-3.14739c3.54082,0.39343 3.14739,3.93424 3.14739,3.93424c-0.88221,7.87735 0.46991,16.32481 -2.37059,23.73037l0.25481,-0.6106c0,0 0,3.5626 -3.5626,3.5626z" fill="#000000" stroke="none" stroke-width="0.5"/><path d="M249.24649,60.29991c-3.0549,-1.83295 -1.22196,-4.88785 -1.22196,-4.88785l2.02658,-3.36346c2.12311,-4.87183 4.29751,-9.71736 6.27078,-14.65227c0,0 1.32312,-3.30779 4.63092,-1.98468c3.30779,1.32312 1.98468,4.63092 1.98468,4.63092c-2.05913,5.1461 -4.32647,10.19895 -6.55459,15.27361l-2.24855,3.76175c0,0 -1.83295,3.0549 -4.88785,1.22196z" fill="#000000" stroke="none" stroke-width="0.5"/><path d="M260.34221,74.34554c0,3.5626 -3.5626,3.5626 -3.5626,3.5626h-3.5626c-3.55185,0 -7.05654,-0.27868 -10.54156,0.60747c-2.96342,0.75352 -6.00528,1.81975 -9.04755,1.51275c-4.8237,-0.48675 -8.14769,-3.06479 -12.16971,-5.478c0,0 -3.0549,-1.83295 -1.22196,-4.88785c1.83295,-3.0549 4.88785,-1.22196 4.88785,-1.22196c2.20132,1.3208 4.20849,3.01676 6.57692,4.00712c3.41422,1.42764 5.98634,-0.04261 9.2569,-0.84716c4.11448,-1.01215 8.0794,-0.81758 12.25911,-0.81758h3.5626c0,0 3.5626,0 3.5626,3.5626z" fill="#000000" stroke="none" stroke-width="0.5"/><path d="M254.80343,97.97291c-2.96427,-1.97618 -0.9881,-4.94045 -0.9881,-4.94045l1.00953,0.96521c-0.40031,-1.24943 -0.63592,-2.56419 -1.20094,-3.74829c-0.68261,-1.43053 -2.39116,-2.45609 -2.51373,-4.03639c-0.22792,-2.93864 2.5994,-7.01103 4.03954,-9.42528c0,0 1.83295,-3.0549 4.88785,-1.22196c3.0549,1.83295 1.22196,4.88785 1.22196,4.88785c-0.66698,1.10425 -1.30591,2.22593 -2.00093,3.31275c-0.33424,0.52266 -1.21401,0.90561 -1.08474,1.5124c0.16828,0.78993 1.38458,0.94942 1.76139,1.66378c0.7896,1.49694 1.09943,3.2013 1.64914,4.80196l-1.84056,5.24033c0,0 -1.97618,2.96427 -4.94045,0.9881z" fill="#ff0000" stroke="none" stroke-width="0.5"/><path d="M246.80431,54.39495c0,-1.96757 1.59504,-3.5626 3.5626,-3.5626c1.96757,0 3.5626,1.59504 3.5626,3.5626c0,1.96757 -1.59504,3.5626 -3.5626,3.5626c-1.96757,0 -3.5626,-1.59504 -3.5626,-3.5626z" fill="#ff0000" stroke="none" stroke-width="0.5"/><path d="M218.30347,56.53251c0,-1.96757 1.59504,-3.5626 3.5626,-3.5626c1.96757,0 3.5626,1.59504 3.5626,3.5626c0,1.96757 -1.59504,3.5626 -3.5626,3.5626c-1.96757,0 -3.5626,-1.59504 -3.5626,-3.5626z" fill="#ff0000" stroke="none" stroke-width="0.5"/><path d="M206.25148,3.76231c0,3.5626 -3.5626,3.5626 -3.5626,3.5626l0.29825,-1.53423c-3.37989,4.70857 -3.46059,10.50756 -5.58866,15.85198c-0.81672,2.05108 -2.13424,3.99532 -2.3491,6.19255c-0.35848,3.66619 -0.13757,11.04999 -1.75387,13.37385c-1.05423,1.51573 -3.83614,-0.17246 -5.50422,0.61894c-1.41971,0.67356 -1.61497,3.2346 -3.16482,3.49392c-2.30868,0.38627 -4.49468,-1.32208 -6.77967,-1.83011c-0.50468,-0.11221 -1.6099,-0.53564 -1.55086,-0.02202c0.46587,4.05269 3.46821,7.61742 3.60721,11.69442c0.00227,0.06626 0.00419,0.13254 0.00579,0.19879l0.01944,-0.00195l0.65287,6.52867c0.01483,0.13202 0.02244,0.26621 0.02244,0.40218c0,1.96757 -1.59504,3.5626 -3.5626,3.5626c-0.6914,0 -1.3368,-0.19694 -1.88315,-0.53783l-3.07815,-1.8469c-3.14165,-1.16105 0.19616,-0.21943 0.62474,2.53619c0.28462,1.83004 -0.71577,3.67173 -0.62071,5.52134c0.26346,5.12602 4.15827,9.82744 3.72235,14.94168c-0.11862,1.39154 -2.97438,1.06047 -3.45345,2.37234c-0.59809,1.63776 1.36391,3.57479 0.69382,5.18444c-0.57824,1.38902 -2.55986,1.58178 -3.83979,2.37268c2.69742,4.79739 4.61309,10.7326 5.95304,16.06247c0.54935,2.18514 1.99587,4.58889 1.12198,6.66565c-1.03028,2.44842 -6.42235,1.44519 -6.90751,4.91802c-0.1379,0.98711 0.86724,1.80083 1.18254,2.74634c2.02912,6.08462 6.43083,14.23309 2.66303,20.62175c-0.55728,0.94492 -2.65223,-0.8077 -3.28995,0.0849c-0.532,0.74466 2.01833,0.17387 2.60072,0.87981c1.99003,2.4122 4.2374,4.99131 4.78308,8.07045c0.2699,1.52303 -2.30642,2.28631 -2.6818,3.78682c-0.19972,0.79838 0.81726,1.42936 1.19383,2.16113c1.0567,2.05343 2.09247,4.11777 3.10532,6.19319c1.24871,2.55872 5.49234,11.58475 5.59392,13.15248c0.06686,1.03187 -1.58791,1.48357 -2.2964,2.25644l3.01086,4.5163c0.39445,0.57342 0.62535,1.26809 0.62535,2.0167c0,1.96757 -1.59504,3.5626 -3.5626,3.5626c-0.42311,0 -0.82899,-0.07376 -1.20549,-0.20912l-1.10509,-0.36837c1.20913,3.34416 1.63881,8.84159 2.22621,11.71966c1.21664,5.96121 2.25664,11.85404 4.67419,17.43128c0,0 1.40338,3.27455 -1.87117,4.67793c-3.27456,1.40338 -4.67793,-1.87117 -4.67793,-1.87117c-3.44816,-8.12555 -4.98557,-17.21375 -6.37088,-25.93015c-0.40675,-2.5592 -1.67159,-5.17198 -1.08999,-7.69719c0.40692,-1.76674 1.76801,-3.10532 3.02025,-4.49274l-0.51019,-0.76528l0.6402,-0.42679c-0.58298,-0.45834 -1.04316,-0.99528 -1.23518,-1.70385c-0.3864,-1.42591 2.66413,-2.07389 2.65175,-3.55118c-0.01472,-1.75615 -1.89056,-2.96426 -2.71934,-4.51261c-2.40303,-4.48942 -7.67287,-12.09809 -7.11667,-17.38457c0.1325,-1.25947 2.7384,-1.53315 2.5793,-2.78953c-0.20719,-1.63596 -2.48329,-2.2259 -3.38899,-3.60395c-1.47753,-2.24809 -3.945,-4.49631 -3.6952,-7.17486c0.16277,-1.74539 3.44936,-1.22464 4.60169,-2.54564c1.62007,-1.8572 -1.15491,-4.79832 -1.9392,-7.1347c-0.05325,-0.15865 -3.66554,-11.95902 -3.42212,-12.90117c0.69378,-2.68538 2.63859,-5.00411 4.68461,-6.87664c0.70725,-0.64728 2.17309,0.60933 2.87586,-0.04279c0.47498,-0.44075 -1.23242,-0.63979 -1.50856,-1.22596c-1.01214,-2.14861 -1.50224,-4.50635 -2.25319,-6.75957c-1.52489,-4.57547 -2.73598,-9.26651 -3.63122,-14.00558c1.35061,-0.9628 3.41345,-1.35754 4.05184,-2.88842c0.68942,-1.65328 -1.23108,-3.65341 -0.62145,-5.33774c0.3967,-1.09606 3.02568,-0.41191 3.12292,-1.57347c0.14491,-1.731 -2.06583,-2.85986 -2.61381,-4.50821c-1.38803,-4.17524 -0.8422,-8.77179 -0.86091,-13.17168c-0.01072,-2.51923 -2.39688,-5.67815 -0.68522,-7.52664c1.87563,-2.02557 5.13444,-1.63408 8.02866,-1.8797l-0.09931,-0.99305l0.43122,-0.04312c-0.88831,-2.04794 -1.43919,-4.27686 -1.84489,-6.45296c-0.57177,-3.06692 -2.84343,-6.40343 -1.53024,-9.23334c5.08244,-10.95271 7.67214,-1.17086 12.71382,-1.85214c1.23138,-0.1664 0.95263,-2.5966 2.09628,-3.08244c1.15173,-0.48927 2.96365,1.62875 3.70267,0.61894c0.94113,-1.28599 -0.6163,-3.13838 -0.694,-4.73006c-0.06929,-1.41943 0.08207,-2.8452 0.25538,-4.2557c0.35665,-2.90245 1.82147,-5.56211 2.91199,-8.27545c2.35877,-5.86895 2.6462,-11.69144 6.24879,-17.02982l5.55933,-1.53421c0,0 3.5626,0 3.5626,3.5626z" fill="#ff1515" stroke="none" stroke-width="0.5"/><path d="M306.0393,3.44269c0.41963,-0.93668 1.3076,-1.92771 3.18661,-1.92771c3.5626,0 3.5626,3.5626 3.5626,3.5626l-1.79505,3.75085c-1.48712,0.84897 -4.38829,3.24136 -6.95677,4.56162c0.86762,-0.02797 1.73794,-0.02502 2.60426,-0.03732c1.64722,-0.02337 3.29371,0.08325 4.94055,0.12617c5.54239,0.14446 17.39645,-1.21338 20.60789,5.23072c0.90606,1.81808 -0.10052,4.07076 -0.3878,6.08169c-0.64084,4.48587 -2.49174,8.85548 -4.9545,12.65923c-0.94841,1.46481 -2.68154,2.63815 -2.87972,4.37189c-0.15675,1.37128 2.20056,2.28592 1.96327,3.64557c-0.29436,1.68661 -2.10554,2.70781 -3.28818,3.94581c-0.90573,0.94812 2.16498,-2.01063 3.46726,-1.85784c0.2172,0.02549 0.43294,0.0574 0.64737,0.09506l0.00926,-0.07403l5.21419,0.65177c1.78169,0.19653 3.16761,1.70689 3.16761,3.54094c0,0.97823 -0.39428,1.8644 -1.03259,2.50822l-4.32704,4.36764l-0.04765,-0.04721l-0.15312,0.23482c-6.55472,4.8461 -12.66817,9.96582 -17.8569,16.28649c5.17416,-1.24721 11.62233,0.67873 16.66853,2.10537c2.74251,0.77534 6.33641,0.52196 8.08908,2.76933c5.39693,6.92022 -2.58877,6.52202 -2.09326,11.73027c0.11745,1.23449 2.46001,1.40227 2.63054,2.63054c0.3113,2.242 -2.08182,7.51754 -2.96222,9.85341c-1.70912,4.53454 -3.86999,10.24987 -4.95184,14.97975c-0.57951,2.53361 0.05207,5.32012 -0.87624,7.74772c-0.92688,2.42388 -6.65976,6.08601 -8.38953,7.30663c-0.97687,0.68932 -1.88355,1.50691 -2.88336,2.15834c0.72629,-0.01709 1.36113,0.11533 1.68393,0.68889c3.47771,6.17934 -1.44144,13.87362 -4.09037,19.12063c-0.63119,0.83251 -1.83168,1.45463 -1.89358,2.49753c-0.04463,0.75194 1.08421,-1.19407 1.82448,-1.33338c1.72345,-0.32433 3.50919,-0.07942 5.26108,0c6.30393,0.28576 8.32769,-0.85051 10.08362,6.8829c1.41783,6.24438 -2.53649,11.44718 -3.23316,17.11455c-0.13747,1.11833 0.97496,2.05018 1.23548,3.14639c0.29035,1.22167 0.17101,2.51137 0.40246,3.74555c1.27642,6.80631 3.09741,13.82281 2.95378,20.8343c-0.23949,11.69035 -4.33948,21.68268 -8.82527,32.15861c0,0 -1.40337,3.27456 -4.67793,1.87117c-3.27456,-1.40338 -1.87117,-4.67794 -1.87117,-4.67794c4.13402,-9.63804 8.02985,-18.71993 8.25065,-29.49778c0.15276,-7.45669 -1.66133,-15.70379 -3.19751,-22.93132c-0.34277,-1.61266 -1.54574,-3.10346 -1.39507,-4.74523c0.23671,-2.57937 1.88811,-4.84007 2.50564,-7.3556c0.67178,-2.73651 0.68168,-5.59822 0.83758,-8.41165c0.0291,-0.52506 0.16094,-1.3766 -0.33862,-1.5408c-0.88092,-0.28953 -1.80524,0.47048 -2.73048,0.53208c-2.00914,0.13377 -11.738,0.12096 -12.64351,-1.3334c-1.65065,-2.65112 0.49131,-6.22661 0.73697,-9.33991c2.28028,-4.6014 2.88511,-5.40628 4.45529,-9.96586c0.27858,-0.80894 1.25127,-1.86051 0.66125,-2.48006c-1.26681,-1.33016 -4.6069,-0.37554 -5.07292,-2.15233c-1.74588,-6.65628 8.34872,-11.02744 12.19071,-13.89121c0.594,-0.44276 1.51422,-0.70798 1.70706,-1.4233c0.56028,-2.07828 -0.03875,-4.33982 0.41393,-6.44417c1.04889,-4.87588 3.48092,-11.16938 5.20434,-15.78734c0.47381,-1.26958 0.91491,-2.55573 1.49406,-3.78084c0.32096,-0.67893 1.42218,-1.19323 1.1959,-1.9093c-0.37366,-1.18241 -2.55064,-1.39306 -2.63054,-2.63054c-0.1677,-2.59762 1.13475,-5.09136 1.97291,-7.55576c0.22818,-0.6709 1.79334,-1.37877 1.19493,-1.75832c-1.05586,-0.66967 -2.50783,0.29484 -3.74836,0.13878c-7.49177,-0.94248 -14.52118,-2.96182 -21.47435,-5.78627c0.93964,-3.3926 1.17292,-7.06597 2.8189,-10.17776c2.38224,-4.50375 8.28831,-8.80226 13.15658,-12.24724c-2.92788,-0.14458 -5.45231,-2.28235 -5.84276,-7.11055c-0.138,-1.70653 2.9688,-2.26376 3.28817,-3.94581c0.22,-1.15876 -2.18081,-1.76811 -1.98253,-2.93078c0.80377,-4.71347 5.08233,-8.16207 6.8396,-12.60896c0.7321,-1.85264 0.59889,-3.94675 1.10944,-5.87226c0.17374,-0.65526 1.03839,-1.14116 0.92747,-1.80993c-0.0682,-0.41122 -0.83212,-0.05761 -1.24576,-0.10923c-2.05517,-0.25645 -4.09439,-0.65912 -6.15962,-0.81482c-0.02294,-0.00174 -10.57766,-0.25857 -11.76543,-0.29541c-2.63165,-0.08163 -5.52671,0.88135 -7.89412,-0.2709c-8.32197,-4.05038 -4.49062,-7.70009 -0.23767,-11.96525c1.06937,-1.07244 5.20947,-3.43853 7.62131,-4.7985z" fill="#ff1515" stroke="none" stroke-width="0.5"/></g></g></svg>