<svg version="1.1" xmlns="http://www.w3.org/2000/svg" xmlns:xlink="http://www.w3.org/1999/xlink" width="87" height="194.14375" viewBox="0,0,87,194.14375"><defs><linearGradient x1="276.61381" y1="163.13746" x2="276.61381" y2="180.14082" gradientUnits="userSpaceOnUse" id="color-1"><stop offset="0" stop-color="#00ff08"/><stop offset="1" stop-color="#ff0000"/></linearGradient></defs><g transform="translate(-206.25,-81.67813)"><g data-paper-data="{&quot;isPaintingLayer&quot;:true}" fill-rule="nonzero" stroke-linecap="butt" stroke-linejoin="miter" stroke-miterlimit="10" stroke-dasharray="" stroke-dashoffset="0" style="mix-blend-mode: normal"><path d="M290.75,124.67814c0,22.36753 -18.35633,40.5 -41,40.5c-22.64367,0 -41,-18.13247 -41,-40.5c0,-22.36753 18.35633,-40.5 41,-40.5c22.64367,0 41,18.13247 41,40.5z" fill="none" stroke="#000000" stroke-width="5"/><path d="M276.58333,174.66667c0,-0.55228 0.44772,-1 1,-1c0.31529,0 0.5965,0.14591 0.77978,0.37389c0.28656,-0.39973 0.56253,-0.80262 0.8226,-1.2124c-0.03366,0.00342 -0.06782,0.00518 -0.10239,0.00518c-0.55228,0 -1,-0.44772 -1,-1c0,-0.55228 0.44772,-1 1,-1c0.40412,0 0.75225,0.23971 0.90995,0.5847c0.76209,-1.50495 1.25671,-3.14614 1.25671,-5.0847l0.21798,-0.81623c0,0 0.181,-0.543 0.67994,-0.67045c-0.88376,-0.39698 -2.17437,-1.18916 -2.36978,-1.29832c-1.22428,-0.6839 -2.64436,-0.29209 -3.90259,0.27111c0.11884,0.37111 -0.03974,0.74113 -0.03974,0.74113c-1.38754,3.23462 -1.3769,6.81607 -2.83957,10.01425c-0.31211,0.68245 -1.99131,2.8802 -1.91308,3.57332c0.17145,1.51894 2.06882,2.4622 3.1264,1.64474c0.90658,-1.5142 1.97101,-2.86734 2.99378,-4.20095c-0.36383,-0.14958 -0.62001,-0.50751 -0.62001,-0.92527zM285.47776,160.61388c-0.44721,0.89443 -1.34164,0.44721 -1.34164,0.44721l-0.51081,-0.28023c-0.58473,-0.47073 -1.18467,-0.84063 -1.8068,-1.15605c-0.21823,0.76386 -0.39714,1.5379 -0.52439,2.32506c1.74331,0.8947 3.95066,2.37563 3.77368,3.39237c-0.11443,0.65738 -1.11216,0.73762 -1.66824,1.10644l0.22421,-0.07491c0,0 -0.14822,0.14822 -0.3768,0.24108c-0.13077,6.06528 -4.47223,9.70287 -7.6232,14.59226c-1.12129,0.64141 -2.52152,0.84927 -3.73909,0.54059c-0.05365,0.18353 -0.13596,0.307 -0.13596,0.307c-0.1926,0.28784 -0.37767,0.58121 -0.55374,0.87986c1.58387,3.34096 3.08229,6.72225 4.38496,10.15913c2.06397,5.44545 2.46968,12.16496 3.62151,17.91602l0.04855,1.49029c0,0 0,2.5 -2.5,2.5c-2.5,0 -2.5,-2.5 -2.5,-2.5l0.04855,-0.50971c-0.64496,-3.22957 -1.58791,-6.37571 -2.02481,-9.64662c-0.45427,-3.40092 -0.17658,-4.42754 -1.35367,-7.43736c-1.89042,-4.83382 -4.08486,-9.55826 -6.38446,-14.22903c-1.35537,0.55099 -2.69905,0.99795 -4.43885,1.29856c-0.78856,0.13625 -1.62112,-0.1967 -2.40069,-0.01595c-0.24227,0.05617 -0.47952,0.12907 -0.71352,0.21279c0.26796,3.24284 -0.23252,6.90921 -0.23252,10.00549c0,3.9513 0.6031,8.50655 -0.03228,12.40046c-0.32821,2.01143 -0.86247,3.92895 -1.57997,5.76174c2.25269,0.8222 1.48396,3.12837 1.48396,3.12837c-1.27564,3.68286 -0.87171,7.31848 -0.87171,11.20943c0,5.84048 0.71794,10.6212 1.92679,16.38711c0.32157,1.5338 1.17803,6.17671 2.17514,7.75942c1.78036,2.82597 5.02611,5.74622 7.26088,8.18616c3.71159,4.05232 5.83065,8.11234 10.38428,11.3791c0.49271,0.66685 1.06688,1.28406 1.69937,1.83368c0.16935,-0.02947 0.35343,-0.04548 0.55353,-0.04548c2.5,0 2.5,2.5 2.5,2.5l-3.78624,3.14373c-1.67126,-1.03422 -3.27123,-2.29108 -4.46086,-3.85553c-4.63803,-3.29805 -6.85789,-7.52483 -10.61572,-11.6209c-1.79781,-1.95963 -3.45047,-4.0489 -5.10769,-6.12877c-0.78093,-0.98009 -1.98346,-1.61241 -2.63142,-2.68507c-1.54625,-2.55973 -2.26107,-6.5837 -2.8637,-9.43477c-1.54392,-7.3044 -3.07046,-15.92443 -2.22783,-23.79923c-0.09441,0.12202 -0.18968,0.24363 -0.28582,0.36482c-6.39498,2.7648 -13.29696,4.39469 -19.17333,8.12155c-12.24394,7.76524 -15.79326,23.7455 -15.87967,37.29462l-1,3v2.5l-1,3l0.03228,2.09954h-5l0.03228,-2.90046l1,-3v-2.5l1,-3c-0.10605,-15.00383 4.80927,-32.20956 18.12033,-40.70538c5.7157,-3.64806 12.4433,-5.65972 18.82667,-7.87845c4.77989,-7.12706 4.52072,-14.21699 4.52072,-22.51571c0,-2.57065 0.43651,-5.66873 0.33876,-8.46221c-3.15397,0.34267 -7.22257,0.01343 -10.04497,-0.22445c-2.48245,-0.20923 -8.76528,-1.59038 -9.6941,-3.29251c-0.80633,-1.47767 1.61224,-2.96 2.53748,-4.36627c1.61468,-2.45415 3.69118,-4.66636 5.76944,-6.76883c-3.4503,-1.07567 -6.95742,-2.15873 -10.49819,-3.13414c-0.15116,-0.63483 -0.3059,-1.2688 -0.46416,-1.90187c-0.36599,-1.46395 -1.72757,-2.96996 -2.95557,-4.11294c6.79898,1.65811 13.51176,3.84472 20.00206,5.82146c0.07216,-0.33113 0.2301,-0.68602 0.50926,-1.05823c1.5,-2 3.5,-0.5 3.5,-0.5c0.45962,0.38595 1.01051,0.69769 1.51026,1.051c0.1737,-2.22916 2.48972,-2.22916 2.48972,-2.22916c1.12246,0.05176 2.35674,-0.33585 3.36737,0.15529c4.66355,2.26637 6.74046,6.66918 8.79241,10.99769c0.63376,-0.2151 2.19912,-0.52535 3.07629,1.22899c0.0367,0.0734 0.06979,0.1456 0.09946,0.21659c0.41277,-0.68214 0.84869,-1.33336 1.0849,-1.84005c1.42763,-3.06232 1.44747,-6.5498 2.70801,-9.69816c-0.06857,-0.07402 -0.13266,-0.16606 -0.18953,-0.27979c-0.44721,-0.89443 0.44721,-1.34164 0.44721,-1.34164c1.49657,-0.73564 3.53238,-1.57686 5.26454,-1.26077c0.14846,-0.79395 0.34095,-1.57541 0.56919,-2.34799c-0.34587,-0.13073 -0.69941,-0.25873 -1.06159,-0.39034c0,0 -0.93979,-0.34174 -0.59805,-1.28154c0.34174,-0.93979 1.28154,-0.59805 1.28154,-0.59805c0.34398,0.12516 0.68072,0.24875 1.01103,0.37458c0.01257,-0.03396 0.02521,-0.06792 0.0379,-0.10186l0.32732,-0.98249c0,0 0.31623,-0.94868 1.26491,-0.63246c0.94868,0.31623 0.63246,1.26491 0.63246,1.26491l-0.33935,1.01751c-0.02682,0.07129 -0.05338,0.14264 -0.07968,0.21407c0.84008,0.40473 1.64407,0.88061 2.42838,1.50466l0.15585,0.05311c0,0 0.89443,0.44721 0.44721,1.34164zM270.17711,180.81488c0.00179,0.00368 0.00357,0.00735 0.00536,0.01103c0.00094,-0.00101 0.00189,-0.00202 0.00284,-0.00303c-0.00274,-0.00266 -0.00547,-0.00532 -0.0082,-0.00799zM269.09146,178.60202c0.0148,0.0299 0.02959,0.05981 0.04438,0.08972c-0.00559,-0.03604 -0.0108,-0.07241 -0.01564,-0.1091c-0.00979,0.00668 -0.01937,0.01314 -0.02874,0.01938zM254.75,168c0,0 -0.33301,0 -0.75595,-0.12154c0.73966,2.463 0.74362,5.65496 1.22369,7.89924c0.13753,0.64295 0.36463,1.26159 0.60607,1.87628c2.19486,-0.38645 4.36182,-0.92337 6.52297,-1.64659c-1.60013,-3.71139 -3.73656,-8.37457 -7.59678,-8.0074zM240.70217,176.56174c-0.35361,0.44201 -0.64432,0.95465 -0.96847,1.42987c1.92406,-0.04216 4.24454,0.51044 5.51629,0.50839c1.89251,-0.00305 3.74405,-0.06813 5.56637,-0.21431c-0.21333,-0.55937 -0.40882,-1.12359 -0.53408,-1.70709c-0.09163,-0.42684 -0.15365,-0.8947 -0.2036,-1.38551c-1.10286,0.02842 -2.19056,0.09525 -3.27134,0.1823c-0.01493,-0.12063 -0.04991,-0.23698 -0.11308,-0.34753c-0.48155,-0.8427 -1.76479,-0.90158 -2.42271,-1.61514c-0.14009,-0.15194 -0.25096,-0.32809 -0.34572,-0.51714c-1.12265,1.17958 -2.20729,2.3957 -3.22366,3.66616z" fill="#000000" stroke="none" stroke-width="0.5"/><path d="M277.21071,175.64139c-1.02278,1.33361 -2.10872,2.68526 -3.0153,4.19946c-1.05758,0.81746 -2.97318,-0.13565 -3.14463,-1.65459c-0.07824,-0.69313 1.59451,-2.89747 1.90663,-3.57992c1.46267,-3.19818 1.4854,-6.86083 2.87294,-10.09545c0,0 0.15934,-0.3701 0.0405,-0.74121c1.25824,-0.56321 2.70122,-0.95181 3.9255,-0.2679c0.19541,0.10916 1.49939,0.90914 2.38315,1.30612c-0.49894,0.12745 -0.68046,0.67003 -0.68046,0.67003l-0.21615,0.81775c0,1.93857 -0.47762,3.61414 -1.23972,5.11909c-0.15771,-0.34499 -0.60326,-0.56591 -1.00738,-0.56591c-0.55228,0 -0.9029,0.43872 -0.9029,0.99101c0,0.55228 0.35313,0.97171 0.90541,0.97171c0.03457,0 0.15913,0.04098 0.19279,0.03756c-0.26007,0.40979 -0.55199,0.83211 -0.83855,1.23184c-0.18329,-0.22798 -0.47237,-0.3692 -0.78766,-0.3692c-0.55228,0 -1.02208,0.4526 -1.02208,1.00489c0,0.41776 0.26406,0.77515 0.62789,0.92473z" data-paper-data="{&quot;noHover&quot;:false,&quot;origItem&quot;:[&quot;Path&quot;,{&quot;applyMatrix&quot;:true,&quot;segments&quot;:[[[276.58333,174.66667],[0,0.41776],[0,-0.55228]],[[277.58333,173.66667],[-0.55228,0],[0.31529,0]],[[278.36312,174.04056],[-0.18329,-0.22798],[0.28656,-0.39973]],[[279.18572,172.82816],[-0.26007,0.40979],[-0.03366,0.00342]],[[279.08333,172.83333],[0.03457,0],[-0.55228,0]],[[278.08333,171.83333],[0,0.55228],[0,-0.55228]],[[279.08333,170.83333],[-0.55228,0],[0.40412,0]],[[279.99329,171.41804],[-0.15771,-0.34499],[0.76209,-1.50495]],[[281.25,166.33333],[0,1.93857],[0,0]],[281.46798,165.51711],[[282.14792,164.84666],[-0.49894,0.12745],[-0.88376,-0.39698]],[[279.77814,163.54834],[0.19541,0.10916],[-1.22428,-0.6839]],[[275.87555,163.81946],[1.25824,-0.56321],[0.11884,0.37111]],[[275.83581,164.56059],[0,0],[-1.38754,3.23462]],[[272.99624,174.57484],[1.46267,-3.19818],[-0.31211,0.68245]],[[271.08316,178.14816],[-0.07824,-0.69313],[0.17145,1.51894]],[[274.20956,179.79289],[-1.05758,0.81746],[0.90658,-1.5142]],[[277.20334,175.59194],[-1.02278,1.33361],[-0.36383,-0.14958]]],&quot;closed&quot;:true}]}" fill="url(#color-1)" stroke="none" stroke-width="0.5"/><path d="M229.25,132.17814c-2.5,0 -2.5,-2.5 -2.5,-2.5l0.17881,-1.42848c1.8762,-4.42744 0.80707,-10.54702 1.33648,-15.3476c0,0 0.27608,-2.48471 2.76079,-2.20863c2.48471,0.27608 2.20863,2.76079 2.20863,2.76079c-0.61908,5.5278 0.32975,11.45567 -1.66352,16.6524l0.17881,-0.42848c0,0 0,2.5 -2.5,2.5z" fill="#000000" stroke="none" stroke-width="0.5"/><path d="M245.96376,132.32186c-2.14373,-1.28624 -0.85749,-3.42997 -0.85749,-3.42997l1.42212,-2.36025c1.48986,-3.41873 3.01571,-6.819 4.40042,-10.28199c0,0 0.92848,-2.32119 3.24967,-1.39272c2.32119,0.92848 1.39272,3.24967 1.39272,3.24967c-1.44496,3.61119 -3.03603,7.15695 -4.59958,10.71801l-1.57788,2.63975c0,0 -1.28624,2.14373 -3.42997,0.85749z" fill="#000000" stroke="none" stroke-width="0.5"/><path d="M253.75,142.17814c0,2.5 -2.5,2.5 -2.5,2.5h-2.5c-2.49245,0 -4.95181,-0.19556 -7.39737,0.42628c-2.07953,0.52877 -4.21411,1.27698 -6.34897,1.06155c-3.38495,-0.34157 -5.71751,-2.15067 -8.5399,-3.8441c0,0 -2.14373,-1.28624 -0.85749,-3.42997c1.28624,-2.14373 3.42997,-0.85749 3.42997,-0.85749c1.54474,0.92685 2.95324,2.11696 4.61525,2.81193c2.39587,1.00182 4.20082,-0.0299 6.49588,-0.59448c2.88727,-0.71026 5.66959,-0.57372 8.60263,-0.57372h2.5c0,0 2.5,0 2.5,2.5z" fill="#000000" stroke="none" stroke-width="0.5"/><path d="M249.86325,158.75827c-2.08013,-1.38675 -0.69338,-3.46688 -0.69338,-3.46688l0.70842,0.67732c-0.28091,-0.87677 -0.44625,-1.79938 -0.84274,-2.6303c-0.47901,-1.00385 -1.67796,-1.72352 -1.76397,-2.83247c-0.15994,-2.06214 1.82409,-4.91988 2.83468,-6.61404c0,0 1.28624,-2.14373 3.42997,-0.85749c2.14373,1.28624 0.85749,3.42997 0.85749,3.42997c-0.46804,0.77489 -0.9164,1.56201 -1.40412,2.32467c-0.23455,0.36677 -0.85191,0.6355 -0.7612,1.0613c0.11809,0.55432 0.97161,0.66624 1.23603,1.16753c0.55409,1.05045 0.77151,2.24646 1.15726,3.3697l-1.29158,3.67732c0,0 -1.38675,2.08013 -3.46688,0.69338z" fill="#ff0000" stroke="none" stroke-width="0.5"/><path d="M244.25,128.17814c0,-1.38071 1.11929,-2.5 2.5,-2.5c1.38071,0 2.5,1.11929 2.5,2.5c0,1.38071 -1.11929,2.5 -2.5,2.5c-1.38071,0 -2.5,-1.11929 -2.5,-2.5z" fill="#ff0000" stroke="none" stroke-width="0.5"/><path d="M224.25,129.67814c0,-1.38071 1.11929,-2.5 2.5,-2.5c1.38071,0 2.5,1.11929 2.5,2.5c0,1.38071 -1.11929,2.5 -2.5,2.5c-1.38071,0 -2.5,-1.11929 -2.5,-2.5z" fill="#ff0000" stroke="none" stroke-width="0.5"/><path d="M278.41667,169.83333c0,-0.55228 0.44772,-1 1,-1c0.55228,0 1,0.44772 1,1c0,0.55228 -0.44772,1 -1,1c-0.55228,0 -1,-0.44772 -1,-1z" fill="#000000" stroke="none" stroke-width="0.5"/></g></g></svg>