<svg version="1.1" xmlns="http://www.w3.org/2000/svg" xmlns:xlink="http://www.w3.org/1999/xlink" width="371.32734" height="437.47571" viewBox="0,0,371.32734,437.47571"><g transform="translate(-233.95088,252.96015)"><g data-paper-data="{&quot;isPaintingLayer&quot;:true}" fill="#000000" fill-rule="nonzero" stroke="none" stroke-width="0.5" stroke-linecap="butt" stroke-linejoin="miter" stroke-miterlimit="10" stroke-dasharray="" stroke-dashoffset="0" style="mix-blend-mode: normal"><path d="M604.25851,-251.9405c2.29436,2.29436 0,4.5887 0,4.5887l-3.57563,3.52376c-1.42069,2.7655 -3.62931,7.2555 -5.36638,9.30234c-1.2236,1.44179 -3.21515,2.08711 -4.44852,3.52056c-2.73118,3.17423 -4.58521,7.00998 -6.98741,10.43993c-4.39896,6.28101 -7.68376,13.16394 -11.50546,19.72792c-8.22456,14.12615 -18.08086,27.27976 -26.23706,41.41663c-2.6167,2.60399 -4.38867,5.94085 -6.43576,9.01287c-0.65011,0.9756 -1.90399,1.46127 -2.50726,2.46652c-2.0388,3.39732 -3.03748,7.3981 -5.35478,10.61192c-4.66343,6.46771 -9.56804,13.00064 -14.2767,19.46823c-2.2837,3.1368 -5.30501,7.90719 -7.98766,10.61604c-4.02506,4.06437 -8.46027,6.36087 -12.01012,11.04199c-1.33462,1.75994 -2.05548,3.93949 -3.42464,5.67269c-2.30749,2.92104 -5.75822,4.74602 -8.33418,7.43328c-2.9522,3.07977 -5.56545,6.47834 -8.58401,9.49308c-3.40395,4.54178 -5.64618,9.58078 -8.96692,14.12072c-2.45736,3.35955 -5.50001,6.33095 -7.51244,9.97448c-1.74264,3.15509 -2.35085,6.82139 -3.77065,10.13433c-0.63061,1.47147 -1.92392,2.57892 -2.64833,4.00655c-0.85704,1.68902 -2.03308,7.43981 -2.4179,8.64134c-1.21213,3.78452 -3.8378,6.98578 -5.27967,10.68886c-0.86949,2.23307 -0.3801,4.9485 -1.60638,7.00736c-0.95629,1.60556 -3.09233,2.10869 -4.53253,3.29955c-2.64968,2.19095 -5.15921,4.55986 -7.92788,6.59837c-6.68761,4.92392 -13.12927,9.86784 -19.51376,15.18824c-3.9802,3.28528 -7.54176,6.62957 -9.93503,11.36028c-2.68223,5.30191 -1.20275,6.36106 -3.14359,12.12062c-1.73519,5.14928 -5.36156,11.44766 -8.05,16.15017c-2.09111,3.65769 -5.38721,7.58324 -8.0844,10.81156c-2.31092,2.76598 -5.58153,4.6858 -7.66432,7.62739c-1.11802,1.57903 -1.52025,3.58323 -2.59576,5.19153c-0.71729,1.07262 -1.90865,1.75127 -2.71874,2.75566c-1.44705,1.79413 -2.5479,3.665 -3.42948,5.62682c1.05553,1.96097 -0.67909,3.69558 -0.67909,3.69558c-0.32046,0.32046 -0.65734,0.62788 -1.00295,0.9283c-0.26556,0.89972 -0.50872,1.81797 -0.73933,2.75586c0,0 -0.78696,3.14783 -3.93479,2.36087c-0.12891,-0.03223 -0.25122,-0.06841 -0.36726,-0.10818c-0.6021,1.06352 -0.55042,2.4088 -1.08947,3.50768c-2.4121,4.91725 -5.93015,10.77556 -9.51872,14.97181c-3.369,3.9395 -8.72515,7.19752 -11.56301,11.52722c-1.10189,1.68113 -1.421,3.85387 -2.73688,5.37335c-3.84485,4.43977 -10.14579,7.17502 -14.71073,10.81329c-5.88698,4.69195 -11.13984,9.97133 -17.22372,14.52754c-5.35271,2.68412 -9.34335,6.26061 -14.47665,9.19915c-3.6708,2.10134 -8.03241,3.63652 -11.94513,5.31515c-12.25522,5.25772 -24.07802,10.63004 -37.58239,10.63004l-1.14469,0.95533c0,0 -2.90215,1.45107 -4.35323,-1.45107l0.00003,0.00003c-1.45107,-2.90215 1.45107,-4.35323 1.45107,-4.35323l4.04683,-1.64043c8.6922,0 15.71398,-2.47764 23.83058,-5.51988c6.65299,-2.49365 12.61693,-5.29985 18.87184,-8.42689c1.19714,-0.59849 2.6507,-0.59416 3.81332,-1.25721c4.93852,-2.81646 8.89762,-6.38937 14.07675,-8.97119c5.84057,-4.38801 10.87236,-9.49192 16.52121,-14.02586c4.17186,-3.34847 10.38103,-5.86495 13.84268,-9.95282c1.20172,-1.41912 1.4201,-3.46446 2.45465,-5.00971c3.01068,-4.49685 8.27395,-7.73887 11.79886,-11.83466c3.25992,-3.78787 6.46363,-9.1154 8.65163,-13.58159c0.65936,-1.3459 0.70313,-2.96543 1.48563,-4.24367c1.24772,-2.03819 3.10209,-3.60491 4.9173,-5.19957c1.30763,-3.83211 3.04726,-7.36422 5.71661,-10.72625c0.71944,-0.90614 1.83243,-1.47223 2.47279,-2.43586c1.07082,-1.61142 1.46527,-3.6214 2.59576,-5.19153c4.58582,-6.36917 11.48118,-10.92164 15.40045,-17.90174c2.47871,-4.41451 5.92046,-10.17234 7.52459,-14.999c1.40744,-4.23479 1.48979,-8.93384 3.48248,-12.92677c2.76768,-5.54584 6.95561,-9.54748 11.57986,-13.43338c6.4877,-5.40641 13.02893,-10.44742 19.83515,-15.43938c2.67687,-1.96332 5.01382,-4.35853 7.6467,-6.38045c0.99528,-0.76434 2.64917,-0.79286 3.25476,-1.89197c0.93235,-1.69214 0.25746,-3.91162 0.93898,-5.71943c1.35735,-3.60053 4.00317,-6.65746 5.1538,-10.32928c0.97516,-3.11194 1.30686,-6.55576 2.77363,-9.52901c0.67195,-1.36211 1.94489,-2.38472 2.5432,-3.78074c1.49236,-3.48207 2.18783,-7.31403 4.01665,-10.63178c2.14567,-3.89256 5.33378,-7.11172 7.96916,-10.69091c3.42194,-4.64743 5.78745,-9.85767 9.29639,-14.5334c3.09198,-3.09584 5.77278,-6.58074 8.80495,-9.73519c2.47204,-2.57173 5.83802,-4.26272 8.02178,-7.08336c1.29631,-1.67437 1.96908,-3.77259 3.25291,-5.45656c3.72536,-4.88643 8.23949,-7.39908 12.46151,-11.57369c2.65061,-2.62085 5.37465,-7.10458 7.58692,-10.15007c4.71223,-6.48702 9.54255,-13.02271 14.2767,-19.46823c2.23586,-3.0441 3.08529,-6.9153 5.02828,-10.15419c0.65591,-1.09336 1.97679,-1.66429 2.68427,-2.72501c2.08166,-3.12111 3.89654,-6.49844 6.54306,-9.15748c7.89417,-13.96804 17.70783,-26.8483 25.78512,-40.74108c3.8921,-6.69433 7.27228,-13.70883 11.7495,-20.11525c2.55118,-3.65046 4.58504,-7.68586 7.47744,-11.07237c1.22813,-1.43794 3.21,-2.09156 4.44852,-3.52056c0.84627,-0.97642 4.16813,-7.28683 5.01668,-8.86801l4.21167,-4.26353c0,0 2.29436,-2.29436 4.5887,0z"/></g></g></svg>