<svg version="1.1" xmlns="http://www.w3.org/2000/svg" xmlns:xlink="http://www.w3.org/1999/xlink" width="47.5" height="46.56391" viewBox="0,0,47.5,46.56391"><g transform="translate(-215.9375,-156.875)"><g data-paper-data="{&quot;isPaintingLayer&quot;:true}" fill="#ff0000" fill-rule="nonzero" stroke-width="0.5" stroke-linecap="butt" stroke-linejoin="miter" stroke-miterlimit="10" stroke-dasharray="" stroke-dashoffset="0" style="mix-blend-mode: normal"><path d="M251.98495,186.41767c-1.11583,-1.70667 -3.0437,-2.83434 -5.23495,-2.83434c-3.45178,0 -6.25,2.79822 -6.25,6.25c0,1.24121 0.36181,2.39791 0.98572,3.37039c-0.48801,0.05112 -0.98371,0.07735 -1.48572,0.07735c-3.77466,0 -7.19241,-1.4829 -9.66836,-3.88112c1.32789,-1.14611 2.16836,-2.84155 2.16836,-4.73328c0,-3.39828 -2.71215,-6.1631 -6.08997,-6.24799c0.32875,-2.68897 1.48536,-5.1316 3.21558,-7.08119c1.07775,0.88279 2.45588,1.41251 3.95772,1.41251c3.37816,0 6.13034,-2.68013 6.2462,-6.03006c0.05674,-0.00067 0.11356,-0.00101 0.17047,-0.00101c0.98429,0 1.9443,0.10083 2.86968,0.29243c0.2973,2.7559 2.38604,4.97495 5.07811,5.46906c-1.2967,1.14519 -2.11447,2.82022 -2.11447,4.68624c0,3.45178 2.79822,6.25 6.25,6.25c0.4017,0 0.79455,-0.0379 1.17517,-0.11031c-0.29001,1.09839 -0.72115,2.14192 -1.27354,3.11131zM238.9,185.25c3.45178,0 6.25,-2.79822 6.25,-6.25c0,-3.45178 -2.79822,-6.25 -6.25,-6.25c-3.45178,0 -6.25,2.79822 -6.25,6.25c0,3.45178 2.79822,6.25 6.25,6.25z" stroke="#db6000"/><path d="M235.17357,165.13197c1.00866,2.52795 -1.26986,4.00227 -3.63361,3.21435c-1.17902,-0.39301 -1.38524,-2.0717 -1.94103,-3.1833c-0.18291,-0.34741 -0.28642,-0.74312 -0.28642,-1.16302c0,-0.02656 0.00041,-0.05302 0.00124,-0.07938c0.06731,-3.68361 1.46507,-3.53668 2.87921,-2.39186c1.14574,0.17493 2.03561,1.12762 2.11395,2.30241c0.48308,0.64517 0.81567,1.17294 0.86668,1.30079z" stroke="none"/><path d="M250.8125,169.375c0,-0.83982 0.65616,-1.59366 1.25,-2.1875c0.29667,-0.29667 2.49315,-0.86211 3.02907,-1.04075c0.2642,-0.09499 0.54902,-0.14675 0.84593,-0.14675c0.2072,0 0.40851,0.02521 0.60104,0.07272c2.08126,0.33925 2.43224,1.42319 1.89388,2.58792c-0.07466,1.17732 -0.96422,2.13327 -2.11089,2.31005c-2.31221,1.62486 -5.50903,2.16702 -5.50903,-1.59569z" stroke="none"/><path d="M255.0658,178.16557c-0.60472,-1.81415 3.95838,-5.3889 5.14054,-3.32011c0.73685,0.43488 1.23117,1.23698 1.23117,2.15454c0,1.35478 -1.07764,2.45786 -2.42248,2.49882c-1.44232,0.94942 -3.11094,1.18161 -3.94922,-1.33325z" stroke="none"/><path d="M262.59223,193.27488c-0.12311,0.10563 -0.26261,0.19602 -0.41551,0.27187c-0.36527,0.20887 -0.7883,0.32825 -1.23922,0.32825c-0.10058,0 -0.19978,-0.00594 -0.29726,-0.01749c-1.96673,-0.0011 -4.39812,-1.16265 -4.64024,-2.85751c-0.57746,-4.04224 2.84416,-3.80123 4.93945,-2.125c0.25096,0.00019 0.49327,0.03736 0.72177,0.10636c1.37679,0.06556 1.82907,1.1472 1.77138,2.23588c0.00325,0.05217 0.0049,0.10477 0.0049,0.15776c0,0.59681 -0.20913,1.14478 -0.5581,1.57462c-0.08863,0.12752 -0.18506,0.23764 -0.28717,0.32526z" stroke="none"/><path d="M254.68161,200.72053c-2.47266,0.47173 -6.83629,-3.0135 -4.82128,-5.53227c0.96446,-1.20558 5.86498,-0.31719 6.21236,1.41971c0.38291,0.43924 0.61481,1.01355 0.61481,1.64202c0,1.1033 -0.7147,2.03968 -1.70639,2.37141c-0.09274,0.04492 -0.19217,0.07864 -0.2995,0.09912z" stroke="none"/><path d="M248.1875,202.9375c-5.56601,3.13094 -8.17337,-9.55427 -1.69504,-6.3151c0.77919,0.3896 1.28166,1.21668 1.71387,1.97306c0.73685,0.43488 1.23117,1.23698 1.23117,2.15454c0,0.81357 -0.38862,1.53638 -0.99036,1.99291c-0.07697,0.07451 -0.16278,0.14011 -0.25964,0.19459z" stroke="none"/><path d="M229.0567,199.73507c1.45495,-7.72241 8.25645,1.08047 3.54874,2.97592c-0.34859,0.18452 -0.74606,0.28902 -1.16793,0.28902c-1.38071,0 -2.5,-1.11929 -2.5,-2.5c0,-0.2668 0.04179,-0.52384 0.11919,-0.76493z" stroke="none"/><path d="M225.4375,189.75c1.69786,0 2.82524,1.66143 2.5,3.125c-0.31613,1.42258 -0.81385,2.84584 -2.10246,3.72131c-0.12467,0.0847 -0.27179,0.15546 -0.43469,0.21154c-0.29635,0.12378 -0.62162,0.19215 -0.96285,0.19215c-0.22761,0 -0.44812,-0.03042 -0.65769,-0.08741c-1.13115,-0.19118 -2.15682,-0.92764 -1.84146,-2.34675c-0.00057,-0.02188 -0.00085,-0.04382 -0.00085,-0.06584c0,-0.56295 0.18607,-1.08243 0.50006,-1.50032c0.63163,-1.53699 1.70365,-3.24968 2.99994,-3.24968z" stroke="none"/><path d="M226.0625,186.375c0.26962,1.29418 -2.70242,4.9738 -4.17184,3.99419c-1.30056,-0.08829 -2.32816,-1.17123 -2.32816,-2.49419c0,-1.02427 0.61597,-1.90467 1.4977,-2.29097c1.74091,-1.65835 4.34875,-2.34609 5.0023,0.79097z" stroke="none"/><path d="M222.68421,177.79057c-0.27298,0.81895 -5.21361,2.92278 -5.91368,0.82258c-0.51128,-0.45776 -0.83303,-1.12288 -0.83303,-1.86315c0,-1.38071 1.11929,-2.5 2.5,-2.5c0.34033,0 0.66478,0.06801 0.9605,0.19117c2.18686,-0.3975 4.10161,0.90318 3.28621,3.3494z" stroke="none"/><path d="M220.79775,161.60943c1.94319,-0.09098 4.61193,2.40446 3.37582,4.25861c-0.72965,1.09448 -5.18895,2.23633 -5.3345,-0.3836c-0.25403,-0.39131 -0.40157,-0.85814 -0.40157,-1.35944c0,-1.22776 0.88504,-2.24881 2.05193,-2.45996c0.09689,-0.03131 0.19936,-0.05052 0.30832,-0.05562z" stroke="none"/><path d="M243.4375,163.25c-1.3029,0 -3.96042,-4.04047 -2.02954,-5.14383c0.43488,-0.73685 1.23698,-1.23117 2.15454,-1.23117c1.38071,0 2.5,1.11929 2.5,2.5c0,0.22569 -0.02991,0.4444 -0.08597,0.65238c0.57626,1.62187 0.23579,3.22262 -2.53903,3.22262z" stroke="none"/><path d="M249.9375,164.875c-0.25202,0 -0.62187,-0.17788 -1.00917,-0.46205c-0.61655,-0.27235 -1.10231,-0.7866 -1.33696,-1.42245c-0.5014,-0.80075 -0.64203,-1.65798 0.19159,-2.13434c0.43488,-0.73685 1.23698,-1.23117 2.15454,-1.23117c1.38071,0 2.5,1.11929 2.5,2.5c0,0.22746 -0.03038,0.44783 -0.0873,0.65727c0.28548,1.12045 -0.18853,2.09273 -2.4127,2.09273z" stroke="none"/></g></g></svg>