<svg version="1.1" xmlns="http://www.w3.org/2000/svg" xmlns:xlink="http://www.w3.org/1999/xlink" width="716.73968" height="160.7026" viewBox="0,0,716.73968,160.7026"><defs><radialGradient cx="60.5" cy="177" r="29" gradientUnits="userSpaceOnUse" id="color-1"><stop offset="0" stop-color="#777777"/><stop offset="1" stop-color="#cecece"/></radialGradient><linearGradient x1="227.75031" y1="183.7315" x2="335.09538" y2="183.7315" gradientTransform="translate(-218.6309,-187.91218) scale(0.95996,0.95996)" gradientUnits="userSpaceOnUse" id="color-2"><stop offset="0" stop-color="#00ceff"/><stop offset="1" stop-color="#0071ff"/></linearGradient></defs><g transform="translate(-31.5,-49.11049)"><g data-paper-data="{&quot;isPaintingLayer&quot;:true}" fill-rule="nonzero" stroke-linejoin="miter" stroke-miterlimit="10" stroke-dasharray="" stroke-dashoffset="0" style="mix-blend-mode: normal"><path d="M746.73968,50.61049l-2.23968,0.38951" fill="none" stroke="#00e21e" stroke-width="3" stroke-linecap="round"/><text transform="translate(91.5,194.19063) scale(1.08334,1.08334)" font-size="40" xml:space="preserve" fill="#ffffff" fill-rule="nonzero" stroke="none" stroke-width="1" stroke-linecap="butt" stroke-linejoin="miter" stroke-miterlimit="10" stroke-dasharray="" stroke-dashoffset="0" font-family="&quot;black&quot;, &quot;Microsoft YaHei&quot;, &quot;微软雅黑&quot;, STXihei, &quot;华文细黑&quot;" font-weight="normal" text-anchor="start" style="mix-blend-mode: normal"><tspan x="0" dy="0">第二名</tspan></text><path d="M31.5,177c0,-16.01626 12.98374,-29 29,-29c16.01626,0 29,12.98374 29,29c0,16.01626 -12.98374,29 -29,29c-16.01626,0 -29,-12.98374 -29,-29z" fill="url(#color-1)" stroke="none" stroke-width="0" stroke-linecap="butt"/><path d="M48,193l12.66667,-32.33333l14,32.66667l-32.33333,-18.66667l38.33333,-6.66667z" fill="none" stroke="#000000" stroke-width="2.5" stroke-linecap="round"/><text transform="translate(227.75,195.75) scale(1.04171,1.04171)" font-size="40" xml:space="preserve" fill="url(#color-2)" fill-rule="nonzero" stroke="none" stroke-width="1" stroke-linecap="butt" stroke-linejoin="miter" stroke-miterlimit="10" stroke-dasharray="" stroke-dashoffset="0" font-family="&quot;black&quot;, &quot;Microsoft YaHei&quot;, &quot;微软雅黑&quot;, STXihei, &quot;华文细黑&quot;" font-weight="normal" text-anchor="start" style="mix-blend-mode: normal"><tspan x="0" dy="0">玩家2</tspan></text></g></g></svg>