<svg version="1.1" xmlns="http://www.w3.org/2000/svg" xmlns:xlink="http://www.w3.org/1999/xlink" width="295" height="214" viewBox="0,0,295,214"><defs><linearGradient x1="231.75" y1="194.17814" x2="375.57813" y2="194.17814" gradientTransform="translate(-463.5,-376.35628) scale(2,2)" gradientUnits="userSpaceOnUse" id="color-1"><stop offset="0" stop-color="#00b4ff"/><stop offset="1" stop-color="#ff0094"/></linearGradient><linearGradient x1="165.37706" y1="122.59644" x2="165.37706" y2="195.92978" gradientUnits="userSpaceOnUse" id="color-2"><stop offset="0" stop-color="#1ffff4"/><stop offset="1" stop-color="#9966ff"/></linearGradient></defs><g transform="translate(-92.5,-73)"><g data-paper-data="{&quot;isPaintingLayer&quot;:true}" fill-rule="nonzero" stroke-linejoin="miter" stroke-miterlimit="10" stroke-dasharray="" stroke-dashoffset="0" style="mix-blend-mode: normal"><path d="M96,283.5v-207h288v207z" fill="#00ffff" stroke="#ff0000" stroke-width="7" stroke-linecap="butt"/><path d="M372.91421,116.41421c-1.41421,1.41421 -2.82843,0 -2.82843,0l-1,-1c-2.62442,-2.82922 -3.12528,-6.28183 -5.58437,-9.22166c-2.63439,4.65945 -5.14462,9.41726 -8.28576,13.83532l-0.9268,1.86655c0,0 -0.89443,1.78885 -2.68328,0.89443c-1.78885,-0.89443 -0.89443,-2.68328 -0.89443,-2.68328l1.0732,-2.13345c3.22706,-4.57867 5.81435,-9.50518 8.55441,-14.3162c-1.69218,-0.96465 -3.83682,-2.00757 -4.71795,-2.57208c-2.57385,-1.64898 -3.2185,-3.18464 -6.1208,-3.08384c0,0 -2,0 -2,-2c0,-2 2,-2 2,-2c3.8893,0.0846 5.03801,1.63802 8.2792,3.71616c1.61186,1.03347 3.0812,1.83866 4.45273,2.6962c1.32443,-2.20055 2.7206,-4.35351 4.26807,-6.41236c2.19002,-2.91374 2.94083,-5.06236 6.10557,-6.78885c0,0 1.78885,-0.89443 2.68328,0.89443c0.89443,1.78885 -0.89443,2.68328 -0.89443,2.68328c-2.20133,0.93002 -3.2347,3.66084 -4.69443,5.61115c-1.53928,2.0566 -2.92433,4.20875 -4.23845,6.4081c0.77545,0.7105 1.52713,1.53226 2.26598,2.53385c0.91513,1.24055 1.92904,2.44597 2.55553,3.8545c0.26977,0.60651 -0.24346,1.39277 0.0444,1.99091c0.30573,0.63527 1.05784,0.93229 1.58675,1.39843l1,1c0,0 1.41421,1.41421 0,2.82843z" fill="#ff0000" stroke="none" stroke-width="0.5" stroke-linecap="butt"/><text transform="translate(249.75,144.67814) scale(0.5,0.5)" font-size="40" xml:space="preserve" fill="#000000" fill-rule="nonzero" stroke="none" stroke-width="1" stroke-linecap="butt" stroke-linejoin="miter" stroke-miterlimit="10" stroke-dasharray="" stroke-dashoffset="0" font-family="&quot;black&quot;, &quot;Microsoft YaHei&quot;, &quot;微软雅黑&quot;, STXihei, &quot;华文细黑&quot;" font-weight="normal" text-anchor="start" style="mix-blend-mode: normal"><tspan x="0" dy="0">魅惑菇</tspan></text><text transform="translate(231.75,188.17814) scale(0.5,0.5)" font-size="40" xml:space="preserve" fill="url(#color-1)" fill-rule="nonzero" stroke="none" stroke-width="1" stroke-linecap="butt" stroke-linejoin="miter" stroke-miterlimit="10" stroke-dasharray="" stroke-dashoffset="0" font-family="&quot;black&quot;, &quot;Microsoft YaHei&quot;, &quot;微软雅黑&quot;, STXihei, &quot;华文细黑&quot;" font-weight="normal" text-anchor="start" style="mix-blend-mode: normal"><tspan x="0" dy="0">我是你的队友??</tspan><tspan x="0" dy="48px">友----</tspan></text><path d="M138.22401,122.59643c0,0 31.23212,14.81036 39.46885,19.90929c10.0621,6.22892 28.19781,33.75738 28.19781,33.75738l-80.33333,19.66667c0,0 -2.4764,-20.16457 1.92741,-29.99774c3.49572,-7.80552 10.73925,-43.33559 10.73925,-43.33559z" fill="url(#color-2)" stroke="#000000" stroke-width="0.5" stroke-linecap="round"/><path d="M185.89067,180.59645c0,0 1.91013,12.33782 3.31042,21.23198c1.05731,6.71568 1.68065,9.74855 1.78192,13.7488c0.20476,8.0882 -3.75901,17.68588 -3.75901,17.68588l-44.66667,1.33333c0,0 2.71679,-8.53381 3.39216,-11.23529c1.80475,-7.21898 9.94118,-35.09804 9.94118,-35.09804z" fill="#1ffff4" stroke="#000000" stroke-width="0.5" stroke-linecap="round"/><path d="M165.11428,191.14923c0.44721,0.22361 0.22361,0.67082 0.22361,0.67082l-0.33333,0.66667c-0.3136,0.61682 -0.7069,1.17496 -1.1421,1.69949c0.31528,1.79398 1.1173,3.07793 2.48751,4.55635c1.14418,1.25689 5.60914,1.96475 6.05409,-0.59432c0.09468,-0.54451 0.31995,-2.88441 -0.37138,-3.08985c-0.53066,-0.1577 -1.6462,0.06513 -2.1937,0.13083c-0.59628,0.07156 -1.18966,0.24829 -1.72469,0.52111c0,0 -0.44721,0.22361 -0.67082,-0.22361c-0.22361,-0.44721 0.22361,-0.67082 0.22361,-0.67082c0.64028,-0.31483 1.34121,-0.52908 2.04901,-0.6191c0.64276,-0.08175 2.1275,-0.32428 2.69927,-0.06229c1.4379,0.65884 1.36836,3.9722 0.54761,5.08763c-1.67483,2.27617 -5.55692,2.10287 -7.34649,0.20012c-0.76739,-0.82825 -1.92117,-2.52214 -2.60341,-4.29261c-0.69045,0.71937 -1.42032,1.40017 -2.07184,2.12051c-0.38912,0.43021 -0.9644,1.96014 -0.50215,2.46651c0.69514,0.76149 2.34632,1.42757 3.24407,2.00919c0.79416,0.51451 1.40782,0.66761 2.32502,0.85085c5.19056,1.05558 14.32225,-4.56966 7.51883,-9.43816c-2.51147,-1.25067 -6.10203,-3.76197 -9.13608,-2.39258c-0.71482,0.32263 -0.71366,1.22962 -0.68015,1.91574c0.16879,-0.22245 0.30562,-0.43077 0.39938,-0.6222l0.33333,-0.66667c0,0 0.22361,-0.44721 0.67082,-0.22361zM162.62753,193.90523c-0.40204,-1.68899 -0.19081,-3.28178 1.38685,-4.08568c3.20175,-1.63147 7.35,1.11812 10.02884,2.46255c2.28204,1.63397 3.93924,5.41459 1.90721,7.95667c-2.26308,2.83113 -6.6939,3.99705 -10.1384,3.31852c-1.03903,-0.20802 -1.76658,-0.41366 -2.66972,-0.99029c-0.9309,-0.59436 -2.85281,-1.41445 -3.51368,-2.2645c-1.46234,-1.88092 1.14243,-4.41019 2.9989,-6.39727z" fill="#ff0000" stroke="none" stroke-width="0.5" stroke-linecap="butt"/><path d="M185.91288,193.09595c-0.49951,0.02221 -0.52172,-0.47729 -0.52172,-0.47729l0.00806,-0.24875c-0.1834,-0.95796 -2.59008,-1.43245 -3.63699,-0.98404c-1.32847,0.56901 -1.03937,3.51016 -0.99262,4.55243c0.15204,3.61226 1.25044,5.04668 4.66706,4.17293c0.60851,-0.15562 0.89111,0.16463 1.45973,-0.22584c1.25646,-0.86279 -1.73034,-2.12897 -2.33907,-2.12227c0,0 -0.5,0 -0.5,-0.5c0,-0.5 0.5,-0.5 0.5,-0.5c1.45929,0.01262 5.18975,2.10251 2.99427,3.87773c-0.4989,0.4034 -1.25117,0.28522 -1.8736,0.44083c-0.87855,0.21964 -1.52436,0.85726 -2.5282,0.67591c-2.7427,-0.49549 -3.2695,-3.44703 -3.37918,-5.7746c-0.07562,-1.69512 -0.15662,-3.45578 0.94556,-4.85735c1.34561,-1.71113 4.9446,-0.72172 5.63173,0.92806l0.04227,0.52055c0,0 0.02221,0.49951 -0.47729,0.52172z" fill="#ff0000" stroke="none" stroke-width="0.5" stroke-linecap="butt"/><path d="M182.39067,186.59644c0,0.5 -0.5,0.5 -0.5,0.5l0.11388,-0.27639c-0.81479,1.62957 -2.0675,2.95946 -2.74509,4.68189c-0.92681,2.35596 -0.53546,5.29146 -0.53546,7.76117c-0.08618,5.70308 6.98671,6.53096 10.94306,4.55279c0,0 0.44721,-0.22361 0.67082,0.22361c0.22361,0.44721 -0.22361,0.67082 -0.22361,0.67082c-4.72281,2.36141 -12.31329,0.96982 -12.39027,-5.44721c0,-2.61593 -0.3673,-5.62947 0.60416,-8.12545c0.68285,-1.75445 1.95612,-3.11315 2.78195,-4.76483l0.78055,-0.27639c0,0 0.5,0 0.5,0.5z" fill="#ff0000" stroke="none" stroke-width="0.5" stroke-linecap="butt"/><path d="M179.05734,218.92978c0,-0.27614 0.22386,-0.5 0.5,-0.5c0.27614,0 0.5,0.22386 0.5,0.5c0,0.27614 -0.22386,0.5 -0.5,0.5c-0.27614,0 -0.5,-0.22386 -0.5,-0.5z" fill="#ff0000" stroke="none" stroke-width="0.5" stroke-linecap="butt"/><text transform="translate(271.00474,265.09329) scale(0.5,0.5)" font-size="40" xml:space="preserve" fill="#00b4ff" fill-rule="nonzero" stroke="none" stroke-width="1" stroke-linecap="butt" stroke-linejoin="miter" stroke-miterlimit="10" stroke-dasharray="" stroke-dashoffset="0" font-family="&quot;black&quot;, Sans Serif" font-weight="normal" text-anchor="start" style="mix-blend-mode: normal"><tspan x="0" dy="0"> </tspan></text></g></g></svg>