<svg version="1.1" xmlns="http://www.w3.org/2000/svg" xmlns:xlink="http://www.w3.org/1999/xlink" width="115.45135" height="110.42284" viewBox="0,0,115.45135,110.42284"><g transform="translate(-182.04865,-125)"><g data-paper-data="{&quot;isPaintingLayer&quot;:true}" fill-rule="nonzero" stroke-linejoin="miter" stroke-miterlimit="10" stroke-dasharray="" stroke-dashoffset="0" style="mix-blend-mode: normal"><path d="M222.5,221l-40,14l17,-40z" fill="#cccccc" stroke="#ffffff" stroke-width="0.5" stroke-linecap="round"/><path d="M195.5,176c0,-28.16652 22.83348,-51 51,-51c28.16652,0 51,22.83348 51,51c0,28.16652 -22.83348,51 -51,51c-28.16652,0 -51,-22.83348 -51,-51z" fill="#cccccc" stroke="none" stroke-width="0" stroke-linecap="butt"/><path d="M223.875,190c0,0 -0.44737,-2.8073 0.50335,-4.34317c0.78288,-1.26473 3.74665,-1.68445 3.74665,-2.65683c0,-7.48893 0,-20.98312 0,-25.25c0,-1.86612 0.75,-3.25 0.75,-3.25c0,0 1.395,-0.5 3.5,-0.5c4.94411,0 25.2979,0 32.75,0c1.71776,0 2.25,0.25 2.25,0.25c0,0 0.5,1.35087 0.5,3c0,4.05362 0,21.48962 0,29.25c0,2.29993 -0.5,3.25 -0.5,3.25c0,0 -0.52945,0.5 -2.25,0.5c-0.48722,0 -1.02987,2.07353 -1.62025,4.77832c-0.35947,1.64687 -1.73663,4.22168 -2.12975,4.22168c-0.465,0 -4.45233,3.11306 -4.95913,1.41328c-0.80201,-2.68991 -4.65276,-10.66328 -5.54087,-10.66328c-10.02605,0 -17.31435,0.25 -20.5,0.25c-1.20487,0 -6.5,-0.25 -6.5,-0.25z" fill="#ff0000" stroke="none" stroke-width="0" stroke-linecap="butt"/><path d="M269.625,188.75v-32.75h10.25v32.75z" fill="#ff0000" stroke="none" stroke-width="0" stroke-linecap="butt"/></g></g></svg>