<svg version="1.1" xmlns="http://www.w3.org/2000/svg" xmlns:xlink="http://www.w3.org/1999/xlink" width="100.61563" height="139.5231" viewBox="0,0,100.61563,139.5231"><g transform="translate(-189.69218,-110.23845)"><g data-paper-data="{&quot;isPaintingLayer&quot;:true}" fill="none" fill-rule="nonzero" stroke="#ff6692" stroke-width="7.5" stroke-linecap="butt" stroke-linejoin="miter" stroke-miterlimit="10" stroke-dasharray="" stroke-dashoffset="0" style="mix-blend-mode: normal"><g><path d="M286.55782,180c0,36.45718 -20.84465,66.01155 -46.55782,66.01155c-25.71317,0 -46.55782,-29.55437 -46.55782,-66.01155c0,-36.45718 20.84465,-66.01155 46.55782,-66.01155c25.71317,0 46.55782,29.55437 46.55782,66.01155z"/><path d="M276.06592,180c0,31.50769 -16.14726,57.04971 -36.06592,57.04971c-19.91865,0 -36.06591,-25.54202 -36.06591,-57.04971c0,-31.50769 16.14726,-57.04972 36.06591,-57.04972c19.91866,0 36.06592,25.54203 36.06592,57.04972z"/><path d="M262.51667,180c0,21.488 -10.08105,38.90747 -22.51666,38.90747c-12.43561,0 -22.51666,-17.41947 -22.51666,-38.90747c0,-21.488 10.08105,-38.90747 22.51666,-38.90747c12.43561,0 22.51666,17.41947 22.51666,38.90747z"/><path d="M253.2823,180c0,12.67551 -5.94669,22.95103 -13.2823,22.95103c-7.33561,0 -13.2823,-10.27552 -13.2823,-22.95103c0,-12.67551 5.94669,-22.95103 13.2823,-22.95103c7.33561,0 13.2823,10.27552 13.2823,22.95103z"/></g></g></g></svg>