<svg version="1.1" xmlns="http://www.w3.org/2000/svg" xmlns:xlink="http://www.w3.org/1999/xlink" width="477" height="337" viewBox="0,0,477,337"><g transform="translate(-0.4375,-1)"><g data-paper-data="{&quot;isPaintingLayer&quot;:true}" fill="none" fill-rule="nonzero" stroke="#000000" stroke-width="5" stroke-linejoin="miter" stroke-miterlimit="10" stroke-dasharray="" stroke-dashoffset="0" style="mix-blend-mode: normal"><path d="M3.9375,335.5v-332h471v332z" stroke-linecap="butt"/><path d="M4.9375,63.5l87,1" stroke-linecap="round"/><path d="M50.9375,65.5l2,38l92,1" stroke-linecap="round"/><path d="M142.9375,7.5v52" stroke-linecap="round"/><path d="M195.9375,9.5l-6,162" stroke-linecap="round"/><path d="M127.9375,138.5v9" stroke-linecap="round"/><path d="M2.9375,197.5h122" stroke-linecap="round"/><path d="M57.9375,224.5l-5,106" stroke-linecap="round"/><path d="M100.9375,278.5l169,2" stroke-linecap="round"/><path d="M212.9375,223.5l168,2" stroke-linecap="round"/><path d="M418.9375,291.5l30,-104" stroke-linecap="round"/><path d="M268.9375,166.5l53,-109" stroke-linecap="round"/><path d="M234.9375,74.5h20" stroke-linecap="round"/><path d="M387.9375,103.5l61,-8" stroke-linecap="round"/><path d="M417.9375,40.5l9,-14" stroke-linecap="round"/></g></g></svg>