<svg version="1.1" xmlns="http://www.w3.org/2000/svg" xmlns:xlink="http://www.w3.org/1999/xlink" width="63" height="60.09506" viewBox="0,0,63,60.09506"><defs><linearGradient x1="241.9375" y1="185.75" x2="241.9375" y2="188.25" gradientUnits="userSpaceOnUse" id="color-1"><stop offset="0" stop-color="#b3b1b1"/><stop offset="1" stop-color="#1a1919"/></linearGradient><linearGradient x1="233.4375" y1="192.25" x2="233.4375" y2="194.75" gradientUnits="userSpaceOnUse" id="color-2"><stop offset="0" stop-color="#b3b1b1"/><stop offset="1" stop-color="#1a1919"/></linearGradient></defs><g transform="translate(-211.9375,-157.40494)"><g data-paper-data="{&quot;isPaintingLayer&quot;:true}" fill-rule="nonzero" stroke-linejoin="miter" stroke-miterlimit="10" stroke-dasharray="" stroke-dashoffset="0" style="mix-blend-mode: normal"><path d="M211.9375,217.5v-60h63v60z" fill="#b3b1b1" stroke="none" stroke-width="0" stroke-linecap="butt"/><path d="M242.9375,216.13769l-1,-58.71089l1,57.16587" fill="none" stroke="#000000" stroke-width="2.5" stroke-linecap="round"/><path d="M259.1875,188.75c0,3.86599 -2.46243,7 -5.5,7c-3.03757,0 -5.5,-3.13401 -5.5,-7c0,-3.86599 2.46243,-7 5.5,-7c3.03757,0 5.5,3.13401 5.5,7z" fill-opacity="0.66275" fill="#b3b1b1" stroke-opacity="0.41961" stroke="#000000" stroke-width="2.5" stroke-linecap="butt"/><path d="M267.9375,189.5c0,3.86599 -2.46243,7 -5.5,7c-3.03757,0 -5.5,-3.13401 -5.5,-7c0,-3.86599 2.46243,-7 5.5,-7c3.03757,0 5.5,3.13401 5.5,7z" fill="#b3b1b1" stroke="#000000" stroke-width="2.5" stroke-linecap="butt"/><path d="M249.9375,187c0,0.27614 -3.58172,0.5 -8,0.5c-4.41828,0 -8,-0.22386 -8,-0.5c0,-0.27614 3.58172,-0.5 8,-0.5c4.41828,0 8,0.22386 8,0.5z" fill="url(#color-1)" stroke="#000000" stroke-width="2.5" stroke-linecap="butt"/><path d="M233.4375,194.5c-3.58985,0 -6.5,-0.44772 -6.5,-1c0,-0.55228 2.91015,-1 6.5,-1c3.58985,0 6.5,0.44772 6.5,1c0,0.55228 -2.91015,1 -6.5,1z" fill="url(#color-2)" stroke="#000000" stroke-width="2.5" stroke-linecap="butt"/><path d="M250.9375,188.75c0,3.86599 -2.46243,7 -5.5,7c-3.03757,0 -5.5,-3.13401 -5.5,-7c0,-3.86599 2.46243,-7 5.5,-7c3.03757,0 5.5,3.13401 5.5,7z" fill-opacity="0.66275" fill="#b3b1b1" stroke-opacity="0.41961" stroke="#000000" stroke-width="2.5" stroke-linecap="butt"/><path d="M241.6875,188.75c0,3.86599 -2.46243,7 -5.5,7c-3.03757,0 -5.5,-3.13401 -5.5,-7c0,-3.86599 2.46243,-7 5.5,-7c3.03757,0 5.5,3.13401 5.5,7z" fill-opacity="0.66275" fill="#b3b1b1" stroke-opacity="0.41961" stroke="#000000" stroke-width="2.5" stroke-linecap="butt"/><path d="M233.9375,189.25c0,3.86599 -2.46243,7 -5.5,7c-3.03757,0 -5.5,-3.13401 -5.5,-7c0,-3.86599 2.46243,-7 5.5,-7c3.03757,0 5.5,3.13401 5.5,7z" fill-opacity="0.66275" fill="#b3b1b1" stroke-opacity="0.41961" stroke="#000000" stroke-width="2.5" stroke-linecap="butt"/></g></g></svg>