<svg version="1.1" xmlns="http://www.w3.org/2000/svg" xmlns:xlink="http://www.w3.org/1999/xlink" width="222.44053" height="134.00032" viewBox="0,0,222.44053,134.00032"><g transform="translate(-148.4012,-113)"><g data-paper-data="{&quot;isPaintingLayer&quot;:true}" fill-rule="nonzero" stroke="none" stroke-linecap="butt" stroke-linejoin="miter" stroke-miterlimit="10" stroke-dasharray="" stroke-dashoffset="0" style="mix-blend-mode: normal"><path d="M157.5,238.5v-117h165v117z" fill="#00a8ff" stroke-width="0"/><path d="M233.9375,193.5v-32h132v32z" fill="#006cff" stroke-width="0"/><path d="M156.4375,115.5c0,0.75025 -0.22515,1.27536 -0.54032,1.64287c4.85536,0.97951 9.64849,2.0612 14.44078,2.88941c1.83928,0.31787 3.733,-0.03228 5.59954,-0.03228c5,0 10,0 15,0c11.4198,0 22.66217,0.58469 34.04546,1.00041c8.98485,-0.00075 17.9697,-0.00041 26.95454,-0.00041c4.72745,0 10.04374,0.70043 14.69454,0.01873c6.91024,-1.01288 13.87423,-1.13951 20.81468,-1.98718c2.46896,-0.30154 4.72293,-1.66163 7.18532,-2.01282c5.18,-0.7388 11.08084,-0.01873 16.30546,-0.01873c1.16386,0 6.73781,-0.08622 7.31433,0.37337c1.65986,1.32322 2.38853,3.55907 3.11879,5.55224c0.32684,0.89208 -0.34066,1.94855 -0.04039,2.84992c0.34855,1.04631 1.4697,1.69494 1.89356,2.71308c1.74214,4.18482 1.21371,8.62049 1.21371,13.01138c0,0.48002 0.00949,6.14144 -0.03228,6.40046c-0.16784,1.04064 -0.86685,1.95435 -1,3c-0.19367,1.52094 0.21499,3.07725 0.03228,4.59954c-0.05694,0.47439 -1.07008,0.89438 -0.73223,1.23223c0.33785,0.33785 0.75905,-0.66601 1.23223,-0.73223c0.26402,-0.03695 8.39057,0.03087 8.40046,0.03228c2.37095,0.33866 4.52799,1.69334 6.905,1.98645c3.43394,0.42344 7.22489,-0.01873 10.69454,-0.01873c4.29148,0 8.71669,-0.28272 13,0c1.86715,0.12324 4.23328,-0.72733 5.58497,0.56664c2.10356,2.01374 1.90237,7.05469 1.91502,9.92552c0.02579,5.8562 0.90859,12.5501 -0.01872,18.3133c-0.52872,3.28597 -1.08939,6.43961 -4.52456,8.00424c-0.52328,0.23834 -5.99298,0.1903 -6.95671,0.1903c-6,0 -12,0 -18,0c-3.45882,0 -7.13275,-0.25162 -10.59954,-0.03228c-0.55224,0.03494 -1.25966,-0.10865 -1.63269,0.30005c-0.42843,0.4694 -0.22745,1.2506 -0.35152,1.8739c-0.3364,1.68999 -0.48477,3.43116 -1.02984,5.06583c-1.0775,3.23145 -3.33982,6.23356 -3.91869,9.69296c-0.75705,4.52422 0.03228,10.04112 0.03228,14.59954c0,3.49325 -0.25802,6.04493 -1.03228,9.40046c-0.33148,1.4366 0.52862,3.55225 -0.69995,4.36731c-1.94753,1.29203 -4.63698,0.75017 -6.97397,0.72371c-4.88217,-0.05528 -10.27239,-2.03179 -15.04373,-2.99226c-6.70101,-1.68282 -13.85365,-0.99923 -20.75007,-0.99923c-13,0 -26,0 -39,0c-10.83905,0 -21.56006,-1.22939 -31.39172,3.92487c-4.79417,0.05099 -7.52619,0.97072 -12.00565,2.00141c-3.34728,0.77018 -6.7002,1.5673 -10.10631,2.00985c-1.32557,0.17223 -2.70367,-0.26672 -4.01011,0.01613c-1.62262,0.35132 -2.99575,1.52437 -4.6231,1.85305c-0.96733,0.19537 -7.13539,0.19667 -8.85954,0.19468c-6.06917,-0.00698 -9.90464,-1.54386 -15.10195,-4.25421c-1.16919,-0.60972 -2.77736,-0.50691 -3.66939,-1.47802c-2.19701,-2.39177 -1.72138,-5.94376 -1.73223,-8.76777c-0.00343,-0.89149 -0.00016,-9.1354 0.01873,-9.30546c0.52923,-4.76321 1.9743,-8.69404 1.97778,-13.60226c0.00645,-5.0685 0.09206,-10.40787 1.03251,-15.41063c0.59524,-3.16637 1.73021,-6.25517 1.93035,-9.47079c0.52974,-8.51106 0.51612,-17.55647 0.04445,-26.07262c-0.25968,-4.68855 -1.45808,-9.16161 -1.97165,-13.78892c-0.14499,-1.30632 0.1805,-2.641 0.00106,-3.94303c-0.28808,-2.09038 -1.69851,-3.9175 -2.00096,-6.00585c-0.33444,-2.30924 0.39736,-4.70075 0,-7c-0.39021,-2.25788 -1,-4.50957 -1,-6.80091c0.68959,-2.133 1.38712,-4.26345 2.09601,-6.39011l3.37171,-1.70943c0,0 2.5,0 2.5,2.5zM153.52105,121.56558c-0.03857,0.11164 -0.07718,0.22327 -0.11584,0.33488c0,1.7648 0.719,3.45681 1,5.19909c0.50673,3.14185 -0.44772,3.81079 0,7c0.29281,2.08578 1.68937,3.91081 1.99904,5.99415c0.20836,1.40172 -0.11677,2.84273 0.0399,4.25116c0.52286,4.70049 1.72553,9.25066 1.98951,14.01689c0.48192,8.70119 0.52617,17.97579 -0.04706,26.66935c-0.22539,3.41817 -1.36772,6.71347 -2.00702,10.07888c-0.89132,4.69205 -0.94525,9.73802 -0.94559,14.49198c-0.02763,5.08783 -1.46808,9.27928 -2.01523,14.2035c-0.32006,2.88046 0.03104,5.79638 0.01873,8.69454c-0.00742,1.74634 -1.08326,4.12566 0.26777,5.23223c0.6159,0.50445 1.61097,0.18151 2.33061,0.52198c1.0864,0.51399 1.92851,1.45561 3,2c4.12274,2.09464 8.77328,1.78826 13.22408,1.73647c1.51003,-0.01757 3.05218,0.23024 4.52966,-0.08209c1.63694,-0.34603 3.02561,-1.51063 4.66167,-1.86086c1.4297,-0.30605 2.9357,0.11248 4.38561,-0.07585c7.3778,-0.95829 14.01076,-3.98659 21.49231,-3.89676c9.96562,-5.45796 21.56449,-4.07513 32.60828,-4.07513c13,0 26,0 39,0c7.31149,0 14.71927,-0.60829 21.84218,1.11996c4.79368,0.96435 9.56884,1.94771 14.36402,2.88856c1.01772,0.19968 2.06004,1.1012 3.02603,0.72371c0.55152,-0.21552 -0.73822,-1.04179 -0.69995,-1.63269c0.06813,-1.05189 0.82049,-1.9613 1,-3c0.7892,-4.56658 -0.03228,-9.97691 -0.03228,-14.59954c0,-0.47331 -0.00949,-6.14904 0.03228,-6.40046c0.6323,-3.80547 2.93646,-6.9489 4.12015,-10.50123c0.62382,-1.87213 0.8794,-7.2193 2.5798,-8.86608c3.24864,-3.14618 11.79038,-1.73223 15.76777,-1.73223c5,0 10,0 15,0c2.22594,0 5.92914,0.73802 8.04329,0.1903c1.99265,-0.51624 1.46053,-5.32341 1.45671,-6.6903c-0.01398,-4.99733 0.00474,-9.99482 0.00001,-14.99216c-0.0003,-0.32243 0.0069,-5.97657 -0.08498,-6.07448c-0.56584,-0.60294 -1.59265,0.48059 -2.41503,0.56664c-4.20976,0.44052 -8.77006,0 -13,0c-3.66719,0 -7.6781,0.43983 -11.30546,-0.01873c-4.08832,-0.51683 -6.55885,-1.99884 -10.69454,-1.98127c-1.33078,0.00565 -7.83995,0.19558 -8.76777,-0.73223c-1.13695,-1.13695 -0.62181,-3.16367 -0.73223,-4.76777c-0.19375,-2.81455 0.55184,-5.62045 1.03228,-8.40046c0.31787,-1.83928 -0.03228,-3.733 -0.03228,-5.59954c0,-3.48836 0.67811,-7.67852 -0.78629,-10.98862c-0.52649,-1.19006 -1.69473,-2.05245 -2.10644,-3.28692c-0.46819,-1.4038 0.6594,-4.32018 -0.9216,-5.59783c-0.44762,-0.36173 -1.11198,0.32766 -1.68567,0.37337c-0.99684,0.07943 -2,0 -3,0c-5.00891,0 -10.73085,-0.72924 -15.69454,-0.01873c-2.40397,0.3441 -4.60052,1.67656 -7.00895,1.98792c-1.70007,0.21978 -3.43704,-0.13527 -5.14252,0.03759c-1.65974,0.16823 -3.24913,0.8011 -4.90764,0.98105c-2.30013,0.24957 -4.65172,-0.3421 -6.94089,-0.00656c-1.35984,0.19932 -2.6388,0.81018 -4,1c-4.89222,0.68221 -10.34751,0.01873 -15.30546,0.01873c-9.01515,0 -18.0303,0.00033 -27.04546,-0.00041c-11.35574,-0.41164 -22.56302,-0.99959 -33.95454,-0.99959c-6.88445,0 -14.6249,1.0605 -21.40046,-0.03228c-4.99737,-0.80599 -10.02934,-2.00489 -15.08983,-3.01627c0,0 -0.4502,-0.09004 -0.92615,-0.38588z" fill="#fff700" stroke-width="0.5"/></g></g></svg>