<svg version="1.1" xmlns="http://www.w3.org/2000/svg" xmlns:xlink="http://www.w3.org/1999/xlink" width="476" height="337" viewBox="0,0,476,337"><g transform="translate(-1.4375,-1)"><g data-paper-data="{&quot;isPaintingLayer&quot;:true}" fill-rule="nonzero" stroke-linejoin="miter" stroke-miterlimit="10" stroke-dasharray="" stroke-dashoffset="0" style="mix-blend-mode: normal"><path d="M3.9375,335.5v-332h471v332z" fill="none" stroke="#000000" stroke-width="5" stroke-linecap="butt"/><path d="M117.57422,39.03691l-40.5,-1l-0.5,20l-68.5,-4" fill="none" stroke="#66cfff" stroke-width="5" stroke-linecap="round"/><path d="M113.07422,88.03691l-38.5,-0.5l1,-29.5" fill="none" stroke="#66cfff" stroke-width="5" stroke-linecap="round"/><path d="M174.57422,83.53691l-1.5,96.5" fill="none" stroke="#66cfff" stroke-width="5" stroke-linecap="round"/><path d="M112.57422,194.03691l-70,-2.5l1.5,-63l67.5,1.5" fill="none" stroke="#66cfff" stroke-width="5" stroke-linecap="round"/><path d="M76.09317,264.11255c0,-12.99479 10.53436,-23.52915 23.52915,-23.52915c12.99479,0 23.52915,10.53436 23.52915,23.52915c0,12.99479 -10.53436,23.52915 -23.52915,23.52915c-12.99479,0 -23.52915,-10.53436 -23.52915,-23.52915z" fill="none" stroke="#66cfff" stroke-width="5" stroke-linecap="butt"/><path d="M242.26664,310.8385l-29.69242,0.72595l0.5,-32h31" fill="none" stroke="#66cfff" stroke-width="5" stroke-linecap="round"/><path d="M469.08436,61.31445c0,29.68531 -24.61262,53.75 -54.97382,53.75c-30.3612,0 -54.97382,-24.06469 -54.97382,-53.75c0,-29.68531 24.61262,-53.75 54.97382,-53.75c30.3612,0 54.97382,24.06469 54.97382,53.75z" fill="none" stroke="#ff6692" stroke-width="5" stroke-linecap="butt"/><text transform="translate(242.07422,225.60394) scale(3.43361,3.43361)" font-size="40" xml:space="preserve" fill="#66cfff" fill-rule="nonzero" stroke="none" stroke-width="1" stroke-linecap="butt" stroke-linejoin="miter" stroke-miterlimit="10" stroke-dasharray="" stroke-dashoffset="0" font-family="Malgun Gothic" font-weight="normal" text-anchor="start" style="mix-blend-mode: normal"><tspan x="0" dy="0">→</tspan></text></g></g></svg>