<svg version="1.1" xmlns="http://www.w3.org/2000/svg" xmlns:xlink="http://www.w3.org/1999/xlink" width="63" height="60" viewBox="0,0,63,60"><g transform="translate(-211.9375,-157.5)"><g data-paper-data="{&quot;isPaintingLayer&quot;:true}" fill-rule="nonzero" stroke-linejoin="miter" stroke-miterlimit="10" stroke-dasharray="" stroke-dashoffset="0" style="mix-blend-mode: normal"><path d="M211.9375,217.5v-60h63v60z" fill="#b3b1b1" stroke="none" stroke-width="0" stroke-linecap="butt"/><path d="M228.28846,213.05232l-12.73363,-21.22272l13.58254,-21.39251" fill="none" stroke="#000000" stroke-width="5" stroke-linecap="round"/><path d="M261.56568,169.58818l9.84735,20.88316l-8.48909,22.58097" fill="none" stroke="#000000" stroke-width="5" stroke-linecap="round"/><path d="M233.38191,191.49002h-8.48909" fill="none" stroke="#000000" stroke-width="5" stroke-linecap="round"/><path d="M254.9442,191.49002h8.48909" fill="none" stroke="#000000" stroke-width="5" stroke-linecap="round"/><path d="M241.19187,192.42382c0,-1.92224 1.55828,-3.48053 3.48053,-3.48053c1.92224,0 3.48053,1.55828 3.48053,3.48053c0,1.92224 -1.55828,3.48053 -3.48053,3.48053c-1.92224,0 -3.48053,-1.55828 -3.48053,-3.48053z" fill-opacity="0.59608" fill="#000000" stroke="#000000" stroke-width="5" stroke-linecap="butt"/><path d="M238.81493,202.52584v0v0v0z" fill-opacity="0.59608" fill="#000000" stroke="#000000" stroke-width="5" stroke-linecap="butt"/><path d="M239.83362,182.66137c0,0 1.40533,-1.01869 2.20716,-1.01869c0.68882,0 2.10168,0 3.39564,0c1.43097,0 3.22585,1.8676 3.22585,1.8676" fill="none" stroke="#000000" stroke-width="2.5" stroke-linecap="round"/><path d="M235.58907,178.58661c0,0 1.95862,-2.03738 2.71651,-2.03738c1.54071,0 7.24066,0 10.52647,0c1.41109,0 2.88629,1.52804 2.88629,1.52804" fill="none" stroke="#000000" stroke-width="2.5" stroke-linecap="round"/><path d="M232.87256,172.47446c0,0 2.71941,-2.87274 4.07303,-2.86076c2.32292,0.02056 9.78688,0.08661 13.75876,0.12176c1.53015,0.01354 4.23984,2.90879 4.23984,2.90879" fill="none" stroke="#000000" stroke-width="2.5" stroke-linecap="round"/></g></g></svg>