<svg version="1.1" xmlns="http://www.w3.org/2000/svg" xmlns:xlink="http://www.w3.org/1999/xlink" width="208.4375" height="117" viewBox="0,0,208.4375,117"><g transform="translate(-157.5,-121.5)"><g data-paper-data="{&quot;isPaintingLayer&quot;:true}" fill-rule="nonzero" stroke="none" stroke-width="0" stroke-linecap="butt" stroke-linejoin="miter" stroke-miterlimit="10" stroke-dasharray="" stroke-dashoffset="0" style="mix-blend-mode: normal"><path d="M212.35048,141.70122c1.31589,-1.06174 2.65085,-2.6984 3.9975,-4.38262c-0.34238,1.67629 -0.63549,3.36111 -0.84957,5.05958c-0.57172,4.53585 -3.10606,10.50435 0.14915,13.71439c18.18927,17.9369 26.0608,-5.71582 33.46407,-16.09705c1.00679,-1.41177 1.73032,-3.0143 2.76038,-4.40918c0.38397,-0.51996 0.82497,-1.01281 1.29549,-1.49118c0.80131,9.1111 3.52984,21.44258 4.00981,23.58165c0.59291,2.64242 1.20339,5.2832 1.82908,7.9224c-7.82319,6.94131 -15.58968,13.94628 -23.37107,20.93453c-7.43086,-2.76502 -15.46154,-3.86027 -24.78354,-2.86056c-7.64739,0.82012 -14.84963,4.20531 -21.88132,7.32148c-5.0646,2.24443 -9.72078,5.29564 -14.45005,8.20145c2.87075,-9.36203 6.0151,-19.85281 6.71601,-21.24777c2.7675,-5.50791 7.21109,-9.99931 10.79248,-15.01626c2.97383,-4.16585 5.96476,-8.31992 8.91149,-12.50494c3.84469,-2.85795 7.68593,-5.72105 11.41011,-8.72594z" fill="#00a8ff"/><path d="M157.5,121.5l45.28798,0c-3.26329,1.60689 -6.45621,3.32779 -9.40217,5.44518c-2.74484,1.97283 -4.11583,5.36438 -6.09761,8.10276c-0.47885,0.66166 -0.95638,1.32426 -1.43279,1.98767c-0.65897,0.51793 -1.19447,0.93867 -1.5812,1.24168c-5.006,3.92233 -10.28646,7.51876 -15.01097,11.77595c-0.07506,0.06764 -1.54941,1.57118 -3.79099,3.86254l-4.67913,1.87165c-1.09249,0.44001 -2.19126,0.86604 -3.29313,1.28515z" fill="#00a8ff"/><path d="M220.16137,227.02709c3.44277,-1.85845 5.92343,-5.11297 8.85129,-7.708c3.36324,-2.98091 6.71614,-5.97343 10.06394,-8.97168c7.21461,5.77044 14.4738,14.59917 18.22666,18.65251c-3.93332,3.19465 -7.86325,6.39366 -11.86233,9.50008l-54.48546,0c11.23309,-4.34282 28.17905,-10.9186 29.20591,-11.47291z" fill="#00a8ff"/><path d="M289.992,164.42664c2.68006,-3.24025 3.6596,-7.57238 5.43069,-11.3862c0.50639,-1.09044 1.01129,-2.18157 1.51481,-3.27334v19.7329c0,5.52285 4.47715,10 10,10c4.20536,0 7.80442,-2.59586 9.28223,-6.27264l1.03083,-2.40527c1.8286,-4.31657 3.34194,-8.78564 5.24944,-13.06405v20.09459c-10.92552,8.53783 -21.85105,17.07565 -32.77657,25.61348c-2.84832,-10.33434 -5.72177,-20.66703 -8.39433,-31.03852c4.6384,-4.19502 8.25331,-7.50576 8.6629,-8.00095z" fill="#00a8ff"/><path d="M322.5,238.5l-22.54613,0c-0.84399,-2.0565 -1.68797,-4.11301 -2.53196,-6.16951c-0.66312,-2.63916 -1.34147,-5.27579 -2.03133,-7.91053c9.03647,-7.06161 18.07294,-14.12323 27.10941,-21.18484z" fill="#00a8ff"/><path d="M285.53477,126.54084c-2.80513,6.04778 -5.58231,12.1088 -8.30585,18.19376c-0.58226,1.30089 -0.95689,2.72665 -1.41921,4.09685c-1.31617,-7.16385 -3.16285,-18.56188 -5.27357,-27.33144h17.36774c-0.79596,1.67735 -1.58791,3.35658 -2.36911,5.04084z" fill="#00a8ff"/><path d="M180.78223,218.75195c9.19209,-5.309 21.29914,-13.71822 32.42118,-15.2175c1.2057,-0.16253 2.41481,-0.20324 3.62589,-0.16262c-0.38663,0.34909 -0.77299,0.6985 -1.15903,1.04825c-2.01164,1.82255 -3.5487,4.29974 -5.95663,5.55283c-5.38264,2.80115 -11.36783,4.24874 -17.03665,6.41296c-6.22821,2.37778 -12.43604,4.8086 -18.65406,7.2129c-0.55434,0.21435 -1.10872,0.42861 -1.66312,0.64281c2.86668,-1.69016 5.54517,-3.82784 8.42243,-5.48964z" fill="#00a8ff"/><path d="M258.81068,192.6343c0.55618,-0.49807 2.73589,-2.4446 5.70476,-5.10105c2.46193,9.36166 5.03335,18.70541 7.60778,28.03393c-0.08614,-0.09242 -0.13347,-0.14319 -0.13867,-0.14875c-4.84494,-5.17887 -9.10678,-10.98007 -14.5637,-15.50955c-1.18604,-0.98447 -2.36881,-1.93282 -3.55178,-2.84294c1.64636,-1.47815 3.29336,-2.9556 4.9416,-4.43164z" fill="#00a8ff"/><path d="M322.5,121.5v2.14931c-1.95176,2.50193 -3.90115,5.00569 -5.84164,7.51635c-0.62663,-3.2994 -1.43186,-6.58345 -2.24282,-9.66567z" fill="#00a8ff"/><path d="M163.83127,227.53471c-2.11088,0.81541 -4.22145,1.63158 -6.33127,2.44972l0,-1.08997c2.04833,-0.15406 4.24701,-0.74006 6.33127,-1.35976z" fill="#00a8ff"/><path d="M289.992,164.42664c0.74643,-0.90245 1.36095,-1.88959 1.8974,-2.92664h5.0481v8c0,5.52285 4.47715,10 10,10c4.20536,0 7.80442,-2.59586 9.28223,-6.27264l1.03083,-2.40527c1.3011,-3.07137 2.44259,-6.21993 3.68003,-9.32209l22.49524,0c-4.36412,3.41037 -8.72824,6.82074 -13.09235,10.23111c-9.2856,7.2563 -18.5712,14.51259 -27.8568,21.76889l-15.50014,0c-1.9279,-7.01469 -3.83392,-14.03462 -5.64744,-21.07241c4.6384,-4.19502 8.25331,-7.50576 8.6629,-8.00095z" fill="#006cff"/><path d="M233.9375,161.5l24.10991,0c0.31536,1.36683 0.63513,2.73324 0.95897,4.09922c-7.82319,6.94131 -15.58968,13.94628 -23.37107,20.93453c-0.5624,-0.20927 -1.12824,-0.40897 -1.69781,-0.59893z" fill="#006cff"/><path d="M365.9375,193.5h-30.97986c2.56358,-2.00333 5.12716,-4.00666 7.69074,-6.00998c7.76304,-6.06648 15.52608,-12.13296 23.28912,-18.19944z" fill="#006cff"/><path d="M258.81068,192.6343c0.55618,-0.49807 2.73589,-2.4446 5.70476,-5.10105c0.52326,1.98972 1.05146,3.97863 1.58359,5.96676h-8.25474c0.32208,-0.28862 0.64421,-0.57719 0.96639,-0.8657z" fill="#006cff"/></g></g></svg>