<svg version="1.1" xmlns="http://www.w3.org/2000/svg" xmlns:xlink="http://www.w3.org/1999/xlink" width="63.26789" height="60" viewBox="0,0,63.26789,60"><g transform="translate(-211.66961,-157.5)"><g data-paper-data="{&quot;isPaintingLayer&quot;:true}" fill-rule="nonzero" stroke-linecap="butt" stroke-linejoin="miter" stroke-miterlimit="10" stroke-dasharray="" stroke-dashoffset="0" style="mix-blend-mode: normal"><path d="M211.9375,217.5v-60h63v60z" fill="#b3b1b1" stroke="none" stroke-width="0"/><path d="M249.67103,177.73668c1.92056,-1.60046 3.52102,0.32009 3.52102,0.32009l1.56551,1.98243c0.55874,1.12107 1.04295,2.28249 1.67621,3.36321c2.2357,3.81546 8.28778,12.77127 1.1861,16.00061c-1.77627,0.80773 -3.89892,0.16948 -5.84838,0.25421c-2.99997,0 -5.99994,0.00018 -8.99991,0c-3.89655,-0.00023 -11.20006,-0.91927 -14.55247,1.58523c-0.71967,0.53765 -0.46789,2.05921 -0.16536,2.64434c1.04009,2.0117 4.02831,3.8905 6.20802,4.31897c3.30677,0.65001 7.94491,-0.0416 11.25313,-0.04854c6.04072,-0.01268 11.88748,-0.00653 17.8616,-0.96861c0,0 2.4686,-0.39498 2.86358,2.07362c0.39497,2.4686 -2.07363,2.86358 -2.07363,2.86358c-7.852,1.24865 -15.71209,1.03139 -23.64497,1.0314c-0.14882,0 -6.9353,0.01739 -7.24029,-0.04855c-6.0993,-1.31853 -14.77499,-9.15215 -8.45734,-15.53668c1.2039,-1.21664 7.42771,-2.48446 8.61285,-2.64226c5.96414,-0.79407 12.33149,-0.27252 18.33478,-0.27252c1.21721,0.08473 2.43885,0.38828 3.65162,0.25421c0.74461,-0.08231 0.35777,-1.5222 0.15134,-2.24235c-1.10055,-3.83933 -3.50657,-6.83948 -5.28903,-10.39383l-0.93448,-1.01757c0,0 -1.60046,-1.92056 0.32009,-3.52102z" fill="#000000" stroke="none" stroke-width="0.5"/><path d="M260.02149,178.15723c0,5.66092 -4.70101,10.25 -10.5,10.25c-5.79899,0 -10.5,-4.58908 -10.5,-10.25c0,-5.66092 4.70101,-10.25 10.5,-10.25c5.79899,0 10.5,4.58908 10.5,10.25z" fill="#000000" stroke="#000000" stroke-width="0.5"/><path d="M212.36483,200.14004l-0.15552,-20.32977l10.96883,-3.58447l6.15551,17.82977z" fill="#00a8ff" stroke="none" stroke-width="0"/><path d="M211.66961,195.06876l0.90354,-6.56169l4.55021,-2.51137l2.34646,6.06169z" fill="#006cff" stroke="none" stroke-width="0"/></g></g></svg>