<svg version="1.1" xmlns="http://www.w3.org/2000/svg" xmlns:xlink="http://www.w3.org/1999/xlink" width="476" height="337" viewBox="0,0,476,337"><g transform="translate(-1.4375,-1)"><g data-paper-data="{&quot;isPaintingLayer&quot;:true}" fill-rule="nonzero" stroke-linejoin="miter" stroke-miterlimit="10" stroke-dasharray="" stroke-dashoffset="0" style="mix-blend-mode: normal"><path d="M3.9375,335.5v-332h471v332z" fill="none" stroke="#000000" stroke-width="5" stroke-linecap="butt"/><path d="M42,52l114,6" fill="none" stroke="#000000" stroke-width="5" stroke-linecap="round"/><path d="M7,124l102,2" fill="none" stroke="#000000" stroke-width="5" stroke-linecap="round"/><path d="M7,187l102,5" fill="none" stroke="#000000" stroke-width="5" stroke-linecap="round"/><path d="M182,128l-5,142" fill="none" stroke="#000000" stroke-width="5" stroke-linecap="round"/><path d="M306,227l-99,-2" fill="none" stroke="#000000" stroke-width="5" stroke-linecap="round"/><path d="M266,333l4,-104" fill="none" stroke="#000000" stroke-width="5" stroke-linecap="round"/><path d="M265,75v121" fill="none" stroke="#000000" stroke-width="5" stroke-linecap="round"/><path d="M330,119l98,-1" fill="none" stroke="#000000" stroke-width="5" stroke-linecap="round"/><path d="M444,197l-96,78" fill="none" stroke="#000000" stroke-width="5" stroke-linecap="round"/><path d="M464.88144,258.64626c-1.64626,1.88144 -1.88144,0.85374 -1.88144,0.85374h-1.5c-1.19338,-0.37108 -2.49464,-0.49391 -3.58013,-1.11325c-1.68862,-0.96346 -3.75548,-5.33422 -4.91987,-6.88675c0,0 -1.5,-2 0.5,-3.5c2,-1.5 3.5,0.5 3.5,0.5c1.59349,2.12466 3.13971,5.32591 5.08013,7.11325c0.30778,0.2835 -0.38675,-0.74217 -0.58013,-1.11325h1.5c0,0 3.5277,2.26482 1.88144,4.14626z" fill="#9966ff" stroke="none" stroke-width="0.5" stroke-linecap="butt"/><path d="M385.52911,8.32227c5.29335,-1.50251 11.00903,-2.32227 16.97089,-2.32227c27.3381,0 49.5,17.23704 49.5,38.5c0,21.26296 -22.1619,38.5 -49.5,38.5c-20.93679,0 -38.83763,-10.10989 -46.0728,-24.39542" data-paper-data="{&quot;origPos&quot;:null}" fill="none" stroke="#000000" stroke-width="5" stroke-linecap="butt"/><text transform="translate(397.21094,309.45359) scale(1.275,1.275)" font-size="40" xml:space="preserve" fill="#9966ff" fill-rule="nonzero" stroke="none" stroke-width="1" stroke-linecap="butt" stroke-linejoin="miter" stroke-miterlimit="10" stroke-dasharray="" stroke-dashoffset="0" font-family="&quot;Microsoft YaHei&quot;, &quot;微软雅黑&quot;, STXihei, &quot;华文细黑&quot;" font-weight="normal" text-anchor="start" style="mix-blend-mode: normal"><tspan x="0" dy="0">笨</tspan></text><path d="M99.21094,268.62891c0,18.77768 -10.74517,34 -24,34c-13.25483,0 -24,-15.22232 -24,-34c0,-18.77768 10.74517,-34 24,-34c13.25483,0 24,15.22232 24,34z" fill="#9966ff" stroke="none" stroke-width="0" stroke-linecap="butt"/></g></g></svg>