<svg version="1.1" xmlns="http://www.w3.org/2000/svg" xmlns:xlink="http://www.w3.org/1999/xlink" width="208.4375" height="117" viewBox="0,0,208.4375,117"><g transform="translate(-157.5,-121.5)"><g data-paper-data="{&quot;isPaintingLayer&quot;:true}" fill-rule="nonzero" stroke="none" stroke-width="0" stroke-linecap="butt" stroke-linejoin="miter" stroke-miterlimit="10" stroke-dasharray="" stroke-dashoffset="0" style="mix-blend-mode: normal"><path d="M157.5,238.5l0,-59.95458c0.64348,0.05016 1.10056,0.03895 1.25357,-0.05527c6.4648,-3.98064 9.0962,-10.13439 15.84262,-14.96996c0.14402,-0.10323 1.96587,2.87354 3.5187,4.09855c2.09855,1.65552 11.34277,2.59899 12.60204,-0.43204l0.35206,-0.26728c-1.41585,5.90752 -8.83421,26.20442 -6.78685,39.67316c-2.12651,-0.21237 -4.31276,-0.33837 -6.61337,-0.35c-5.11317,-0.02584 -5.10751,1.09919 -7.81699,5.1743c-0.9301,1.39888 -3.4721,2.70306 -2.75297,4.22122c1.41568,2.98866 2.85709,5.96529 4.32638,8.92796c0.86611,1.74643 10.20961,2.00241 10.56384,2.0663c8.85229,1.59654 19.08739,3.56625 28.28142,5.24226c10.87962,1.98327 22.64326,4.64173 34.56362,6.62537z" fill="#ff736d"/><path d="M231.52245,200.88531c1.50233,0.14259 3.12553,0.07104 4.22865,-0.01654c2.7923,-0.2217 5.58088,-0.36726 8.36314,-0.46768c0.06722,0.32859 0.15493,0.65125 0.27917,0.96354c0.79964,2.00998 9.42315,3.77408 11.29535,2.82987c2.57528,-1.29879 5.17312,-2.6837 7.76696,-4.15336c12.67746,-0.27175 25.09089,-1.12741 36.98455,-5.6433c1.75092,-0.6648 2.75673,-2.6734 3.5079,-4.38904c6.23564,-14.24201 12.41463,-28.50876 18.55183,-42.79358l0,65.37065c-6.87044,1.21359 -13.74565,2.40819 -20.47997,3.9949c-0.28219,0.06649 0.42616,-0.42677 0.51057,-0.70413c0.24105,-0.79203 0.40027,-1.60669 0.60238,-2.40954c0.00392,-0.01558 0.0079,-0.03116 0.01193,-0.04672c0.14124,-0.37597 0.26049,-0.76271 0.35618,-1.15864c0.24497,-0.76822 0.44952,-1.53726 0.27951,-2.35759c0,-1.32024 -0.25585,-2.58073 -0.72067,-3.73458c-0.13391,-0.43911 -0.30346,-0.86388 -0.52933,-1.26542c-0.21793,-0.38743 -0.48034,-0.7307 -0.77838,-1.03856c-1.82611,-2.40695 -4.71733,-3.96144 -7.97162,-3.96144c-3.86163,0 -7.21203,2.18886 -8.87818,5.39356c-0.11967,0.23017 -0.23064,0.46558 -0.3325,0.70579c-5.60322,4.12568 -14.59003,5.24255 -20.9578,6.16084c-16.39144,2.36381 -32.25673,2.46492 -48.37803,0.09843c5.13595,-3.25952 10.91458,-7.42732 16.28835,-11.37745z" fill="#ff736d"/><path d="M322.5,238.5h-25.91771c8.64304,-2.07134 17.28175,-4.16069 25.91771,-6.2614z" fill="#ff736d"/><path d="M297.06242,135.60368c-0.77847,1.40926 -2.14768,-1.38602 -5.48085,-1.90297c-1.05235,-0.16321 -3.9199,1.32259 -4.77375,1.94263c-21.49182,15.60667 -42.67576,31.63863 -64.31682,47.03768c-5.56493,3.95982 -16.319,17.78266 -17.2743,11.01981c-6.15539,-43.57554 14.9334,-45.60563 27.55842,-72.20084l71.93363,0c-2.51617,4.71881 -5.06044,9.42245 -7.64632,14.10368z" fill="#ff736d"/><path d="M157.5,121.5h26.36286c-8.13586,8.90292 -16.27521,17.80269 -24.3876,26.72688c-0.66586,0.73249 -1.3239,1.47196 -1.97526,2.21732z" fill="#ff736d"/><path d="M301.8086,193.5c0.95418,-0.9272 1.61013,-2.28197 2.13958,-3.4912c4.15619,-9.4926 8.28721,-18.99619 12.39746,-28.5088l22.76198,0c1.39607,9.65005 2.96534,19.31506 4.65255,28.85219c0.18331,1.03616 0.40894,2.08697 0.66147,3.14781z" fill="#ff0000"/><path d="M365.9375,161.5v32h-1.25927c-1.88306,-8.55635 -2.63599,-17.56142 -4.1707,-26.19002c-0.2701,-1.51859 -0.46981,-3.55575 -0.69924,-5.80998z" fill="#ff0000"/><path d="M233.9375,161.5h17.70243c-5.88706,4.33739 -11.78255,8.66308 -17.70243,12.95499z" fill="#ff0000"/><path d="" fill="#ff0000"/></g></g></svg>