<svg version="1.1" xmlns="http://www.w3.org/2000/svg" xmlns:xlink="http://www.w3.org/1999/xlink" width="220.64884" height="135.7087" viewBox="0,0,220.64884,135.7087"><g transform="translate(-148.3296,-109.47341)"><g data-paper-data="{&quot;isPaintingLayer&quot;:true}" fill-rule="nonzero" stroke="none" stroke-linecap="butt" stroke-linejoin="miter" stroke-miterlimit="10" stroke-dasharray="" stroke-dashoffset="0" style="mix-blend-mode: normal"><path d="M157.5,238.5v-117h165v117z" fill="#ff736d" stroke-width="0"/><path d="M233.9375,193.5v-32h132v32z" fill="#ff0000" stroke-width="0"/><path d="M150.13677,221.11541c1.19536,-0.34189 1.96628,0.08072 2.43927,0.59199c-0.05025,-3.01655 -0.059,-6.03332 0.12752,-9.01032c0.19217,-3.06707 0.58618,-6.05941 0.96939,-9.04752c0,-5.37092 0,-10.74183 0,-16.11275c0,-4.24014 -0.06451,-8.50003 -0.1406,-12.76827c-0.74615,-1.87095 -1.78133,-3.78804 -2.26491,-5.42558c-0.87199,-2.95283 -1.15436,-7.06558 -1.46078,-10.13319c-0.77169,-7.72549 -1.08274,-15.62398 0.51647,-23.24514c0.81545,-3.88609 1.93613,-7.47359 3.52863,-11.10955c0.43876,-1.00178 0.61599,-2.20465 1.3036,-3.03366c-0.01405,-0.63201 -0.02367,-1.25749 -0.02367,-1.87282c0,0 0,-2.5 2.5,-2.5c2.01595,0 2.40628,1.62562 2.48185,2.25513c3.27425,-0.39496 7.08017,0.1761 9.6743,0.1761c7.47545,0 15.62819,0.98677 23.00404,0.02265c6.29049,-0.82225 12.66305,-3.0773 18.9911,-4.1186c4.94356,-0.81348 10.07472,-1.88054 15.07565,-2.21955c2.92192,-0.19807 5.87734,0.35167 8.78588,0.00923c1.54593,-0.18201 6.52076,-1.6061 8.05839,-1.91329c6.02926,-1.20452 12.20036,-1.98295 18.33415,-1.99161c7.51595,0 15.18307,-0.44349 22.68208,0.00629c7.87901,0.47258 16.20732,3.73993 23.70433,5.99743c4.87088,1.46672 11.24206,2.41022 13.47885,7.80137c0.1948,0.46951 0.14932,7.47826 0.14932,8.14475c0,5.44204 0.00858,10.88415 -0.00852,16.32617c0.16208,0.97249 0.41323,1.93428 0.48625,2.91748c0.06325,0.85162 0.09732,1.71392 0.02725,2.5653c1.52323,-1.38918 5.67474,-0.96306 6.71995,-0.96913c3.57389,-0.02076 7.33921,-0.26694 10.90362,0.00852c1.96895,0.15216 3.87423,0.83169 5.84396,0.97325c4.79573,0.34468 10.24733,-0.76311 14.84264,1.15351c5.39956,2.25207 5.24616,5.25368 6.33888,10.0015c0.94007,4.08457 1.51401,7.98984 1.52562,12.24429c0,4.22672 1.09136,9.69205 -1.31248,13.41486c-0.82601,1.27924 -1.67267,2.72011 -3.02203,3.42578c-1.1839,0.61914 -2.66517,0.20224 -4.00045,0.24674c-2.42988,0.08098 -4.86246,0 -7.29369,0c-6.48327,0 -12.96658,0.00729 -19.44984,0c-3.25283,-0.00366 -7.28458,0.22705 -10.18967,1.96116c-0.92485,0.55206 1.28514,1.7476 1.73336,2.727c2.03914,4.45577 1.68804,5.13633 1.71764,9.3442c-0.00547,4.37908 -0.57385,7.23947 -1.53797,11.32181c-0.94244,3.99056 -0.52169,8.54808 -0.89583,12.61754c-0.19508,2.12185 0.60115,4.59827 -0.58988,6.36511c-0.8972,1.33097 -3.03624,1.09368 -4.61883,1.36179c-3.60838,0.6113 -7.23413,0.70404 -10.91033,1.42084c-6.55947,1.27898 -13.15277,2.19404 -19.83497,2.47587c-0.78653,0.03317 -8.32595,0.04688 -8.55426,0.06871c-5.6384,0.53925 -11.10708,1.38772 -16.82494,1.39181c-5.99704,0 -11.99407,0 -17.99111,0c-3.24368,0 -6.85905,0.46364 -10.06146,-0.02276c-3.94803,-0.59965 -7.88841,-1.80105 -11.75892,-2.53981c-6.41041,-1.22354 -13.19742,0.09727 -19.66588,-0.35975c-5.22366,-0.36907 -10.23155,-1.90714 -15.41676,-2.04657c-7.12401,-0.54973 -14.24078,-0.3408 -21.3826,-0.37983c-1.26625,-0.00692 -2.75227,0.11057 -4.16036,-0.07924c-2.39902,3.03468 -6.29218,3.72907 -9.50542,0.54347c-0.5249,-0.52038 -0.7026,-2.03146 -0.7302,-3.7615c-1.85758,-2.27252 -2.30539,-6.14005 -3.05479,-8.63763l-0.99897,-3.49252c0,0 -0.68747,-2.40362 1.71615,-3.09109zM158.67295,203.75914c0,2.04833 0,4.09667 0,6.145c0,3.79236 -0.44464,7.79948 0.40702,11.53176c0.42128,1.84621 1.30584,3.56354 2.18042,5.29404c0.08587,-0.00892 0.17304,-0.01349 0.26127,-0.01349c1.38071,0 2.5,1.11929 2.5,2.5v5l-0.04076,0l0.03447,0.17722c-0.01702,0.09397 -0.03185,0.1888 -0.0449,0.28433c0.96622,-0.03177 1.93317,-0.03811 2.8999,-0.04408c1.45871,-0.009 2.91748,0 4.37622,0c5.78423,0 11.50679,-0.05531 17.27646,0.38713c5.2248,0.18403 10.20936,1.6697 15.45737,2.04893c4.98081,0.35992 10.03478,-0.28348 15.02218,-0.00267c5.7364,0.32298 11.12427,2.03108 16.76501,2.93807c2.96274,0.47639 6.37812,-0.02276 9.38838,-0.02276c5.99704,0 11.99407,0 17.99111,0c5.56455,0.00427 10.86835,-0.85504 16.35357,-1.36954c1.08573,-0.10184 7.18396,-0.0179 8.83682,-0.08742c6.4229,-0.27012 12.76012,-1.15661 19.06472,-2.38659c3.33711,-0.65105 4.79019,-1.25685 8.08225,-1.49887c1.12189,-0.08248 2.2539,-0.09336 3.37474,0.00223c0.4241,0.03617 1.12832,0.80578 1.21613,0.3893c0.23456,-1.11261 -0.57126,-2.2229 -0.58988,-3.35981c-0.05078,-3.10073 0.27598,-6.19676 0.48914,-9.29056c0.35299,-5.1233 1.94659,-9.1567 1.93952,-14.42221c0.02684,-3.08003 0.32992,-3.92248 -1.15584,-7.0415c-1.54822,-3.25016 -4.64379,-3.45781 -1.22812,-8.11707c0.97407,-1.32871 2.91805,-1.53343 4.41349,-2.22475c3.24194,-1.4987 6.18891,-1.64528 9.70914,-1.64904c6.48326,-0.00692 12.96658,0 19.44984,0c2.43123,0 4.86515,-0.11439 7.29369,0c0.61632,0.02903 1.26981,0.49539 1.8345,0.24674c0.36657,-0.16141 1.51151,-2.80942 1.54556,-3.08197c0.3647,-2.91898 -0.04511,-6.29586 -0.04511,-9.25215c0.01213,-3.86229 -0.53796,-7.40595 -1.39186,-11.09552c-0.37322,-1.61263 0.12347,-3.64279 -0.9921,-4.86565c-2.75701,-3.02219 -7.79299,-2.35884 -11.40689,-2.41755c-7.68554,-0.12484 -15.88891,-2.29399 -23.59481,-1.04746c-2.04572,0.33092 -3.95826,2.93878 -6.32003,1.78796c-3.41818,-1.66559 -2.47523,-7.90293 -2.96542,-10.84409c-0.01522,-5.5795 -0.00852,-11.15905 -0.00852,-16.73857c0,-2.14812 0.81481,-4.40019 0.14932,-6.44263c-0.68307,-2.09639 -4.15816,-2.78953 -5.55882,-3.26937c-2.35757,-0.80767 -7.06231,-2.14502 -9.4381,-2.83611c-5.63111,-1.63803 -11.92712,-4.07998 -17.83935,-4.40802c-7.3886,-0.40996 -14.92427,0.00629 -22.32764,0.00629c-5.80574,-0.00885 -11.66662,0.75575 -17.37298,1.89836c-2.64722,0.53006 -5.82192,1.66489 -8.47398,1.97668c-2.97751,0.35006 -6.00284,-0.1926 -8.99405,0.00923c-4.84241,0.32674 -9.81525,1.37711 -14.60125,2.1646c-6.37584,1.04908 -12.78734,3.31308 -19.13137,4.13964c-7.61071,0.99159 -15.96866,0.02265 -23.67559,0.02265c-2.43123,0 -4.86252,0.01731 -7.29369,0c-0.69771,-0.00497 -1.54003,-0.23578 -2.27237,-0.24455c0.04875,2.09429 0.06916,4.20274 -0.09861,6.21693c-0.28433,3.41348 -1.26466,6.69998 -1.45405,10.14322c-0.59859,10.88271 -0.34974,21.90807 -0.15191,32.88481c0.23407,0.6253 0.43517,1.26066 0.57866,1.91381c1.14062,5.19209 0.54957,10.84229 0.54957,16.11897c-0.0015,4.04309 -0.47744,7.94228 -0.97249,11.84611z" fill="#fff700" stroke-width="0.5"/></g></g></svg>