<svg version="1.1" xmlns="http://www.w3.org/2000/svg" xmlns:xlink="http://www.w3.org/1999/xlink" width="573.51003" height="490.57345" viewBox="0,0,573.51003,490.57345"><g transform="translate(22.75,88.32345)"><g data-paper-data="{&quot;isPaintingLayer&quot;:true}" stroke-linejoin="miter" stroke-miterlimit="10" stroke-dasharray="" stroke-dashoffset="0" style="mix-blend-mode: normal"><path d="M550.5,99l-571,-2v-102l567,2z" fill="#b1ff00" fill-rule="nonzero" stroke="#000000" stroke-width="0.5" stroke-linecap="round"/><path d="M-22.5,402v-51h563v51z" fill="#00c505" fill-rule="nonzero" stroke="#000000" stroke-width="0.5" stroke-linecap="butt"/><path d="M-21.5,93l-1,258" fill="none" fill-rule="nonzero" stroke="#000000" stroke-width="0.5" stroke-linecap="round"/><path d="M549.5,100l-10,258" fill="none" fill-rule="nonzero" stroke="#000000" stroke-width="0.5" stroke-linecap="round"/><path d="M102.47815,151.40271c0,11.54839 -11.16652,20.91022 -24.94111,20.91022c-13.7746,0 -24.94111,-9.36182 -24.94111,-20.91022c0,-11.5484 11.16651,-20.91022 24.94111,-20.91022c13.77459,0 24.94111,9.36183 24.94111,20.91022z" fill="#00ff84" fill-rule="nonzero" stroke="none" stroke-width="0" stroke-linecap="butt"/><path d="M116.58625,153.92202c0,6.53945 -6.09083,11.84073 -13.60424,11.84073c-7.51342,0 -13.60424,-5.30128 -13.60424,-11.84073c0,-6.53945 6.09083,-11.84073 13.60424,-11.84073c7.51342,0 13.60424,5.30128 13.60424,11.84073z" fill="#00ff84" fill-rule="nonzero" stroke="none" stroke-width="0" stroke-linecap="butt"/><path d="M92.30901,142.08129c0,2.31895 -1.9815,4.19884 -4.4258,4.19884c-2.4443,0 -4.4258,-1.87988 -4.4258,-4.19884c0,-2.31895 1.9815,-4.19884 4.4258,-4.19884c2.4443,0 4.4258,1.87988 4.4258,4.19884z" fill="#000000" fill-rule="nonzero" stroke="#000000" stroke-width="0.5" stroke-linecap="butt"/><path d="M74.17797,173.48861c0,-1.04353 0.84595,-1.88948 1.88948,-1.88948c1.04353,0 1.88948,0.84595 1.88948,1.88948c0,1.04353 -0.84595,1.88948 -1.88948,1.88948c-1.04353,0 -1.88948,-0.84595 -1.88948,-1.88948z" fill="#00e4d9" fill-rule="nonzero" stroke="none" stroke-width="0.5" stroke-linecap="butt"/><path d="M71.36475,184.86746c1.88948,0 1.88948,1.88948 1.88948,1.88948l-0.29976,0.81466c0.29252,0.49608 0.58617,0.99294 0.88604,1.48932c0.00071,-0.43209 0.00156,-0.86417 0.00156,-1.29626c0,-2.47913 -0.14113,-5.00929 0.00235,-7.48408c0.07795,-1.34458 0.50987,-2.64677 0.6816,-3.98262c0.1551,-1.20645 -0.01214,-2.43275 -0.01214,-3.64913c0,0 0,-1.88948 1.88948,-1.88948c1.88948,0 1.88948,1.88948 1.88948,1.88948c0,0.15932 0.00396,3.94478 -0.01214,4.07674c-0.15338,1.2578 -0.59548,2.47788 -0.66202,3.74325c-0.03126,0.59437 -0.05149,1.19036 -0.06359,1.78745c0.17793,-0.65802 0.36299,-1.31332 0.63161,-1.93754c1.95302,-4.53831 5.18171,-6.96123 9.71182,-8.45469c1.70744,-0.5629 3.68561,-1.1095 5.51216,-0.73019c2.00245,0.41584 3.72079,2.07602 5.24702,3.2982c0.31045,0.30928 2.2388,2.20713 2.37746,2.45445c0.57968,1.03392 0.95323,3.27929 1.09329,4.43588c0.20769,1.715 0.50072,4.25193 0.14317,5.98242c-0.60547,2.93044 -3.91432,5.86235 -6.8455,6.34164c-1.96026,0.32053 -4.43048,0.03859 -6.42624,0.03859c-3.83491,0 -7.66986,0.00465 -11.50478,0.00005c-0.17837,0.94855 -0.59357,1.78286 -1.5474,1.93294c-0.30269,0.04763 -0.59638,0.01819 -0.88176,-0.0663c-0.08602,0.078 -0.17013,0.15745 -0.25094,0.2394c-3.50089,1.01143 -6.70071,0.91707 -10.33635,0.91707c-1.67967,0 -3.42306,0.10458 -5.08261,-0.20654c-0.94948,-0.178 -1.82097,-0.69384 -2.77796,-0.82558c-3.4513,-0.47512 -6.69314,-0.9372 -9.80529,-2.53942c-3.90943,-2.01269 -6.62766,-4.48184 -6.7294,-9.23492c0.00427,-1.67785 -0.10435,-3.11947 0.42491,-4.77191c0.27471,-0.8577 0.72822,-1.65285 1.19365,-2.42389c0.84051,-1.39239 2.08482,-2.95092 3.49393,-3.82759c2.02676,-1.26096 4.63129,-0.80214 6.84078,-0.41172c1.48435,0.26228 3.189,0.52013 4.64159,0.86147c2.80428,0.65896 5.8952,2.85995 8.22897,4.77438c0.26465,-0.1737 0.61616,-0.28905 1.08302,-0.28905c1.88948,0 1.88948,1.88948 1.88948,1.88948l-0.11998,1.01337c0.92045,0.94172 1.81726,1.92295 2.71488,2.82733c0.2948,0.43818 0.57902,0.87985 0.85648,1.32408c0.01116,-0.00014 0.02237,-0.0002 0.03366,-0.0002zM61.23036,192.87576c-0.7443,-1.7367 0.9924,-2.48101 0.9924,-2.48101c0.41025,-0.17421 0.82537,-0.35616 1.24181,-0.54682c-0.82264,-0.35919 -1.64107,-0.72791 -2.4543,-1.10763c-1.6116,0.91971 -3.32643,1.67912 -4.99045,2.42548c-0.30854,0.13839 -0.61995,0.27417 -0.93403,0.40547c0.70364,0.13684 1.41154,0.26753 2.1376,0.37465c1.00719,0.1486 1.93307,0.65972 2.93246,0.85396c0.3581,0.0696 0.72689,0.11181 1.10118,0.13615c-0.00902,-0.01975 -0.01792,-0.03983 -0.02667,-0.06026zM65.60365,185.10001c-0.33244,0.3884 -0.68468,0.75329 -1.0536,1.09766c1.03535,0.45735 2.07794,0.89853 3.12568,1.32676c0.2054,-0.14052 0.40767,-0.28448 0.60625,-0.43206c-0.23677,-0.38737 -0.47893,-0.77218 -0.72979,-1.15296c-0.49887,-0.49369 -0.99686,-0.98771 -1.49761,-1.47775c-0.16025,0.25694 -0.31319,0.47744 -0.45092,0.63835zM70.71689,192.78251c-0.00901,-0.00675 -0.01772,-0.01337 -0.02612,-0.01984c-0.89071,-0.3357 -1.77987,-0.67742 -2.66631,-1.02687c-0.74102,0.42694 -1.49961,0.82371 -2.26342,1.19507c1.68006,0.00175 3.31105,-0.00804 4.95584,-0.14835zM49.55382,189.23982c1.70938,-0.1055 3.35083,-0.80592 4.90876,-1.51722c0.76754,-0.35044 1.56642,-0.69778 2.36512,-1.06662c-0.15695,-0.08366 -0.31364,-0.16785 -0.47004,-0.25259c-1.83591,-0.99462 -3.59545,-2.13044 -5.3513,-3.26971c-1.97159,1.09862 -4.00249,1.83532 -6.52172,2.29285c0,0 -0.18541,0.03272 -0.44949,0.01898c0.54644,2.00125 2.28769,3.42279 4.19954,4.42208c0.5172,-0.5661 1.31913,-0.62778 1.31913,-0.62778zM62.68183,182.70346c0.12497,-0.14662 0.32444,-0.48627 0.54396,-0.89187c-1.95118,-1.71713 -4.03391,-3.26805 -6.43626,-4.42924c-0.7937,-0.38364 -1.6826,-0.50877 -2.56919,-0.63378c0.09052,0.03789 0.18346,0.08365 0.27877,0.13811c1.64053,0.93744 0.70308,2.57797 0.70308,2.57797l-0.82676,1.36937c1.23898,0.78437 2.49092,1.54732 3.78021,2.24556c0.86767,0.4699 1.74417,0.9224 2.62812,1.35963c0.69578,-0.50862 1.33858,-1.07933 1.89807,-1.73577zM51.48258,178.44205l0.43856,-0.85228c0,0 0.49436,-0.86513 1.39334,-0.9799c-0.17599,-0.03126 -0.35054,-0.06611 -0.52283,-0.10666c-1.35176,-0.3181 -4.36358,-1.28719 -5.64411,-0.3889c-0.06239,0.04377 -0.12389,0.0891 -0.18454,0.13587c1.40375,0.76443 2.7651,1.60594 4.11597,2.46792c0.13369,-0.08994 0.26816,-0.18195 0.40361,-0.27606zM44.57769,179.25661c-0.18661,0.32664 -0.35458,0.66306 -0.46844,1.01936c-0.13755,0.43044 -0.20519,0.91944 -0.23658,1.42146c1.25142,-0.21595 2.35664,-0.52095 3.40113,-0.92949c-0.88412,-0.53227 -1.77989,-1.04161 -2.6961,-1.51133zM84.22862,189.85846c-0.52883,-0.47199 -0.99984,-0.9735 -1.4138,-1.49999c-0.30866,0.18061 -0.61802,0.35966 -0.92834,0.53657c-0.40627,0.2316 -0.88053,0.60484 -1.38495,1.00947c1.25674,-0.00021 2.51349,0.00008 3.77023,0.00045zM84.89067,178.51884c-0.57847,1.48764 -0.75933,3.02413 -0.50547,4.45701c0.62119,-0.36135 1.24341,-0.71728 1.86386,-1.06706c0.11234,-2.09101 0.831,-4.24765 1.7353,-6.07728c-1.07106,0.38421 -2.10795,0.821 -3.02793,1.46402c0.15713,0.62892 -0.06577,1.22331 -0.06577,1.22331zM86.71708,187.0145l0.25979,0.25387c0,0 1.31303,1.31303 0.0341,2.63742c0.66297,0.00017 1.32594,0.00028 1.9889,0.00028c1.31382,0 2.81896,0.14472 4.22741,0.12867c-1.61127,-0.45403 -3.33484,-0.91664 -4.59832,-1.9951c-0.74548,-0.63631 -1.29176,-1.36524 -1.67273,-2.15518c-0.2915,0.17293 -0.58255,0.34684 -0.87337,0.52125c0.19505,0.21153 0.40638,0.41479 0.63421,0.60879zM96.65797,187.16292c0.31517,-0.38962 0.83908,-0.74348 1.67415,-0.60077c0.41811,-1.33123 0.26672,-2.91559 0.04497,-4.78378c-0.00508,-0.04284 -0.2292,-1.56678 -0.42609,-2.42484l-0.33151,0.60828c-2.17997,1.85007 -4.75638,2.74043 -7.25496,4.00442c0.13892,0.46114 0.36488,0.93805 0.68579,1.17211c1.32148,0.96378 3.09918,1.15909 4.58746,1.67161c0.3312,0.11406 0.67428,0.25757 1.02019,0.35297zM92.11373,176.16957c-0.8254,1.31364 -1.39212,2.42023 -1.69675,3.62337c1.52274,-0.67732 3.03875,-1.35057 4.3522,-2.37823c0.0269,-0.0746 0.19462,-0.50928 0.56703,-0.85694c-0.81222,-0.71423 -1.81246,-1.56297 -2.68536,-1.72214c-0.08199,-0.01495 -0.1647,-0.02656 -0.24801,-0.03511c0.11281,0.72597 -0.28911,1.36904 -0.28911,1.36904zM94.953,177.26743c0.06968,-0.05718 0.13875,-0.11543 0.20717,-0.17481zM80.6087,185.25546c0.13932,-0.08753 0.279,-0.17486 0.419,-0.26197c-0.05382,-0.17 -0.10329,-0.34125 -0.14841,-0.51367c-0.08658,0.25877 -0.17603,0.51752 -0.27059,0.77564z" fill="#00c566" fill-rule="nonzero" stroke="none" stroke-width="0.5" stroke-linecap="butt"/><path d="M112.1547,151.79945c0.05982,0.06327 0.11609,0.13114 0.16843,0.20397c2.24915,3.12971 -2.17549,7.09075 -4.79204,7.71383c-3.18754,0.75905 -5.88505,-1.58276 -6.7479,-4.53507c-0.85319,-2.91923 0.91697,-5.59252 3.23483,-7.01555c0,0 1.39185,-0.79534 2.34409,0.36118c0.39066,-0.0289 0.8007,-0.02264 1.1632,-0.10262c0.81014,0.05825 1.70125,-0.18306 2.43042,0.17473c1.02025,0.50063 1.93898,1.8838 2.19897,3.19953z" fill="#00c566" fill-rule="nonzero" stroke="none" stroke-width="0.5" stroke-linecap="butt"/><path d="M54.23021,149.00554c1.00772,0.75579 0.25193,1.76351 0.25193,1.76351l-0.79522,0.96211c-1.70085,1.21158 -3.15134,2.41119 -5.41061,1.95466c-0.743,-0.15014 -1.71579,-0.23935 -2.08866,-0.89932c-0.47033,-0.83246 -0.68302,-1.40941 -0.71848,-1.80622c-0.08745,-0.04804 -0.1704,-0.1043 -0.24769,-0.17093c-2.46689,-2.12652 -0.58529,-7.70356 2.73725,-7.77172c0.7528,-0.01544 1.34079,0.69017 2.03884,0.97244c0.47943,0.19387 0.96842,0.36332 1.4577,0.5319c0.00252,-0.00211 0.00505,-0.0042 0.00759,-0.00628l1.03193,-0.85994l0.01813,0.02176c0.03217,-0.03668 0.06509,-0.07279 0.09881,-0.10828c0.38907,-0.4095 1.00793,-0.51022 1.5119,-0.76534l-0.15415,0.06274c0,0 0.89071,-0.8907 1.78141,0c0.22082,0.22082 0.33216,0.44164 0.37471,0.6489c1.44258,-0.43706 2.84598,-0.99383 4.3556,-1.2843c1.00456,-0.57838 2.17503,-0.80243 3.26325,-1.2017c4.26696,-1.56556 8.5876,-3.34612 12.78406,-5.18226c1.90987,-0.83566 3.61116,-1.65437 5.39723,-2.69621c0.19386,-0.11308 0.39586,-0.21075 0.60026,-0.30394c-0.03107,-0.03493 -0.06181,-0.07254 -0.09215,-0.11299c-0.75579,-1.00772 0.25193,-1.76351 0.25193,-1.76351c0.85434,-0.40622 1.69713,-1.59966 2.56301,-1.21866c2.66328,1.17187 0.89105,3.70583 -0.15903,4.5996c-0.53208,0.45289 -1.26348,0.60152 -1.86455,0.95779c-1.52432,0.90352 -2.83705,1.65227 -4.4982,2.33648c-2.89716,1.19332 -5.7647,2.62403 -8.72034,3.66047c-1.80078,0.63146 -3.55638,1.40747 -5.32293,2.06088c-1.10591,0.40905 -2.29353,0.64157 -3.31913,1.22338c-2.51436,0.51994 -4.776,1.62852 -7.33019,1.96814c-0.01994,0.09256 -0.05098,0.19024 -0.09508,0.29314c-0.4962,1.15781 -1.654,0.6616 -1.654,0.6616c-1.07789,-0.46305 -2.23604,-0.72786 -3.3022,-1.21733c-0.3998,-0.18355 -0.65568,-0.64054 -1.07914,-0.75977c-0.18259,-0.05141 -0.36363,0.16563 -0.46769,0.32424c-0.33702,0.51368 -1.46799,2.6336 -0.43625,3.01679l1.03819,-0.5191c0.17505,-0.09216 0.37443,-0.14432 0.586,-0.14432c0.69569,0 1.25965,0.56397 1.25965,1.25965c0,0.34785 -0.141,0.66276 -0.36895,0.8907l-0.85906,0.85906c0.37774,-0.05623 0.83574,0.08066 1.21137,-0.0244c0.45852,-0.12824 1.9921,-1.27761 2.35535,-1.53785l0.2441,-0.42365c0,0 0.75579,-1.00772 1.76351,-0.25193z" fill="#000000" fill-rule="nonzero" stroke="none" stroke-width="0.5" stroke-linecap="butt"/><path d="M53.00666,149.12963c-0.12947,0.04316 -0.24959,0.06761 -0.36086,0.0769c-0.66554,1.63061 -2.23816,3.02946 -3.81768,2.2247c-0.6741,-0.34345 -0.64448,-1.33702 -0.60437,-2.17874c-0.42838,0.21123 -0.85253,0.32727 -1.24946,0.13032c-0.76763,-0.38088 -0.43268,-1.65834 -0.64901,-2.48751c0,0 0,-1.25965 1.25965,-1.25965c0.5357,0 0.84358,0.22782 1.02052,0.48969c1.09456,-0.75868 2.88422,-1.12401 3.91199,0.11308l1.2859,1.29787c0,0 0.39834,1.19501 -0.79667,1.59335z" fill="#00ff84" fill-rule="nonzero" stroke="none" stroke-width="0.5" stroke-linecap="butt"/><path d="M156.5685,239.79263c0,11.75018 -11.36163,21.27559 -25.37691,21.27559c-14.01528,0 -25.37691,-9.5254 -25.37691,-21.27559c0,-11.75019 11.36163,-21.27559 25.37691,-21.27559c14.01528,0 25.37691,9.52541 25.37691,21.27559z" fill="#efff00" fill-rule="nonzero" stroke="none" stroke-width="0" stroke-linecap="butt"/><path d="M170.92311,242.35596c0,6.65372 -6.19725,12.04762 -13.84195,12.04762c-7.6447,0 -13.84195,-5.39391 -13.84195,-12.04762c0,-6.65372 6.19725,-12.04762 13.84195,-12.04762c7.6447,0 13.84195,5.39391 13.84195,12.04762z" fill="#efff00" fill-rule="nonzero" stroke="none" stroke-width="0" stroke-linecap="butt"/><path d="M146.22167,230.30833c0,2.35947 -2.01613,4.27221 -4.50313,4.27221c-2.48701,0 -4.50313,-1.91273 -4.50313,-4.27221c0,-2.35947 2.01613,-4.27221 4.50313,-4.27221c2.48701,0 4.50313,1.91273 4.50313,4.27221z" fill="#000000" fill-rule="nonzero" stroke="#000000" stroke-width="0.5" stroke-linecap="butt"/><path d="M127.77382,262.26444c0,-1.06176 0.86073,-1.92249 1.92249,-1.92249c1.06176,0 1.92249,0.86073 1.92249,1.92249c0,1.06176 -0.86073,1.92249 -1.92249,1.92249c-1.06176,0 -1.92249,-0.86073 -1.92249,-1.92249z" fill="#00e4d9" fill-rule="nonzero" stroke="none" stroke-width="0.5" stroke-linecap="butt"/><path d="M124.91144,273.84212c1.92249,0 1.92249,1.92249 1.92249,1.92249l-0.305,0.82889c0.29763,0.50475 0.59641,1.01029 0.90152,1.51534c0.00072,-0.43964 0.00158,-0.87927 0.00158,-1.31891c0,-2.52245 -0.1436,-5.09682 0.00239,-7.61485c0.07931,-1.36808 0.51878,-2.69302 0.69351,-4.05221c0.15781,-1.22753 -0.01235,-2.47525 -0.01235,-3.71289c0,0 0,-1.92249 1.92249,-1.92249c1.92249,0 1.92249,1.92249 1.92249,1.92249c0,0.1621 0.00402,4.01371 -0.01235,4.14797c-0.15606,1.27978 -0.60589,2.52118 -0.67359,3.80865c-0.03181,0.60475 -0.05239,1.21116 -0.0647,1.81868c0.18104,-0.66952 0.36933,-1.33627 0.64265,-1.9714c1.98715,-4.61761 5.27225,-7.08286 9.88151,-8.60242c1.73728,-0.57273 3.75001,-1.12889 5.60848,-0.74295c2.03744,0.42311 3.7858,2.1123 5.3387,3.35583c0.31588,0.31468 2.27792,2.2457 2.419,2.49733c0.58981,1.05199 0.96988,3.33659 1.1124,4.51339c0.21132,1.74497 0.50947,4.32623 0.14567,6.08695c-0.61605,2.98165 -3.98272,5.96478 -6.96511,6.45245c-1.99451,0.32613 -4.5079,0.03926 -6.53853,0.03926c-3.90192,0 -7.80388,0.00473 -11.70581,0.00005c-0.18148,0.96513 -0.60394,1.81401 -1.57443,1.96672c-0.30798,0.04846 -0.6068,0.01851 -0.89716,-0.06746c-0.08753,0.07936 -0.1731,0.1602 -0.25533,0.24359c-3.56206,1.02911 -6.8178,0.93309 -10.51695,0.93309c-1.70901,0 -3.48288,0.1064 -5.17142,-0.21015c-0.96607,-0.18111 -1.85279,-0.70596 -2.8265,-0.84001c-3.5116,-0.48342 -6.81009,-0.95357 -9.97662,-2.58379c-3.97774,-2.04786 -6.74346,-4.56015 -6.84698,-9.39628c0.00435,-1.70717 -0.10617,-3.17397 0.43233,-4.85529c0.27951,-0.87269 0.74094,-1.68174 1.21451,-2.46624c0.8552,-1.41672 2.12125,-3.00248 3.55498,-3.89447c2.06218,-1.28299 4.71221,-0.81616 6.96031,-0.41892c1.51029,0.26687 3.24472,0.52922 4.72269,0.87652c2.85328,0.67048 5.9982,2.90993 8.37275,4.8578c0.26928,-0.17674 0.62693,-0.29411 1.10194,-0.29411c1.92249,0 1.92249,1.92249 1.92249,1.92249l-0.12208,1.03108c0.93653,0.95817 1.84901,1.95655 2.76232,2.87673c0.29996,0.44583 0.58913,0.89523 0.87144,1.34721c0.01135,-0.00014 0.02276,-0.00021 0.03425,-0.00021zM114.59998,281.99035c-0.75731,-1.76705 1.00974,-2.52436 1.00974,-2.52436c0.41742,-0.17726 0.83979,-0.36239 1.26351,-0.55637c-0.83702,-0.36546 -1.66974,-0.74063 -2.49718,-1.12699c-1.63976,0.93578 -3.38455,1.70846 -5.07765,2.46787c-0.31393,0.14081 -0.63078,0.27896 -0.95035,0.41256c0.71594,0.13923 1.4362,0.2722 2.17495,0.3812c1.02479,0.1512 1.96685,0.67125 2.9837,0.86888c0.36436,0.07081 0.7396,0.11376 1.12042,0.13853c-0.00918,-0.02009 -0.01823,-0.04053 -0.02714,-0.06131zM119.04969,274.07872c-0.33825,0.39518 -0.69664,0.76645 -1.07201,1.11684c1.05344,0.46535 2.11425,0.91424 3.18029,1.34994c0.20899,-0.14297 0.41479,-0.28946 0.61684,-0.43961c-0.24091,-0.39414 -0.4873,-0.78567 -0.74254,-1.17311c-0.50758,-0.50232 -1.01428,-1.00497 -1.52378,-1.50357c-0.16305,0.26143 -0.31867,0.48578 -0.4588,0.64951zM124.25227,281.89546c-0.00917,-0.00686 -0.01803,-0.0136 -0.02657,-0.02018c-0.90627,-0.34157 -1.81097,-0.68925 -2.7129,-1.04482c-0.75397,0.4344 -1.52581,0.8381 -2.30297,1.21595c1.70942,0.00178 3.3689,-0.00818 5.04244,-0.15094zM102.71941,278.29087c1.73925,-0.10734 3.40938,-0.82 4.99453,-1.54373c0.78095,-0.35656 1.59379,-0.70997 2.40644,-1.08526c-0.1597,-0.08512 -0.31912,-0.17078 -0.47825,-0.257c-1.86799,-1.012 -3.65827,-2.16767 -5.44481,-3.32684c-2.00604,1.11782 -4.07242,1.86739 -6.63567,2.33292c0,0 -0.18865,0.03329 -0.45734,0.01931c0.55598,2.03622 2.32767,3.4826 4.27292,4.49935c0.52624,-0.57599 1.34218,-0.63875 1.34218,-0.63875zM116.07681,271.6403c0.12716,-0.14919 0.33011,-0.49476 0.55347,-0.90745c-1.98527,-1.74714 -4.1044,-3.32515 -6.54872,-4.50663c-0.80756,-0.39034 -1.712,-0.51766 -2.61408,-0.64485c0.0921,0.03855 0.18666,0.08511 0.28364,0.14053c1.66919,0.95382 0.71537,2.62301 0.71537,2.62301l-0.84121,1.3933c1.26063,0.79808 2.53444,1.57435 3.84626,2.28479c0.88283,0.47811 1.77465,0.93852 2.67404,1.38338c0.70793,-0.5175 1.36197,-1.09819 1.93123,-1.76609zM104.68187,267.30443l0.44622,-0.86717c0,0 0.503,-0.88025 1.41768,-0.99702c-0.17907,-0.03181 -0.35666,-0.06727 -0.53196,-0.10852c-1.37538,-0.32366 -4.43982,-1.30968 -5.74273,-0.3957c-0.06348,0.04453 -0.12606,0.09065 -0.18776,0.13825c1.42827,0.77778 2.81342,1.634 4.18789,2.51104c0.13603,-0.09152 0.27285,-0.18513 0.41066,-0.28088zM97.65634,268.13322c-0.18987,0.33235 -0.36077,0.67464 -0.47662,1.03717c-0.13996,0.43796 -0.20877,0.93551 -0.24072,1.4463c1.27329,-0.21972 2.39782,-0.53005 3.46055,-0.94573c-0.89957,-0.54157 -1.81099,-1.05981 -2.74321,-1.53773zM138.00009,278.92032c-0.53807,-0.48024 -1.01731,-0.99051 -1.4385,-1.5262c-0.31405,0.18376 -0.62881,0.36595 -0.94456,0.54594c-0.41337,0.23565 -0.89591,0.61541 -1.40915,1.02711c1.2787,-0.00022 2.55741,0.00008 3.83611,0.00046zM138.67371,267.38257c-0.58858,1.51364 -0.7726,3.07697 -0.5143,4.53488c0.63205,-0.36766 1.26513,-0.72981 1.89643,-1.0857c0.1143,-2.12755 0.84552,-4.32187 1.76562,-6.18347c-1.08978,0.39093 -2.14478,0.83535 -3.08083,1.4896c0.15987,0.63991 -0.06692,1.24469 -0.06692,1.24469zM140.53203,276.02667l0.26432,0.25831c0,0 1.33597,1.33597 0.0347,2.68351c0.67455,0.00017 1.34911,0.00028 2.02366,0.00028c1.33678,0 2.86822,0.14725 4.30127,0.13091c-1.63943,-0.46197 -3.39311,-0.93266 -4.67867,-2.02996c-0.7585,-0.64743 -1.31433,-1.3891 -1.70196,-2.19284c-0.2966,0.17595 -0.59273,0.3529 -0.88863,0.53036c0.19846,0.21522 0.41348,0.42204 0.64529,0.61943zM150.64662,276.17769c0.32068,-0.39642 0.85375,-0.75647 1.7034,-0.61127c0.42542,-1.35449 0.27138,-2.96653 0.04576,-4.86736c-0.00517,-0.04359 -0.23321,-1.59415 -0.43354,-2.46721l-0.3373,0.6189c-2.21806,1.8824 -4.83948,2.78831 -7.38173,4.07439c0.14135,0.4692 0.37126,0.95444 0.69777,1.19259c1.34457,0.98063 3.15333,1.17934 4.66762,1.70082c0.33699,0.11605 0.68606,0.26207 1.03801,0.35914zM146.02298,264.99224c-0.83982,1.33659 -1.41645,2.46252 -1.7264,3.68669c1.54934,-0.68915 3.09185,-1.37417 4.42824,-2.41978c0.02737,-0.07591 0.19802,-0.51818 0.57694,-0.87191c-0.82641,-0.72671 -1.84413,-1.59028 -2.73228,-1.75223c-0.08342,-0.01521 -0.16758,-0.02703 -0.25234,-0.03573c0.11478,0.73865 -0.29416,1.39296 -0.29416,1.39296zM148.91186,266.10929c0.0709,-0.05818 0.14117,-0.11745 0.21079,-0.17787zM134.31692,274.2369c0.14176,-0.08906 0.28388,-0.17792 0.42632,-0.26655c-0.05476,-0.17297 -0.10509,-0.34722 -0.15101,-0.52264c-0.0881,0.26329 -0.17911,0.52656 -0.27532,0.78919z" fill="#b4c100" fill-rule="nonzero" stroke="none" stroke-width="0.5" stroke-linecap="butt"/><path d="M166.41413,240.1963c0.06087,0.06438 0.11812,0.13344 0.17137,0.20753c2.28845,3.1844 -2.2135,7.21464 -4.87577,7.84861c-3.24324,0.77231 -5.98788,-1.61041 -6.86581,-4.61431c-0.8681,-2.97024 0.93299,-5.69024 3.29135,-7.13813c0,0 1.41618,-0.80924 2.38505,0.36749c0.39748,-0.02941 0.81469,-0.02303 1.18353,-0.10441c0.8243,0.05926 1.73097,-0.18626 2.47289,0.17779c1.03807,0.50937 1.97286,1.91672 2.2374,3.25543z" fill="#b4c100" fill-rule="nonzero" stroke="none" stroke-width="0.5" stroke-linecap="butt"/><path d="M130.26898,226.48975c-0.80065,1.00081 -1.80146,0.20016 -1.80146,0.20016l-0.7196,-0.5948c-2.06062,-1.18656 -4.07624,-2.43856 -5.85567,-4.03344c-0.43577,-0.39057 -0.77377,-0.88292 -1.21564,-1.26657c-0.30773,-0.2672 -0.73656,-0.96741 -1.01981,-0.6744c-0.59639,0.61695 -0.06809,1.91181 -0.71801,2.4721c-0.1664,0.14344 -0.35897,0.07669 -0.56018,-0.06409c0.28209,0.82168 0.505,1.70464 0.35922,2.54921c-0.20495,1.18741 -0.4097,2.80555 -1.51678,3.28128c-1.09054,0.46862 -2.26042,-0.7332 -3.35728,-1.18681c-1.46955,-0.60773 -1.96414,-0.89877 -2.8658,-1.60736c0.11967,0.57208 0.00647,1.17297 -0.01519,1.75889l0.33469,2.00811c0.01406,0.07603 0.0214,0.15441 0.0214,0.23452c0,0.70784 -0.57382,1.28166 -1.28166,1.28166c-0.21526,0 -0.41813,-0.05307 -0.59624,-0.14684l-1.38692,-0.69346l0.02387,-0.04774c-0.27749,-0.24445 -0.53774,-0.60649 -0.86416,-0.51718c-0.30511,0.08348 0.42444,0.48083 0.55801,0.76757c0.17171,0.36858 0.23111,0.7797 0.34469,1.17013c0.47874,1.64564 1.30793,3.20228 1.57031,4.89594c0.15536,1.00287 0.52671,2.18594 -0.01442,3.04447c-0.3806,0.60383 -2.22479,-0.66045 -2.14077,0.04836c0.1217,1.02666 0.85225,1.8854 1.2178,2.85246c0.82615,2.18556 0.93619,3.13544 2.96773,4.20148c0,0 1.12037,0.62243 0.49794,1.7428c-0.62243,1.12037 -1.7428,0.49794 -1.7428,0.49794c-0.61089,-0.35314 -1.32108,-0.57347 -1.83267,-1.05943c-1.63769,-1.55561 -2.68652,-4.84011 -3.23401,-6.95617c-0.18524,-0.71596 -0.59635,-1.54148 -0.26513,-2.20269c0.38376,-0.76612 1.2045,-1.28541 2.01499,-1.60797c-0.45088,-0.95496 -1.27424,-3.95629 -1.50126,-4.74467c-0.31831,-1.10538 -1.21669,-3.69218 -0.19591,-4.51807c0.77059,-0.62348 1.90968,-0.17455 2.95533,0.00247c-0.00215,-0.00672 -0.00421,-0.0135 -0.00618,-0.02032c-0.14696,-0.50902 0.0249,-4.27356 0.51967,-4.48817c1.14251,-0.49555 2.4913,0.26183 3.68454,0.61831c0.8511,0.25427 1.63353,0.71622 2.38227,1.19415c0.46464,0.29659 0.67519,1.10521 1.22641,1.10933c0.36738,0.00275 -0.00528,-0.73715 -0.05894,-1.1006c-0.10971,-0.74307 -0.39047,-1.46186 -0.43013,-2.21194c-0.04798,-0.90752 -0.41783,-2.02746 0.16933,-2.72111c0.40039,-0.47301 1.34578,0.76446 1.82232,0.36827c0.65424,-0.54393 -0.09794,-2.13726 0.69039,-2.4573c1.12366,-0.45617 2.4549,0.23997 3.56419,0.73006c0.68089,0.30081 1.04605,1.06101 1.60432,1.55338c1.66066,1.46464 3.51259,2.62329 5.42416,3.72144l1.04287,0.81518c0,0 1.00081,0.80065 0.20016,1.80146z" fill="#c20000" fill-rule="nonzero" stroke="none" stroke-width="0.5" stroke-linecap="butt"/><path d="M26.64429,291.13877c-0.96948,-0.96948 0,-1.93896 0,-1.93896c0.69549,-0.69549 1.48118,-1.48118 2.2323,-2.2323c-0.57584,-1.44286 -1.21804,-2.85503 -1.77425,-4.18957l-0.62936,-0.89805c0,0 -0.76052,-1.14079 0.38026,-1.90131c1.14079,-0.76052 1.90131,0.38026 1.90131,0.38026l0.87896,1.36443c0.09379,0.22514 0.18951,0.45207 0.28659,0.68064c0.56032,-0.33307 1.38759,-0.44984 1.98875,-0.70479c3.30025,-1.39963 7.14094,-1.57789 10.60367,-2.41992l0.72534,-0.22485c0,0 1.31085,-0.40181 1.71267,0.90904c0.40181,1.31085 -0.90904,1.71267 -0.90904,1.71267l-0.88192,0.26782c-2.66497,0.64622 -5.38962,0.96844 -8.0448,1.63585c-0.09894,0.02487 -0.39235,0.16614 -0.77017,0.31802c0.56768,0.48658 1.13536,0.97317 1.70304,1.45975l0.26575,0.26004c0,0 0.96948,0.96948 0,1.93896c-0.96948,0.96948 -1.93896,0 -1.93896,0l-0.11133,-0.11704c-0.39174,-0.33578 -0.78348,-0.67156 -1.17522,-1.00734c-0.21095,0.0263 -0.36505,0.00704 -0.36505,0.00704c-0.20369,-0.03962 -0.43145,-0.07284 -0.67066,-0.10852c0.29142,0.49896 0.14699,0.9673 -0.02034,1.26736c0.49824,1.4161 0.89882,2.84851 1.08761,4.26651c0.33754,2.53527 -0.07491,5.07742 -0.42078,7.58183c1.59344,-0.02156 3.18426,-0.06775 4.77008,-0.15278c2.77177,-0.14863 5.42285,-0.79066 8.20459,-0.8792c0.59748,-0.01902 1.25747,-0.24376 1.79322,0.02141c0.07397,0.03661 0.14643,0.07556 0.21755,0.11658l0.01923,-0.05128l1.47835,0.55438c0.53542,0.18663 0.91962,0.69595 0.91962,1.295c0,0.12497 -0.01672,0.24604 -0.04805,0.36109c0.14932,0.21952 0.23658,0.48465 0.23658,0.77015c0,0.2881 -0.08886,0.55544 -0.24066,0.77612l-1.12084,1.68126l-0.01894,-0.01263c-0.01996,0.04067 -0.04047,0.08112 -0.06155,0.12134c-0.46283,0.88302 -1.43661,1.51671 -2.55069,1.9528c-0.21824,0.33455 -0.57862,0.56793 -0.99545,0.61444l-1.47357,0.18624l-0.00405,-0.03205l-0.08174,0.04016c-6.21228,0.00595 -12.60765,0.44042 -18.75768,-0.38598c-1.5854,-0.21303 -3.3043,0.37934 -4.7947,-0.20167c-0.07257,-0.02829 -0.1438,-0.05894 -0.21382,-0.09175c-0.00943,-0.00037 -0.01885,-0.00074 -0.02828,-0.00112l-0.00782,0.01955l-0.05569,-0.02228c-0.71168,-0.0322 -1.42188,-0.11898 -2.12864,-0.27836c-1.60779,-0.36257 -4.45656,-0.98544 -2.95833,-4.01578c0.14788,-0.29909 0.42204,-0.45002 0.75539,-0.52399c-0.03698,-0.12418 -0.05683,-0.25573 -0.05683,-0.39192c0,-0.70583 0.53336,-1.28709 1.21904,-1.36272l1.49028,-0.18628l0.00318,0.02546l0.08168,-0.03339c3.51864,-0.00473 7.05948,0.07984 10.59669,0.09904l-0.00453,-0.4275c0,0 0,-1.32988 1.30976,-1.37012c0.2544,-1.79684 0.45264,-3.61292 0.21182,-5.41569c-0.10642,-0.79663 -0.28855,-1.60111 -0.52104,-2.40565c-0.37034,0.37034 -0.74068,0.74068 -1.11102,1.11102l-0.18854,0.18854c0,0 -0.96948,0.96948 -1.93896,0zM42.7609,302.76423c0.04816,0.01345 0.09595,0.02732 0.14336,0.04163l0.25316,-0.14768c-0.13258,0.03286 -0.26472,0.06836 -0.39653,0.10605zM43.7749,302.52642c-0.14026,0.02476 -0.27994,0.05316 -0.41909,0.08468l0.08321,0.14265c0.11031,-0.07833 0.22191,-0.1539 0.33588,-0.22733z" fill="#ffa166" fill-rule="nonzero" stroke="none" stroke-width="0.5" stroke-linecap="butt"/><g fill-rule="nonzero" stroke-linecap="butt"><path d="M64.91052,211.20153c0,10.67675 -9.19617,19.33198 -20.54022,19.33198c-11.34405,0 -20.54022,-8.65522 -20.54022,-19.33198c0,-10.67675 9.19617,-19.33198 20.54022,-19.33198c11.34405,0 20.54022,8.65522 20.54022,19.33198z" fill="#fff700" stroke="#caff00" stroke-width="3.5"/><path d="M39.48449,246.02505c1.42394,1.42394 0,2.84787 0,2.84787c-0.02561,0.02561 -0.0517,0.0517 -0.07825,0.07825c0.30045,0.45901 0.64803,0.98177 1.00732,1.54508c0.00147,-1.3905 0.05534,-2.76608 0.21284,-4.09881c0.54396,-4.60301 2.14284,-8.2026 1.60823,-12.95656c0,0 -0.22238,-2.00143 1.77905,-2.22381c2.00143,-0.22238 2.22381,1.77905 2.22381,1.77905c0.27438,2.49693 0.41794,4.78495 -0.01723,7.27856c-0.38362,2.19818 -1.33834,4.40788 -1.59654,6.61485c-0.17425,1.48943 -0.20289,3.03474 -0.1769,4.59225c1.65718,-2.40354 3.68546,-4.5855 5.85334,-6.60759c-0.01403,-0.39301 -0.02132,-0.78802 -0.02286,-1.1842c0,0 0,-2.01375 2.01375,-2.01375c0.54558,0 0.94334,0.14781 1.23335,0.36334c0.50819,-0.42521 1.01778,-0.84379 1.5261,-1.25645c2.30496,-1.87119 5.58357,-4.48392 8.53768,-5.21492c3.62367,-0.89668 7.14861,1.15038 10.11575,2.88734c1.17593,0.68839 2.52072,1.15481 3.51558,2.08593c0.91101,0.85264 1.37045,2.08558 2.05567,3.12838c-0.94549,1.40714 -1.664,2.99696 -2.83648,4.22142c-2.15812,2.25378 -6.23861,3.80633 -8.9064,5.32692c-2.30181,1.31199 -4.51118,2.9972 -6.82683,4.43654c-0.00861,0.01339 -0.01741,0.02681 -0.02638,0.04027c-0.49528,0.74292 -1.10036,0.93684 -1.6205,0.92253c-0.82889,0.45005 -1.67637,0.85254 -2.55088,1.18121c-2.49639,0.93821 -5.43982,1.11314 -8.04353,1.69118l-2.0849,0.52122c-0.16953,0.04634 -0.34798,0.07108 -0.53222,0.07108c-0.33423,0 -0.64946,-0.08143 -0.9269,-0.22553c-0.34462,0.61521 -1.0028,1.03103 -1.7581,1.03103c-0.42594,0 -0.82099,-0.13224 -1.14634,-0.35791c-0.94307,-0.26307 -1.26213,-0.93665 -1.35923,-1.4847l-0.17359,-0.20253c-0.43046,0.16563 -0.81133,0.16563 -0.81133,0.16563l-1.97458,-0.2126c-5.50258,-2.78931 -11.57773,-3.91523 -17.37386,-5.86978c-1.39566,-0.79603 -3.29942,-1.69413 -4.28319,-3.05149c-2.40213,-3.31436 -1.32712,-9.46743 2.13391,-11.75598c1.96167,-1.29713 3.86064,-0.81903 5.906,-0.57457c3.34925,0.4003 7.51075,0.80423 10.32518,2.78106c1.29107,0.90684 2.16198,2.02939 2.93248,3.23919c0.54747,-0.24013 1.34723,-0.33874 2.14699,0.46102zM29.69775,244.77635c-0.38015,0.85318 -0.77537,1.64159 -1.19232,2.38736c1.44842,0.89175 2.90534,1.76865 4.38568,2.60684c0.48477,-0.48477 0.96953,-0.96953 1.4543,-1.4543c-0.59187,-1.01012 -1.24626,-1.95503 -2.29532,-2.72413c-0.6517,-0.47777 -1.45415,-0.82341 -2.32786,-1.0827zM23.5803,243.54019c-0.26337,-0.03472 -0.72936,-0.13072 -1.23796,-0.19778c0.91828,0.55928 1.8315,1.12615 2.7434,1.69461c0.21705,-0.39818 0.4282,-0.81297 0.63525,-1.2497c-0.75907,-0.08747 -1.48785,-0.16108 -2.14069,-0.24714zM63.37443,250.27141c-0.4056,-0.249 -0.77737,-0.50826 -1.11844,-0.77804c-1.84878,1.0456 -3.67469,2.13474 -5.49076,3.24209c0.55602,0.57066 1.23452,1.04501 2.06154,1.38871c1.80278,-1.11873 3.53686,-2.41397 5.29654,-3.54343zM52.56147,255.3267c-0.90971,0.5635 -1.62661,1.1846 -2.35322,1.77696c1.52276,-0.23092 3.07081,-0.46097 4.46869,-0.92773c-0.48887,-0.41634 -0.92661,-0.86544 -1.31804,-1.34319c-0.26584,0.16463 -0.53164,0.3293 -0.79744,0.49396zM70.33898,241.11892c-1.83338,-1.20888 -3.72922,-2.25576 -5.71709,-1.65814c-0.76923,0.23126 -1.52185,0.56623 -2.25672,0.97179c0.13524,1.44291 0.28959,2.86671 0.82775,4.05769c1.85153,-1.03892 3.74437,-2.02523 5.73274,-2.90895l-0.33758,0.14775c0,0 0.77376,-0.77376 1.7509,-0.61014zM55.46287,245.77135c-0.34473,0.28728 -0.69136,0.58007 -1.0382,0.8785c0.09151,0.92657 0.24602,1.84917 0.49837,2.72189c1.63602,-0.95862 3.24051,-1.93497 4.85095,-2.89448c-0.52578,-1.04019 -0.86266,-2.18563 -1.09879,-3.44361c-1.12876,0.92967 -2.20136,1.8952 -3.21233,2.7377zM47.75881,253.69511c1.08141,-0.91477 2.43336,-1.6853 3.65256,-2.34864c-0.17351,-0.47631 -0.32309,-0.96579 -0.45135,-1.4662c-1.16171,1.19447 -2.25386,2.46434 -3.2012,3.81484zM71.69424,242.02714c0.97356,1.31794 -0.25829,2.54979 -0.25829,2.54979l-0.87457,0.68475c-1.37374,0.61055 -2.72652,1.26139 -4.06295,1.94356c0.1754,0.0793 0.96862,0.47793 1.20023,1.29415c2.60088,-1.46047 5.18679,-2.93012 7.54921,-4.78926c-1.16579,-0.17342 -2.34739,-0.8821 -3.55362,-1.68299zM26.20932,250.63937c-0.39295,0.51475 -0.80552,1.02609 -1.24083,1.54428c1.48907,0.44348 2.98348,0.86738 4.47257,1.30679c0.101,-0.24663 0.2337,-0.44635 0.33445,-0.57795c-1.19692,-0.74046 -2.3842,-1.50442 -3.56619,-2.2731zM19.01665,246.04284c-0.62561,2.1738 0.16427,3.40014 1.96342,4.60084c0.67652,-0.76702 1.28803,-1.48619 1.85034,-2.2052c-1.27074,-0.82191 -2.54016,-1.62836 -3.81376,-2.39565z" fill="#00ff52" stroke="none" stroke-width="0.5"/><path d="M27.19534,196.00717c0.54403,0.28176 1.3361,0.93278 1.00484,2.25778c-0.48841,1.95363 -2.44203,1.46522 -2.44203,1.46522c-1.87292,-0.48565 -3.61694,-1.40634 -5.31362,-2.33636c-0.14781,-0.08102 -3.50191,-2.01351 -4.50669,-1.9061c-2.52802,0.27022 -4.23029,2.53955 -2.94805,4.83616c1.82067,3.261 5.56313,4.33329 8.91218,5.16504l2.10713,0.52678c0.89676,0.20351 1.56621,1.0055 1.56621,1.96384c0,0.74638 -0.40607,1.39793 -1.00933,1.74577l-2.65335,1.59201c-1.61774,1.34494 -9.19034,4.32343 -6.38342,7.83576c1.17268,1.46739 5.41543,3.52304 7.28092,3.75421c0.82145,0.10179 5.77659,-0.29062 6.49339,0.35411c1.09162,0.98186 1.47162,2.62904 1.64145,4.08741c0.1487,1.27705 -1.57503,2.46227 -1.15898,3.67877c0.61696,1.80392 4.87491,3.24169 6.59029,3.66903c0.993,-0.28773 2.05999,-0.79372 2.61691,-1.66476c0.69302,-1.0839 0.68907,-3.01925 1.93512,-3.33937c4.023,-1.0335 3.37548,2.19084 5.12437,3.58213c2.57158,2.04575 6.5252,0.89965 9.46036,1.42065c0.37894,0.06726 0.67979,0.81408 0.99256,0.58981c0.28719,-0.20593 -0.4108,-0.58025 -0.5575,-0.90176c-0.1965,-0.43067 -0.22843,-0.93205 -0.46603,-1.34149c-0.57601,-0.9926 -2.50746,-1.82628 -1.95644,-2.83296c0.96498,-1.76296 3.32847,-2.30985 5.18832,-3.0715c2.08526,-0.85397 6.27882,-0.94044 8.47982,-1.0048c3.25014,-0.09504 7.2567,0.94751 8.29227,-3.24083c-1.18948,-0.60236 -2.19748,-1.5346 -3.40704,-2.09559c-1.51427,-0.70231 -3.19834,-1.05086 -4.62819,-1.91214c-0.99402,-0.59876 -2.53048,-0.76959 -2.94744,-1.85251c-1.87665,-4.8739 0.68753,-5.60678 2.68622,-8.97704c1.24887,-2.10589 1.24716,-2.94892 1.34774,-5.26765c0.00584,-0.13465 0.35997,-4.55378 -0.72196,-4.79761c-1.94038,-0.43729 -4.2238,0.78239 -5.89364,1.51256c-1.21042,0.52927 -2.53128,2.14432 -3.67513,1.48338c-1.43459,-0.82892 -1.43608,-3.01918 -1.78568,-4.63872c-0.58495,-2.70986 -0.26697,-6.86946 0.13309,-9.68216c-3.35631,0.83829 -7.08473,0.46076 -10.06163,2.77816c-1.07799,0.83918 -3.15764,3.78129 -4.20134,3.88919c-3.75593,0.38831 -4.44326,-5.00794 -8.10301,-5.08812c-2.7397,-0.06003 -6.41773,0.44931 -9.0195,1.42811c-2.29874,0.8648 -1.97217,3.59385 -0.35779,4.67847l0.65289,-0.17085c0,0 1.6503,0.27505 1.69172,1.82797zM19.67148,192.30056c0.27142,-5.47647 4.21779,-6.80806 8.93119,-7.5192c2.84162,-0.42873 6.5097,-1.02622 9.25265,0.17c1.10945,0.48384 3.01267,2.53867 3.71287,3.55326c0.16547,0.23976 0.03178,0.98638 0.27687,0.82891c0.36574,-0.23501 0.1212,-0.89679 0.37646,-1.2487c0.51335,-0.70773 1.17106,-1.31283 1.8662,-1.84309c4.41787,-3.37006 10.02312,-3.77539 15.17733,-2.59183c1.222,3.4712 1.21976,5.39182 1.21523,9.02517c-0.00119,0.95827 0.12284,1.92663 0.04315,2.87878c0.57244,-0.33206 1.2276,-0.54736 1.85407,-0.75603c3.51075,-1.16942 7.34866,-1.60608 9.43005,2.06701c2.02949,3.5815 0.77081,9.89336 -1.1211,13.18783c-0.37889,0.65978 -3.35598,3.30798 -2.68377,4.98494c0.17122,0.42714 0.92448,0.1168 1.34856,0.29548c0.61186,0.25781 1.10905,0.74682 1.72331,0.99887c3.2924,1.351 5.03389,2.43217 7.96245,4.65939c0.05063,1.22725 0.48617,2.49983 0.15187,3.68175c-2.0724,7.32707 -10.28405,5.03951 -15.73094,5.65932c-1.56833,0.17847 -2.95456,0.72159 -4.43584,0.72935c1.09694,1.7484 1.50643,5.7198 0.3314,7.07119c-0.84981,0.97737 -2.55077,0.47067 -3.84043,0.58981c-2.37605,0.21951 -6.044,0.0886 -8.31031,-0.60632c-1.30463,-0.40003 -2.60203,-0.93451 -3.70931,-1.73202c-0.35555,-0.25608 -0.65171,-0.58935 -0.90338,-0.95785c-0.73797,1.9436 -5.05849,2.98762 -6.06721,3.29485c-3.52276,-0.73518 -9.28623,-2.57738 -10.59369,-6.53395c-0.33664,-1.01874 0.02992,-2.15786 0.24165,-3.20968c0.16903,-0.83972 1.57617,-2.13875 0.77782,-2.44913c-0.32383,-0.12589 -0.62404,0.35446 -0.97054,0.38011c-1.26758,0.09383 -2.55531,0.15734 -3.81306,-0.026c-2.73582,-0.3988 -8.29889,-3.09446 -9.90306,-5.37478c-3.53931,-5.03112 0.86436,-9.42166 4.82549,-11.99051c0.40936,-0.26548 0.80316,-0.57312 1.20821,-0.85641c-3.58423,-1.13161 -7.21481,-2.9321 -8.86427,-6.45086c-2.3181,-4.94514 0.60258,-10.15413 6.18094,-10.73682c1.43202,-0.14958 2.76739,0.2312 4.05917,0.82716z" fill="#ffc400" stroke="none" stroke-width="0.5"/></g><path d="M377.07023,159.48537c0,12.92479 -10.60697,23.40242 -23.69133,23.40242c-13.08436,0 -23.69134,-10.47762 -23.69134,-23.40242c0,-12.92479 10.60698,-23.40241 23.69134,-23.40241c13.08436,0 23.69133,10.47762 23.69133,23.40241z" fill="none" fill-rule="nonzero" stroke="#000000" stroke-width="3" stroke-linecap="butt"/><path d="M318.41973,189.53292c0,-1.39212 1.34155,-1.44269 1.43901,-1.44452c1.48858,-0.63314 3.37264,-1.43033 4.93293,-1.70752c0.19601,-0.03482 3.84179,-0.02606 4.02913,-0.02606c3.17811,0 6.35621,0 9.53432,0c2.65139,0 5.35396,0.1495 7.99996,0.00279c1.50727,-0.08357 2.96974,-0.25734 4.44263,-0.39311c-8.73147,-2.6898 -18.23307,-6.0576 -27.32402,-4.2394l-1.87586,0.00703c0,0 -1.44459,0 -1.44459,-1.44459c0,-1.44459 1.44459,-1.44459 1.44459,-1.44459l1.59116,0.00703c9.49032,-1.89807 19.34931,1.5883 28.45103,4.36041c0.0417,-0.19134 0.13296,-0.39641 0.29427,-0.61149c0.86676,-1.15568 2.02243,-0.28892 2.02243,-0.28892c0.51065,0.42881 1.21627,0.69906 1.53195,1.28642c0.78175,1.45455 0.71248,3.83993 1.04966,5.41624c0.19112,0.89343 0.68151,1.7056 0.86676,2.60027c0.43572,2.10435 0.01865,4.72798 0.01865,6.87653c0,2.28321 0.3485,4.9154 -0.01865,7.16545c-0.18965,1.16228 -0.49837,2.27029 -0.91297,3.32935c1.30169,0.4751 0.85749,1.80769 0.85749,1.80769c-0.73712,2.1281 -0.5037,4.22889 -0.5037,6.47723c0,3.37485 0.41485,6.13733 1.11337,9.46909c0.18581,0.88628 0.68071,3.56913 1.25688,4.48368c1.02876,1.63295 2.90427,3.32038 4.19561,4.73027c2.1447,2.34158 3.36917,4.68761 6.00043,6.57527c0.2847,0.38533 0.61648,0.74197 0.98196,1.05956c0.09785,-0.01703 0.20423,-0.02628 0.31985,-0.02628c1.44459,0 1.44459,1.44459 1.44459,1.44459l-2.18783,1.81656c-0.96571,-0.59761 -1.89024,-1.32387 -2.57765,-2.22787c-2.68003,-1.90573 -3.96274,-4.34813 -6.13416,-6.71499c-1.03884,-1.13235 -1.99381,-2.33961 -2.95141,-3.54144c-0.45125,-0.56634 -1.14611,-0.9317 -1.52053,-1.55153c-0.89348,-1.47911 -1.30653,-3.80431 -1.65476,-5.45176c-0.89213,-4.22075 -1.77423,-9.20173 -1.28733,-13.75209c-0.05455,0.07051 -0.1096,0.14078 -0.16515,0.21081c-3.69526,1.5976 -7.68349,2.53941 -11.07907,4.69293c-7.075,4.48704 -9.12594,13.72104 -9.17587,21.55023l-0.57784,1.73351v1.44459l-0.57783,1.73351l0.01865,1.2132h-2.88918l0.01865,-1.676l0.57784,-1.73351v-1.44459l0.57783,-1.73352c-0.06128,-8.66977 2.77898,-18.61188 10.4706,-23.52109c3.30275,-2.10799 7.1902,-3.2704 10.87876,-4.55247c2.762,-4.11828 2.61224,-8.21511 2.61224,-13.01042c0,-1.97584 0.44629,-4.49093 0.01866,-6.41373c-0.19835,-0.89185 -0.675,-1.70697 -0.86676,-2.60026c-0.05295,-0.24665 -0.08878,-0.51699 -0.11765,-0.8006c-2.38432,0.06145 -4.6461,0.43348 -7.03421,0.56641c-2.7056,0.15059 -5.46833,0.00279 -8.17948,0.00279c-3.17811,0 -6.35621,0 -9.53432,0c-1.16095,0 -2.34163,-0.23972 -3.48275,-0.02607c-1.47716,0.27656 -3.24901,1.05089 -4.61575,1.64278l-0.85798,0.1168c0,0 -1.44459,0 -1.44459,-1.44459z" fill="#000000" fill-rule="nonzero" stroke="none" stroke-width="0.5" stroke-linecap="butt"/><path d="M341.53323,163.81916c-1.44459,0 -1.44459,-1.44459 -1.44459,-1.44459l0.10332,-0.82542c1.08414,-2.55834 0.46635,-6.09447 0.77227,-8.86842c0,0 0.15953,-1.43576 1.59529,-1.27623c1.43576,0.15953 1.27623,1.59529 1.27623,1.59529c-0.35773,3.19417 0.19054,6.61951 -0.96124,9.62238l0.10332,-0.24759c0,0 0,1.44459 -1.44459,1.44459z" fill="#000000" fill-rule="nonzero" stroke="none" stroke-width="0.5" stroke-linecap="butt"/><path d="M351.19106,163.9022c-1.23872,-0.74324 -0.49549,-1.98197 -0.49549,-1.98197l0.82176,-1.36384c0.8609,-1.97547 1.74259,-3.94027 2.54272,-5.94132c0,0 0.53652,-1.34128 1.87779,-0.80477c1.34127,0.53651 0.80476,1.87779 0.80476,1.87779c-0.83495,2.08668 -1.75433,4.13555 -2.65781,6.19326l-0.91176,1.52534c0,0 -0.74324,1.23873 -1.98197,0.49549z" fill="#000000" fill-rule="nonzero" stroke="none" stroke-width="0.5" stroke-linecap="butt"/><path d="M355.69024,169.59753c0,1.44459 -1.44459,1.44459 -1.44459,1.44459h-1.44459c-1.44023,0 -2.86135,-0.113 -4.27448,0.24632c-1.20163,0.30554 -2.43507,0.73789 -3.66867,0.6134c-1.95595,-0.19737 -3.30379,-1.24274 -4.93468,-2.22127c0,0 -1.23873,-0.74324 -0.49549,-1.98197c0.74324,-1.23872 1.98197,-0.49549 1.98197,-0.49549c0.89261,0.53557 1.7065,1.22326 2.66687,1.62484c1.38443,0.57889 2.42739,-0.01728 3.75356,-0.34351c1.66838,-0.41042 3.2761,-0.33152 4.97092,-0.33152h1.44459c0,0 1.44459,0 1.44459,1.44459z" fill="#000000" fill-rule="nonzero" stroke="none" stroke-width="0.5" stroke-linecap="butt"/><path d="M353.44433,179.17815c-1.20198,-0.80131 -0.40066,-2.00329 -0.40066,-2.00329l0.40935,0.39138c-0.16232,-0.50663 -0.25786,-1.03975 -0.48696,-1.51989c-0.27679,-0.58006 -0.96958,-0.99591 -1.01928,-1.6367c-0.09242,-1.19158 1.05402,-2.84289 1.63798,-3.82184c0,0 0.74324,-1.23873 1.98197,-0.49549c1.23872,0.74324 0.49549,1.98196 0.49549,1.98196c-0.27045,0.44776 -0.52952,0.90259 -0.81135,1.34328c-0.13553,0.21194 -0.49226,0.36721 -0.43985,0.61326c0.06824,0.3203 0.56144,0.38497 0.71422,0.67464c0.32018,0.60699 0.44581,1.29809 0.6687,1.94714l-0.74632,2.12489c0,0 -0.80132,1.20198 -2.00329,0.40066z" fill="#ff0000" fill-rule="nonzero" stroke="none" stroke-width="0.5" stroke-linecap="butt"/><path d="M350.20079,161.5078c0,-0.79782 0.64677,-1.44459 1.44459,-1.44459c0.79782,0 1.44459,0.64677 1.44459,1.44459c0,0.79782 -0.64677,1.4446 -1.44459,1.4446c-0.79782,0 -1.44459,-0.64677 -1.44459,-1.4446z" fill="#ff0000" fill-rule="nonzero" stroke="none" stroke-width="0.5" stroke-linecap="butt"/><path d="M338.64404,162.37456c0,-0.79782 0.64677,-1.44459 1.4446,-1.44459c0.79782,0 1.44459,0.64677 1.44459,1.44459c0,0.79782 -0.64677,1.44459 -1.44459,1.44459c-0.79782,0 -1.4446,-0.64677 -1.4446,-1.44459z" fill="#ff0000" fill-rule="nonzero" stroke="none" stroke-width="0.5" stroke-linecap="butt"/><path d="M360.2966,132.5319c-0.64604,1.29208 -1.93813,0.64604 -1.93813,0.64604l-0.55496,-0.27997c-0.93486,-0.55525 -2.01354,-0.91481 -3.09457,-1.03152c0,0 -0.45377,-0.05672 -0.81878,-0.36165c-0.11344,0.29468 -0.24836,0.57912 -0.4085,0.85067c-0.34786,0.58986 -0.77476,1.12869 -1.20037,1.66819c0.22595,-0.04157 0.45274,-0.09787 0.68045,-0.17378c5.92924,-0.05741 11.75444,0.09446 16.74991,3.59814c2.24104,1.5718 4.44998,3.13854 6.4797,4.98417c0.52641,0.47867 1.12337,0.91106 1.51089,1.50777c0.03432,0.05284 0.05024,0.1401 0.05492,0.23913c0.51085,-4.03769 1.82103,-8.82234 -0.69412,-12.29189c-3.33792,-2.91807 -7.03607,-4.04926 -10.97695,-5.88262c-2.06389,-0.96015 -4.0009,-2.05279 -6.22875,-2.64693c-7.27731,-1.94079 -15.10516,-0.68775 -22.11659,2.02686l-0.21971,0.39536c-0.73388,1.45709 -1.31315,2.98379 -1.76366,4.55292c0.5912,0.77389 -0.02562,1.65506 -0.02562,1.65506c-0.20408,0.28838 -0.3911,0.56517 -0.56245,0.8331c-0.12153,0.94888 -0.02281,1.95652 -0.43214,2.81274c-0.02261,0.04729 -0.0458,0.09425 -0.06955,0.14089l0.0226,0.00848l-0.71458,1.90555c-0.1097,0.31473 -0.32523,0.57986 -0.60396,0.75278c-0.03215,0.58466 -0.04233,1.21677 -0.04233,1.91939c0,0.64571 0.02305,1.29183 0,1.93713c-0.01365,0.38224 -0.07349,0.76143 -0.10997,1.14216c-0.01028,0.1073 -0.11112,0.3933 -0.0303,0.32197c3.08522,-2.7233 6.55554,-4.84627 10.13864,-6.963c0.62594,-0.36978 4.00109,-2.31022 4.4181,-2.43733c0.29408,-0.08964 0.58842,-0.14612 0.88325,-0.18118c0.68511,-1.14337 1.6103,-2.13081 2.33842,-3.24855c0.09073,-0.13928 0.16991,-0.2889 0.23883,-0.44725c-1.67589,-0.03445 -3.35358,-0.05994 -5.03526,-0.05994c0,0 -0.09093,0 -0.22717,-0.02282c-0.08344,0.01499 -0.16936,0.02282 -0.25711,0.02282c-0.79782,0 -1.44459,-0.64677 -1.44459,-1.4446c0,-0.79782 0.64677,-1.44459 1.44459,-1.44459c0.08775,0 0.17368,0.00783 0.25711,0.02282c0.13623,-0.02281 0.22717,-0.02282 0.22717,-0.02282c1.82511,0 3.64572,0.03004 5.46445,0.06896c-0.00772,-1.15673 -0.12911,-2.32862 -0.12911,-3.22503c0,0 0,-1.44459 1.44459,-1.44459c0.56644,0 0.91077,0.2221 1.12009,0.49213c0.72661,0.07573 1.29307,0.69009 1.29307,1.43675c0,0.61557 -0.38502,1.1412 -0.92737,1.34924c0.01398,0.47924 0.02554,0.96739 0.02297,1.45617c2.40163,0.05608 4.80237,0.10853 7.2083,0.10853h1.21071c0,0 1.44459,-0.00001 1.44459,1.44459c0,1.44459 -1.44459,1.44459 -1.44459,1.44459h-1.21071c-0.63716,0 -1.27393,-0.00367 -1.91042,-0.01012c0.29584,0.19097 1.06853,0.816 0.53897,1.87512zM338.15556,121.66386c0.17843,0.09914 0.31766,0.20947 0.42517,0.32587c7.06546,-2.43108 14.8018,-3.34853 21.99235,-1.4312c2.40512,0.64132 4.51058,1.79088 6.73826,2.82953c1.76144,0.82128 3.68007,1.27882 5.4284,2.12765c2.35863,1.14512 4.5026,2.71387 6.46445,4.43167c2.55162,3.60786 2.50718,7.79349 1.80861,12.0952c-0.27323,1.68252 -0.93568,4.94836 -2.92095,5.56019c-0.93097,0.28691 -1.66757,-1.01667 -2.43255,-1.61985c-1.54647,-1.21936 -2.89738,-2.76389 -4.45736,-3.99085c-1.61502,-1.27025 -3.5726,-2.71962 -5.34045,-3.73086c-1.49633,-0.85593 -3.54953,-0.77322 -5.1851,-1.08107c-2.45819,-0.4627 -4.73404,-0.44628 -7.25184,-0.47837c-1.27032,0.42344 -2.62718,0.17464 -3.87506,0.26255c-0.09528,0.02049 -0.19648,0.03159 -0.30203,0.02865c-0.26544,0.03225 -0.52507,0.08405 -0.77689,0.16555c-2.91595,0.94369 -5.98925,3.52992 -8.55065,5.15038c-1.23248,0.77972 -2.47432,1.54454 -3.70991,2.31933c-1.07016,0.67105 -1.94511,2.03534 -3.20814,2.01692c-2.84672,-0.04151 -2.52103,-2.79984 -2.56169,-4.34724c-0.05142,-1.95698 -0.20192,-4.06881 0.08865,-6.071l-0.01784,-0.02007c-0.4486,-2.54445 -1.27686,-5.29299 -1.2793,-7.8732c-0.00074,-0.78978 -0.23147,-1.73342 0.25503,-2.35556c0.58058,-0.74245 1.69803,-0.81851 2.54705,-1.22776c1.19633,-0.60009 2.4285,-1.16337 3.68893,-1.68163l0.46851,-0.84359c0,0 0.70155,-1.2628 1.96436,-0.56125zM332.53228,131.27534c0.33101,-1.42671 0.75025,-2.81907 1.26714,-4.17652c-0.20463,0.09889 -0.40825,0.19885 -0.6108,0.29982c-0.44241,0.07502 -0.96358,-0.03783 -1.3272,0.22508c-0.16379,0.11843 0.21797,0.35143 0.25503,0.55012c0.12437,0.66677 0.11196,1.35353 0.22482,2.02236c0.06084,0.3606 0.12507,0.72013 0.19101,1.07913z" fill="#ff0000" fill-rule="nonzero" stroke="none" stroke-width="0.5" stroke-linecap="butt"/><path d="M369.50398,177.47211c1.38901,-0.39686 1.78587,0.99215 1.78587,0.99215l0.5259,1.89148c0.02006,2.37521 0.19802,4.38595 0.71698,6.72127c0.28136,2.01143 0.77305,2.46426 1.58498,4.25335c0.77984,1.71836 1.06514,3.86784 1.329,5.72505c0.83895,5.90508 0.47265,12.04425 0.97803,17.99916c0.2871,3.38289 0.63587,6.78297 0.96559,10.13989c0.33049,3.36471 1.21706,6.39355 1.21933,9.84325c0,1.357 0.43871,4.72245 -0.75298,5.70293c-0.68237,0.56143 -1.74732,0.27956 -2.62874,0.34234c-2.49263,0.17755 -5.00866,-0.54172 -7.42219,-1.0662c-4.96103,-1.0781 -9.93611,-2.04496 -14.9056,-3.08021c-1.71463,-0.35719 -4.46889,-0.7213 -5.82713,-1.85982c-1.03456,-0.86719 -0.81554,-2.93875 -1.09388,-4.05198c-0.07705,-0.30817 -0.15749,-0.58216 -0.23639,-0.83199c-0.0797,1.10511 -0.18294,2.20616 -0.69653,3.30273c-0.90512,1.93251 -3.15608,3.30594 -4.85375,4.43917c-2.89204,1.9305 -5.10761,3.00391 -8.44373,3.83213c-1.24175,0.30828 -2.90293,1.33667 -4.20041,0.17361c-0.75728,-0.67883 -0.80957,-3.25303 -0.73748,-4.32816c0.30223,-4.50731 1.21822,-8.78792 1.71947,-13.26575c0.71152,-2.50576 1.51437,-5.21802 3.26161,-7.23853c2.62563,-3.03627 6.63604,-2.86938 9.66024,-5.03482c1.09288,-0.78254 2.60789,-2.90713 3.27213,-3.99386c2.0788,-3.40098 3.7281,-7.14145 5.37767,-10.76686c0.38234,-0.84029 0.83931,-1.64481 1.24033,-2.47633c-6.40299,2.42469 -12.71488,4.92416 -19.62804,5.53807c-2.95844,0.26272 -5.82278,0.71932 -8.78782,0.25105c-3.27375,-0.51703 -6.73794,-2.30434 -9.31121,-4.36217c-0.65012,-0.51989 -1.61134,-0.9461 -1.76804,-1.76365c-0.19657,-1.02558 0.39231,-2.07707 0.85224,-3.01457c1.55535,-3.17034 5.58733,-4.82484 8.86756,-5.2976c0.25574,0.02425 0.5509,0.2113 0.76721,0.07273c0.1526,-0.09776 -0.37174,-0.11125 -0.47889,-0.25742c-0.84064,-1.14673 -1.42534,-2.46723 -2.2665,-3.61359c-0.75497,-1.0289 -2.21664,-1.40426 -2.93354,-2.46004c-0.87785,-1.2928 -0.57161,-4.10501 0.55759,-5.12678c0.75865,-0.68647 4.42197,-0.2913 5.4706,-0.2913c4.6298,0 9.0798,0.3133 13.69065,0.73235c0,0 1.43867,0.13079 1.30788,1.56945c-0.13079,1.43866 -1.56945,1.30787 -1.56945,1.30787c-4.52728,-0.41169 -8.88374,-0.72049 -13.42908,-0.72049c-1.04928,0 -2.10913,0.14863 -3.14783,0c-0.21503,-0.03077 -0.40256,-0.41234 -0.58292,-0.2913c-0.32416,0.21754 -0.22175,0.91325 0.07331,1.16887c0.40143,0.34777 1.0285,0.34839 1.43759,0.68711c0.57121,0.47295 0.99045,1.10607 1.44025,1.69567c0.54125,0.70947 2.41754,3.72601 2.57632,4.13491c0.32497,0.83684 0.89819,1.84889 0.48967,2.64826c-0.46026,0.9006 -1.74851,1.01705 -2.62276,1.52558c-2.85526,0.40421 -5.41848,1.5577 -7.11372,3.90375c-0.20474,0.28333 -0.61843,0.51057 -0.6006,0.85968c0.0115,0.22504 0.45429,0.06791 0.65336,0.17348c0.64416,0.34159 1.23417,0.7768 1.85615,1.1573c2.72582,1.66751 5.41829,2.95193 8.69093,2.93516c9.58165,-0.04909 18.11555,-3.52944 26.93651,-6.78236l1.56011,-0.61216c0.17177,-0.07205 0.3604,-0.11184 0.55832,-0.11184c0.79782,0 1.44459,0.64677 1.44459,1.44459c0,0.36193 -0.13309,0.69277 -0.35301,0.94625l-1.33431,1.55668c-1.62309,3.79006 -3.31574,7.53249 -5.50222,11.01883c-0.81728,1.30316 -1.1773,2.85606 -1.97931,4.16867c-0.72683,1.18957 -1.64322,2.25509 -2.53918,3.32309c-2.82133,3.36301 -7.87747,2.85902 -10.70991,6.11756c-1.37135,1.57764 -1.9857,3.87792 -2.54976,5.83706c-0.40884,3.70788 -1.24511,7.20911 -1.42836,10.93181c-0.05449,1.10717 -0.5621,2.82523 -0.49535,3.92111c0.00878,0.14409 0.14549,-0.27073 0.27495,-0.33461c0.42241,-0.20845 0.87925,-0.34528 1.33601,-0.46033c1.33838,-0.33712 2.81126,-0.47415 4.07207,-1.10641c2.01629,-1.0111 6.31493,-3.44963 7.32878,-5.635c0.68527,-1.47709 0.08958,-2.64308 0.35941,-4.22137c0.12869,-0.75277 0.52098,-1.43567 0.78301,-2.1531l0.46811,-1.40434c0.18154,-0.59029 0.73116,-1.01937 1.381,-1.01937c0.62007,0 1.14891,0.39068 1.35377,0.93932l0.95607,2.39016l-0.21116,0.08446c0.50548,1.00304 0.87829,2.04503 1.24109,3.49643c0.15995,0.63991 0.16225,1.30919 0.2483,1.96315c0.03361,0.25539 -0.10688,0.62685 0.11066,0.7648c1.70713,1.0826 5.24203,1.27058 7.15487,1.64861c4.05148,0.80069 8.08515,1.60597 12.12112,2.48333c2.32092,0.50453 4.50285,0.69782 6.80856,1.00029c0.27586,0.03619 0.49172,0.41137 0.76124,0.34234c0.17397,-0.04455 -0.23732,-0.29212 -0.26379,-0.46974c-0.14878,-0.99854 -0.00492,-2.01911 -0.00492,-3.02867c0.00232,-3.35058 -0.86936,-6.25498 -1.20208,-9.52799c-0.34285,-3.37274 -0.68447,-6.79982 -0.97154,-10.19992c-0.31971,-3.78677 -0.54377,-7.64255 -0.73037,-11.43811c-0.13074,-2.65942 0.06698,-5.15346 -0.45946,-7.78521c-0.61235,-3.06126 -2.21855,-5.41348 -2.66665,-8.49142c-0.52187,-2.34842 -0.76256,-4.4444 -0.73587,-6.83859l-0.44267,-1.49849c0,0 -0.39685,-1.38901 0.99216,-1.78587z" fill="#ff0000" fill-rule="nonzero" stroke="none" stroke-width="0.5" stroke-linecap="butt"/><path d="M341.11241,238.42035c-1.44459,0 -1.4446,-1.4446 -1.4446,-1.4446v-1.33332c0,-1.96013 -0.09521,-3.85518 0.26898,-5.78491c-0.09789,-0.38267 -0.07092,-0.82182 -0.29368,-1.14801c-0.60924,-0.89207 -2.10303,-0.92721 -2.6581,-1.85396c-0.44146,-0.73708 -0.53008,-1.66699 -0.51273,-2.52598c0.04035,-1.99755 1.5794,-4.33178 2.68793,-5.82498c0.21963,-0.29584 0.406,-0.63165 0.64078,-0.91564c-0.82754,-0.16225 -1.08335,-1.44757 -1.19878,-2.69083c-0.10431,-1.12355 0.80991,-2.58133 0.79893,-3.78873c-0.01359,-1.49392 -0.61047,-3.04593 -0.18523,-4.47813c0.21508,-0.72439 0.8397,-1.26444 1.35341,-1.81859c0.28295,-0.30522 0.93634,-0.32286 1.01131,-0.73224c0.10722,-0.58544 -0.61251,-1.09963 -0.56712,-1.69307c0.0388,-0.50728 0.72125,-0.79894 0.79623,-1.30216c0.13932,-0.93499 -0.71575,-1.75179 -1.00727,-2.65103c-3.59045,-1.99818 -3.53367,-7.05311 -1.76501,-10.40377c0.30061,-0.5695 0.94609,-0.92189 1.20091,-1.51329c0.30863,-0.7163 -0.75364,-1.3734 -1.01493,-2.10828c-0.17665,-0.49684 -0.6584,-3.90383 -0.52689,-4.21535c0.30725,-0.72783 1.59454,-1.67061 2.70947,-2.21045c-0.52543,-0.29111 -0.96582,-0.66936 -1.08688,-0.82504c-2.17703,-2.79958 -1.30638,-4.26613 0.03451,-6.96084c0,0 0.64604,-1.29208 1.93813,-0.64604c1.29208,0.64604 0.64604,1.93812 0.64604,1.93812c-0.6861,1.36483 -1.75468,2.33284 -0.49881,3.7057c1.10739,1.21057 3.4758,-0.32022 3.84181,2.41629c0.23057,1.72387 -3.03112,2.77661 -4.15926,3.27104c-0.24541,0.10755 -0.64428,0.08875 -0.72661,0.34373c-0.0935,0.28958 0.26941,0.55082 0.3424,0.84623c0.37218,1.50635 1.71181,3.49319 1.31574,5.09666c-0.21264,0.86086 -1.045,1.43942 -1.46572,2.21999c-0.74208,1.37678 -1.08357,3.77166 -0.69233,5.30206c0.24404,0.9546 1.45076,1.46325 2.12727,1.89397c0.26418,0.64696 1.70993,3.88687 1.65937,4.81554c-0.0287,0.52708 -0.75677,0.8387 -0.80375,1.36447c-0.06232,0.69738 0.69502,1.36791 0.49953,2.04022c-0.34416,1.18351 -2.11909,1.59114 -2.43521,2.78244c-0.28537,1.07542 0.35548,2.46922 0.3481,3.52178c-0.0112,1.59661 -0.49187,2.15691 -0.80106,3.67784c-0.03704,0.18223 -0.12711,0.45497 0.02825,0.55716c0.58874,0.38727 1.77218,0.08382 1.97304,0.75928c0.2769,0.93119 -0.49872,1.89088 -0.92543,2.76364c-0.80192,1.64015 -2.12732,2.62445 -2.7489,4.43207c-0.21465,0.62424 -0.88306,1.43808 -0.44304,1.93014c0.72644,0.81233 2.10411,0.95116 2.67518,1.87932c0.47134,0.76607 0.51532,1.72352 0.77297,2.58528c-0.30007,2.00676 -0.26435,3.9204 -0.26435,5.94828v1.33332c0,0 0,1.44459 -1.44459,1.44459z" fill="#006bff" fill-rule="nonzero" stroke="none" stroke-width="0.5" stroke-linecap="butt"/><path d="M345.33491,238.6429c-1.44459,0 -1.44459,-1.4446 -1.44459,-1.4446v-1.33331c0,-1.96013 -0.09521,-3.85518 0.26898,-5.78492c-0.09789,-0.38267 -0.07092,-0.82182 -0.29368,-1.14801c-0.60924,-0.89207 -2.10304,-0.9272 -2.6581,-1.85395c-0.44146,-0.73708 -0.53009,-1.667 -0.51274,-2.52599c0.04035,-1.99755 1.5794,-4.33177 2.68794,-5.82497c0.21963,-0.29584 0.406,-0.63165 0.64078,-0.91564c-0.82754,-0.16225 -1.08335,-1.44758 -1.19878,-2.69084c-0.10431,-1.12355 0.80991,-2.58133 0.79893,-3.78873c-0.01359,-1.49392 -0.61047,-3.04593 -0.18523,-4.47813c0.21508,-0.72439 0.83969,-1.26443 1.35341,-1.81858c0.28295,-0.30522 0.93634,-0.32287 1.01132,-0.73225c0.10722,-0.58544 -0.61252,-1.09963 -0.56713,-1.69306c0.0388,-0.50728 0.72125,-0.79895 0.79623,-1.30216c0.13932,-0.93499 -0.71575,-1.7518 -1.00727,-2.65103c-3.59045,-1.99818 -3.53367,-7.05311 -1.76501,-10.40376c0.30061,-0.5695 0.94609,-0.92189 1.20091,-1.51329c0.30863,-0.7163 -0.75364,-1.37341 -1.01493,-2.10829c-0.17665,-0.49684 -0.65841,-3.90382 -0.5269,-4.21534c0.30725,-0.72783 1.59454,-1.67061 2.70947,-2.21046c-0.52543,-0.29111 -0.96582,-0.66936 -1.08688,-0.82504c-2.17703,-2.79957 -1.30638,-4.26614 0.0345,-6.96084c0,0 0.64604,-1.29208 1.93813,-0.64604c1.29208,0.64604 0.64604,1.93813 0.64604,1.93813c-0.6861,1.36483 -1.75468,2.33284 -0.49882,3.7057c1.10739,1.21057 3.4758,-0.32022 3.84181,2.41629c0.23057,1.72387 -3.03111,2.77661 -4.15925,3.27104c-0.24541,0.10755 -0.64428,0.08875 -0.72661,0.34373c-0.0935,0.28958 0.26942,0.55082 0.34241,0.84623c0.37218,1.50635 1.71179,3.4932 1.31574,5.09666c-0.21264,0.86086 -1.045,1.43942 -1.46573,2.21999c-0.74208,1.37678 -1.08356,3.77166 -0.69233,5.30207c0.24404,0.9546 1.45076,1.46324 2.12728,1.89397c0.26418,0.64696 1.70993,3.88687 1.65937,4.81554c-0.0287,0.52708 -0.75678,0.8387 -0.80376,1.36447c-0.06232,0.69738 0.69503,1.36791 0.49953,2.04022c-0.34416,1.18351 -2.1191,1.59114 -2.43522,2.78244c-0.28537,1.07542 0.35548,2.46922 0.3481,3.52178c-0.0112,1.59662 -0.49186,2.15691 -0.80105,3.67786c-0.03704,0.18223 -0.12712,0.45497 0.02825,0.55716c0.58874,0.38727 1.77218,0.08381 1.97304,0.75928c0.2769,0.93119 -0.49872,1.89089 -0.92543,2.76365c-0.80192,1.64015 -2.12732,2.62445 -2.7489,4.43207c-0.21465,0.62424 -0.88306,1.43808 -0.44303,1.93014c0.72644,0.81233 2.10411,0.95117 2.67518,1.87933c0.47134,0.76607 0.51532,1.72352 0.77297,2.58528c-0.30007,2.00676 -0.26435,3.9204 -0.26435,5.94828v1.33331c0,0 0,1.44459 -1.44459,1.44459z" fill="#00ff46" fill-rule="nonzero" stroke="none" stroke-width="0.5" stroke-linecap="butt"/><path d="M349.55742,237.53213c-1.44459,0 -1.44459,-1.44459 -1.44459,-1.44459v-1.33331c0,-1.96013 -0.09521,-3.85518 0.26898,-5.78491c-0.09789,-0.38267 -0.07092,-0.82182 -0.29368,-1.14801c-0.60924,-0.89207 -2.10304,-0.9272 -2.6581,-1.85395c-0.44146,-0.73708 -0.53008,-1.667 -0.51273,-2.52599c0.04035,-1.99755 1.57939,-4.33178 2.68793,-5.82498c0.21963,-0.29584 0.40601,-0.63165 0.64079,-0.91564c-0.82754,-0.16225 -1.08335,-1.44758 -1.19878,-2.69084c-0.10431,-1.12355 0.80991,-2.58133 0.79892,-3.78873c-0.01359,-1.49392 -0.61047,-3.04592 -0.18523,-4.47812c0.21508,-0.72439 0.83969,-1.26443 1.35341,-1.81858c0.28295,-0.30522 0.93634,-0.32287 1.01132,-0.73225c0.10722,-0.58544 -0.61251,-1.09963 -0.56712,-1.69306c0.0388,-0.50728 0.72125,-0.79895 0.79622,-1.30216c0.13932,-0.93499 -0.71575,-1.7518 -1.00727,-2.65103c-3.59045,-1.99818 -3.53367,-7.05311 -1.76501,-10.40376c0.30061,-0.5695 0.94608,-0.92189 1.20091,-1.51329c0.30863,-0.7163 -0.75364,-1.37341 -1.01493,-2.10829c-0.17665,-0.49684 -0.6584,-3.90382 -0.52689,-4.21534c0.30725,-0.72783 1.59454,-1.67061 2.70947,-2.21046c-0.52543,-0.29111 -0.96582,-0.66936 -1.08688,-0.82504c-2.17703,-2.79957 -1.30638,-4.26614 0.03451,-6.96084c0,0 0.64604,-1.29208 1.93813,-0.64604c1.29208,0.64604 0.64604,1.93813 0.64604,1.93813c-0.6861,1.36483 -1.75468,2.33284 -0.49881,3.7057c1.10739,1.21057 3.4758,-0.32022 3.84181,2.41629c0.23057,1.72387 -3.03111,2.77661 -4.15925,3.27104c-0.24541,0.10755 -0.64429,0.08875 -0.72662,0.34373c-0.0935,0.28958 0.26942,0.55082 0.34241,0.84623c0.37218,1.50635 1.7118,3.4932 1.31573,5.09666c-0.21264,0.86086 -1.045,1.43942 -1.46572,2.21999c-0.74208,1.37678 -1.08357,3.77166 -0.69233,5.30207c0.24404,0.9546 1.45076,1.46324 2.12728,1.89396c0.26418,0.64696 1.70993,3.88687 1.65937,4.81554c-0.0287,0.52708 -0.75677,0.8387 -0.80376,1.36447c-0.06232,0.69738 0.69502,1.36791 0.49953,2.04022c-0.34416,1.18351 -2.11909,1.59114 -2.43521,2.78244c-0.28537,1.07542 0.35548,2.46922 0.3481,3.52178c-0.0112,1.59662 -0.49186,2.1569 -0.80106,3.67785c-0.03704,0.18223 -0.12711,0.45497 0.02825,0.55716c0.58874,0.38727 1.77218,0.08381 1.97304,0.75928c0.2769,0.93119 -0.49872,1.89089 -0.92543,2.76365c-0.80192,1.64015 -2.12732,2.62445 -2.7489,4.43207c-0.21465,0.62424 -0.88306,1.43808 -0.44304,1.93014c0.72644,0.81233 2.10411,0.95117 2.67518,1.87933c0.47134,0.76607 0.51532,1.72352 0.77297,2.58528c-0.30007,2.00676 -0.26434,3.92039 -0.26434,5.94828v1.33331c0,0 0,1.44459 -1.44459,1.44459z" fill="#ff0000" fill-rule="nonzero" stroke="none" stroke-width="0.5" stroke-linecap="butt"/><path d="M354.84657,238.82134c-1.44459,0 -1.44459,-1.44459 -1.44459,-1.44459v-1.33331c0,-1.96013 -0.09521,-3.85518 0.26898,-5.78492c-0.09789,-0.38267 -0.07092,-0.82182 -0.29368,-1.148c-0.60924,-0.89207 -2.10304,-0.92721 -2.6581,-1.85396c-0.44146,-0.73708 -0.53008,-1.66699 -0.51273,-2.52598c0.04035,-1.99755 1.5794,-4.33178 2.68793,-5.82498c0.21963,-0.29584 0.406,-0.63165 0.64078,-0.91564c-0.82754,-0.16225 -1.08335,-1.44757 -1.19877,-2.69083c-0.10431,-1.12355 0.80991,-2.58133 0.79892,-3.78873c-0.01359,-1.49392 -0.61047,-3.04593 -0.18523,-4.47813c0.21508,-0.72439 0.83969,-1.26443 1.35341,-1.81858c0.28295,-0.30522 0.93634,-0.32287 1.01132,-0.73225c0.10722,-0.58544 -0.61252,-1.09963 -0.56713,-1.69307c0.0388,-0.50728 0.72125,-0.79894 0.79623,-1.30216c0.13932,-0.93499 -0.71575,-1.7518 -1.00727,-2.65104c-3.59045,-1.99818 -3.53367,-7.0531 -1.76501,-10.40375c0.30061,-0.5695 0.94609,-0.92189 1.20091,-1.5133c0.30863,-0.7163 -0.75364,-1.3734 -1.01493,-2.10828c-0.17665,-0.49684 -0.6584,-3.90383 -0.52689,-4.21535c0.30725,-0.72783 1.59454,-1.6706 2.70947,-2.21045c-0.52543,-0.29111 -0.96582,-0.66937 -1.08688,-0.82505c-2.17703,-2.79957 -1.30638,-4.26613 0.0345,-6.96084c0,0 0.64604,-1.29208 1.93813,-0.64604c1.29208,0.64604 0.64604,1.93813 0.64604,1.93813c-0.6861,1.36483 -1.75468,2.33284 -0.49882,3.7057c1.10739,1.21057 3.4758,-0.32022 3.84181,2.41629c0.23057,1.72387 -3.03111,2.7766 -4.15925,3.27103c-0.24541,0.10755 -0.64428,0.08876 -0.72661,0.34374c-0.0935,0.28958 0.26942,0.55082 0.34241,0.84624c0.37218,1.50635 1.71179,3.49319 1.31573,5.09665c-0.21264,0.86086 -1.045,1.43943 -1.46572,2.22c-0.74208,1.37678 -1.08356,3.77166 -0.69232,5.30206c0.24404,0.9546 1.45076,1.46324 2.12728,1.89396c0.26418,0.64696 1.70992,3.88687 1.65936,4.81554c-0.0287,0.52708 -0.75677,0.8387 -0.80375,1.36447c-0.06232,0.69738 0.69502,1.36791 0.49952,2.04023c-0.34416,1.18351 -2.11909,1.59114 -2.43521,2.78244c-0.28537,1.07542 0.35548,2.46922 0.3481,3.52178c-0.0112,1.59662 -0.49186,2.15691 -0.80106,3.67785c-0.03704,0.18223 -0.12712,0.45496 0.02825,0.55716c0.58874,0.38727 1.77219,0.08381 1.97304,0.75928c0.2769,0.93119 -0.49872,1.89089 -0.92544,2.76365c-0.80192,1.64015 -2.12732,2.62445 -2.74889,4.43207c-0.21465,0.62424 -0.88306,1.43808 -0.44304,1.93014c0.72644,0.81233 2.10411,0.95116 2.67517,1.87933c0.47134,0.76607 0.51532,1.72352 0.77297,2.58528c-0.30007,2.00676 -0.26435,3.9204 -0.26435,5.94828v1.33331c0,0 0,1.44459 -1.44459,1.44459z" fill="#41ff00" fill-rule="nonzero" stroke="none" stroke-width="0.5" stroke-linecap="butt"/><g stroke="none" stroke-width="1" stroke-linecap="butt"><path d="M235.75,-76.579l5.4,-4.989l7.173,-4.091l7.927,-1.597l8.4,0.998l8.224,5.987l7.576,7.883l3.914,6.287l4.488,10.676l2.998,16.964l3.1,33.228l-4.8,3.093l-9.2,3.992l-11.76,1.197l-18.459,0.897l-11.781,-1.995l-11.141,-4.39l-4.059,-3.792v-19.258l0.5,-16.864l2.5,-13.722l5.4,-15.016l3.6,-5.488" fill="#c1b4d8" fill-rule="evenodd"/><path d="M224.35,-4.136l4.4,2.694l5.1,2.096l3.9,1.097l5.8,1.098l4.773,0.689l4.027,0.408l4,0.399l9.7,-0.399h3.14l6.16,-0.997l5.9,-0.699l5.293,-2.195l4.807,-3.293l3.6,-1.995l0.6,8.082l-0.6,4.689l-7.253,5.289l-10.547,3.193l-9.9,0.798l-7.475,-0.698l-6.825,0.399l-11.5,-2.195l-9.1,-2.495l-6.4,-1.596l-1.6,-14.369" fill="#897ab8" fill-rule="evenodd"/><path d="M255.425,23.829h1.425h8.775l1.625,0.523l4.375,3.442l4.425,6.886l0.9,8.782l-2.025,9.404l-2.25,11.001l-5.1,13.246l-6.025,14.145l-0.875,2.02l-0.725,-0.524l-0.6,-2.544l-3.5,-7.484l-3.425,-8.606l-4.575,-13.247l-2.85,-13.62l0.525,-9.804l2.175,-7.035l3.3,-3.964l4.425,-2.621" fill="#f7ec1e" fill-rule="evenodd"/><path d="M257.75,35.42801l1.125,-0.598l5.175,0.598l1.725,1.797l0.975,4.14l-1.8,10.678l-3.975,12.498h-1.025l-3.1,-9.879l-2.1,-9.505v-5.612l1.1,-3.069l1.9,-1.048" fill="#fbf5a8" fill-rule="evenodd"/><path d="M263.35,-23.196l1.3,0.799l1.4,2.494l1.2,5.189v9.081l-1.3,14.668l-1.6,16.763l-3.6,16.864l-2.3,-10.477l-1.3,-10.178l-0.6,-14.269l-0.7,-16.165l0.6,-9.779l1.7,-3.493l2.8,-1.497h2.4" fill="#ef463c" fill-rule="evenodd"/><path d="M223.051,-23.196l0.5,9.58l0.9,8.681l1.5,14.668l-2.8,1.397l-3.1,3.193l-1.1,7.484l0.4,9.779l1.7,8.082l-0.4,1.697l-2.9,-3.377l-7.6,-12.588l-7.3,-16.066l-2.501,-10.877l-0.6,-8.581c0,0 2.301,-10.677 2.501,-10.976c0.199,-0.299 4.099,-5.288 4.099,-5.288l6,-2.734h7.001l3.799,1.636z" fill="#ef463c" fill-rule="evenodd"/><path d="M293.25,-26.189l5.592,-2.395l6.608,-0.538l6.9,2.933l4.9,5.987l2.2,11.276l-2.2,11.973l-5.1,15.267l-5.1,9.48v-5.588l-1.7,-5.787l-2.7,-4.79l-3.808,-2.894l-2.792,-1.197l-0.7,-8.482l-0.8,-10.976l-1.3,-14.269" fill="#ef463c" fill-rule="evenodd"/><path d="M266.35,-80.27199c-0.3,0.1 -5.8,1.696 -5.8,1.696l-7.8,0.599l-7.819,-1.497l-3.481,-1.995l4.75,-3.393l8.55,-2.096l9.4,0.898l5.8,3.293c0,0 -3.3,2.395 -3.6,2.495z" fill="#ef463c" fill-rule="evenodd"/><path d="M319.505,-3.79799c-0.356,2.359 -1.103,4.63 -1.473,6.97c-0.329,2.08 -1.153,4.014 -1.517,6.074c-0.126,0.716 -0.468,1.397 -0.747,2.081c-0.861,2.114 -1.712,4.232 -2.621,6.326c-0.6,1.384 -1.352,2.704 -1.93,4.096c-0.776,1.867 -1.443,3.779 -2.172,5.665c-0.15,0.388 -0.323,0.783 -0.563,1.119c-0.634,0.886 -0.921,1.882 -1.152,2.931c-0.22,1.002 -0.528,1.973 -0.575,3.018c-0.02,0.436 -0.337,0.895 -0.616,1.273c-0.502,0.685 -1.199,0.2 -1.798,0.165c-0.42,-0.025 -0.849,-0.633 -0.802,-1.059c0.044,-0.401 0.14,-0.833 0.343,-1.173c0.849,-1.417 1.595,-2.898 1.933,-4.499c0.29,-1.365 0.494,-2.756 0.51,-4.194c0.02,-1.678 -0.296,-3.222 -0.713,-4.819c-0.676,-2.585 -1.699,-5.001 -3.251,-7.148c-1.251,-1.729 -2.813,-3.167 -5.001,-3.711c-0.557,-0.139 -1.091,-0.366 -1.751,-0.591c-0.55,0.428 -1.285,0.828 -1.78,1.426c-0.712,0.859 -1.679,1.31 -2.58,1.829c-1.469,0.849 -3.018,1.571 -4.577,2.247c-0.903,0.394 -1.891,0.592 -2.839,0.88c-0.798,0.243 -1.589,0.516 -2.394,0.731c-1.711,0.455 -3.431,0.879 -5.145,1.324c-0.176,0.046 -0.39,0.1 -0.5,0.226c-0.42,0.481 -0.868,0.43 -1.392,0.2c-0.219,-0.097 -0.52,-0.125 -0.751,-0.063c-1.926,0.52 -3.897,0.581 -5.871,0.626c-0.371,0.009 -0.743,0.021 -1.113,0.045c-0.556,0.035 -1.057,0.615 -1.089,1.27c-0.027,0.546 -0.041,1.093 -0.049,1.64c-0.008,0.543 -0.002,1.088 -0.002,1.677c0.159,0.033 0.311,0.108 0.448,0.085c0.631,-0.103 1.098,0.016 1.623,0.501c0.95,0.876 2.097,1.536 3.096,2.365c1.154,0.958 2.37,1.861 3.152,3.203c0.581,0.997 1.325,1.904 1.854,2.923c0.454,0.874 0.748,1.84 1.036,2.788c0.278,0.917 0.529,1.854 0.663,2.799c0.156,1.106 0.185,2.23 0.245,3.347c0.052,0.964 0.127,1.933 0.089,2.896c-0.034,0.828 -0.202,1.652 -0.332,2.474c-0.192,1.207 -0.378,2.416 -0.611,3.615c-0.207,1.071 -0.483,2.127 -0.714,3.194c-0.204,0.94 -0.354,1.893 -0.591,2.825c-0.388,1.527 -0.924,3.021 -1.225,4.562c-0.633,3.235 -1.866,6.27 -3.018,9.327c-1.189,3.154 -2.489,6.266 -3.763,9.386c-0.971,2.377 -2.02,4.723 -2.957,7.112c-0.716,1.824 -1.308,3.696 -1.962,5.544c-0.363,1.024 -0.745,2.041 -1.111,3.063c-0.065,0.18 -0.121,0.371 -0.135,0.559c-0.034,0.448 -0.117,0.844 -0.68,0.861c-0.627,0.02 -1.193,-0.381 -1.29,-0.933c-0.122,-0.682 -0.261,-1.366 -0.313,-2.056c-0.067,-0.886 -0.359,-1.665 -0.803,-2.427c-0.234,-0.403 -0.364,-0.908 -0.398,-1.377c-0.056,-0.801 -0.32,-1.509 -0.744,-2.165c-0.879,-1.363 -1.311,-2.904 -1.833,-4.413c-0.282,-0.816 -0.681,-1.592 -0.957,-2.41c-0.72,-2.133 -1.868,-4.071 -2.751,-6.129c-0.393,-0.914 -0.763,-1.837 -1.148,-2.754c-0.432,-1.033 -0.922,-2.045 -1.289,-3.099c-0.398,-1.14 -0.589,-2.359 -1.044,-3.472c-0.477,-1.168 -0.612,-2.407 -0.981,-3.592c-0.201,-0.643 -0.306,-1.315 -0.494,-1.963c-0.195,-0.676 -0.489,-1.326 -0.648,-2.009c-0.291,-1.248 -0.504,-2.513 -0.768,-3.767c-0.085,-0.405 -0.206,-0.808 -0.357,-1.194c-0.409,-1.041 -0.395,-2.137 -0.454,-3.223c-0.054,-0.992 0.031,-1.975 -0.197,-2.976c-0.155,-0.682 0.101,-1.45 0.134,-2.182c0.019,-0.433 -0.052,-0.869 -0.055,-1.304c-0.003,-0.51 0.021,-1.021 0.037,-1.532c0.034,-1.024 0.06,-2.051 0.112,-3.075c0.015,-0.278 0.102,-0.556 0.178,-0.829c0.328,-1.171 0.648,-2.345 1.002,-3.509c0.425,-1.399 0.881,-2.79 1.327,-4.183c0.039,-0.123 0.073,-0.257 0.15,-0.354c0.772,-0.982 1.509,-1.996 2.347,-2.919c0.681,-0.75 1.45,-1.435 2.25,-2.06c0.465,-0.362 1.061,-0.566 1.611,-0.807c0.701,-0.308 1.412,-0.584 2.066,-0.85c0.31,-0.002 0.619,-0.008 0.926,-0.048c0.205,-0.026 0.323,-0.139 0.347,-0.346c0.039,-0.337 -0.005,-0.653 -0.116,-0.963c0.04,0.005 0.073,0.007 0.116,0.013c-0.071,-1.331 -0.142,-2.656 -0.216,-4.04c-1.628,0.568 -3.144,0.401 -4.668,0.118c-0.814,-0.151 -1.644,-0.223 -2.455,-0.388c-0.938,-0.192 -1.856,-0.478 -2.795,-0.661c-0.553,-0.108 -1.189,-0.494 -1.644,0.267c-0.502,-0.226 -1.06,-0.155 -1.446,-0.758c-0.226,-0.352 -0.892,-0.468 -1.384,-0.597c-0.895,-0.236 -1.815,-0.373 -2.712,-0.604c-0.639,-0.165 -1.249,-0.437 -1.882,-0.627c-0.7,-0.21 -1.406,-0.405 -2.119,-0.567c-2.386,-0.544 -4.652,-1.436 -6.909,-2.351c-0.659,-0.267 -1.228,-0.446 -1.846,0.176c-0.274,0.276 -0.817,0.351 -1.25,0.392c-1.579,0.154 -2.643,1.131 -3.543,2.268c-0.62,0.783 -0.797,1.804 -0.978,2.789c-0.191,1.038 -0.468,2.063 -0.612,3.107c-0.132,0.951 -0.133,1.92 -0.196,2.881c-0.048,0.736 -0.152,1.474 -0.14,2.21c0.013,0.767 0.128,1.534 0.215,2.299c0.043,0.382 0.206,0.768 0.174,1.139c-0.185,2.125 0.713,4.1 0.819,6.186c0.046,0.885 0.252,1.783 0.523,2.632c0.519,1.629 0.05,3.324 0.417,4.956c0.038,0.173 -0.042,0.371 -0.07,0.588c-0.364,0.072 -0.699,0.139 -1.175,0.233c-0.33,-0.399 -0.708,-0.855 -1.086,-1.313c-0.082,-0.099 -0.152,-0.211 -0.245,-0.298c-1.573,-1.484 -2.866,-3.174 -3.93,-5.06c-0.661,-1.171 -1.517,-2.23 -2.204,-3.389c-0.633,-1.07 -1.371,-2.083 -1.773,-3.29c-0.19,-0.569 -0.605,-1.06 -0.897,-1.598c-0.272,-0.5 -0.513,-1.016 -0.771,-1.523c-0.114,-0.226 -0.243,-0.445 -0.353,-0.673c-0.539,-1.12 -1.057,-2.251 -1.618,-3.36c-0.359,-0.71 -0.789,-1.383 -1.167,-2.084c-0.15,-0.278 -0.201,-0.615 -0.375,-0.874c-1.06,-1.577 -1.576,-3.404 -2.373,-5.102c-0.162,-0.346 -0.3,-0.708 -0.508,-1.024c-0.713,-1.09 -1.011,-2.323 -1.313,-3.561c-0.111,-0.455 -0.379,-0.875 -0.468,-1.332c-0.192,-0.99 -0.297,-1.997 -0.477,-2.991c-0.084,-0.462 -0.264,-0.906 -0.393,-1.36c-0.166,-0.581 -0.437,-1.158 -0.465,-1.746c-0.067,-1.426 -0.719,-2.715 -0.874,-4.11c-0.113,-1.017 -0.184,-2.038 -0.282,-3.056c-0.089,-0.912 -0.189,-1.824 -0.286,-2.736c-0.023,-0.223 -0.13,-0.474 -0.063,-0.665c0.515,-1.471 0.06,-3.053 0.542,-4.53c0.114,-0.349 0.02,-0.764 0.035,-1.148c0.02,-0.505 -0.027,-1.032 0.098,-1.511c0.216,-0.832 0.702,-1.62 0.789,-2.456c0.167,-1.59 0.57,-3.019 1.706,-4.2c0.205,-0.213 0.259,-0.575 0.376,-0.871c0.701,-1.789 2.215,-2.88 3.564,-4.109c0.206,-0.188 0.493,-0.29 0.744,-0.428c0.724,-0.401 1.443,-0.812 2.177,-1.194c0.439,-0.229 0.898,-0.423 1.357,-0.61c0.707,-0.288 1.416,-0.573 2.136,-0.827c0.231,-0.082 0.5,-0.096 0.749,-0.084c1.572,0.072 3.148,0.112 4.713,0.263c0.789,0.076 1.569,0.325 2.332,0.562c0.84,0.262 1.657,0.599 2.6,0.945c0,-1.006 -0.018,-1.953 0.007,-2.9c0.015,-0.541 0.117,-1.078 0.147,-1.619c0.106,-1.855 0.149,-3.716 0.308,-5.567c0.16,-1.855 0.558,-3.695 0.619,-5.55c0.071,-2.134 0.66,-4.168 0.954,-6.255c0.272,-1.925 0.848,-3.806 1.284,-5.708c0.201,-0.876 0.416,-1.751 0.569,-2.635c0.258,-1.479 0.595,-2.924 1.359,-4.242c0.115,-0.2 0.065,-0.488 0.149,-0.713c0.445,-1.201 0.877,-2.408 1.375,-3.587c0.496,-1.176 1.064,-2.323 1.638,-3.562c-0.409,-0.554 -0.151,-1.125 0.173,-1.761c0.859,-1.683 2.061,-3.115 3.4,-4.39c1.089,-1.037 2.077,-2.161 3.137,-3.22c0.658,-0.658 1.378,-1.253 2.071,-1.877c0.07,-0.064 0.129,-0.162 0.211,-0.188c1.581,-0.512 2.786,-1.681 4.239,-2.413c0.625,-0.316 1.271,-0.591 1.91,-0.878c0.145,-0.065 0.34,-0.06 0.448,-0.157c1.116,-1.007 2.637,-1.154 3.912,-1.827c0.358,-0.189 0.895,-0.162 1.316,-0.075c0.402,0.083 0.731,0.05 1.119,-0.044c1.185,-0.286 2.387,-0.501 3.583,-0.741c0.093,-0.019 0.194,-0.033 0.287,-0.021c1.816,0.246 3.662,0.361 5.437,0.78c2.22,0.525 4.354,1.351 6.144,2.863c0.464,0.391 0.967,0.753 1.497,1.047c1.333,0.739 2.449,1.741 3.566,2.757c0.61,0.556 1.353,0.968 1.972,1.517c0.45,0.398 0.8,0.91 1.187,1.378c0.487,0.591 0.968,1.186 1.449,1.782c0.201,0.251 0.397,0.507 0.59,0.764c0.116,0.153 0.185,0.38 0.337,0.463c1.45,0.797 1.899,2.359 2.776,3.59c0.427,0.598 0.863,1.199 1.209,1.844c0.927,1.719 2.309,3.146 3.054,4.99c0.927,2.292 1.899,4.563 2.573,6.946c0.315,1.11 0.531,2.256 0.937,3.33c0.561,1.486 0.719,3.048 1.055,4.575c0.255,1.159 0.56,2.309 0.78,3.474c0.365,1.923 0.705,3.852 1.005,5.787c0.249,1.603 0.459,3.214 0.624,4.828c0.176,1.726 0.273,3.46 0.421,5.19c0.062,0.723 0.165,1.443 0.256,2.219c0.706,-0.27 1.411,-0.398 1.94,-0.773c0.987,-0.699 2.135,-0.652 3.216,-0.876c0.872,-0.179 1.795,-0.284 2.675,-0.202c1.72,0.16 3.466,0.161 5.148,0.657c0.801,0.236 1.639,0.36 2.423,0.639c0.782,0.279 1.583,0.593 2.258,1.059c1.632,1.127 3.347,2.157 4.553,3.816c1.495,2.06 2.55,4.263 3.017,6.798c0.409,2.218 0.831,4.431 0.89,6.682c0.057,2.204 -0.071,4.404 -0.401,6.597zM242.877,-81.50099c0.117,0.106 0.214,0.241 0.345,0.305c0.573,0.281 1.138,0.591 1.738,0.801c1.696,0.593 3.359,1.287 5.205,1.384c0.647,0.034 1.311,0.083 1.957,0.166c2.156,0.277 4.289,0.196 6.405,-0.266c1.128,-0.246 2.23,-0.683 3.368,-0.795c1.71,-0.17 3.234,-0.813 4.758,-1.496c0.62,-0.279 1.22,-0.626 1.702,-1.155c-1.467,-1.339 -3.161,-2.058 -4.912,-2.673c-0.391,-0.138 -0.774,-0.371 -1.173,-0.402c-1.598,-0.122 -3.186,-0.288 -4.761,-0.594c-0.399,-0.077 -0.831,-0.029 -1.243,0.012c-1.877,0.188 -3.722,0.546 -5.571,0.925c-1.508,0.309 -2.809,1.061 -4.223,1.559c-1.341,0.471 -2.482,1.288 -3.595,2.229zM225.231,-41.98499c0.583,0.425 1.117,0.694 1.49,1.107c1.814,2.008 4.128,3.108 6.686,3.792c0.93,0.249 1.868,0.469 2.793,0.731c1.727,0.49 3.415,1.103 5.21,1.365c2.539,0.37 5.058,0.873 7.596,1.261c1.273,0.196 2.568,0.251 3.851,0.389c0.961,0.103 1.91,0.183 2.885,0.066c0.786,-0.094 1.601,-0.078 2.39,0.008c1.129,0.122 2.237,0.183 3.365,-0.056c0.551,-0.117 1.141,-0.062 1.714,-0.068c0.451,-0.005 0.906,0.054 1.353,0.016c1.114,-0.094 2.226,-0.224 3.338,-0.347c2.561,-0.285 5.08,-0.79 7.553,-1.502c1.079,-0.311 2.124,-0.739 3.185,-1.114c0.455,-0.16 0.927,-0.282 1.36,-0.486c0.929,-0.437 1.813,-0.978 2.76,-1.365c2.025,-0.828 3.825,-1.983 5.43,-3.459c0.235,-0.214 0.5,-0.48 0.788,-0.538c0.657,-0.131 0.726,-0.765 1.11,-1.119c0.553,-0.509 0.103,-0.982 -0.045,-1.481c-0.078,-0.265 0.013,-0.575 -0.042,-0.851c-0.356,-1.779 -0.726,-3.555 -1.101,-5.329c-0.124,-0.592 -0.244,-1.186 -0.415,-1.765c-0.38,-1.29 -0.793,-2.571 -1.189,-3.856c-0.265,-0.857 -0.517,-1.718 -0.787,-2.574c-0.231,-0.731 -0.45,-1.469 -0.729,-2.183c-0.437,-1.119 -0.848,-2.259 -1.406,-3.318c-0.512,-0.974 -1.209,-1.852 -1.815,-2.778c-0.118,-0.182 -0.21,-0.389 -0.274,-0.596c-0.255,-0.821 -0.651,-1.651 -1.236,-2.184c-0.602,-0.548 -0.909,-1.207 -1.332,-1.829c-0.197,-0.289 -0.456,-0.535 -0.684,-0.803c-0.831,-0.973 -1.634,-1.97 -2.495,-2.914c-1.857,-2.038 -3.843,-3.936 -6.143,-5.433c-0.413,0.209 -0.788,0.381 -1.147,0.582c-1.63,0.913 -3.338,1.659 -5.134,2.158c-0.615,0.171 -1.203,0.423 -1.815,0.563c-1.118,0.257 -2.275,0.341 -3.395,0.593c-2.712,0.611 -5.442,0.328 -8.154,0.146c-1.551,-0.104 -3.115,-0.464 -4.601,-0.936c-1.423,-0.452 -2.755,-1.193 -4.123,-1.815c-0.345,-0.157 -0.678,-0.343 -1.076,-0.545c-0.812,0.738 -1.562,1.385 -2.27,2.075c-0.459,0.447 -0.86,0.955 -1.284,1.439c-0.656,0.748 -1.256,1.554 -1.977,2.232c-0.755,0.71 -1.056,1.726 -1.808,2.426c-0.14,0.13 -0.245,0.455 -0.181,0.617c0.189,0.476 -0.073,0.816 -0.261,1.168c-0.59,1.102 -1.214,2.186 -1.814,3.283c-1.289,2.349 -2.09,4.893 -2.874,7.435c-0.423,1.373 -0.648,2.807 -0.977,4.211c-0.11,0.467 -0.308,0.917 -0.394,1.388c-0.512,2.804 -1.032,5.606 -1.486,8.42c-0.209,1.289 -0.275,2.602 -0.393,3.773zM225.193,9.25501c-0.018,-0.22 -0.016,-0.444 -0.056,-0.661c-0.182,-1.002 -0.523,-2.002 -0.528,-3.004c-0.006,-1.327 -0.117,-2.618 -0.37,-3.916c-0.164,-0.845 -0.107,-1.734 -0.301,-2.569c-0.286,-1.227 -0.521,-2.454 -0.524,-3.713c-0.002,-0.518 -0.131,-0.956 -0.507,-1.304c-0.394,-0.365 -0.361,-0.828 -0.036,-1.097c0.438,-0.362 0.377,-0.771 0.379,-1.212c0.006,-1.689 -0.419,-3.353 -0.29,-5.049c0.031,-0.41 0.05,-0.825 0.021,-1.234c-0.111,-1.592 -0.308,-3.181 -0.347,-4.774c-0.024,-0.98 -0.403,-1.972 0.003,-2.955c0.034,-0.083 0.027,-0.194 0.006,-0.284c-0.29,-1.257 -0.045,-2.51 -0.004,-3.921c-0.936,-0.383 -1.881,-0.747 -2.806,-1.156c-0.956,-0.423 -1.934,-0.673 -2.985,-0.588c-0.158,0.012 -0.319,0.008 -0.478,-0.004c-0.884,-0.067 -1.767,-0.191 -2.65,-0.191c-0.599,0 -1.25,0.051 -1.787,0.287c-1.556,0.683 -3.087,1.43 -4.587,2.229c-1.359,0.724 -2.425,1.822 -3.241,3.107c-0.72,1.134 -1.44,2.307 -1.899,3.558c-0.617,1.682 -1.116,3.432 -1.424,5.194c-0.397,2.284 -0.36,4.616 -0.368,6.939c-0.01,2.907 0.515,5.726 1.181,8.532c0.467,1.97 0.897,3.949 1.417,5.905c0.436,1.641 0.869,3.296 1.498,4.868c0.712,1.781 1.684,3.456 2.463,5.213c1.03,2.322 2.605,4.376 3.353,6.833c0.028,0.092 0.086,0.173 0.131,0.26c1.102,2.069 2.201,4.14 3.308,6.206c0.454,0.849 0.873,1.725 1.402,2.527c0.989,1.5 2.023,2.972 3.087,4.42c0.452,0.614 1.028,1.138 1.661,1.826c0.03,-0.374 0.069,-0.533 0.051,-0.686c-0.222,-1.878 -0.365,-3.772 -0.705,-5.629c-0.377,-2.053 -0.539,-4.127 -0.851,-6.182c-0.196,-1.294 0.311,-2.536 -0.04,-3.85c-0.237,-0.888 -0.032,-1.919 0.093,-2.871c0.195,-1.496 0.525,-2.973 0.731,-4.468c0.21,-1.528 0.719,-2.853 1.773,-4.048c0.617,-0.701 1.267,-1.253 2.074,-1.643c0.685,-0.332 1.408,-0.59 2.152,-0.895zM230.775,10.65201c-0.079,-0.643 -0.194,-1.164 -0.197,-1.684c-0.004,-1.016 0.101,-2.034 0.075,-3.049c-0.042,-1.685 -0.151,-3.368 -0.237,-5.053c-0.026,-0.511 -0.366,-0.79 -0.788,-0.995c-1.364,-0.664 -2.75,-1.287 -3.895,-2.32c-0.088,-0.08 -0.275,-0.053 -0.575,-0.101c0.286,1.721 0.559,3.319 0.812,4.922c0.079,0.504 0.132,1.016 0.148,1.527c0.03,0.927 -0.01,1.859 0.043,2.786c0.037,0.635 0.158,1.269 0.287,1.895c0.042,0.203 0.188,0.478 0.356,0.547c1.263,0.513 2.544,0.983 3.971,1.525zM243.576,13.00901c-0.085,-1.372 -0.227,-2.739 -0.314,-4.11c-0.088,-1.375 -0.121,-2.754 -0.207,-4.13c-0.064,-1.031 -0.163,-1.105 -1.15,-1.317c-2.325,-0.497 -4.649,-1.001 -6.971,-1.509c-0.925,-0.203 -1.846,-0.423 -2.865,-0.658c0,0.407 -0.018,0.69 0.003,0.972c0.102,1.407 0.23,2.813 0.317,4.221c0.039,0.641 0.033,1.287 -0.006,1.928c-0.031,0.505 -0.135,1.006 -0.224,1.506c-0.07,0.394 -0.168,0.784 -0.262,1.217c0.366,0.105 0.605,0.188 0.851,0.242c0.847,0.183 1.732,0.255 2.535,0.553c2.596,0.963 5.239,1.727 8.146,2.171c0.059,-0.409 0.168,-0.752 0.147,-1.086zM256.247,15.70201c-0.079,-3.523 -0.296,-6.98 -0.292,-10.495c-1.906,-0.502 -3.776,-0.416 -5.608,-0.624c-1.856,-0.21 -3.712,-0.414 -5.676,-0.633c0.319,3.628 0.051,7.15 0.777,10.663c3.601,0.848 7.107,1.626 10.799,1.089zM265.21,24.27801c-0.096,0.738 -0.176,1.371 -0.261,2.003c-0.127,0.954 -0.188,1.923 -0.402,2.858c-0.317,1.381 -0.594,2.761 -0.673,4.18c-0.026,0.479 -0.023,0.835 0.514,1.096c0.47,0.229 0.841,0.66 1.249,1.01c0.512,0.438 0.514,1.142 0.859,1.666c1.099,1.669 1.155,3.565 1.147,5.454c-0.003,0.881 -0.255,1.757 -0.316,2.641c-0.079,1.154 -0.07,2.313 -0.617,3.383c-0.113,0.223 -0.123,0.497 -0.185,0.746c-0.28,1.121 -0.423,2.3 -0.875,3.347c-0.612,1.415 -1.171,2.841 -1.609,4.315c-0.293,0.985 -0.395,2.058 -0.848,2.959c-0.983,1.953 -1.299,4.073 -1.818,6.146c-0.085,0.338 -0.118,0.701 -0.105,1.05c0.019,0.542 -0.097,1.01 -0.494,1.378c-0.643,-0.066 -1.13,-0.318 -1.302,-0.958c-0.074,-0.275 -0.097,-0.568 -0.119,-0.854c-0.044,-0.595 0.077,-1.253 -0.139,-1.773c-0.438,-1.048 -0.862,-2.083 -1.162,-3.187c-0.644,-2.368 -1.488,-4.681 -2.045,-7.071c-0.283,-1.215 -0.624,-2.398 -1.099,-3.549c-0.158,-0.384 -0.272,-0.796 -0.338,-1.206c-0.246,-1.51 -0.349,-3.044 -0.807,-4.518c-0.065,-0.208 -0.042,-0.447 -0.043,-0.672c-0.005,-1.018 0.022,-2.037 -0.011,-3.054c-0.039,-1.196 -0.241,-2.4 0.518,-3.483c0.139,-0.199 0.136,-0.493 0.223,-0.735c0.412,-1.131 0.921,-2.178 2.228,-2.535c0.114,-0.031 0.202,-0.152 0.303,-0.231c0.267,-0.21 0.534,-0.421 0.898,-0.707c-0.318,-3.066 -0.669,-6.216 -1.162,-9.366c-1.067,-0.129 -1.974,0.382 -2.871,0.712c-1.361,0.501 -2.471,1.478 -3.492,2.503c-0.517,0.519 -1.009,1.096 -1.377,1.726c-1.479,2.536 -2.105,5.361 -2.629,8.205c-0.186,1.006 -0.254,2.037 -0.337,3.059c-0.106,1.313 -0.2,2.627 -0.25,3.943c-0.036,0.959 -0.045,1.927 0.031,2.884c0.093,1.177 0.225,2.357 0.45,3.515c0.356,1.826 0.798,3.634 1.214,5.447c0.387,1.69 0.745,3.388 1.198,5.061c0.393,1.457 0.89,2.886 1.361,4.321c0.37,1.128 0.732,2.261 1.17,3.363c0.411,1.036 0.916,2.033 1.377,3.049c0.555,1.229 1.092,2.467 1.667,3.686c0.34,0.724 0.815,1.392 1.094,2.135c0.585,1.562 1.007,3.175 1.726,4.697c0.625,1.324 0.859,2.816 1.688,4.071c0.223,0.339 0.294,0.777 0.44,1.167c0.371,0.991 0.745,1.98 1.118,2.97c0.092,0.022 0.186,0.045 0.278,0.067c0.175,-0.282 0.396,-0.545 0.513,-0.849c0.182,-0.475 0.255,-0.991 0.443,-1.463c0.34,-0.862 0.738,-1.701 1.096,-2.556c0.455,-1.092 0.888,-2.193 1.341,-3.285c0.344,-0.83 0.717,-1.647 1.055,-2.478c0.279,-0.683 0.447,-1.422 0.804,-2.059c0.69,-1.235 1.29,-2.494 1.631,-3.87c0.054,-0.215 0.167,-0.415 0.252,-0.624c0.429,-1.057 0.858,-2.115 1.286,-3.173c0.601,-1.482 1.258,-2.945 1.783,-4.453c0.481,-1.382 1.028,-2.734 1.319,-4.197c0.286,-1.435 0.725,-2.845 0.951,-4.304c0.065,-0.422 0.324,-0.816 0.506,-1.218c0.181,-0.404 0.45,-0.785 0.547,-1.207c0.141,-0.613 0.126,-1.261 0.243,-1.881c0.31,-1.637 0.684,-3.262 0.979,-4.901c0.326,-1.815 0.653,-3.634 0.862,-5.464c0.106,-0.931 -0.054,-1.892 -0.078,-2.84c-0.008,-0.312 0.086,-0.634 0.042,-0.939c-0.24,-1.645 -0.597,-3.258 -1.116,-4.849c-1.058,-3.237 -3.107,-5.708 -5.713,-7.793c-0.025,-0.02 -0.057,-0.032 -0.082,-0.051c-0.651,-0.512 -1.299,-1.025 -1.951,-1.534c-0.119,-0.094 -0.282,-0.261 -0.379,-0.233c-0.709,0.202 -1.161,-0.265 -1.699,-0.693zM256.088,37.46c-0.527,0.873 -0.713,1.838 -0.797,2.825c-0.07,0.829 -0.129,1.666 -0.096,2.496c0.04,1.021 0.133,2.045 0.287,3.056c0.227,1.488 0.472,2.979 0.815,4.442c0.292,1.24 0.769,2.435 1.103,3.666c0.309,1.14 0.46,2.32 0.984,3.4c0.165,0.342 0.255,0.72 0.369,1.084c0.475,1.512 0.945,3.025 1.417,4.538c0.288,-0.396 0.363,-0.833 0.55,-1.216c0.359,-0.735 0.505,-1.543 1.055,-2.231c0.377,-0.472 0.359,-1.265 0.5,-1.918c0.136,-0.623 0.178,-1.278 0.391,-1.872c0.324,-0.899 0.761,-1.758 1.148,-2.634c0.064,-0.146 0.149,-0.287 0.187,-0.439c0.35,-1.387 0.694,-2.776 1.034,-4.166c0.29,-1.183 0.602,-2.361 0.846,-3.553c0.108,-0.529 0.001,-1.102 0.117,-1.628c0.343,-1.551 0.049,-2.996 -0.485,-4.461c-0.392,-1.079 -1.186,-1.821 -1.854,-2.733c-0.064,0.133 -0.123,0.212 -0.142,0.3c-0.414,1.978 -0.831,3.955 -1.232,5.937c-0.157,0.783 -0.249,1.581 -0.418,2.362c-0.179,0.83 -0.732,1.005 -1.409,0.476c-0.315,-0.245 -0.483,-0.537 -0.536,-0.971c-0.1,-0.822 -0.311,-1.632 -0.496,-2.442c-0.225,-0.981 -0.481,-1.955 -0.702,-2.937c-0.169,-0.745 -0.306,-1.497 -0.457,-2.248c-1.138,-0.204 -1.696,0.066 -2.179,0.867zM266.006,-1.06699c0.201,-1.608 0.528,-3.201 0.792,-4.801c0.047,-0.282 0.066,-0.572 0.071,-0.859c0.02,-1.003 0.031,-2.007 0.039,-3.011c0.005,-0.606 0.022,-1.213 -0.009,-1.818c-0.083,-1.681 0.198,-3.409 -0.669,-4.992c-0.114,-0.21 -0.089,-0.501 -0.114,-0.756c-0.117,-1.234 -0.544,-2.326 -1.273,-3.354c-0.759,-1.071 -1.77,-1.731 -2.958,-2.238c-0.245,0.06 -0.529,0.111 -0.803,0.198c-1.399,0.443 -2.617,1.149 -3.184,2.579c-0.342,0.861 -0.685,1.768 -0.766,2.678c-0.186,2.1 -0.599,4.172 -0.596,6.304c0.005,3.242 0.123,6.475 0.344,9.706c0.087,1.275 0.354,2.54 0.423,3.816c0.143,2.621 0.2,5.247 0.308,7.87c0.109,2.633 0.228,5.266 0.358,7.898c0.101,2.055 0.189,4.111 0.351,6.161c0.11,1.404 0.335,2.799 0.513,4.197c0.255,2 0.456,4.009 0.79,5.995c0.305,1.811 0.756,3.598 1.178,5.558c0.468,-0.541 0.461,-1.052 0.505,-1.546c0.034,-0.38 0.04,-0.768 0.124,-1.138c0.126,-0.561 0.364,-1.101 0.457,-1.665c0.146,-0.883 0.201,-1.78 0.312,-2.668c0.122,-0.983 0.14,-2.002 0.421,-2.939c0.502,-1.669 0.466,-3.406 0.821,-5.091c0.241,-1.144 0.29,-2.33 0.412,-3.498c0.04,-0.378 0.011,-0.765 0.067,-1.14c0.163,-1.096 0.404,-2.182 0.521,-3.282c0.141,-1.323 0.132,-2.651 0.379,-3.979c0.291,-1.559 0.293,-3.171 0.416,-4.76c0.067,-0.883 0.1,-1.769 0.193,-2.649c0.119,-1.146 0.319,-2.283 0.415,-3.429c0.094,-1.112 0.023,-2.242 0.162,-3.347zM274.212,15.423c-0.001,-1.17 -0.017,-2.342 -0.086,-3.509c-0.066,-1.115 -0.204,-2.225 -0.307,-3.336c-0.091,-0.985 -0.251,-1.971 -0.239,-2.954c0.009,-0.638 -0.088,-1.197 -0.404,-1.802c-1.954,0.256 -3.913,0.514 -5.917,0.777c-0.106,0.598 -0.238,1.129 -0.289,1.668c-0.098,1.01 -0.128,2.026 -0.224,3.036c-0.19,2.009 -0.4,4.016 -0.613,6.023c-0.051,0.463 0.043,0.825 0.512,0.953c0.601,-0.026 1.195,0.008 1.789,0.054c0.414,0.033 0.832,0.146 1.239,0.11c1.021,-0.089 2.037,-0.24 3.054,-0.371c0.382,-0.049 0.777,-0.071 1.14,-0.185c0.154,-0.048 0.345,-0.302 0.345,-0.464zM277.108,1.63001c1.132,-0.083 2.256,-0.23 3.368,-0.412c0.774,-0.127 1.515,-0.489 2.256,-0.784c1.4,-0.557 2.799,-1.121 4.181,-1.722c0.616,-0.268 1.183,-0.646 1.784,-0.951c1.356,-0.688 2.627,-1.501 3.681,-2.604c0.42,-0.44 0.884,-0.706 1.587,-0.676c-0.055,-0.715 -0.09,-1.351 -0.159,-1.985c-0.079,-0.734 -0.221,-1.463 -0.276,-2.199c-0.08,-1.09 -0.111,-2.184 -0.154,-3.276c-0.036,-0.901 -0.015,-1.807 -0.099,-2.703c-0.176,-1.877 -0.408,-3.749 -0.608,-5.624c-0.064,-0.604 -0.064,-1.215 -0.153,-1.814c-0.213,-1.432 -0.445,-2.855 -0.279,-4.314c0.049,-0.43 -0.046,-0.88 -0.099,-1.317c-0.111,-0.926 -0.259,-1.847 -0.354,-2.774c-0.152,-1.495 -0.271,-2.995 -0.41,-4.492c-0.047,-0.505 -0.19,-1.013 -0.154,-1.51c0.082,-1.173 -0.268,-2.232 -0.636,-3.342c-0.2,0.166 -0.312,0.285 -0.447,0.365c-0.51,0.308 -1.073,0.545 -1.534,0.912c-1.328,1.056 -2.726,1.973 -4.365,2.474c-0.122,0.037 -0.254,0.073 -0.356,0.146c-1.211,0.858 -2.553,1.499 -3.94,1.961c-1.838,0.612 -3.645,1.342 -5.573,1.685c-1.537,0.274 -3.058,0.643 -4.591,0.946c-0.464,0.092 -0.945,0.1 -1.417,0.155c-0.541,0.064 -1.081,0.139 -1.622,0.206c-0.542,0.068 -1.084,0.173 -1.628,0.191c-1.113,0.037 -2.229,-0.024 -3.339,0.046c-3.312,0.208 -6.624,0.24 -9.93,0.016c-1.655,-0.112 -3.297,-0.444 -4.939,-0.71c-2.185,-0.355 -4.367,-0.729 -6.545,-1.12c-1.231,-0.222 -2.476,-0.366 -3.634,-0.928c-0.682,-0.332 -1.438,-0.576 -2.187,-0.698c-2.162,-0.351 -4.207,-1.022 -6.144,-2.026c-0.368,-0.191 -0.675,-0.514 -1.055,-0.656c-0.945,-0.355 -1.537,-1.126 -2.363,-1.84c-0.091,0.592 -0.206,1.093 -0.238,1.6c-0.148,2.34 -0.28,4.682 -0.4,7.025c-0.026,0.513 0.052,1.031 0.032,1.544c-0.098,2.594 -0.246,5.187 -0.306,7.782c-0.023,1.046 0.154,2.094 0.204,3.143c0.118,2.429 0.187,4.859 0.328,7.286c0.09,1.573 0.224,3.148 0.439,4.708c0.074,0.535 0.35,1.121 0.713,1.523c0.618,0.685 1.357,1.267 2.08,1.848c1.101,0.884 2.288,1.625 3.62,2.137c1.673,0.642 3.327,1.334 4.991,1.998c0.146,0.059 0.313,0.067 0.47,0.096c1.262,0.234 2.523,0.469 3.785,0.702c0.189,0.034 0.378,0.066 0.568,0.095c1.202,0.184 2.406,0.36 3.606,0.552c0.666,0.106 1.323,0.262 1.991,0.351c1.008,0.135 2.021,0.231 3.032,0.344c0.859,0.095 1.714,0.236 2.575,0.274c0.858,0.038 1.725,-0.157 2.564,0.231c0.179,0.084 0.475,-0.08 0.763,-0.14c-0.027,-0.469 -0.027,-0.887 -0.083,-1.298c-0.115,-0.854 -0.335,-1.699 -0.378,-2.554c-0.144,-2.863 -0.252,-5.728 -0.328,-8.593c-0.042,-1.568 -0.022,-3.139 0.03,-4.707c0.025,-0.763 0.178,-1.524 0.291,-2.284c0.074,-0.501 0.205,-0.996 0.267,-1.499c0.135,-1.094 0.62,-2.076 0.942,-3.11c0.719,-2.304 2.319,-3.542 4.662,-3.913c0.308,-0.049 0.61,-0.137 0.748,-0.168c0.387,0.221 0.633,0.416 0.914,0.51c2.491,0.841 3.862,2.645 4.46,5.12c0.12,0.497 0.076,1.095 0.344,1.482c0.305,0.439 0.358,0.863 0.387,1.334c0.054,0.864 0.108,1.729 0.148,2.595c0.134,2.956 0.173,5.9 -0.283,8.849c-0.332,2.15 -0.411,4.338 -0.593,6.51c-0.029,0.347 -0.004,0.698 -0.004,1.041c0.194,0.057 0.321,0.133 0.438,0.121c1.815,-0.199 3.631,-0.395 5.443,-0.622c1.306,-0.163 2.6,-0.445 3.911,-0.539zM284.729,1.363c-1.618,0.554 -3.052,1.307 -4.664,1.511c-1.617,0.206 -3.222,0.497 -4.863,0.757c-0.045,3.997 0.888,7.834 0.917,11.887c3.126,-0.691 6.184,-1.414 9.176,-2.377c0.226,-3.931 -0.217,-7.786 -0.566,-11.778zM294.625,4.161c-0.064,-0.131 -0.012,-0.318 -0.019,-0.479c-0.061,-1.217 -0.129,-2.434 -0.18,-3.651c-0.024,-0.572 -0.012,-1.145 -0.028,-1.717c-0.02,-0.721 -0.052,-1.443 -0.088,-2.397c-1.164,0.832 -2.103,1.483 -3.019,2.162c-1.163,0.862 -2.387,1.623 -3.71,2.206c-1.079,0.475 -1.159,0.445 -1.086,1.606c0.197,3.074 0.45,6.143 0.688,9.214c0.026,0.335 0.104,0.665 0.158,0.999c1.563,-0.49 2.787,-1.435 4.13,-2.161c1.432,-0.774 2.256,-2.125 3.345,-3.162c0.172,-0.897 0.226,-1.776 -0.191,-2.62zM317.894,-14.04999c-0.152,-1.11 -0.382,-2.211 -0.635,-3.303c-0.15,-0.649 -0.348,-1.304 -0.642,-1.899c-0.615,-1.248 -1.302,-2.461 -1.973,-3.682c-0.089,-0.162 -0.231,-0.316 -0.385,-0.416c-1.1,-0.707 -1.959,-1.708 -3.164,-2.319c-0.949,-0.484 -1.869,-1.036 -2.901,-1.266c-1.435,-0.319 -2.826,-0.851 -4.335,-0.863c-1.189,-0.01 -2.378,-0.238 -3.562,-0.203c-1.048,0.03 -2.13,0.164 -3.122,0.482c-1.116,0.358 -2.147,0.975 -3.33,1.533c0.088,0.952 0.179,1.81 0.245,2.669c0.101,1.312 0.159,2.626 0.288,3.935c0.125,1.273 0.363,2.536 0.467,3.81c0.146,1.792 0.163,3.596 0.332,5.384c0.17,1.791 0.543,3.563 0.677,5.354c0.176,2.369 0.212,4.748 0.294,7.123c0.011,0.348 -0.131,0.707 -0.084,1.044c0.164,1.174 0.363,2.344 0.583,3.508c0.079,0.415 0.407,0.584 0.82,0.702c1.265,0.362 2.5,0.858 3.554,1.635c2.063,1.519 3.578,3.481 4.434,5.924c0.519,1.483 1.08,2.95 1.618,4.425c0.473,1.298 0.893,2.607 0.947,4.005c0.009,0.231 0.066,0.461 0.101,0.692c0.066,0.011 0.132,0.022 0.197,0.033c0.486,-1.131 0.979,-2.259 1.456,-3.393c0.543,-1.292 1.045,-2.599 1.61,-3.879c0.863,-1.956 1.832,-3.86 2.574,-5.877c0.474,-1.287 1.018,-2.537 1.312,-3.888c0.196,-0.904 0.622,-1.771 0.732,-2.681c0.226,-1.894 0.924,-3.674 1.174,-5.573c0.225,-1.703 0.63,-3.39 0.861,-5.107c0.357,-2.653 0.217,-5.282 -0.143,-7.909z" fill="#30419a" fill-rule="nonzero"/><path d="M230.733,-33.66c-0.062,0.732 -0.708,0.901 -1.208,1.009c-0.289,0.062 -0.724,-0.309 -1.016,-0.572c-0.291,-0.263 -0.291,-0.949 -0.095,-1.237c0.19,-0.281 0.712,-0.283 1.203,-0.139c0.534,0.156 0.867,0.481 1.116,0.939z" fill="#30419a" fill-rule="evenodd"/><path d="M248.211,-29.986c0.226,1.057 0.117,1.501 -0.401,1.733c-0.517,0.23 -1.174,0.155 -1.417,-0.163c-0.278,-0.364 -0.251,-1.093 0.057,-1.514c0.34,-0.464 0.784,-0.484 1.761,-0.056z" fill="#30419a" fill-rule="evenodd"/><path d="M270.537,-28.762c0.238,-0.536 0.454,-1.019 0.69,-1.551c0.695,0.28 1.471,0.23 1.636,1.094c0.081,0.426 -0.301,1.027 -0.793,1.217c-0.702,0.27 -1.035,-0.29 -1.533,-0.76z" fill="#30419a" fill-rule="evenodd"/><path d="M288.852,-34.643c-0.084,0.258 -0.162,0.465 -0.218,0.678c-0.111,0.426 -0.238,0.772 -0.816,0.714c-0.748,-0.076 -1.001,-0.208 -1.182,-0.745c-0.123,-0.364 -0.181,-0.764 0.197,-0.934c0.378,-0.169 0.835,-0.237 1.251,-0.217c0.236,0.012 0.459,0.29 0.768,0.504z" fill="#30419a" fill-rule="evenodd"/><g><path d="M259.567,-69.49499l3.983,1.197l5,2.797l3.6,4.088l1.2,5.239l-1.2,7.633l-4.9,4.191l-8.4,1.497l-5,-1.896l-5.527,-4.69l-2.123,-5.089v-5.787l1.061,-4.391l3.989,-3.791l8.317,-0.998" fill="#ef463c" fill-rule="evenodd"/><path d="M259.961,-64.10599l2.989,0.698l3.1,2.794l1.9,4.145v3.738l-2,2.395l-5.989,1.397l-5.311,-1.696l-2.7,-4.191v-5.089l2.7,-3.493l5.311,-0.698" fill="#ffffff" fill-rule="evenodd"/><path d="M257.99,-70.59199c1.604,0.25 3.164,0.345 4.634,0.76c1.838,0.518 3.623,1.21 5.18,2.428c1.087,0.851 2.163,1.705 3.169,2.648c0.616,0.578 1.013,1.286 1.419,2.031c0.793,1.459 1.273,2.993 1.637,4.593c0.183,0.798 0.208,1.568 0.139,2.38c-0.084,0.99 0.005,1.992 -0.006,2.989c-0.018,1.738 -0.468,3.403 -1.288,4.899c-0.822,1.497 -2.053,2.696 -3.582,3.535c-0.88,0.483 -1.736,1.024 -2.654,1.416c-0.99,0.421 -1.991,0.823 -3.116,0.873c-1.084,0.047 -2.16,0.277 -3.239,0.425c-0.159,0.022 -0.33,0.08 -0.476,0.045c-1.723,-0.424 -3.584,-0.557 -5.048,-1.618c-1.05,-0.761 -2.301,-1.148 -3.281,-1.972c-1.224,-1.029 -2.449,-2.064 -3.303,-3.458c-0.482,-0.788 -0.995,-1.567 -1.576,-2.283c-0.898,-1.106 -1.2,-2.45 -1.652,-3.739c-0.02,-0.057 -0.02,-0.13 -0.005,-0.189c0.311,-1.238 -0.096,-2.492 0.069,-3.723c0.149,-1.104 0.402,-2.197 0.665,-3.282c0.249,-1.025 0.616,-2.023 0.841,-3.052c0.121,-0.551 0.346,-0.983 0.705,-1.404c0.372,-0.436 0.602,-0.998 0.994,-1.411c0.82,-0.86 1.768,-1.672 2.95,-1.834c0.862,-0.118 1.668,-0.41 2.518,-0.521c1.457,-0.191 2.915,-0.363 4.306,-0.536zM272.51,-54.63599c0.182,-1.948 -0.247,-3.826 -0.818,-5.624c-0.393,-1.243 -0.969,-2.513 -2.096,-3.364c-0.204,-0.154 -0.474,-0.234 -0.648,-0.412c-0.987,-1.007 -2.062,-1.886 -3.368,-2.46c-0.872,-0.383 -1.68,-0.886 -2.668,-1.02c-1.07,-0.144 -2.117,-0.453 -3.18,-0.662c-0.469,-0.093 -0.957,-0.189 -1.429,-0.162c-1.847,0.108 -3.663,0.577 -5.531,0.465c-0.112,-0.007 -0.232,0.085 -0.346,0.136c-0.32,0.141 -0.633,0.299 -0.958,0.426c-1.659,0.646 -2.961,1.629 -3.373,3.48c-0.062,0.279 -0.178,0.545 -0.248,0.823c-0.255,1.017 -0.479,2.042 -0.757,3.053c-0.271,0.991 -0.296,2.008 -0.43,3.014c-0.144,1.084 -0.103,2.121 0.323,3.097c0.511,1.172 1.074,2.333 1.747,3.417c0.481,0.774 1.119,1.482 1.801,2.093c0.803,0.72 1.715,1.322 2.602,1.944c1.392,0.975 2.797,1.933 4.56,2.13c0.216,0.024 0.414,0.179 0.631,0.236c0.3,0.08 0.61,0.178 0.915,0.172c0.602,-0.013 1.211,-0.177 1.804,-0.126c1.689,0.145 3.224,-0.387 4.701,-1.06c1.094,-0.498 2.138,-1.13 3.137,-1.801c0.928,-0.624 2.046,-1.116 2.313,-2.396c0.005,-0.027 0.043,-0.046 0.064,-0.071c0.553,-0.622 0.803,-1.359 0.881,-2.18c0.1,-1.052 0.245,-2.099 0.371,-3.148z" fill="#30419a" fill-rule="nonzero"/><path d="M261.03,-47.43499c-1.54,-0.096 -2.756,-0.184 -3.869,-0.778c-0.141,-0.075 -0.294,-0.154 -0.45,-0.174c-1.136,-0.148 -2.124,-0.77 -2.813,-1.524c-1.003,-1.098 -2.292,-1.976 -2.71,-3.627c-0.441,-1.741 -0.605,-3.404 -0.303,-5.178c0.245,-1.442 0.674,-2.779 1.372,-4.051c0.367,-0.669 0.834,-1.19 1.595,-1.422c0.303,-0.092 0.569,-0.298 0.859,-0.436c0.23,-0.111 0.474,-0.29 0.706,-0.281c0.766,0.032 1.446,-0.262 2.153,-0.464c0.212,-0.061 0.436,-0.106 0.656,-0.118c1.892,-0.106 3.608,0.448 5.196,1.434c0.653,0.405 1.271,0.864 1.907,1.298c1.263,0.861 2.056,2.098 2.717,3.43c0.693,1.397 1.141,2.872 1.145,4.44c0.004,1.656 -0.482,3.155 -1.615,4.407c-0.276,0.305 -0.535,0.625 -0.819,0.922c-0.776,0.812 -1.682,1.374 -2.838,1.48c-0.349,0.033 -0.689,0.16 -1.035,0.237c-0.713,0.157 -1.427,0.311 -1.854,0.405zM267.487,-54.82199c-0.076,-0.822 -0.016,-1.596 -0.244,-2.273c-0.261,-0.772 -0.737,-1.484 -1.195,-2.171c-0.386,-0.581 -0.815,-1.168 -1.345,-1.609c-0.633,-0.525 -1.37,-0.94 -2.101,-1.33c-1.254,-0.668 -2.563,-1.181 -4.035,-0.984c-0.603,0.081 -1.238,0.077 -1.797,0.278c-0.365,0.13 -0.689,0.26 -1.088,0.276c-0.667,0.025 -1.211,0.345 -1.666,0.846c-0.933,1.025 -1.376,2.256 -1.613,3.591c-0.24,1.351 -0.108,2.667 0.37,3.941c0.676,1.798 2.054,2.948 3.743,3.706c0.92,0.413 1.936,0.615 2.912,0.899c0.114,0.033 0.256,-0.042 0.379,-0.026c0.846,0.115 1.626,-0.163 2.438,-0.328c1.396,-0.285 2.665,-0.681 3.754,-1.709c0.962,-0.909 1.362,-1.961 1.488,-3.107z" fill="#30419a" fill-rule="nonzero"/></g></g><g stroke="none" stroke-width="1" stroke-linecap="butt"><g><path d="M236.076,41.365l-0.337,10.34l0.563,2.957l0.975,1.609l1.087,1.46l0.863,2.132l0.637,2.732l-0.563,3.517l-0.675,1.011l-1.913,0.748l0.788,0.486l1.087,1.647l0.337,2.844l-0.75,3.555l-2.625,2.881h-4.013l-3.037,-0.936l-3,-2.132l-3.45,0.785l-3.375,-0.935l-2.513,-2.507c0,0 0,-3.816 0,-3.929c0,-0.112 2.663,-4.453 2.663,-4.453l6.037,-5.314l3.713,-5.5l1.875,-3.618l1.7,-3.891l3.1,-5.089z" fill="#ffffff" fill-rule="evenodd"/><path d="M225.056,77.161c-1.04,0.93 -2.3,0.809 -3.487,0.513c-1.308,-0.325 -2.594,-0.799 -3.825,-1.352c-2.086,-0.935 -3.234,-3.542 -2.689,-5.764c0.576,-2.353 1.735,-4.366 3.475,-6.04c0.86,-0.826 1.767,-1.605 2.676,-2.379c2.239,-1.906 4.353,-3.884 5.882,-6.472c1.351,-2.287 2.516,-4.637 3.507,-7.092c0.553,-1.373 1.129,-2.752 1.86,-4.034c0.823,-1.443 1.477,-2.966 2.292,-4.409c0.219,-0.386 0.351,-0.823 0.529,-1.234c0.076,-0.176 0.143,-0.364 0.258,-0.513c0.228,-0.296 0.515,-0.498 0.919,-0.345c0.375,0.142 0.592,0.432 0.553,0.82c-0.138,1.402 -0.305,2.8 -0.465,4.2c-0.095,0.829 -0.254,1.655 -0.282,2.486c-0.047,1.418 0.049,2.842 -0.028,4.258c-0.106,1.943 0.744,3.641 1.264,5.424c0.084,0.286 0.369,0.52 0.579,0.762c0.981,1.128 1.888,2.308 2.275,3.781c0.187,0.709 0.321,1.45 0.34,2.181c0.029,1.092 -0.034,2.19 -0.111,3.281c-0.1,1.416 -0.739,2.456 -2.188,2.806c-0.012,0.108 -0.049,0.193 -0.023,0.222c0.98,1.06 1.337,2.321 1.271,3.739c-0.033,0.708 -0.004,1.419 -0.009,2.129c-0.021,2.673 -1.377,4.567 -3.543,5.96c-0.756,0.487 -1.642,0.607 -2.519,0.554c-2.088,-0.126 -4.091,-0.63 -5.913,-1.671c-0.888,-0.507 -1.687,-1.169 -2.598,-1.811zM234.691,44.75401c-0.477,0.827 -0.834,1.457 -1.201,2.081c-1.342,2.277 -2.727,4.53 -4.019,6.835c-1.273,2.274 -2.287,4.707 -4.051,6.675c-0.836,0.932 -1.742,1.807 -2.668,2.649c-1.024,0.932 -2.155,1.748 -3.155,2.703c-1.325,1.265 -2.252,2.782 -2.82,4.556c-0.457,1.423 -0.382,2.672 0.637,3.781c0.361,0.392 0.795,0.78 1.275,0.989c0.972,0.426 1.992,0.747 3.004,1.073c0.362,0.116 0.759,0.156 1.142,0.165c1.124,0.028 1.868,-0.666 1.967,-1.798c0.022,-0.256 -0.003,-0.52 0.049,-0.769c0.087,-0.406 0.486,-0.714 0.839,-0.654c0.384,0.064 0.659,0.289 0.7,0.694c0.035,0.352 0.074,0.717 0.016,1.061c-0.182,1.078 0.322,1.783 1.178,2.323c0.191,0.12 0.378,0.247 0.576,0.356c1.343,0.731 2.755,1.301 4.278,1.461c0.851,0.088 1.836,0.201 2.566,-0.127c1.667,-0.75 2.787,-2.117 2.983,-3.999c0.126,-1.212 0.066,-2.449 0.031,-3.673c-0.024,-0.814 -0.393,-1.49 -1.093,-1.948c-0.459,-0.299 -0.914,-0.61 -1.399,-0.859c-0.407,-0.209 -0.739,-0.436 -0.647,-0.943c0.094,-0.52 0.492,-0.6 0.949,-0.626c0.644,-0.036 1.29,-0.086 1.925,-0.194c0.83,-0.142 1.153,-0.429 1.215,-1.269c0.099,-1.346 0.201,-2.71 0.086,-4.048c-0.072,-0.833 -0.457,-1.677 -0.86,-2.431c-0.375,-0.7 -0.97,-1.28 -1.448,-1.928c-0.285,-0.387 -0.631,-0.768 -0.778,-1.209c-0.708,-2.136 -1.497,-4.25 -1.297,-6.586c0.116,-1.361 0.02,-2.744 0.02,-4.341z" fill="#30419a" fill-rule="nonzero"/></g><g><path d="M286.737,28.693l4.276,3.966l5.024,4.94l4.35,2.058l4.688,0.299l3.488,0.674l2.062,1.384l1.462,1.871l0.3,1.909l-0.862,3.33l-2.925,0.524l0.675,2.582l-0.15,3.255l-3.45,1.609l-4.575,-0.673l-1.8,-1.684l-1.2,2.881l-2.55,1.347l-4.387,0.824l-2.926,-1.871l-1.312,-4.229v-6.137l1.838,-4.266l0.374,-2.469l-0.074,-2.582l-0.6,-3.405l-2.176,-5.575l0.45,-0.562" fill="#ffffff" fill-rule="evenodd"/><path d="M310.066,50.61801c0.104,0.993 0.221,2.041 0.319,3.091c0.098,1.053 -0.466,1.921 -0.85,2.833c-0.067,0.162 -0.33,0.272 -0.526,0.346c-0.359,0.138 -0.774,0.163 -1.095,0.353c-1.047,0.619 -2.25,0.845 -3.36,0.732c-1.646,-0.168 -3.488,0.024 -4.781,-1.599c-0.225,0.391 -0.409,0.679 -0.562,0.982c-0.474,0.939 -1.19,1.578 -2.207,1.903c-1.565,0.5 -3.103,1.056 -4.771,1.192c-1.972,0.163 -3.351,-0.583 -4.535,-2.168c-1.368,-1.833 -1.667,-3.868 -1.717,-6.017c-0.03,-1.257 -0.072,-2.52 0.012,-3.772c0.051,-0.788 0.25,-1.588 0.516,-2.336c0.367,-1.03 0.84,-2.024 1.305,-3.016c0.724,-1.549 0.764,-3.187 0.608,-4.828c-0.107,-1.119 -0.367,-2.224 -0.589,-3.329c-0.076,-0.375 -0.213,-0.746 -0.378,-1.093c-0.975,-2.062 -1.966,-4.119 -2.955,-6.175c-0.166,-0.346 -0.214,-0.689 0.053,-0.994c0.3,-0.344 0.697,-0.321 1.069,-0.156c0.586,0.262 1.155,0.562 1.729,0.849c0.057,0.028 0.114,0.068 0.152,0.117c1.648,2.099 3.694,3.841 5.346,5.935c1.011,1.28 2.264,2.284 3.58,3.226c0.313,0.223 0.635,0.461 0.874,0.756c0.922,1.135 2.122,1.603 3.556,1.634c1.743,0.038 3.49,0.061 5.226,0.203c2.504,0.203 4.668,1.132 6.291,3.154c0.621,0.775 0.893,1.63 0.929,2.583c0.026,0.709 -0.011,1.42 0.012,2.129c0.022,0.688 -0.222,1.263 -0.681,1.754c-0.309,0.329 -0.604,0.695 -0.976,0.936c-0.468,0.303 -1.007,0.497 -1.594,0.775zM309.01,48.31c0.272,0.613 0.81,0.565 1.32,0.473c0.566,-0.102 1.416,-1.174 1.438,-1.785c0.021,-0.611 0.019,-1.226 -0.013,-1.838c-0.039,-0.76 -0.3,-1.426 -0.834,-2.007c-1.442,-1.567 -3.277,-2.234 -5.34,-2.352c-1.675,-0.095 -3.354,-0.114 -5.031,-0.169c-1.734,-0.056 -3.193,-0.694 -4.331,-2.024c-0.166,-0.194 -0.347,-0.39 -0.559,-0.53c-1.68,-1.119 -3.134,-2.471 -4.397,-4.049c-0.745,-0.93 -1.589,-1.783 -2.424,-2.636c-0.415,-0.426 -0.912,-0.772 -1.301,-1.096c0.004,0.013 0.04,0.159 0.097,0.297c0.233,0.566 0.54,1.11 0.695,1.696c0.475,1.8 0.921,3.605 1.432,5.397c0.566,1.984 0.46,4.084 -0.482,6.042c-0.488,1.017 -0.944,2.053 -1.352,3.104c-0.195,0.501 -0.326,1.055 -0.344,1.59c-0.045,1.353 -0.011,2.709 -0.009,4.066c0.002,1.88 0.36,3.625 1.615,5.14c0.667,0.805 1.362,1.282 2.45,1.275c1.523,-0.009 2.898,-0.566 4.332,-0.933c1.257,-0.321 1.914,-1.139 2.245,-2.287c0.158,-0.55 0.197,-1.136 0.275,-1.709c0.031,-0.223 0.006,-0.452 0.035,-0.675c0.058,-0.445 0.319,-0.71 0.774,-0.708c0.45,0.002 0.711,0.274 0.788,0.707c0.035,0.188 0.008,0.387 0.035,0.578c0.158,1.085 1.361,2.248 2.441,2.282c1.324,0.042 2.661,0.118 3.975,-0.006c1.468,-0.139 1.902,-0.539 1.909,-2.001c0.003,-0.581 -0.031,-1.164 0.009,-1.742c0.056,-0.796 -0.113,-1.398 -0.868,-1.866c-0.798,-0.495 -0.675,-1.171 0.187,-1.605c0.374,-0.187 0.744,-0.379 1.233,-0.629z" fill="#30419a" fill-rule="nonzero"/></g><g fill="none" fill-rule="nonzero" font-family="sans-serif" font-weight="normal" font-size="12" text-anchor="start"/><g><path d="M197.95,86.46801l0.813,0.898v1.696l-1.774,0.998l-1.539,-0.399v-2.095l1.1,-1.098h1.4" fill="#ffffff" fill-rule="evenodd"/><path d="M196.775,86.00801c2.06,0 3.298,1.929 2.53,3.706c-0.113,0.263 -0.227,0.528 -0.362,0.78c-0.34,0.637 -0.822,1.057 -1.601,1.036c-0.641,-0.017 -1.277,0.037 -1.835,-0.415c-0.972,-0.787 -1.339,-2.22 -0.844,-3.487c0.023,-0.059 0.059,-0.115 0.079,-0.176c0.357,-1.041 1.011,-1.632 2.033,-1.444zM196.476,87.68201c-0.406,0.744 -0.544,1.502 -0.311,1.834c0.305,0.436 0.738,0.429 1.179,0.305c0.441,-0.69 0.753,-1.364 0.08,-2.139c-0.292,0 -0.631,0 -0.948,0z" fill="#30419a" fill-rule="nonzero"/></g></g></g></g></svg>