<svg version="1.1" xmlns="http://www.w3.org/2000/svg" xmlns:xlink="http://www.w3.org/1999/xlink" width="349.74115" height="280" viewBox="0,0,349.74115,280"><g transform="translate(-63,-40.5)"><g data-paper-data="{&quot;isPaintingLayer&quot;:true}" fill="none" fill-rule="nonzero" stroke="#000000" stroke-width="5" stroke-linecap="round" stroke-linejoin="miter" stroke-miterlimit="10" stroke-dasharray="" stroke-dashoffset="0" style="mix-blend-mode: normal"><path d="M370.5,205h-28v-81h29l26,-1h8"/><path d="M396.5,205h12"/><path d="M66.24115,318v-275h344v275z"/><path d="M70.83334,111v96"/><path d="M71.16666,117.66667h18.33334"/><path d="M109.83333,117.66667h18.33333v25.33334"/><path d="M72.5,193.66667h17"/><path d="M128.16667,169.33333v24.33334h-18.33333" data-paper-data="{&quot;index&quot;:null}"/><path d="M142.5,224v20h-26"/><path d="M133.5,287v-12l13.76377,0.52938"/><path d="M197.43496,276h7.06504l-0.53022,9.01382"/><path d="M133.5,308v8"/><path d="M203.5,309v6"/><path d="M270.5,298v18"/><path d="M269.5,278l-1,-14h6.76229"/><path d="M309.70063,264h6.79937v31"/><path d="M69.5,240h14"/><path d="M279.775,190.33317v26.66683h-25.69645"/><path d="M223.25478,217h-23.02978v-28.00753"/><path d="M200.225,165.8578v-21.9328l17.02752,-0.198"/><path d="M254.12582,143.29824l25.64918,-0.29824v21.35921"/><path d="M171.5,206.54838v-22.54838"/><path d="M65.5,74h7h7v15h-11"/><path d="M112.5,45l35,1"/><path d="M211.5,76l-10,15l-1,14h-21v13h-14"/><path d="M249.37956,75.38607l-8.87956,-0.38607v-6.02187"/><path d="M298.5,45v10v19h-7.06504"/><path d="M385.5,66l-1,11l-10,-1v-11z"/><path d="M344.5,261h25v31"/><path d="M303.5,161h16"/><path d="M312.5,164v16"/><path d="M312.5,227v11h-11"/><path d="M235.5,241v16"/><path d="M257.5,102h12"/><path d="M176.5,47h35l0.54629,5.46292"/></g></g></svg>