<svg version="1.1" xmlns="http://www.w3.org/2000/svg" xmlns:xlink="http://www.w3.org/1999/xlink" width="151.84621" height="156.47508" viewBox="0,0,151.84621,156.47508"><g transform="translate(-164.0769,-89.25)"><g data-paper-data="{&quot;isPaintingLayer&quot;:true}" fill-rule="nonzero" stroke-linecap="butt" stroke-linejoin="miter" stroke-miterlimit="10" stroke-dasharray="" stroke-dashoffset="0" style="mix-blend-mode: normal"><path d="M241.5769,114.2749c27.3381,0 49.5,18.58018 49.5,41.5c0,22.91982 -22.1619,41.5 -49.5,41.5c-27.33809,0 -49.5,-18.58019 -49.5,-41.5c0,-22.91981 22.16191,-41.5 49.5,-41.5z" data-paper-data="{&quot;index&quot;:null}" fill="#00ff84" stroke="none" stroke-width="0"/><path d="M191.0769,137.2749c14.91169,0 27,10.52131 27,23.5c0,12.97869 -12.08831,23.5 -27,23.5c-14.91169,0 -27,-10.52131 -27,-23.5c0,-12.97869 12.08831,-23.5 27,-23.5z" data-paper-data="{&quot;index&quot;:null}" fill="#00ff84" stroke="none" stroke-width="0"/><path d="M221.04311,128.94156c4.85114,0 8.78378,3.73097 8.78378,8.33334c0,4.60238 -3.93263,8.33334 -8.78378,8.33334c-4.85114,0 -8.78378,-3.73097 -8.78378,-8.33334c0,-4.60238 3.93263,-8.33334 8.78378,-8.33334z" data-paper-data="{&quot;index&quot;:null}" fill="#000000" stroke="#000000" stroke-width="0.5"/><path d="M244.49357,203.35823c-2.07107,0 -3.75,-1.67893 -3.75,-3.75c0,-2.07107 1.67893,-3.75 3.75,-3.75c2.07107,0 3.75,1.67893 3.75,3.75c0,2.07107 -1.67893,3.75 -3.75,3.75z" data-paper-data="{&quot;index&quot;:null}" fill="#00e4d9" stroke="none" stroke-width="0.5"/><path d="M253.8269,222.19151c0.02241,0 0.04467,0.00013 0.06681,0.0004c0.55067,-0.88164 1.11474,-1.75822 1.69983,-2.62786c1.78149,-1.7949 3.56137,-3.74233 5.38816,-5.61133l-0.23813,-2.01121c0,0 0,-3.75 3.75,-3.75c0.92656,0 1.62419,0.22894 2.14944,0.57368c4.63178,-3.79951 10.76624,-8.16776 16.33183,-9.47559c2.88293,-0.67744 6.26609,-1.18918 9.21205,-1.70973c4.38513,-0.77485 9.55426,-1.68545 13.57673,0.81714c2.79661,1.73992 5.26617,4.83309 6.93431,7.59653c0.92373,1.53025 1.8238,3.10837 2.36901,4.81063c1.0504,3.27956 0.83482,6.1407 0.8433,9.47069c-0.20192,9.43333 -5.59672,14.33378 -13.35567,18.32832c-6.1766,3.1799 -12.61061,4.09697 -19.46031,5.03993c-1.89931,0.26147 -3.62895,1.28524 -5.51335,1.63851c-3.29366,0.61747 -6.75374,0.40992 -10.08733,0.40992c-7.21555,0 -13.56616,0.18729 -20.51429,-1.82008c-0.16039,-0.16265 -0.32731,-0.32034 -0.49804,-0.47514c-0.56638,0.1677 -1.14925,0.22612 -1.75,0.13159c-1.89303,-0.29786 -2.71708,-1.95369 -3.07108,-3.83626c-7.61107,0.00912 -15.22221,-0.0001 -22.83326,-0.0001c-3.96093,0 -8.86353,0.55957 -12.754,-0.07658c-5.81743,-0.95123 -12.38442,-6.77011 -13.58609,-12.58609c-0.70961,-3.43445 -0.12805,-8.46944 0.28415,-11.87316c0.27798,-2.29546 1.01935,-6.75179 2.16983,-8.80379c0.27519,-0.49084 4.10233,-4.25746 4.71848,-4.87128c3.02907,-2.42562 6.43941,-5.72054 10.41363,-6.54585c3.62511,-0.75281 7.55113,0.33202 10.93985,1.44919c8.99079,2.96403 15.39868,7.77274 19.2748,16.77981c0.53314,1.23888 0.90042,2.53943 1.25355,3.84539c-0.02402,-1.18503 -0.06417,-2.36787 -0.12621,-3.5475c-0.13206,-2.51134 -1.00949,-4.93281 -1.3139,-7.42913c-0.03194,-0.26189 -0.02409,-7.77481 -0.02409,-8.091c0,0 0,-3.75 3.75,-3.75c3.75,0 3.75,3.75 3.75,3.75c0,2.41412 -0.33192,4.84791 -0.02409,7.24233c0.34084,2.65122 1.19805,5.23564 1.35276,7.9042c0.28476,4.91165 0.00466,9.9332 0.00466,14.85347c0,0.85755 0.00168,1.7151 0.00309,2.57265c0.59515,-0.98515 1.17794,-1.97126 1.7585,-2.95582l-0.59493,-1.61683c0,0 0,-3.75 3.75,-3.75zM273.94036,238.08542c-0.01738,0.04055 -0.03503,0.08041 -0.05294,0.1196c0.74283,-0.04831 1.47477,-0.13208 2.18548,-0.27021c1.98346,-0.3855 3.82104,-1.39991 5.81998,-1.69483c1.441,-0.2126 2.84595,-0.47198 4.24245,-0.74356c-0.62335,-0.26059 -1.2414,-0.53007 -1.85375,-0.80473c-3.30255,-1.48129 -6.70593,-2.98848 -9.90443,-4.8138c-1.61399,0.75362 -3.2383,1.48542 -4.87098,2.19829c0.8265,0.37839 1.65038,0.7395 2.46459,1.08526c0,0 3.4468,1.4772 1.9696,4.92399zM264.36587,221.38616c-0.99382,0.97256 -1.98218,1.95303 -2.97227,2.93285c-0.49788,0.75572 -0.97849,1.51944 -1.4484,2.28825c0.39411,0.29289 0.79554,0.57862 1.2032,0.8575c2.07942,-0.84988 4.14862,-1.72548 6.20345,-2.63318c-0.73218,-0.68346 -1.43126,-1.40766 -2.09105,-2.1785c-0.27334,-0.31936 -0.57689,-0.75697 -0.89493,-1.26692zM255.11268,237.90036c3.26439,0.27848 6.50136,0.29791 9.83574,0.29443c-1.51592,-0.73702 -3.02147,-1.52448 -4.49215,-2.37182c-1.75929,0.69356 -3.52399,1.37175 -5.29176,2.03801c-0.01667,0.01284 -0.03395,0.02598 -0.05183,0.03937zM299.73256,232.11521c3.7944,-1.98326 7.25023,-4.80456 8.33473,-8.77639c-0.52412,0.02728 -0.89209,-0.03766 -0.89209,-0.03766c-4.99985,-0.90806 -9.03052,-2.37016 -12.94349,-4.55057c-3.4848,2.26107 -6.97691,4.51531 -10.6206,6.48931c-0.31041,0.16817 -0.62138,0.33526 -0.93288,0.5013c1.58515,0.73203 3.17067,1.42139 4.69399,2.11689c3.09198,1.4117 6.34973,2.8018 9.74229,3.01118c0,0 1.59158,0.12242 2.61805,1.24594zM271.05967,217.89669c1.11041,1.30281 2.38616,2.43549 3.76705,3.44493c1.75436,-0.86775 3.49393,-1.76582 5.21597,-2.69842c2.55883,-1.38578 5.04352,-2.89998 7.50249,-4.4567l-1.64086,-2.71776c0,0 -1.86052,-3.25591 1.39539,-5.11643c0.18917,-0.10809 0.37362,-0.19892 0.55327,-0.27411c-1.75959,0.24809 -3.52378,0.49644 -5.09901,1.25784c-4.76788,2.30458 -8.90143,5.38265 -12.77389,8.7906c0.43568,0.80499 0.83156,1.47907 1.07959,1.77007zM294.08757,209.98709c2.68104,-1.71076 5.38289,-3.38088 8.16887,-4.89802c-0.12036,-0.09283 -0.24243,-0.1828 -0.36625,-0.26966c-2.54144,-1.78281 -8.51892,0.14051 -11.20172,0.77184c-0.34194,0.08047 -0.68835,0.14963 -1.03764,0.21168c1.78417,0.22777 2.76532,1.94478 2.76532,1.94478l0.87039,1.69149c0.26882,0.18677 0.5357,0.36938 0.80103,0.54789zM301.63961,214.05532c2.07297,0.81083 4.26647,1.41615 6.75013,1.84474c-0.06231,-0.99635 -0.19654,-1.96686 -0.46954,-2.82114c-0.22598,-0.70714 -0.55934,-1.37482 -0.9297,-2.02309c-1.81839,0.93224 -3.59619,1.94311 -5.35089,2.99949zM228.21065,232.18936c2.49423,-0.00075 4.98846,-0.00132 7.48269,-0.0009c-1.00111,-0.80307 -1.94236,-1.54382 -2.74867,-2.00348c-0.61589,-0.3511 -1.22986,-0.70646 -1.84245,-1.06491c-0.82157,1.0449 -1.75638,2.04024 -2.80593,2.97699zM226.98234,209.59161c0,0 -0.44238,-1.17967 -0.13053,-2.42788c-1.82585,-1.27618 -3.88374,-2.14306 -6.00945,-2.9056c1.79473,3.63123 3.22104,7.91145 3.444,12.06143c1.2314,0.69419 2.46629,1.4006 3.69916,2.11776c0.50383,-2.8438 0.14489,-5.89322 -1.00319,-8.84571zM223.35753,226.45274c0.45217,-0.38504 0.87158,-0.78845 1.2587,-1.20826c-0.57718,-0.34614 -1.15481,-0.69131 -1.73335,-1.03451c-0.7561,1.56777 -1.8403,3.01446 -3.31983,4.27733c-2.50759,2.14038 -5.92832,3.05851 -9.12617,3.95962c2.7953,0.03187 5.78252,-0.25536 8.39003,-0.25536c1.31577,0 2.63155,-0.00022 3.94733,-0.00055c-2.53826,-2.62849 0.06768,-5.23443 0.06768,-5.23443l0.51559,-0.50385zM203.62808,226.7473c0.68652,-0.18934 1.36741,-0.47416 2.02474,-0.70053c2.95376,-1.0172 6.48192,-1.40481 9.10462,-3.31761c0.6369,-0.46452 1.08535,-1.41103 1.36107,-2.32625c-4.95888,-2.50861 -10.07221,-4.27568 -14.39874,-7.94747l-0.65794,-1.20723c-0.39077,1.70298 -0.83557,4.7275 -0.84566,4.81252c-0.44009,3.70775 -0.74056,6.85219 0.08926,9.49424c1.65733,-0.28323 2.69713,0.41907 3.32264,1.19233zM212.64692,204.92905c0,0 -0.79768,-1.27629 -0.57379,-2.7171c-0.16534,0.01697 -0.3295,0.04002 -0.49222,0.06969c-1.73242,0.3159 -3.71758,2.00037 -5.32957,3.41788c0.73912,0.68999 1.07199,1.55269 1.12537,1.70075c2.60676,2.03957 5.61556,3.37575 8.6377,4.72001c-0.60459,-2.38785 -1.72935,-4.58407 -3.3675,-7.19122zM206.6007,206.76102c0.13579,0.11786 0.27287,0.23347 0.41116,0.34695zM235.48066,222.96161c-0.18767,-0.51229 -0.3652,-1.02582 -0.53704,-1.53939c-0.08956,0.34218 -0.18774,0.68207 -0.29455,1.01946c0.27785,0.17289 0.55507,0.34621 0.83158,0.51993z" data-paper-data="{&quot;index&quot;:null}" fill="#00c566" stroke="none" stroke-width="0.5"/><path d="M172.87206,156.56228c0.51601,-2.61129 2.33939,-5.35644 4.36425,-6.35002c1.44718,-0.71011 3.21573,-0.23119 4.8236,-0.34679c0.71946,0.15874 1.53325,0.14631 2.30858,0.20367c1.88988,-2.29532 4.65226,-0.71682 4.65226,-0.71682c4.6002,2.82425 8.11338,8.12986 6.42008,13.92358c-1.71249,5.85938 -7.06616,10.50711 -13.3924,9.00064c-5.193,-1.23661 -13.97448,-9.09798 -9.51064,-15.30944c0.10387,-0.14453 0.21555,-0.27924 0.33428,-0.40481z" data-paper-data="{&quot;index&quot;:null}" fill="#00c566" stroke="none" stroke-width="0.5"/><text transform="translate(214.25,106.5) scale(0.5,0.5)" font-size="40" xml:space="preserve" fill="#000000" fill-rule="nonzero" stroke="none" stroke-width="1" stroke-linecap="butt" stroke-linejoin="miter" stroke-miterlimit="10" stroke-dasharray="" stroke-dashoffset="0" font-family="&quot;black&quot;, &quot;Microsoft YaHei&quot;, &quot;微软雅黑&quot;, STXihei, &quot;华文细黑&quot;" font-weight="normal" text-anchor="start" style="mix-blend-mode: normal"><tspan x="0" dy="0">玩家3</tspan></text><path d="M287.83337,151.01727c2,-1.5 3.5,0.5 3.5,0.5l0.48446,0.84081c0.72092,0.5165 3.76458,2.79761 4.67459,3.05213c0.7455,0.2085 1.65447,-0.06318 2.40417,0.04842l-1.70496,-1.70496c-0.45241,-0.45241 -0.73223,-1.07741 -0.73223,-1.76777c0,-1.38071 1.11929,-2.5 2.5,-2.5c0.4199,0 0.81561,0.10351 1.16302,0.28642l2.06047,1.03024c2.04767,-0.7605 -0.19695,-4.96785 -0.86582,-5.98734c-0.20653,-0.31478 -0.56582,-0.74554 -0.92822,-0.6435c-0.84042,0.23663 -1.34825,1.14361 -2.14173,1.50789c-2.11598,0.97143 -4.41454,1.49699 -6.55381,2.416c0,0 -2.29786,0.9848 -3.28266,-1.31306c-0.08752,-0.20423 -0.14912,-0.39808 -0.1887,-0.58179c-5.06923,-0.67404 -9.55785,-2.87421 -14.54804,-3.90612c-2.03547,-1.15472 -4.39251,-1.61619 -6.58739,-2.42802c-3.50603,-1.29679 -6.99032,-2.83692 -10.56429,-4.09017c-5.866,-2.05697 -11.55713,-4.89649 -17.30705,-7.26483c-3.29684,-1.35794 -5.90219,-2.84397 -8.92747,-4.63716c-1.19293,-0.70708 -2.64452,-1.00209 -3.70053,-1.90091c-2.08407,-1.77386 -5.60137,-6.80292 -0.31563,-9.12871c1.71849,-0.75615 3.39116,1.61243 5.08674,2.41864c0,0 2,1.5 0.5,3.5c-0.06021,0.08028 -0.12122,0.15492 -0.18288,0.22424c0.40567,0.18495 0.80658,0.37879 1.19133,0.60322c3.54478,2.06771 6.92128,3.6926 10.71175,5.3511c8.32861,3.64414 16.90368,7.17797 25.3722,10.2851c2.15978,0.79243 4.48278,1.2371 6.4765,2.38499c2.99611,0.57651 5.7814,1.68149 8.64445,2.54892c0.08446,-0.41133 0.30542,-0.84959 0.74368,-1.28785c1.76776,-1.76777 3.53553,0 3.53553,0l-0.30595,-0.12451c1.00021,0.50631 2.22846,0.70622 3.00063,1.51895c0.06692,0.07043 0.13224,0.1421 0.1961,0.2149l0.03599,-0.04319l2.04805,1.70671c0.00504,0.00414 0.01006,0.0083 0.01506,0.01247c0.97108,-0.33457 1.94156,-0.67087 2.89308,-1.05564c1.38539,-0.56021 2.55237,-1.96062 4.04643,-1.92997c6.59416,0.13528 10.32854,11.20389 5.43255,15.42435c-0.15341,0.13225 -0.31805,0.24391 -0.4916,0.33925c-0.07036,0.78755 -0.49248,1.93259 -1.42594,3.58477c-0.74004,1.30982 -2.67071,1.48688 -4.14532,1.78485c-4.48391,0.90604 -7.36265,-1.47477 -10.7383,-3.87937l-1.57826,-1.90948c0,0 -1.5,-2 0.5,-3.5z" data-paper-data="{&quot;index&quot;:null}" fill="#000000" stroke="none" stroke-width="0.5"/><path d="M288.6806,148.10128l2.55209,-2.57587c2.03977,-2.45522 5.59168,-1.73015 7.76402,-0.22441c0.35118,-0.51972 0.96222,-0.97187 2.02541,-0.97187c2.5,0 2.5,2.5 2.5,2.5c-0.42936,1.64563 0.23542,4.18098 -1.28808,4.9369c-0.78778,0.39088 -1.62956,0.16059 -2.47977,-0.25864c0.07961,1.67054 0.13839,3.64246 -1.19947,4.3241c-3.13484,1.59719 -6.25598,-1.17906 -7.57687,-4.41529c-0.22084,-0.01846 -0.45924,-0.06699 -0.71619,-0.15264c-2.37171,-0.79057 -1.58114,-3.16228 -1.58114,-3.16228z" data-paper-data="{&quot;index&quot;:null}" fill="#00ff84" stroke="none" stroke-width="0.5"/></g></g></svg>