<svg version="1.1" xmlns="http://www.w3.org/2000/svg" xmlns:xlink="http://www.w3.org/1999/xlink" width="43" height="43" viewBox="0,0,43,43"><g transform="translate(-218.75,-158.625)"><g data-paper-data="{&quot;isPaintingLayer&quot;:true}" fill-rule="nonzero" stroke-linecap="butt" stroke-linejoin="miter" stroke-miterlimit="10" stroke-dasharray="" stroke-dashoffset="0" style="mix-blend-mode: normal"><path d="M222.25,180.125c0,-9.94113 8.05887,-18 18,-18c9.94113,0 18,8.05887 18,18c0,9.94113 -8.05887,18 -18,18c-9.94113,0 -18,-8.05887 -18,-18z" fill="#ffffff" stroke="#ff0000" stroke-width="7"/><path d="M251.03428,180.22838c0.65721,1.72625 2.32344,3.83312 1.21572,5.77162c-1.00747,1.76307 -8.4338,2.56106 -10.28263,3.03958c-2.19694,0.56862 -3.21293,1.60819 -5.52987,0.89792c-0.96067,-0.2945 -1.79112,-2.71161 -2.16466,-3.6028c-3.51967,-8.39726 -1.08668,-8.60836 5.92285,-13.84479c1.27921,-0.95563 7.10544,-2.38196 7.11672,-1.01092c1.7608,2.47888 2.54192,5.65012 3.72186,8.74938z" fill="#ff0000" stroke="none" stroke-width="0.5"/><path d="M230.96697,178.3809c2.83187,-5.66375 5.49121,1.21591 6.35296,3.62879c0.00245,0.00331 0.0049,0.00662 0.00734,0.00993c0.46982,0.54813 0.58985,1.07569 0.48381,1.56532c-0.00714,0.21391 -0.04116,0.42102 -0.09878,0.61805c1.18125,2.74588 3.29231,8.03215 3.24077,8.18676c-2.6818,8.04542 -7.82736,-5.07611 -8.33191,-7.59885l-0.05867,-0.54091c0.01825,-0.12418 0.04549,-0.24714 0.08092,-0.36801c-1.18095,-1.98442 -2.07233,-4.70934 -1.67645,-5.50109z" fill="#e60000" stroke="none" stroke-width="0.5"/></g></g></svg>