<svg version="1.1" xmlns="http://www.w3.org/2000/svg" xmlns:xlink="http://www.w3.org/1999/xlink" width="81.75218" height="54.40642" viewBox="0,0,81.75218,54.40642"><g transform="translate(-195.84938,-162.2297)"><g data-paper-data="{&quot;isPaintingLayer&quot;:true}" fill-rule="nonzero" stroke="none" stroke-linecap="butt" stroke-linejoin="miter" stroke-miterlimit="10" stroke-dasharray="" stroke-dashoffset="0" style="mix-blend-mode: normal"><path d="M257.47557,180.52911c-0.49029,2.45145 -2.94174,1.96116 -2.94174,1.96116l-1.64056,-0.33491c-4.04225,-0.51242 -8.21762,-0.65397 -12.40004,-0.61866c-0.29418,1.50614 -0.52004,3.01699 -0.63901,4.53476c-0.14482,1.84768 0.30563,6.06535 -0.39129,7.73312c-0.47917,1.14669 -1.67822,1.83345 -2.51734,2.75018l-3.16844,0.50161c0,0 -2.45145,-0.49029 -1.96116,-2.94174c0.35108,-1.75541 1.70776,-2.00243 2.44986,-2.00118c1.30154,-1.81077 0.3872,-3.70846 0.6054,-6.45438c0.10659,-1.34142 0.29188,-2.67566 0.53153,-4.00482c-2.54987,0.08993 -5.08322,0.21658 -7.57117,0.33552c0,0 -2.49717,0.11891 -2.61608,-2.37826c-0.11891,-2.49717 2.37826,-2.61608 2.37826,-2.61608c2.93534,-0.13924 5.92566,-0.28305 8.93106,-0.36873c1.05523,-4.11658 2.33968,-8.20962 3.11468,-12.34299c0,0 0.46072,-2.45718 2.9179,-1.99646c2.45718,0.46072 1.99646,2.9179 1.99646,2.9179c-0.71072,3.7905 -1.87933,7.55972 -2.8847,11.34331c3.99259,0.00121 7.97172,0.1676 11.84425,0.64552l2.00096,0.3934c0,0 2.45145,0.49029 1.96116,2.94174z" fill="#000000" stroke-width="0.5"/><path d="M277.60156,205.80259c0,-5.98319 -18.30085,-10.83353 -40.87609,-10.83353c-22.57524,0 -40.87609,4.85034 -40.87609,10.83353c0,5.98319 18.30085,10.83353 40.87609,10.83353c22.57524,0 40.87609,-4.85034 40.87609,-10.83353z" fill="#ffc500" stroke-width="0"/><path d="M215.19851,202.25211c0,-1.38071 1.11929,-2.5 2.5,-2.5c1.38071,0 2.5,1.11929 2.5,2.5c0,1.38071 -1.11929,2.5 -2.5,2.5c-1.38071,0 -2.5,-1.11929 -2.5,-2.5z" fill="#ff0000" stroke-width="0.5"/><path d="M247.24391,203.52664c0,-1.38071 1.11929,-2.5 2.5,-2.5c1.38071,0 2.5,1.11929 2.5,2.5c0,1.38071 -1.11929,2.5 -2.5,2.5c-1.38071,0 -2.5,-1.11929 -2.5,-2.5z" fill="#ff0000" stroke-width="0.5"/></g></g></svg>