<svg version="1.1" xmlns="http://www.w3.org/2000/svg" xmlns:xlink="http://www.w3.org/1999/xlink" width="57.63579" height="38.20103" viewBox="0,0,57.63579,38.20103"><g transform="translate(-215.88997,-217.42498)"><g data-paper-data="{&quot;isPaintingLayer&quot;:true}" fill="#ffa166" fill-rule="nonzero" stroke="none" stroke-width="0.5" stroke-linecap="butt" stroke-linejoin="miter" stroke-miterlimit="10" stroke-dasharray="" stroke-dashoffset="0" style="mix-blend-mode: normal"><path d="M252.3165,226.91522c0,2.5 -2.5,2.5 -2.5,2.5c-1.35057,0 -3.22065,0 -4.89084,0c0.03453,0.34475 0.10223,1.8318 -1.19409,2.50507c1.25153,1.51663 2.43051,3.08641 3.34266,4.94357c1.21868,2.48128 1.49444,5.22443 1.85051,7.92442c2.82583,0 5.65166,0 8.47748,0c3.15241,0 6.49926,-0.25255 9.62544,0.00159c1.49817,0.12179 3.35867,-0.31212 4.45149,0.7199c3.95689,3.73675 1.59298,6.75849 -2.15487,8.30999c-1.06203,0.43965 -2.29783,-0.07496 -3.44554,-0.13771c-2.01234,-0.11001 -4.02726,-0.20218 -6.04257,-0.2089c-9.95573,3.73328 -21.31353,1.85779 -31.69626,0.00241c-0.43243,-0.00056 -0.86486,-0.00146 -1.29729,-0.0028c-1.04748,-0.00325 -2.18076,0.39415 -3.14238,-0.02119c-0.10094,-0.0436 -0.20087,-0.08903 -0.29987,-0.13616l-0.01945,0.07294l-3.19902,-0.85307c-0.99123,-0.24076 -1.75138,-1.07236 -1.88643,-2.10079c-0.45584,-0.03017 -2.40549,-0.28826 -2.40549,-2.49601c0,-2.5 2.5,-2.5 2.5,-2.5h1.51714c0.05316,0.00012 0.10607,0.0004 0.15872,0.00084c0.76229,-1.61914 2.68608,-1.25843 2.68608,-1.25843c4.59426,0.87691 9.17042,0.60738 13.84377,0.60738c2.43491,0 4.86983,0 7.30474,0c-0.21817,-1.94602 -0.44119,-4.01435 -1.31144,-5.71477c-1.63771,-3.19998 -4.09625,-5.44259 -6.2385,-8.24672c-2.30975,-3.02337 -4.08883,-5.28967 -7.25703,-7.4986l-0.65732,-0.10984c0,0 -2.37171,-0.79057 -1.58114,-3.16228c0.79057,-2.37171 3.16228,-1.58114 3.16228,-1.58114l1.94349,0.7571c3.2431,2.27822 5.3738,4.68546 7.6915,7.68278c-0.09541,-1.86492 -0.02755,-3.74091 0.21535,-5.58352l1.51984,-2.63784c0,0 1.28624,-2.14373 3.42997,-0.85749c2.14373,1.28624 0.85749,3.42997 0.85749,3.42997l-1.08098,1.69686c-0.05482,0.48211 -0.08583,0.96668 -0.09695,1.45241c1.41194,0 2.82389,0 4.23583,0h1.08367c0,0 2.5,0 2.5,2.5z"/></g></g></svg>