<svg version="1.1" xmlns="http://www.w3.org/2000/svg" xmlns:xlink="http://www.w3.org/1999/xlink" width="42.75" height="42" viewBox="0,0,42.75,42"><g transform="translate(-217.89676,-160.75)"><g data-paper-data="{&quot;isPaintingLayer&quot;:true}" fill="#00ff08" fill-rule="nonzero" stroke-width="0.5" stroke-linecap="butt" stroke-linejoin="miter" stroke-miterlimit="10" stroke-dasharray="" stroke-dashoffset="0" style="mix-blend-mode: normal"><path d="M251.98495,186.41767c-1.11583,-1.70667 -3.0437,-2.83434 -5.23495,-2.83434c-3.45178,0 -6.25,2.79822 -6.25,6.25c0,1.24121 0.36181,2.39791 0.98572,3.37039c-0.48801,0.05112 -0.98371,0.07735 -1.48572,0.07735c-3.77466,0 -7.19241,-1.4829 -9.66836,-3.88112c1.32789,-1.14611 2.16836,-2.84155 2.16836,-4.73328c0,-3.39828 -2.71215,-6.1631 -6.08997,-6.24799c0.32875,-2.68897 1.48536,-5.1316 3.21558,-7.08119c1.07775,0.88279 2.45588,1.41251 3.95772,1.41251c3.37816,0 6.13034,-2.68013 6.2462,-6.03006c0.05674,-0.00067 0.11356,-0.00101 0.17047,-0.00101c0.98429,0 1.9443,0.10083 2.86968,0.29243c0.2973,2.7559 2.38604,4.97495 5.07811,5.46906c-1.2967,1.14519 -2.11447,2.82022 -2.11447,4.68624c0,3.45178 2.79822,6.25 6.25,6.25c0.4017,0 0.79455,-0.0379 1.17517,-0.11031c-0.29001,1.09839 -0.72115,2.14192 -1.27354,3.11131zM238.9,185.25c3.45178,0 6.25,-2.79822 6.25,-6.25c0,-3.45178 -2.79822,-6.25 -6.25,-6.25c-3.45178,0 -6.25,2.79822 -6.25,6.25c0,3.45178 2.79822,6.25 6.25,6.25z" stroke="#00db11"/><path d="M234.85188,169.13676c-0.57592,0.86387 -5.86456,1.12646 -5.70601,-1.17254c-0.15961,-0.32923 -0.24912,-0.69877 -0.24912,-1.08921c0,-1.38071 1.11929,-2.5 2.5,-2.5c1.62554,-1.53771 4.10296,3.78999 3.45513,4.76175z" stroke="none"/><path d="M235.39676,163.25c0,-1.38071 1.11929,-2.5 2.5,-2.5c1.38071,0 2.5,1.11929 2.5,2.5c0,1.38071 -1.11929,2.5 -2.5,2.5c-1.38071,0 -2.5,-1.11929 -2.5,-2.5z" stroke="none"/><path d="M243.02176,164.75c0,-1.38071 1.11929,-2.5 2.5,-2.5c1.38071,0 2.5,1.11929 2.5,2.5c0,1.38071 -1.11929,2.5 -2.5,2.5c-1.38071,0 -2.5,-1.11929 -2.5,-2.5z" stroke="none"/><path d="M252.382,167.48443c0.24953,-0.01168 0.49721,0.01978 0.73637,0.08721c0.51679,0.12654 0.97052,0.41374 1.30524,0.80566c0.72627,0.76102 1.07631,1.88332 0.58421,2.86574c-0.12557,0.25069 -0.50033,0.52651 -0.98504,0.75638c-0.41801,0.31431 -0.93776,0.50059 -1.50102,0.50059c-0.07771,0 -0.15458,-0.00355 -0.23048,-0.01048c-0.96027,0.09355 -1.81434,-0.16502 -1.86795,-1.13008c-0.25403,-0.39131 -0.40157,-0.85814 -0.40157,-1.35944c0,-1.22776 0.88504,-2.24881 2.05193,-2.45996c0.09689,-0.03131 0.19936,-0.05052 0.30832,-0.05562z" stroke="none"/><path d="M254.89676,179.875c-1.10665,0 -4.06237,-3.17865 -2.15454,-4.26883c0.43488,-0.73685 1.23698,-1.23117 2.15454,-1.23117c1.38071,0 2.5,1.11929 2.5,2.5c0,0.11617 -0.00792,0.23049 -0.02326,0.34245c0.61479,1.35349 0.36362,2.65755 -2.47674,2.65755z" stroke="none"/><path d="M255.64676,187c0,-1.38071 1.11929,-2.5 2.5,-2.5c1.38071,0 2.5,1.11929 2.5,2.5c0,1.38071 -1.11929,2.5 -2.5,2.5c-1.38071,0 -2.5,-1.11929 -2.5,-2.5z" stroke="none"/><path d="M247.14676,194c0,-1.38071 1.11929,-2.5 2.5,-2.5c1.38071,0 2.5,1.11929 2.5,2.5c0,1.38071 -1.11929,2.5 -2.5,2.5c-1.38071,0 -2.5,-1.11929 -2.5,-2.5z" stroke="none"/><path d="M237.27176,200.25c0,-1.38071 1.11929,-2.5 2.5,-2.5c1.38071,0 2.5,1.11929 2.5,2.5c0,1.38071 -1.11929,2.5 -2.5,2.5c-1.38071,0 -2.5,-1.11929 -2.5,-2.5z" stroke="none"/><path d="M223.77176,198.25c0,-1.38071 1.11929,-2.5 2.5,-2.5c1.38071,0 2.5,1.11929 2.5,2.5c0,1.38071 -1.11929,2.5 -2.5,2.5c-1.38071,0 -2.5,-1.11929 -2.5,-2.5z" stroke="none"/><path d="M226.4193,186.77869c0.09784,0.11415 0.1875,0.24096 0.26874,0.37781c0.58368,0.45765 0.95872,1.16928 0.95872,1.9685c0,0.64675 -0.24559,1.23615 -0.64861,1.68001c-0.44427,1.08182 -1.49019,1.61119 -3.24894,0.4163c-2.89063,-1.96387 -0.68746,-6.45075 2.65831,-4.44328z" stroke="none"/><path d="M217.89676,176.25c0,-1.38071 1.11929,-2.5 2.5,-2.5c1.38071,0 2.5,1.11929 2.5,2.5c0,1.38071 -1.11929,2.5 -2.5,2.5c-1.38071,0 -2.5,-1.11929 -2.5,-2.5z" stroke="none"/><path d="M218.77176,170.625c0,-1.38071 1.11929,-2.5 2.5,-2.5c1.38071,0 2.5,1.11929 2.5,2.5c0,1.38071 -1.11929,2.5 -2.5,2.5c-1.38071,0 -2.5,-1.11929 -2.5,-2.5z" stroke="none"/></g></g></svg>