<svg version="1.1" xmlns="http://www.w3.org/2000/svg" xmlns:xlink="http://www.w3.org/1999/xlink" width="112.42509" height="122.5" viewBox="0,0,112.42509,122.5"><g transform="translate(-189.25,-104.75)"><g data-paper-data="{&quot;isPaintingLayer&quot;:true}" fill-rule="nonzero" stroke-linejoin="miter" stroke-miterlimit="10" stroke-dasharray="" stroke-dashoffset="0" style="mix-blend-mode: normal"><path d="M190.5,180.5c0,-25.12895 20.37105,-45.5 45.5,-45.5c25.12896,0 45.5,20.37105 45.5,45.5c0,25.12895 -20.37104,45.5 -45.5,45.5c-25.12895,0 -45.5,-20.37105 -45.5,-45.5z" fill="#5feca8" stroke="#00ff21" stroke-width="2.5" stroke-linecap="butt"/><path d="M196.5,142v-36h81v36z" fill="#53d094" stroke="#00e21e" stroke-width="2.5" stroke-linecap="butt"/><path d="M277.5,127.33333c0,0 22.57558,12.97168 22.5076,19.66844c-0.03692,3.6362 0.23505,15.01469 0.1675,21.66837c-0.03305,3.25535 -20.06758,6.32304 -20.10144,9.65887c-0.03671,3.61583 4.26069,-5.5116 4.22827,-2.31748c-0.07768,7.651 -2.13525,5.65514 -2.13525,5.65514" fill="none" stroke="#00e21e" stroke-width="3" stroke-linecap="round"/><path d="M231.83333,162l1,27.66667l23.33333,-0.33333" fill="none" stroke="#00e21e" stroke-width="3" stroke-linecap="round"/></g></g></svg>