<svg version="1.1" xmlns="http://www.w3.org/2000/svg" xmlns:xlink="http://www.w3.org/1999/xlink" width="115.45135" height="110.42284" viewBox="0,0,115.45135,110.42284"><g transform="translate(-182.04865,-125)"><g data-paper-data="{&quot;isPaintingLayer&quot;:true}" fill-rule="nonzero" stroke-linejoin="miter" stroke-miterlimit="10" stroke-dasharray="" stroke-dashoffset="0" style="mix-blend-mode: normal"><path d="M222.5,221l-40,14l17,-40z" fill="#cccccc" stroke="#ffffff" stroke-width="0.5" stroke-linecap="round"/><path d="M195.5,176c0,-28.16652 22.83348,-51 51,-51c28.16652,0 51,22.83348 51,51c0,28.16652 -22.83348,51 -51,51c-28.16652,0 -51,-22.83348 -51,-51z" fill="#cccccc" stroke="none" stroke-width="0" stroke-linecap="butt"/><path d="M224.2316,201.56032c-6.30577,2.74069 -14.86988,-0.03598 -16.43726,-7.34155c-0.32697,-1.524 0.1638,-3.13331 0.54851,-4.64377c0.12367,-0.48556 2.95303,-7.10155 3.50558,-7.39516c5.39405,-2.86631 9.52619,1.33128 11.67538,5.48754c0.30278,-3.64792 0.74582,-7.28157 0.72619,-10.91738c0,0 0,-0.92169 0.55964,-1.6458c-3.05767,-0.00583 -6.04329,-0.41054 -8.60897,-1.58509c-1.92901,-0.88308 -5.44697,-3.64098 -6.57729,-5.45479c-4.01688,-6.4458 -0.41985,-17.56687 5.93191,-21.01038c4.2395,-2.29838 8.76471,-1.32441 12.96833,0.31414l0.65486,0.06072c1.72187,0.70306 3.38276,1.59919 4.88585,2.69456c0.52518,0.38273 0.94,1.11636 1.58973,1.12847c1.58921,0.02962 2.29444,-2.38006 3.80537,-2.87355c3.14657,-1.02771 10.44589,-0.28423 12.91149,1.96839c3.18058,2.90584 2.38498,6.64425 2.37907,10.40331c-0.00315,2.00241 0.29254,5.70083 -0.79581,7.67964c-2.28449,4.15362 -6.44726,5.26956 -10.70419,5.32036c-0.85073,0.01015 -3.50183,0.12184 -5.34107,-0.16775l-1.70821,0.35513l-0.00345,-0.01658l-0.06076,0.02906c-2.32485,0.35476 -4.93018,0.76546 -7.58781,0.98881c0.7013,0.74002 0.7013,1.81134 0.7013,1.81134c-0.01837,4.14724 -0.58052,8.26642 -0.85375,12.41664c0.4575,-0.73697 0.91125,-1.40756 1.37743,-1.94769c0.83051,-0.96228 1.37405,-2.41497 2.58407,-2.8043c1.41116,-0.45404 2.94179,0.36873 4.41268,0.55309c1.07188,0.88808 2.55448,1.4393 3.21564,2.66423c0.59884,1.10946 0.3299,2.51461 0.2591,3.77338c-0.09359,1.66388 -0.09889,3.40873 -0.74938,4.94304c-0.4739,1.11778 -1.62791,1.80259 -2.47802,2.66939c-3.70555,3.77828 -7.26849,4.15904 -12.25806,3.18368zM221.79716,197.05979c0.01403,-0.0588 0.0307,-0.1178 0.05029,-0.17681l-0.36521,-0.36521l0.09064,-0.09064c-0.18263,-0.15737 -0.35874,-0.32268 -0.52706,-0.49748c-0.7045,-0.73159 -0.39375,-1.99646 -0.69217,-2.96728c-0.53075,-1.72659 -0.82023,-3.65483 -1.96946,-5.04842c-0.86073,-1.04375 -2.60965,-2.34826 -3.73261,-1.59378c-0.38448,0.25831 0.05111,0.94597 -0.09187,1.38654c-0.29373,0.90508 -2.1584,4.15078 -1.85404,5.57452c0.88284,4.12979 4.82708,4.40185 8.14389,4.00105c0.32805,-0.03964 0.64355,-0.11529 0.94762,-0.22249zM228.67419,197.70411c1.73806,0.03106 3.06156,-0.53048 4.80804,-2.22188c0.48407,-0.4688 1.26955,-0.7058 1.52198,-1.33061c0.41324,-1.02286 0.9227,-4.1068 -0.27464,-4.61936c-0.8543,-0.65006 -2.34274,2.34364 -2.96153,3.19337c-1.08554,1.49068 -1.9858,3.33697 -3.09385,4.97848zM236.73074,162.27603c1.69532,-2.80393 7.32082,-4.42236 10.22869,-5.39774c0,0 2.0464,-0.68213 2.97106,1.12173c0.06265,-0.86927 0.08037,-1.73411 -0.08978,-2.58269c-0.49298,-2.45861 -6.94241,-2.93857 -8.80014,-2.29563c-1.90983,0.66097 -3.1737,3.11365 -5.19463,3.12645c-0.62559,0.00396 -1.28194,-0.16459 -1.95286,-0.4383l2.09299,1.82211c0,0 1.11803,2.23607 -1.11803,3.3541c-1.59319,0.79659 -2.61881,-0.10952 -3.07686,-0.69639c-0.20312,0.0115 -0.40616,0.02536 -0.60907,0.04143c-0.26196,1.10047 -1.25146,1.91889 -2.43211,1.91889c-1.16828,0 -2.14939,-0.80136 -2.42364,-1.88439c-0.47397,-0.29437 -0.8933,-0.8103 -1.04235,-1.70461c-0.411,-2.46598 2.05499,-2.87698 2.05499,-2.87698c1.78529,-0.29274 3.59406,-0.49144 5.40329,-0.52805c-1.71852,-0.93508 -3.47121,-2.29539 -4.999,-3.00418c-0.17502,-0.00765 -0.33529,-0.03008 -0.47136,-0.05663l-0.02194,0.05485c0,0 -1.08757,0 -1.82806,-0.71732c-2.42227,-0.86415 -5.0994,-1.39698 -7.47723,-0.08662c-3.81212,2.10076 -6.69189,10.01259 -4.06809,13.98962c0.67489,1.02296 3.39669,3.06601 4.42271,3.54521c3.84438,1.79552 9.38175,1.20966 13.96281,0.51709c-0.00803,-0.08157 -0.01214,-0.16429 -0.01214,-0.24797c0,-1.38071 1.11929,-2.5 2.5,-2.5h0.33481c-0.02761,-1.18236 0.51463,-2.60288 1.64593,-4.47397zM248.54057,161.62171c-1.73561,0.57448 -8.42343,2.2695 -8.42104,4.83121c0.0002,0.21702 0.43574,-0.01356 0.6509,0.01482c0.6601,0.08706 1.31526,0.20914 1.96987,0.33081c0.83553,0.1553 1.66667,0.33333 2.5,0.5l1.77748,1.18368c0,0 0.00049,0.00049 0.00144,0.00146c3.04521,-1.44951 2.73927,-4.6453 2.7309,-7.68515c-0.51237,0.59078 -1.20954,0.82316 -1.20954,0.82316z" fill="#00ff5f" stroke="none" stroke-width="0.5" stroke-linecap="butt"/><text transform="translate(218.75,208.65) scale(0.79291,0.79291)" font-size="40" xml:space="preserve" fill="#b5b5b5" fill-rule="nonzero" stroke="none" stroke-width="1" stroke-linecap="butt" stroke-linejoin="miter" stroke-miterlimit="10" stroke-dasharray="" stroke-dashoffset="0" font-family="Sans Serif" font-weight="normal" text-anchor="start" style="mix-blend-mode: normal"><tspan x="0" dy="0">害怕</tspan></text><path d="M261.09067,171.9531c-1.14744,-1.60642 -0.12029,-2.8504 0.3626,-3.30266c-0.49682,-0.72301 -0.88601,-1.4655 -0.79701,-2.29449c0.15288,-1.424 1.97917,-2.07063 2.96875,-3.10594c0,0 2,-1.5 3.5,0.5c1.5,2 -0.5,3.5 -0.5,3.5c-0.34375,-0.03531 -1.1922,-0.41173 -1.03125,-0.10594c0.23127,0.43941 0.88622,0.44819 1.32933,0.67228l-2.34498,4.71799c0,0 -2.03433,1.4531 -3.48743,-0.58124zM262.76163,170.55827l0.06529,0.12539c-0.02103,-0.04193 -0.04282,-0.08372 -0.06529,-0.12539z" fill="#d4d4d4" stroke="none" stroke-width="0.5" stroke-linecap="butt"/><path d="M282.10723,169.01777c-1.76777,-1.76777 0,-3.53553 0,-3.53553l0.52803,0.74411c-0.23991,-2.7943 -0.98413,-5.15221 -1.01027,-7.97634c0,0 0,-2.5 2.5,-2.5c2.5,0 2.5,2.5 2.5,2.5c-0.0324,2.61292 0.74003,4.89861 0.98973,7.52366l-1.97197,3.24411c0,0 -1.76777,1.76777 -3.53553,0z" fill="#d4d4d4" stroke="none" stroke-width="0.5" stroke-linecap="butt"/></g></g></svg>