<svg version="1.1" xmlns="http://www.w3.org/2000/svg" xmlns:xlink="http://www.w3.org/1999/xlink" width="173.07021" height="315.41681" viewBox="0,0,173.07021,315.41681"><g transform="translate(-152.47027,36.86413)"><g data-paper-data="{&quot;isPaintingLayer&quot;:true}" fill-rule="nonzero" stroke-linecap="butt" stroke-linejoin="miter" stroke-miterlimit="10" stroke-dasharray="" stroke-dashoffset="0" style="mix-blend-mode: normal"><path d="M317.39362,35.81641c0,33.86496 -27.79191,61.31794 -62.07495,61.31794c-34.28304,0 -62.07495,-27.45298 -62.07495,-61.31794c0,-33.86496 27.79191,-61.31794 62.07495,-61.31794c34.28304,0 62.07495,27.45298 62.07495,61.31794z" fill="none" stroke="#000000" stroke-width="5"/><path d="M163.72027,114.54563c0,-3.64757 3.45838,-3.78006 3.70961,-3.78488c3.83738,-1.65892 8.69431,-3.74768 12.71658,-4.47395c0.50529,-0.09124 9.90373,-0.0683 10.38667,-0.0683c8.19282,0 16.38564,0 24.57846,0c6.83501,0 13.80197,0.39171 20.62305,0.00731c3.88559,-0.21897 7.65567,-0.67429 11.45263,-1.03002c-22.5088,-7.04769 -47.00291,-15.87184 -70.43841,-11.10789l-4.83576,0.01843c0,0 -3.72401,0 -3.72401,-3.78506c0,-3.78506 3.72401,-3.78506 3.72401,-3.78506l4.10187,0.01843c24.46504,-4.97322 49.88045,4.16158 73.34373,11.42492c0.1075,-0.50134 0.34276,-1.03865 0.7586,-1.60218c2.23441,-3.02805 5.21361,-0.75701 5.21361,-0.75701c1.31641,1.12354 3.13544,1.83165 3.94922,3.37062c2.01529,3.81116 1.83668,10.0612 2.70591,14.19136c0.49268,2.34092 1.75687,4.46894 2.23441,6.8131c1.12322,5.51374 0.04809,12.38803 0.04809,18.01757c0,5.98236 0.89838,12.87911 -0.04809,18.77458c-0.48891,3.04535 -1.28474,5.94852 -2.35353,8.72341c3.35562,1.24483 2.21052,4.73642 2.21052,4.73642c-1.90021,5.57594 -1.2985,11.08035 -1.2985,16.97134c0,8.84262 1.06945,16.08074 2.87015,24.81046c0.47901,2.32221 1.7548,9.35168 3.2401,11.74794c2.65202,4.27858 7.48691,8.69991 10.81583,12.39404c5.5288,6.13531 8.68536,12.28227 15.46846,17.22822c0.73394,1.00963 1.58922,1.9441 2.53139,2.77623c0.25227,-0.04462 0.52647,-0.06886 0.82454,-0.06886c3.72401,0 3.72401,3.78506 3.72401,3.78506l-5.63999,4.75968c-2.48951,-1.56583 -4.87284,-3.46875 -6.64491,-5.83736c-6.90882,-4.99332 -10.21554,-11.39277 -15.81322,-17.59431c-2.67802,-2.96693 -5.13984,-6.13013 -7.60844,-9.2791c-1.16327,-1.48388 -2.95457,-2.44123 -3.91978,-4.06526c-2.3033,-3.87549 -3.3681,-9.96787 -4.26578,-14.28446c-2.29983,-11.05903 -4.57377,-24.10996 -3.31859,-36.03259c-0.14064,0.18474 -0.28255,0.36886 -0.42576,0.55235c-9.52599,4.18597 -19.80719,6.65366 -28.56065,12.29621c-18.23862,11.75675 -23.52569,35.95124 -23.65442,56.46492l-1.4896,4.54207v3.78506l-1.4896,4.54207l0.04809,3.17875h-7.44801l0.04809,-4.39136l1.4896,-4.54207v-3.78506l1.4896,-4.54207c-0.15797,-22.71615 7.1639,-48.76602 26.99211,-61.62889c8.51412,-5.52325 18.53558,-8.56895 28.04427,-11.92816c7.12015,-10.79053 6.73409,-21.52485 6.73409,-34.08931c0,-5.17702 1.15046,-11.76691 0.04809,-16.80496c-0.5113,-2.33679 -1.74007,-4.47255 -2.23441,-6.8131c-0.13649,-0.64625 -0.22887,-1.3546 -0.30329,-2.09769c-6.14654,0.16102 -11.97715,1.13581 -18.13346,1.48408c-6.97474,0.39457 -14.09677,0.00731 -21.08585,0.00731c-8.19282,0 -16.38564,0 -24.57846,0c-2.9928,0 -6.03649,-0.62808 -8.97819,-0.0683c-3.80797,0.72463 -8.37559,2.75349 -11.8989,4.30432l-2.21176,0.30604c0,0 -3.72401,0 -3.72401,-3.78506z" fill="#000000" stroke="#000000" stroke-width="22.5"/><path d="M224.2812,47.1716c-3.78506,0 -3.78506,-3.78506 -3.78506,-3.78506l0.27072,-2.16275c2.84061,-6.70325 1.22192,-15.96843 2.02346,-23.23662c0,0 0.41799,-3.76191 4.1799,-3.34392c3.76191,0.41799 3.34392,4.1799 3.34392,4.1799c-0.9373,8.36922 0.49925,17.34415 -2.51861,25.21212l0.27072,-0.64873c0,0 0,3.78506 -3.78506,3.78506z" fill="#000000" stroke="none" stroke-width="0.5"/><path d="M249.58622,47.38919c-3.24566,-1.9474 -1.29826,-5.19305 -1.29826,-5.19305l2.15312,-3.57347c2.25568,-5.17604 4.56585,-10.32412 6.66234,-15.56717c0,0 1.40574,-3.51434 4.92008,-2.10861c3.51434,1.40574 2.10861,4.92008 2.10861,4.92008c-2.1877,5.46743 -4.59662,10.83579 -6.96387,16.22732l-2.38895,3.99664c0,0 -1.9474,3.24566 -5.19305,1.29826z" fill="#000000" stroke="none" stroke-width="0.5"/><path d="M261.37476,62.31183c0,3.78506 -3.78506,3.78506 -3.78506,3.78506h-3.78506c-3.77363,0 -7.49716,-0.29608 -11.19979,0.6454c-3.14846,0.80057 -6.38026,1.93338 -9.61249,1.60721c-5.12489,-0.51714 -8.65644,-3.25616 -12.92961,-5.82006c0,0 -3.24566,-1.9474 -1.29826,-5.19305c1.9474,-3.24566 5.19305,-1.29826 5.19305,-1.29826c2.33877,1.40327 4.47127,3.20513 6.9876,4.25733c3.6274,1.51678 6.36014,-0.04527 9.83491,-0.90006c4.37139,-1.07535 8.58389,-0.86863 13.02458,-0.86863h3.78506c0,0 3.78506,0 3.78506,3.78506z" fill="#000000" stroke="none" stroke-width="0.5"/><path d="M255.49013,87.41453c-3.14937,-2.09957 -1.04979,-5.24894 -1.04979,-5.24894l1.07256,1.02548c-0.4253,-1.32745 -0.67563,-2.7243 -1.27593,-3.98234c-0.72523,-1.51985 -2.54047,-2.60945 -2.67069,-4.28843c-0.24215,-3.12213 2.76171,-7.44881 4.29177,-10.01381c0,0 1.9474,-3.24566 5.19305,-1.29826c3.24566,1.9474 1.29826,5.19305 1.29826,5.19305c-0.70862,1.1732 -1.38745,2.36492 -2.12587,3.5196c-0.35511,0.5553 -1.28981,0.96216 -1.15247,1.60683c0.17879,0.83925 1.47104,1.0087 1.87138,1.76767c0.83891,1.59041 1.16808,3.40119 1.75212,5.1018l-1.95548,5.56755c0,0 -2.09957,3.14937 -5.24894,1.04979z" fill="#ff0000" stroke="none" stroke-width="0.5"/><path d="M246.99154,41.1155c0,-2.09043 1.69463,-3.78506 3.78506,-3.78506c2.09043,0 3.78506,1.69463 3.78506,3.78506c0,2.09043 -1.69463,3.78506 -3.78506,3.78506c-2.09043,0 -3.78506,-1.69463 -3.78506,-3.78506z" fill="#ff0000" stroke="none" stroke-width="0.5"/><path d="M216.71108,43.38654c0,-2.09043 1.69463,-3.78506 3.78506,-3.78506c2.09043,0 3.78506,1.69463 3.78506,3.78506c0,2.09043 -1.69463,3.78506 -3.78506,3.78506c-2.09043,0 -3.78506,-1.69463 -3.78506,-3.78506z" fill="#ff0000" stroke="none" stroke-width="0.5"/><path d="M186.26924,203.55856c0,0 -21.34388,-73.43854 -21.34388,-136.41526c0,-50.00346 29.69584,-77.95157 29.69584,-77.95157c0,0 26.99229,-25.05586 61.24766,-25.05586c34.71935,0 67.74363,38.97579 67.74363,38.97579c0,0 0.92799,32.92872 0.92799,87.23152c0,22.61734 -50.69302,4.63904 -44.42173,37.27468c10.62367,55.28521 43.49372,137.18838 43.49372,137.18838c0,0 -44.50894,-7.42395 -79.80757,-7.42395c-26.59303,0 -50.77745,-12.36693 -66.67193,-4.36676c-4.18703,2.10746 9.13625,-49.45694 9.13625,-49.45694z" fill="none" stroke="#00f3ff" stroke-width="2"/></g></g></svg>