<svg version="1.1" xmlns="http://www.w3.org/2000/svg" xmlns:xlink="http://www.w3.org/1999/xlink" width="295" height="214" viewBox="0,0,295,214"><g transform="translate(-92.5,-73)"><g data-paper-data="{&quot;isPaintingLayer&quot;:true}" fill-rule="nonzero" stroke-linecap="butt" stroke-linejoin="miter" stroke-miterlimit="10" stroke-dasharray="" stroke-dashoffset="0" style="mix-blend-mode: normal"><path d="M96,283.5v-207h288v207z" fill="#00ffff" stroke="#ff0000" stroke-width="7"/><path d="M372.91421,116.41421c-1.41421,1.41421 -2.82843,0 -2.82843,0l-1,-1c-2.62442,-2.82922 -3.12528,-6.28183 -5.58437,-9.22166c-2.63439,4.65945 -5.14462,9.41726 -8.28576,13.83532l-0.9268,1.86655c0,0 -0.89443,1.78885 -2.68328,0.89443c-1.78885,-0.89443 -0.89443,-2.68328 -0.89443,-2.68328l1.0732,-2.13345c3.22706,-4.57867 5.81435,-9.50518 8.55441,-14.3162c-1.69218,-0.96465 -3.83682,-2.00757 -4.71795,-2.57208c-2.57385,-1.64898 -3.2185,-3.18464 -6.1208,-3.08384c0,0 -2,0 -2,-2c0,-2 2,-2 2,-2c3.8893,0.0846 5.03801,1.63802 8.2792,3.71616c1.61186,1.03347 3.0812,1.83866 4.45273,2.6962c1.32443,-2.20055 2.7206,-4.35351 4.26807,-6.41236c2.19002,-2.91374 2.94083,-5.06236 6.10557,-6.78885c0,0 1.78885,-0.89443 2.68328,0.89443c0.89443,1.78885 -0.89443,2.68328 -0.89443,2.68328c-2.20133,0.93002 -3.2347,3.66084 -4.69443,5.61115c-1.53928,2.0566 -2.92433,4.20875 -4.23845,6.4081c0.77545,0.7105 1.52713,1.53226 2.26598,2.53385c0.91513,1.24055 1.92904,2.44597 2.55553,3.8545c0.26977,0.60651 -0.24346,1.39277 0.0444,1.99091c0.30573,0.63527 1.05784,0.93229 1.58675,1.39843l1,1c0,0 1.41421,1.41421 0,2.82843z" fill="#ff0000" stroke="none" stroke-width="0.5"/><text transform="translate(249.75,144.67814) scale(0.5,0.5)" font-size="40" xml:space="preserve" fill="#000000" fill-rule="nonzero" stroke="none" stroke-width="1" stroke-linecap="butt" stroke-linejoin="miter" stroke-miterlimit="10" stroke-dasharray="" stroke-dashoffset="0" font-family="&quot;black&quot;, &quot;Microsoft YaHei&quot;, &quot;微软雅黑&quot;, STXihei, &quot;华文细黑&quot;" font-weight="normal" text-anchor="start" style="mix-blend-mode: normal"><tspan x="0" dy="0">核弹</tspan></text><text transform="translate(231.75,188.17814) scale(0.5,0.5)" font-size="40" xml:space="preserve" fill="#000000" fill-rule="nonzero" stroke="none" stroke-width="1" stroke-linecap="butt" stroke-linejoin="miter" stroke-miterlimit="10" stroke-dasharray="" stroke-dashoffset="0" font-family="&quot;black&quot;, &quot;Microsoft YaHei&quot;, &quot;微软雅黑&quot;, STXihei, &quot;华文细黑&quot;" font-weight="normal" text-anchor="start" style="mix-blend-mode: normal"><tspan x="0" dy="0">伤害-99999999</tspan></text><path d="M141.62177,217.0516v-78.11066c0,0 5.6501,-10.02877 12.61513,-16.87722c4.32323,-4.25087 9.71271,-6.60489 12.87552,-6.6106c15.94205,-0.02882 27.49349,23.48782 27.49349,23.48782v78.11066z" fill="#ff0000" stroke="none" stroke-width="0"/><path d="M158.07914,151.72444c0.53591,-0.26574 1.24924,-0.35261 2.13997,0.09276c2.23607,1.11803 1.11803,3.3541 1.11803,3.3541l-0.35415,0.60254c0.23819,0.19457 0.4551,0.41285 0.64297,0.66348c1.47287,1.96494 0.1229,7.81389 -1.75404,8.84894c-1.25948,0.69455 -2.7416,-0.87122 -4.11871,-1.28626c-2.03659,-0.61379 -6.16001,-1.35026 -6.71864,-3.85444c-0.40472,-1.81426 1.21342,-3.59864 2.38793,-5.03942c1.32885,-1.63009 3.7022,-1.99736 5.52785,-3.04141c0,0 0.48565,-0.27752 1.12879,-0.34029z" fill="#000000" stroke="none" stroke-width="0.5"/><path d="M183.40527,155.55737c6.05646,-0.53093 6.83267,9.01936 5.82936,12.97215c-0.34495,1.35902 -0.65755,2.95156 -1.75685,3.82188c-3.9986,3.16571 -10.33017,-0.58057 -13.3948,-3.30285c-1.17512,-1.04385 -3.22416,-1.82022 -3.27641,-3.39114c-0.05421,-1.62988 1.95207,-2.61796 3.03601,-3.83636c2.19956,-2.47241 3.33667,-3.60846 4.87156,-6.70091c0,0 1.11803,-2.23607 3.3541,-1.11803c0.83987,0.41993 1.20655,0.9976 1.33703,1.55526z" fill="#000000" stroke="none" stroke-width="0.5"/><path d="M160.70552,174.86367c1.23005,-0.28492 2.53701,-0.20184 3.67146,0.34208c1.39038,0.66663 1.56689,2.66432 2.18782,4.0757c1.20191,2.73197 3.3846,8.66403 0.44864,11.10138c-1.2362,1.02626 -3.223,-0.27949 -4.76352,-0.73573c-2.28108,-0.67556 -6.01841,-2.79015 -7.89333,-4.31721c-1.28136,-1.04364 -3.47144,-1.78432 -3.57632,-3.43359c-0.19815,-3.11576 6.0516,-5.47006 8.1536,-6.69674c0,0 0.83634,-0.48786 1.77167,-0.33589z" fill="#000000" stroke="none" stroke-width="0.5"/><path d="M165.65582,166.30143c1.0601,0 1.67067,0.44952 2.02234,0.96734c1.42637,1.38832 0.21522,3.13777 0.21522,3.13777l-1.61827,2.3375c-0.4489,0.66739 -1.21112,1.10647 -2.0759,1.10647c-1.38071,0 -2.5,-1.11929 -2.5,-2.5c0,-0.49468 0.14368,-0.9558 0.39157,-1.34391l1.17001,-1.90127c0.19705,-0.73974 0.76396,-1.80389 2.39502,-1.80389z" fill="#000000" stroke="none" stroke-width="0.5"/><path d="M163.46482,265.08013c-2.24995,1.08982 -3.33977,-1.16013 -3.33977,-1.16013c-3.80139,-7.84802 -8.32782,-17.19292 -12.31479,-25.42409c-3.8692,0.21642 -7.1127,-2.57482 -7.81843,-6.49633c-0.85526,-4.75243 -0.03228,-10.49753 -0.03228,-15.33704c0,0 0,-2.5 2.5,-2.5c2.5,0 2.5,2.5 2.5,2.5c0,4.81243 -0.30623,9.73414 -0.03228,14.53613c0.05995,1.05079 0.43775,1.65052 0.97531,1.93125c0.1416,-0.54947 0.51666,-1.11337 1.35126,-1.51763c1.23689,-0.59912 2.12317,-0.18891 2.67052,0.30195c0.09056,-0.08379 0.17583,-0.1689 0.25494,-0.25463c0.55064,-0.59669 1.01242,-1.26955 1.5163,-1.90632l1.27012,-2.11686c0.43183,-0.74893 1.24069,-1.25305 2.16731,-1.25305c0.13264,0 0.26287,0.01033 0.38993,0.03023c-0.36815,-0.89552 -0.70867,-1.80049 -0.98335,-2.72794c-0.84861,-2.86525 -1.23733,-5.84706 -1.85295,-8.77123c0,0 -0.51503,-2.44637 1.93135,-2.9614c2.44637,-0.51503 2.9614,1.93135 2.9614,1.93135c0.59138,2.80906 0.95315,5.67593 1.76805,8.42848c0.50117,1.69286 1.22472,3.30978 1.93372,4.93163c1.16325,0.12528 1.84802,1.2065 1.84802,1.2065c0.61785,0.97555 1.23569,1.95109 1.85354,2.92664c1.37587,0.0252 2.45624,1.19805 3.57249,2.23153c0.38276,-0.78148 0.74473,-1.52049 1.07974,-2.20447c0,0 0.43559,-0.88933 1.3182,-1.2744c0.26855,-0.6029 0.76872,-1.07989 1.38748,-1.31792c-0.40777,-1.63109 -0.78839,-3.15357 -1.07538,-4.30152c0,0 -0.60634,-2.42536 1.81902,-3.0317c1.01218,-0.25305 1.70755,0.02193 2.17425,0.42828c0.01467,-0.08315 0.02926,-0.16578 0.04374,-0.24788c0,0 0.43446,-2.46196 2.89642,-2.0275c2.46196,0.43446 2.0275,2.89642 2.0275,2.89642c-0.02805,0.15895 -0.0561,0.31791 -0.08415,0.47686c0.40428,-0.9372 0.80794,-1.87296 1.21078,-2.8068c0,0 0.99023,-2.29553 3.28576,-1.3053c2.29553,0.99023 1.3053,3.28576 1.3053,3.28576c-1.21505,2.81671 -2.43011,5.63343 -3.64516,8.45014c0.57048,0.22404 1.03865,0.65174 1.31499,1.19359c0.27544,-0.93823 0.55158,-1.87629 0.82789,-2.81438l0.04616,-0.06662l-0.02053,-0.00747l1.6888,-4.64419c0.33064,-0.98014 1.25238,-1.68824 2.34122,-1.70027c0.29056,-2.82658 0.54597,-5.65661 0.81584,-8.48577l0.46024,-3.22655c0,0 0.35355,-2.47487 2.82843,-2.12132c2.47487,0.35355 2.12132,2.82843 2.12132,2.82843l-0.44501,3.11018c-0.38789,4.07953 -0.74612,8.16079 -1.2259,12.23069c-0.19904,1.68842 -0.02073,3.46603 -0.59793,5.06516c-0.01149,0.03184 -0.02311,0.06362 -0.03486,0.09535l0.01716,0.00343l-0.89617,4.48083c-0.20987,1.16847 -1.23166,2.05512 -2.46053,2.05512c-0.65078,0 -1.24349,-0.24866 -1.68829,-0.65616c-0.75109,3.22024 -1.60176,6.43997 -2.94087,9.0842c-0.00891,0.01759 -0.01785,0.03516 -0.02682,0.05271l0.00897,0.00299l-1.56291,4.68873c-0.31417,1.02156 -1.26534,1.76412 -2.38994,1.76412c-1.38071,0 -2.5,-1.11929 -2.5,-2.5v-3.14723c0.00032,-0.64321 -0.0193,-1.94225 -0.01477,-3.41776c-0.52909,-0.05288 -1.00957,-0.27073 -1.38928,-0.60135c-0.06792,0.15745 -0.13584,0.31489 -0.20375,0.47234l-0.21959,1.24435c0,0 -0.43446,2.46196 -2.89642,2.0275c-1.70769,-0.30136 -2.02184,-1.57818 -2.05405,-2.33226c-0.07668,0.0585 -0.15905,0.11586 -0.24747,0.17186c-1.14179,0.72313 -2.05725,0.43808 -2.65739,0.02356c-0.98977,2.02078 -1.97954,4.04156 -2.96931,6.06234l-2.06562,4.21732c0,0 -0.3279,0.66947 -0.99117,1.09821c0.46678,0.96368 0.93357,1.92736 1.40035,2.89104l0.95349,1.96849c0,0 1.08982,2.24995 -1.16013,3.33977zM161.1545,248.71895l-0.77846,-3.51227l0.01457,-0.00323l-0.02447,-0.04356c-0.15243,-0.83793 -0.29198,-1.72081 -0.42878,-2.62772c-0.33715,0.09869 -0.68652,0.15131 -1.05004,0.14634c-3.70238,-0.05064 -4.42055,-4.79775 -4.32519,-8.33436l-0.181,0.06033c-0.60312,0.74432 -1.25664,1.49571 -1.96248,2.13578c2.43652,5.03023 4.87304,10.06047 7.30956,15.0907c0.44865,-0.91599 0.9275,-1.89365 1.42629,-2.912zM171.56334,241.7681l0.14887,0.23506c0.03651,-0.20688 0.07337,-0.41576 0.11055,-0.62646c-0.07427,0.13882 -0.16127,0.26981 -0.25942,0.39141z" fill="#ffd200" stroke="none" stroke-width="0.5"/></g></g></svg>