<svg version="1.1" xmlns="http://www.w3.org/2000/svg" xmlns:xlink="http://www.w3.org/1999/xlink" width="295" height="214" viewBox="0,0,295,214"><g transform="translate(-92.5,-73)"><g data-paper-data="{&quot;isPaintingLayer&quot;:true}" fill-rule="nonzero" stroke-linecap="butt" stroke-linejoin="miter" stroke-miterlimit="10" stroke-dasharray="" stroke-dashoffset="0" style="mix-blend-mode: normal"><path d="M96,283.5v-207h288v207z" fill="#00ffff" stroke="#ff0000" stroke-width="7"/><path d="M372.91421,116.41421c-1.41421,1.41421 -2.82843,0 -2.82843,0l-1,-1c-2.62442,-2.82922 -3.12528,-6.28183 -5.58437,-9.22166c-2.63439,4.65945 -5.14462,9.41726 -8.28576,13.83532l-0.9268,1.86655c0,0 -0.89443,1.78885 -2.68328,0.89443c-1.78885,-0.89443 -0.89443,-2.68328 -0.89443,-2.68328l1.0732,-2.13345c3.22706,-4.57867 5.81435,-9.50518 8.55441,-14.3162c-1.69218,-0.96465 -3.83682,-2.00757 -4.71795,-2.57208c-2.57385,-1.64898 -3.2185,-3.18464 -6.1208,-3.08384c0,0 -2,0 -2,-2c0,-2 2,-2 2,-2c3.8893,0.0846 5.03801,1.63802 8.2792,3.71616c1.61186,1.03347 3.0812,1.83866 4.45273,2.6962c1.32443,-2.20055 2.7206,-4.35351 4.26807,-6.41236c2.19002,-2.91374 2.94083,-5.06236 6.10557,-6.78885c0,0 1.78885,-0.89443 2.68328,0.89443c0.89443,1.78885 -0.89443,2.68328 -0.89443,2.68328c-2.20133,0.93002 -3.2347,3.66084 -4.69443,5.61115c-1.53928,2.0566 -2.92433,4.20875 -4.23845,6.4081c0.77545,0.7105 1.52713,1.53226 2.26598,2.53385c0.91513,1.24055 1.92904,2.44597 2.55553,3.8545c0.26977,0.60651 -0.24346,1.39277 0.0444,1.99091c0.30573,0.63527 1.05784,0.93229 1.58675,1.39843l1,1c0,0 1.41421,1.41421 0,2.82843z" fill="#ff0000" stroke="none" stroke-width="0.5"/><text transform="translate(249.75,144.67814) scale(0.5,0.5)" font-size="40" xml:space="preserve" fill="#000000" fill-rule="nonzero" stroke="none" stroke-width="1" stroke-linecap="butt" stroke-linejoin="miter" stroke-miterlimit="10" stroke-dasharray="" stroke-dashoffset="0" font-family="&quot;black&quot;, &quot;Microsoft YaHei&quot;, &quot;微软雅黑&quot;, STXihei, &quot;华文细黑&quot;" font-weight="normal" text-anchor="start" style="mix-blend-mode: normal"><tspan x="0" dy="0">冰球</tspan></text><text transform="translate(231.75,188.17814) scale(0.5,0.5)" font-size="40" xml:space="preserve" fill="#000000" fill-rule="nonzero" stroke="none" stroke-width="1" stroke-linecap="butt" stroke-linejoin="miter" stroke-miterlimit="10" stroke-dasharray="" stroke-dashoffset="0" font-family="&quot;black&quot;, &quot;Microsoft YaHei&quot;, &quot;微软雅黑&quot;, STXihei, &quot;华文细黑&quot;" font-weight="normal" text-anchor="start" style="mix-blend-mode: normal"><tspan x="0" dy="0">僵王吐出的球，</tspan><tspan x="0" dy="48px">伤害极高!可以</tspan><tspan x="0" dy="48px">用玩家2的火球</tspan><tspan x="0" dy="48px">缓解</tspan></text><path d="M227.21087,189.22235c0,33.10853 -28.40022,59.9483 -63.43367,59.9483c-35.03345,0 -63.43367,-26.83977 -63.43367,-59.9483c0,-33.10853 28.40022,-59.9483 63.43367,-59.9483c35.03345,0 63.43367,26.83977 63.43367,59.9483z" fill="#66ffff" stroke="#00a9ff" stroke-width="6"/><path d="M127.46115,169.07256c-0.89443,-1.78885 0.89443,-2.68328 0.89443,-2.68328l0.48021,-0.12536c2.11459,-2.11459 3.57964,-3.67391 5.25011,-6.19519c0,0 1.1094,-1.6641 2.7735,-0.5547c1.6641,1.1094 0.5547,2.7735 0.5547,2.7735c-1.81389,2.70581 -3.47549,4.53042 -5.74989,6.80481l-1.51979,0.87464c0,0 -1.78885,0.89443 -2.68328,-0.89443z" fill="#00a9ff" stroke="none" stroke-width="0.5"/><path d="M128.15,177.37814c-1.2,-1.6 0.4,-2.8 0.4,-2.8l1.8896,-1.41091c3.27345,-3.29013 6.29541,-5.37909 10.30266,-7.71665c0,0 1.72756,-1.00774 2.7353,0.71982c1.00774,1.72756 -0.71982,2.7353 -0.71982,2.7353c-3.82649,2.23212 -6.56936,4.16924 -9.69734,7.28335l-2.1104,1.58909c0,0 -1.6,1.2 -2.8,-0.4z" fill="#00a9ff" stroke="none" stroke-width="0.5"/></g></g></svg>