<svg version="1.1" xmlns="http://www.w3.org/2000/svg" xmlns:xlink="http://www.w3.org/1999/xlink" width="295" height="214" viewBox="0,0,295,214"><g transform="translate(-92.5,-73)"><g data-paper-data="{&quot;isPaintingLayer&quot;:true}" fill-rule="nonzero" stroke-linecap="butt" stroke-linejoin="miter" stroke-miterlimit="10" stroke-dasharray="" stroke-dashoffset="0" style="mix-blend-mode: normal"><path d="M96,283.5v-207h288v207z" fill="#00ffff" stroke="#ff0000" stroke-width="7"/><path d="M372.91421,116.41421c-1.41421,1.41421 -2.82843,0 -2.82843,0l-1,-1c-2.62442,-2.82922 -3.12528,-6.28183 -5.58437,-9.22166c-2.63439,4.65945 -5.14462,9.41726 -8.28576,13.83532l-0.9268,1.86655c0,0 -0.89443,1.78885 -2.68328,0.89443c-1.78885,-0.89443 -0.89443,-2.68328 -0.89443,-2.68328l1.0732,-2.13345c3.22706,-4.57867 5.81435,-9.50518 8.55441,-14.3162c-1.69218,-0.96465 -3.83682,-2.00757 -4.71795,-2.57208c-2.57385,-1.64898 -3.2185,-3.18464 -6.1208,-3.08384c0,0 -2,0 -2,-2c0,-2 2,-2 2,-2c3.8893,0.0846 5.03801,1.63802 8.2792,3.71616c1.61186,1.03347 3.0812,1.83866 4.45273,2.6962c1.32443,-2.20055 2.7206,-4.35351 4.26807,-6.41236c2.19002,-2.91374 2.94083,-5.06236 6.10557,-6.78885c0,0 1.78885,-0.89443 2.68328,0.89443c0.89443,1.78885 -0.89443,2.68328 -0.89443,2.68328c-2.20133,0.93002 -3.2347,3.66084 -4.69443,5.61115c-1.53928,2.0566 -2.92433,4.20875 -4.23845,6.4081c0.77545,0.7105 1.52713,1.53226 2.26598,2.53385c0.91513,1.24055 1.92904,2.44597 2.55553,3.8545c0.26977,0.60651 -0.24346,1.39277 0.0444,1.99091c0.30573,0.63527 1.05784,0.93229 1.58675,1.39843l1,1c0,0 1.41421,1.41421 0,2.82843z" fill="#ff0000" stroke="none" stroke-width="0.5"/><text transform="translate(249.75,144.67814) scale(0.5,0.5)" font-size="40" xml:space="preserve" fill="#000000" fill-rule="nonzero" stroke="none" stroke-width="1" stroke-linecap="butt" stroke-linejoin="miter" stroke-miterlimit="10" stroke-dasharray="" stroke-dashoffset="0" font-family="&quot;black&quot;, &quot;Microsoft YaHei&quot;, &quot;微软雅黑&quot;, STXihei, &quot;华文细黑&quot;" font-weight="normal" text-anchor="start" style="mix-blend-mode: normal"><tspan x="0" dy="0">火球</tspan></text><text transform="translate(231.75,188.17814) scale(0.5,0.5)" font-size="40" xml:space="preserve" fill="#000000" fill-rule="nonzero" stroke="none" stroke-width="1" stroke-linecap="butt" stroke-linejoin="miter" stroke-miterlimit="10" stroke-dasharray="" stroke-dashoffset="0" font-family="&quot;black&quot;, &quot;Microsoft YaHei&quot;, &quot;微软雅黑&quot;, STXihei, &quot;华文细黑&quot;" font-weight="normal" text-anchor="start" style="mix-blend-mode: normal"><tspan x="0" dy="0">僵王吐出的球，</tspan><tspan x="0" dy="48px">伤害极高!可以</tspan><tspan x="0" dy="48px">用玩家1的冰球</tspan><tspan x="0" dy="48px">缓解</tspan></text><path d="M216.2632,193.30752c0,25.42358 -21.80814,46.03347 -48.70983,46.03347c-26.9017,0 -48.70983,-20.60989 -48.70983,-46.03347c0,-25.42358 21.80814,-46.03347 48.70983,-46.03347c26.9017,0 48.70983,20.60989 48.70983,46.03347z" fill="#ff6666" stroke="#ff0000" stroke-width="6"/><path d="M215.85557,209.96699c-1.78885,-0.89443 -0.89443,-2.68328 -0.89443,-2.68328l0.39149,-0.73803c0.8737,-2.61647 2.59024,-5.37303 2.91235,-8.11191c0.52717,-4.48237 0.34072,-8.80736 1.55202,-13.26897c1.27699,-4.7036 3.54362,-9.76539 3.94273,-14.68374c0.18414,-2.26923 1.1691,-8.71768 -1.90562,-9.8425c-0.0681,-0.02491 -0.13583,-0.04464 -0.20321,-0.05953l0.01332,0.01332l-2,2l-0.70927,-0.70927c-0.4878,0.42875 -0.97417,0.86406 -1.47031,1.14282l-0.42659,-1.84776h-0.80804v-3.5c0,-1.61384 0.00218,-3.22769 0.00843,-4.84152c-2.68172,-0.96827 -3.38538,-5.87466 -0.57279,-6.20888c-1.19795,-4.99643 -1.80506,-9.97781 -3.77464,-14.88874c-0.87388,-2.17891 -1.52758,-4.60004 -3.31778,-6.29313c-0.87517,-0.8277 -2.07251,-1.23253 -3.06002,-1.92234c-0.81332,-0.56814 -1.40069,-1.51135 -2.33463,-1.84605c-0.33552,-0.12024 -0.56275,0.44818 -0.78211,0.72909c-0.67617,0.86589 -1.38942,1.72148 -1.89372,2.69752c-1.63468,3.16384 -2.28902,6.68133 -2.99094,10.17761l0.46381,0.02899l-0.2486,3.9776c-0.05717,1.05334 -0.92941,1.88986 -1.99702,1.88986c-0.8326,0 -1.54638,-0.50877 -1.84739,-1.23238l-0.92903,-2.09914l0.05227,-0.02313l-0.10791,-0.11657c-1.70348,-6.21427 -2.8485,-12.68621 -5.23077,-18.69525c-0.37257,-0.93977 -1.73795,-4.1105 -2.99158,-4.83427c-0.22371,-0.12916 -0.13079,0.51168 -0.2798,0.72268c-0.67959,0.96232 -1.56255,1.77694 -2.1897,2.77423c-2.33349,3.71069 -3.64535,7.84059 -5.16815,11.8862l0.43768,0.08754l-0.7772,3.88599c-0.16789,0.93478 -0.98533,1.6441 -1.96843,1.6441c-1.05634,0 -1.92141,-0.81894 -1.99494,-1.85657l-0.16572,-2.04087c-1.30811,-5.07067 -1.76865,-10.25069 -3.27111,-15.29593c-0.14352,-0.48195 -1.07951,-4.60651 -2.89287,-4.31433c-0.57512,0.09267 -3.01156,3.69452 -3.23982,4.01027c-2.92044,4.03989 -4.2836,8.53991 -5.8404,13.06329l0.36389,0.05677l-0.61174,3.9212c-0.135,0.97333 -0.97045,1.72271 -1.98093,1.72271c-0.99421,0 -1.81898,-0.72544 -1.97387,-1.67587l-0.69574,-3.81868c-0.97497,-3.24218 -2.38663,-5.89039 -3.51988,-9.05667c-0.25592,-0.71502 0.07957,-1.72942 -0.49727,-2.22339c-0.48052,-0.41149 0.2892,1.28685 0.11322,1.89451c-0.70818,2.44528 -2.30606,4.54129 -3.35517,6.86084c-1.57398,3.48004 -3.34802,7.21789 -4.52874,10.84939c-0.40027,1.2311 -1.1095,6.20108 -1.49579,6.98635c-0.02503,0.05089 -0.05074,0.10135 -0.07708,0.15141l0.0209,0.00836l-0.9827,2.45674c-0.28362,0.75958 -1.01577,1.30047 -1.87426,1.30047c-0.9518,0 -1.74832,-0.66487 -1.95043,-1.55552l-0.48384,-1.93537c-1.27629,-4.47919 -3.22596,-8.66078 -4.69818,-13.08193c-0.60973,-1.83104 -1.5899,-4.22538 -1.75929,-6.27812c-0.04582,-0.5553 0.56759,-2.00672 0.12611,-1.66679c-0.5988,0.46106 -0.35514,1.49344 -0.74321,2.14193c-1.94358,3.24791 -4.14651,5.98856 -5.61977,9.58141c-1.2241,2.98523 -1.98845,6.08751 -2.87139,9.17761v0.28209l0.35393,0.03218l-0.3603,3.96326c-0.07621,0.95815 -0.82769,1.72609 -1.77844,1.8278c-1.13963,6.56065 -3.04509,13.19647 -2.23018,19.76708c0.49874,4.02136 2.46501,7.43314 2.99954,11.4963c0,0 0.24807,1.98456 -1.73649,2.23263c-1.98456,0.24807 -2.23263,-1.73649 -2.23263,-1.73649c-0.47407,-4.04266 -2.49179,-7.4587 -3.00046,-11.5037c-1.07753,-8.56865 2.05252,-17.24492 2.94819,-25.73087l0.21375,-0.24631l-0.11135,-0.04869l1.08361,-2.47783c0.18072,-0.44001 0.51378,-0.80135 0.93355,-1.01838c0.13772,-0.35985 0.26874,-0.7202 0.36403,-1.0833c1.56287,-5.95509 3.45544,-12.58693 7.9736,-17.07801c1.3255,-1.31755 2.4867,-3.73976 4.34527,-3.54325c2.97335,0.31438 3.10904,4.97869 3.66737,6.96895c1.19853,4.27236 2.9793,8.31774 4.49791,12.46068c1.37663,-6.23626 4.34731,-12.27295 7.14455,-17.99623c0.58619,-1.19936 3.37968,-7.45613 4.74493,-7.44304c1.99873,0.01917 3.10052,2.57975 4.30273,4.17661c0.93715,1.24478 1.70573,3.04073 2.34986,4.89248c1.10487,-3.47175 3.40882,-6.9122 5.2211,-9.4183c1.31573,-1.81945 3.67061,-5.5297 6.13055,-5.65117c4.67911,-0.23105 5.96147,3.88589 7.05076,7.07192c0.88882,2.59967 1.4068,5.28348 1.87482,7.97779c1.14693,-2.73741 2.73665,-5.47504 3.8514,-7.209c0.54714,-0.85106 3.95505,-5.7131 5.95279,-5.34767c3.64994,0.66766 5.38852,4.45651 6.58613,7.32115c1.47168,3.52017 2.4551,7.24779 3.35887,10.99041c0.5396,-1.86136 1.36333,-3.66724 2.22785,-5.23825c0.92924,-1.68863 3.55251,-5.82365 6.32417,-5.57339c1.67527,0.15126 2.95599,1.60866 4.3948,2.48001c7.63598,4.62439 9.61721,13.62174 11.41224,21.86068c0.36078,1.65595 1.14814,4.95352 1.1365,6.51687c-0.00609,0.81809 0.18072,1.84856 -0.00884,2.64254c0.00863,1.94765 0.01296,3.89533 0.01374,5.843c1.51012,-0.97134 3.99897,0.04895 5.53564,1.87474c2.73053,3.2443 2.28893,8.05738 1.95476,11.97857c-0.43877,5.14854 -2.70787,10.39178 -4.05727,15.31626c-1.17575,4.29079 -0.88807,8.4358 -1.44798,12.73103c-0.40171,3.08162 -2.11233,5.95664 -3.08765,8.88809l-0.60851,1.26197c0,0 -0.89443,1.78885 -2.68328,0.89443z" fill="#ff6666" stroke="none" stroke-width="0.5"/></g></g></svg>