<svg version="1.1" xmlns="http://www.w3.org/2000/svg" xmlns:xlink="http://www.w3.org/1999/xlink" width="120.474" height="220.29428" viewBox="0,0,120.474,220.29428"><g transform="translate(-177.80825,-55.52761)"><g data-paper-data="{&quot;isPaintingLayer&quot;:true}" fill-rule="nonzero" stroke-linecap="butt" stroke-linejoin="miter" stroke-miterlimit="10" stroke-dasharray="" stroke-dashoffset="0" style="mix-blend-mode: normal"><path d="M290.75,124.67813c0,22.36753 -18.35633,40.5 -41,40.5c-22.64367,0 -41,-18.13247 -41,-40.5c0,-22.36753 18.35633,-40.5 41,-40.5c22.64367,0 41,18.13247 41,40.5z" fill="none" stroke="#000000" stroke-width="5"/><path d="M189.25,176.67814c0,-2.40919 2.32168,-2.4967 2.49034,-2.49988c2.57611,-1.0957 5.83666,-2.47531 8.53689,-2.95501c0.33921,-0.06026 6.64856,-0.04511 6.97277,-0.04511c5.5,0 11,0 16.5,0c4.58848,0 9.26553,0.25872 13.84466,0.00483c2.60847,-0.14463 5.1394,-0.44536 7.68838,-0.68032c-15.1106,-4.65494 -31.55398,-10.48322 -47.28669,-7.33667l-3.24634,0.01217c0,0 -2.5,0 -2.5,-2.5c0,-2.5 2.5,-2.5 2.5,-2.5l2.75366,0.01217c16.42386,-3.28477 33.48572,2.74869 49.23709,7.54607c0.07216,-0.33113 0.2301,-0.68602 0.50926,-1.05823c1.5,-2 3.5,-0.5 3.5,-0.5c0.88373,0.74209 2.10488,1.20979 2.65119,2.22627c1.3529,2.51724 1.233,6.64534 1.81653,9.37328c0.33074,1.54616 1.17942,2.9517 1.5,4.5c0.75404,3.64178 0.03228,8.18219 0.03228,11.90046c0,3.9513 0.6031,8.50655 -0.03228,12.40046c-0.32821,2.01143 -0.86247,3.92895 -1.57997,5.76174c2.25269,0.8222 1.48396,3.12837 1.48396,3.12837c-1.27564,3.68286 -0.87171,7.31848 -0.87171,11.20943c0,5.84048 0.71794,10.6212 1.92679,16.38711c0.32157,1.5338 1.17803,6.17671 2.17514,7.75942c1.78036,2.82597 5.02611,5.74622 7.26088,8.18616c3.71159,4.05232 5.83065,8.11234 10.38428,11.3791c0.49271,0.66685 1.06688,1.28406 1.69937,1.83368c0.16935,-0.02947 0.35343,-0.04548 0.55353,-0.04548c2.5,0 2.5,2.5 2.5,2.5l-3.78624,3.14373c-1.67126,-1.03422 -3.27123,-2.29108 -4.46086,-3.85553c-4.63803,-3.29805 -6.85789,-7.52483 -10.61572,-11.6209c-1.79781,-1.95963 -3.45047,-4.0489 -5.10769,-6.12877c-0.78093,-0.98009 -1.98346,-1.61241 -2.63142,-2.68507c-1.54625,-2.55973 -2.26107,-6.5837 -2.8637,-9.43477c-1.54392,-7.3044 -3.07046,-15.92443 -2.22783,-23.79923c-0.09441,0.12202 -0.18968,0.24363 -0.28582,0.36482c-6.39498,2.7648 -13.29696,4.39469 -19.17333,8.12155c-12.24394,7.76524 -15.79326,23.7455 -15.87967,37.29462l-1,3v2.5l-1,3l0.03228,2.09954h-5l0.03228,-2.90046l1,-3v-2.5l1,-3c-0.10605,-15.00383 4.80927,-32.20956 18.12033,-40.70538c5.7157,-3.64806 12.4433,-5.65972 18.82667,-7.87845c4.77989,-7.12706 4.52072,-14.21699 4.52072,-22.51571c0,-3.41938 0.77233,-7.77195 0.03228,-11.09954c-0.34325,-1.54343 -1.16814,-2.95408 -1.5,-4.5c-0.09163,-0.42684 -0.15365,-0.8947 -0.2036,-1.38551c-4.12629,0.10635 -8.0405,0.75019 -12.17334,0.98022c-4.68228,0.26061 -9.46344,0.00483 -14.15534,0.00483c-5.5,0 -11,0 -16.5,0c-2.00913,0 -4.05241,-0.41484 -6.02723,-0.04511c-2.55636,0.47861 -5.6227,1.81866 -7.98797,2.84297l-1.4848,0.20214c0,0 -2.5,0 -2.5,-2.5z" fill="#000000" stroke="none" stroke-width="0.5"/><path d="M229.25,132.17814c-2.5,0 -2.5,-2.5 -2.5,-2.5l0.17881,-1.42848c1.8762,-4.42744 0.80707,-10.54702 1.33648,-15.3476c0,0 0.27608,-2.48471 2.76079,-2.20863c2.48471,0.27608 2.20863,2.76079 2.20863,2.76079c-0.61908,5.5278 0.32975,11.45567 -1.66352,16.6524l0.17881,-0.42848c0,0 0,2.5 -2.5,2.5z" fill="#000000" stroke="none" stroke-width="0.5"/><path d="M245.96376,132.32186c-2.14373,-1.28624 -0.85749,-3.42997 -0.85749,-3.42997l1.42212,-2.36025c1.48986,-3.41873 3.01571,-6.819 4.40042,-10.28199c0,0 0.92848,-2.32119 3.24967,-1.39272c2.32119,0.92848 1.39272,3.24967 1.39272,3.24967c-1.44496,3.61119 -3.03603,7.15695 -4.59958,10.71801l-1.57788,2.63975c0,0 -1.28624,2.14373 -3.42997,0.85749z" fill="#000000" stroke="none" stroke-width="0.5"/><path d="M253.75,142.17814c0,2.5 -2.5,2.5 -2.5,2.5h-2.5c-2.49245,0 -4.95181,-0.19556 -7.39737,0.42628c-2.07953,0.52877 -4.21411,1.27698 -6.34897,1.06155c-3.38495,-0.34157 -5.71751,-2.15067 -8.5399,-3.8441c0,0 -2.14373,-1.28624 -0.85749,-3.42997c1.28624,-2.14373 3.42997,-0.85749 3.42997,-0.85749c1.54474,0.92685 2.95324,2.11696 4.61525,2.81193c2.39587,1.00182 4.20082,-0.0299 6.49588,-0.59448c2.88727,-0.71026 5.66959,-0.57372 8.60263,-0.57372h2.5c0,0 2.5,0 2.5,2.5z" fill="#000000" stroke="none" stroke-width="0.5"/><path d="M249.86325,158.75827c-2.08013,-1.38675 -0.69338,-3.46688 -0.69338,-3.46688l0.70842,0.67732c-0.28091,-0.87677 -0.44625,-1.79938 -0.84274,-2.6303c-0.47901,-1.00385 -1.67796,-1.72352 -1.76397,-2.83247c-0.15994,-2.06214 1.82409,-4.91988 2.83468,-6.61404c0,0 1.28624,-2.14373 3.42997,-0.85749c2.14373,1.28624 0.85749,3.42997 0.85749,3.42997c-0.46804,0.77489 -0.9164,1.56201 -1.40412,2.32467c-0.23455,0.36677 -0.85191,0.6355 -0.7612,1.0613c0.11809,0.55432 0.97161,0.66624 1.23603,1.16753c0.55409,1.05045 0.77151,2.24646 1.15726,3.3697l-1.29158,3.67732c0,0 -1.38675,2.08013 -3.46688,0.69338z" fill="#ff0000" stroke="none" stroke-width="0.5"/><path d="M244.25,128.17814c0,-1.38071 1.11929,-2.5 2.5,-2.5c1.38071,0 2.5,1.11929 2.5,2.5c0,1.38071 -1.11929,2.5 -2.5,2.5c-1.38071,0 -2.5,-1.11929 -2.5,-2.5z" fill="#ff0000" stroke="none" stroke-width="0.5"/><path d="M224.25,129.67814c0,-1.38071 1.11929,-2.5 2.5,-2.5c1.38071,0 2.5,1.11929 2.5,2.5c0,1.38071 -1.11929,2.5 -2.5,2.5c-1.38071,0 -2.5,-1.11929 -2.5,-2.5z" fill="#ff0000" stroke="none" stroke-width="0.5"/><path d="M261.72171,78.0327c-1.11803,2.23607 -3.3541,1.11803 -3.3541,1.11803l-0.96041,-0.48451c-1.61786,-0.96092 -3.4846,-1.58316 -5.35543,-1.78514c0,0 -0.78529,-0.09816 -1.41698,-0.62586c-0.19632,0.50998 -0.42981,1.00222 -0.70694,1.47215c-0.602,1.02081 -1.34079,1.95331 -2.07735,2.88697c0.39103,-0.07194 0.7835,-0.16938 1.17758,-0.30074c10.26108,-0.09936 20.34212,0.16347 28.98724,6.22691c3.87832,2.72014 7.70109,5.43154 11.21371,8.62556c0.91101,0.82838 1.94409,1.57666 2.61474,2.60933c0.05939,0.09145 0.08695,0.24246 0.09504,0.41384c0.88406,-6.98759 3.15145,-15.26786 -1.20125,-21.27223c-5.77656,-5.04998 -12.17656,-7.00762 -18.99661,-10.18041c-3.57174,-1.66163 -6.92392,-3.55253 -10.77941,-4.58075c-12.59404,-3.3587 -26.14084,-1.19021 -38.27475,3.50766l-0.38024,0.68421c-1.27005,2.52162 -2.27252,5.16372 -3.05216,7.87925c1.02312,1.33928 -0.04434,2.86422 -0.04434,2.86422c-0.35318,0.49906 -0.67684,0.97807 -0.97338,1.44176c-0.21031,1.64213 -0.03947,3.38593 -0.74785,4.86769c-0.03913,0.08184 -0.07927,0.16311 -0.12037,0.24382l0.03912,0.01467l-1.23665,3.29772c-0.18985,0.54467 -0.56284,1.00351 -1.0452,1.30276c-0.05563,1.01181 -0.07326,2.10573 -0.07326,3.32168c0,1.11746 0.03988,2.23562 0,3.35237c-0.02362,0.6615 -0.12717,1.31771 -0.1903,1.97661c-0.01779,0.1857 -0.19231,0.68065 -0.05245,0.55719c5.33924,-4.71291 11.34496,-8.38692 17.54583,-12.05011c1.08324,-0.63993 6.92425,-3.99804 7.64592,-4.21801c0.50893,-0.15513 1.0183,-0.25288 1.52854,-0.31356c1.18564,-1.97871 2.78676,-3.68756 4.04685,-5.6219c0.15702,-0.24104 0.29404,-0.49998 0.41332,-0.77402c-2.90028,-0.05962 -5.80368,-0.10374 -8.71398,-0.10374c0,0 -0.15736,0 -0.39313,-0.03948c-0.1444,0.02594 -0.2931,0.03948 -0.44496,0.03948c-1.38071,0 -2.5,-1.11929 -2.5,-2.5c0,-1.38071 1.11929,-2.5 2.5,-2.5c0.15186,0 0.30057,0.01354 0.44496,0.03948c0.23577,-0.03948 0.39313,-0.03948 0.39313,-0.03948c3.15851,0 6.30924,0.05198 9.45672,0.11933c-0.01336,-2.00183 -0.22343,-4.02989 -0.22343,-5.58121c0,0 0,-2.5 2.5,-2.5c0.98027,0 1.57616,0.38437 1.93841,0.85168c1.25747,0.13107 2.23778,1.19426 2.23778,2.48641c0,1.0653 -0.66631,1.97497 -1.60491,2.33499c0.0242,0.82937 0.0442,1.67416 0.03976,2.52003c4.15624,0.09705 8.31095,0.18781 12.47462,0.18781h2.09523c0,0 2.5,0 2.5,2.5c0,2.5 -2.5,2.5 -2.5,2.5h-2.09523c-1.10267,0 -2.20465,-0.00636 -3.30616,-0.01752c0.51199,0.33048 1.84918,1.41216 0.93273,3.24506zM223.40465,59.22457c0.3088,0.17156 0.54973,0.36251 0.73579,0.56394c12.22742,-4.2072 25.61586,-5.79492 38.05975,-2.47681c4.16229,1.10986 7.80597,3.09928 11.66117,4.89677c3.04833,1.42129 6.36869,2.21312 9.39434,3.68208c4.08183,1.98173 7.79216,4.6966 11.18731,7.66941c4.41581,6.24373 4.3389,13.48732 3.12996,20.93184c-0.47285,2.91175 -1.61928,8.5636 -5.05497,9.62242c-1.61113,0.49653 -2.88587,-1.75945 -4.20975,-2.8033c-2.67631,-2.11021 -5.01419,-4.78316 -7.71387,-6.90652c-2.79493,-2.19828 -6.1827,-4.70655 -9.24213,-6.4566c-2.58953,-1.48126 -6.14279,-1.33813 -8.97329,-1.8709c-4.25413,-0.80074 -8.19269,-0.77233 -12.54997,-0.82787c-2.1984,0.7328 -4.54658,0.30224 -6.70614,0.45437c-0.1649,0.03545 -0.34003,0.05468 -0.5227,0.04959c-0.45938,0.05582 -0.90868,0.14545 -1.34449,0.28649c-5.04632,1.63315 -10.36493,6.10885 -14.79767,8.9132c-2.13292,1.34938 -4.28204,2.67297 -6.42034,4.01381c-1.85202,1.16132 -3.36619,3.52233 -5.55197,3.49046c-4.9265,-0.07183 -4.36285,-4.84538 -4.43322,-7.5233c-0.08899,-3.38673 -0.34946,-7.04145 0.1534,-10.50641l-0.03086,-0.03473c-0.77635,-4.40341 -2.20973,-9.16001 -2.21395,-13.62529c-0.00129,-1.36678 -0.40058,-2.99984 0.44136,-4.07651c1.00475,-1.28488 2.93859,-1.4165 4.40789,-2.12475c2.07037,-1.03851 4.20274,-2.01331 6.38403,-2.91021l0.8108,-1.4599c0,0 1.21411,-2.18539 3.3995,-0.97129zM213.67305,75.85813c0.57283,-2.46905 1.29837,-4.87867 2.1929,-7.22785c-0.35414,0.17114 -0.70651,0.34413 -1.05704,0.51888c-0.76562,0.12984 -1.66756,-0.06546 -2.29685,0.38953c-0.28346,0.20495 0.37722,0.60818 0.44136,0.95204c0.21524,1.15391 0.19375,2.34242 0.38906,3.49987c0.1053,0.62405 0.21644,1.24626 0.33057,1.86753z" fill="#ff0000" stroke="none" stroke-width="0.5"/><path d="M277.65592,155.80581c2.40381,-0.6868 3.09061,1.71701 3.09061,1.71701l0.91012,3.27337c0.03472,4.11052 0.34268,7.59028 1.24079,11.63177c0.48693,3.48095 1.33783,4.26463 2.74296,7.36081c1.34958,2.97378 1.84334,6.69365 2.29997,9.90773c1.45187,10.21927 0.81796,20.84367 1.69256,31.14918c0.49685,5.85441 1.10043,11.73855 1.67103,17.548c0.57193,5.82294 2.10624,11.06462 2.11016,17.03464c0,2.34842 0.75922,8.17263 -1.30311,9.86943c-1.1809,0.9716 -3.0239,0.4838 -4.54926,0.59245c-4.31372,0.30726 -8.66794,-0.93748 -12.84478,-1.84516c-8.5855,-1.86575 -17.19535,-3.53899 -25.79549,-5.33058c-2.96731,-0.61815 -7.73382,-1.24828 -10.08439,-3.21859c-1.79039,-1.50075 -1.41136,-5.08578 -1.89306,-7.01232c-0.13335,-0.53332 -0.27255,-1.00747 -0.40909,-1.43982c-0.13793,1.91249 -0.3166,3.81796 -1.20541,5.71567c-1.56638,3.34439 -5.46189,5.72123 -8.39986,7.68238c-5.00495,3.3409 -8.83917,5.19853 -14.61264,6.63185c-2.14896,0.5335 -5.02379,2.31324 -7.26919,0.30045c-1.31054,-1.17478 -1.40105,-5.62966 -1.27629,-7.49028c0.52304,-7.8003 2.10824,-15.20829 2.9757,-22.95758c1.23136,-4.33645 2.62076,-9.03025 5.64452,-12.52693c4.54389,-5.25454 11.48426,-4.96572 16.71792,-8.71321c1.89133,-1.35426 4.51318,-5.03105 5.66272,-6.91174c3.59754,-5.88571 6.45182,-12.35893 9.30655,-18.63303c0.66167,-1.45421 1.45251,-2.84649 2.14651,-4.2855c-11.08096,4.19615 -22.00424,8.52171 -33.96811,9.58414c-5.11984,0.45466 -10.07685,1.24485 -15.20812,0.43445c-5.66551,-0.89477 -11.6606,-3.98787 -16.11388,-7.54914c-1.12508,-0.89972 -2.78858,-1.63731 -3.05976,-3.05215c-0.34017,-1.77485 0.67892,-3.59456 1.47488,-5.21698c2.69167,-5.48656 9.66938,-8.34982 15.34611,-9.16797c0.44258,0.04196 0.95339,0.36567 1.32773,0.12587c0.2641,-0.16918 -0.64334,-0.19254 -0.82877,-0.44549c-1.45481,-1.98452 -2.46668,-4.26977 -3.92237,-6.25364c-1.30654,-1.7806 -3.83611,-2.43019 -5.07677,-4.25731c-1.5192,-2.23731 -0.98922,-7.10409 0.96497,-8.87236c1.31291,-1.188 7.65262,-0.50413 9.46737,-0.50413c8.01229,0 15.71342,0.54221 23.69292,1.26741c0,0 2.48973,0.22634 2.26339,2.71607c-0.22634,2.48973 -2.71607,2.26339 -2.71607,2.26339c-7.83487,-0.71247 -15.37413,-1.24687 -23.24024,-1.24687c-1.81587,0 -3.65004,0.25722 -5.4476,0c-0.37212,-0.05325 -0.69665,-0.7136 -1.00879,-0.50413c-0.56099,0.37647 -0.38376,1.58047 0.12687,2.02284c0.69471,0.60184 1.7799,0.60293 2.48787,1.18911c0.98852,0.81848 1.71405,1.91414 2.49247,2.9345c0.93667,1.2278 4.18377,6.44821 4.45855,7.15583c0.56238,1.44822 1.55441,3.19967 0.84741,4.58306c-0.79652,1.55856 -3.02595,1.7601 -4.53892,2.64015c-4.94129,0.69953 -9.37716,2.69573 -12.31093,6.75578c-0.35432,0.49034 -1.07025,0.88359 -1.0394,1.48776c0.01989,0.38945 0.78619,0.11753 1.1307,0.30022c1.11477,0.59115 2.13585,1.34433 3.21224,2.0028c4.71729,2.88578 9.37684,5.10857 15.04044,5.07955c16.58191,-0.08496 31.3506,-6.10801 46.61607,-11.73748l2.69992,-1.05939c0.29726,-0.12468 0.6237,-0.19356 0.96623,-0.19356c1.38071,0 2.5,1.11929 2.5,2.5c0,0.62635 -0.23034,1.1989 -0.61093,1.63756l-2.30913,2.69398c-2.80891,6.55905 -5.73819,13.03565 -9.52209,19.06909c-1.41438,2.25523 -2.03744,4.94267 -3.42538,7.21426c-1.25785,2.05867 -2.84373,3.90264 -4.39428,5.7509c-4.88256,5.82 -13.63268,4.9478 -18.53448,10.587c-2.37324,2.73026 -3.43642,6.71108 -4.41258,10.10157c-0.70754,6.41682 -2.15479,12.47602 -2.4719,18.91848c-0.09431,1.91606 -0.97277,4.88932 -0.85725,6.78584c0.01519,0.24937 0.25178,-0.46853 0.47582,-0.57908c0.73101,-0.36073 1.52163,-0.59754 2.3121,-0.79665c2.31619,-0.58342 4.86514,-0.82056 7.04708,-1.91474c3.48937,-1.74981 10.92857,-5.96991 12.68312,-9.75189c1.18591,-2.55625 0.15502,-4.57408 0.62199,-7.30546c0.22272,-1.30273 0.90161,-2.48456 1.35507,-3.72613l0.81011,-2.43033c0.31417,-1.02156 1.26534,-1.76412 2.38994,-1.76412c1.0731,0 1.98829,0.67611 2.34282,1.62559l1.65456,4.13639l-0.36542,0.14617c0.87478,1.73584 1.51997,3.53912 2.14783,6.0509c0.27681,1.10742 0.28078,2.26567 0.4297,3.3974c0.05816,0.44198 -0.18495,1.08483 0.19151,1.32357c2.95434,1.87354 9.0718,2.19885 12.38214,2.85307c7.01145,1.38567 13.99209,2.77928 20.97671,4.29762c4.01656,0.87313 7.79259,1.20765 11.78283,1.73109c0.4774,0.06263 0.85095,0.71191 1.31739,0.59245c0.30106,-0.0771 -0.4107,-0.50554 -0.4565,-0.81293c-0.25747,-1.72806 -0.00852,-3.49426 -0.00852,-5.2414c0.00401,-5.79849 -1.50451,-10.82482 -2.0803,-16.48905c-0.59333,-5.83682 -1.18454,-11.76769 -1.68134,-17.65188c-0.5533,-6.55335 -0.94105,-13.22614 -1.26397,-19.7947c-0.22626,-4.60238 0.11591,-8.91852 -0.79514,-13.47301c-1.05974,-5.29779 -3.83941,-9.36852 -4.61488,-14.69518c-0.90314,-4.06415 -1.31968,-7.69144 -1.27349,-11.83481l-0.76607,-2.59327c0,0 -0.6868,-2.40381 1.71701,-3.09061z" fill="#ff0000" stroke="none" stroke-width="0.5"/><path d="M217.48945,121.42514c-1.76777,-1.76777 0,-3.53553 0,-3.53553l1.46317,-1.44154c0.53543,-0.38464 1.05853,-0.78705 1.60628,-1.15393c0.16366,-0.10962 0.67315,-0.14423 0.5241,-0.27302c-0.67918,-0.58683 -1.97906,-0.49226 -2.35378,-1.30788c-1.13725,-2.47532 0.03624,-5.69876 0.61692,-8.07168c0,0 0.60634,-2.42536 3.0317,-1.81902c2.42536,0.60634 1.81902,3.0317 1.81902,3.0317c-0.26073,1.01716 -0.54157,2.02938 -0.78218,3.05149c-0.11262,0.47842 -0.55525,1.04301 -0.27708,1.44822c0.63513,0.92519 2.42955,0.94939 2.67477,2.04449c0.87426,3.90428 -1.49946,5.05106 -3.73627,6.95397l-1.05111,1.07273c0,0 -1.76777,1.76777 -3.53553,0z" fill="#00daff" stroke="none" stroke-width="0.5"/><path d="M272.89512,248.7093c-2.5,0 -2.5,-2.5 -2.5,-2.5l0.15918,-2.55399c0.51984,-1.30729 0.73654,-2.78085 1.55952,-3.92188c0.46875,-0.64991 1.79035,-0.42311 2.10568,-1.15978c0.20745,-0.48463 -0.9099,-0.62183 -1.14004,-1.0961c-0.46971,-0.96798 -0.58289,-2.07156 -0.89648,-3.10077c-1.14892,-3.77078 -1.19589,-6.55937 0.01661,-10.3294c0,0 0.79057,-2.37171 3.16228,-1.58114c2.37171,0.79057 1.58114,3.16228 1.58114,3.16228c-1.30545,3.73678 -0.37408,6.39669 0.79632,10.03641c0.42507,1.32189 1.67569,2.57702 1.37424,3.93245c-0.3047,1.37002 -2.14408,1.86309 -2.92287,3.03069c-0.54418,0.81586 -0.63651,1.85524 -0.95476,2.78286l0.15918,0.79838c0,0 0,2.5 -2.5,2.5z" fill="#00daff" stroke="none" stroke-width="0.5"/><path d="M211.06359,229.77758c-2.42536,0.60634 -3.0317,-1.81902 -3.0317,-1.81902l-0.49369,-2.28252c0.0332,-1.96183 0.67373,-3.87888 1.27508,-5.74656c0.09131,-0.28359 0.15428,-0.68284 -0.05798,-0.89191c-0.82476,-0.81238 -2.18137,-1.03599 -2.8551,-1.97742c-0.75225,-1.05116 -0.79942,-2.45849 -1.19914,-3.68774c0,0 -0.6868,-2.40381 1.71701,-3.09061c2.40381,-0.6868 3.09061,1.71701 3.09061,1.71701c0.15902,0.7263 0.0146,1.59672 0.47705,2.17891c0.77483,0.97546 2.37287,1.14348 3.01155,2.21305c2.15504,3.60893 -0.54704,5.81975 -0.45908,9.28528l0.3444,1.06985c0,0 0.60634,2.42536 -1.81902,3.0317z" fill="#00daff" stroke="none" stroke-width="0.5"/><path d="M283.64948,141.30867c-1.11803,-2.23607 1.11803,-3.3541 1.11803,-3.3541l-0.21448,0.57667c1.78095,-3.11455 4.13987,-6.49632 5.58672,-9.73067c0.70532,-1.5767 -2.53222,-2.97701 -2.69639,-3.3718c-1.37164,-3.29841 -0.4221,-7.48059 -1.44735,-10.95124c0,0 -0.6868,-2.40381 1.71701,-3.09061c2.40381,-0.6868 3.09061,1.71701 3.09061,1.71701c0.58104,2.0898 0.88117,4.27168 0.93171,6.44016c0.02768,1.1875 -0.36801,2.48494 0.13521,3.5609c0.45379,0.97028 2.02482,1.07106 2.48379,2.03891c0.67083,1.41461 1.02086,3.11691 0.68647,4.6464c-0.40077,1.83309 -1.88268,3.24706 -2.77329,4.89862c-1.13385,2.10262 -2.18865,4.24858 -3.37328,6.32302l-1.89067,1.41477c0,0 -2.23607,1.11803 -3.3541,-1.11803z" fill="#00daff" stroke="none" stroke-width="0.5"/><path d="M286.31265,89.43776c-2.46598,-0.411 -2.05499,-2.87698 -2.05499,-2.87698l0.45875,-2.70591c1.2022,-3.58586 0.88012,-7.11712 1.63475,-10.69302c0.1218,-0.57715 1.03613,-0.97267 0.87269,-1.53944c-0.18579,-0.64425 -1.22864,-0.62965 -1.64887,-1.15213c-0.77515,-0.96373 -1.24002,-2.14031 -1.86003,-3.21046c0,0 -1.24035,-2.17061 0.93026,-3.41096c2.17061,-1.24035 3.41096,0.93026 3.41096,0.93026c1.13942,2.02802 3.43538,3.44666 4.03393,5.69452c0.30709,1.15329 -0.64472,2.30624 -0.8035,3.48911c-0.50826,3.78659 -0.48685,7.38441 -1.71762,11.09737l-0.37934,2.32264c0,0 -0.411,2.46598 -2.87698,2.05499z" fill="#00daff" stroke="none" stroke-width="0.5"/><path d="M206.31431,184.46695c-2.37171,-0.79057 -1.58114,-3.16228 -1.58114,-3.16228l0.77668,-2.29809c0.48548,-2.86033 -0.6763,-4.68157 -0.89868,-7.62932c-0.29116,-3.85941 0.07012,-7.43621 0.89134,-11.1957c0,0 0.54233,-2.44047 2.98279,-1.89814c2.44047,0.54233 1.89814,2.98279 1.89814,2.98279c-0.7461,3.29276 -1.00996,6.37371 -0.78485,9.7566c0.2378,3.57358 1.25378,5.39673 0.7775,9.13253l-0.89951,2.73046c0,0 -0.79057,2.37171 -3.16228,1.58114z" fill="#00daff" stroke="none" stroke-width="0.5"/></g></g></svg>