<svg version="1.1" xmlns="http://www.w3.org/2000/svg" xmlns:xlink="http://www.w3.org/1999/xlink" width="131.77026" height="142.33333" viewBox="0,0,131.77026,142.33333"><g transform="translate(-180.01224,-110.66667)"><g data-paper-data="{&quot;isPaintingLayer&quot;:true}" fill-rule="nonzero" stroke-linecap="butt" stroke-linejoin="miter" stroke-miterlimit="10" stroke-dasharray="" stroke-dashoffset="0" style="mix-blend-mode: normal"><path d="M292.5,200.83333c0,8.8151 18.9938,9.56691 15.95275,17.27947c-5.49102,13.92604 -28.77607,-7.78274 -41.39485,-0.28043c-0.36287,0.21574 10.93872,21.42807 10.57148,21.63695c-9.55225,5.43314 -18.5678,10.53068 -30.29604,10.53068c-12.07998,0 -1.40387,-23.28612 -11.15149,-29.02578c-8.60911,-5.06928 -39.98867,5.94757 -45.57361,-2.37586c-7.22067,-10.76121 16.2251,-12.09608 16.2251,-26.09836c0,-8.12756 -26.24457,-27.58462 -23.6392,-34.79543c3.49904,-9.68418 32.13234,2.67703 39.32142,-4.32917c11.88952,-11.58707 5.03435,-39.70873 22.81777,-39.70873c16.03689,0 13.07458,29.45817 24.52741,39.0932c9.10725,7.66174 33.8251,-5.91279 37.8553,5.63023c2.26538,6.48835 -17.3988,20.6918 -21.08504,29.47152c-0.30098,0.71687 5.869,12.37758 5.869,12.97171z" fill="#ff8800" stroke="#ff8800" stroke-width="6"/><path d="M269.5,184c0,13.25483 -10.52131,24 -23.5,24c-12.97869,0 -23.5,-10.74517 -23.5,-24c0,-13.25483 10.52131,-24 23.5,-24c12.97869,0 23.5,10.74517 23.5,24z" fill="#e5ff1d" stroke="none" stroke-width="0"/><path d="M274.5,208.5c0,-0.27614 0.67157,-0.5 1.5,-0.5c0.82843,0 1.5,0.22386 1.5,0.5c0,0.27614 -0.67157,0.5 -1.5,0.5c-0.82843,0 -1.5,-0.22386 -1.5,-0.5z" fill="#e5ff1d" stroke="none" stroke-width="0"/></g></g></svg>