<svg version="1.1" xmlns="http://www.w3.org/2000/svg" xmlns:xlink="http://www.w3.org/1999/xlink" width="94.5" height="155.5" viewBox="0,0,94.5,155.5"><g transform="translate(-192.75,-102.25)"><g data-paper-data="{&quot;isPaintingLayer&quot;:true}" fill-rule="nonzero" stroke-linecap="butt" stroke-linejoin="miter" stroke-miterlimit="10" stroke-dasharray="" stroke-dashoffset="0" style="mix-blend-mode: normal"><path d="M193,257.5v-155h94v155z" fill="#ddcb00" stroke="#a7a7a7" stroke-width="0.5"/><path d="M216.5,180c0,-12.97869 10.52131,-23.5 23.5,-23.5c12.97869,0 23.5,10.52131 23.5,23.5c0,12.97869 -10.52131,23.5 -23.5,23.5c-12.97869,0 -23.5,-10.52131 -23.5,-23.5z" fill="#4e4e4e" stroke="#a7a7a7" stroke-width="2.5"/><path d="M242.22699,169.09202c-2.42536,-0.60634 -1.81902,-3.0317 -1.81902,-3.0317l0.58808,-1.96734c4.08268,-7.09141 6.81664,-15.44682 7.34281,-23.59262c0,0 0.1663,-2.49446 2.66076,-2.32817c2.49446,0.1663 2.32817,2.66076 2.32817,2.66076c-0.61246,8.93271 -3.55925,17.93567 -7.99052,25.74072l-0.07858,0.69933c0,0 -0.60634,2.42536 -3.0317,1.81902z" fill="#646464" stroke="none" stroke-width="0.5"/><path d="M283.33333,185.33333c0,2.5 -2.5,2.5 -2.5,2.5h-1.33333c-8.06213,0 -15.92345,-0.66667 -24,-0.66667c0,0 -2.5,0 -2.5,-2.5c0,-2.5 2.5,-2.5 2.5,-2.5c8.07719,0 15.94188,0.66667 24,0.66667h1.33333c0,0 2.5,0 2.5,2.5z" fill="#646464" stroke="none" stroke-width="0.5"/><path d="M237.83333,231.16667c-2.5,0 -2.5,-2.5 -2.5,-2.5l0.01241,-1.91543c0.33891,-3.35645 -0.01406,-6.77485 0.41377,-10.10372c0.70275,-5.46798 1.09349,-10.19552 0.58409,-15.75451c0,0 -0.22634,-2.48973 2.26339,-2.71607c2.48973,-0.22634 2.71607,2.26339 2.71607,2.26339c0.52905,5.86355 0.1727,10.96642 -0.59212,16.74088c-0.43751,3.30322 -0.0792,6.72928 -0.41002,10.06755l0.01241,1.41791c0,0 0,2.5 -2.5,2.5z" fill="#646464" stroke="none" stroke-width="0.5"/><path d="M203,178.33333c0,-2.5 2.5,-2.5 2.5,-2.5h0.66667c6.94703,0 13.66949,1.33618 20.66667,1.33333c0,0 2.5,0 2.5,2.5c0,2.5 -2.5,2.5 -2.5,2.5c-6.99506,-0.00272 -13.73418,-1.33333 -20.66667,-1.33333h-0.66667c0,0 -2.5,0 -2.5,-2.5z" fill="#646464" stroke="none" stroke-width="0.5"/></g></g></svg>