<svg version="1.1" xmlns="http://www.w3.org/2000/svg" xmlns:xlink="http://www.w3.org/1999/xlink" width="146.61824" height="233.15516" viewBox="0,0,146.61824,233.15516"><g transform="translate(-177.80825,-42.66673)"><g data-paper-data="{&quot;isPaintingLayer&quot;:true}" fill-rule="nonzero" stroke-linecap="butt" stroke-linejoin="miter" stroke-miterlimit="10" stroke-dasharray="" stroke-dashoffset="0" style="mix-blend-mode: normal"><path d="M290.75,124.67813c0,22.36753 -18.35633,40.5 -41,40.5c-22.64367,0 -41,-18.13247 -41,-40.5c0,-22.36753 18.35633,-40.5 41,-40.5c22.64367,0 41,18.13247 41,40.5z" fill="none" stroke="#000000" stroke-width="5"/><path d="M189.25,176.67814c0,-2.40919 2.32168,-2.4967 2.49034,-2.49988c2.57611,-1.0957 5.83666,-2.47531 8.53689,-2.95501c0.33921,-0.06026 6.64856,-0.04511 6.97277,-0.04511c5.5,0 11,0 16.5,0c4.58848,0 9.26553,0.25872 13.84466,0.00483c2.60847,-0.14463 5.1394,-0.44536 7.68838,-0.68032c-15.1106,-4.65494 -31.55398,-10.48322 -47.28669,-7.33667l-3.24634,0.01217c0,0 -2.5,0 -2.5,-2.5c0,-2.5 2.5,-2.5 2.5,-2.5l2.75366,0.01217c16.42386,-3.28477 33.48572,2.74869 49.23709,7.54607c0.07216,-0.33113 0.2301,-0.68602 0.50926,-1.05823c1.5,-2 3.5,-0.5 3.5,-0.5c0.88373,0.74209 2.10488,1.20979 2.65119,2.22627c1.3529,2.51724 1.233,6.64534 1.81653,9.37328c0.33074,1.54616 1.17942,2.9517 1.5,4.5c0.75404,3.64178 0.03228,8.18219 0.03228,11.90046c0,3.9513 0.6031,8.50655 -0.03228,12.40046c-0.32821,2.01143 -0.86247,3.92895 -1.57997,5.76174c2.25269,0.8222 1.48396,3.12837 1.48396,3.12837c-1.27564,3.68286 -0.87171,7.31848 -0.87171,11.20943c0,5.84048 0.71794,10.6212 1.92679,16.38711c0.32157,1.5338 1.17803,6.17671 2.17514,7.75942c1.78036,2.82597 5.02611,5.74622 7.26088,8.18616c3.71159,4.05232 5.83065,8.11234 10.38428,11.3791c0.49271,0.66685 1.06688,1.28406 1.69937,1.83368c0.16935,-0.02947 0.35343,-0.04548 0.55353,-0.04548c2.5,0 2.5,2.5 2.5,2.5l-3.78624,3.14373c-1.67126,-1.03422 -3.27123,-2.29108 -4.46086,-3.85553c-4.63803,-3.29805 -6.85789,-7.52483 -10.61572,-11.6209c-1.79781,-1.95963 -3.45047,-4.0489 -5.10769,-6.12877c-0.78093,-0.98009 -1.98346,-1.61241 -2.63142,-2.68507c-1.54625,-2.55973 -2.26107,-6.5837 -2.8637,-9.43477c-1.54392,-7.3044 -3.07046,-15.92443 -2.22783,-23.79923c-0.09441,0.12202 -0.18968,0.24363 -0.28582,0.36482c-6.39498,2.7648 -13.29696,4.39469 -19.17333,8.12155c-12.24394,7.76524 -15.79326,23.7455 -15.87967,37.29462l-1,3v2.5l-1,3l0.03228,2.09954h-5l0.03228,-2.90046l1,-3v-2.5l1,-3c-0.10605,-15.00383 4.80927,-32.20956 18.12033,-40.70538c5.7157,-3.64806 12.4433,-5.65972 18.82667,-7.87845c4.77989,-7.12706 4.52072,-14.21699 4.52072,-22.51571c0,-3.41938 0.77233,-7.77195 0.03228,-11.09954c-0.34325,-1.54343 -1.16814,-2.95408 -1.5,-4.5c-0.09163,-0.42684 -0.15365,-0.8947 -0.2036,-1.38551c-4.12629,0.10635 -8.0405,0.75019 -12.17334,0.98022c-4.68228,0.26061 -9.46344,0.00483 -14.15534,0.00483c-5.5,0 -11,0 -16.5,0c-2.00913,0 -4.05241,-0.41484 -6.02723,-0.04511c-2.55636,0.47861 -5.6227,1.81866 -7.98797,2.84297l-1.4848,0.20214c0,0 -2.5,0 -2.5,-2.5z" fill="#000000" stroke="none" stroke-width="0.5"/><path d="M229.25,132.17814c-2.5,0 -2.5,-2.5 -2.5,-2.5l0.17881,-1.42848c1.8762,-4.42744 0.80707,-10.54702 1.33648,-15.3476c0,0 0.27608,-2.48471 2.76079,-2.20863c2.48471,0.27608 2.20863,2.76079 2.20863,2.76079c-0.61908,5.5278 0.32975,11.45567 -1.66352,16.6524l0.17881,-0.42848c0,0 0,2.5 -2.5,2.5z" fill="#000000" stroke="none" stroke-width="0.5"/><path d="M245.96376,132.32186c-2.14373,-1.28624 -0.85749,-3.42997 -0.85749,-3.42997l1.42212,-2.36025c1.48986,-3.41873 3.01571,-6.819 4.40042,-10.28199c0,0 0.92848,-2.32119 3.24967,-1.39272c2.32119,0.92848 1.39272,3.24967 1.39272,3.24967c-1.44496,3.61119 -3.03603,7.15695 -4.59958,10.71801l-1.57788,2.63975c0,0 -1.28624,2.14373 -3.42997,0.85749z" fill="#000000" stroke="none" stroke-width="0.5"/><path d="M253.75,142.17814c0,2.5 -2.5,2.5 -2.5,2.5h-2.5c-2.49245,0 -4.95181,-0.19556 -7.39737,0.42628c-2.07953,0.52877 -4.21411,1.27698 -6.34897,1.06155c-3.38495,-0.34157 -5.71751,-2.15067 -8.5399,-3.8441c0,0 -2.14373,-1.28624 -0.85749,-3.42997c1.28624,-2.14373 3.42997,-0.85749 3.42997,-0.85749c1.54474,0.92685 2.95324,2.11696 4.61525,2.81193c2.39587,1.00182 4.20082,-0.0299 6.49588,-0.59448c2.88727,-0.71026 5.66959,-0.57372 8.60263,-0.57372h2.5c0,0 2.5,0 2.5,2.5z" fill="#000000" stroke="none" stroke-width="0.5"/><path d="M249.86325,158.75827c-2.08013,-1.38675 -0.69338,-3.46688 -0.69338,-3.46688l0.70842,0.67732c-0.28091,-0.87677 -0.44625,-1.79938 -0.84274,-2.6303c-0.47901,-1.00385 -1.67796,-1.72352 -1.76397,-2.83247c-0.15994,-2.06214 1.82409,-4.91988 2.83468,-6.61404c0,0 1.28624,-2.14373 3.42997,-0.85749c2.14373,1.28624 0.85749,3.42997 0.85749,3.42997c-0.46804,0.77489 -0.9164,1.56201 -1.40412,2.32467c-0.23455,0.36677 -0.85191,0.6355 -0.7612,1.0613c0.11809,0.55432 0.97161,0.66624 1.23603,1.16753c0.55409,1.05045 0.77151,2.24646 1.15726,3.3697l-1.29158,3.67732c0,0 -1.38675,2.08013 -3.46688,0.69338z" fill="#ff0000" stroke="none" stroke-width="0.5"/><path d="M244.25,128.17814c0,-1.38071 1.11929,-2.5 2.5,-2.5c1.38071,0 2.5,1.11929 2.5,2.5c0,1.38071 -1.11929,2.5 -2.5,2.5c-1.38071,0 -2.5,-1.11929 -2.5,-2.5z" fill="#ff0000" stroke="none" stroke-width="0.5"/><path d="M224.25,129.67814c0,-1.38071 1.11929,-2.5 2.5,-2.5c1.38071,0 2.5,1.11929 2.5,2.5c0,1.38071 -1.11929,2.5 -2.5,2.5c-1.38071,0 -2.5,-1.11929 -2.5,-2.5z" fill="#ff0000" stroke="none" stroke-width="0.5"/><path d="M315.85275,93.48801c-6.29567,1.88697 -12.55038,3.31083 -18.97054,4.31557c-0.72314,2.68602 -2.00306,5.58297 -4.36421,6.31064c-1.61113,0.49653 -2.88587,-1.75945 -4.20975,-2.8033c-2.67631,-2.11021 -5.01419,-4.78316 -7.71387,-6.90652c-2.79493,-2.19828 -6.1827,-4.70655 -9.24213,-6.4566c-2.58953,-1.48126 -6.14279,-1.33813 -8.97329,-1.8709c-4.25413,-0.80074 -8.19269,-0.77233 -12.54997,-0.82787c-2.1984,0.7328 -4.54658,0.30224 -6.70614,0.45437c-0.1649,0.03545 -0.34003,0.05468 -0.5227,0.04959c-0.45938,0.05582 -0.90868,0.14545 -1.34449,0.28649c-5.04632,1.63315 -10.36493,6.10885 -14.79767,8.9132c-2.13292,1.34938 -4.28204,2.67297 -6.42034,4.01381c-1.85202,1.16132 -3.36619,3.52233 -5.55197,3.49046c-4.9265,-0.07183 -4.36285,-4.84538 -4.43322,-7.5233c-0.06206,-2.36174 -0.2075,-4.8538 -0.11933,-7.32095c-0.18338,0.74072 -0.73711,1.85907 -2.4092,1.85907c-2.5,0 -2.5,-2.5 -2.5,-2.5c0.02428,-4.52532 -1.9366,-7.0888 -3.16207,-11.19563c-0.62858,-2.10651 -2.24091,-4.34076 -1.51974,-6.4174c0.57005,-1.64149 4.85248,-0.4454 4.73565,-2.17912c-0.19844,-2.94462 -1.18322,-5.7836 -1.69252,-8.69062c-0.23788,-1.35778 -1.5976,-8.74765 -1.61606,-10.08245c-0.02166,-1.56598 -0.52183,-3.57258 0.60608,-4.65912c2.81211,-2.70897 7.353,0.36533 9.41772,1.72076c0.69163,0.45404 0.9743,1.59778 1.79314,1.71614c2.10538,0.30431 2.87325,-3.45885 4.90815,-4.07886c1.40665,-0.42859 2.91768,0.36963 4.37651,0.55444c4.25466,3.81148 4.71993,3.60883 7.54473,8.43487c0.46243,0.79005 0.40263,1.86878 1.00972,2.55395c0.23269,0.26261 0.70581,-0.10601 1.01883,-0.26452c0.86567,-0.43836 1.61146,-1.09499 2.48797,-1.51124c2.62725,-1.24766 5.89085,-2.33464 8.71339,-3.06543c1.31246,-0.33981 2.70238,-1.31454 3.97689,-0.85232c3.08036,1.11714 3.48123,3.69683 3.67541,6.22628c0.00079,-0.00206 0.0016,-0.00409 0.00242,-0.00607c0.40166,-0.96897 0.83536,-1.96463 1.53245,-2.74841c1.32618,-1.4911 2.46651,-4.01746 4.46187,-3.99136c1.97005,0.02577 3.44068,1.935 4.71772,3.5637c1.83838,-2.68804 8.69339,-6.49788 11.877,-4.38499c1.51454,1.00517 1.27083,3.40614 1.90625,5.10922c0.0034,1.15054 0.19184,2.31551 0.01021,3.45163c-0.04911,0.30718 -0.96054,0.75474 -0.66645,0.6533c6.70234,-2.31178 12.08799,-7.63168 18.51724,-10.35938c2.05591,-0.87225 4.37758,-2.82461 6.41909,-1.9192c2.83108,1.25559 1.43445,7.38214 1.29662,9.45545c-0.02523,0.37957 0.0374,0.77105 0.07917,1.15786l2.00188,-1.86413c0.44697,-0.41857 1.04779,-0.67484 1.70846,-0.67484c1.38071,0 2.5,1.11929 2.5,2.5c0,0.15625 -0.01433,0.30915 -0.04176,0.45746l-0.81425,4.88551l-0.48669,-0.08112c-0.50439,8.09365 -2.38046,15.94375 -3.71987,24.06333l-2.3744,3.03295c0,0 -0.85713,0.85713 -1.97456,0.78087c-0.0595,1.42274 -0.19867,2.8618 -0.39231,4.31121c6.25859,-1.06662 12.36612,-2.55296 18.55267,-4.47825l0.16094,0.01956l-0.00934,-0.05179l4.87224,-0.87888c0.15912,-0.03177 0.32369,-0.04843 0.49215,-0.04843c1.38071,0 2.5,1.11929 2.5,2.5c0,1.15595 -0.78454,2.12867 -1.85021,2.41472l-3.72089,1.09081l-1.16987,0.39172c0,0 -0.93936,0.31312 -1.83278,-0.04593zM289.79993,93.70608c0.95458,-0.10606 1.90367,-0.2212 2.84803,-0.34549c0.857,-5.73924 1.47151,-11.77837 -1.91041,-16.44359c-5.77656,-5.04998 -12.17656,-7.00762 -18.99661,-10.18041c-3.57174,-1.66163 -6.92392,-3.55253 -10.77941,-4.58075c-2.75837,-0.73563 -5.56243,-1.20611 -8.38735,-1.44295c-0.54286,0.24794 -1.11885,0.35336 -1.72069,0.25109c-0.39265,-0.06672 -0.7534,-0.21054 -1.0884,-0.41056c-9.17443,-0.27732 -18.48102,1.78148 -27.07831,5.11008l-0.38024,0.68421c-1.27005,2.52162 -2.27252,5.16372 -3.05216,7.87925c1.02312,1.33928 -0.04434,2.86422 -0.04434,2.86422c-0.35318,0.49906 -0.67684,0.97807 -0.97338,1.44176c-0.21031,1.64213 -0.03947,3.38593 -0.74785,4.86769c-0.03913,0.08184 -0.07927,0.16311 -0.12037,0.24382l0.03912,0.01467l-1.23665,3.29772c-0.18985,0.54467 -0.56284,1.00351 -1.0452,1.30276c-0.05563,1.01181 -0.07326,2.10573 -0.07326,3.32168c0,1.11746 0.03988,2.23562 0,3.35237c-0.02362,0.6615 -0.12717,1.31771 -0.1903,1.97661c-0.01779,0.1857 -0.19231,0.68065 -0.05245,0.55719c5.33924,-4.71291 11.34496,-8.38692 17.54583,-12.05011c1.08324,-0.63993 6.92425,-3.99804 7.64592,-4.21801c0.50893,-0.15513 1.0183,-0.25288 1.52854,-0.31356c1.18564,-1.97871 2.78676,-3.68756 4.04685,-5.6219c0.15702,-0.24104 0.29404,-0.49998 0.41332,-0.77402c-2.90028,-0.05962 -5.80368,-0.10374 -8.71398,-0.10374c0,0 -0.15736,0 -0.39313,-0.03948c-0.1444,0.02594 -0.2931,0.03948 -0.44496,0.03948c-1.38071,0 -2.5,-1.11929 -2.5,-2.5c0,-1.38071 1.11929,-2.5 2.5,-2.5c0.15186,0 0.30057,0.01354 0.44496,0.03948c0.23577,-0.03948 0.39313,-0.03948 0.39313,-0.03948c3.15851,0 6.30924,0.05198 9.45672,0.11933c-0.01336,-2.00183 -0.22343,-4.02989 -0.22343,-5.58121c0,0 0,-2.5 2.5,-2.5c0.98027,0 1.57616,0.38437 1.93841,0.85168c1.25747,0.13107 2.23778,1.19426 2.23778,2.48641c0,1.0653 -0.66631,1.97497 -1.60491,2.33499c0.0242,0.82937 0.0442,1.67416 0.03976,2.52003c4.15624,0.09705 8.31095,0.18781 12.47462,0.18781h2.09523c0,0 2.5,0 2.5,2.5c0,2.5 -2.5,2.5 -2.5,2.5h-2.09523c-1.10267,0 -2.20465,-0.00636 -3.30616,-0.01752c0.51199,0.33048 1.84918,1.41216 0.93273,3.24506c-1.11803,2.23607 -3.3541,1.11803 -3.3541,1.11803l-0.96041,-0.48451c-1.61786,-0.96092 -3.4846,-1.58316 -5.35543,-1.78514c0,0 -0.78529,-0.09816 -1.41698,-0.62586c-0.19632,0.50998 -0.42981,1.00222 -0.70694,1.47215c-0.602,1.02081 -1.34079,1.95331 -2.07735,2.88697c0.39103,-0.07194 0.7835,-0.16938 1.17758,-0.30074c10.26108,-0.09936 20.34212,0.16347 28.98724,6.22691c3.54669,2.48755 7.04693,4.96778 10.306,7.8165c0.64747,-0.55858 1.47862,-0.65093 1.47862,-0.65093zM300.5848,67.16481c0.4781,-2.74906 0.54507,-4.63732 1.22646,-6.44418c-1.35844,0.89722 -2.72263,1.65877 -4.1383,1.20466c-1.26063,-0.40438 -1.41048,-6.44152 -1.29315,-8.19641c0.08094,-1.21057 0.09839,-2.44489 0.41528,-3.61604c0.08823,-0.32607 0.63908,-0.92581 0.85867,-1.15357c-3.81278,3.77878 -8.63794,6.33259 -13.44194,8.80803c-1.58016,0.81423 -3.02842,1.9722 -4.74505,2.43377c-2.31126,0.62146 -4.93135,1.68487 -7.13953,0.76179c-1.87167,-0.78241 -1.49919,-6.08022 -1.49433,-7.62836c0.07669,-0.53184 0.6076,-1.21316 0.23006,-1.59552c-0.30733,-0.31126 -0.73494,0.47456 -1.10206,0.71239c-0.91483,0.59267 -1.85499,1.14804 -2.74376,1.7791c-0.96306,0.6838 -2.66166,2.21848 -4.15839,3.32442c3.81002,1.14163 7.21471,2.98072 10.8026,4.65358c3.04833,1.42129 6.36869,2.21312 9.39434,3.68208c4.08183,1.98173 7.79216,4.6966 11.18731,7.66941c1.90594,2.69491 2.97492,5.57609 3.47715,8.57929c0.85724,-4.99107 1.79306,-9.9629 2.66463,-14.97444zM258.19711,55.18146c-0.31423,-0.54541 -0.08433,-1.81118 -0.71075,-1.74949c-0.64987,0.06399 -0.28509,1.28611 -0.56668,1.87529c-0.11567,0.24201 -0.25428,0.52341 -0.41416,0.82901c0.75664,0.11269 1.51105,0.24161 2.26278,0.38726c-0.17632,-0.48144 -0.35037,-0.95877 -0.57119,-1.34206zM246.30767,54.46736c-0.03886,-0.23819 0.13884,-0.73917 -0.10146,-0.71687c-0.44341,0.04114 -0.63789,0.65925 -1.05166,0.82387c-1.31328,0.52248 -2.67488,0.9212 -4.0287,1.3379c1.74846,-0.18965 3.5009,-0.31175 5.25203,-0.36052c-0.01388,-0.36561 -0.01352,-0.73689 -0.07021,-1.08438zM226.16257,54.72394c-1.57896,-2.37849 -3.43624,-4.5907 -5.49037,-6.57334c-0.94782,-0.41232 -1.59307,1.32683 -2.46748,1.878c-1.53622,0.96832 -3.19499,2.20713 -5.0097,2.14042c-1.58763,-0.05836 -2.70961,-1.65962 -4.07351,-2.47433c-0.62001,-0.37035 -1.27813,-0.6836 -1.90861,-1.03747c0.24217,1.21745 0.05035,2.94131 0.23417,4.07934c0.50584,3.13153 1.19131,6.46784 1.68318,9.60469c0.18988,1.21095 0.46238,2.3094 0.65086,3.33067c0.95613,-0.43518 2.08797,-0.65226 3.02919,-1.10596c2.07037,-1.03851 4.20274,-2.01331 6.38403,-2.91021l0.8108,-1.4599c0,0 1.21411,-2.18539 3.3995,-0.97129l0.00002,0.00001c0.3088,0.17156 0.54973,0.36251 0.73579,0.56394c1.36678,-0.47028 2.74806,-0.90783 4.14091,-1.30946c-0.96476,-0.98216 -1.33605,-2.57603 -2.11878,-3.75512zM207.16207,72.33656c-0.69898,0.48436 -2.16699,-1.21398 -2.51344,-0.43735c-0.36474,0.81763 1.35282,1.20766 1.83263,1.96352c0.55154,0.86888 0.78578,1.90297 1.21538,2.83816c1.47023,3.2005 2.20767,6.05671 2.31407,9.5114c0.04598,-0.59901 0.10949,-1.19478 0.19516,-1.78505l-0.03086,-0.03473c-0.72197,-4.09498 -2.01216,-8.49541 -2.19275,-12.68294c-0.24541,0.20876 -0.51799,0.41758 -0.82019,0.62699zM213.67305,75.85813c0.57283,-2.46905 1.29837,-4.87867 2.1929,-7.22785c-0.35414,0.17114 -0.70651,0.34413 -1.05704,0.51888c-0.76562,0.12984 -1.66756,-0.06546 -2.29685,0.38953c-0.28346,0.20495 0.37722,0.60818 0.44136,0.95204c0.21524,1.15391 0.19375,2.34242 0.38906,3.49987c0.1053,0.62405 0.21644,1.24626 0.33057,1.86753z" fill="#ff0000" stroke="none" stroke-width="0.5"/><path d="M300.11884,250.81881c0,2.5 -2.5,2.5 -2.5,2.5c-0.77359,0 -2.75215,0 -4.26733,0c0.03986,0.69427 0.06214,1.3967 0.06261,2.10951c0,2.34842 0.75922,8.17263 -1.30311,9.86943c-1.1809,0.9716 -3.0239,0.4838 -4.54926,0.59245c-4.31372,0.30726 -8.66794,-0.93748 -12.84478,-1.84516c-8.5855,-1.86575 -17.19535,-3.53899 -25.79549,-5.33058c-2.96731,-0.61815 -7.73382,-1.24828 -10.08439,-3.21859c-1.79039,-1.50075 -1.41136,-5.08578 -1.89306,-7.01232c-0.13335,-0.53332 -0.27255,-1.00747 -0.40909,-1.43982c-0.13793,1.91249 -0.3166,3.81796 -1.20541,5.71567c-1.56638,3.34439 -5.46189,5.72123 -8.39986,7.68238c-5.00495,3.3409 -8.83917,5.19853 -14.61264,6.63185c-2.14896,0.5335 -5.02379,2.31324 -7.26919,0.30045c-1.31054,-1.17478 -1.40105,-5.62966 -1.27629,-7.49028c0.52304,-7.8003 2.10824,-15.20829 2.9757,-22.95758c1.23136,-4.33645 2.62076,-9.03025 5.64452,-12.52693c4.54389,-5.25454 11.48426,-4.96572 16.71792,-8.71321c1.89133,-1.35426 4.51318,-5.03105 5.66272,-6.91174c2.48123,-4.05939 4.6089,-8.39825 6.62701,-12.7585c-0.42114,-0.24765 -0.80718,-0.6763 -1.04733,-1.39674c-0.79057,-2.37171 1.58114,-3.16228 1.58114,-3.16228c0.58662,-0.18867 1.17395,-0.34411 1.7623,-0.47184c0.12785,-0.28158 0.25564,-0.56283 0.38343,-0.84368c0.66167,-1.45421 1.45251,-2.84649 2.14651,-4.2855c-11.08096,4.19615 -22.00424,8.52171 -33.96811,9.58414c-5.11984,0.45466 -10.07685,1.24485 -15.20812,0.43445c-5.66551,-0.89477 -11.6606,-3.98787 -16.11388,-7.54914c-1.12508,-0.89972 -2.78858,-1.63731 -3.05976,-3.05215c-0.34017,-1.77485 0.67892,-3.59456 1.47488,-5.21698c2.69167,-5.48656 9.66938,-8.34982 15.34611,-9.16797c0.44258,0.04196 0.95339,0.36567 1.32773,0.12587c0.2641,-0.16918 -0.64334,-0.19254 -0.82877,-0.44549c-1.45481,-1.98452 -2.46668,-4.26977 -3.92237,-6.25364c-1.30654,-1.7806 -3.83611,-2.43019 -5.07677,-4.25731c-1.5192,-2.23731 -0.98922,-7.10409 0.96497,-8.87236c1.31291,-1.188 7.65262,-0.50413 9.46737,-0.50413c8.01229,0 15.71342,0.54221 23.69292,1.26741c0,0 2.48973,0.22634 2.26339,2.71607c-0.22634,2.48973 -2.71607,2.26339 -2.71607,2.26339c-7.83487,-0.71247 -15.37413,-1.24687 -23.24024,-1.24687c-1.81587,0 -3.65004,0.25722 -5.4476,0c-0.37212,-0.05325 -0.69665,-0.7136 -1.00879,-0.50413c-0.56099,0.37647 -0.38376,1.58047 0.12687,2.02284c0.69471,0.60184 1.7799,0.60293 2.48787,1.18911c0.98852,0.81848 1.71405,1.91414 2.49247,2.9345c0.55824,0.73175 1.93713,2.88165 3.01837,4.6492c0.70547,-1.04399 2.1022,-1.04399 2.1022,-1.04399c1.95555,0 3.9111,0 5.86665,0h1.25714c0,0 2.5,0 2.5,2.5c0,2.5 -2.5,2.5 -2.5,2.5c-1.95555,0 -5.16824,0 -7.12378,0c0,0 -0.02335,0 -0.06555,-0.00226c0.42409,1.07442 0.73384,2.19103 0.25093,3.13594c-0.79652,1.55856 -3.02595,1.7601 -4.53892,2.64015c-4.94129,0.69953 -9.37716,2.69573 -12.31093,6.75578c-0.35432,0.49034 -1.07025,0.88359 -1.0394,1.48776c0.01989,0.38945 0.78619,0.11753 1.1307,0.30022c1.11477,0.59115 2.13585,1.34433 3.21224,2.0028c3.76061,2.30054 7.48453,4.17973 11.70969,4.83262c0.11734,-1.27165 1.18705,-2.26738 2.48932,-2.26738c1.37607,0 2.49247,1.11177 2.49996,2.48607c15.91228,-0.45936 30.20286,-6.26814 44.95753,-11.70924l2.69992,-1.05939c0.29726,-0.12468 0.6237,-0.19356 0.96623,-0.19356c1.38071,0 2.5,1.11929 2.5,2.5c0,0.62635 -0.23034,1.1989 -0.61093,1.63756l-2.30913,2.69398c-0.75398,1.7606 -1.51663,3.51527 -2.30215,5.25702c1.8629,-0.013 3.74512,0.06375 5.65552,0.06375l0.55815,-0.57416c0,0 2.23607,-1.11803 3.3541,1.11803c1.11803,2.23607 -1.11803,3.3541 -1.11803,3.3541l-2.79422,1.10202c-2.64693,0 -5.37545,-0.26884 -8.01415,-0.04776c-1.48165,3.0054 -3.0764,5.95005 -4.8613,8.79609c-1.41438,2.25523 -2.03744,4.94267 -3.42538,7.21426c-1.25785,2.05867 -2.84373,3.90264 -4.39428,5.7509c-4.88256,5.82 -13.63268,4.9478 -18.53448,10.587c-2.37324,2.73026 -3.43642,6.71108 -4.41258,10.10157c-0.70754,6.41682 -2.15479,12.47602 -2.4719,18.91848c-0.09431,1.91606 -0.97277,4.88932 -0.85725,6.78584c0.01519,0.24937 0.25178,-0.46853 0.47582,-0.57908c0.73101,-0.36073 1.52163,-0.59754 2.3121,-0.79665c2.31619,-0.58342 4.86514,-0.82056 7.04708,-1.91474c3.48937,-1.74981 10.92857,-5.96991 12.68312,-9.75189c1.18591,-2.55625 0.15502,-4.57408 0.62199,-7.30546c0.22272,-1.30273 0.90161,-2.48456 1.35507,-3.72613l0.81011,-2.43033c0.31417,-1.02156 1.26534,-1.76412 2.38994,-1.76412c1.0731,0 1.98829,0.67611 2.34282,1.62559l1.65456,4.13639l-0.36542,0.14617c0.87478,1.73584 1.51997,3.53912 2.14783,6.0509c0.27681,1.10742 0.28078,2.26567 0.4297,3.3974c0.05816,0.44198 -0.18495,1.08483 0.19151,1.32357c2.95434,1.87354 9.0718,2.19885 12.38214,2.85307c7.01145,1.38567 13.99209,2.77928 20.97671,4.29762c4.01656,0.87313 7.79259,1.20765 11.78283,1.73109c0.4774,0.06263 0.85095,0.71191 1.31739,0.59245c0.30106,-0.0771 -0.4107,-0.50554 -0.4565,-0.81293c-0.25747,-1.72806 -0.00852,-3.49426 -0.00852,-5.2414c0.00401,-5.79849 -1.50451,-10.82482 -2.0803,-16.48905c-0.59333,-5.83682 -1.18454,-11.76769 -1.68134,-17.65188c-0.5533,-6.55335 -0.94105,-13.22614 -1.26397,-19.7947c-0.22626,-4.60238 0.11591,-8.91852 -0.79514,-13.47301c-1.05974,-5.29779 -3.83941,-9.36852 -4.61488,-14.69518c-0.90314,-4.06415 -1.31968,-7.69144 -1.27349,-11.83481l-0.76607,-2.59327c0,0 -0.6868,-2.40381 1.71701,-3.09061l-0.00004,-0.00002c2.40381,-0.6868 3.09061,1.71701 3.09061,1.71701l0.91012,3.27337c0.01726,2.04324 0.10203,3.93063 0.29324,5.80863c3.68648,0 7.37296,0 11.05945,0l2.60586,1.57033c0,0 1.76777,1.76777 0,3.53553c-1.76777,1.76777 -3.53553,0 -3.53553,0l0.92967,-0.10586c-3.42943,0 -6.85885,0 -10.28828,0c0.05609,0.272 0.11485,0.54625 0.17639,0.82314c0.48693,3.48095 1.33783,4.26463 2.74296,7.36081c1.34958,2.97378 1.84334,6.69365 2.29997,9.90773c1.45187,10.21927 0.81796,20.84367 1.69256,31.14918c0.49685,5.85441 1.10043,11.73855 1.67103,17.548c0.13771,1.40202 0.33121,2.77035 0.5457,4.12325c0.72994,-0.90286 1.99777,-0.90286 1.99777,-0.90286c2.35341,0 3.89478,0.23677 5.82212,-0.51711c0.32689,-0.59327 0.95042,-1.15907 2.13976,-1.15907c2.5,0 2.5,2.5 2.5,2.5l-1.38197,2.65511c-3.2978,1.56826 -5.49425,1.52107 -9.07991,1.52107c0,0 -0.71369,0 -1.37842,-0.38132c0.11585,0.69412 0.22872,1.38863 0.33379,2.08606c0.76726,0 1.53451,0 2.30177,0h2.51428c0,0 2.5,0 2.5,2.5z" fill="#ff0000" stroke="none" stroke-width="0.5"/><path d="M312.88322,111.25785c-3.97067,0.00441 -7.94133,0.00432 -11.91201,0.00432c0,0 -2.5,0 -2.5,-2.5c0,-2.5 2.5,-2.5 2.5,-2.5c4.80308,0 9.60611,-0.00068 14.40918,0.00842l2.31425,-0.38571c0.14831,-0.02742 0.30121,-0.04176 0.45746,-0.04176c1.38071,0 2.5,1.11929 2.5,2.5c0,1.09231 -0.70054,2.02101 -1.67684,2.36132l-3.29772,1.23665c0,0 -1.75352,0.65757 -2.79432,-0.68323z" fill="#ff0000" stroke="none" stroke-width="0.5"/><path d="M304.46491,166.46869c-1.27092,-0.98849 -1.08671,-2.15888 -0.79451,-2.86686c-1.95472,0.09163 -3.93132,0.04111 -6.08011,0.04111c-3.17908,0 -6.46205,0.78201 -9.53721,-0.02416c-1.77814,-0.46615 -4.56136,-0.65964 -4.93595,-2.4593c-0.74212,-3.56537 4.71361,-7.83246 6.65993,-10.03387c5.06529,-5.72918 10.05555,-11.95643 14.75504,-17.99613c1.21096,-1.55631 1.96933,-3.4954 2.93165,-5.24251c-1.78167,-0.14286 -3.55638,-0.40443 -5.30663,-0.74958c0,0 -2.45145,-0.49029 -1.96116,-2.94174c0.49029,-2.45145 2.94174,-1.96116 2.94174,-1.96116c2.20799,0.44854 4.45866,0.79528 6.7117,0.8043l3.51729,-0.78162c0.19068,-0.04655 0.38994,-0.07123 0.59496,-0.07123c1.38071,0 2.5,1.11929 2.5,2.5c0,0.79812 -0.374,1.50888 -0.9563,1.9666l-2.0772,1.66176l-0.0213,-0.02662c-4.10354,6.42121 -8.75161,12.11839 -13.58387,18.21204c-3.20618,4.04311 -6.28868,9.10159 -10.654,12.11043c1.12943,-0.11618 2.28243,0.03592 3.42131,0.03281c5.12814,-0.01401 10.64189,0.73401 15.58778,-0.72165l2.42336,-0.80779c0.2642,-0.09499 0.54902,-0.14675 0.84593,-0.14675c1.38071,0 2.5,1.11929 2.5,2.5c0,0.99801 -0.58479,1.85943 -1.43041,2.26029l-2.08279,1.0414l-2.46102,3.26172c0,0 -1.53485,1.97338 -3.50823,0.43853z" fill="#ff0000" stroke="none" stroke-width="0.5"/><path d="M295.15286,192.1443c-0.411,-2.46598 2.05499,-2.87698 2.05499,-2.87698c1.67963,-0.26619 3.31489,-0.82848 4.8738,-1.50806l2.24194,-0.20214c0,0 1.79212,0 2.34169,1.51733c2.23655,-0.79361 4.47349,-1.61425 6.73944,-2.41395c0.5006,-0.56999 1.40154,-1.16433 2.7821,-0.58454c2.30498,0.96803 1.33695,3.27301 1.33695,3.27301l-1.62503,1.73511c-7.90414,2.75869 -15.42956,5.79162 -23.69932,7.29937c0,0 -2.45967,0.44721 -2.90689,-2.01246c-0.44721,-2.45967 2.01246,-2.90689 2.01246,-2.90689c1.33896,-0.24274 2.65772,-0.52813 3.96138,-0.84762c-0.04669,-0.14431 -0.08503,-0.30134 -0.1135,-0.47217z" fill="#ff0000" stroke="none" stroke-width="0.5"/><path d="M311.3048,213.89523c-0.79057,2.37171 -3.16228,1.58114 -3.16228,1.58114l-0.46657,-0.29075c-3.38004,-0.00511 -6.17169,0.35793 -9.45077,1.18249c0,0 -2.42536,0.60634 -3.0317,-1.81902c-0.60634,-2.42536 1.81902,-3.0317 1.81902,-3.0317c3.66075,-0.91029 6.89165,-1.32659 10.66345,-1.33178l2.04771,0.54734c0,0 2.37171,0.79057 1.58114,3.16228z" fill="#ff0000" stroke="none" stroke-width="0.5"/><path d="M301.31645,228.73265c-0.54233,2.44047 -2.98279,1.89814 -2.98279,1.89814l-3.77142,-0.83809c0,0 -2.44047,-0.54233 -1.89814,-2.98279c0.54233,-2.44047 2.98279,-1.89814 2.98279,-1.89814l3.77142,0.83809c0,0 2.44047,0.54233 1.89814,2.98279z" fill="#ff0000" stroke="none" stroke-width="0.5"/><path d="M270.36657,215.61894c0,2.5 -2.5,2.5 -2.5,2.5c-1.11746,0 -3.073,0 -4.19046,0c0,0 -2.5,0 -2.5,-2.5c0,-2.5 2.5,-2.5 2.5,-2.5c1.11746,0 2.23491,0 3.35237,0h0.83809c0,0 2.5,0 2.5,2.5z" fill="#ff0000" stroke="none" stroke-width="0.5"/><path d="M265.07408,236.01309c-1.11803,2.23607 -3.3541,1.11803 -3.3541,1.11803l0.6335,-0.18024c-0.97777,0.13968 -1.95555,0.27936 -2.93332,0.41905c0,0 -2.47487,0.35355 -2.82843,-2.12132c-0.35355,-2.47487 2.12132,-2.82843 2.12132,-2.82843c0.97777,-0.13968 1.95555,-0.27936 2.93332,-0.41905l2.30968,0.65785c0,0 2.23607,1.11803 1.11803,3.3541z" fill="#ff0000" stroke="none" stroke-width="0.5"/><path d="M239.80475,234.05696c0,-1.38071 1.11929,-2.5 2.5,-2.5c1.38071,0 2.5,1.11929 2.5,2.5c0,1.38071 -1.11929,2.5 -2.5,2.5c-1.38071,0 -2.5,-1.11929 -2.5,-2.5z" fill="#ff0000" stroke="none" stroke-width="0.5"/><path d="M279.16654,182.93334c0,2.5 -2.5,2.5 -2.5,2.5l0.26776,-0.09619c-3.76986,1.06613 -7.43758,1.37037 -11.33324,1.75997c0,0 -2.48759,0.24876 -2.73635,-2.23883c-0.24876,-2.48759 2.23883,-2.73635 2.23883,-2.73635c3.59461,-0.35943 6.98713,-0.58936 10.45716,-1.5924l1.10585,-0.09619c0,0 2.5,0 2.5,2.5z" fill="#ff0000" stroke="none" stroke-width="0.5"/><path d="M301.40453,219.39035c0,-1.38071 1.11929,-2.5 2.5,-2.5c1.38071,0 2.5,1.11929 2.5,2.5c0,1.38071 -1.11929,2.5 -2.5,2.5c-1.38071,0 -2.5,-1.11929 -2.5,-2.5z" fill="#ff0000" stroke="none" stroke-width="0.5"/><path d="M307.2569,239.07124c-0.97075,0 -1.56456,-0.37694 -1.92779,-0.83809c-0.1955,0 -0.39099,0 -0.58649,0c0,0 -2.5,0 -2.5,-2.5c0,-2.5 2.5,-2.5 2.5,-2.5c0.83809,0 1.67618,0 2.51428,0l2.5,3.33809c0,0 0,2.5 -2.5,2.5z" fill="#ff0000" stroke="none" stroke-width="0.5"/><path d="M275.36999,249.91522c-0.35355,2.47487 -2.82843,2.12132 -2.82843,2.12132l-2.4094,-0.39973c-0.80563,0.24924 -1.61126,0.49848 -2.41689,0.74771c0,0 -2.40381,0.6868 -3.09061,-1.71701c-0.6868,-2.40381 1.71701,-3.09061 1.71701,-3.09061c1.14992,-0.30949 2.29984,-0.61898 3.44975,-0.92847l3.45725,0.43836c0,0 2.47487,0.35355 2.12132,2.82843z" fill="#ff0000" stroke="none" stroke-width="0.5"/><path d="M225.52863,247.88549c0,2.5 -2.5,2.5 -2.5,2.5c-0.83809,0 -2.93332,0 -3.77142,0c0,0 -2.5,0 -2.5,-2.5c0,-2.5 2.5,-2.5 2.5,-2.5c0.83809,0 1.67618,0 2.51428,0h1.25714c0,0 2.5,0 2.5,2.5z" fill="#ff0000" stroke="none" stroke-width="0.5"/></g></g></svg>