<svg version="1.1" xmlns="http://www.w3.org/2000/svg" xmlns:xlink="http://www.w3.org/1999/xlink" width="107" height="107" viewBox="0,0,107,107"><defs><radialGradient cx="240" cy="180" r="53.5" gradientUnits="userSpaceOnUse" id="color-1"><stop offset="0" stop-color="#74007c"/><stop offset="1" stop-color="#cc00ff"/></radialGradient></defs><g transform="translate(-186.5,-126.5)"><g data-paper-data="{&quot;isPaintingLayer&quot;:true}" fill-rule="nonzero" stroke="none" stroke-linecap="butt" stroke-linejoin="miter" stroke-miterlimit="10" stroke-dasharray="" stroke-dashoffset="0" style="mix-blend-mode: normal"><path d="M186.5,180c0,-29.54723 23.95277,-53.5 53.5,-53.5c29.54723,0 53.5,23.95277 53.5,53.5c0,29.54723 -23.95277,53.5 -53.5,53.5c-29.54723,0 -53.5,-23.95277 -53.5,-53.5z" fill="url(#color-1)" stroke-width="0"/><path d="M231.08638,142.34851c0.65149,-2.41362 3.06511,-1.76213 3.06511,-1.76213l0.42934,0.11589c3.13426,0.8467 6.13887,2.1794 9.31963,2.83001c2.09191,0.4279 4.67563,-0.60289 6.36731,0.69995c1.27388,0.98108 0.59068,3.16612 0.73223,4.76777c0.43458,4.9172 -1.34606,10.1031 -3.22536,14.92934c0.31544,-0.09855 0.62736,-0.19857 0.93479,-0.30104c0,0 2.37171,-0.79057 3.16228,1.58114c0.79057,2.37171 -1.58114,3.16228 -1.58114,3.16228c-1.66332,0.55444 -3.44868,1.01407 -5.19397,1.57851c-0.38219,0.35021 -0.92469,0.63729 -1.65708,0.58032c-1.52434,0.58351 -2.97503,1.30215 -4.23584,2.29907c-1.98323,1.56813 -1.49016,3.63098 -1.21585,5.92405c0.68184,5.69993 2.19841,12.00048 4.7657,17.16394c0.65739,1.32218 5.26999,8.2724 5.23318,9.33983c-0.05667,1.64359 -1.77317,2.87249 -3.11048,3.82968c-4.81458,3.44603 -12.5269,3.84439 -18.14569,5.08908l-1.46277,1.59158c0,0 -1.76777,1.76777 -3.53553,0c-1.76777,-1.76777 0,-3.53553 0,-3.53553l2.53723,-2.40842c4.56097,-1.22373 9.31451,-1.88674 13.80525,-3.34111c1.37715,-0.446 2.68376,-1.08874 4.04906,-1.56981c0.28473,-0.10033 1.02647,0.09872 0.88952,-0.17032c-0.44775,-0.8796 -1.48483,-1.32505 -2.05927,-2.12766c-1.02427,-1.4311 -1.92473,-2.95633 -2.70755,-4.53251c-2.76192,-5.56105 -4.7218,-12.65531 -5.2343,-18.83606c-0.36068,-4.34978 -0.59963,-6.98203 2.78415,-10.07595c1.65097,-1.50954 3.69179,-2.51507 5.84109,-3.30957c1.75237,-4.5827 3.6782,-9.3081 4.38132,-14.16628c0.12866,-0.88894 -0.17931,-1.81081 -0.01873,-2.69454c0.08542,-0.47009 1.20218,-1.14599 0.73223,-1.23223c-1.21291,-0.22259 -2.40689,0.83459 -3.63269,0.69995c-3.39683,-0.37309 -6.52232,-2.0484 -9.82169,-2.93821l-0.42934,-0.11589c0,0 -2.41362,-0.65149 -1.76213,-3.06511z" fill="#c136cb" stroke-width="0.5"/><path d="M207.73607,141.88197c0.46573,0.93145 0.34945,1.66891 0.05522,2.21235c0.38421,0.28828 0.76843,0.57655 1.15264,0.86483c4.98961,3.32926 9.66348,7.19581 14.27434,11.03257c1.50072,1.24877 3.53294,2.08896 4.44309,3.81616c1.09497,2.07793 1.6881,4.63657 1.22443,6.93912c-0.86309,4.28603 -5.87407,3.70425 -8.57445,4.61768c-1.39347,0.47136 -2.56624,1.46449 -3.94398,1.98003c-1.34242,0.50233 -2.7606,0.78627 -4.1684,1.05559c-0.5474,0.10472 -1.19499,-0.22863 -1.67086,0.06148c-0.23419,0.14277 0.18103,0.52675 0.3436,0.74765c1.55477,2.11255 3.23184,4.13438 4.75643,6.26881c3.05162,4.27227 5.9103,9.05965 9.63962,12.754c0,0 1.76777,1.76777 0,3.53553c-1.76777,1.76777 -3.53553,0 -3.53553,0c-4.72529,-4.76283 -8.34433,-10.83087 -12.24954,-16.29112c-1.97041,-2.75502 -5.67663,-5.83598 -3.0108,-9.93842c1.05952,-1.63049 6.51298,-2.26366 8.16074,-2.88294c1.41384,-0.53136 2.62217,-1.54525 4.05602,-2.01997c1.46532,-0.48514 3.05968,-0.45003 4.55545,-0.83111c0.33271,-0.08477 0.85672,-0.20813 0.87011,-0.5512c0.1298,-3.32641 -1.64723,-3.50229 -4.04055,-5.37393c-4.66039,-3.64456 -9.09046,-7.55634 -14.01759,-10.83822c-1.35202,-1.01362 -2.70405,-2.02723 -4.05607,-3.04085l2.38197,-5.23607c0,0 2.23607,-1.11803 3.3541,1.11803z" fill="#c136cb" stroke-width="0.5"/><path d="M262,223c0,-2.5 2.5,-2.5 2.5,-2.5l0.20943,0.12829c0.58749,-0.03002 1.39707,0.37094 1.76246,-0.09007c0.33314,-0.42032 -0.42085,-1.00433 -0.47189,-1.53822c-0.07227,-0.75591 0.35735,-1.55854 0.10727,-2.27554c-0.3297,-0.94529 -1.23236,-1.58376 -1.75182,-2.43959c-0.33911,-0.55868 -4.57111,-8.59481 -4.57789,-8.61472c-0.58115,-1.70582 -0.62114,-3.5503 -0.92154,-5.32719c-1.19774,-7.08471 -1.78444,-15.11291 0.24369,-22.04194c0.2594,-0.88622 0.36779,-1.83205 0.57311,-2.73742c-5.59464,0.421 -10.13529,1.24738 -15.77915,-0.13825c0,0 -2.42536,-0.60634 -1.81902,-3.0317c0.60634,-2.42536 3.0317,-1.81902 3.0317,-1.81902c6.00547,1.53271 12.11773,0.35873 18.26802,0.01274c0.12196,-0.11638 0.2416,-0.2345 0.35787,-0.35515c0,0 1.76777,-1.76777 3.53553,0c0.09863,0.09863 0.18625,0.19725 0.26379,0.29557c1.64338,0.0307 4.42076,-0.06029 4.65875,-1.48451c0.22237,-1.3308 -0.12687,-2.69553 -0.1903,-4.04329v-3c0,0 0,-2.5 2.5,-2.5c2.5,0 2.5,2.5 2.5,2.5v3c-0.06343,1.98557 0.46438,4.0811 -0.1903,5.95671c-0.9594,2.74859 -4.45003,4.04926 -6.90924,4.51101c-1.51596,0.28464 -3.14142,0.23183 -4.76987,0.14058c-0.17218,0.1918 -0.32673,0.39738 -0.45508,0.62345c-2.21189,3.89586 -1.67139,9.52113 -1.6755,13.76825c-0.0043,4.44169 0.05609,9.78889 1.51043,14.05772c1.85265,5.43797 6.7573,8.93163 6.48957,14.94228c-0.06655,1.49407 0.41704,3.25908 -0.47189,4.46178c-0.92091,1.24596 -2.82502,1.27329 -4.23754,1.90993l-1.79057,0.12829c0,0 -2.5,0 -2.5,-2.5z" fill="#c136cb" stroke-width="0.5"/><path d="M198.12829,205.79057c-0.79057,-2.37171 1.58114,-3.16228 1.58114,-3.16228l2.47624,-0.75492c2.18568,-1.79551 0.01628,-5.23732 -0.17351,-7.62703c-0.13739,-1.72992 -0.37962,-3.55976 0.17813,-5.20305c0.40603,-1.19628 1.69462,-1.87404 2.54193,-2.81106c0,0 1.76777,-1.76777 3.53553,0c1.76777,1.76777 0,3.53553 0,3.53553c-2.94033,2.39761 -0.60615,5.46942 -0.30014,8.88099c0.12816,1.42876 0.40243,2.97892 -0.15494,4.3007c-0.56581,1.34178 -1.99891,2.11811 -2.99836,3.17716l-3.52376,1.24508c0,0 -2.37171,0.79057 -3.16228,-1.58114z" fill="#c136cb" stroke-width="0.5"/><path d="" fill="#c136cb" stroke-width="0.5"/><path d="" fill="#c136cb" stroke-width="0.5"/><path d="" fill="#c136cb" stroke-width="0.5"/></g></g></svg>